<svg width="16" height="16" viewBox="0 0 16 16" fill="none" xmlns="http://www.w3.org/2000/svg">
<g clip-path="url(#clip0_5_813)">
<path d="M13.4698 12.3285C13.5024 12.4179 13.5087 12.5147 13.4881 12.6076C13.4675 12.7005 13.4208 12.7856 13.3536 12.8529L11.8536 14.3529C11.8072 14.3994 11.752 14.4363 11.6913 14.4615C11.6306 14.4867 11.5656 14.4997 11.4998 14.4997C11.4834 14.5007 11.4669 14.5007 11.4505 14.4997C11.3768 14.4925 11.3057 14.469 11.2423 14.431C11.1789 14.3929 11.1247 14.3413 11.0836 14.2797L8.32921 10.1472L6.99983 11.4741V12.9997C6.99977 13.1322 6.94718 13.2592 6.85358 13.3529C6.85358 13.3529 5.97858 14.2316 5.86108 14.3454C5.81224 14.3965 5.75299 14.4366 5.68733 14.4629C5.56497 14.5127 5.42785 14.5121 5.30593 14.4611C5.18402 14.4102 5.08723 14.3131 5.03671 14.191L5.03296 14.1816L4.11421 11.8841L1.81233 10.9635C1.73554 10.9328 1.66758 10.8835 1.61451 10.82C1.56145 10.7566 1.52496 10.681 1.5083 10.6C1.49164 10.519 1.49533 10.4351 1.51905 10.3559C1.54277 10.2766 1.58577 10.2045 1.64421 10.146L2.64421 9.14599C2.6909 9.09935 2.74636 9.06241 2.8074 9.03731C2.86844 9.01221 2.93384 8.99944 2.99983 8.99974H4.52483L5.85421 7.67036L1.72233 4.91536C1.66071 4.87434 1.60896 4.82014 1.57083 4.75668C1.5327 4.69323 1.50913 4.62209 1.50184 4.54842C1.49454 4.47475 1.5037 4.40038 1.52864 4.33067C1.55359 4.26097 1.5937 4.19768 1.64608 4.14536L3.14608 2.64536C3.21337 2.57811 3.29845 2.53144 3.39134 2.51085C3.48422 2.49026 3.58105 2.49659 3.67046 2.52911L9.04171 4.48224L11.0123 2.51161C11.3405 2.18341 11.7857 1.99902 12.2498 1.99902C12.4797 1.99902 12.7072 2.04429 12.9196 2.13224C13.1319 2.22019 13.3248 2.3491 13.4873 2.51161C13.6498 2.67412 13.7788 2.86705 13.8667 3.07938C13.9547 3.29171 13.9999 3.51929 13.9999 3.74911C13.9999 3.97894 13.9547 4.20651 13.8667 4.41884C13.7788 4.63117 13.6498 4.8241 13.4873 4.98661L11.5167 6.95724L13.4698 12.3285Z" fill="black"/>
</g>
<defs>
<clipPath id="clip0_5_813">
<rect width="16" height="16" fill="white"/>
</clipPath>
</defs>
</svg>
