<svg width="16" height="16" viewBox="0 0 16 16" fill="none" xmlns="http://www.w3.org/2000/svg">
<g clip-path="url(#clip0_5_816)">
<path d="M16 13.4999C16 13.6325 15.9473 13.7597 15.8536 13.8534C15.7598 13.9472 15.6326 13.9999 15.5 13.9999H6.5C6.36739 13.9999 6.24021 13.9472 6.14645 13.8534C6.05268 13.7597 6 13.6325 6 13.4999C6 13.3673 6.05268 13.2401 6.14645 13.1463C6.24021 13.0525 6.36739 12.9999 6.5 12.9999H15.5C15.6326 12.9999 15.7598 13.0525 15.8536 13.1463C15.9473 13.2401 16 13.3673 16 13.4999ZM14.5 11.9999C14.6326 11.9999 14.7598 11.9472 14.8536 11.8534C14.9473 11.7597 15 11.6325 15 11.4999V9.26987C14.9987 8.72391 14.8193 8.19328 14.489 7.75855C14.1587 7.32382 13.6956 7.00873 13.17 6.86112L9.3675 5.79862L7.96125 2.44674C7.93371 2.38095 7.89241 2.32182 7.84012 2.27331C7.78784 2.2248 7.72579 2.18804 7.65812 2.16549L7.31625 2.05174C7.16597 2.00164 7.00594 1.98797 6.84934 2.01183C6.69275 2.0357 6.54406 2.09642 6.41552 2.18901C6.28699 2.28159 6.18229 2.40339 6.11005 2.54436C6.03781 2.68534 6.00009 2.84146 6 2.99987V4.83674L4.13312 4.30487L3.47 2.46924C3.44429 2.39819 3.40282 2.33389 3.34869 2.28118C3.29457 2.22846 3.2292 2.18869 3.1575 2.16487L2.81562 2.05112C2.66533 2.00113 2.50532 1.98755 2.34875 2.0115C2.19219 2.03546 2.04355 2.09626 1.91509 2.1889C1.78662 2.28155 1.682 2.40338 1.60983 2.54437C1.53766 2.68536 1.50002 2.84148 1.5 2.99987V6.48237C1.5012 7.02757 1.68006 7.55753 2.00949 7.99196C2.33892 8.42639 2.80096 8.74161 3.32562 8.88987L14.365 11.9811C14.4089 11.9935 14.4544 11.9998 14.5 11.9999Z" fill="black"/>
</g>
<defs>
<clipPath id="clip0_5_816">
<rect width="16" height="16" fill="white"/>
</clipPath>
</defs>
</svg>
