<svg width="16" height="16" viewBox="0 0 16 16" fill="none" xmlns="http://www.w3.org/2000/svg">
<g clip-path="url(#clip0_5_1581)">
<path d="M3.85378 2.35354L1.85378 4.35354C1.75996 4.44736 1.63272 4.50007 1.50003 4.50007C1.36735 4.50007 1.2401 4.44736 1.14628 4.35354C1.05246 4.25972 0.999756 4.13247 0.999756 3.99979C0.999756 3.86711 1.05246 3.73986 1.14628 3.64604L3.14628 1.64604C3.2401 1.55222 3.36735 1.49951 3.50003 1.49951C3.63272 1.49951 3.75996 1.55222 3.85378 1.64604C3.9476 1.73986 4.00031 1.86711 4.00031 1.99979C4.00031 2.13247 3.9476 2.25972 3.85378 2.35354ZM14.8538 3.64604L12.8538 1.64604C12.76 1.55222 12.6327 1.49951 12.5 1.49951C12.3674 1.49951 12.2401 1.55222 12.1463 1.64604C12.0525 1.73986 11.9998 1.86711 11.9998 1.99979C11.9998 2.13247 12.0525 2.25972 12.1463 2.35354L14.1463 4.35354C14.1927 4.4 14.2479 4.43685 14.3086 4.46199C14.3693 4.48713 14.4343 4.50007 14.5 4.50007C14.5657 4.50007 14.6308 4.48713 14.6915 4.46199C14.7522 4.43685 14.8073 4.4 14.8538 4.35354C14.9002 4.30708 14.9371 4.25193 14.9622 4.19124C14.9874 4.13054 15.0003 4.06549 15.0003 3.99979C15.0003 3.93409 14.9874 3.86904 14.9622 3.80834C14.9371 3.74764 14.9002 3.69249 14.8538 3.64604ZM14 8.49979C14 9.68648 13.6481 10.8465 12.9889 11.8332C12.3296 12.8199 11.3925 13.5889 10.2961 14.0431C9.19978 14.4972 7.99338 14.616 6.82949 14.3845C5.66561 14.153 4.59651 13.5815 3.75739 12.7424C2.91828 11.9033 2.34683 10.8342 2.11532 9.67033C1.88381 8.50645 2.00263 7.30005 2.45676 6.20369C2.91088 5.10733 3.67992 4.17026 4.66661 3.51097C5.65331 2.85168 6.81335 2.49979 8.00003 2.49979C9.59077 2.50161 11.1158 3.13433 12.2407 4.25916C13.3655 5.38398 13.9982 6.90905 14 8.49979ZM12 8.49979C12 8.36718 11.9474 8.24 11.8536 8.14624C11.7598 8.05247 11.6326 7.99979 11.5 7.99979H8.50003V4.99979C8.50003 4.86718 8.44736 4.74 8.35359 4.64624C8.25982 4.55247 8.13264 4.49979 8.00003 4.49979C7.86743 4.49979 7.74025 4.55247 7.64648 4.64624C7.55271 4.74 7.50003 4.86718 7.50003 4.99979V8.49979C7.50003 8.6324 7.55271 8.75958 7.64648 8.85334C7.74025 8.94711 7.86743 8.99979 8.00003 8.99979H11.5C11.6326 8.99979 11.7598 8.94711 11.8536 8.85334C11.9474 8.75958 12 8.6324 12 8.49979Z" fill="black"/>
</g>
<defs>
<clipPath id="clip0_5_1581">
<rect width="16" height="16" fill="white"/>
</clipPath>
</defs>
</svg>
