<svg width="16" height="16" viewBox="0 0 16 16" fill="none" xmlns="http://www.w3.org/2000/svg">
<g clip-path="url(#clip0_5_1568)">
<path d="M14 9.00018C14 11.3821 12.2706 11.8539 10.8813 12.2327C9.36063 12.6477 8.5 12.9571 8.5 14.5002C8.5 14.6328 8.44732 14.76 8.35355 14.8537C8.25979 14.9475 8.13261 15.0002 8 15.0002C7.86739 15.0002 7.74021 14.9475 7.64645 14.8537C7.55268 14.76 7.5 14.6328 7.5 14.5002C7.5 12.9571 6.63938 12.6477 5.11875 12.2327C3.72938 11.8539 2 11.3821 2 9.00018C2 8.86757 2.05268 8.74039 2.14645 8.64662C2.24021 8.55285 2.36739 8.50018 2.5 8.50018C2.63261 8.50018 2.75979 8.55285 2.85355 8.64662C2.94732 8.74039 3 8.86757 3 9.00018C3 10.5433 3.86062 10.8527 5.38125 11.2677C6.09125 11.4614 6.88875 11.6802 7.5 12.1639V8.00018H5.5C5.36739 8.00018 5.24021 7.9475 5.14645 7.85373C5.05268 7.75996 5 7.63278 5 7.50018C5 7.36757 5.05268 7.24039 5.14645 7.14662C5.24021 7.05285 5.36739 7.00018 5.5 7.00018H7.5V5.17705C7.09717 5.05695 6.75103 4.79586 6.52487 4.44153C6.29871 4.0872 6.20765 3.6633 6.26833 3.24735C6.32902 2.8314 6.5374 2.45119 6.85537 2.17625C7.17334 1.90131 7.57965 1.75 8 1.75C8.42035 1.75 8.82666 1.90131 9.14463 2.17625C9.4626 2.45119 9.67098 2.8314 9.73167 3.24735C9.79235 3.6633 9.70129 4.0872 9.47513 4.44153C9.24897 4.79586 8.90283 5.05695 8.5 5.17705V7.00018H10.5C10.6326 7.00018 10.7598 7.05285 10.8536 7.14662C10.9473 7.24039 11 7.36757 11 7.50018C11 7.63278 10.9473 7.75996 10.8536 7.85373C10.7598 7.9475 10.6326 8.00018 10.5 8.00018H8.5V12.1639C9.11125 11.6802 9.90875 11.4614 10.6187 11.2677C12.1394 10.8527 13 10.5433 13 9.00018C13 8.86757 13.0527 8.74039 13.1464 8.64662C13.2402 8.55285 13.3674 8.50018 13.5 8.50018C13.6326 8.50018 13.7598 8.55285 13.8536 8.64662C13.9473 8.74039 14 8.86757 14 9.00018Z" fill="black"/>
</g>
<defs>
<clipPath id="clip0_5_1568">
<rect width="16" height="16" fill="white"/>
</clipPath>
</defs>
</svg>
