<svg width="16" height="16" viewBox="0 0 16 16" fill="none" xmlns="http://www.w3.org/2000/svg">
<g clip-path="url(#clip0_5_1629)">
<path d="M14.5 7.50018C14.5 9.22408 13.8152 10.8774 12.5962 12.0964C11.3772 13.3154 9.72391 14.0002 8 14.0002C6.27609 14.0002 4.62279 13.3154 3.40381 12.0964C2.18482 10.8774 1.5 9.22408 1.5 7.50018C1.5 7.36757 1.55268 7.24039 1.64645 7.14662C1.74021 7.05285 1.86739 7.00018 2 7.00018H3.5C3.63261 7.00018 3.75979 7.05285 3.85355 7.14662C3.94732 7.24039 4 7.36757 4 7.50018C4 7.63278 3.94732 7.75996 3.85355 7.85373C3.75979 7.9475 3.63261 8.00018 3.5 8.00018H2.5225C2.64126 9.28012 3.20384 10.4782 4.11284 11.3871C5.02184 12.296 6.22004 12.8585 7.5 12.9771V5.67705C7.09717 5.55695 6.75103 5.29586 6.52487 4.94153C6.29871 4.5872 6.20765 4.1633 6.26833 3.74735C6.32902 3.3314 6.5374 2.95119 6.85537 2.67625C7.17334 2.40131 7.57965 2.25 8 2.25C8.42035 2.25 8.82666 2.40131 9.14463 2.67625C9.4626 2.95119 9.67098 3.3314 9.73167 3.74735C9.79235 4.1633 9.70129 4.5872 9.47513 4.94153C9.24897 5.29586 8.90283 5.55695 8.5 5.67705V12.9771C9.77996 12.8585 10.9782 12.296 11.8872 11.3871C12.7962 10.4782 13.3587 9.28012 13.4775 8.00018H12.5C12.3674 8.00018 12.2402 7.9475 12.1464 7.85373C12.0527 7.75996 12 7.63278 12 7.50018C12 7.36757 12.0527 7.24039 12.1464 7.14662C12.2402 7.05285 12.3674 7.00018 12.5 7.00018H14C14.1326 7.00018 14.2598 7.05285 14.3536 7.14662C14.4473 7.24039 14.5 7.36757 14.5 7.50018Z" fill="black"/>
</g>
<defs>
<clipPath id="clip0_5_1629">
<rect width="16" height="16" fill="white"/>
</clipPath>
</defs>
</svg>
