<svg width="16" height="16" viewBox="0 0 16 16" fill="none" xmlns="http://www.w3.org/2000/svg">
<g clip-path="url(#clip0_5_1202)">
<path d="M12.9413 5.04166C12.895 4.99541 12.8481 4.95041 12.8013 4.90604L14.3538 3.35354C14.4002 3.30708 14.4371 3.25193 14.4622 3.19124C14.4873 3.13054 14.5003 3.06549 14.5003 2.99979C14.5003 2.93409 14.4873 2.86904 14.4622 2.80834C14.4371 2.74764 14.4002 2.69249 14.3538 2.64604C14.3073 2.59958 14.2521 2.56273 14.1915 2.53759C14.1308 2.51245 14.0657 2.49951 14 2.49951C13.9343 2.49951 13.8693 2.51245 13.8086 2.53759C13.7479 2.56273 13.6927 2.59958 13.6463 2.64604L12.0213 4.27104C10.8448 3.44293 9.44083 2.99947 8.00218 3.0016C6.56353 3.00373 5.16084 3.45134 3.98688 4.28291L2.35375 2.64604C2.25993 2.55222 2.13268 2.49951 2 2.49951C1.86732 2.49951 1.74007 2.55222 1.64625 2.64604C1.55243 2.73986 1.49973 2.86711 1.49973 2.99979C1.49973 3.13247 1.55243 3.25972 1.64625 3.35354L3.2125 4.91979C2.51281 5.58271 1.95571 6.38141 1.57529 7.26702C1.19487 8.15264 0.999112 9.10655 1 10.0704V11.4998C1 11.765 1.10536 12.0194 1.2929 12.2069C1.48043 12.3944 1.73479 12.4998 2 12.4998H14C14.2652 12.4998 14.5196 12.3944 14.7071 12.2069C14.8946 12.0194 15 11.765 15 11.4998V9.99979C15.0026 9.07815 14.8219 8.1652 14.4685 7.31402C14.115 6.46284 13.5959 5.69041 12.9413 5.04166ZM5.75 9.99979C5.60167 9.99979 5.45666 9.9558 5.33333 9.87339C5.20999 9.79098 5.11386 9.67385 5.05709 9.5368C5.00033 9.39976 4.98547 9.24896 5.01441 9.10347C5.04335 8.95799 5.11478 8.82435 5.21967 8.71946C5.32456 8.61457 5.4582 8.54314 5.60368 8.5142C5.74917 8.48526 5.89997 8.50011 6.03702 8.55688C6.17406 8.61365 6.29119 8.70978 6.37361 8.83311C6.45602 8.95645 6.5 9.10145 6.5 9.24979C6.5 9.4487 6.42099 9.63947 6.28033 9.78012C6.13968 9.92077 5.94892 9.99979 5.75 9.99979ZM10.25 9.99979C10.1017 9.99979 9.95666 9.9558 9.83333 9.87339C9.70999 9.79098 9.61386 9.67385 9.55709 9.5368C9.50033 9.39976 9.48547 9.24896 9.51441 9.10347C9.54335 8.95799 9.61478 8.82435 9.71967 8.71946C9.82456 8.61457 9.9582 8.54314 10.1037 8.5142C10.2492 8.48526 10.4 8.50011 10.537 8.55688C10.6741 8.61365 10.7912 8.70978 10.8736 8.83311C10.956 8.95645 11 9.10145 11 9.24979C11 9.4487 10.921 9.63947 10.7803 9.78012C10.6397 9.92077 10.4489 9.99979 10.25 9.99979Z" fill="black"/>
</g>
<defs>
<clipPath id="clip0_5_1202">
<rect width="16" height="16" fill="white"/>
</clipPath>
</defs>
</svg>
