<svg width="16" height="16" viewBox="0 0 16 16" fill="none" xmlns="http://www.w3.org/2000/svg">
<g clip-path="url(#clip0_5_1549)">
<path d="M8.00001 6.52954L8.81688 8.00016H7.18313L8.00001 6.52954ZM14.4956 4.56641L13.4956 12.0664C13.4849 12.1473 13.4545 12.2244 13.4071 12.2908C13.3597 12.3573 13.2968 12.4111 13.2238 12.4477L8.22376 14.9477C8.15429 14.9824 8.07768 15.0005 8.00001 15.0005C7.92233 15.0005 7.84572 14.9824 7.77626 14.9477L2.77626 12.4477C2.70326 12.4111 2.64032 12.3573 2.59293 12.2908C2.54554 12.2244 2.51514 12.1473 2.50438 12.0664L1.50438 4.56641C1.48985 4.45739 1.51168 4.34662 1.56648 4.25125C1.62128 4.15589 1.706 4.08125 1.80751 4.03891L7.80751 1.53891C7.86843 1.51323 7.93389 1.5 8.00001 1.5C8.06613 1.5 8.13158 1.51323 8.19251 1.53891L14.1925 4.03891C14.294 4.08125 14.3787 4.15589 14.4335 4.25125C14.4883 4.34662 14.5102 4.45739 14.4956 4.56641ZM10.9375 9.75766L8.43751 5.25766C8.39427 5.17951 8.33088 5.11437 8.25394 5.06901C8.17701 5.02365 8.08932 4.99972 8.00001 4.99972C7.91069 4.99972 7.82301 5.02365 7.74607 5.06901C7.66913 5.11437 7.60575 5.17951 7.56251 5.25766L5.06251 9.75766C5.03066 9.81511 5.01044 9.87828 5.00301 9.94354C4.99557 10.0088 5.00107 10.0749 5.01917 10.138C5.03728 10.2012 5.06765 10.2601 5.10854 10.3116C5.14943 10.363 5.20005 10.4058 5.25751 10.4377C5.31496 10.4695 5.37812 10.4897 5.44339 10.4972C5.50866 10.5046 5.57475 10.4991 5.63789 10.481C5.70104 10.4629 5.75999 10.4325 5.8114 10.3916C5.86281 10.3507 5.90566 10.3001 5.93751 10.2427L6.62501 9.00016H9.37501L10.0625 10.2427C10.0944 10.3001 10.1372 10.3507 10.1886 10.3916C10.24 10.4325 10.299 10.4629 10.3621 10.481C10.4253 10.4991 10.4914 10.5046 10.5566 10.4972C10.6219 10.4897 10.6851 10.4695 10.7425 10.4377C10.8 10.4058 10.8506 10.363 10.8915 10.3116C10.9324 10.2601 10.9627 10.2012 10.9808 10.138C10.9989 10.0749 11.0044 10.0088 10.997 9.94354C10.9896 9.87828 10.9694 9.81511 10.9375 9.75766Z" fill="black"/>
</g>
<defs>
<clipPath id="clip0_5_1549">
<rect width="16" height="16" fill="white"/>
</clipPath>
</defs>
</svg>
