<svg width="16" height="16" viewBox="0 0 16 16" fill="none" xmlns="http://www.w3.org/2000/svg">
<g clip-path="url(#clip0_5_1401)">
<path d="M9.00003 6.49979V3.99979C8.99996 3.90084 9.02924 3.8041 9.08417 3.7218C9.13911 3.6395 9.21723 3.57535 9.30864 3.53748C9.40005 3.4996 9.50064 3.4897 9.59769 3.50903C9.69473 3.52835 9.78386 3.57603 9.85378 3.64604L10.75 4.54291L12.6463 2.64604C12.7401 2.55222 12.8674 2.49951 13 2.49951C13.1327 2.49951 13.26 2.55222 13.3538 2.64604C13.4476 2.73986 13.5003 2.86711 13.5003 2.99979C13.5003 3.13247 13.4476 3.25972 13.3538 3.35354L11.4569 5.24979L12.3538 6.14604C12.4238 6.21597 12.4715 6.30509 12.4908 6.40214C12.5101 6.49918 12.5002 6.59977 12.4623 6.69118C12.4245 6.7826 12.3603 6.86071 12.278 6.91565C12.1957 6.97059 12.099 6.99987 12 6.99979H9.50003C9.36743 6.99979 9.24025 6.94711 9.14648 6.85334C9.05271 6.75957 9.00003 6.6324 9.00003 6.49979ZM6.50003 8.99979H4.00003C3.90109 8.99971 3.80434 9.02899 3.72204 9.08393C3.63975 9.13886 3.5756 9.21698 3.53772 9.30839C3.49985 9.39981 3.48994 9.5004 3.50927 9.59744C3.52859 9.69449 3.57628 9.78361 3.64628 9.85354L4.54316 10.7498L2.64628 12.646C2.55246 12.7399 2.49976 12.8671 2.49976 12.9998C2.49976 13.1325 2.55246 13.2597 2.64628 13.3535C2.7401 13.4474 2.86735 13.5001 3.00003 13.5001C3.13272 13.5001 3.25996 13.4474 3.35378 13.3535L5.25003 11.4567L6.14628 12.3535C6.21621 12.4235 6.30534 12.4712 6.40238 12.4906C6.49942 12.5099 6.60002 12.5 6.69143 12.4621C6.78284 12.4242 6.86096 12.3601 6.91589 12.2778C6.97083 12.1955 7.00011 12.0987 7.00003 11.9998V9.49979C7.00003 9.36718 6.94736 9.24 6.85359 9.14624C6.75982 9.05247 6.63264 8.99979 6.50003 8.99979ZM11.4569 10.7498L12.3538 9.85354C12.4238 9.78361 12.4715 9.69449 12.4908 9.59744C12.5101 9.5004 12.5002 9.39981 12.4623 9.30839C12.4245 9.21698 12.3603 9.13886 12.278 9.08393C12.1957 9.02899 12.099 8.99971 12 8.99979H9.50003C9.36743 8.99979 9.24025 9.05247 9.14648 9.14624C9.05271 9.24 9.00003 9.36718 9.00003 9.49979V11.9998C8.99996 12.0987 9.02924 12.1955 9.08417 12.2778C9.13911 12.3601 9.21723 12.4242 9.30864 12.4621C9.40005 12.5 9.50064 12.5099 9.59769 12.4906C9.69473 12.4712 9.78386 12.4235 9.85378 12.3535L10.75 11.4567L12.6463 13.3535C12.6927 13.4 12.7479 13.4368 12.8086 13.462C12.8693 13.4871 12.9343 13.5001 13 13.5001C13.0657 13.5001 13.1308 13.4871 13.1915 13.462C13.2522 13.4368 13.3073 13.4 13.3538 13.3535C13.4002 13.3071 13.4371 13.2519 13.4622 13.1912C13.4874 13.1305 13.5003 13.0655 13.5003 12.9998C13.5003 12.9341 13.4874 12.869 13.4622 12.8083C13.4371 12.7476 13.4002 12.6925 13.3538 12.646L11.4569 10.7498ZM6.69128 3.53791C6.59993 3.50002 6.49939 3.49006 6.40238 3.50931C6.30537 3.52855 6.21625 3.57614 6.14628 3.64604L5.25003 4.54291L3.35378 2.64604C3.25996 2.55222 3.13272 2.49951 3.00003 2.49951C2.86735 2.49951 2.7401 2.55222 2.64628 2.64604C2.55246 2.73986 2.49976 2.86711 2.49976 2.99979C2.49976 3.13247 2.55246 3.25972 2.64628 3.35354L4.54316 5.24979L3.64628 6.14604C3.57628 6.21597 3.52859 6.30509 3.50927 6.40214C3.48994 6.49918 3.49985 6.59977 3.53772 6.69118C3.5756 6.7826 3.63975 6.86071 3.72204 6.91565C3.80434 6.97059 3.90109 6.99987 4.00003 6.99979H6.50003C6.63264 6.99979 6.75982 6.94711 6.85359 6.85334C6.94736 6.75957 7.00003 6.6324 7.00003 6.49979V3.99979C7.00001 3.9009 6.97067 3.80424 6.91571 3.72202C6.86076 3.63981 6.78265 3.57574 6.69128 3.53791Z" fill="black"/>
</g>
<defs>
<clipPath id="clip0_5_1401">
<rect width="16" height="16" fill="white"/>
</clipPath>
</defs>
</svg>
