<svg width="16" height="16" viewBox="0 0 16 16" fill="none" xmlns="http://www.w3.org/2000/svg">
<g clip-path="url(#clip0_5_1309)">
<path d="M14.3538 6.85366L11.3538 9.85366C11.2838 9.92366 11.1947 9.97134 11.0977 9.99067C11.0006 10.01 10.9 10.0001 10.8086 9.96222C10.7172 9.92434 10.6391 9.86019 10.5841 9.7779C10.5292 9.6956 10.4999 9.59885 10.5 9.49991V6.99991H8C6.54182 7.00156 5.14383 7.58155 4.11274 8.61265C3.08165 9.64374 2.50165 11.0417 2.5 12.4999C2.5 12.6325 2.44732 12.7597 2.35355 12.8535C2.25979 12.9472 2.13261 12.9999 2 12.9999C1.86739 12.9999 1.74021 12.9472 1.64645 12.8535C1.55268 12.7597 1.5 12.6325 1.5 12.4999C1.50182 10.7766 2.18722 9.12431 3.40582 7.90572C4.62441 6.68713 6.27665 6.00173 8 5.99991H10.5V3.49991C10.4999 3.40096 10.5292 3.30421 10.5841 3.22191C10.6391 3.13962 10.7172 3.07547 10.8086 3.03759C10.9 2.99972 11.0006 2.98982 11.0977 3.00914C11.1947 3.02847 11.2838 3.07615 11.3538 3.14616L14.3538 6.14616C14.4002 6.19259 14.4371 6.24774 14.4623 6.30844C14.4874 6.36913 14.5004 6.4342 14.5004 6.49991C14.5004 6.56561 14.4874 6.63068 14.4623 6.69138C14.4371 6.75207 14.4002 6.80722 14.3538 6.85366Z" fill="black"/>
</g>
<defs>
<clipPath id="clip0_5_1309">
<rect width="16" height="16" fill="white"/>
</clipPath>
</defs>
</svg>
