<svg width="16" height="16" viewBox="0 0 16 16" fill="none" xmlns="http://www.w3.org/2000/svg">
<g clip-path="url(#clip0_5_1613)">
<path d="M14.4618 7.69115C14.424 7.78253 14.3599 7.86063 14.2777 7.91558C14.1955 7.97054 14.0988 7.99988 13.9999 7.99991H11.4999V12.9999C11.4999 13.2651 11.3945 13.5195 11.207 13.707C11.0195 13.8945 10.7651 13.9999 10.4999 13.9999H5.49991C5.23469 13.9999 4.98034 13.8945 4.7928 13.707C4.60526 13.5195 4.49991 13.2651 4.49991 12.9999V7.99991H1.99991C1.90096 7.99998 1.80421 7.9707 1.72191 7.91577C1.63962 7.86083 1.57547 7.78271 1.53759 7.6913C1.49972 7.59989 1.48982 7.49929 1.50914 7.40225C1.52847 7.30521 1.57615 7.21608 1.64616 7.14615L7.64616 1.14616C7.69259 1.09967 7.74774 1.06279 7.80844 1.03763C7.86913 1.01246 7.9342 0.999512 7.99991 0.999512C8.06561 0.999512 8.13068 1.01246 8.19138 1.03763C8.25207 1.06279 8.30722 1.09967 8.35366 1.14616L14.3537 7.14615C14.4236 7.21612 14.4711 7.30524 14.4904 7.40225C14.5096 7.49926 14.4997 7.5998 14.4618 7.69115Z" fill="black"/>
</g>
<defs>
<clipPath id="clip0_5_1613">
<rect width="16" height="16" fill="white"/>
</clipPath>
</defs>
</svg>
