<svg width="16" height="16" viewBox="0 0 16 16" fill="none" xmlns="http://www.w3.org/2000/svg">
<g clip-path="url(#clip0_5_1675)">
<path d="M5.35366 9.14616C5.44748 9.23998 5.50018 9.36722 5.50018 9.49991C5.50018 9.63259 5.44748 9.75984 5.35366 9.85366C5.25984 9.94748 5.13259 10.0002 4.99991 10.0002C4.86722 10.0002 4.73998 9.94748 4.64615 9.85366L1.64615 6.85366C1.59967 6.80722 1.56279 6.75207 1.53763 6.69138C1.51246 6.63068 1.49951 6.56561 1.49951 6.49991C1.49951 6.4342 1.51246 6.36913 1.53763 6.30844C1.56279 6.24774 1.59967 6.19259 1.64615 6.14616L4.64615 3.14616C4.73998 3.05234 4.86722 2.99963 4.99991 2.99963C5.13259 2.99963 5.25984 3.05234 5.35366 3.14616C5.44748 3.23998 5.50018 3.36722 5.50018 3.49991C5.50018 3.63259 5.44748 3.75984 5.35366 3.85366L2.70678 6.49991L5.35366 9.14616ZM8.49991 6.01866V3.49991C8.49998 3.40096 8.4707 3.30421 8.41577 3.22191C8.36083 3.13962 8.28271 3.07547 8.1913 3.03759C8.09989 2.99972 7.99929 2.98982 7.90225 3.00914C7.80521 3.02847 7.71608 3.07615 7.64615 3.14616L4.64615 6.14616C4.59967 6.19259 4.56279 6.24774 4.53763 6.30844C4.51246 6.36913 4.49951 6.4342 4.49951 6.49991C4.49951 6.56561 4.51246 6.63068 4.53763 6.69138C4.56279 6.75207 4.59967 6.80722 4.64615 6.85366L7.64615 9.85366C7.71608 9.92366 7.80521 9.97134 7.90225 9.99067C7.99929 10.01 8.09989 10.0001 8.1913 9.96222C8.28271 9.92434 8.36083 9.86019 8.41577 9.7779C8.4707 9.6956 8.49998 9.59885 8.49991 9.49991V7.02303C9.86571 7.14928 11.1352 7.78068 12.06 8.79366C12.9848 9.80665 13.4983 11.1283 13.4999 12.4999C13.4999 12.6325 13.5526 12.7597 13.6464 12.8535C13.7401 12.9472 13.8673 12.9999 13.9999 12.9999C14.1325 12.9999 14.2597 12.9472 14.3535 12.8535C14.4472 12.7597 14.4999 12.6325 14.4999 12.4999C14.4979 10.8631 13.8792 9.28714 12.7673 8.08601C11.6553 6.88488 10.1317 6.14674 8.49991 6.01866Z" fill="black"/>
</g>
<defs>
<clipPath id="clip0_5_1675">
<rect width="16" height="16" fill="white"/>
</clipPath>
</defs>
</svg>
