<svg width="16" height="16" viewBox="0 0 16 16" fill="none" xmlns="http://www.w3.org/2000/svg">
<g clip-path="url(#clip0_5_1195)">
<path d="M12.4999 4.99991V13.9999C12.4999 14.1325 12.4472 14.2597 12.3535 14.3535C12.2597 14.4472 12.1325 14.4999 11.9999 14.4999C11.8673 14.4999 11.7401 14.4472 11.6464 14.3535C11.5526 14.2597 11.4999 14.1325 11.4999 13.9999V5.49991H6.49991V7.99991C6.49998 8.09885 6.4707 8.1956 6.41577 8.2779C6.36083 8.36019 6.28271 8.42434 6.1913 8.46222C6.09989 8.50009 5.99929 8.51 5.90225 8.49067C5.80521 8.47134 5.71608 8.42366 5.64615 8.35366L2.64616 5.35366C2.59967 5.30722 2.56279 5.25207 2.53763 5.19138C2.51246 5.13068 2.49951 5.06561 2.49951 4.99991C2.49951 4.9342 2.51246 4.86913 2.53763 4.80844C2.56279 4.74774 2.59967 4.69259 2.64616 4.64616L5.64615 1.64616C5.71608 1.57615 5.80521 1.52847 5.90225 1.50914C5.99929 1.48982 6.09989 1.49972 6.1913 1.53759C6.28271 1.57547 6.36083 1.63962 6.41577 1.72191C6.4707 1.80421 6.49998 1.90096 6.49991 1.99991V4.49991H11.9999C12.1325 4.49991 12.2597 4.55258 12.3535 4.64635C12.4472 4.74012 12.4999 4.8673 12.4999 4.99991Z" fill="black"/>
</g>
<defs>
<clipPath id="clip0_5_1195">
<rect width="16" height="16" fill="white"/>
</clipPath>
</defs>
</svg>
