<svg width="16" height="16" viewBox="0 0 16 16" fill="none" xmlns="http://www.w3.org/2000/svg">
<g clip-path="url(#clip0_5_1580)">
<path d="M12.5 5.49979V11.9998C12.5 12.1324 12.4474 12.2596 12.3536 12.3533C12.2598 12.4471 12.1326 12.4998 12 12.4998H5.50003C5.40109 12.4999 5.30434 12.4706 5.22204 12.4156C5.13975 12.3607 5.0756 12.2826 5.03772 12.1912C4.99985 12.0998 4.98994 11.9992 5.00927 11.9021C5.02859 11.8051 5.07628 11.716 5.14628 11.646L8.04316 8.74979L3.64628 4.35354C3.55246 4.25972 3.49976 4.13247 3.49976 3.99979C3.49976 3.86711 3.55246 3.73986 3.64628 3.64604C3.7401 3.55222 3.86735 3.49951 4.00003 3.49951C4.13272 3.49951 4.25996 3.55222 4.35378 3.64604L8.75003 8.04291L11.6463 5.14604C11.7162 5.07603 11.8053 5.02835 11.9024 5.00903C11.9994 4.9897 12.1 4.9996 12.1914 5.03748C12.2828 5.07535 12.361 5.1395 12.4159 5.2218C12.4708 5.3041 12.5001 5.40084 12.5 5.49979Z" fill="black"/>
</g>
<defs>
<clipPath id="clip0_5_1580">
<rect width="16" height="16" fill="white"/>
</clipPath>
</defs>
</svg>
