<svg width="16" height="16" viewBox="0 0 16 16" fill="none" xmlns="http://www.w3.org/2000/svg">
<g clip-path="url(#clip0_5_1590)">
<path d="M12.9619 5.19115C12.924 5.28253 12.86 5.36063 12.7778 5.41558C12.6956 5.47054 12.5989 5.49988 12.5 5.49991H10V7.99991C9.99818 9.72325 9.31278 11.3755 8.09418 12.5941C6.87559 13.8127 5.22335 14.4981 3.5 14.4999C3.36739 14.4999 3.24021 14.4472 3.14645 14.3535C3.05268 14.2597 3 14.1325 3 13.9999C3 13.8673 3.05268 13.7401 3.14645 13.6464C3.24021 13.5526 3.36739 13.4999 3.5 13.4999C4.95818 13.4983 6.35617 12.9183 7.38726 11.8872C8.41835 10.8561 8.99835 9.45809 9 7.99991V5.49991H6.5C6.40105 5.49998 6.30431 5.4707 6.22201 5.41577C6.13971 5.36083 6.07556 5.28271 6.03769 5.1913C5.99981 5.09989 5.98991 4.99929 6.00924 4.90225C6.02856 4.80521 6.07624 4.71608 6.14625 4.64615L9.14625 1.64615C9.19269 1.59967 9.24783 1.56279 9.30853 1.53763C9.36923 1.51246 9.43429 1.49951 9.5 1.49951C9.56571 1.49951 9.63077 1.51246 9.69147 1.53763C9.75217 1.56279 9.80731 1.59967 9.85375 1.64615L12.8538 4.64615C12.9237 4.71612 12.9712 4.80524 12.9905 4.90225C13.0097 4.99926 12.9998 5.0998 12.9619 5.19115Z" fill="black"/>
</g>
<defs>
<clipPath id="clip0_5_1590">
<rect width="16" height="16" fill="white"/>
</clipPath>
</defs>
</svg>
