<svg width="16" height="16" viewBox="0 0 16 16" fill="none" xmlns="http://www.w3.org/2000/svg">
<g clip-path="url(#clip0_5_1390)">
<path d="M13.3538 3.35354L11.2069 5.49979L12.3538 6.64604C12.4238 6.71597 12.4715 6.80509 12.4908 6.90214C12.5101 6.99918 12.5002 7.09977 12.4623 7.19118C12.4245 7.2826 12.3603 7.36071 12.278 7.41565C12.1957 7.47059 12.099 7.49987 12 7.49979H9.00003C8.86743 7.49979 8.74025 7.44711 8.64648 7.35334C8.55271 7.25957 8.50003 7.1324 8.50003 6.99979V3.99979C8.49996 3.90084 8.52924 3.8041 8.58417 3.7218C8.63911 3.6395 8.71723 3.57535 8.80864 3.53748C8.90005 3.4996 9.00064 3.4897 9.09769 3.50903C9.19473 3.52835 9.28386 3.57603 9.35378 3.64604L10.5 4.79291L12.6463 2.64604C12.7401 2.55222 12.8674 2.49951 13 2.49951C13.1327 2.49951 13.26 2.55222 13.3538 2.64604C13.4476 2.73986 13.5003 2.86711 13.5003 2.99979C13.5003 3.13247 13.4476 3.25972 13.3538 3.35354ZM7.00003 8.49979H4.00003C3.90109 8.49971 3.80434 8.52899 3.72204 8.58393C3.63975 8.63886 3.5756 8.71698 3.53772 8.80839C3.49985 8.89981 3.48994 9.0004 3.50927 9.09744C3.52859 9.19449 3.57628 9.28361 3.64628 9.35354L4.79316 10.4998L2.64628 12.646C2.55246 12.7399 2.49976 12.8671 2.49976 12.9998C2.49976 13.1325 2.55246 13.2597 2.64628 13.3535C2.7401 13.4474 2.86735 13.5001 3.00003 13.5001C3.13272 13.5001 3.25996 13.4474 3.35378 13.3535L5.50003 11.2067L6.64628 12.3535C6.71621 12.4235 6.80534 12.4712 6.90238 12.4906C6.99942 12.5099 7.10002 12.5 7.19143 12.4621C7.28284 12.4242 7.36096 12.3601 7.41589 12.2778C7.47083 12.1955 7.50011 12.0987 7.50003 11.9998V8.99979C7.50003 8.86718 7.44736 8.74 7.35359 8.64624C7.25982 8.55247 7.13264 8.49979 7.00003 8.49979Z" fill="black"/>
</g>
<defs>
<clipPath id="clip0_5_1390">
<rect width="16" height="16" fill="white"/>
</clipPath>
</defs>
</svg>
