<svg width="16" height="16" viewBox="0 0 16 16" fill="none" xmlns="http://www.w3.org/2000/svg">
<g clip-path="url(#clip0_5_1379)">
<path d="M8.4999 2.5V13.5C8.4999 13.6326 8.44723 13.7598 8.35346 13.8536C8.25969 13.9473 8.13251 14 7.99991 14C7.8673 14 7.74012 13.9473 7.64635 13.8536C7.55258 13.7598 7.49991 13.6326 7.49991 13.5V2.5C7.49991 2.36739 7.55258 2.24021 7.64635 2.14645C7.74012 2.05268 7.8673 2 7.99991 2C8.13251 2 8.25969 2.05268 8.35346 2.14645C8.44723 2.24021 8.4999 2.36739 8.4999 2.5ZM5.99991 7.5H3.49991V6C3.49998 5.90105 3.4707 5.80431 3.41577 5.72201C3.36083 5.63971 3.28271 5.57556 3.1913 5.53769C3.09989 5.49981 2.99929 5.48991 2.90225 5.50924C2.80521 5.52856 2.71608 5.57624 2.64616 5.64625L0.646155 7.64625C0.599667 7.69269 0.562787 7.74783 0.537625 7.80853C0.512463 7.86923 0.499512 7.93429 0.499512 8C0.499512 8.06571 0.512463 8.13077 0.537625 8.19147C0.562787 8.25217 0.599667 8.30731 0.646155 8.35375L2.64616 10.3538C2.71608 10.4238 2.80521 10.4714 2.90225 10.4908C2.99929 10.5101 3.09989 10.5002 3.1913 10.4623C3.28271 10.4244 3.36083 10.3603 3.41577 10.278C3.4707 10.1957 3.49998 10.0989 3.49991 10V8.5H5.99991C6.13251 8.5 6.25969 8.44732 6.35346 8.35355C6.44723 8.25979 6.49991 8.13261 6.49991 8C6.49991 7.86739 6.44723 7.74021 6.35346 7.64645C6.25969 7.55268 6.13251 7.5 5.99991 7.5ZM15.3537 7.64625L13.3537 5.64625C13.2837 5.57624 13.1946 5.52856 13.0976 5.50924C13.0005 5.48991 12.8999 5.49981 12.8085 5.53769C12.7171 5.57556 12.639 5.63971 12.584 5.72201C12.5291 5.80431 12.4998 5.90105 12.4999 6V7.5H9.9999C9.8673 7.5 9.74012 7.55268 9.64635 7.64645C9.55258 7.74021 9.4999 7.86739 9.4999 8C9.4999 8.13261 9.55258 8.25979 9.64635 8.35355C9.74012 8.44732 9.8673 8.5 9.9999 8.5H12.4999V10C12.4998 10.0989 12.5291 10.1957 12.584 10.278C12.639 10.3603 12.7171 10.4244 12.8085 10.4623C12.8999 10.5002 13.0005 10.5101 13.0976 10.4908C13.1946 10.4714 13.2837 10.4238 13.3537 10.3538L15.3537 8.35375C15.4001 8.30731 15.437 8.25217 15.4622 8.19147C15.4873 8.13077 15.5003 8.06571 15.5003 8C15.5003 7.93429 15.4873 7.86923 15.4622 7.80853C15.437 7.74783 15.4001 7.69269 15.3537 7.64625Z" fill="black"/>
</g>
<defs>
<clipPath id="clip0_5_1379">
<rect width="16" height="16" fill="white"/>
</clipPath>
</defs>
</svg>
