<svg width="16" height="16" viewBox="0 0 16 16" fill="none" xmlns="http://www.w3.org/2000/svg">
<g clip-path="url(#clip0_5_1609)">
<path d="M14.4618 7.69115C14.424 7.78253 14.3599 7.86063 14.2777 7.91558C14.1955 7.97054 14.0988 7.99988 13.9999 7.99991H11.4999V9.4999C11.4999 9.63251 11.4472 9.75969 11.3535 9.85346C11.2597 9.94723 11.1325 9.9999 10.9999 9.9999H4.99991C4.8673 9.9999 4.74012 9.94723 4.64635 9.85346C4.55258 9.75969 4.49991 9.63251 4.49991 9.4999V7.99991H1.99991C1.90096 7.99998 1.80421 7.9707 1.72191 7.91577C1.63962 7.86083 1.57547 7.78271 1.53759 7.6913C1.49972 7.59989 1.48982 7.49929 1.50914 7.40225C1.52847 7.30521 1.57615 7.21608 1.64616 7.14615L7.64616 1.14616C7.69259 1.09967 7.74774 1.06279 7.80844 1.03763C7.86913 1.01246 7.9342 0.999512 7.99991 0.999512C8.06561 0.999512 8.13068 1.01246 8.19138 1.03763C8.25207 1.06279 8.30722 1.09967 8.35366 1.14616L14.3537 7.14615C14.4236 7.21612 14.4711 7.30524 14.4904 7.40225C14.5096 7.49926 14.4997 7.5998 14.4618 7.69115ZM10.9999 12.9999H4.99991C4.8673 12.9999 4.74012 13.0526 4.64635 13.1464C4.55258 13.2401 4.49991 13.3673 4.49991 13.4999C4.49991 13.6325 4.55258 13.7597 4.64635 13.8535C4.74012 13.9472 4.8673 13.9999 4.99991 13.9999H10.9999C11.1325 13.9999 11.2597 13.9472 11.3535 13.8535C11.4472 13.7597 11.4999 13.6325 11.4999 13.4999C11.4999 13.3673 11.4472 13.2401 11.3535 13.1464C11.2597 13.0526 11.1325 12.9999 10.9999 12.9999ZM10.9999 10.9999H4.99991C4.8673 10.9999 4.74012 11.0526 4.64635 11.1464C4.55258 11.2401 4.49991 11.3673 4.49991 11.4999C4.49991 11.6325 4.55258 11.7597 4.64635 11.8535C4.74012 11.9472 4.8673 11.9999 4.99991 11.9999H10.9999C11.1325 11.9999 11.2597 11.9472 11.3535 11.8535C11.4472 11.7597 11.4999 11.6325 11.4999 11.4999C11.4999 11.3673 11.4472 11.2401 11.3535 11.1464C11.2597 11.0526 11.1325 10.9999 10.9999 10.9999Z" fill="black"/>
</g>
<defs>
<clipPath id="clip0_5_1609">
<rect width="16" height="16" fill="white"/>
</clipPath>
</defs>
</svg>
