<svg width="16" height="16" viewBox="0 0 16 16" fill="none" xmlns="http://www.w3.org/2000/svg">
<g clip-path="url(#clip0_5_1599)">
<path d="M15 5.49991V9.49991C15 9.63251 14.9473 9.75969 14.8536 9.85346C14.7598 9.94723 14.6326 9.99991 14.5 9.99991H10.5C10.4011 9.99998 10.3043 9.9707 10.222 9.91577C10.1397 9.86083 10.0756 9.78271 10.0377 9.6913C9.99981 9.59989 9.98991 9.49929 10.0092 9.40225C10.0286 9.30521 10.0762 9.21608 10.1462 9.14616L11.7831 7.50991C11.0028 6.77047 10.0229 6.27591 8.96456 6.08738C7.9062 5.89885 6.8158 6.02461 5.82815 6.44912C4.8405 6.87362 3.9989 7.57826 3.4074 8.47591C2.8159 9.37357 2.50044 10.4249 2.5 11.4999C2.5 11.6325 2.44732 11.7597 2.35355 11.8535C2.25979 11.9472 2.13261 11.9999 2 11.9999C1.86739 11.9999 1.74021 11.9472 1.64645 11.8535C1.55268 11.7597 1.5 11.6325 1.5 11.4999C1.50001 10.2268 1.87386 8.98178 2.57517 7.91928C3.27647 6.85678 4.27434 6.02362 5.44494 5.52319C6.61554 5.02276 7.90732 4.8771 9.15996 5.10429C10.4126 5.33148 11.571 5.92151 12.4913 6.80116L14.1462 5.14616C14.2162 5.07615 14.3053 5.02847 14.4023 5.00914C14.4994 4.98982 14.6 4.99972 14.6914 5.03759C14.7828 5.07547 14.8609 5.13962 14.9159 5.22191C14.9708 5.30421 15.0001 5.40096 15 5.49991Z" fill="black"/>
</g>
<defs>
<clipPath id="clip0_5_1599">
<rect width="16" height="16" fill="white"/>
</clipPath>
</defs>
</svg>
