<svg width="16" height="16" viewBox="0 0 16 16" fill="none" xmlns="http://www.w3.org/2000/svg">
<g clip-path="url(#clip0_5_1516)">
<path d="M13.9999 7.99991C13.9999 8.13251 13.9472 8.25969 13.8535 8.35346C13.7597 8.44723 13.6325 8.49991 13.4999 8.49991H7.49991V12.4999C7.49998 12.5989 7.4707 12.6956 7.41577 12.7779C7.36083 12.8602 7.28271 12.9243 7.1913 12.9622C7.09989 13.0001 6.99929 13.01 6.90225 12.9907C6.80521 12.9713 6.71608 12.9237 6.64615 12.8537L2.14615 8.35366C2.09967 8.30722 2.06279 8.25207 2.03763 8.19138C2.01246 8.13068 1.99951 8.06561 1.99951 7.99991C1.99951 7.9342 2.01246 7.86913 2.03763 7.80844C2.06279 7.74774 2.09967 7.69259 2.14615 7.64616L6.64615 3.14616C6.71608 3.07615 6.80521 3.02847 6.90225 3.00914C6.99929 2.98982 7.09989 2.99972 7.1913 3.03759C7.28271 3.07547 7.36083 3.13962 7.41577 3.22191C7.4707 3.30421 7.49998 3.40096 7.49991 3.49991V7.49991H13.4999C13.6325 7.49991 13.7597 7.55258 13.8535 7.64635C13.9472 7.74012 13.9999 7.8673 13.9999 7.99991Z" fill="black"/>
</g>
<defs>
<clipPath id="clip0_5_1516">
<rect width="16" height="16" fill="white"/>
</clipPath>
</defs>
</svg>
