<svg width="16" height="16" viewBox="0 0 16 16" fill="none" xmlns="http://www.w3.org/2000/svg">
<g clip-path="url(#clip0_5_1555)">
<path d="M13.3537 11.3537L11.3537 13.3537C11.2837 13.4237 11.1946 13.4713 11.0976 13.4907C11.0005 13.51 10.8999 13.5001 10.8085 13.4622C10.7171 13.4243 10.639 13.3602 10.584 13.2779C10.5291 13.1956 10.4998 13.0989 10.4999 12.9999V11.4999H2.99991C2.8673 11.4999 2.74012 11.4472 2.64635 11.3535C2.55258 11.2597 2.49991 11.1325 2.49991 10.9999C2.49991 10.8673 2.55258 10.7401 2.64635 10.6464C2.74012 10.5526 2.8673 10.4999 2.99991 10.4999H10.4999V8.99991C10.4998 8.90096 10.5291 8.80421 10.584 8.72191C10.639 8.63962 10.7171 8.57547 10.8085 8.53759C10.8999 8.49972 11.0005 8.48982 11.0976 8.50914C11.1946 8.52847 11.2837 8.57615 11.3537 8.64616L13.3537 10.6462C13.4001 10.6926 13.437 10.7477 13.4622 10.8084C13.4873 10.8691 13.5003 10.9342 13.5003 10.9999C13.5003 11.0656 13.4873 11.1307 13.4622 11.1914C13.437 11.2521 13.4001 11.3072 13.3537 11.3537ZM4.64615 7.35366C4.71608 7.42366 4.80521 7.47134 4.90225 7.49067C4.99929 7.51 5.09989 7.50009 5.1913 7.46222C5.28271 7.42434 5.36083 7.36019 5.41577 7.2779C5.4707 7.1956 5.49998 7.09885 5.49991 6.99991V5.49991H12.9999C13.1325 5.49991 13.2597 5.44723 13.3535 5.35346C13.4472 5.25969 13.4999 5.13251 13.4999 4.99991C13.4999 4.8673 13.4472 4.74012 13.3535 4.64635C13.2597 4.55258 13.1325 4.49991 12.9999 4.49991H5.49991V2.99991C5.49998 2.90096 5.4707 2.80421 5.41577 2.72191C5.36083 2.63962 5.28271 2.57547 5.1913 2.53759C5.09989 2.49972 4.99929 2.48982 4.90225 2.50914C4.80521 2.52847 4.71608 2.57615 4.64615 2.64616L2.64616 4.64616C2.59967 4.69259 2.56279 4.74774 2.53763 4.80844C2.51246 4.86913 2.49951 4.9342 2.49951 4.99991C2.49951 5.06561 2.51246 5.13068 2.53763 5.19138C2.56279 5.25207 2.59967 5.30722 2.64616 5.35366L4.64615 7.35366Z" fill="black"/>
</g>
<defs>
<clipPath id="clip0_5_1555">
<rect width="16" height="16" fill="white"/>
</clipPath>
</defs>
</svg>
