<svg width="16" height="16" viewBox="0 0 16 16" fill="none" xmlns="http://www.w3.org/2000/svg">
<g clip-path="url(#clip0_5_1434)">
<path d="M12.9618 7.19115C12.924 7.28253 12.8599 7.36063 12.7777 7.41558C12.6955 7.47054 12.5988 7.49988 12.4999 7.49991H8.49991V13.4999C8.49991 13.6325 8.44723 13.7597 8.35346 13.8535C8.25969 13.9472 8.13251 13.9999 7.99991 13.9999C7.8673 13.9999 7.74012 13.9472 7.64635 13.8535C7.55258 13.7597 7.49991 13.6325 7.49991 13.4999V7.49991H3.49991C3.40096 7.49998 3.30421 7.4707 3.22191 7.41577C3.13962 7.36083 3.07547 7.28271 3.03759 7.1913C2.99972 7.09989 2.98982 6.99929 3.00914 6.90225C3.02847 6.80521 3.07615 6.71608 3.14616 6.64615L7.64616 2.14615C7.69259 2.09967 7.74774 2.06279 7.80844 2.03763C7.86913 2.01246 7.9342 1.99951 7.99991 1.99951C8.06561 1.99951 8.13068 2.01246 8.19138 2.03763C8.25207 2.06279 8.30722 2.09967 8.35366 2.14615L12.8537 6.64615C12.9236 6.71612 12.9711 6.80524 12.9904 6.90225C13.0096 6.99926 12.9997 7.0998 12.9618 7.19115Z" fill="black"/>
</g>
<defs>
<clipPath id="clip0_5_1434">
<rect width="16" height="16" fill="white"/>
</clipPath>
</defs>
</svg>
