<svg width="16" height="16" viewBox="0 0 16 16" fill="none" xmlns="http://www.w3.org/2000/svg">
<g clip-path="url(#clip0_5_1438)">
<path d="M14.4999 8.99991C14.4987 10.0604 14.0769 11.0772 13.3271 11.8271C12.5772 12.5769 11.5604 12.9987 10.4999 12.9999H4.99991C4.8673 12.9999 4.74012 12.9472 4.64635 12.8535C4.55258 12.7597 4.49991 12.6325 4.49991 12.4999C4.49991 12.3673 4.55258 12.2401 4.64635 12.1464C4.74012 12.0526 4.8673 11.9999 4.99991 11.9999H10.4999C11.2956 11.9999 12.0586 11.6838 12.6212 11.1212C13.1838 10.5586 13.4999 9.79556 13.4999 8.99991C13.4999 8.20426 13.1838 7.44119 12.6212 6.87859C12.0586 6.31598 11.2956 5.99991 10.4999 5.99991H5.49991V8.49991C5.49998 8.59885 5.4707 8.6956 5.41577 8.7779C5.36083 8.86019 5.28271 8.92434 5.1913 8.96222C5.09989 9.00009 4.99929 9.01 4.90225 8.99067C4.80521 8.97134 4.71608 8.92366 4.64615 8.85366L1.64615 5.85366C1.59967 5.80722 1.56279 5.75207 1.53763 5.69138C1.51246 5.63068 1.49951 5.56561 1.49951 5.49991C1.49951 5.4342 1.51246 5.36913 1.53763 5.30844C1.56279 5.24774 1.59967 5.19259 1.64615 5.14616L4.64615 2.14616C4.71608 2.07615 4.80521 2.02847 4.90225 2.00914C4.99929 1.98982 5.09989 1.99972 5.1913 2.03759C5.28271 2.07547 5.36083 2.13962 5.41577 2.22191C5.4707 2.30421 5.49998 2.40096 5.49991 2.49991V4.99991H10.4999C11.5604 5.00106 12.5772 5.42286 13.3271 6.17276C14.0769 6.92265 14.4987 7.93939 14.4999 8.99991Z" fill="black"/>
</g>
<defs>
<clipPath id="clip0_5_1438">
<rect width="16" height="16" fill="white"/>
</clipPath>
</defs>
</svg>
