<svg width="16" height="16" viewBox="0 0 16 16" fill="none" xmlns="http://www.w3.org/2000/svg">
<g clip-path="url(#clip0_5_1550)">
<path d="M13.9619 6.19115C13.924 6.28253 13.86 6.36063 13.7778 6.41558C13.6956 6.47054 13.5989 6.49988 13.5 6.49991H11V11.9999C11 12.1325 10.9473 12.2597 10.8536 12.3535C10.7598 12.4472 10.6326 12.4999 10.5 12.4999H1.5C1.36739 12.4999 1.24021 12.4472 1.14645 12.3535C1.05268 12.2597 1 12.1325 1 11.9999C1 11.8673 1.05268 11.7401 1.14645 11.6464C1.24021 11.5526 1.36739 11.4999 1.5 11.4999H10V6.49991H7.5C7.40105 6.49998 7.30431 6.4707 7.22201 6.41577C7.13971 6.36083 7.07556 6.28271 7.03769 6.1913C6.99981 6.09989 6.98991 5.99929 7.00924 5.90225C7.02856 5.80521 7.07624 5.71608 7.14625 5.64615L10.1462 2.64616C10.1927 2.59967 10.2478 2.56279 10.3085 2.53763C10.3692 2.51246 10.4343 2.49951 10.5 2.49951C10.5657 2.49951 10.6308 2.51246 10.6915 2.53763C10.7522 2.56279 10.8073 2.59967 10.8538 2.64616L13.8538 5.64615C13.9237 5.71612 13.9712 5.80524 13.9905 5.90225C14.0097 5.99926 13.9998 6.0998 13.9619 6.19115Z" fill="black"/>
</g>
<defs>
<clipPath id="clip0_5_1550">
<rect width="16" height="16" fill="white"/>
</clipPath>
</defs>
</svg>
