<svg width="16" height="16" viewBox="0 0 16 16" fill="none" xmlns="http://www.w3.org/2000/svg">
<g clip-path="url(#clip0_5_1521)">
<path d="M8.30875 14.4618C8.21738 14.424 8.13928 14.3599 8.08432 14.2777C8.02936 14.1955 8.00002 14.0988 8 13.9999V11.4999H3C2.73478 11.4999 2.48043 11.3945 2.29289 11.207C2.10536 11.0195 2 10.7651 2 10.4999V5.49991C2 5.23469 2.10536 4.98034 2.29289 4.7928C2.48043 4.60526 2.73478 4.49991 3 4.49991H8V1.99991C7.99992 1.90096 8.0292 1.80421 8.08414 1.72191C8.13908 1.63962 8.21719 1.57547 8.30861 1.53759C8.40002 1.49972 8.50061 1.48982 8.59765 1.50914C8.6947 1.52847 8.78382 1.57615 8.85375 1.64616L14.8538 7.64616C14.9002 7.69259 14.9371 7.74774 14.9623 7.80844C14.9874 7.86913 15.0004 7.9342 15.0004 7.99991C15.0004 8.06561 14.9874 8.13068 14.9623 8.19138C14.9371 8.25207 14.9002 8.30722 14.8538 8.35366L8.85375 14.3537C8.78379 14.4236 8.69466 14.4711 8.59765 14.4904C8.50064 14.5096 8.4001 14.4997 8.30875 14.4618Z" fill="black"/>
</g>
<defs>
<clipPath id="clip0_5_1521">
<rect width="16" height="16" fill="white"/>
</clipPath>
</defs>
</svg>
