<svg width="16" height="16" viewBox="0 0 16 16" fill="none" xmlns="http://www.w3.org/2000/svg">
<g clip-path="url(#clip0_5_1646)">
<path d="M14.3538 6.85366L11.3538 9.85366C11.2599 9.94748 11.1327 10.0002 11 10.0002C10.8673 10.0002 10.7401 9.94748 10.6462 9.85366C10.5524 9.75984 10.4997 9.63259 10.4997 9.49991C10.4997 9.36722 10.5524 9.23998 10.6462 9.14616L13.2931 6.49991L10.6462 3.85366C10.5998 3.8072 10.5629 3.75205 10.5378 3.69135C10.5127 3.63066 10.4997 3.5656 10.4997 3.49991C10.4997 3.43421 10.5127 3.36915 10.5378 3.30846C10.5629 3.24776 10.5998 3.19261 10.6462 3.14616C10.7401 3.05234 10.8673 2.99963 11 2.99963C11.0657 2.99963 11.1308 3.01257 11.1914 3.03771C11.2521 3.06285 11.3073 3.0997 11.3538 3.14616L14.3538 6.14616C14.4002 6.19259 14.4371 6.24774 14.4623 6.30844C14.4874 6.36913 14.5004 6.4342 14.5004 6.49991C14.5004 6.56561 14.4874 6.63068 14.4623 6.69138C14.4371 6.75207 14.4002 6.80722 14.3538 6.85366ZM11.3538 6.14616L8.35375 3.14616C8.28382 3.07615 8.1947 3.02847 8.09765 3.00914C8.00061 2.98982 7.90002 2.99972 7.8086 3.03759C7.71719 3.07547 7.63908 3.13962 7.58414 3.22191C7.5292 3.30421 7.49992 3.40096 7.5 3.49991V6.01866C5.86821 6.14674 4.34457 6.88488 3.23262 8.08601C2.12068 9.28714 1.50205 10.8631 1.5 12.4999C1.5 12.6325 1.55268 12.7597 1.64645 12.8535C1.74021 12.9472 1.86739 12.9999 2 12.9999C2.13261 12.9999 2.25979 12.9472 2.35355 12.8535C2.44732 12.7597 2.5 12.6325 2.5 12.4999C2.50165 11.1283 3.01511 9.80665 3.93989 8.79366C4.86467 7.78068 6.1342 7.14928 7.5 7.02303V9.49991C7.49992 9.59885 7.5292 9.6956 7.58414 9.7779C7.63908 9.86019 7.71719 9.92434 7.8086 9.96222C7.90002 10.0001 8.00061 10.01 8.09765 9.99067C8.1947 9.97134 8.28382 9.92366 8.35375 9.85366L11.3538 6.85366C11.4002 6.80722 11.4371 6.75207 11.4623 6.69138C11.4874 6.63068 11.5004 6.56561 11.5004 6.49991C11.5004 6.4342 11.4874 6.36913 11.4623 6.30844C11.4371 6.24774 11.4002 6.19259 11.3538 6.14616Z" fill="black"/>
</g>
<defs>
<clipPath id="clip0_5_1646">
<rect width="16" height="16" fill="white"/>
</clipPath>
</defs>
</svg>
