<svg width="16" height="16" viewBox="0 0 16 16" fill="none" xmlns="http://www.w3.org/2000/svg">
<g clip-path="url(#clip0_5_1700)">
<path d="M10.4618 12.3087C10.4997 12.4 10.5096 12.5005 10.4904 12.5976C10.4711 12.6946 10.4236 12.7837 10.3537 12.8537L8.35366 14.8537C8.30722 14.9001 8.25207 14.937 8.19138 14.9622C8.13068 14.9873 8.06561 15.0003 7.99991 15.0003C7.9342 15.0003 7.86913 14.9873 7.80844 14.9622C7.74774 14.937 7.69259 14.9001 7.64616 14.8537L5.64616 12.8537C5.57615 12.7837 5.52847 12.6946 5.50914 12.5976C5.48982 12.5005 5.49972 12.3999 5.53759 12.3085C5.57547 12.2171 5.63962 12.139 5.72191 12.084C5.80421 12.0291 5.90096 11.9998 5.99991 11.9999H7.49991V3.99991H5.99991C5.90096 3.99998 5.80421 3.9707 5.72191 3.91577C5.63962 3.86083 5.57547 3.78271 5.53759 3.6913C5.49972 3.59989 5.48982 3.49929 5.50914 3.40225C5.52847 3.30521 5.57615 3.21608 5.64616 3.14616L7.64616 1.14616C7.69259 1.09967 7.74774 1.06279 7.80844 1.03763C7.86913 1.01246 7.9342 0.999512 7.99991 0.999512C8.06561 0.999512 8.13068 1.01246 8.19138 1.03763C8.25207 1.06279 8.30722 1.09967 8.35366 1.14616L10.3537 3.14616C10.4237 3.21608 10.4713 3.30521 10.4907 3.40225C10.51 3.49929 10.5001 3.59989 10.4622 3.6913C10.4243 3.78271 10.3602 3.86083 10.2779 3.91577C10.1956 3.9707 10.0989 3.99998 9.99991 3.99991H8.49991V11.9999H9.99991C10.0988 11.9999 10.1955 12.0293 10.2777 12.0842C10.3599 12.1392 10.424 12.2173 10.4618 12.3087Z" fill="black"/>
</g>
<defs>
<clipPath id="clip0_5_1700">
<rect width="16" height="16" fill="white"/>
</clipPath>
</defs>
</svg>
