<svg width="16" height="16" viewBox="0 0 16 16" fill="none" xmlns="http://www.w3.org/2000/svg">
<g clip-path="url(#clip0_5_1635)">
<path d="M13.8538 5.35366L10.8538 8.35366C10.7838 8.42366 10.6947 8.47134 10.5977 8.49067C10.5006 8.51 10.4 8.50009 10.3086 8.46222C10.2172 8.42434 10.1391 8.36019 10.0841 8.2779C10.0292 8.1956 9.99992 8.09885 10 7.99991V5.49991H5V13.9999C5 14.1325 4.94732 14.2597 4.85355 14.3535C4.75979 14.4472 4.63261 14.4999 4.5 14.4999C4.36739 14.4999 4.24021 14.4472 4.14645 14.3535C4.05268 14.2597 4 14.1325 4 13.9999V4.99991C4 4.8673 4.05268 4.74012 4.14645 4.64635C4.24021 4.55258 4.36739 4.49991 4.5 4.49991H10V1.99991C9.99992 1.90096 10.0292 1.80421 10.0841 1.72191C10.1391 1.63962 10.2172 1.57547 10.3086 1.53759C10.4 1.49972 10.5006 1.48982 10.5977 1.50914C10.6947 1.52847 10.7838 1.57615 10.8538 1.64616L13.8538 4.64616C13.9002 4.69259 13.9371 4.74774 13.9623 4.80844C13.9874 4.86913 14.0004 4.9342 14.0004 4.99991C14.0004 5.06561 13.9874 5.13068 13.9623 5.19138C13.9371 5.25207 13.9002 5.30722 13.8538 5.35366Z" fill="black"/>
</g>
<defs>
<clipPath id="clip0_5_1635">
<rect width="16" height="16" fill="white"/>
</clipPath>
</defs>
</svg>
