<svg width="16" height="16" viewBox="0 0 16 16" fill="none" xmlns="http://www.w3.org/2000/svg">
<g clip-path="url(#clip0_5_1586)">
<path d="M14.4999 12.4999C14.4999 12.6325 14.4472 12.7597 14.3535 12.8535C14.2597 12.9472 14.1325 12.9999 13.9999 12.9999C13.8673 12.9999 13.7401 12.9472 13.6464 12.8535C13.5526 12.7597 13.4999 12.6325 13.4999 12.4999C13.4983 11.0417 12.9183 9.64374 11.8872 8.61265C10.8561 7.58155 9.45809 7.00156 7.99991 6.99991H5.49991V9.49991C5.49998 9.59885 5.4707 9.6956 5.41577 9.7779C5.36083 9.86019 5.28271 9.92434 5.1913 9.96222C5.09989 10.0001 4.99929 10.01 4.90225 9.99067C4.80521 9.97134 4.71608 9.92366 4.64615 9.85366L1.64615 6.85366C1.59967 6.80722 1.56279 6.75207 1.53763 6.69138C1.51246 6.63068 1.49951 6.56561 1.49951 6.49991C1.49951 6.4342 1.51246 6.36913 1.53763 6.30844C1.56279 6.24774 1.59967 6.19259 1.64615 6.14616L4.64615 3.14616C4.71608 3.07615 4.80521 3.02847 4.90225 3.00914C4.99929 2.98982 5.09989 2.99972 5.1913 3.03759C5.28271 3.07547 5.36083 3.13962 5.41577 3.22191C5.4707 3.30421 5.49998 3.40096 5.49991 3.49991V5.99991H7.99991C9.72325 6.00173 11.3755 6.68713 12.5941 7.90572C13.8127 9.12431 14.4981 10.7766 14.4999 12.4999Z" fill="black"/>
</g>
<defs>
<clipPath id="clip0_5_1586">
<rect width="16" height="16" fill="white"/>
</clipPath>
</defs>
</svg>
