<svg width="16" height="16" viewBox="0 0 16 16" fill="none" xmlns="http://www.w3.org/2000/svg">
<g clip-path="url(#clip0_5_1373)">
<path d="M14.3537 11.8538L12.3537 13.8538C12.3072 13.9002 12.2521 13.9371 12.1914 13.9623C12.1307 13.9874 12.0656 14.0004 11.9999 14.0004C11.9342 14.0004 11.8691 13.9874 11.8084 13.9623C11.7477 13.9371 11.6926 13.9002 11.6462 13.8538L9.64616 11.8538C9.57615 11.7838 9.52847 11.6947 9.50914 11.5977C9.48982 11.5006 9.49972 11.4 9.53759 11.3086C9.57547 11.2172 9.63962 11.1391 9.72191 11.0841C9.80421 11.0292 9.90096 10.9999 9.99991 11H11.4999V8.70687L7.99991 5.20687L4.49991 8.70687V11H5.99991C6.09885 10.9999 6.1956 11.0292 6.2779 11.0841C6.36019 11.1391 6.42434 11.2172 6.46222 11.3086C6.50009 11.4 6.51 11.5006 6.49067 11.5977C6.47134 11.6947 6.42366 11.7838 6.35366 11.8538L4.35366 13.8538C4.30722 13.9002 4.25207 13.9371 4.19138 13.9623C4.13068 13.9874 4.06561 14.0004 3.99991 14.0004C3.9342 14.0004 3.86913 13.9874 3.80844 13.9623C3.74774 13.9371 3.69259 13.9002 3.64616 13.8538L1.64616 11.8538C1.57615 11.7838 1.52847 11.6947 1.50914 11.5977C1.48982 11.5006 1.49972 11.4 1.53759 11.3086C1.57547 11.2172 1.63962 11.1391 1.72191 11.0841C1.80421 11.0292 1.90096 10.9999 1.99991 11H3.49991V8.5C3.49985 8.43432 3.51274 8.36927 3.53784 8.30857C3.56293 8.24788 3.59974 8.19272 3.64616 8.14625L7.49991 4.29313V1.5C7.49991 1.36739 7.55258 1.24021 7.64635 1.14645C7.74012 1.05268 7.8673 1 7.99991 1C8.13251 1 8.25969 1.05268 8.35346 1.14645C8.44723 1.24021 8.49991 1.36739 8.49991 1.5V4.29313L12.3537 8.14625C12.4001 8.19272 12.4369 8.24788 12.462 8.30857C12.4871 8.36927 12.5 8.43432 12.4999 8.5V11H13.9999C14.0989 10.9999 14.1956 11.0292 14.2779 11.0841C14.3602 11.1391 14.4243 11.2172 14.4622 11.3086C14.5001 11.4 14.51 11.5006 14.4907 11.5977C14.4713 11.6947 14.4237 11.7838 14.3537 11.8538Z" fill="black"/>
</g>
<defs>
<clipPath id="clip0_5_1373">
<rect width="16" height="16" fill="white"/>
</clipPath>
</defs>
</svg>
