<svg width="16" height="16" viewBox="0 0 16 16" fill="none" xmlns="http://www.w3.org/2000/svg">
<g clip-path="url(#clip0_5_1489)">
<path d="M14.9999 11.9999C14.9999 12.1325 14.9472 12.2597 14.8535 12.3535C14.7597 12.4472 14.6325 12.4999 14.4999 12.4999H5.49991C5.3673 12.4999 5.24012 12.4472 5.14635 12.3535C5.05258 12.2597 4.99991 12.1325 4.99991 11.9999V6.49991H2.49991C2.40096 6.49998 2.30421 6.4707 2.22191 6.41577C2.13962 6.36083 2.07547 6.28271 2.03759 6.1913C1.99972 6.09989 1.98982 5.99929 2.00914 5.90225C2.02847 5.80521 2.07615 5.71608 2.14616 5.64615L5.14616 2.64616C5.19259 2.59967 5.24774 2.56279 5.30844 2.53763C5.36913 2.51246 5.4342 2.49951 5.49991 2.49951C5.56561 2.49951 5.63068 2.51246 5.69138 2.53763C5.75207 2.56279 5.80722 2.59967 5.85366 2.64616L8.85366 5.64615C8.92366 5.71608 8.97134 5.80521 8.99067 5.90225C9.01 5.99929 9.00009 6.09989 8.96222 6.1913C8.92434 6.28271 8.86019 6.36083 8.7779 6.41577C8.6956 6.4707 8.59885 6.49998 8.49991 6.49991H5.99991V11.4999H14.4999C14.6325 11.4999 14.7597 11.5526 14.8535 11.6464C14.9472 11.7401 14.9999 11.8673 14.9999 11.9999Z" fill="black"/>
</g>
<defs>
<clipPath id="clip0_5_1489">
<rect width="16" height="16" fill="white"/>
</clipPath>
</defs>
</svg>
