<svg width="16" height="16" viewBox="0 0 16 16" fill="none" xmlns="http://www.w3.org/2000/svg">
<g clip-path="url(#clip0_5_1415)">
<path d="M5.5 6.49986H2.5C2.36739 6.49986 2.24022 6.44719 2.14645 6.35342C2.05268 6.25965 2 6.13247 2 5.99986V2.99986C1.99992 2.90092 2.0292 2.80417 2.08414 2.72187C2.13908 2.63958 2.21719 2.57543 2.30861 2.53755C2.40002 2.49968 2.50061 2.48977 2.59765 2.5091C2.6947 2.52842 2.78382 2.57611 2.85375 2.64611L4 3.79361C5.10762 2.72465 6.58568 2.12536 8.125 2.12111H8.15812C9.72568 2.11708 11.2317 2.73076 12.35 3.82924C12.4413 3.92265 12.4924 4.04809 12.4924 4.17872C12.4925 4.30934 12.4413 4.43479 12.35 4.52821C12.2587 4.62163 12.1345 4.67562 12.0039 4.67861C11.8733 4.68161 11.7467 4.63338 11.6512 4.54424C10.7191 3.62929 9.46427 3.11805 8.15812 3.12111H8.13C6.85511 3.12472 5.63041 3.61836 4.70938 4.49986L5.85375 5.64611C5.92376 5.71604 5.97144 5.80517 5.99076 5.90221C6.01009 5.99925 6.00019 6.09985 5.96231 6.19126C5.92444 6.28267 5.86029 6.36079 5.77799 6.41572C5.69569 6.47066 5.59895 6.49994 5.5 6.49986ZM13.5 9.49986H10.5C10.4011 9.49979 10.3043 9.52907 10.222 9.584C10.1397 9.63894 10.0756 9.71706 10.0377 9.80847C9.99981 9.89988 9.98991 10.0005 10.0092 10.0975C10.0286 10.1946 10.0762 10.2837 10.1462 10.3536L11.2906 11.4999C10.37 12.3819 9.14556 12.8762 7.87063 12.8805H7.8425C6.53636 12.8835 5.28151 12.3723 4.34938 11.4574C4.3028 11.4097 4.24718 11.3719 4.18578 11.346C4.12437 11.3202 4.05842 11.3069 3.99179 11.3069C3.92517 11.3069 3.85922 11.3202 3.79781 11.346C3.73641 11.3719 3.68079 11.4098 3.63423 11.4574C3.58766 11.5051 3.55109 11.5615 3.52665 11.6235C3.50222 11.6855 3.49042 11.7517 3.49195 11.8183C3.49348 11.8849 3.5083 11.9506 3.53555 12.0114C3.5628 12.0722 3.60192 12.1269 3.65063 12.1724C4.76892 13.2708 6.27495 13.8845 7.8425 13.8805H7.875C9.41432 13.8762 10.8924 13.277 12 12.208L13.1475 13.3555C13.2176 13.4252 13.3068 13.4725 13.4038 13.4915C13.5008 13.5106 13.6013 13.5004 13.6925 13.4623C13.7837 13.4243 13.8616 13.36 13.9164 13.2777C13.9711 13.1954 14.0002 13.0987 14 12.9999V9.99986C14 9.86726 13.9473 9.74008 13.8536 9.64631C13.7598 9.55254 13.6326 9.49986 13.5 9.49986Z" fill="black"/>
</g>
<defs>
<clipPath id="clip0_5_1415">
<rect width="16" height="16" fill="white"/>
</clipPath>
</defs>
</svg>
