<svg width="16" height="16" viewBox="0 0 16 16" fill="none" xmlns="http://www.w3.org/2000/svg">
<g clip-path="url(#clip0_5_1409)">
<path d="M7.46178 10.8087C7.49968 10.9 7.50964 11.0005 7.49039 11.0976C7.47114 11.1946 7.42356 11.2837 7.35366 11.3537L5.35366 13.3537C5.30722 13.4001 5.25207 13.437 5.19138 13.4622C5.13068 13.4873 5.06561 13.5003 4.99991 13.5003C4.9342 13.5003 4.86913 13.4873 4.80844 13.4622C4.74774 13.437 4.69259 13.4001 4.64616 13.3537L2.64616 11.3537C2.57615 11.2837 2.52847 11.1946 2.50914 11.0976C2.48982 11.0005 2.49972 10.8999 2.53759 10.8085C2.57547 10.7171 2.63962 10.639 2.72191 10.584C2.80421 10.5291 2.90096 10.4998 2.99991 10.4999H4.49991V2.99991C4.49991 2.8673 4.55258 2.74012 4.64635 2.64635C4.74012 2.55258 4.8673 2.49991 4.99991 2.49991C5.13251 2.49991 5.25969 2.55258 5.35346 2.64635C5.44723 2.74012 5.49991 2.8673 5.49991 2.99991V10.4999H6.99991C7.0988 10.4999 7.19546 10.5293 7.27767 10.5842C7.35988 10.6392 7.42395 10.7173 7.46178 10.8087ZM13.3537 4.64615L11.3537 2.64616C11.3072 2.59967 11.2521 2.56279 11.1914 2.53763C11.1307 2.51246 11.0656 2.49951 10.9999 2.49951C10.9342 2.49951 10.8691 2.51246 10.8084 2.53763C10.7477 2.56279 10.6926 2.59967 10.6462 2.64616L8.64616 4.64615C8.57615 4.71608 8.52847 4.80521 8.50914 4.90225C8.48982 4.99929 8.49972 5.09989 8.53759 5.1913C8.57547 5.28271 8.63962 5.36083 8.72191 5.41577C8.80421 5.4707 8.90096 5.49998 8.99991 5.49991H10.4999V12.9999C10.4999 13.1325 10.5526 13.2597 10.6464 13.3535C10.7401 13.4472 10.8673 13.4999 10.9999 13.4999C11.1325 13.4999 11.2597 13.4472 11.3535 13.3535C11.4472 13.2597 11.4999 13.1325 11.4999 12.9999V5.49991H12.9999C13.0989 5.49998 13.1956 5.4707 13.2779 5.41577C13.3602 5.36083 13.4243 5.28271 13.4622 5.1913C13.5001 5.09989 13.51 4.99929 13.4907 4.90225C13.4713 4.80521 13.4237 4.71608 13.3537 4.64615Z" fill="black"/>
</g>
<defs>
<clipPath id="clip0_5_1409">
<rect width="16" height="16" fill="white"/>
</clipPath>
</defs>
</svg>
