<svg width="16" height="16" viewBox="0 0 16 16" fill="none" xmlns="http://www.w3.org/2000/svg">
<g clip-path="url(#clip0_5_1437)">
<path d="M10.5 8.49991V5.99991H5.5C4.70435 5.99991 3.94129 6.31598 3.37868 6.87859C2.81607 7.44119 2.5 8.20426 2.5 8.99991C2.5 9.79556 2.81607 10.5586 3.37868 11.1212C3.94129 11.6838 4.70435 11.9999 5.5 11.9999H11C11.1326 11.9999 11.2598 12.0526 11.3536 12.1464C11.4473 12.2401 11.5 12.3673 11.5 12.4999C11.5 12.6325 11.4473 12.7597 11.3536 12.8535C11.2598 12.9472 11.1326 12.9999 11 12.9999H5.5C4.43913 12.9999 3.42172 12.5785 2.67157 11.8283C1.92143 11.0782 1.5 10.0608 1.5 8.99991C1.5 7.93904 1.92143 6.92162 2.67157 6.17148C3.42172 5.42133 4.43913 4.99991 5.5 4.99991H10.5V2.49991C10.4999 2.40096 10.5292 2.30421 10.5841 2.22191C10.6391 2.13962 10.7172 2.07547 10.8086 2.03759C10.9 1.99972 11.0006 1.98982 11.0977 2.00914C11.1947 2.02847 11.2838 2.07615 11.3538 2.14616L14.3538 5.14616C14.4002 5.19259 14.4371 5.24774 14.4623 5.30844C14.4874 5.36913 14.5004 5.4342 14.5004 5.49991C14.5004 5.56561 14.4874 5.63068 14.4623 5.69138C14.4371 5.75207 14.4002 5.80722 14.3538 5.85366L11.3538 8.85366C11.2838 8.92366 11.1947 8.97134 11.0977 8.99067C11.0006 9.01 10.9 9.00009 10.8086 8.96222C10.7172 8.92434 10.6391 8.86019 10.5841 8.7779C10.5292 8.6956 10.4999 8.59885 10.5 8.49991Z" fill="black"/>
</g>
<defs>
<clipPath id="clip0_5_1437">
<rect width="16" height="16" fill="white"/>
</clipPath>
</defs>
</svg>
