<svg width="16" height="16" viewBox="0 0 16 16" fill="none" xmlns="http://www.w3.org/2000/svg">
<g clip-path="url(#clip0_5_1546)">
<path d="M13.9999 5.49991V10.4999C13.9999 10.7651 13.8945 11.0195 13.707 11.207C13.5195 11.3945 13.2651 11.4999 12.9999 11.4999H7.99991V13.9999C7.99998 14.0989 7.9707 14.1956 7.91577 14.2779C7.86083 14.3602 7.78271 14.4243 7.6913 14.4622C7.59989 14.5001 7.49929 14.51 7.40225 14.4907C7.30521 14.4713 7.21608 14.4237 7.14615 14.3537L1.14616 8.35366C1.09967 8.30722 1.06279 8.25207 1.03763 8.19138C1.01246 8.13068 0.999512 8.06561 0.999512 7.99991C0.999512 7.9342 1.01246 7.86913 1.03763 7.80844C1.06279 7.74774 1.09967 7.69259 1.14616 7.64616L7.14615 1.64616C7.21608 1.57615 7.30521 1.52847 7.40225 1.50914C7.49929 1.48982 7.59989 1.49972 7.6913 1.53759C7.78271 1.57547 7.86083 1.63962 7.91577 1.72191C7.9707 1.80421 7.99998 1.90096 7.99991 1.99991V4.49991H12.9999C13.2651 4.49991 13.5195 4.60526 13.707 4.7928C13.8945 4.98034 13.9999 5.23469 13.9999 5.49991Z" fill="black"/>
</g>
<defs>
<clipPath id="clip0_5_1546">
<rect width="16" height="16" fill="white"/>
</clipPath>
</defs>
</svg>
