<svg width="16" height="16" viewBox="0 0 16 16" fill="none" xmlns="http://www.w3.org/2000/svg">
<g clip-path="url(#clip0_5_1520)">
<path d="M12.3538 4.35354L7.95687 8.74979L10.8538 11.646C10.9238 11.716 10.9714 11.8051 10.9908 11.9021C11.0101 11.9992 11.0002 12.0998 10.9623 12.1912C10.9244 12.2826 10.8603 12.3607 10.778 12.4156C10.6957 12.4706 10.5989 12.4999 10.5 12.4998H4C3.86739 12.4998 3.74022 12.4471 3.64645 12.3533C3.55268 12.2596 3.5 12.1324 3.5 11.9998V5.49979C3.49992 5.40084 3.5292 5.3041 3.58414 5.2218C3.63908 5.1395 3.71719 5.07535 3.80861 5.03748C3.90002 4.9996 4.00061 4.9897 4.09765 5.00903C4.1947 5.02835 4.28382 5.07603 4.35375 5.14604L7.25 8.04291L11.6462 3.64604C11.6927 3.59958 11.7479 3.56273 11.8086 3.53759C11.8692 3.51245 11.9343 3.49951 12 3.49951C12.0657 3.49951 12.1308 3.51245 12.1914 3.53759C12.2521 3.56273 12.3073 3.59958 12.3538 3.64604C12.4002 3.69249 12.4371 3.74764 12.4622 3.80834C12.4873 3.86904 12.5003 3.93409 12.5003 3.99979C12.5003 4.06549 12.4873 4.13054 12.4622 4.19124C12.4371 4.25193 12.4002 4.30708 12.3538 4.35354Z" fill="black"/>
</g>
<defs>
<clipPath id="clip0_5_1520">
<rect width="16" height="16" fill="white"/>
</clipPath>
</defs>
</svg>
