<svg width="16" height="16" viewBox="0 0 16 16" fill="none" xmlns="http://www.w3.org/2000/svg">
<g clip-path="url(#clip0_5_1443)">
<path d="M13.9619 5.19115C13.924 5.28253 13.86 5.36063 13.7778 5.41558C13.6956 5.47054 13.5989 5.49988 13.5 5.49991H11V10.4999C11 11.5608 10.5786 12.5782 9.82843 13.3283C9.07828 14.0785 8.06087 14.4999 7 14.4999C5.93913 14.4999 4.92172 14.0785 4.17157 13.3283C3.42143 12.5782 3 11.5608 3 10.4999V4.99991C3 4.8673 3.05268 4.74012 3.14645 4.64635C3.24021 4.55258 3.36739 4.49991 3.5 4.49991C3.63261 4.49991 3.75979 4.55258 3.85355 4.64635C3.94732 4.74012 4 4.8673 4 4.99991V10.4999C4 11.2956 4.31607 12.0586 4.87868 12.6212C5.44129 13.1838 6.20435 13.4999 7 13.4999C7.79565 13.4999 8.55871 13.1838 9.12132 12.6212C9.68393 12.0586 10 11.2956 10 10.4999V5.49991H7.5C7.40105 5.49998 7.30431 5.4707 7.22201 5.41577C7.13971 5.36083 7.07556 5.28271 7.03769 5.1913C6.99981 5.09989 6.98991 4.99929 7.00924 4.90225C7.02856 4.80521 7.07624 4.71608 7.14625 4.64615L10.1462 1.64615C10.1927 1.59967 10.2478 1.56279 10.3085 1.53763C10.3692 1.51246 10.4343 1.49951 10.5 1.49951C10.5657 1.49951 10.6308 1.51246 10.6915 1.53763C10.7522 1.56279 10.8073 1.59967 10.8538 1.64615L13.8538 4.64615C13.9237 4.71612 13.9712 4.80524 13.9905 4.90225C14.0097 4.99926 13.9998 5.0998 13.9619 5.19115Z" fill="black"/>
</g>
<defs>
<clipPath id="clip0_5_1443">
<rect width="16" height="16" fill="white"/>
</clipPath>
</defs>
</svg>
