<svg width="16" height="16" viewBox="0 0 16 16" fill="none" xmlns="http://www.w3.org/2000/svg">
<g clip-path="url(#clip0_5_1326)">
<path d="M13 13.9999C13 14.1325 12.9473 14.2597 12.8536 14.3535C12.7598 14.4472 12.6326 14.4999 12.5 14.4999C10.7767 14.4981 9.12444 13.8127 7.90584 12.5941C6.68725 11.3755 6.00185 9.72325 6.00003 7.99991V5.49991H3.50003C3.40108 5.49998 3.30433 5.4707 3.22204 5.41577C3.13974 5.36083 3.07559 5.28271 3.03772 5.1913C2.99984 5.09989 2.98994 4.99929 3.00926 4.90225C3.02859 4.80521 3.07627 4.71608 3.14628 4.64615L6.14628 1.64615C6.19271 1.59967 6.24786 1.56279 6.30856 1.53763C6.36926 1.51246 6.43432 1.49951 6.50003 1.49951C6.56574 1.49951 6.6308 1.51246 6.6915 1.53763C6.7522 1.56279 6.80734 1.59967 6.85378 1.64615L9.85378 4.64615C9.92378 4.71608 9.97147 4.80521 9.99079 4.90225C10.0101 4.99929 10.0002 5.09989 9.96234 5.1913C9.92446 5.28271 9.86032 5.36083 9.77802 5.41577C9.69572 5.4707 9.59898 5.49998 9.50003 5.49991H7.00003V7.99991C7.00168 9.45809 7.58168 10.8561 8.61277 11.8872C9.64386 12.9183 11.0418 13.4983 12.5 13.4999C12.6326 13.4999 12.7598 13.5526 12.8536 13.6464C12.9473 13.7401 13 13.8673 13 13.9999Z" fill="black"/>
</g>
<defs>
<clipPath id="clip0_5_1326">
<rect width="16" height="16" fill="white"/>
</clipPath>
</defs>
</svg>
