<svg width="16" height="16" viewBox="0 0 16 16" fill="none" xmlns="http://www.w3.org/2000/svg">
<g clip-path="url(#clip0_5_1523)">
<path d="M8.30875 14.4618C8.21738 14.424 8.13928 14.3599 8.08432 14.2777C8.02936 14.1955 8.00002 14.0988 8 13.9999V11.4999H6.5C6.36739 11.4999 6.24021 11.4472 6.14645 11.3535C6.05268 11.2597 6 11.1325 6 10.9999V4.99991C6 4.8673 6.05268 4.74012 6.14645 4.64635C6.24021 4.55258 6.36739 4.49991 6.5 4.49991H8V1.99991C7.99992 1.90096 8.0292 1.80421 8.08414 1.72191C8.13908 1.63962 8.21719 1.57547 8.30861 1.53759C8.40002 1.49972 8.50061 1.48982 8.59765 1.50914C8.6947 1.52847 8.78382 1.57615 8.85375 1.64616L14.8538 7.64616C14.9002 7.69259 14.9371 7.74774 14.9623 7.80844C14.9874 7.86913 15.0004 7.9342 15.0004 7.99991C15.0004 8.06561 14.9874 8.13068 14.9623 8.19138C14.9371 8.25207 14.9002 8.30722 14.8538 8.35366L8.85375 14.3537C8.78379 14.4236 8.69466 14.4711 8.59765 14.4904C8.50064 14.5096 8.4001 14.4997 8.30875 14.4618ZM3 10.9999V4.99991C3 4.8673 2.94732 4.74012 2.85355 4.64635C2.75979 4.55258 2.63261 4.49991 2.5 4.49991C2.36739 4.49991 2.24021 4.55258 2.14645 4.64635C2.05268 4.74012 2 4.8673 2 4.99991V10.9999C2 11.1325 2.05268 11.2597 2.14645 11.3535C2.24021 11.4472 2.36739 11.4999 2.5 11.4999C2.63261 11.4999 2.75979 11.4472 2.85355 11.3535C2.94732 11.2597 3 11.1325 3 10.9999ZM5 10.9999V4.99991C5 4.8673 4.94732 4.74012 4.85355 4.64635C4.75979 4.55258 4.63261 4.49991 4.5 4.49991C4.36739 4.49991 4.24021 4.55258 4.14645 4.64635C4.05268 4.74012 4 4.8673 4 4.99991V10.9999C4 11.1325 4.05268 11.2597 4.14645 11.3535C4.24021 11.4472 4.36739 11.4999 4.5 11.4999C4.63261 11.4999 4.75979 11.4472 4.85355 11.3535C4.94732 11.2597 5 11.1325 5 10.9999Z" fill="black"/>
</g>
<defs>
<clipPath id="clip0_5_1523">
<rect width="16" height="16" fill="white"/>
</clipPath>
</defs>
</svg>
