<svg width="16" height="16" viewBox="0 0 16 16" fill="none" xmlns="http://www.w3.org/2000/svg">
<g clip-path="url(#clip0_5_1502)">
<path d="M14.5 11.4999C14.5 11.6325 14.4473 11.7597 14.3536 11.8535C14.2598 11.9472 14.1326 11.9999 14 11.9999C13.8674 11.9999 13.7402 11.9472 13.6464 11.8535C13.5527 11.7597 13.5 11.6325 13.5 11.4999C13.4996 10.4249 13.1841 9.37357 12.5926 8.47591C12.0011 7.57826 11.1595 6.87362 10.1719 6.44912C9.1842 6.02461 8.0938 5.89885 7.03544 6.08738C5.97709 6.27591 4.99719 6.77047 4.21688 7.50991L5.85375 9.14616C5.92376 9.21608 5.97144 9.30521 5.99076 9.40225C6.01009 9.49929 6.00019 9.59989 5.96231 9.6913C5.92444 9.78271 5.86029 9.86083 5.77799 9.91577C5.69569 9.9707 5.59895 9.99998 5.5 9.99991H1.5C1.36739 9.99991 1.24021 9.94723 1.14645 9.85346C1.05268 9.75969 1 9.63251 1 9.49991V5.49991C0.999922 5.40096 1.0292 5.30421 1.08414 5.22191C1.13908 5.13962 1.21719 5.07547 1.30861 5.03759C1.40002 4.99972 1.50061 4.98982 1.59765 5.00914C1.6947 5.02847 1.78382 5.07615 1.85375 5.14616L3.50875 6.80116C4.42905 5.92151 5.5874 5.33148 6.84004 5.10429C8.09268 4.8771 9.38446 5.02276 10.5551 5.52319C11.7257 6.02362 12.7235 6.85678 13.4248 7.91928C14.1261 8.98178 14.5 10.2268 14.5 11.4999Z" fill="black"/>
</g>
<defs>
<clipPath id="clip0_5_1502">
<rect width="16" height="16" fill="white"/>
</clipPath>
</defs>
</svg>
