<svg width="16" height="16" viewBox="0 0 16 16" fill="none" xmlns="http://www.w3.org/2000/svg">
<g clip-path="url(#clip0_5_1454)">
<path d="M12.9999 4.99991V10.4999C12.9999 11.5608 12.5785 12.5782 11.8283 13.3283C11.0782 14.0785 10.0608 14.4999 8.99991 14.4999C7.93904 14.4999 6.92162 14.0785 6.17148 13.3283C5.42133 12.5782 4.99991 11.5608 4.99991 10.4999V5.49991H2.49991C2.40096 5.49998 2.30421 5.4707 2.22191 5.41577C2.13962 5.36083 2.07547 5.28271 2.03759 5.1913C1.99972 5.09989 1.98982 4.99929 2.00914 4.90225C2.02847 4.80521 2.07615 4.71608 2.14616 4.64615L5.14616 1.64615C5.19259 1.59967 5.24774 1.56279 5.30844 1.53763C5.36913 1.51246 5.4342 1.49951 5.49991 1.49951C5.56561 1.49951 5.63068 1.51246 5.69138 1.53763C5.75207 1.56279 5.80722 1.59967 5.85366 1.64615L8.85366 4.64615C8.92366 4.71608 8.97134 4.80521 8.99067 4.90225C9.01 4.99929 9.00009 5.09989 8.96222 5.1913C8.92434 5.28271 8.86019 5.36083 8.7779 5.41577C8.6956 5.4707 8.59885 5.49998 8.49991 5.49991H5.99991V10.4999C5.99991 11.2956 6.31598 12.0586 6.87859 12.6212C7.44119 13.1838 8.20426 13.4999 8.99991 13.4999C9.79556 13.4999 10.5586 13.1838 11.1212 12.6212C11.6838 12.0586 11.9999 11.2956 11.9999 10.4999V4.99991C11.9999 4.8673 12.0526 4.74012 12.1464 4.64635C12.2401 4.55258 12.3673 4.49991 12.4999 4.49991C12.6325 4.49991 12.7597 4.55258 12.8535 4.64635C12.9472 4.74012 12.9999 4.8673 12.9999 4.99991Z" fill="black"/>
</g>
<defs>
<clipPath id="clip0_5_1454">
<rect width="16" height="16" fill="white"/>
</clipPath>
</defs>
</svg>
