<svg width="16" height="16" viewBox="0 0 16 16" fill="none" xmlns="http://www.w3.org/2000/svg">
<g clip-path="url(#clip0_5_1387)">
<path d="M5.53803 3.69116C5.50013 3.5998 5.49017 3.49926 5.50942 3.40225C5.52867 3.30524 5.57625 3.21612 5.64615 3.14616L7.64615 1.14616C7.69259 1.09967 7.74774 1.06279 7.80843 1.03763C7.86913 1.01246 7.9342 0.999512 7.99991 0.999512C8.06561 0.999512 8.13068 1.01246 8.19138 1.03763C8.25207 1.06279 8.30722 1.09967 8.35366 1.14616L10.3537 3.14616C10.4237 3.21608 10.4713 3.30521 10.4907 3.40225C10.51 3.49929 10.5001 3.59989 10.4622 3.6913C10.4243 3.78271 10.3602 3.86083 10.2779 3.91577C10.1956 3.9707 10.0989 3.99998 9.9999 3.99991H8.49991V5.99991C8.49991 6.13251 8.44723 6.25969 8.35346 6.35346C8.25969 6.44723 8.13251 6.49991 7.99991 6.49991C7.8673 6.49991 7.74012 6.44723 7.64635 6.35346C7.55258 6.25969 7.49991 6.13251 7.49991 5.99991V3.99991H5.99991C5.90102 3.99988 5.80435 3.97054 5.72214 3.91558C5.63993 3.86063 5.57586 3.78253 5.53803 3.69116ZM9.9999 11.9999H8.49991V9.9999C8.49991 9.8673 8.44723 9.74012 8.35346 9.64635C8.25969 9.55258 8.13251 9.4999 7.99991 9.4999C7.8673 9.4999 7.74012 9.55258 7.64635 9.64635C7.55258 9.74012 7.49991 9.8673 7.49991 9.9999V11.9999H5.99991C5.90096 11.9998 5.80421 12.0291 5.72191 12.084C5.63962 12.139 5.57547 12.2171 5.53759 12.3085C5.49972 12.3999 5.48982 12.5005 5.50914 12.5976C5.52847 12.6946 5.57615 12.7837 5.64615 12.8537L7.64615 14.8537C7.69259 14.9001 7.74774 14.937 7.80843 14.9622C7.86913 14.9873 7.9342 15.0003 7.99991 15.0003C8.06561 15.0003 8.13068 14.9873 8.19138 14.9622C8.25207 14.937 8.30722 14.9001 8.35366 14.8537L10.3537 12.8537C10.4237 12.7837 10.4713 12.6946 10.4907 12.5976C10.51 12.5005 10.5001 12.3999 10.4622 12.3085C10.4243 12.2171 10.3602 12.139 10.2779 12.084C10.1956 12.0291 10.0989 11.9998 9.9999 11.9999ZM14.8537 7.64615L12.8537 5.64615C12.7837 5.57615 12.6946 5.52847 12.5976 5.50914C12.5005 5.48982 12.3999 5.49972 12.3085 5.53759C12.2171 5.57547 12.139 5.63962 12.084 5.72191C12.0291 5.80421 11.9998 5.90096 11.9999 5.99991V7.49991H9.9999C9.8673 7.49991 9.74012 7.55258 9.64635 7.64635C9.55258 7.74012 9.4999 7.8673 9.4999 7.99991C9.4999 8.13251 9.55258 8.25969 9.64635 8.35346C9.74012 8.44723 9.8673 8.49991 9.9999 8.49991H11.9999V9.9999C11.9998 10.0989 12.0291 10.1956 12.084 10.2779C12.139 10.3602 12.2171 10.4243 12.3085 10.4622C12.3999 10.5001 12.5005 10.51 12.5976 10.4907C12.6946 10.4713 12.7837 10.4237 12.8537 10.3537L14.8537 8.35366C14.9001 8.30722 14.937 8.25207 14.9622 8.19138C14.9873 8.13068 15.0003 8.06561 15.0003 7.99991C15.0003 7.9342 14.9873 7.86913 14.9622 7.80843C14.937 7.74774 14.9001 7.69259 14.8537 7.64615ZM5.99991 8.49991C6.13251 8.49991 6.25969 8.44723 6.35346 8.35346C6.44723 8.25969 6.49991 8.13251 6.49991 7.99991C6.49991 7.8673 6.44723 7.74012 6.35346 7.64635C6.25969 7.55258 6.13251 7.49991 5.99991 7.49991H3.99991V5.99991C3.99998 5.90096 3.9707 5.80421 3.91577 5.72191C3.86083 5.63962 3.78271 5.57547 3.6913 5.53759C3.59989 5.49972 3.49929 5.48982 3.40225 5.50914C3.30521 5.52847 3.21608 5.57615 3.14616 5.64615L1.14616 7.64615C1.09967 7.69259 1.06279 7.74774 1.03763 7.80843C1.01246 7.86913 0.999512 7.9342 0.999512 7.99991C0.999512 8.06561 1.01246 8.13068 1.03763 8.19138C1.06279 8.25207 1.09967 8.30722 1.14616 8.35366L3.14616 10.3537C3.21608 10.4237 3.30521 10.4713 3.40225 10.4907C3.49929 10.51 3.59989 10.5001 3.6913 10.4622C3.78271 10.4243 3.86083 10.3602 3.91577 10.2779C3.9707 10.1956 3.99998 10.0989 3.99991 9.9999V8.49991H5.99991Z" fill="black"/>
</g>
<defs>
<clipPath id="clip0_5_1387">
<rect width="16" height="16" fill="white"/>
</clipPath>
</defs>
</svg>
