<svg width="16" height="16" viewBox="0 0 16 16" fill="none" xmlns="http://www.w3.org/2000/svg">
<g clip-path="url(#clip0_5_1527)">
<path d="M9.9999 4.99991V10.9999C9.9999 11.1325 9.94723 11.2597 9.85346 11.3535C9.75969 11.4472 9.63251 11.4999 9.4999 11.4999H7.99991V13.9999C7.99998 14.0989 7.9707 14.1956 7.91577 14.2779C7.86083 14.3602 7.78271 14.4243 7.6913 14.4622C7.59989 14.5001 7.49929 14.51 7.40225 14.4907C7.30521 14.4713 7.21608 14.4237 7.14615 14.3537L1.14616 8.35366C1.09967 8.30722 1.06279 8.25207 1.03763 8.19138C1.01246 8.13068 0.999512 8.06561 0.999512 7.99991C0.999512 7.9342 1.01246 7.86913 1.03763 7.80844C1.06279 7.74774 1.09967 7.69259 1.14616 7.64616L7.14615 1.64616C7.21608 1.57615 7.30521 1.52847 7.40225 1.50914C7.49929 1.48982 7.59989 1.49972 7.6913 1.53759C7.78271 1.57547 7.86083 1.63962 7.91577 1.72191C7.9707 1.80421 7.99998 1.90096 7.99991 1.99991V4.49991H9.4999C9.63251 4.49991 9.75969 4.55258 9.85346 4.64635C9.94723 4.74012 9.9999 4.8673 9.9999 4.99991ZM13.4999 4.49991C13.3673 4.49991 13.2401 4.55258 13.1464 4.64635C13.0526 4.74012 12.9999 4.8673 12.9999 4.99991V10.9999C12.9999 11.1325 13.0526 11.2597 13.1464 11.3535C13.2401 11.4472 13.3673 11.4999 13.4999 11.4999C13.6325 11.4999 13.7597 11.4472 13.8535 11.3535C13.9472 11.2597 13.9999 11.1325 13.9999 10.9999V4.99991C13.9999 4.8673 13.9472 4.74012 13.8535 4.64635C13.7597 4.55258 13.6325 4.49991 13.4999 4.49991ZM11.4999 4.49991C11.3673 4.49991 11.2401 4.55258 11.1464 4.64635C11.0526 4.74012 10.9999 4.8673 10.9999 4.99991V10.9999C10.9999 11.1325 11.0526 11.2597 11.1464 11.3535C11.2401 11.4472 11.3673 11.4999 11.4999 11.4999C11.6325 11.4999 11.7597 11.4472 11.8535 11.3535C11.9472 11.2597 11.9999 11.1325 11.9999 10.9999V4.99991C11.9999 4.8673 11.9472 4.74012 11.8535 4.64635C11.7597 4.55258 11.6325 4.49991 11.4999 4.49991Z" fill="black"/>
</g>
<defs>
<clipPath id="clip0_5_1527">
<rect width="16" height="16" fill="white"/>
</clipPath>
</defs>
</svg>
