<svg width="16" height="16" viewBox="0 0 16 16" fill="none" xmlns="http://www.w3.org/2000/svg">
<g clip-path="url(#clip0_5_1405)">
<path d="M14.8537 8.35366L12.8537 10.3537C12.7837 10.4237 12.6946 10.4713 12.5976 10.4907C12.5005 10.51 12.3999 10.5001 12.3085 10.4622C12.2171 10.4243 12.139 10.3602 12.084 10.2779C12.0291 10.1956 11.9998 10.0989 11.9999 9.99991V8.49991H3.99991V9.99991C3.99998 10.0989 3.9707 10.1956 3.91577 10.2779C3.86083 10.3602 3.78271 10.4243 3.6913 10.4622C3.59989 10.5001 3.49929 10.51 3.40225 10.4907C3.30521 10.4713 3.21608 10.4237 3.14616 10.3537L1.14616 8.35366C1.09967 8.30722 1.06279 8.25207 1.03763 8.19138C1.01246 8.13068 0.999512 8.06561 0.999512 7.99991C0.999512 7.9342 1.01246 7.86913 1.03763 7.80844C1.06279 7.74774 1.09967 7.69259 1.14616 7.64616L3.14616 5.64616C3.21608 5.57615 3.30521 5.52847 3.40225 5.50914C3.49929 5.48982 3.59989 5.49972 3.6913 5.53759C3.78271 5.57547 3.86083 5.63962 3.91577 5.72191C3.9707 5.80421 3.99998 5.90096 3.99991 5.99991V7.49991H11.9999V5.99991C11.9998 5.90096 12.0291 5.80421 12.084 5.72191C12.139 5.63962 12.2171 5.57547 12.3085 5.53759C12.3999 5.49972 12.5005 5.48982 12.5976 5.50914C12.6946 5.52847 12.7837 5.57615 12.8537 5.64616L14.8537 7.64616C14.9001 7.69259 14.937 7.74774 14.9622 7.80844C14.9873 7.86913 15.0003 7.9342 15.0003 7.99991C15.0003 8.06561 14.9873 8.13068 14.9622 8.19138C14.937 8.25207 14.9001 8.30722 14.8537 8.35366Z" fill="black"/>
</g>
<defs>
<clipPath id="clip0_5_1405">
<rect width="16" height="16" fill="white"/>
</clipPath>
</defs>
</svg>
