<svg width="16" height="16" viewBox="0 0 16 16" fill="none" xmlns="http://www.w3.org/2000/svg">
<g clip-path="url(#clip0_5_1460)">
<path d="M14 7.99991C14 8.13251 13.9473 8.25969 13.8536 8.35346C13.7598 8.44723 13.6326 8.4999 13.5 8.4999H2.5C2.36739 8.4999 2.24021 8.44723 2.14645 8.35346C2.05268 8.25969 2 8.13251 2 7.99991C2 7.8673 2.05268 7.74012 2.14645 7.64635C2.24021 7.55258 2.36739 7.49991 2.5 7.49991H13.5C13.6326 7.49991 13.7598 7.55258 13.8536 7.64635C13.9473 7.74012 14 7.8673 14 7.99991ZM6 3.49991H7.5V5.99991C7.5 6.13251 7.55268 6.25969 7.64645 6.35346C7.74021 6.44723 7.86739 6.49991 8 6.49991C8.13261 6.49991 8.25979 6.44723 8.35355 6.35346C8.44732 6.25969 8.5 6.13251 8.5 5.99991V3.49991H10C10.0989 3.49998 10.1957 3.4707 10.278 3.41577C10.3603 3.36083 10.4244 3.28271 10.4623 3.1913C10.5002 3.09989 10.5101 2.99929 10.4908 2.90225C10.4714 2.80521 10.4238 2.71608 10.3538 2.64616L8.35375 0.646155C8.30731 0.599667 8.25217 0.562787 8.19147 0.537625C8.13077 0.512463 8.06571 0.499512 8 0.499512C7.93429 0.499512 7.86923 0.512463 7.80853 0.537625C7.74783 0.562787 7.69269 0.599667 7.64625 0.646155L5.64625 2.64616C5.57624 2.71608 5.52856 2.80521 5.50924 2.90225C5.48991 2.99929 5.49981 3.09989 5.53769 3.1913C5.57556 3.28271 5.63971 3.36083 5.72201 3.41577C5.80431 3.4707 5.90105 3.49998 6 3.49991ZM10 12.4999H8.5V9.9999C8.5 9.8673 8.44732 9.74012 8.35355 9.64635C8.25979 9.55258 8.13261 9.4999 8 9.4999C7.86739 9.4999 7.74021 9.55258 7.64645 9.64635C7.55268 9.74012 7.5 9.8673 7.5 9.9999V12.4999H6C5.90105 12.4998 5.80431 12.5291 5.72201 12.584C5.63971 12.639 5.57556 12.7171 5.53769 12.8085C5.49981 12.8999 5.48991 13.0005 5.50924 13.0976C5.52856 13.1946 5.57624 13.2837 5.64625 13.3537L7.64625 15.3537C7.69269 15.4001 7.74783 15.437 7.80853 15.4622C7.86923 15.4873 7.93429 15.5003 8 15.5003C8.06571 15.5003 8.13077 15.4873 8.19147 15.4622C8.25217 15.437 8.30731 15.4001 8.35375 15.3537L10.3538 13.3537C10.4238 13.2837 10.4714 13.1946 10.4908 13.0976C10.5101 13.0005 10.5002 12.8999 10.4623 12.8085C10.4244 12.7171 10.3603 12.639 10.278 12.584C10.1957 12.5291 10.0989 12.4998 10 12.4999Z" fill="black"/>
</g>
<defs>
<clipPath id="clip0_5_1460">
<rect width="16" height="16" fill="white"/>
</clipPath>
</defs>
</svg>
