<svg width="16" height="16" viewBox="0 0 16 16" fill="none" xmlns="http://www.w3.org/2000/svg">
<g clip-path="url(#clip0_5_1483)">
<path d="M13.8538 8.35366L9.35375 12.8537C9.28382 12.9237 9.1947 12.9713 9.09765 12.9907C9.00061 13.01 8.90002 13.0001 8.80861 12.9622C8.71719 12.9243 8.63908 12.8602 8.58414 12.7779C8.5292 12.6956 8.49992 12.5989 8.5 12.4999V8.49991H2.5C2.36739 8.49991 2.24021 8.44723 2.14645 8.35346C2.05268 8.25969 2 8.13251 2 7.99991C2 7.8673 2.05268 7.74012 2.14645 7.64635C2.24021 7.55258 2.36739 7.49991 2.5 7.49991H8.5V3.49991C8.49992 3.40096 8.5292 3.30421 8.58414 3.22191C8.63908 3.13962 8.71719 3.07547 8.80861 3.03759C8.90002 2.99972 9.00061 2.98982 9.09765 3.00914C9.1947 3.02847 9.28382 3.07615 9.35375 3.14616L13.8538 7.64616C13.9002 7.69259 13.9371 7.74774 13.9623 7.80844C13.9874 7.86913 14.0004 7.9342 14.0004 7.99991C14.0004 8.06561 13.9874 8.13068 13.9623 8.19138C13.9371 8.25207 13.9002 8.30722 13.8538 8.35366Z" fill="black"/>
</g>
<defs>
<clipPath id="clip0_5_1483">
<rect width="16" height="16" fill="white"/>
</clipPath>
</defs>
</svg>
