<svg width="16" height="16" viewBox="0 0 16 16" fill="none" xmlns="http://www.w3.org/2000/svg">
<g clip-path="url(#clip0_5_804)">
<path d="M14 8.00009C14.0002 9.57752 13.3791 11.0915 12.2712 12.2145C11.1634 13.3374 9.65792 13.9789 8.08063 14.0001H8.00001C6.46766 14.0039 4.99268 13.4175 3.88126 12.3626C3.83353 12.3174 3.79516 12.2633 3.76834 12.2034C3.74152 12.1434 3.72678 12.0787 3.72495 12.0131C3.72312 11.9474 3.73425 11.882 3.75769 11.8206C3.78113 11.7593 3.81643 11.7031 3.86157 11.6554C3.90671 11.6077 3.96081 11.5693 4.02078 11.5425C4.08075 11.5157 4.14542 11.5009 4.21109 11.4991C4.27676 11.4973 4.34214 11.5084 4.40351 11.5318C4.46488 11.5553 4.52103 11.5906 4.56876 11.6357C5.28363 12.3099 6.18131 12.7585 7.14965 12.9255C8.11799 13.0924 9.11407 12.9704 10.0134 12.5745C10.9128 12.1787 11.6756 11.5266 12.2066 10.6998C12.7375 9.87291 13.013 8.90796 12.9987 7.92543C12.9844 6.9429 12.6809 5.98637 12.1262 5.17532C11.5714 4.36427 10.79 3.73466 9.87945 3.36515C8.96894 2.99564 7.96974 2.90261 7.00666 3.09768C6.04359 3.29275 5.15934 3.76727 4.46438 4.46196C4.45928 4.46749 4.45385 4.4727 4.44813 4.47759L3.78938 5.08071L4.85188 6.14321C4.92286 6.21286 4.97145 6.30208 4.99146 6.39949C5.01147 6.49689 5.00198 6.59804 4.96421 6.69003C4.92643 6.78201 4.86209 6.86064 4.77941 6.91587C4.69672 6.9711 4.59944 7.00042 4.50001 7.00009H1.50001C1.3674 7.00009 1.24022 6.94741 1.14646 6.85364C1.05269 6.75987 1.00001 6.6327 1.00001 6.50009V3.50009C0.999433 3.40093 1.02836 3.30384 1.0831 3.22115C1.13784 3.13847 1.21594 3.07394 1.30745 3.03575C1.39897 2.99756 1.49977 2.98745 1.59705 3.0067C1.69432 3.02594 1.78368 3.07368 1.85376 3.14384L3.08188 4.37509L3.76563 3.75009C4.60562 2.91336 5.67468 2.34426 6.83784 2.11461C8.001 1.88496 9.20613 2.00507 10.3011 2.45977C11.3961 2.91447 12.3318 3.68338 12.9901 4.66943C13.6484 5.65548 13.9998 6.81447 14 8.00009Z" fill="black"/>
</g>
<defs>
<clipPath id="clip0_5_804">
<rect width="16" height="16" fill="white"/>
</clipPath>
</defs>
</svg>
