<svg width="16" height="16" viewBox="0 0 16 16" fill="none" xmlns="http://www.w3.org/2000/svg">
<g clip-path="url(#clip0_5_1666)">
<path d="M14.9998 3.49993V6.49993C14.9998 6.63253 14.9472 6.75971 14.8534 6.85348C14.7596 6.94725 14.6325 6.99993 14.4998 6.99993H11.4998C11.4009 7 11.3041 6.97072 11.2219 6.91579C11.1396 6.86085 11.0754 6.78273 11.0375 6.69132C10.9997 6.59991 10.9898 6.49932 11.0091 6.40227C11.0284 6.30523 11.0761 6.2161 11.1461 6.14618L12.2086 5.08368L11.5492 4.48055L11.5336 4.46555C10.8386 3.77086 9.95439 3.29634 8.99131 3.10127C8.02824 2.9062 7.02903 2.99923 6.11853 3.36874C5.20802 3.73825 4.42657 4.36785 3.8718 5.1789C3.31704 5.98995 3.01355 6.94649 2.99926 7.92901C2.98496 8.91154 3.26049 9.8765 3.79143 10.7033C4.32236 11.5302 5.08516 12.1823 5.98453 12.5781C6.88391 12.974 7.87998 13.096 8.84832 12.929C9.81667 12.7621 10.7143 12.3135 11.4292 11.6393C11.5256 11.5481 11.6543 11.499 11.7869 11.5027C11.9195 11.5064 12.0452 11.5626 12.1364 11.659C12.2276 11.7554 12.2767 11.884 12.273 12.0167C12.2693 12.1493 12.2131 12.275 12.1167 12.3662C11.005 13.4189 9.53095 14.0039 7.99984 13.9999H7.91734C6.93468 13.9865 5.97036 13.7318 5.10915 13.2584C4.24794 12.785 3.51621 12.1073 2.97825 11.2848C2.4403 10.4624 2.11261 9.5204 2.02397 8.54165C1.93533 7.5629 2.08846 6.57736 2.46991 5.67165C2.85136 4.76594 3.44944 3.96779 4.21159 3.34736C4.97373 2.72693 5.87662 2.3032 6.84087 2.11342C7.80513 1.92365 8.80124 1.97363 9.74166 2.25898C10.6821 2.54433 11.538 3.05631 12.2342 3.74993L12.9173 4.37493L14.1461 3.14368C14.2162 3.07352 14.3055 3.02578 14.4028 3.00653C14.5001 2.98729 14.6009 2.9974 14.6924 3.03559C14.7839 3.07377 14.862 3.13831 14.9167 3.22099C14.9715 3.30367 15.0004 3.40077 14.9998 3.49993Z" fill="black"/>
</g>
<defs>
<clipPath id="clip0_5_1666">
<rect width="16" height="16" fill="white"/>
</clipPath>
</defs>
</svg>
