<svg width="16" height="16" viewBox="0 0 16 16" fill="none" xmlns="http://www.w3.org/2000/svg">
<g clip-path="url(#clip0_5_1648)">
<path d="M12.2574 7.99991C13.798 5.83678 14.5837 3.60116 13.4912 2.50866C12.3987 1.41616 10.163 2.20178 7.99991 3.74241C5.83678 2.20178 3.60116 1.41616 2.50866 2.50866C1.41616 3.60116 2.20178 5.83678 3.74241 7.99991C2.20178 10.163 1.41616 12.3987 2.50866 13.4912C2.86053 13.843 3.33053 13.9999 3.87803 13.9999C5.03241 13.9999 6.53303 13.3018 8.00303 12.2574C9.46678 13.3018 10.9668 13.9999 12.1249 13.9999C12.6724 13.9999 13.143 13.8424 13.4943 13.4912C14.5837 12.3987 13.798 10.163 12.2574 7.99991ZM12.7843 3.21553C13.2618 3.69303 12.9393 5.24053 11.6268 7.17053C11.2116 6.65652 10.7695 6.1648 10.3024 5.69741C9.8348 5.23115 9.34309 4.78971 8.82928 4.37491C10.7593 3.06241 12.3068 2.73803 12.7843 3.21553ZM3.21553 3.21553C3.35303 3.07741 3.57991 3.00616 3.87928 3.00616C4.61803 3.00616 5.79741 3.43741 7.16991 4.37491C6.65643 4.78986 6.16493 5.23129 5.69741 5.69741C5.23097 6.16484 4.78952 6.65657 4.37491 7.17053C3.06241 5.24053 2.73803 3.69303 3.21553 3.21553ZM3.21553 12.7843C2.73803 12.3068 3.06241 10.7593 4.37491 8.82928C4.79013 9.34329 5.2322 9.83502 5.69928 10.3024C6.16642 10.7685 6.6575 11.2099 7.17053 11.6249C5.24053 12.9374 3.69303 13.2618 3.21553 12.7843ZM7.99991 8.74991C7.85157 8.74991 7.70657 8.70592 7.58323 8.62351C7.45989 8.5411 7.36376 8.42396 7.307 8.28692C7.25023 8.14988 7.23538 7.99908 7.26432 7.85359C7.29326 7.7081 7.36469 7.57447 7.46958 7.46958C7.57447 7.36469 7.7081 7.29326 7.85359 7.26432C7.99908 7.23538 8.14988 7.25023 8.28692 7.307C8.42396 7.36376 8.5411 7.45989 8.62351 7.58323C8.70592 7.70657 8.74991 7.85157 8.74991 7.99991C8.74991 8.19882 8.67089 8.38959 8.53024 8.53024C8.38959 8.67089 8.19882 8.74991 7.99991 8.74991ZM12.7843 12.7849C12.3068 13.263 10.7593 12.9399 8.82928 11.6274C9.34301 11.2118 9.83471 10.7698 10.3024 10.303C10.7689 9.83539 11.2103 9.34346 11.6249 8.82928C12.9374 10.7593 13.2618 12.3068 12.7843 12.7843V12.7849Z" fill="black"/>
</g>
<defs>
<clipPath id="clip0_5_1648">
<rect width="16" height="16" fill="white"/>
</clipPath>
</defs>
</svg>
