<svg width="16" height="16" viewBox="0 0 16 16" fill="none" xmlns="http://www.w3.org/2000/svg">
<g clip-path="url(#clip0_5_1411)">
<path d="M13.1876 8.16598L11.3251 2.9041C11.0967 2.21023 10.6571 1.60517 10.0676 1.17374C9.47815 0.742301 8.76848 0.506105 8.03805 0.498249C7.30762 0.490394 6.59303 0.711273 5.99444 1.12993C5.39584 1.54859 4.94324 2.14405 4.70006 2.83285L2.85568 8.0516C2.54301 8.8792 2.4346 9.77001 2.53964 10.6484C2.64468 11.5269 2.96007 12.367 3.45906 13.0976C3.95805 13.8281 4.6259 14.4275 5.40595 14.8449C6.18599 15.2622 7.05521 15.4853 7.93985 15.4951C8.82449 15.5049 9.69843 15.3011 10.4875 14.9011C11.2766 14.5011 11.9576 13.9166 12.4726 13.1973C12.9877 12.478 13.3216 11.6451 13.446 10.7692C13.5705 9.89328 13.4818 9.00029 13.1876 8.16598ZM8.00006 12.4997C7.5056 12.4997 7.02225 12.3531 6.61113 12.0784C6.20001 11.8037 5.87958 11.4133 5.69036 10.9564C5.50114 10.4996 5.45163 9.99695 5.54809 9.512C5.64456 9.02705 5.88266 8.58159 6.23229 8.23196C6.58192 7.88233 7.02738 7.64423 7.51233 7.54776C7.99728 7.4513 8.49995 7.50081 8.95677 7.69003C9.41358 7.87925 9.80403 8.19968 10.0787 8.6108C10.3534 9.02192 10.5001 9.50527 10.5001 9.99973C10.5001 10.6628 10.2367 11.2987 9.76782 11.7675C9.29898 12.2363 8.6631 12.4997 8.00006 12.4997Z" fill="black"/>
</g>
<defs>
<clipPath id="clip0_5_1411">
<rect width="16" height="16" fill="white"/>
</clipPath>
</defs>
</svg>
