<svg width="16" height="16" viewBox="0 0 16 16" fill="none" xmlns="http://www.w3.org/2000/svg">
<g clip-path="url(#clip0_5_1357)">
<path d="M15.9468 6.1077C15.887 5.92951 15.7782 5.77178 15.6328 5.65261C15.4875 5.53345 15.3114 5.45766 15.125 5.43395C13.984 5.28066 12.8859 4.89797 11.8968 4.30895L12.5412 3.6652C12.8127 3.3683 12.9592 2.97812 12.9502 2.57591C12.9412 2.1737 12.7774 1.79046 12.4929 1.50599C12.2085 1.22151 11.8252 1.05772 11.423 1.04873C11.0208 1.03974 10.6306 1.18623 10.3337 1.4577L9.50872 2.28333C9.3631 2.10833 9.2706 1.98083 9.2331 1.9277C9.1494 1.80813 9.04055 1.70834 8.91418 1.63531C8.78781 1.56229 8.64699 1.51782 8.5016 1.50501C8.35621 1.49221 8.20978 1.51138 8.07259 1.56119C7.9354 1.611 7.81078 1.69023 7.70747 1.79333L5.29247 4.2102C5.18946 4.31346 5.11027 4.43801 5.06048 4.57511C5.01069 4.71221 4.99149 4.85854 5.00423 5.00385C5.01698 5.14915 5.06136 5.28991 5.13425 5.41625C5.20715 5.54259 5.3068 5.65145 5.42622 5.7352C5.47997 5.7727 5.60747 5.8652 5.78247 6.01083L0.456849 11.3358C0.185374 11.6327 0.0388824 12.0229 0.0478763 12.4251C0.0568701 12.8273 0.220656 13.2106 0.505131 13.495C0.789607 13.7795 1.17285 13.9433 1.57506 13.9523C1.97726 13.9613 2.36744 13.8148 2.66435 13.5433L7.8081 8.39895C8.39685 9.38817 8.77952 10.4862 8.9331 11.6271C8.95709 11.8131 9.03293 11.9887 9.15196 12.1337C9.27099 12.2787 9.4284 12.3873 9.60622 12.4471C9.70994 12.4821 9.81864 12.5 9.9281 12.5002C10.0589 12.5001 10.1885 12.4742 10.3092 12.4239C10.43 12.3736 10.5397 12.2999 10.6318 12.2071L15.7056 7.1327C15.838 7.00177 15.9309 6.83617 15.9736 6.65489C16.0163 6.4736 16.007 6.28397 15.9468 6.1077ZM11.0431 2.16458C11.0933 2.10487 11.1553 2.05623 11.2252 2.02177C11.2952 1.9873 11.3715 1.96776 11.4494 1.96438C11.5273 1.96099 11.6051 1.97384 11.6778 2.00211C11.7504 2.03039 11.8164 2.07346 11.8716 2.1286C11.9267 2.18374 11.9698 2.24974 11.9981 2.32241C12.0263 2.39509 12.0392 2.47285 12.0358 2.55075C12.0324 2.62866 12.0129 2.70501 11.9784 2.77496C11.9439 2.84491 11.8953 2.90693 11.8356 2.95708L11.0512 3.74145C10.7513 3.51584 10.465 3.27271 10.1937 3.01333L11.0431 2.16458ZM1.95685 12.8358C1.9067 12.8955 1.84468 12.9442 1.77473 12.9786C1.70478 13.0131 1.62843 13.0326 1.55052 13.036C1.47262 13.0394 1.39486 13.0266 1.32218 12.9983C1.24951 12.97 1.18351 12.9269 1.12837 12.8718C1.07323 12.8167 1.03016 12.7507 1.00189 12.678C0.973614 12.6053 0.960762 12.5276 0.964146 12.4497C0.967529 12.3717 0.987074 12.2954 1.02154 12.2254C1.056 12.1555 1.10464 12.0935 1.16435 12.0433L6.5131 6.69458C6.77278 6.96555 7.01593 7.2519 7.24122 7.55208L1.95685 12.8358Z" fill="black"/>
</g>
<defs>
<clipPath id="clip0_5_1357">
<rect width="16" height="16" fill="white"/>
</clipPath>
</defs>
</svg>
