<svg width="16" height="16" viewBox="0 0 16 16" fill="none" xmlns="http://www.w3.org/2000/svg">
<g clip-path="url(#clip0_5_1637)">
<path d="M8.38495 1.5062C8.3412 1.50391 8.29762 1.51315 8.25857 1.53301C8.21952 1.55286 8.18637 1.58263 8.16245 1.61933C7.5187 2.59245 7.49995 3.48683 7.49995 3.49995C7.50024 3.57436 7.51714 3.64776 7.54941 3.71481C7.58168 3.78186 7.6285 3.84086 7.68647 3.88751C7.74444 3.93416 7.81209 3.96728 7.88448 3.98446C7.95688 4.00165 8.0322 4.00245 8.10495 3.98683C8.2185 3.95963 8.31943 3.89465 8.3912 3.80255C8.46297 3.71046 8.50132 3.5967 8.49995 3.47995C8.50234 3.41156 8.51874 3.34439 8.54814 3.28259C8.57754 3.2208 8.61932 3.1657 8.67088 3.1207C8.72243 3.07571 8.78268 3.04177 8.84789 3.021C8.91309 3.00023 8.98186 2.99307 9.04995 2.99995C9.17543 3.01452 9.291 3.07525 9.37418 3.17033C9.45736 3.2654 9.50219 3.38802 9.49995 3.51433C9.49771 3.91215 9.33753 4.29279 9.05464 4.57252C8.77176 4.85224 8.38934 5.00813 7.99151 5.00589C7.59369 5.00365 7.21304 4.84347 6.93332 4.56058C6.6536 4.2777 6.49771 3.89528 6.49995 3.49745C6.49995 3.45808 6.50557 2.8237 6.83995 1.99745C6.85688 1.95517 6.86195 1.90907 6.85459 1.86412C6.84723 1.81917 6.82774 1.77709 6.79821 1.74241C6.76868 1.70773 6.73024 1.68178 6.68704 1.66736C6.64383 1.65294 6.59751 1.65059 6.55307 1.66058C5.07986 1.99898 3.77033 2.83949 2.84912 4.03793C1.92792 5.23636 1.45246 6.71801 1.50432 8.2287C1.62495 11.67 4.45182 14.4375 7.89495 14.4937C9.59345 14.5197 11.2346 13.8798 12.4672 12.7109C13.6998 11.542 14.4258 9.93702 14.4899 8.23952C14.5539 6.54203 13.9509 4.88692 12.8099 3.62847C11.6689 2.37002 10.0806 1.60824 8.38495 1.5062ZM4.99995 7.99433C4.99995 7.84599 5.04394 7.70099 5.12635 7.57765C5.20876 7.45431 5.32589 7.35818 5.46294 7.30142C5.59998 7.24465 5.75078 7.2298 5.89627 7.25874C6.04175 7.28768 6.17539 7.35911 6.28028 7.464C6.38517 7.56889 6.4566 7.70252 6.48554 7.84801C6.51448 7.99349 6.49962 8.14429 6.44286 8.28134C6.38609 8.41838 6.28996 8.53552 6.16663 8.61793C6.04329 8.70034 5.89828 8.74433 5.74995 8.74433C5.55104 8.74433 5.36027 8.66531 5.21962 8.52466C5.07897 8.384 4.99995 8.19324 4.99995 7.99433ZM10.0168 11.4175C9.41173 11.7947 8.71299 11.9946 7.99995 11.9946C7.28691 11.9946 6.58816 11.7947 5.98307 11.4175C5.87085 11.3467 5.79135 11.2342 5.76204 11.1048C5.73274 10.9754 5.75604 10.8397 5.82682 10.7275C5.8976 10.6152 6.01006 10.5357 6.13946 10.5064C6.26886 10.4771 6.4046 10.5004 6.51682 10.5712C6.96214 10.8476 7.47583 10.994 7.99995 10.994C8.52406 10.994 9.03775 10.8476 9.48307 10.5712C9.53864 10.5362 9.60056 10.5124 9.66531 10.5013C9.73006 10.4902 9.79636 10.4919 9.86043 10.5064C9.92451 10.5209 9.98509 10.5479 10.0387 10.5858C10.0924 10.6238 10.138 10.6719 10.1731 10.7275C10.2081 10.783 10.2319 10.8449 10.243 10.9097C10.2541 10.9744 10.2524 11.0407 10.2379 11.1048C10.2233 11.1689 10.1964 11.2295 10.1584 11.2831C10.1205 11.3368 10.0724 11.3824 10.0168 11.4175ZM10.2499 8.74433C10.1016 8.74433 9.95661 8.70034 9.83327 8.61793C9.70993 8.53552 9.6138 8.41838 9.55704 8.28134C9.50027 8.14429 9.48542 7.99349 9.51436 7.84801C9.5433 7.70252 9.61473 7.56889 9.71962 7.464C9.82451 7.35911 9.95815 7.28768 10.1036 7.25874C10.2491 7.2298 10.3999 7.24465 10.537 7.30142C10.674 7.35818 10.7911 7.45431 10.8736 7.57765C10.956 7.70099 10.9999 7.84599 10.9999 7.99433C10.9999 8.19324 10.9209 8.384 10.7803 8.52466C10.6396 8.66531 10.4489 8.74433 10.2499 8.74433Z" fill="black"/>
</g>
<defs>
<clipPath id="clip0_5_1637">
<rect width="16" height="16" fill="white"/>
</clipPath>
</defs>
</svg>
