<svg width="16" height="16" viewBox="0 0 16 16" fill="none" xmlns="http://www.w3.org/2000/svg">
<g clip-path="url(#clip0_5_1342)">
<path d="M8 8.75C8.41421 8.75 8.75 8.41421 8.75 8C8.75 7.58579 8.41421 7.25 8 7.25C7.58579 7.25 7.25 7.58579 7.25 8C7.25 8.41421 7.58579 8.75 8 8.75Z" fill="black"/>
<path d="M11.5356 7.99996L13.2675 6.26746C13.5062 6.03684 13.6967 5.76098 13.8277 5.45597C13.9587 5.15096 14.0277 4.82291 14.0306 4.49096C14.0335 4.15901 13.9702 3.82981 13.8445 3.52257C13.7188 3.21533 13.5332 2.9362 13.2984 2.70147C13.0637 2.46674 12.7846 2.28111 12.4773 2.1554C12.1701 2.0297 11.8409 1.96645 11.509 1.96933C11.177 1.97222 10.849 2.04118 10.5439 2.17221C10.2389 2.30323 9.96308 2.49368 9.73246 2.73246L7.99996 4.46433L6.26746 2.73246C6.03684 2.49368 5.76098 2.30323 5.45597 2.17221C5.15096 2.04118 4.82291 1.97222 4.49096 1.96933C4.15901 1.96645 3.82981 2.0297 3.52257 2.1554C3.21533 2.28111 2.9362 2.46674 2.70147 2.70147C2.46674 2.9362 2.28111 3.21533 2.1554 3.52257C2.0297 3.82981 1.96645 4.15901 1.96933 4.49096C1.97222 4.82291 2.04118 5.15096 2.17221 5.45597C2.30323 5.76098 2.49368 6.03684 2.73246 6.26746L4.46433 7.99996L2.73246 9.73246C2.49368 9.96308 2.30323 10.2389 2.17221 10.5439C2.04118 10.849 1.97222 11.177 1.96933 11.509C1.96645 11.8409 2.0297 12.1701 2.1554 12.4773C2.28111 12.7846 2.46674 13.0637 2.70147 13.2984C2.9362 13.5332 3.21533 13.7188 3.52257 13.8445C3.82981 13.9702 4.15901 14.0335 4.49096 14.0306C4.82291 14.0277 5.15096 13.9587 5.45597 13.8277C5.76098 13.6967 6.03684 13.5062 6.26746 13.2675L7.99996 11.5356L9.73246 13.2675C9.96308 13.5062 10.2389 13.6967 10.5439 13.8277C10.849 13.9587 11.177 14.0277 11.509 14.0306C11.8409 14.0335 12.1701 13.9702 12.4773 13.8445C12.7846 13.7188 13.0637 13.5332 13.2984 13.2984C13.5332 13.0637 13.7188 12.7846 13.8445 12.4773C13.9702 12.1701 14.0335 11.8409 14.0306 11.509C14.0277 11.177 13.9587 10.849 13.8277 10.5439C13.6967 10.2389 13.5062 9.96308 13.2675 9.73246L11.5356 7.99996ZM7.99996 5.87871L10.1212 7.99996L7.99996 10.1212L5.87871 7.99996L7.99996 5.87871ZM10.4375 3.44121C10.7188 3.15942 11.1005 3.00091 11.4986 3.00056C11.8968 3.00021 12.2788 3.15804 12.5606 3.43933C12.8424 3.72063 13.0009 4.10234 13.0012 4.50051C13.0016 4.89867 12.8438 5.28067 12.5625 5.56246L10.83 7.29496L8.70683 5.17183L10.4375 3.44121ZM5.56246 12.5625C5.42293 12.702 5.25728 12.8127 5.07498 12.8882C4.89268 12.9637 4.69728 13.0026 4.49996 13.0026C4.30263 13.0026 4.10724 12.9637 3.92494 12.8882C3.74263 12.8127 3.57699 12.702 3.43746 12.5625C3.29793 12.4229 3.18725 12.2573 3.11174 12.075C3.03622 11.8927 2.99736 11.6973 2.99736 11.5C2.99736 11.3026 3.03622 11.1072 3.11174 10.9249C3.18725 10.7426 3.29793 10.577 3.43746 10.4375L5.16996 8.70496L7.29121 10.8262L5.56246 12.5625Z" fill="black"/>
</g>
<defs>
<clipPath id="clip0_5_1342">
<rect width="16" height="16" fill="white"/>
</clipPath>
</defs>
</svg>
