<svg width="16" height="16" viewBox="0 0 16 16" fill="none" xmlns="http://www.w3.org/2000/svg">
<g clip-path="url(#clip0_5_1591)">
<path d="M15 11.9999H14.5V8.16051L14.5931 8.29051C14.6299 8.34714 14.6778 8.39573 14.7339 8.43334C14.79 8.47095 14.8532 8.49681 14.9195 8.50935C14.9859 8.52188 15.0541 8.52085 15.1201 8.5063C15.186 8.49175 15.2483 8.46399 15.3033 8.42469C15.3582 8.3854 15.4046 8.33538 15.4397 8.27766C15.4747 8.21994 15.4978 8.15571 15.5073 8.08885C15.5169 8.02199 15.5128 7.95389 15.4953 7.88865C15.4778 7.82341 15.4473 7.76238 15.4056 7.70926L12.9056 4.20926C12.8714 4.16185 12.8291 4.12081 12.7806 4.08801L8.5625 1.17301L8.55625 1.16864C8.39192 1.059 8.19879 1.00049 8.00125 1.00049C7.8037 1.00049 7.61058 1.059 7.44625 1.16864L7.44 1.17301L3.21562 4.08864C3.16718 4.12143 3.12487 4.16247 3.09062 4.20989L0.590621 7.70989C0.548912 7.76301 0.518398 7.82403 0.500919 7.88927C0.483441 7.95451 0.479361 8.02261 0.488926 8.08947C0.498491 8.15633 0.521503 8.22056 0.556572 8.27828C0.591641 8.336 0.638041 8.38602 0.692972 8.42532C0.747903 8.46462 0.810226 8.49238 0.87618 8.50693C0.942134 8.52147 1.01035 8.52251 1.07672 8.50997C1.14308 8.49743 1.20622 8.47158 1.26232 8.43397C1.31842 8.39635 1.36632 8.34777 1.40312 8.29114L1.5 8.16051V11.9999H0.999996C0.867388 11.9999 0.740211 12.0526 0.646443 12.1463C0.552675 12.2401 0.499996 12.3673 0.499996 12.4999C0.499996 12.6325 0.552675 12.7597 0.646443 12.8534C0.740211 12.9472 0.867388 12.9999 0.999996 12.9999H15C15.1326 12.9999 15.2598 12.9472 15.3535 12.8534C15.4473 12.7597 15.5 12.6325 15.5 12.4999C15.5 12.3673 15.4473 12.2401 15.3535 12.1463C15.2598 12.0526 15.1326 11.9999 15 11.9999ZM7 4.99989H9C9.1326 4.99989 9.25978 5.05257 9.35355 5.14633C9.44732 5.2401 9.5 5.36728 9.5 5.49989C9.5 5.6325 9.44732 5.75967 9.35355 5.85344C9.25978 5.94721 9.1326 5.99989 9 5.99989H7C6.86739 5.99989 6.74021 5.94721 6.64644 5.85344C6.55267 5.75967 6.5 5.6325 6.5 5.49989C6.5 5.36728 6.55267 5.2401 6.64644 5.14633C6.74021 5.05257 6.86739 4.99989 7 4.99989ZM10.29 7.49989L8 9.13551L5.71 7.49989H10.29ZM4.5 7.86426L7.14 9.74989L4.5 11.6355V7.86426ZM5.71 11.9999L8 10.3643L10.29 11.9999H5.71ZM11.5 11.6355L8.86 9.74989L11.5 7.86426V11.6355Z" fill="black"/>
</g>
<defs>
<clipPath id="clip0_5_1591">
<rect width="16" height="16" fill="white"/>
</clipPath>
</defs>
</svg>
