<svg width="16" height="16" viewBox="0 0 16 16" fill="none" xmlns="http://www.w3.org/2000/svg">
<g clip-path="url(#clip0_5_1583)">
<path d="M15.5 7.49986H13.9813C13.8536 5.82296 13.081 4.2608 11.8258 3.14159C10.5705 2.02239 8.93033 1.43326 7.24982 1.49798C5.56932 1.56271 3.97931 2.27626 2.81387 3.4887C1.64843 4.70115 0.998272 6.31811 1 7.99986V9.49986C1.00133 10.6929 1.47586 11.8368 2.31948 12.6804C3.16311 13.524 4.30694 13.9985 5.5 13.9999H8C9.19307 13.9985 10.3369 13.524 11.1805 12.6804C12.0241 11.8368 12.4987 10.6929 12.5 9.49986V8.49986H15.5C15.6326 8.49986 15.7598 8.44718 15.8536 8.35341C15.9473 8.25965 16 8.13247 16 7.99986C16 7.86725 15.9473 7.74007 15.8536 7.64631C15.7598 7.55254 15.6326 7.49986 15.5 7.49986ZM5.5 11.2499C5.20333 11.2499 4.91332 11.1619 4.66665 10.9971C4.41997 10.8322 4.22772 10.598 4.11418 10.3239C4.00065 10.0498 3.97095 9.7482 4.02883 9.45722C4.0867 9.16625 4.22956 8.89898 4.43934 8.6892C4.64912 8.47942 4.9164 8.33656 5.20737 8.27868C5.49834 8.2208 5.79994 8.25051 6.07403 8.36404C6.34812 8.47757 6.58239 8.66983 6.74721 8.9165C6.91203 9.16318 7 9.45319 7 9.74986C7 10.1477 6.84197 10.5292 6.56066 10.8105C6.27936 11.0918 5.89783 11.2499 5.5 11.2499ZM11.5 9.49986C11.4991 10.3679 11.176 11.2046 10.5933 11.848C10.0107 12.4914 9.20993 12.8957 8.34625 12.9824C8.86312 12.561 9.27969 12.0299 9.56574 11.4275C9.85178 10.8252 10.0001 10.1667 10 9.49986V8.49986H11.5V9.49986Z" fill="black"/>
</g>
<defs>
<clipPath id="clip0_5_1583">
<rect width="16" height="16" fill="white"/>
</clipPath>
</defs>
</svg>
