<svg width="16" height="16" viewBox="0 0 16 16" fill="none" xmlns="http://www.w3.org/2000/svg">
<g clip-path="url(#clip0_5_1316)">
<path d="M13.0843 3.95495C13.063 3.92838 13.0365 3.90643 13.0064 3.89046C12.9764 3.87449 12.9433 3.86483 12.9094 3.86208C12.8754 3.85933 12.8413 3.86354 12.809 3.87446C12.7768 3.88538 12.7471 3.90278 12.7218 3.92558C12.5102 4.11847 12.3137 4.32742 12.1343 4.55058C12.0552 4.65274 11.9403 4.72118 11.8128 4.74216C11.6853 4.76315 11.5545 4.73512 11.4468 4.6637C11.3902 4.62451 11.3422 4.57404 11.306 4.51545C11.2698 4.45686 11.2461 4.39142 11.2363 4.32324C11.2266 4.25505 11.231 4.18558 11.2494 4.1192C11.2678 4.05281 11.2996 3.99094 11.3431 3.93745C11.541 3.68996 11.7568 3.45726 11.9887 3.2412C12.0154 3.21675 12.0365 3.18679 12.0505 3.15338C12.0645 3.11997 12.0711 3.08391 12.0698 3.04771C12.0685 3.01151 12.0593 2.97603 12.0429 2.94371C12.0266 2.9114 12.0034 2.88304 11.9749 2.86058C10.8376 1.97864 9.43917 1.5 7.99993 1.5C6.56068 1.5 5.1623 1.97864 4.02493 2.86058C3.9965 2.88304 3.9733 2.9114 3.95692 2.94371C3.94055 2.97603 3.93139 3.01151 3.93008 3.04771C3.92877 3.08391 3.93535 3.11997 3.94935 3.15338C3.96335 3.18679 3.98445 3.21675 4.01118 3.2412C4.2389 3.45364 4.4513 3.68192 4.6468 3.92433C4.72567 4.02022 4.76694 4.14154 4.76291 4.26564C4.75889 4.38973 4.70984 4.50812 4.62493 4.5987C4.57548 4.64972 4.51573 4.68962 4.44966 4.71574C4.38358 4.74185 4.3127 4.75359 4.24173 4.75016C4.17076 4.74673 4.10134 4.72821 4.03809 4.69585C3.97485 4.66348 3.91922 4.61801 3.87493 4.56245C3.69214 4.33458 3.49173 4.12143 3.27555 3.92495C3.25023 3.90229 3.22055 3.88502 3.18833 3.87421C3.15611 3.8634 3.12203 3.85927 3.08816 3.86208C3.05429 3.86489 3.02135 3.87457 2.99135 3.89054C2.96135 3.90651 2.93492 3.92843 2.91368 3.95495C1.99718 5.10398 1.49805 6.53018 1.49805 7.99995C1.49805 9.46972 1.99718 10.8959 2.91368 12.045C2.93497 12.0715 2.96147 12.0935 2.99155 12.1094C3.02162 12.1254 3.05465 12.1351 3.08859 12.1378C3.12254 12.1406 3.15668 12.1364 3.18894 12.1254C3.2212 12.1145 3.25088 12.0971 3.27618 12.0743C3.48782 11.8814 3.68423 11.6725 3.86368 11.4493C3.94283 11.3472 4.05769 11.2787 4.18521 11.2577C4.31273 11.2368 4.44347 11.2648 4.55118 11.3362C4.60796 11.3752 4.65606 11.4256 4.69246 11.4841C4.72886 11.5426 4.75277 11.6081 4.76269 11.6762C4.7726 11.7444 4.76832 11.814 4.7501 11.8804C4.73188 11.9469 4.70011 12.0089 4.6568 12.0625C4.45883 12.3099 4.24305 12.5426 4.01118 12.7587C3.98445 12.7832 3.96335 12.8131 3.94935 12.8465C3.93535 12.8799 3.92877 12.916 3.93008 12.9522C3.93139 12.9884 3.94055 13.0239 3.95692 13.0562C3.9733 13.0885 3.9965 13.1169 4.02493 13.1393C5.1623 14.0213 6.56068 14.4999 7.99993 14.4999C9.43917 14.4999 10.8376 14.0213 11.9749 13.1393C12.0034 13.1169 12.0266 13.0885 12.0429 13.0562C12.0593 13.0239 12.0685 12.9884 12.0698 12.9522C12.0711 12.916 12.0645 12.8799 12.0505 12.8465C12.0365 12.8131 12.0154 12.7832 11.9887 12.7587C11.7568 12.5426 11.541 12.3099 11.3431 12.0625C11.3001 12.0089 11.2686 11.947 11.2506 11.8807C11.2326 11.8144 11.2285 11.7451 11.2385 11.6771C11.2484 11.6092 11.2723 11.544 11.3086 11.4856C11.3448 11.4273 11.3928 11.3771 11.4493 11.3381C11.557 11.2667 11.6877 11.2386 11.8153 11.2596C11.9428 11.2806 12.0577 11.349 12.1368 11.4512C12.3162 11.6744 12.5127 11.8833 12.7243 12.0762C12.7496 12.099 12.7793 12.1164 12.8115 12.1273C12.8438 12.1382 12.8779 12.1425 12.9119 12.1397C12.9458 12.1369 12.9789 12.1273 13.0089 12.1113C13.039 12.0954 13.0655 12.0734 13.0868 12.0468C14.0033 10.8978 14.5024 9.4716 14.5024 8.00183C14.5024 6.53206 14.0033 5.10585 13.0868 3.95683L13.0843 3.95495ZM5.1068 5.5187C5.23169 5.48647 5.36415 5.50263 5.47762 5.56394C5.5911 5.62526 5.6772 5.7272 5.71868 5.84933C5.83778 6.19064 5.92851 6.54121 5.98993 6.89745C6.00518 6.97028 6.00399 7.0456 5.98643 7.11791C5.96888 7.19022 5.93541 7.2577 5.88846 7.31543C5.84151 7.37316 5.78226 7.41968 5.71505 7.45161C5.64783 7.48353 5.57434 7.50004 5.49993 7.49995C5.37407 7.50037 5.25268 7.4533 5.16 7.36815C5.06731 7.283 5.01015 7.16602 4.99993 7.04058C4.97618 6.76308 4.93055 6.4837 4.79993 6.23808C4.76424 6.17194 4.74392 6.09861 4.74048 6.02354C4.73704 5.94846 4.75057 5.87358 4.78005 5.80446C4.80954 5.73533 4.85423 5.67375 4.9108 5.62427C4.96737 5.5748 5.03437 5.53872 5.1068 5.5187ZM5.98993 9.09933C5.92818 9.46239 5.83555 9.81952 5.71305 10.1668C5.68931 10.2339 5.65152 10.2951 5.60221 10.3464C5.5529 10.3977 5.49321 10.4379 5.42712 10.4643C5.36104 10.4907 5.29009 10.5027 5.219 10.4995C5.14792 10.4962 5.07834 10.4779 5.01493 10.4456C4.90563 10.3872 4.8212 10.2912 4.77729 10.1754C4.73339 10.0595 4.73299 9.9317 4.77618 9.81558C4.87824 9.52324 4.95539 9.2228 5.0068 8.91745C5.01847 8.8475 5.04488 8.78082 5.08429 8.72185C5.12369 8.66289 5.17519 8.61298 5.23537 8.57544C5.29555 8.53791 5.36302 8.5136 5.43331 8.50414C5.5036 8.49468 5.57509 8.50029 5.64305 8.52058C5.76136 8.55836 5.86185 8.63797 5.9257 8.7445C5.98955 8.85103 6.01238 8.97718 5.98993 9.09933ZM10.9849 10.4456C10.9215 10.4779 10.8519 10.4962 10.7809 10.4995C10.7098 10.5027 10.6388 10.4907 10.5727 10.4643C10.5066 10.4379 10.447 10.3977 10.3976 10.3464C10.3483 10.2951 10.3105 10.2339 10.2868 10.1668C10.1643 9.81952 10.0717 9.46239 10.0099 9.09933C9.98761 8.97719 10.0105 8.8511 10.0743 8.7446C10.1382 8.63811 10.2386 8.55848 10.3568 8.52058C10.4248 8.50029 10.4963 8.49468 10.5665 8.50414C10.6368 8.5136 10.7043 8.53791 10.7645 8.57544C10.8247 8.61298 10.8762 8.66289 10.9156 8.72185C10.955 8.78082 10.9814 8.8475 10.9931 8.91745C11.0445 9.2228 11.1216 9.52324 11.2237 9.81558C11.2669 9.9317 11.2665 10.0595 11.2226 10.1754C11.1787 10.2912 11.0942 10.3872 10.9849 10.4456ZM11.1981 6.23808C11.0674 6.4837 11.0218 6.76308 10.9981 7.04058C10.9917 7.11405 10.9691 7.1852 10.932 7.24894C10.8949 7.31267 10.8442 7.36741 10.7834 7.40922C10.7227 7.45104 10.6534 7.47889 10.5806 7.4908C10.5078 7.5027 10.4333 7.49836 10.3624 7.47808C10.243 7.44165 10.1411 7.36267 10.076 7.25612C10.0109 7.14956 9.98719 7.02284 10.0093 6.89995C10.0704 6.54296 10.1613 6.19173 10.2812 5.84995C10.3224 5.72762 10.4084 5.62544 10.522 5.56398C10.6355 5.50252 10.7681 5.48635 10.8931 5.5187C10.9653 5.53893 11.0321 5.57518 11.0885 5.62474C11.1448 5.67431 11.1893 5.73592 11.2186 5.80502C11.2479 5.87412 11.2613 5.94893 11.2577 6.02389C11.2541 6.09886 11.2338 6.17206 11.1981 6.23808Z" fill="black"/>
</g>
<defs>
<clipPath id="clip0_5_1316">
<rect width="16" height="16" fill="white"/>
</clipPath>
</defs>
</svg>
