<svg width="16" height="16" viewBox="0 0 16 16" fill="none" xmlns="http://www.w3.org/2000/svg">
<g clip-path="url(#clip0_5_1145)">
<path d="M3.97484 2.89963C4.91221 2.15675 6.03723 1.68836 7.22484 1.54651C7.25995 1.54253 7.29551 1.54605 7.32917 1.55682C7.36282 1.56759 7.39381 1.58537 7.42009 1.60899C7.44637 1.63262 7.46735 1.66154 7.48163 1.69387C7.49592 1.72619 7.50319 1.76117 7.50296 1.79651V7.50026H5.98109C5.85685 5.89038 5.13656 4.38474 3.96109 3.27776C3.93479 3.25332 3.91407 3.2235 3.90032 3.19033C3.88658 3.15717 3.88014 3.12143 3.88145 3.08555C3.88275 3.04967 3.89177 3.0145 3.90788 2.98242C3.924 2.95033 3.94683 2.9221 3.97484 2.89963ZM2.87484 4.00463C2.14581 4.93503 1.68561 6.04737 1.54421 7.22088C1.54005 7.25609 1.54342 7.29179 1.5541 7.3256C1.56478 7.35941 1.58254 7.39055 1.60618 7.41698C1.62982 7.4434 1.65882 7.46449 1.69124 7.47885C1.72366 7.49321 1.75876 7.5005 1.79421 7.50026H4.97671C4.85338 6.15145 4.23591 4.89581 3.24296 3.97463C3.21753 3.95095 3.18743 3.93283 3.1546 3.92142C3.12177 3.91002 3.08692 3.90559 3.05228 3.90842C3.01764 3.91124 2.98397 3.92125 2.95342 3.93782C2.92286 3.95439 2.8961 3.97714 2.87484 4.00463ZM12.0248 2.89963C11.0875 2.15675 9.96245 1.68836 8.77484 1.54651C8.73972 1.54253 8.70417 1.54605 8.67051 1.55682C8.63685 1.56759 8.60586 1.58537 8.57958 1.60899C8.5533 1.63262 8.53233 1.66154 8.51804 1.69387C8.50376 1.72619 8.49649 1.76117 8.49671 1.79651V7.50026H10.0155C10.1397 5.89038 10.86 4.38474 12.0355 3.27776C12.0619 3.25354 12.0829 3.2239 12.0969 3.19085C12.1109 3.15781 12.1176 3.12214 12.1166 3.08627C12.1156 3.05039 12.1069 3.01516 12.0911 2.98295C12.0752 2.95075 12.0526 2.92233 12.0248 2.89963ZM14.4536 7.22088C14.3127 6.04756 13.8532 4.93524 13.1248 4.00463C13.1036 3.97744 13.0769 3.95493 13.0465 3.93855C13.0161 3.92217 12.9827 3.91225 12.9483 3.90943C12.9139 3.90661 12.8793 3.91095 12.8466 3.92217C12.814 3.9334 12.784 3.95126 12.7586 3.97463C11.765 4.89551 11.1468 6.15119 11.023 7.50026H14.2048C14.2402 7.50033 14.2752 7.4929 14.3074 7.47846C14.3397 7.46402 14.3685 7.44291 14.392 7.41651C14.4155 7.3901 14.4332 7.35902 14.4438 7.3253C14.4544 7.29158 14.4577 7.25599 14.4536 7.22088ZM1.54609 8.77963C1.68694 9.95296 2.14648 11.0653 2.87484 11.9959C2.8961 12.0231 2.92276 12.0456 2.95315 12.062C2.98354 12.0784 3.01699 12.0883 3.05139 12.0911C3.0858 12.0939 3.12042 12.0896 3.15307 12.0783C3.18571 12.0671 3.21568 12.0493 3.24109 12.0259C4.23472 11.105 4.85288 9.84933 4.97671 8.50026H1.79484C1.75949 8.50019 1.72452 8.50762 1.69226 8.52206C1.65999 8.53649 1.63115 8.55761 1.60764 8.58401C1.58413 8.61041 1.56649 8.6415 1.55588 8.67522C1.54527 8.70894 1.54193 8.74453 1.54609 8.77963ZM13.1248 11.9959C13.8539 11.0655 14.3141 9.95314 14.4555 8.77963C14.4596 8.74442 14.4563 8.70873 14.4456 8.67492C14.4349 8.64111 14.4171 8.60996 14.3935 8.58354C14.3699 8.55712 14.3409 8.53603 14.3084 8.52167C14.276 8.50731 14.2409 8.50001 14.2055 8.50026H11.023C11.1463 9.84907 11.7638 11.1047 12.7567 12.0259C12.7821 12.0496 12.8122 12.0677 12.8451 12.0791C12.8779 12.0905 12.9128 12.0949 12.9474 12.0921C12.982 12.0893 13.0157 12.0793 13.0463 12.0627C13.0768 12.0461 13.1036 12.0234 13.1248 11.9959ZM3.97484 13.1009C4.91221 13.8438 6.03723 14.3122 7.22484 14.454C7.25995 14.458 7.29551 14.4545 7.32917 14.4437C7.36282 14.4329 7.39381 14.4151 7.42009 14.3915C7.44637 14.3679 7.46735 14.339 7.48163 14.3067C7.49592 14.2743 7.50319 14.2393 7.50296 14.204V8.50026H5.98109C5.85685 10.1101 5.13656 11.6158 3.96109 12.7228C3.93479 12.7472 3.91407 12.777 3.90032 12.8102C3.88658 12.8434 3.88014 12.8791 3.88145 12.915C3.88275 12.9508 3.89177 12.986 3.90788 13.0181C3.924 13.0502 3.94683 13.0784 3.97484 13.1009ZM10.0186 8.50026H8.49984V14.2053C8.49961 14.2406 8.50688 14.2756 8.52117 14.3079C8.53545 14.3402 8.55643 14.3692 8.58271 14.3928C8.60899 14.4164 8.63998 14.4342 8.67364 14.445C8.70729 14.4557 8.74285 14.4592 8.77796 14.4553C9.96557 14.3134 11.0906 13.845 12.028 13.1021C12.056 13.0797 12.0788 13.0514 12.0949 13.0194C12.111 12.9873 12.12 12.9521 12.1214 12.9162C12.1227 12.8803 12.1162 12.8446 12.1025 12.8114C12.0887 12.7783 12.068 12.7485 12.0417 12.724C10.8648 11.6172 10.1434 10.111 10.0186 8.50026Z" fill="black"/>
</g>
<defs>
<clipPath id="clip0_5_1145">
<rect width="16" height="16" fill="white"/>
</clipPath>
</defs>
</svg>
