<svg width="16" height="16" viewBox="0 0 16 16" fill="none" xmlns="http://www.w3.org/2000/svg">
<g clip-path="url(#clip0_5_1149)">
<path d="M14.875 5.17075C14.8282 5.1173 14.7706 5.07444 14.7059 5.04501C14.6413 5.01559 14.5711 5.00029 14.5 5.00012H11.7269L8.37503 1.17075C8.32811 1.11754 8.27041 1.07493 8.20575 1.04575C8.1411 1.01656 8.07097 1.00146 8.00003 1.00146C7.9291 1.00146 7.85897 1.01656 7.79431 1.04575C7.72966 1.07493 7.67195 1.11754 7.62503 1.17075L4.27316 5.00012H1.50003C1.42877 5.00012 1.35834 5.01534 1.29344 5.04478C1.22855 5.07422 1.1707 5.11719 1.12376 5.17081C1.07683 5.22443 1.0419 5.28746 1.02132 5.35569C1.00073 5.42391 0.994967 5.49574 1.00441 5.56637L1.94628 12.6326C1.97914 12.8724 2.09755 13.0923 2.2797 13.2517C2.46185 13.4111 2.69548 13.4993 2.93753 13.5001H13.0625C13.3046 13.4993 13.5382 13.4111 13.7204 13.2517C13.9025 13.0923 14.0209 12.8724 14.0538 12.6326L14.9957 5.56637C15.0049 5.49564 14.999 5.42374 14.9782 5.3555C14.9574 5.28726 14.9222 5.22427 14.875 5.17075ZM5.10003 11.5001C5.08317 11.5011 5.06627 11.5011 5.04941 11.5001C4.92502 11.5007 4.80488 11.455 4.71242 11.3718C4.61997 11.2886 4.56185 11.1739 4.54941 11.0501L4.19941 7.55012C4.18615 7.41818 4.22584 7.28637 4.30977 7.18369C4.39369 7.08101 4.51496 7.01588 4.64691 7.00262C4.77885 6.98936 4.91066 7.02906 5.01334 7.11298C5.11601 7.1969 5.18115 7.31818 5.19441 7.45012L5.54441 10.9501C5.55841 11.082 5.51946 11.214 5.43612 11.3172C5.35279 11.4203 5.23189 11.4861 5.10003 11.5001ZM8.50003 11.0001C8.50003 11.1327 8.44736 11.2599 8.35359 11.3537C8.25982 11.4474 8.13264 11.5001 8.00003 11.5001C7.86742 11.5001 7.74025 11.4474 7.64648 11.3537C7.55271 11.2599 7.50003 11.1327 7.50003 11.0001V7.50012C7.50003 7.36751 7.55271 7.24034 7.64648 7.14657C7.74025 7.0528 7.86742 7.00012 8.00003 7.00012C8.13264 7.00012 8.25982 7.0528 8.35359 7.14657C8.44736 7.24034 8.50003 7.36751 8.50003 7.50012V11.0001ZM5.60191 5.00012L8.00003 2.2595L10.3982 5.00012H5.60191ZM11.7975 7.55012L11.4475 11.0501C11.4351 11.1733 11.3775 11.2876 11.2857 11.3707C11.1939 11.4539 11.0745 11.5 10.9507 11.5001C10.9338 11.5011 10.9169 11.5011 10.9 11.5001C10.8347 11.4936 10.7713 11.4742 10.7135 11.4431C10.6556 11.4121 10.6044 11.3699 10.5629 11.3191C10.5213 11.2682 10.4902 11.2097 10.4713 11.1468C10.4523 11.0839 10.446 11.018 10.4525 10.9526L10.8025 7.45262C10.8158 7.32068 10.8809 7.1994 10.9836 7.11548C11.0863 7.03156 11.2181 6.99186 11.35 7.00512C11.482 7.01838 11.6033 7.08351 11.6872 7.18619C11.7711 7.28887 11.8108 7.42068 11.7975 7.55262V7.55012Z" fill="black"/>
</g>
<defs>
<clipPath id="clip0_5_1149">
<rect width="16" height="16" fill="white"/>
</clipPath>
</defs>
</svg>
