<svg width="16" height="16" viewBox="0 0 16 16" fill="none" xmlns="http://www.w3.org/2000/svg">
<g clip-path="url(#clip0_5_1257)">
<path d="M14 10.1348V8.99981C13.9975 7.66678 13.552 6.3724 12.7336 5.32021C11.9151 4.26802 10.7702 3.51772 9.47875 3.18731C9.64625 2.92264 9.73964 2.61786 9.74919 2.30479C9.75873 1.99171 9.68407 1.68181 9.53301 1.40743C9.38194 1.13305 9.16 0.904244 8.89035 0.744887C8.6207 0.58553 8.31322 0.501465 8 0.501465C7.68678 0.501465 7.3793 0.58553 7.10965 0.744887C6.84 0.904244 6.61806 1.13305 6.46699 1.40743C6.31593 1.68181 6.24127 1.99171 6.25081 2.30479C6.26036 2.61786 6.35375 2.92264 6.52125 3.18731C5.22982 3.51772 4.08486 4.26802 3.26641 5.32021C2.44797 6.3724 2.00248 7.66678 2 8.99981V10.1348C1.84813 10.2225 1.72199 10.3486 1.63423 10.5004C1.54647 10.6522 1.50018 10.8244 1.5 10.9998V12.9998C1.5 13.265 1.60536 13.5194 1.79289 13.7069C1.98043 13.8944 2.23478 13.9998 2.5 13.9998H13.5C13.7652 13.9998 14.0196 13.8944 14.2071 13.7069C14.3946 13.5194 14.5 13.265 14.5 12.9998V10.9998C14.4998 10.8244 14.4535 10.6522 14.3658 10.5004C14.278 10.3486 14.1519 10.2225 14 10.1348ZM7.5 10.9998V12.9998H5V10.9998H7.5ZM8.5 10.9998H11V12.9998H8.5V10.9998ZM7.25 2.24981C7.25 2.10147 7.29399 1.95647 7.3764 1.83313C7.45881 1.70979 7.57594 1.61366 7.71299 1.5569C7.85003 1.50013 8.00083 1.48528 8.14632 1.51422C8.2918 1.54316 8.42544 1.61459 8.53033 1.71948C8.63522 1.82437 8.70665 1.958 8.73559 2.10349C8.76453 2.24897 8.74967 2.39977 8.69291 2.53682C8.63614 2.67386 8.54001 2.791 8.41668 2.87341C8.29334 2.95582 8.14834 2.99981 8 2.99981C7.80109 2.99981 7.61032 2.92079 7.46967 2.78014C7.32902 2.63948 7.25 2.44872 7.25 2.24981ZM2.5 10.9998H4V12.9998H2.5V10.9998ZM13.5 12.9998H12V10.9998H13.5V12.9998Z" fill="black"/>
</g>
<defs>
<clipPath id="clip0_5_1257">
<rect width="16" height="16" fill="white"/>
</clipPath>
</defs>
</svg>
