<svg width="16" height="16" viewBox="0 0 16 16" fill="none" xmlns="http://www.w3.org/2000/svg">
<g clip-path="url(#clip0_5_1243)">
<path d="M15.3536 2.64604L13.3536 0.64604C13.2598 0.552219 13.1325 0.499512 12.9999 0.499512C12.8672 0.499512 12.7399 0.552219 12.6461 0.64604C12.5523 0.73986 12.4996 0.867108 12.4996 0.99979C12.4996 1.13247 12.5523 1.25972 12.6461 1.35354L12.7386 1.44541L9.29048 4.03166L6.90173 4.50979C6.805 4.52917 6.71611 4.57655 6.6461 4.64604L1.43735 9.85354C1.15607 10.1348 0.998047 10.5164 0.998047 10.9142C0.998047 11.312 1.15607 11.6935 1.43735 11.9748L4.02485 14.5623C4.30615 14.8436 4.68767 15.0016 5.08548 15.0016C5.48328 15.0016 5.8648 14.8436 6.1461 14.5623L11.3536 9.35542C11.4232 9.28552 11.4707 9.19658 11.4899 9.09979L11.968 6.71104L14.5542 3.26291L14.6461 3.35541C14.6926 3.40187 14.7477 3.43872 14.8084 3.46386C14.8691 3.489 14.9342 3.50194 14.9999 3.50194C15.0655 3.50194 15.1306 3.489 15.1913 3.46386C15.252 3.43872 15.3071 3.40187 15.3536 3.35541C15.4001 3.30896 15.4369 3.25381 15.462 3.19311C15.4872 3.13242 15.5001 3.06736 15.5001 3.00166C15.5001 2.93597 15.4872 2.87091 15.462 2.81022C15.4369 2.74952 15.4001 2.69437 15.3536 2.64791V2.64604ZM5.08548 13.9998C5.01987 14 4.95488 13.9871 4.89427 13.962C4.83366 13.9369 4.77862 13.9001 4.73235 13.8535L2.1461 11.2673C2.0524 11.1735 1.99977 11.0464 1.99977 10.9139C1.99977 10.7813 2.0524 10.6542 2.1461 10.5604L2.49985 10.2067L5.79298 13.4998L5.43735 13.8535C5.34396 13.9468 5.21747 13.9994 5.08548 13.9998ZM11.0999 6.19979C11.055 6.25944 11.0243 6.32845 11.0099 6.40166L10.5392 8.75354L9.99985 9.29292L6.70673 5.99979L7.2461 5.46041L9.59798 4.98979C9.67119 4.97539 9.7402 4.94462 9.79985 4.89979L13.453 2.15979L13.8399 2.54666L11.0999 6.19979Z" fill="black"/>
</g>
<defs>
<clipPath id="clip0_5_1243">
<rect width="16" height="16" fill="white"/>
</clipPath>
</defs>
</svg>
