<svg width="16" height="16" viewBox="0 0 16 16" fill="none" xmlns="http://www.w3.org/2000/svg">
<g clip-path="url(#clip0_5_754)">
<path d="M10.5001 14.0002C10.5001 14.1328 10.4474 14.2599 10.3536 14.3537C10.2599 14.4475 10.1327 14.5002 10.0001 14.5002H6.00009C5.86749 14.5002 5.74031 14.4475 5.64654 14.3537C5.55277 14.2599 5.50009 14.1328 5.50009 14.0002C5.50009 13.8675 5.55277 13.7404 5.64654 13.6466C5.74031 13.5528 5.86749 13.5002 6.00009 13.5002H10.0001C10.1327 13.5002 10.2599 13.5528 10.3536 13.6466C10.4474 13.7404 10.5001 13.8675 10.5001 14.0002ZM14.212 3.77016C13.65 2.67181 12.8062 1.74259 11.767 1.07766C11.7114 1.04219 11.6495 1.01804 11.5846 1.00661C11.5197 0.995175 11.4532 0.99668 11.3889 1.01104C11.3246 1.02539 11.2637 1.05232 11.2099 1.09026C11.156 1.12821 11.1102 1.17643 11.075 1.23214C11.0398 1.28786 11.016 1.34998 11.0049 1.41493C10.9938 1.47988 10.9957 1.54638 11.0104 1.61061C11.0251 1.67484 11.0524 1.73552 11.0906 1.78918C11.1288 1.84284 11.1773 1.88841 11.2332 1.92328C12.1248 2.49047 12.8472 3.28734 13.3245 4.23016C13.3875 4.34412 13.4926 4.42897 13.6173 4.46666C13.7419 4.50435 13.8764 4.4919 13.992 4.43196C14.1077 4.37203 14.1954 4.26934 14.2364 4.14573C14.2775 4.02213 14.2687 3.88738 14.212 3.77016ZM2.23197 4.50016C2.32357 4.50012 2.4134 4.47492 2.49166 4.4273C2.56991 4.37969 2.63358 4.31149 2.67572 4.23016C3.15297 3.28734 3.87535 2.49047 4.76697 1.92328C4.82288 1.88841 4.87134 1.84284 4.90958 1.78918C4.94781 1.73552 4.97507 1.67484 4.98977 1.61061C5.00448 1.54638 5.00634 1.47988 4.99526 1.41493C4.98418 1.34998 4.96037 1.28786 4.9252 1.23214C4.89003 1.17643 4.8442 1.12821 4.79033 1.09026C4.73647 1.05232 4.67563 1.02539 4.61133 1.01104C4.54702 0.99668 4.48051 0.995175 4.41562 1.00661C4.35073 1.01804 4.28875 1.04219 4.23322 1.07766C3.19398 1.74259 2.35017 2.67181 1.78822 3.77016C1.74874 3.84635 1.72954 3.93143 1.73247 4.0172C1.73539 4.10297 1.76035 4.18654 1.80492 4.25987C1.8495 4.33321 1.9122 4.39383 1.98699 4.43591C2.06179 4.478 2.14615 4.50012 2.23197 4.50016ZM13.0001 7.00016C13.0001 5.67407 12.4733 4.4023 11.5356 3.46462C10.5979 2.52694 9.32618 2.00016 8.00009 2.00016C6.67401 2.00016 5.40224 2.52694 4.46456 3.46462C3.52688 4.4023 3.00009 5.67407 3.00009 7.00016C3.00009 8.64266 2.70134 10.0245 2.13697 10.9964C2.04839 11.1483 2.00143 11.3209 2.00082 11.4967C2.00022 11.6726 2.04599 11.8455 2.13353 11.998C2.22107 12.1505 2.34727 12.2772 2.49941 12.3654C2.65155 12.4535 2.82425 12.5 3.00009 12.5002H13.0001C13.1758 12.4998 13.3484 12.4532 13.5003 12.3649C13.6523 12.2766 13.7783 12.1499 13.8657 11.9974C13.9531 11.845 13.9988 11.6721 13.9981 11.4964C13.9975 11.3207 13.9505 11.1482 13.862 10.9964C13.2988 10.0239 13.0001 8.64203 13.0001 7.00016Z" fill="black"/>
</g>
<defs>
<clipPath id="clip0_5_754">
<rect width="16" height="16" fill="white"/>
</clipPath>
</defs>
</svg>
