<svg width="16" height="16" viewBox="0 0 16 16" fill="none" xmlns="http://www.w3.org/2000/svg">
<g clip-path="url(#clip0_5_1215)">
<path d="M13.8651 12.0001C13.8558 12.016 13.8429 12.0295 13.8274 12.0394C13.8118 12.0494 13.7942 12.0554 13.7758 12.0571C13.7575 12.0589 13.739 12.0562 13.7219 12.0493C13.7048 12.0424 13.6896 12.0315 13.6776 12.0176L5.20444 2.69947C5.18062 2.67262 5.16286 2.64095 5.15237 2.60662C5.14188 2.57229 5.13891 2.53611 5.14365 2.50053C5.1484 2.46495 5.16075 2.43081 5.17986 2.40043C5.19898 2.37005 5.22441 2.34414 5.25444 2.32447C6.08958 1.77211 7.07203 1.48478 8.07319 1.50009C10.8126 1.54134 12.9876 3.81884 13.0001 6.55759C13.0088 8.73759 13.5194 10.4038 13.8638 10.9951C13.9534 11.1474 14.0007 11.3208 14.0009 11.4974C14.0012 11.6741 13.9543 11.8476 13.8651 12.0001ZM10.0001 13.5001H6.01381C5.88518 13.4991 5.7609 13.5466 5.6657 13.6331C5.5705 13.7196 5.51137 13.8388 5.50006 13.967C5.49552 14.0354 5.50509 14.104 5.52818 14.1685C5.55126 14.233 5.58737 14.2921 5.63426 14.3421C5.68115 14.3921 5.73782 14.432 5.80075 14.4591C5.86368 14.4863 5.93152 14.5002 6.00006 14.5001H9.98381C10.1129 14.5017 10.2378 14.4545 10.3335 14.3679C10.4292 14.2813 10.4887 14.1618 10.5001 14.0332C10.5046 13.9648 10.495 13.8962 10.4719 13.8317C10.4489 13.7671 10.4128 13.708 10.3659 13.6581C10.319 13.6081 10.2623 13.5682 10.1994 13.5411C10.1364 13.5139 10.0686 13.4999 10.0001 13.5001ZM3.36506 2.16384C3.32115 2.11435 3.26786 2.07406 3.20826 2.04531C3.14867 2.01657 3.08396 1.99993 3.01789 1.99638C2.95182 1.99282 2.8857 2.00242 2.82337 2.02461C2.76103 2.04679 2.70372 2.08113 2.65476 2.12563C2.60579 2.17013 2.56614 2.2239 2.53811 2.28384C2.51008 2.34377 2.49423 2.40868 2.49147 2.47478C2.4887 2.54089 2.49909 2.60689 2.52202 2.66895C2.54496 2.73102 2.57998 2.78791 2.62506 2.83634L3.67444 3.99072C3.22929 4.75203 2.995 5.61819 2.99569 6.50009C2.99569 8.69322 2.48631 10.3751 2.13944 10.9832C2.04717 11.1416 1.99903 11.3219 2.00001 11.5052C2.001 11.6886 2.05109 11.8683 2.14506 12.0257C2.23355 12.1715 2.35832 12.2918 2.50719 12.3749C2.65605 12.4581 2.82393 12.5012 2.99444 12.5001H11.4138L12.6294 13.8363C12.7186 13.9346 12.8432 13.9933 12.9757 13.9997C13.1082 14.0061 13.2378 13.9596 13.336 13.8704C13.4342 13.7812 13.493 13.6567 13.4994 13.5242C13.5058 13.3917 13.4592 13.2621 13.3701 13.1638L3.36506 2.16384Z" fill="black"/>
</g>
<defs>
<clipPath id="clip0_5_1215">
<rect width="16" height="16" fill="white"/>
</clipPath>
</defs>
</svg>
