<svg width="16" height="16" viewBox="0 0 16 16" fill="none" xmlns="http://www.w3.org/2000/svg">
<g clip-path="url(#clip0_5_1224)">
<path d="M14.0001 4.44401C13.8824 4.50496 13.7453 4.51668 13.619 4.4766C13.4926 4.43652 13.3874 4.34791 13.3263 4.23026C12.8491 3.28744 12.1267 2.49057 11.2351 1.92338C11.1795 1.88834 11.1314 1.84269 11.0935 1.78905C11.0556 1.7354 11.0286 1.67482 11.0141 1.61074C10.9996 1.54667 10.9978 1.48037 11.0089 1.41562C11.02 1.35087 11.0438 1.28895 11.0788 1.23338C11.1139 1.17782 11.1595 1.1297 11.2132 1.09178C11.2668 1.05385 11.3274 1.02686 11.3915 1.01236C11.4556 0.997846 11.5219 0.996099 11.5866 1.00721C11.6514 1.01833 11.7133 1.04209 11.7688 1.07713C12.808 1.74247 13.6517 2.67186 14.2138 3.77026C14.2748 3.88796 14.2865 4.02504 14.2464 4.15138C14.2064 4.27772 14.1177 4.38297 14.0001 4.44401ZM2.23197 4.50026C2.32357 4.50022 2.4134 4.47502 2.49166 4.4274C2.56991 4.37979 2.63358 4.31159 2.67572 4.23026C3.15297 3.28744 3.87535 2.49057 4.76697 1.92338C4.87919 1.8526 4.95869 1.74014 4.988 1.61074C5.0173 1.48134 4.994 1.3456 4.92322 1.23338C4.85244 1.12116 4.73998 1.04166 4.61058 1.01236C4.48118 0.983053 4.34544 1.00635 4.23322 1.07713C3.1941 1.74247 2.35033 2.67186 1.78822 3.77026C1.74874 3.84646 1.72954 3.93154 1.73247 4.0173C1.73539 4.10307 1.76035 4.18664 1.80492 4.25998C1.8495 4.33331 1.9122 4.39393 1.98699 4.43602C2.06179 4.4781 2.14615 4.50022 2.23197 4.50026ZM13.8632 10.9965C13.9518 11.1484 13.9988 11.321 13.9994 11.4968C14 11.6727 13.9542 11.8456 13.8667 11.9981C13.7791 12.1506 13.6529 12.2773 13.5008 12.3655C13.3486 12.4536 13.1759 12.5001 13.0001 12.5003H10.4501C10.3353 13.0654 10.0287 13.5735 9.58222 13.9384C9.13572 14.3034 8.57677 14.5028 8.00009 14.5028C7.42342 14.5028 6.86447 14.3034 6.41796 13.9384C5.97146 13.5735 5.66485 13.0654 5.55009 12.5003H3.00009C2.82436 12.4999 2.65181 12.4533 2.49985 12.365C2.34788 12.2767 2.22186 12.15 2.13447 11.9975C2.04708 11.8451 2.00142 11.6722 2.00207 11.4965C2.00273 11.3208 2.04969 11.1483 2.13822 10.9965C2.70134 10.0246 3.00009 8.64276 3.00009 7.00026C3.00009 5.67418 3.52688 4.40241 4.46456 3.46472C5.40224 2.52704 6.67401 2.00026 8.00009 2.00026C9.32618 2.00026 10.5979 2.52704 11.5356 3.46472C12.4733 4.40241 13.0001 5.67418 13.0001 7.00026C13.0001 8.64213 13.2988 10.024 13.8632 10.9965ZM9.41384 12.5003H6.58634C6.68993 12.7924 6.88147 13.0453 7.13463 13.2241C7.38779 13.4029 7.69014 13.4989 8.00009 13.4989C8.31005 13.4989 8.61239 13.4029 8.86555 13.2241C9.11871 13.0453 9.31025 12.7924 9.41384 12.5003Z" fill="black"/>
</g>
<defs>
<clipPath id="clip0_5_1224">
<rect width="16" height="16" fill="white"/>
</clipPath>
</defs>
</svg>
