<svg width="16" height="16" viewBox="0 0 16 16" fill="none" xmlns="http://www.w3.org/2000/svg">
<g clip-path="url(#clip0_5_1632)">
<path d="M13.8651 12.0001C13.8558 12.016 13.8429 12.0295 13.8274 12.0394C13.8118 12.0494 13.7942 12.0554 13.7758 12.0571C13.7575 12.0589 13.739 12.0562 13.7219 12.0493C13.7048 12.0424 13.6896 12.0315 13.6776 12.0176L5.20444 2.69947C5.18062 2.67262 5.16286 2.64095 5.15237 2.60662C5.14188 2.57229 5.13891 2.53611 5.14365 2.50053C5.1484 2.46495 5.16075 2.43081 5.17986 2.40043C5.19898 2.37005 5.22441 2.34414 5.25444 2.32447C6.08958 1.77211 7.07203 1.48478 8.07319 1.50009C10.8126 1.54134 12.9876 3.81884 13.0001 6.55759C13.0088 8.73759 13.5194 10.4038 13.8638 10.9951C13.9534 11.1474 14.0007 11.3208 14.0009 11.4974C14.0012 11.6741 13.9543 11.8476 13.8651 12.0001ZM13.3701 13.1638C13.4592 13.2621 13.5058 13.3917 13.4994 13.5242C13.493 13.6567 13.4342 13.7812 13.336 13.8704C13.2378 13.9596 13.1082 14.0061 12.9757 13.9997C12.8432 13.9933 12.7186 13.9346 12.6294 13.8363L11.4138 12.5001H10.4476C10.3331 13.0656 10.0266 13.5741 9.57999 13.9393C9.13339 14.3046 8.5742 14.5041 7.99725 14.5041C7.4203 14.5041 6.86111 14.3046 6.41451 13.9393C5.96791 13.5741 5.66139 13.0656 5.54694 12.5001H2.99444C2.82393 12.5012 2.65605 12.4581 2.50719 12.3749C2.35832 12.2918 2.23355 12.1715 2.14506 12.0257C2.05109 11.8683 2.001 11.6886 2.00001 11.5052C1.99903 11.3219 2.04717 11.1416 2.13944 10.9832C2.48631 10.3751 2.99569 8.69322 2.99569 6.50009C2.995 5.61819 3.22929 4.75203 3.67444 3.99072L2.62506 2.83634C2.57998 2.78791 2.54496 2.73102 2.52202 2.66895C2.49909 2.60689 2.4887 2.54089 2.49147 2.47478C2.49423 2.40868 2.51008 2.34377 2.53811 2.28384C2.56614 2.2239 2.60579 2.17013 2.65476 2.12563C2.70372 2.08113 2.76103 2.04679 2.82337 2.02461C2.8857 2.00242 2.95182 1.99282 3.01789 1.99638C3.08396 1.99993 3.14867 2.01657 3.20826 2.04531C3.26786 2.07406 3.32115 2.11435 3.36506 2.16384L13.3701 13.1638ZM9.41194 12.5001H6.58256C6.68576 12.7929 6.87726 13.0464 7.13064 13.2258C7.38403 13.4051 7.68681 13.5014 7.99725 13.5014C8.30768 13.5014 8.61047 13.4051 8.86386 13.2258C9.11724 13.0464 9.30874 12.7929 9.41194 12.5001Z" fill="black"/>
</g>
<defs>
<clipPath id="clip0_5_1632">
<rect width="16" height="16" fill="white"/>
</clipPath>
</defs>
</svg>
