<svg width="16" height="16" viewBox="0 0 16 16" fill="none" xmlns="http://www.w3.org/2000/svg">
<g clip-path="url(#clip0_5_1639)">
<path d="M14.8262 9.49399V9.48775C14.8251 9.48305 14.8237 9.47845 14.8218 9.474C14.7804 9.3608 14.7321 9.25019 14.6775 9.14275L12.0793 3.23774C12.0543 3.18087 12.0189 3.12915 11.975 3.08524C11.7892 2.89948 11.5687 2.75212 11.3261 2.65158C11.0834 2.55104 10.8233 2.4993 10.5606 2.4993C10.2979 2.4993 10.0378 2.55104 9.79512 2.65158C9.55244 2.75212 9.33194 2.89948 9.14622 3.08524C9.05278 3.17879 9.0002 3.30553 8.99997 3.43774V5.00024H6.99997V3.43774C7.00002 3.37206 6.98713 3.30702 6.96204 3.24632C6.93694 3.18562 6.90014 3.13046 6.85372 3.08399C6.668 2.89823 6.4475 2.75087 6.20482 2.65033C5.96214 2.54979 5.70203 2.49805 5.43935 2.49805C5.17666 2.49805 4.91655 2.54979 4.67387 2.65033C4.43119 2.75087 4.21069 2.89823 4.02497 3.08399C3.98101 3.1279 3.94561 3.17962 3.9206 3.23649L1.32497 9.14275C1.2703 9.25019 1.22209 9.3608 1.1806 9.474C1.17886 9.47827 1.1774 9.48266 1.17622 9.48712C1.17622 9.48712 1.17622 9.49212 1.17622 9.49399C0.918089 10.2398 0.964271 11.0574 1.30476 11.7694C1.64525 12.4814 2.25261 13.0306 2.99522 13.2979C3.73783 13.5652 4.55586 13.5291 5.27202 13.1974C5.98819 12.8657 6.5448 12.2651 6.82122 11.5259C6.94293 11.1938 7.00431 10.8427 7.00247 10.489V6.00024H9.00247V10.4896C9.00063 10.8433 9.06201 11.1944 9.18372 11.5265C9.46014 12.2658 10.0167 12.8663 10.7329 13.198C11.4491 13.5297 12.2671 13.5658 13.0097 13.2985C13.7523 13.0312 14.3597 12.482 14.7002 11.77C15.0407 11.058 15.0869 10.2405 14.8287 9.49462L14.8262 9.49399ZM5.87935 11.1815C5.69471 11.6741 5.32339 12.0742 4.84584 12.295C4.36829 12.5158 3.82298 12.5395 3.32806 12.361C2.83314 12.1825 2.42849 11.8162 2.20177 11.3415C1.97506 10.8667 1.94454 10.3217 2.11685 9.82462L2.22997 9.56649C2.43789 9.17127 2.77211 8.85701 3.17936 8.67377C3.58662 8.49054 4.04348 8.44888 4.47716 8.55543C4.91085 8.66198 5.29639 8.91061 5.57237 9.26171C5.84834 9.6128 5.99887 10.0462 5.99997 10.4927V10.5002C5.99993 10.7335 5.95911 10.9649 5.87935 11.184V11.1815ZM12.6875 12.3796C12.3851 12.4903 12.0606 12.5263 11.7413 12.4847C11.4221 12.4431 11.1176 12.325 10.8538 12.1405C10.59 11.956 10.3746 11.7105 10.2259 11.425C10.0773 11.1394 9.99977 10.8222 9.99997 10.5002V10.4934C10.0016 10.047 10.1525 9.61402 10.4287 9.26335C10.7049 8.91268 11.0904 8.66447 11.524 8.55824C11.9575 8.45201 12.4141 8.49387 12.8211 8.67714C13.2282 8.86042 13.5622 9.17458 13.77 9.56962L13.8831 9.82775C14.0609 10.3248 14.035 10.872 13.8111 11.35C13.5871 11.8281 13.1832 12.1982 12.6875 12.3796Z" fill="black"/>
</g>
<defs>
<clipPath id="clip0_5_1639">
<rect width="16" height="16" fill="white"/>
</clipPath>
</defs>
</svg>
