<svg width="16" height="16" viewBox="0 0 16 16" fill="none" xmlns="http://www.w3.org/2000/svg">
<g clip-path="url(#clip0_5_1485)">
<path d="M14.9892 9.97356C14.9229 9.09073 14.5468 8.25973 13.9273 7.62724C13.3078 6.99474 12.4849 6.60141 11.6036 6.51668C11.5471 6.39708 11.4846 6.28047 11.4161 6.16731C11.8125 5.29508 11.8597 4.30413 11.5479 3.3982C11.2361 2.49227 10.5891 1.74022 9.73985 1.29668L9.7311 1.29168C9.70815 1.27988 9.68433 1.26985 9.65985 1.26168C9.54054 1.22217 9.41073 1.22903 9.29626 1.28091C9.18178 1.33279 9.09104 1.42588 9.04211 1.54164C8.99317 1.6574 8.98962 1.78735 9.03217 1.90561C9.07473 2.02387 9.16025 2.12176 9.27173 2.17981H9.2761C9.34985 2.22293 10.4999 2.85793 10.4999 4.24981C10.5001 4.51584 10.4579 4.78021 10.3749 5.03293C9.68769 4.52379 8.85509 4.24894 7.99985 4.24894C7.14461 4.24894 6.31202 4.52379 5.62485 5.03293C5.54178 4.78021 5.49959 4.51584 5.49985 4.24981C5.49985 2.85293 6.65798 2.21793 6.72798 2.18106C6.84369 2.1191 6.93039 2.01413 6.96939 1.88881C7.00838 1.76348 6.99653 1.62784 6.93639 1.51118C6.87625 1.39451 6.77265 1.30617 6.64795 1.26522C6.52325 1.22428 6.38744 1.234 6.26985 1.29231L6.26048 1.29731C5.41049 1.74125 4.76286 2.49395 4.45074 3.40067C4.13862 4.3074 4.18572 5.29924 4.58235 6.17231C4.5136 6.28481 4.44985 6.40106 4.39485 6.52043C3.51382 6.6057 2.69118 6.99932 2.07201 7.63187C1.45284 8.26442 1.07689 9.09528 1.01048 9.97793C1.00066 10.0791 0.997739 10.1808 1.00173 10.2823C1.01253 10.41 1.07193 10.5286 1.16766 10.6138C1.2634 10.6989 1.38817 10.744 1.51622 10.7399C1.64427 10.7357 1.76583 10.6825 1.85582 10.5913C1.94582 10.5002 1.99737 10.3779 1.99985 10.2498C1.99985 10.1648 2.00423 10.0804 2.01173 9.99981C2.05735 9.60918 2.26548 8.80731 3.17673 8.28168C3.43404 8.13255 3.716 8.03073 4.00923 7.98106C4.00298 8.07043 3.99923 8.16106 3.99923 8.25231C4.00002 9.03735 4.23147 9.80485 4.66483 10.4594C5.09819 11.114 5.71434 11.6269 6.43673 11.9342C6.23298 12.2099 5.97445 12.4406 5.67735 12.6117C4.48548 13.2992 3.37235 12.6342 3.27798 12.5754L3.27048 12.5704C3.15926 12.5002 3.02486 12.4766 2.89638 12.5048C2.7679 12.533 2.6557 12.6107 2.58409 12.721C2.51248 12.8313 2.48723 12.9654 2.51381 13.0942C2.5404 13.2231 2.61667 13.3362 2.7261 13.4092L2.7411 13.4186C3.15765 13.683 3.62233 13.8626 4.10846 13.9469C4.59459 14.0313 5.09259 14.0188 5.57389 13.9102C6.05519 13.8017 6.5103 13.5991 6.9131 13.3141C7.3159 13.0292 7.65845 12.6675 7.9211 12.2498C7.94735 12.2498 7.97298 12.2498 7.99923 12.2498C8.02548 12.2498 8.05173 12.2498 8.0786 12.2498C8.34159 12.6672 8.68435 13.0286 9.08724 13.3133C9.49014 13.598 9.94525 13.8004 10.4265 13.9089C10.9078 14.0174 11.4057 14.0299 11.8918 13.9457C12.3779 13.8614 12.8426 13.6821 13.2592 13.4179L13.2736 13.4086C13.383 13.3356 13.4593 13.2224 13.4859 13.0936C13.5125 12.9648 13.4872 12.8307 13.4156 12.7204C13.344 12.61 13.2318 12.5324 13.1033 12.5042C12.9748 12.476 12.8404 12.4996 12.7292 12.5698L12.7217 12.5748C12.6274 12.6336 11.5142 13.2992 10.3224 12.6111C10.0248 12.4393 9.76606 12.2077 9.56235 11.9311C10.2846 11.6238 10.9007 11.111 11.3341 10.4566C11.7674 9.80211 11.9989 9.03474 11.9999 8.24981C11.9999 8.15856 11.9955 8.06856 11.9899 7.97918C12.2833 8.0286 12.5654 8.13021 12.823 8.27918C13.7274 8.80106 13.9392 9.59543 13.9874 9.98668C13.9955 10.0736 13.9999 10.1611 13.9999 10.2498C13.998 10.3155 14.009 10.3809 14.0324 10.4422C14.0558 10.5036 14.091 10.5598 14.1361 10.6076C14.1812 10.6553 14.2353 10.6938 14.2952 10.7206C14.3552 10.7475 14.4198 10.7623 14.4855 10.7642C14.5511 10.7661 14.6165 10.755 14.6779 10.7316C14.7393 10.7082 14.7955 10.673 14.8432 10.6279C14.891 10.5828 14.9294 10.5287 14.9563 10.4688C14.9832 10.4089 14.998 10.3442 14.9999 10.2786C15.0032 10.1768 14.9997 10.0749 14.9892 9.97356ZM6.85798 11.0236C6.3087 10.7968 5.839 10.4122 5.50827 9.91848C5.17753 9.42476 5.0006 8.84407 4.99985 8.24981C4.99985 8.17043 5.00423 8.09168 5.01048 8.01356L5.07298 8.02918C5.70158 8.19791 6.2396 8.60512 6.57269 9.16428C6.90578 9.72344 7.00768 10.3905 6.85673 11.0236H6.85798ZM7.99985 8.38168L7.99298 8.36981H8.00673L7.99985 8.38168ZM7.99985 6.74981C7.64609 6.74996 7.29635 6.67486 6.97383 6.5295C6.65132 6.38413 6.36341 6.17183 6.12923 5.90668C6.65974 5.48147 7.31933 5.24975 7.99923 5.24975C8.67912 5.24975 9.33871 5.48147 9.86923 5.90668C9.63526 6.17177 9.34757 6.38404 9.02526 6.52941C8.70296 6.67477 8.35342 6.7499 7.99985 6.74981ZM9.14297 11.0229C9.06642 10.7041 9.05348 10.3734 9.1049 10.0496C9.15632 9.72577 9.27108 9.41529 9.44262 9.13589C9.61417 8.85649 9.83912 8.61366 10.1046 8.42129C10.3701 8.22892 10.6709 8.09079 10.9899 8.01481C10.9961 8.09231 10.9999 8.17043 10.9999 8.24981C10.9991 8.84391 10.8223 9.42445 10.4916 9.91805C10.161 10.4116 9.69146 10.7961 9.14235 11.0229H9.14297Z" fill="black"/>
</g>
<defs>
<clipPath id="clip0_5_1485">
<rect width="16" height="16" fill="white"/>
</clipPath>
</defs>
</svg>
