<svg width="16" height="16" viewBox="0 0 16 16" fill="none" xmlns="http://www.w3.org/2000/svg">
<g clip-path="url(#clip0_5_1501)">
<path d="M11.4999 11.0001C11.4999 11.0777 11.4819 11.1543 11.4472 11.2237C11.4124 11.2931 11.362 11.3535 11.2999 11.4001L7.29995 14.4001C7.2134 14.465 7.10813 14.5001 6.99995 14.5001C6.90941 14.5004 6.82055 14.4757 6.74307 14.4289C6.66719 14.3814 6.60486 14.3152 6.56215 14.2366C6.51944 14.1579 6.4978 14.0696 6.49932 13.9801V9.00011L3.29745 11.4001C3.19191 11.4792 3.05939 11.5134 2.92875 11.4953C2.79811 11.4771 2.67993 11.4081 2.59995 11.3032C2.5214 11.1932 2.48917 11.0566 2.51021 10.9231C2.53125 10.7895 2.60387 10.6695 2.71245 10.5889L6.1662 8.00011L2.7112 5.41074C2.60698 5.33462 2.53536 5.22195 2.51067 5.09528C2.48599 4.96861 2.51006 4.83729 2.57807 4.72761C2.6156 4.67036 2.66448 4.62143 2.72168 4.58384C2.77889 4.54625 2.84321 4.52081 2.91065 4.50909C2.97809 4.49737 3.04722 4.49963 3.11375 4.51571C3.18029 4.5318 3.24281 4.56138 3.29745 4.60261L6.49995 7.00011V2.01511C6.49869 1.94015 6.51388 1.86583 6.54444 1.79737C6.575 1.72891 6.62018 1.66798 6.67682 1.61886C6.76336 1.54516 6.87242 1.50315 6.98603 1.49974C7.09964 1.49633 7.21103 1.53173 7.30182 1.60011L9.40307 3.17511C9.43355 3.19872 9.45815 3.22906 9.47495 3.26376C9.49176 3.29845 9.50031 3.33656 9.49995 3.37511V6.62511C9.49995 6.66392 9.49091 6.7022 9.47355 6.73692C9.4562 6.77163 9.431 6.80183 9.39995 6.82511L7.8337 8.00011L11.3024 10.6001C11.3641 10.6469 11.414 10.7075 11.4483 10.7769C11.4826 10.8463 11.5002 10.9227 11.4999 11.0001ZM14.8418 6.13324L13.7106 5.00011L14.8424 3.86824C14.9377 3.77603 14.9935 3.65055 14.9983 3.51808C15.0031 3.38561 14.9564 3.25644 14.8681 3.15761C14.8222 3.10877 14.767 3.06965 14.7057 3.04256C14.6445 3.01547 14.5784 3.00097 14.5114 2.99992C14.4444 2.99887 14.3779 3.01129 14.3158 3.03645C14.2537 3.0616 14.1973 3.09898 14.1499 3.14636L13.0031 4.29324L11.8706 3.16136C11.7837 3.07153 11.6671 3.0164 11.5425 3.00628C11.4179 2.99616 11.2939 3.03174 11.1937 3.10636C11.1375 3.14996 11.0913 3.20504 11.0581 3.26792C11.0249 3.33081 11.0054 3.40005 11.0011 3.47104C10.9968 3.54202 11.0077 3.61311 11.033 3.67955C11.0584 3.746 11.0976 3.80628 11.1481 3.85636L12.2956 5.00011L11.1612 6.13324C11.069 6.22303 11.0139 6.34425 11.007 6.47279C11 6.60133 11.0417 6.72777 11.1237 6.82699C11.1686 6.879 11.2238 6.9212 11.2857 6.95094C11.3477 6.98069 11.4151 6.99734 11.4838 6.99986C11.5525 7.00239 11.6209 6.99072 11.6849 6.9656C11.7489 6.94048 11.807 6.90244 11.8556 6.85386L13.0031 5.70699L14.1499 6.85386C14.1986 6.90254 14.2567 6.94067 14.3207 6.96585C14.3848 6.99103 14.4533 7.00272 14.5221 7.0002C14.5908 6.99768 14.6583 6.98099 14.7203 6.95119C14.7823 6.92138 14.8375 6.8791 14.8824 6.82699C14.9642 6.72764 15.0057 6.60118 14.9987 6.47268C14.9916 6.34418 14.9365 6.22303 14.8443 6.13324H14.8418Z" fill="black"/>
</g>
<defs>
<clipPath id="clip0_5_1501">
<rect width="16" height="16" fill="white"/>
</clipPath>
</defs>
</svg>
