<svg width="16" height="16" viewBox="0 0 16 16" fill="none" xmlns="http://www.w3.org/2000/svg">
<g clip-path="url(#clip0_5_1493)">
<path d="M13.8361 13.8699C13.738 13.9591 13.6085 14.0056 13.476 13.9993C13.3436 13.993 13.2191 13.9343 13.1299 13.8362L11.4768 12.0174L8.29988 14.3999C8.22059 14.4593 8.12545 14.4938 8.02653 14.499C7.9276 14.5043 7.82936 14.48 7.74425 14.4293C7.66821 14.382 7.60573 14.3158 7.5629 14.2371C7.52007 14.1585 7.49835 14.0701 7.49988 13.9805V8.99992L4.29988 11.3999C4.19434 11.479 4.06182 11.5132 3.93118 11.4951C3.80054 11.477 3.68235 11.4079 3.60238 11.303C3.52389 11.1929 3.49177 11.0563 3.51292 10.9227C3.53408 10.7891 3.60682 10.6692 3.7155 10.5887L7.55737 7.70679L3.12988 2.83617C3.04256 2.73775 2.99756 2.60887 3.00463 2.47749C3.0117 2.34611 3.07026 2.22281 3.16763 2.13433C3.265 2.04584 3.39332 1.9993 3.52478 2.00479C3.65623 2.01028 3.78023 2.06737 3.86987 2.16367L13.8699 13.1637C13.959 13.2618 14.0056 13.3913 13.9993 13.5238C13.9929 13.6562 13.9342 13.7807 13.8361 13.8699ZM9.68738 7.07617C9.72923 7.12222 9.78676 7.15101 9.84871 7.15691C9.91066 7.1628 9.97259 7.14538 10.0224 7.10804L12.2999 5.39992C12.362 5.35334 12.4124 5.29295 12.4471 5.22352C12.4818 5.1541 12.4999 5.07754 12.4999 4.99992C12.4999 4.9223 12.4818 4.84574 12.4471 4.77631C12.4124 4.70688 12.362 4.64649 12.2999 4.59992L8.29988 1.59992C8.20915 1.53145 8.09781 1.49594 7.98419 1.49923C7.87058 1.50253 7.76148 1.54443 7.67488 1.61804C7.61863 1.66751 7.57384 1.72864 7.54361 1.79718C7.51339 1.86572 7.49847 1.94002 7.49988 2.01492V4.57367C7.4992 4.63551 7.52146 4.69541 7.56238 4.74179L9.68738 7.07617Z" fill="black"/>
</g>
<defs>
<clipPath id="clip0_5_1493">
<rect width="16" height="16" fill="white"/>
</clipPath>
</defs>
</svg>
