<svg width="16" height="16" viewBox="0 0 16 16" fill="none" xmlns="http://www.w3.org/2000/svg">
<g clip-path="url(#clip0_5_1544)">
<path d="M14.445 6.73224C14.0935 7.13554 13.6094 7.4 13.0801 7.47792C12.5508 7.55585 12.011 7.44212 11.5582 7.15724C11.5562 7.15647 11.5539 7.15647 11.5519 7.15724L7.15504 11.5547C7.15504 11.5547 7.15504 11.5547 7.15504 11.5597C7.33319 11.8467 7.44445 12.1701 7.48056 12.5059C7.51667 12.8418 7.47671 13.1814 7.36364 13.4997C7.25057 13.818 7.06729 14.1067 6.8274 14.3445C6.58751 14.5823 6.29717 14.763 5.9779 14.8732C5.65864 14.9835 5.31865 15.0204 4.98315 14.9814C4.64765 14.9423 4.32526 14.8282 4.03988 14.6475C3.7545 14.4668 3.51346 14.2242 3.33464 13.9377C3.15582 13.6511 3.04381 13.328 3.00692 12.9922C2.67117 12.9553 2.34804 12.8433 2.0615 12.6645C1.77495 12.4857 1.53234 12.2447 1.35166 11.9593C1.17098 11.6739 1.05687 11.3515 1.01779 11.016C0.978718 10.6805 1.01568 10.3405 1.12593 10.0213C1.23618 9.70199 1.4169 9.41165 1.65468 9.17176C1.89246 8.93187 2.1812 8.74859 2.49948 8.63552C2.81775 8.52245 3.1574 8.48249 3.49323 8.5186C3.82906 8.55471 4.15245 8.66596 4.43942 8.84411C4.44143 8.84488 4.44365 8.84488 4.44567 8.84411L8.84254 4.44661C8.84254 4.44661 8.84254 4.44661 8.84254 4.44161C8.66439 4.15465 8.55314 3.83126 8.51703 3.49543C8.48092 3.1596 8.52088 2.81995 8.63395 2.50167C8.74702 2.18339 8.93029 1.89466 9.17018 1.65688C9.41007 1.4191 9.70042 1.23838 10.0197 1.12813C10.3389 1.01787 10.6789 0.980915 11.0144 1.01999C11.3499 1.05907 11.6723 1.17318 11.9577 1.35386C12.2431 1.53453 12.4841 1.77715 12.6629 2.06369C12.8418 2.35024 12.9538 2.67337 12.9907 3.00911C13.401 3.05231 13.7916 3.20753 14.1197 3.45779C14.4478 3.70805 14.7008 4.04372 14.8509 4.42807C15.001 4.81243 15.0426 5.23067 14.971 5.63706C14.8994 6.04344 14.7175 6.42232 14.445 6.73224Z" fill="black"/>
</g>
<defs>
<clipPath id="clip0_5_1544">
<rect width="16" height="16" fill="white"/>
</clipPath>
</defs>
</svg>
