<svg width="16" height="16" viewBox="0 0 16 16" fill="none" xmlns="http://www.w3.org/2000/svg">
<g clip-path="url(#clip0_5_1170)">
<path d="M12 7.00008H7.01691C6.88788 7.00182 6.76297 6.95464 6.66731 6.86802C6.57165 6.78141 6.51233 6.66178 6.50129 6.53321C6.49675 6.46492 6.50629 6.39643 6.5293 6.33197C6.55231 6.26752 6.5883 6.20848 6.63506 6.1585C6.68182 6.10852 6.73833 6.06867 6.80111 6.04142C6.86389 6.01417 6.9316 6.0001 7.00004 6.00008H9.75004C9.81634 6.00008 9.87993 5.97374 9.92682 5.92686C9.9737 5.87998 10 5.81639 10 5.75008V5.25008C10 5.18378 9.9737 5.12019 9.92682 5.07331C9.87993 5.02642 9.81634 5.00008 9.75004 5.00008H7.01691C6.88766 5.00214 6.76244 4.9551 6.66652 4.86845C6.57059 4.78181 6.5111 4.662 6.50004 4.53321C6.4955 4.46482 6.50507 4.39622 6.52815 4.33168C6.55124 4.26714 6.58735 4.20804 6.63424 4.15804C6.68113 4.10804 6.7378 4.06822 6.80072 4.04105C6.86365 4.01388 6.93149 3.99993 7.00004 4.00008H9.75004C9.81634 4.00008 9.87993 3.97374 9.92682 3.92686C9.9737 3.87998 10 3.81639 10 3.75008V3.50008C10 3.23487 9.89468 2.98051 9.70714 2.79298C9.51961 2.60544 9.26525 2.50008 9.00004 2.50008H2.01379C1.89951 2.49802 1.78779 2.53409 1.69629 2.60258C1.61054 2.66815 1.54831 2.75972 1.5189 2.86358C1.4895 2.96745 1.4945 3.07804 1.53316 3.17883C2.22441 4.98133 2.08066 8.41071 1.51941 10.362C1.50653 10.4069 1.50001 10.4534 1.50004 10.5001V12.5001C1.50004 12.7653 1.60539 13.0197 1.79293 13.2072C1.98047 13.3947 2.23482 13.5001 2.50004 13.5001H4.13191C4.28726 13.5001 4.44047 13.4639 4.57941 13.3945L5.36816 13.0001H6.38191L7.17066 13.3945C7.3096 13.4639 7.46282 13.5001 7.61816 13.5001H9.38191C9.53726 13.5001 9.69048 13.4639 9.82941 13.3945L10.6182 13.0001H11.6319L12.4207 13.3945C12.5596 13.4639 12.7128 13.5001 12.8682 13.5001H14.5C14.7653 13.5001 15.0196 13.3947 15.2071 13.2072C15.3947 13.0197 15.5 12.7653 15.5 12.5001V10.5001C15.5 9.57183 15.1313 8.68159 14.4749 8.02521C13.8185 7.36883 12.9283 7.00008 12 7.00008ZM14.5 12.5001H12.8682L12.0794 12.1057C11.9405 12.0362 11.7873 12.0001 11.6319 12.0001H10.6182C10.4628 12.0001 10.3096 12.0362 10.1707 12.1057L9.38191 12.5001H7.61816L6.82941 12.1057C6.69047 12.0362 6.53726 12.0001 6.38191 12.0001H5.36816C5.21282 12.0001 5.0596 12.0362 4.92066 12.1057L4.13191 12.5001H2.50004V11.0001H14.5V12.5001Z" fill="black"/>
</g>
<defs>
<clipPath id="clip0_5_1170">
<rect width="16" height="16" fill="white"/>
</clipPath>
</defs>
</svg>
