<svg width="16" height="16" viewBox="0 0 16 16" fill="none" xmlns="http://www.w3.org/2000/svg">
<g clip-path="url(#clip0_5_1698)">
<path d="M14 6.50008H13.4769C13.3512 5.13438 12.7199 3.86488 11.7067 2.94059C10.6935 2.0163 9.37147 1.50391 8 1.50391C6.62853 1.50391 5.30654 2.0163 4.29332 2.94059C3.2801 3.86488 2.64876 5.13438 2.52312 6.50008H2C1.86739 6.50008 1.74021 6.55276 1.64645 6.64653C1.55268 6.7403 1.5 6.86747 1.5 7.00008C1.5022 8.18916 1.82943 9.355 2.44632 10.3715C3.06321 11.3881 3.94627 12.2166 5 12.7676V13.0001C5 13.2653 5.10536 13.5197 5.29289 13.7072C5.48043 13.8947 5.73478 14.0001 6 14.0001H10C10.2652 14.0001 10.5196 13.8947 10.7071 13.7072C10.8946 13.5197 11 13.2653 11 13.0001V12.7676C12.0537 12.2166 12.9368 11.3881 13.5537 10.3715C14.1706 9.355 14.4978 8.18916 14.5 7.00008C14.5 6.86747 14.4473 6.7403 14.3536 6.64653C14.2598 6.55276 14.1326 6.50008 14 6.50008ZM10.8425 3.51446C10.9571 3.60821 11.0669 3.70716 11.1719 3.81133C9.84085 4.27955 8.74094 5.24183 8.1 6.49883H6.25625C6.56875 5.62285 7.14409 4.86471 7.90364 4.32798C8.6632 3.79126 9.56995 3.50212 10.5 3.50008C10.6144 3.50008 10.7287 3.50571 10.8425 3.51446ZM9.2575 6.50008C9.8637 5.59063 10.7808 4.93353 11.8369 4.65196C12.1822 5.21361 12.3988 5.84476 12.4712 6.50008H9.2575ZM8 2.50008C8.40123 2.50035 8.80062 2.55437 9.1875 2.66071C8.24527 2.89444 7.3813 3.37242 6.68267 4.04647C5.98404 4.72052 5.47544 5.56682 5.20813 6.50008H3.52875C3.65278 5.40062 4.17708 4.38525 5.00169 3.64754C5.82631 2.90984 6.89357 2.5014 8 2.50008Z" fill="black"/>
</g>
<defs>
<clipPath id="clip0_5_1698">
<rect width="16" height="16" fill="white"/>
</clipPath>
</defs>
</svg>
