<svg width="16" height="16" viewBox="0 0 16 16" fill="none" xmlns="http://www.w3.org/2000/svg">
<g clip-path="url(#clip0_5_1148)">
<path d="M10.5002 8.00025C10.5002 8.4947 10.3535 8.97805 10.0788 9.38918C9.80413 9.8003 9.41368 10.1207 8.95686 10.31C8.50005 10.4992 7.99738 10.5487 7.51243 10.4522C7.02748 10.3558 6.58202 10.1176 6.23239 9.76802C5.88276 9.41839 5.64466 8.97293 5.54819 8.48798C5.45173 8.00303 5.50124 7.50036 5.69046 7.04354C5.87968 6.58673 6.20011 6.19628 6.61123 5.92158C7.02235 5.64687 7.5057 5.50025 8.00016 5.50025C8.6632 5.50025 9.29908 5.76364 9.76792 6.23248C10.2368 6.70133 10.5002 7.33721 10.5002 8.00025ZM13.0002 8.00025C13.0017 6.77017 12.5482 5.58298 11.727 4.66713C11.6836 4.61701 11.6306 4.57603 11.5712 4.54659C11.5117 4.51715 11.447 4.49983 11.3808 4.49564C11.3146 4.49145 11.2483 4.50047 11.1856 4.52218C11.1229 4.54389 11.0652 4.57786 11.0157 4.62209C10.9663 4.66633 10.9262 4.71996 10.8977 4.77986C10.8692 4.83976 10.8529 4.90473 10.8498 4.97099C10.8467 5.03724 10.8567 5.10346 10.8794 5.16578C10.9021 5.22811 10.937 5.28529 10.982 5.334C11.6379 6.06735 12.0005 7.0167 12.0005 8.00056C12.0005 8.98443 11.6379 9.93378 10.982 10.6671C10.8961 10.7663 10.8525 10.8953 10.8608 11.0262C10.8691 11.1572 10.9286 11.2797 11.0264 11.3672C11.1241 11.4547 11.2524 11.5003 11.3835 11.4941C11.5146 11.4879 11.638 11.4304 11.727 11.334C12.5481 10.4178 13.0015 9.2305 13.0002 8.00025ZM5.01828 5.334C5.0633 5.28529 5.09818 5.22811 5.12088 5.16578C5.14358 5.10346 5.15366 5.03724 5.15052 4.97099C5.14738 4.90473 5.13109 4.83976 5.1026 4.77986C5.07411 4.71996 5.03398 4.66633 4.98456 4.62209C4.93514 4.57786 4.87741 4.54389 4.81473 4.52218C4.75206 4.50047 4.68569 4.49145 4.61949 4.49564C4.55329 4.49983 4.48859 4.51715 4.42915 4.54659C4.36971 4.57603 4.31673 4.61701 4.27328 4.66713C3.45253 5.58347 2.99868 6.77039 2.99868 8.00056C2.99868 9.23073 3.45253 10.4177 4.27328 11.334C4.36235 11.4304 4.48574 11.4879 4.61682 11.4941C4.74791 11.5003 4.87618 11.4547 4.97396 11.3672C5.07174 11.2797 5.13119 11.1572 5.13948 11.0262C5.14777 10.8953 5.10424 10.7663 5.01828 10.6671C4.36176 9.93409 3.99873 8.98462 3.99873 8.00056C3.99873 7.01651 4.36176 6.06704 5.01828 5.334ZM14.9108 5.084C14.5449 4.21496 14.0176 3.42309 13.357 2.75025C13.3115 2.70157 13.2567 2.66248 13.1958 2.63529C13.135 2.6081 13.0693 2.59335 13.0026 2.59191C12.936 2.59048 12.8697 2.60238 12.8078 2.62692C12.7458 2.65146 12.6894 2.68815 12.6418 2.73482C12.5942 2.7815 12.5564 2.83721 12.5307 2.8987C12.5049 2.96019 12.4917 3.0262 12.4919 3.09286C12.492 3.15951 12.5055 3.22547 12.5315 3.28685C12.5575 3.34822 12.5955 3.40378 12.6433 3.45025C13.835 4.6644 14.5026 6.29773 14.5026 7.999C14.5026 9.70027 13.835 11.3336 12.6433 12.5478C12.5972 12.5946 12.5607 12.6501 12.536 12.7111C12.5113 12.772 12.4989 12.8372 12.4994 12.903C12.5 12.9687 12.5134 13.0337 12.5391 13.0943C12.5647 13.1548 12.602 13.2098 12.6489 13.2559C12.6958 13.302 12.7513 13.3384 12.8122 13.3631C12.8732 13.3878 12.9384 13.4002 13.0041 13.3997C13.0699 13.3992 13.1349 13.3857 13.1954 13.3601C13.256 13.3344 13.3109 13.2971 13.357 13.2503C14.3922 12.1932 15.0919 10.8538 15.3683 9.40034C15.6448 7.94689 15.4856 6.44416 14.9108 5.08088V5.084ZM2.01078 10.5303C1.51118 9.34925 1.37243 8.04677 1.61201 6.78702C1.85159 5.52727 2.45878 4.36666 3.35703 3.4515C3.45002 3.35685 3.50161 3.22914 3.50043 3.09646C3.49926 2.96377 3.44543 2.83699 3.35078 2.744C3.25613 2.65101 3.12842 2.59943 2.99574 2.6006C2.86305 2.60177 2.73627 2.6556 2.64328 2.75025C1.26715 4.15121 0.496094 6.03647 0.496094 8.00025C0.496094 9.96403 1.26715 11.8493 2.64328 13.2503C2.68881 13.2989 2.74362 13.338 2.80448 13.3652C2.86534 13.3924 2.93102 13.4072 2.99766 13.4086C3.06431 13.41 3.13056 13.3981 3.19254 13.3736C3.25451 13.349 3.31096 13.3124 3.35855 13.2657C3.40614 13.219 3.44391 13.1633 3.46966 13.1018C3.4954 13.0403 3.50859 12.9743 3.50845 12.9076C3.50831 12.841 3.49484 12.775 3.46883 12.7137C3.44283 12.6523 3.40482 12.5967 3.35703 12.5503C2.78496 11.9678 2.32818 11.2824 2.01078 10.5303Z" fill="black"/>
</g>
<defs>
<clipPath id="clip0_5_1148">
<rect width="16" height="16" fill="white"/>
</clipPath>
</defs>
</svg>
