<svg width="16" height="16" viewBox="0 0 16 16" fill="none" xmlns="http://www.w3.org/2000/svg">
<g clip-path="url(#clip0_5_1297)">
<path d="M14.7056 13.5439C13.3038 12.8558 12.5 11.3827 12.5 9.50019V8.41831C12.5005 8.21795 12.4406 8.02208 12.3281 7.85629C12.2156 7.69049 12.0558 7.56247 11.8694 7.48894L10.0788 6.77269C9.95608 6.72358 9.85783 6.62791 9.80548 6.50658C9.75313 6.38525 9.75094 6.24813 9.79939 6.12519L11.1944 2.58331C11.5 1.79956 11.125 0.888312 10.3338 0.594562C9.96544 0.457588 9.55808 0.470621 9.19927 0.630859C8.84045 0.791097 8.55885 1.08574 8.41501 1.45144L7.01564 5.00519C6.99152 5.06647 6.95552 5.12239 6.90973 5.16973C6.86393 5.21707 6.80923 5.25489 6.74877 5.28102C6.68832 5.30716 6.62329 5.32109 6.55743 5.32202C6.49158 5.32295 6.42618 5.31085 6.36501 5.28644L4.56939 4.56769C4.3861 4.49349 4.18486 4.47563 3.99137 4.51638C3.79788 4.55712 3.62094 4.65463 3.48314 4.79644C2.16751 6.15019 1.50001 7.73206 1.50001 9.50019C1.49657 11.3066 2.19457 13.0439 3.44689 14.3458C3.4942 14.395 3.55101 14.434 3.61386 14.4605C3.67671 14.4871 3.74429 14.5006 3.81251 14.5002H14.5C14.6275 14.5004 14.7502 14.452 14.8432 14.3647C14.9361 14.2775 14.9922 14.158 15 14.0308C15.0044 13.9297 14.9789 13.8295 14.9265 13.7428C14.8741 13.6562 14.7973 13.587 14.7056 13.5439ZM7.19439 13.5002C6.45468 12.7905 5.9293 11.8872 5.67814 10.8933C5.64784 10.7681 5.57157 10.6589 5.46447 10.5873C5.35736 10.5158 5.22727 10.4871 5.10001 10.5071C5.03224 10.5193 4.96772 10.5454 4.91051 10.5837C4.85329 10.6221 4.80462 10.6718 4.76753 10.7299C4.73045 10.7879 4.70575 10.853 4.69499 10.921C4.68423 10.989 4.68765 11.0585 4.70501 11.1252C4.92337 11.9862 5.31371 12.794 5.85251 13.5002H4.02751C3.04179 12.4013 2.49767 10.9764 2.50001 9.50019C2.49385 8.71777 2.65873 7.94346 2.98314 7.23144L11.5956 10.6771C11.7831 11.8058 12.255 12.7708 12.9638 13.5014L7.19439 13.5002Z" fill="black"/>
</g>
<defs>
<clipPath id="clip0_5_1297">
<rect width="16" height="16" fill="white"/>
</clipPath>
</defs>
</svg>
