<svg width="16" height="16" viewBox="0 0 16 16" fill="none" xmlns="http://www.w3.org/2000/svg">
<g clip-path="url(#clip0_5_1278)">
<path d="M11.9894 3.21729L12.8538 2.35354C12.9476 2.25972 13.0003 2.13247 13.0003 1.99979C13.0003 1.86711 12.9476 1.73986 12.8538 1.64604C12.7599 1.55222 12.6327 1.49951 12.5 1.49951C12.3673 1.49951 12.2401 1.55222 12.1463 1.64604L11.2369 2.55604C10.2972 1.86973 9.16364 1.49986 8 1.49986C6.83636 1.49986 5.70283 1.86973 4.76313 2.55604L3.85375 1.64604C3.75993 1.55222 3.63268 1.49951 3.5 1.49951C3.36732 1.49951 3.24007 1.55222 3.14625 1.64604C3.05243 1.73986 2.99972 1.86711 2.99972 1.99979C2.99972 2.13247 3.05243 2.25972 3.14625 2.35354L4.01063 3.21729C3.04005 4.23736 2.49914 5.59175 2.5 6.99979V9.49979C2.5 10.9585 3.07946 12.3574 4.11091 13.3889C5.14236 14.4203 6.54131 14.9998 8 14.9998C9.45869 14.9998 10.8576 14.4203 11.8891 13.3889C12.9205 12.3574 13.5 10.9585 13.5 9.49979V6.99979C13.5009 5.59175 12.96 4.23736 11.9894 3.21729ZM8 2.49979C9.19307 2.50111 10.3369 2.97564 11.1805 3.81927C12.0241 4.6629 12.4987 5.80672 12.5 6.99979V7.49979H3.5V6.99979C3.50132 5.80672 3.97586 4.6629 4.81948 3.81927C5.66311 2.97564 6.80693 2.50111 8 2.49979ZM9 5.74979C9 5.60145 9.04399 5.45645 9.1264 5.33311C9.20881 5.20978 9.32594 5.11365 9.46299 5.05688C9.60003 5.00011 9.75083 4.98526 9.89632 5.0142C10.0418 5.04314 10.1754 5.11457 10.2803 5.21946C10.3852 5.32435 10.4567 5.45799 10.4856 5.60347C10.5145 5.74896 10.4997 5.89976 10.4429 6.0368C10.3861 6.17385 10.29 6.29098 10.1667 6.37339C10.0433 6.4558 9.89834 6.49979 9.75 6.49979C9.55109 6.49979 9.36032 6.42077 9.21967 6.28012C9.07902 6.13947 9 5.9487 9 5.74979ZM5.5 5.74979C5.5 5.60145 5.54399 5.45645 5.6264 5.33311C5.70881 5.20978 5.82594 5.11365 5.96299 5.05688C6.10003 5.00011 6.25083 4.98526 6.39632 5.0142C6.5418 5.04314 6.67544 5.11457 6.78033 5.21946C6.88522 5.32435 6.95665 5.45799 6.98559 5.60347C7.01453 5.74896 6.99968 5.89976 6.94291 6.0368C6.88615 6.17385 6.79002 6.29098 6.66668 6.37339C6.54334 6.4558 6.39834 6.49979 6.25 6.49979C6.05109 6.49979 5.86032 6.42077 5.71967 6.28012C5.57902 6.13947 5.5 5.9487 5.5 5.74979Z" fill="black"/>
</g>
<defs>
<clipPath id="clip0_5_1278">
<rect width="16" height="16" fill="white"/>
</clipPath>
</defs>
</svg>
