<svg width="16" height="16" viewBox="0 0 16 16" fill="none" xmlns="http://www.w3.org/2000/svg">
<g clip-path="url(#clip0_5_1139)">
<path d="M14 7.49979H13V6.49979H14C14.1326 6.49979 14.2598 6.55247 14.3536 6.64624C14.4473 6.74 14.5 6.86718 14.5 6.99979C14.5 7.1324 14.4473 7.25957 14.3536 7.35334C14.2598 7.44711 14.1326 7.49979 14 7.49979ZM2 6.49979C1.86739 6.49979 1.74021 6.55247 1.64645 6.64624C1.55268 6.74 1.5 6.86718 1.5 6.99979C1.5 7.1324 1.55268 7.25957 1.64645 7.35334C1.74021 7.44711 1.86739 7.49979 2 7.49979H3V6.49979H2ZM13 9.99979C13 10.1685 12.9913 10.3354 12.975 10.4998H14C14.1326 10.4998 14.2598 10.5525 14.3536 10.6462C14.4473 10.74 14.5 10.8672 14.5 10.9998C14.5 11.1324 14.4473 11.2596 14.3536 11.3533C14.2598 11.4471 14.1326 11.4998 14 11.4998H12.77C12.451 12.515 11.8163 13.4019 10.9584 14.0316C10.1006 14.6612 9.06416 15.0008 8 15.0008C6.93584 15.0008 5.89944 14.6612 5.04155 14.0316C4.18366 13.4019 3.54904 12.515 3.23 11.4998H2C1.86739 11.4998 1.74021 11.4471 1.64645 11.3533C1.55268 11.2596 1.5 11.1324 1.5 10.9998C1.5 10.8672 1.55268 10.74 1.64645 10.6462C1.74021 10.5525 1.86739 10.4998 2 10.4998H3.025C3.00875 10.3354 3 10.1685 3 9.99979V9.49979H2C1.86739 9.49979 1.74021 9.44711 1.64645 9.35334C1.55268 9.25958 1.5 9.1324 1.5 8.99979C1.5 8.86718 1.55268 8.74 1.64645 8.64624C1.74021 8.55247 1.86739 8.49979 2 8.49979H3V7.49979H13V8.49979H14C14.1326 8.49979 14.2598 8.55247 14.3536 8.64624C14.4473 8.74 14.5 8.86718 14.5 8.99979C14.5 9.1324 14.4473 9.25958 14.3536 9.35334C14.2598 9.44711 14.1326 9.49979 14 9.49979H13V9.99979ZM8.5 8.99979C8.5 8.86718 8.44732 8.74 8.35355 8.64624C8.25979 8.55247 8.13261 8.49979 8 8.49979C7.86739 8.49979 7.74021 8.55247 7.64645 8.64624C7.55268 8.74 7.5 8.86718 7.5 8.99979V12.9998C7.5 13.1324 7.55268 13.2596 7.64645 13.3533C7.74021 13.4471 7.86739 13.4998 8 13.4998C8.13261 13.4998 8.25979 13.4471 8.35355 13.3533C8.44732 13.2596 8.5 13.1324 8.5 12.9998V8.99979ZM4.365 3.57166C3.6067 4.37259 3.13544 5.40238 3.025 6.49979H12.975C12.8646 5.40238 12.3933 4.37259 11.635 3.57166L12.8538 2.35354C12.9476 2.25972 13.0003 2.13247 13.0003 1.99979C13.0003 1.86711 12.9476 1.73986 12.8538 1.64604C12.7599 1.55222 12.6327 1.49951 12.5 1.49951C12.3673 1.49951 12.2401 1.55222 12.1462 1.64604L10.8781 2.91479C10.0365 2.31943 9.03093 1.99972 8 1.99972C6.96907 1.99972 5.96351 2.31943 5.12187 2.91479L3.85375 1.64604C3.75993 1.55222 3.63268 1.49951 3.5 1.49951C3.36732 1.49951 3.24007 1.55222 3.14625 1.64604C3.05243 1.73986 2.99972 1.86711 2.99972 1.99979C2.99972 2.13247 3.05243 2.25972 3.14625 2.35354L4.365 3.57166Z" fill="black"/>
</g>
<defs>
<clipPath id="clip0_5_1139">
<rect width="16" height="16" fill="white"/>
</clipPath>
</defs>
</svg>
