<svg width="16" height="16" viewBox="0 0 16 16" fill="none" xmlns="http://www.w3.org/2000/svg">
<g clip-path="url(#clip0_5_1121)">
<path d="M15.4917 1.91203C15.4683 1.78161 15.394 1.66583 15.2853 1.59013C15.1765 1.51442 15.0422 1.48498 14.9117 1.50828L0.911709 4.00828C0.789067 4.03065 0.67921 4.09804 0.60368 4.19722C0.528149 4.29641 0.492395 4.42022 0.503428 4.5444C0.51446 4.66858 0.571485 4.78416 0.663318 4.86847C0.755151 4.95278 0.875168 4.99974 0.999834 5.00015C1.02957 5.00011 1.05926 4.9976 1.08858 4.99265L7.49983 3.84765V6.00015H3.99983C3.4694 6.00015 2.96069 6.21086 2.58562 6.58594C2.21055 6.96101 1.99983 7.46972 1.99983 8.00015V12.0002C1.99983 12.5306 2.21055 13.0393 2.58562 13.4144C2.96069 13.7894 3.4694 14.0002 3.99983 14.0002H11.9998C12.5303 14.0002 13.039 13.7894 13.414 13.4144C13.7891 13.0393 13.9998 12.5306 13.9998 12.0002V8.00015C13.9998 7.46972 13.7891 6.96101 13.414 6.58594C13.039 6.21086 12.5303 6.00015 11.9998 6.00015H8.49983V3.6689L15.0873 2.49265C15.152 2.48112 15.2138 2.45694 15.2692 2.42151C15.3245 2.38608 15.3723 2.34009 15.4099 2.28616C15.4474 2.23224 15.474 2.17144 15.488 2.10724C15.5021 2.04304 15.5033 1.97671 15.4917 1.91203ZM6.49983 10.0002V7.00015H9.49983V10.0002H6.49983ZM3.99983 7.00015H5.49983V10.0002H2.99983V8.00015C2.99983 7.73493 3.10519 7.48058 3.29273 7.29304C3.48026 7.10551 3.73462 7.00015 3.99983 7.00015ZM12.9998 8.00015V10.0002H10.4998V7.00015H11.9998C12.2651 7.00015 12.5194 7.10551 12.7069 7.29304C12.8945 7.48058 12.9998 7.73493 12.9998 8.00015Z" fill="black"/>
</g>
<defs>
<clipPath id="clip0_5_1121">
<rect width="16" height="16" fill="white"/>
</clipPath>
</defs>
</svg>
