<svg width="16" height="16" viewBox="0 0 16 16" fill="none" xmlns="http://www.w3.org/2000/svg">
<g clip-path="url(#clip0_5_1218)">
<path d="M14 3.00008V11.7232C14.0007 11.7743 13.9857 11.8243 13.9571 11.8666C13.9285 11.909 13.8876 11.9415 13.84 11.9599C13.7923 11.9783 13.7402 11.9816 13.6906 11.9695C13.641 11.9573 13.5963 11.9303 13.5625 11.892L7.3 5.00008H13V3.00008H11.5V3.50008C11.5001 3.56857 11.4862 3.63636 11.4591 3.69924C11.4319 3.76212 11.3922 3.81876 11.3423 3.86564C11.2923 3.91252 11.2333 3.94864 11.1688 3.97177C11.1044 3.9949 11.0358 4.00453 10.9675 4.00008C10.8387 3.98903 10.7188 3.92956 10.632 3.83365C10.5453 3.73774 10.4981 3.61251 10.5 3.48321V3.00008H5.48187L4.95312 2.41821C4.92041 2.38221 4.89891 2.33745 4.89125 2.28942C4.8836 2.24138 4.89012 2.19216 4.91002 2.14778C4.92993 2.10339 4.96234 2.06578 5.0033 2.03955C5.04426 2.01331 5.09199 1.9996 5.14062 2.00008H10.5V1.50008C10.4999 1.43159 10.5138 1.36381 10.5409 1.30092C10.5681 1.23804 10.6078 1.1814 10.6577 1.13452C10.7077 1.08764 10.7667 1.05152 10.8312 1.02839C10.8956 1.00527 10.9642 0.995629 11.0325 1.00008C11.1613 1.01113 11.2812 1.07061 11.368 1.16652C11.4547 1.26243 11.5019 1.38765 11.5 1.51696V2.00008H13C13.2652 2.00008 13.5196 2.10544 13.7071 2.29297C13.8946 2.48051 14 2.73486 14 3.00008ZM13.37 13.1638C13.4351 13.2355 13.478 13.3246 13.4935 13.4202C13.509 13.5158 13.4964 13.6138 13.4572 13.7024C13.418 13.791 13.3539 13.8662 13.2728 13.9191C13.1916 13.9719 13.0969 14.0001 13 14.0001H3C2.73478 14.0001 2.48043 13.8947 2.29289 13.7072C2.10536 13.5197 2 13.2653 2 13.0001V3.00008C2 2.73486 2.10536 2.48051 2.29289 2.29297C2.48043 2.10544 2.73478 2.00008 3 2.00008C3.06978 2 3.13881 2.01453 3.20264 2.04273C3.26647 2.07093 3.3237 2.11218 3.37063 2.16383L13.37 13.1638ZM4.59688 5.00008L3 3.24321V5.00008H4.59688Z" fill="black"/>
</g>
<defs>
<clipPath id="clip0_5_1218">
<rect width="16" height="16" fill="white"/>
</clipPath>
</defs>
</svg>
