<svg width="16" height="16" viewBox="0 0 16 16" fill="none" xmlns="http://www.w3.org/2000/svg">
<g clip-path="url(#clip0_5_1116)">
<path d="M14.5 5.00004V12C14.4999 12.0976 14.4905 12.1949 14.4719 12.2907C14.4638 12.3367 14.443 12.3796 14.4117 12.4144C14.3805 12.4493 14.3401 12.4746 14.2952 12.4876C14.2503 12.5007 14.2026 12.5008 14.1576 12.4881C14.1126 12.4754 14.0721 12.4503 14.0406 12.4157L5.375 2.88004C5.33747 2.8388 5.31481 2.78619 5.31062 2.73058C5.30643 2.67498 5.32095 2.61957 5.35187 2.57317L5.58563 2.22254C5.63115 2.15431 5.69275 2.09833 5.76502 2.05953C5.83728 2.02073 5.91798 2.0003 6 2.00004H10C10.0823 1.99999 10.1634 2.02027 10.236 2.05909C10.3086 2.0979 10.3706 2.15405 10.4163 2.22254L11.2675 3.50004H13C13.3978 3.50004 13.7794 3.65808 14.0607 3.93938C14.342 4.22069 14.5 4.60222 14.5 5.00004ZM13.37 13.1638C13.4151 13.2122 13.4501 13.2691 13.473 13.3312C13.496 13.3932 13.5064 13.4592 13.5036 13.5254C13.5008 13.5915 13.485 13.6564 13.4569 13.7163C13.4289 13.7762 13.3893 13.83 13.3403 13.8745C13.2913 13.919 13.234 13.9533 13.1717 13.9755C13.1094 13.9977 13.0432 14.0073 12.9772 14.0038C12.9111 14.0002 12.8464 13.9836 12.7868 13.9548C12.7272 13.9261 12.6739 13.8858 12.63 13.8363L12.3244 13.5H3C2.60218 13.5 2.22064 13.342 1.93934 13.0607C1.65804 12.7794 1.5 12.3979 1.5 12V5.00004C1.5 4.60222 1.65804 4.22069 1.93934 3.93938C2.22064 3.65808 2.60218 3.50004 3 3.50004H3.23312L2.63 2.83629C2.58492 2.78786 2.54989 2.73097 2.52696 2.6689C2.50403 2.60684 2.49364 2.54084 2.4964 2.47473C2.49917 2.40863 2.51502 2.34372 2.54305 2.28379C2.57108 2.22385 2.61073 2.17008 2.65969 2.12558C2.70866 2.08108 2.76597 2.04674 2.82831 2.02455C2.89064 2.00237 2.95676 1.99277 3.02283 1.99633C3.0889 1.99988 3.15361 2.01651 3.2132 2.04526C3.27279 2.07401 3.32609 2.1143 3.37 2.16379L13.37 13.1638ZM9.25 10.12L6.2575 6.82754C5.91786 7.24521 5.73922 7.77081 5.75402 8.30893C5.76881 8.84706 5.97605 9.36205 6.33813 9.76043C6.70021 10.1588 7.19311 10.4142 7.72739 10.4801C8.26166 10.5461 8.80188 10.4184 9.25 10.12Z" fill="black"/>
</g>
<defs>
<clipPath id="clip0_5_1116">
<rect width="16" height="16" fill="white"/>
</clipPath>
</defs>
</svg>
