<svg width="16" height="16" viewBox="0 0 16 16" fill="none" xmlns="http://www.w3.org/2000/svg">
<g clip-path="url(#clip0_5_1114)">
<path d="M8.26186 1.57455C8.18309 1.52613 8.09244 1.50049 7.99998 1.50049C7.90752 1.50049 7.81687 1.52613 7.7381 1.57455C7.11095 1.9821 6.53277 2.46045 6.01498 3.00018C4.8606 4.1958 4.24998 5.49393 4.24998 6.75018C4.24998 7.74474 4.64507 8.69857 5.34833 9.40183C6.05159 10.1051 7.00542 10.5002 7.99998 10.5002C8.99454 10.5002 9.94837 10.1051 10.6516 9.40183C11.3549 8.69857 11.75 7.74474 11.75 6.75018C11.75 3.75518 8.40436 1.66205 8.26186 1.57455ZM7.99998 9.50018C7.60216 9.50018 7.22062 9.34214 6.93932 9.06084C6.65802 8.77953 6.49998 8.398 6.49998 8.00018C6.49998 6.50018 7.99998 5.50018 7.99998 5.50018C7.99998 5.50018 9.49998 6.50018 9.49998 8.00018C9.49998 8.398 9.34194 8.77953 9.06064 9.06084C8.77934 9.34214 8.3978 9.50018 7.99998 9.50018ZM13.9762 14.1514C13.9563 14.214 13.9243 14.2721 13.882 14.3223C13.8396 14.3725 13.7878 14.4139 13.7295 14.444C13.6712 14.4742 13.6075 14.4926 13.542 14.4982C13.4766 14.5037 13.4107 14.4963 13.3481 14.4764L7.99998 12.7746L2.65185 14.4764C2.58927 14.4963 2.52338 14.5037 2.45795 14.4982C2.39251 14.4926 2.32881 14.4742 2.27048 14.444C2.21216 14.4138 2.16034 14.3725 2.11801 14.3223C2.07567 14.2721 2.04363 14.214 2.02373 14.1514C2.00383 14.0888 1.99644 14.023 2.00201 13.9575C2.00757 13.8921 2.02596 13.8284 2.05614 13.7701C2.08632 13.7117 2.12769 13.6599 2.17789 13.6176C2.2281 13.5752 2.28615 13.5432 2.34873 13.5233L6.34873 12.2502L2.34873 10.9764C2.28442 10.958 2.22445 10.9269 2.17239 10.8849C2.12033 10.8429 2.07722 10.7909 2.04562 10.7319C2.01402 10.6729 1.99458 10.6082 1.98844 10.5416C1.9823 10.475 1.98959 10.4079 2.00987 10.3441C2.03016 10.2804 2.06303 10.2213 2.10654 10.1705C2.15005 10.1197 2.20331 10.0781 2.26317 10.0483C2.32304 10.0184 2.38828 10.0009 2.45504 9.99671C2.52181 9.99253 2.58873 10.0018 2.65185 10.0239L7.99998 11.7252L13.3481 10.0239C13.4112 10.0018 13.4782 9.99253 13.5449 9.99671C13.6117 10.0009 13.6769 10.0184 13.7368 10.0483C13.7966 10.0781 13.8499 10.1197 13.8934 10.1705C13.9369 10.2213 13.9698 10.2804 13.9901 10.3441C14.0104 10.4079 14.0177 10.475 14.0115 10.5416C14.0054 10.6082 13.9859 10.6729 13.9543 10.7319C13.9227 10.7909 13.8796 10.8429 13.8276 10.8849C13.7755 10.9269 13.7155 10.958 13.6512 10.9764L9.65123 12.2502L13.6512 13.5233C13.7138 13.5432 13.7719 13.5752 13.8221 13.6176C13.8723 13.6599 13.9137 13.7117 13.9438 13.77C13.974 13.8284 13.9924 13.8921 13.998 13.9575C14.0035 14.023 13.9961 14.0888 13.9762 14.1514Z" fill="black"/>
</g>
<defs>
<clipPath id="clip0_5_1114">
<rect width="16" height="16" fill="white"/>
</clipPath>
</defs>
</svg>
