<svg width="16" height="16" viewBox="0 0 16 16" fill="none" xmlns="http://www.w3.org/2000/svg">
<g clip-path="url(#clip0_5_1608)">
<path d="M12.9999 8H9.20678L13.3537 3.85375C13.4237 3.78382 13.4713 3.6947 13.4907 3.59765C13.51 3.50061 13.5001 3.40002 13.4622 3.30861C13.4243 3.21719 13.3602 3.13908 13.2779 3.08414C13.1956 3.0292 13.0989 2.99992 12.9999 3H2.99991C2.90096 2.99992 2.80421 3.0292 2.72191 3.08414C2.63962 3.13908 2.57547 3.21719 2.53759 3.30861C2.49972 3.40002 2.48982 3.50061 2.50914 3.59765C2.52847 3.6947 2.57615 3.78382 2.64616 3.85375L6.79303 8H2.99991C2.90096 7.99992 2.80421 8.0292 2.72191 8.08414C2.63962 8.13908 2.57547 8.21719 2.53759 8.30861C2.49972 8.40002 2.48982 8.50061 2.50914 8.59765C2.52847 8.6947 2.57615 8.78382 2.64616 8.85375L7.64616 13.8538C7.69259 13.9002 7.74774 13.9371 7.80844 13.9623C7.86913 13.9874 7.9342 14.0004 7.99991 14.0004C8.06561 14.0004 8.13068 13.9874 8.19138 13.9623C8.25207 13.9371 8.30722 13.9002 8.35366 13.8538L13.3537 8.85375C13.4237 8.78382 13.4713 8.6947 13.4907 8.59765C13.51 8.50061 13.5001 8.40002 13.4622 8.30861C13.4243 8.21719 13.3602 8.13908 13.2779 8.08414C13.1956 8.0292 13.0989 7.99992 12.9999 8Z" fill="black"/>
</g>
<defs>
<clipPath id="clip0_5_1608">
<rect width="16" height="16" fill="white"/>
</clipPath>
</defs>
</svg>
