<svg width="16" height="16" viewBox="0 0 16 16" fill="none" xmlns="http://www.w3.org/2000/svg">
<g clip-path="url(#clip0_5_1491)">
<path d="M9.35375 7.64616C9.40024 7.69259 9.43712 7.74774 9.46228 7.80844C9.48744 7.86913 9.50039 7.9342 9.50039 7.99991C9.50039 8.06561 9.48744 8.13068 9.46228 8.19138C9.43712 8.25207 9.40024 8.30722 9.35375 8.35366L4.35375 13.3537C4.28382 13.4237 4.1947 13.4713 4.09765 13.4907C4.00061 13.51 3.90002 13.5001 3.80861 13.4622C3.71719 13.4243 3.63908 13.3602 3.58414 13.2779C3.5292 13.1956 3.49992 13.0989 3.5 12.9999V2.99991C3.49992 2.90096 3.5292 2.80421 3.58414 2.72191C3.63908 2.63962 3.71719 2.57547 3.80861 2.53759C3.90002 2.49972 4.00061 2.48982 4.09765 2.50914C4.1947 2.52847 4.28382 2.57615 4.35375 2.64616L9.35375 7.64616ZM11.5 2.49991C11.3674 2.49991 11.2402 2.55258 11.1464 2.64635C11.0527 2.74012 11 2.8673 11 2.99991V12.9999C11 13.1325 11.0527 13.2597 11.1464 13.3535C11.2402 13.4472 11.3674 13.4999 11.5 13.4999C11.6326 13.4999 11.7598 13.4472 11.8536 13.3535C11.9473 13.2597 12 13.1325 12 12.9999V2.99991C12 2.8673 11.9473 2.74012 11.8536 2.64635C11.7598 2.55258 11.6326 2.49991 11.5 2.49991Z" fill="black"/>
</g>
<defs>
<clipPath id="clip0_5_1491">
<rect width="16" height="16" fill="white"/>
</clipPath>
</defs>
</svg>
