<svg width="16" height="16" viewBox="0 0 16 16" fill="none" xmlns="http://www.w3.org/2000/svg">
<g clip-path="url(#clip0_5_1086)">
<path d="M11.4618 10.8087C11.4997 10.9 11.5096 11.0005 11.4904 11.0976C11.4711 11.1946 11.4236 11.2837 11.3537 11.3537L8.35366 14.3537C8.30722 14.4001 8.25207 14.437 8.19138 14.4622C8.13068 14.4873 8.06561 14.5003 7.99991 14.5003C7.9342 14.5003 7.86913 14.4873 7.80844 14.4622C7.74774 14.437 7.69259 14.4001 7.64616 14.3537L4.64616 11.3537C4.57615 11.2837 4.52847 11.1946 4.50914 11.0976C4.48982 11.0005 4.49972 10.8999 4.53759 10.8085C4.57547 10.7171 4.63962 10.639 4.72191 10.584C4.80421 10.5291 4.90096 10.4998 4.99991 10.4999H10.9999C11.0988 10.4999 11.1955 10.5293 11.2777 10.5842C11.3599 10.6392 11.424 10.7173 11.4618 10.8087ZM4.99991 5.49991H10.9999C11.0989 5.49998 11.1956 5.4707 11.2779 5.41577C11.3602 5.36083 11.4243 5.28271 11.4622 5.1913C11.5001 5.09989 11.51 4.99929 11.4907 4.90225C11.4713 4.80521 11.4237 4.71608 11.3537 4.64615L8.35366 1.64615C8.30722 1.59967 8.25207 1.56279 8.19138 1.53763C8.13068 1.51246 8.06561 1.49951 7.99991 1.49951C7.9342 1.49951 7.86913 1.51246 7.80844 1.53763C7.74774 1.56279 7.69259 1.59967 7.64616 1.64615L4.64616 4.64615C4.57615 4.71608 4.52847 4.80521 4.50914 4.90225C4.48982 4.99929 4.49972 5.09989 4.53759 5.1913C4.57547 5.28271 4.63962 5.36083 4.72191 5.41577C4.80421 5.4707 4.90096 5.49998 4.99991 5.49991Z" fill="black"/>
</g>
<defs>
<clipPath id="clip0_5_1086">
<rect width="16" height="16" fill="white"/>
</clipPath>
</defs>
</svg>
