<svg width="16" height="16" viewBox="0 0 16 16" fill="none" xmlns="http://www.w3.org/2000/svg">
<g clip-path="url(#clip0_5_1543)">
<path d="M12.5981 3.40108C11.6888 2.49267 10.5306 1.87424 9.2699 1.62395C8.0092 1.37366 6.70259 1.50275 5.51524 1.99491C4.32789 2.48706 3.31311 3.32019 2.59916 4.38897C1.88521 5.45775 1.50415 6.71421 1.50415 7.99951C1.50415 9.28482 1.88521 10.5413 2.59916 11.6101C3.31311 12.6788 4.32789 13.512 5.51524 14.0041C6.70259 14.4963 8.0092 14.6254 9.2699 14.3751C10.5306 14.1248 11.6888 13.5064 12.5981 12.598C13.8159 11.3774 14.4998 9.72366 14.4998 7.99951C14.4998 6.27537 13.8159 4.62162 12.5981 3.40108ZM7.3531 9.6467C7.39955 9.69316 7.43641 9.74831 7.46155 9.809C7.48669 9.8697 7.49963 9.93475 7.49963 10.0005C7.49963 10.0661 7.48669 10.1312 7.46155 10.1919C7.43641 10.2526 7.39955 10.3077 7.3531 10.3542C7.30664 10.4007 7.25149 10.4375 7.1908 10.4626C7.1301 10.4878 7.06505 10.5007 6.99935 10.5007C6.93365 10.5007 6.8686 10.4878 6.8079 10.4626C6.7472 10.4375 6.69206 10.4007 6.6456 10.3542L4.6456 8.3542C4.59911 8.30777 4.56223 8.25262 4.53707 8.19192C4.51191 8.13122 4.49896 8.06616 4.49896 8.00045C4.49896 7.93474 4.51191 7.86968 4.53707 7.80898C4.56223 7.74828 4.59911 7.69314 4.6456 7.6467L6.6456 5.6467C6.69206 5.60025 6.7472 5.5634 6.8079 5.53826C6.8686 5.51311 6.93365 5.50017 6.99935 5.50017C7.06505 5.50017 7.1301 5.51311 7.1908 5.53826C7.25149 5.5634 7.30664 5.60025 7.3531 5.6467C7.39955 5.69316 7.43641 5.74831 7.46155 5.809C7.48669 5.8697 7.49963 5.93475 7.49963 6.00045C7.49963 6.06615 7.48669 6.1312 7.46155 6.1919C7.43641 6.2526 7.39955 6.30775 7.3531 6.3542L5.7056 7.99983L7.3531 9.6467ZM10.8531 9.6467C10.8996 9.69316 10.9364 9.74831 10.9615 9.809C10.9867 9.8697 10.9996 9.93475 10.9996 10.0005C10.9996 10.0661 10.9867 10.1312 10.9615 10.1919C10.9364 10.2526 10.8996 10.3077 10.8531 10.3542C10.8066 10.4007 10.7515 10.4375 10.6908 10.4626C10.6301 10.4878 10.565 10.5007 10.4994 10.5007C10.4337 10.5007 10.3686 10.4878 10.3079 10.4626C10.2472 10.4375 10.1921 10.4007 10.1456 10.3542L8.1456 8.3542C8.09911 8.30777 8.06223 8.25262 8.03707 8.19192C8.01191 8.13122 7.99896 8.06616 7.99896 8.00045C7.99896 7.93474 8.01191 7.86968 8.03707 7.80898C8.06223 7.74828 8.09911 7.69314 8.1456 7.6467L10.1456 5.6467C10.1921 5.60025 10.2472 5.5634 10.3079 5.53826C10.3686 5.51311 10.4337 5.50017 10.4994 5.50017C10.565 5.50017 10.6301 5.51311 10.6908 5.53826C10.7515 5.5634 10.8066 5.60025 10.8531 5.6467C10.8996 5.69316 10.9364 5.74831 10.9615 5.809C10.9867 5.8697 10.9996 5.93475 10.9996 6.00045C10.9996 6.06615 10.9867 6.1312 10.9615 6.1919C10.9364 6.2526 10.8996 6.30775 10.8531 6.3542L9.20748 7.99983L10.8531 9.6467Z" fill="black"/>
</g>
<defs>
<clipPath id="clip0_5_1543">
<rect width="16" height="16" fill="white"/>
</clipPath>
</defs>
</svg>
