<svg width="16" height="16" viewBox="0 0 16 16" fill="none" xmlns="http://www.w3.org/2000/svg">
<g clip-path="url(#clip0_5_1092)">
<path d="M12.5 2.99991V12.9999C12.5001 13.0989 12.4708 13.1956 12.4159 13.2779C12.3609 13.3602 12.2828 13.4243 12.1914 13.4622C12.1 13.5001 11.9994 13.51 11.9023 13.4907C11.8053 13.4713 11.7162 13.4237 11.6462 13.3537L6.64625 8.35366C6.59976 8.30722 6.56288 8.25207 6.53772 8.19138C6.51256 8.13068 6.49961 8.06561 6.49961 7.99991C6.49961 7.9342 6.51256 7.86913 6.53772 7.80844C6.56288 7.74774 6.59976 7.69259 6.64625 7.64616L11.6462 2.64616C11.7162 2.57615 11.8053 2.52847 11.9023 2.50914C11.9994 2.48982 12.1 2.49972 12.1914 2.53759C12.2828 2.57547 12.3609 2.63962 12.4159 2.72191C12.4708 2.80421 12.5001 2.90096 12.5 2.99991ZM4.5 2.49991C4.36739 2.49991 4.24021 2.55258 4.14645 2.64635C4.05268 2.74012 4 2.8673 4 2.99991V12.9999C4 13.1325 4.05268 13.2597 4.14645 13.3535C4.24021 13.4472 4.36739 13.4999 4.5 13.4999C4.63261 13.4999 4.75979 13.4472 4.85355 13.3535C4.94732 13.2597 5 13.1325 5 12.9999V2.99991C5 2.8673 4.94732 2.74012 4.85355 2.64635C4.75979 2.55258 4.63261 2.49991 4.5 2.49991Z" fill="black"/>
</g>
<defs>
<clipPath id="clip0_5_1092">
<rect width="16" height="16" fill="white"/>
</clipPath>
</defs>
</svg>
