<svg width="16" height="16" viewBox="0 0 16 16" fill="none" xmlns="http://www.w3.org/2000/svg">
<g clip-path="url(#clip0_5_1711)">
<path d="M9.20678 7.99991H12.9999C13.0989 7.99998 13.1956 7.9707 13.2779 7.91577C13.3602 7.86083 13.4243 7.78271 13.4622 7.6913C13.5001 7.59989 13.51 7.49929 13.4907 7.40225C13.4713 7.30521 13.4237 7.21608 13.3537 7.14615L8.35366 2.14615C8.30722 2.09967 8.25207 2.06279 8.19138 2.03763C8.13068 2.01246 8.06561 1.99951 7.99991 1.99951C7.9342 1.99951 7.86913 2.01246 7.80844 2.03763C7.74774 2.06279 7.69259 2.09967 7.64616 2.14615L2.64616 7.14615C2.57615 7.21608 2.52847 7.30521 2.50914 7.40225C2.48982 7.49929 2.49972 7.59989 2.53759 7.6913C2.57547 7.78271 2.63962 7.86083 2.72191 7.91577C2.80421 7.9707 2.90096 7.99998 2.99991 7.99991H6.79303L2.64616 12.1462C2.57615 12.2161 2.52847 12.3052 2.50914 12.4023C2.48982 12.4993 2.49972 12.5999 2.53759 12.6913C2.57547 12.7827 2.63962 12.8608 2.72191 12.9158C2.80421 12.9707 2.90096 13 2.99991 12.9999H12.9999C13.0989 13 13.1956 12.9707 13.2779 12.9158C13.3602 12.8608 13.4243 12.7827 13.4622 12.6913C13.5001 12.5999 13.51 12.4993 13.4907 12.4023C13.4713 12.3052 13.4237 12.2161 13.3537 12.1462L9.20678 7.99991Z" fill="black"/>
</g>
<defs>
<clipPath id="clip0_5_1711">
<rect width="16" height="16" fill="white"/>
</clipPath>
</defs>
</svg>
