<svg width="16" height="16" viewBox="0 0 16 16" fill="none" xmlns="http://www.w3.org/2000/svg">
<g clip-path="url(#clip0_5_1349)">
<path d="M13.8538 7.64616L8.85375 2.64616C8.78382 2.57615 8.6947 2.52847 8.59765 2.50914C8.50061 2.48982 8.40002 2.49972 8.30861 2.53759C8.21719 2.57547 8.13908 2.63962 8.08414 2.72191C8.0292 2.80421 7.99992 2.90096 8 2.99991V6.79303L3.85375 2.64616C3.78382 2.57615 3.6947 2.52847 3.59765 2.50914C3.50061 2.48982 3.40002 2.49972 3.30861 2.53759C3.21719 2.57547 3.13908 2.63962 3.08414 2.72191C3.0292 2.80421 2.99992 2.90096 3 2.99991V12.9999C2.99992 13.0989 3.0292 13.1956 3.08414 13.2779C3.13908 13.3602 3.21719 13.4243 3.30861 13.4622C3.40002 13.5001 3.50061 13.51 3.59765 13.4907C3.6947 13.4713 3.78382 13.4237 3.85375 13.3537L8 9.20678V12.9999C7.99992 13.0989 8.0292 13.1956 8.08414 13.2779C8.13908 13.3602 8.21719 13.4243 8.30861 13.4622C8.40002 13.5001 8.50061 13.51 8.59765 13.4907C8.6947 13.4713 8.78382 13.4237 8.85375 13.3537L13.8538 8.35366C13.9002 8.30722 13.9371 8.25207 13.9623 8.19138C13.9874 8.13068 14.0004 8.06561 14.0004 7.99991C14.0004 7.9342 13.9874 7.86913 13.9623 7.80844C13.9371 7.74774 13.9002 7.69259 13.8538 7.64616Z" fill="black"/>
</g>
<defs>
<clipPath id="clip0_5_1349">
<rect width="16" height="16" fill="white"/>
</clipPath>
</defs>
</svg>
