<svg width="16" height="16" viewBox="0 0 16 16" fill="none" xmlns="http://www.w3.org/2000/svg">
<g clip-path="url(#clip0_5_1103)">
<path d="M12.5981 3.40108C11.6888 2.49267 10.5306 1.87424 9.2699 1.62395C8.0092 1.37366 6.70259 1.50275 5.51524 1.99491C4.32789 2.48706 3.31311 3.32019 2.59916 4.38897C1.88521 5.45775 1.50415 6.71421 1.50415 7.99951C1.50415 9.28482 1.88521 10.5413 2.59916 11.6101C3.31311 12.6788 4.32789 13.512 5.51524 14.0041C6.70259 14.4963 8.0092 14.6254 9.2699 14.3751C10.5306 14.1248 11.6888 13.5064 12.5981 12.598C13.8159 11.3774 14.4998 9.72366 14.4998 7.99951C14.4998 6.27537 13.8159 4.62162 12.5981 3.40108ZM7.85373 8.35358L5.85373 10.3536C5.80727 10.4 5.75212 10.4369 5.69142 10.462C5.63073 10.4872 5.56567 10.5001 5.49997 10.5001C5.43428 10.5001 5.36922 10.4872 5.30853 10.462C5.24783 10.4369 5.19268 10.4 5.14622 10.3536C5.09977 10.3071 5.06292 10.252 5.03778 10.1913C5.01264 10.1306 4.9997 10.0655 4.9997 9.99983C4.9997 9.93413 5.01264 9.86908 5.03778 9.80838C5.06292 9.74768 5.09977 9.69253 5.14622 9.64608L6.79247 7.99983L5.14497 6.35233C5.09852 6.30587 5.06167 6.25072 5.03653 6.19002C5.01139 6.12933 4.99845 6.06427 4.99845 5.99858C4.99845 5.93288 5.01139 5.86783 5.03653 5.80713C5.06167 5.74643 5.09852 5.69128 5.14497 5.64483C5.19143 5.59837 5.24658 5.56152 5.30728 5.53638C5.36797 5.51124 5.43303 5.4983 5.49873 5.4983C5.56442 5.4983 5.62948 5.51124 5.69017 5.53638C5.75087 5.56152 5.80602 5.59837 5.85248 5.64483L7.85248 7.64483C7.89923 7.6912 7.93637 7.74636 7.96175 7.80713C7.98713 7.8679 8.00025 7.93309 8.00037 7.99894C8.00049 8.0648 7.98759 8.13003 7.96243 8.19089C7.93726 8.25175 7.90032 8.30704 7.85373 8.35358ZM11.3537 8.35358L9.35373 10.3536C9.2599 10.4474 9.13266 10.5001 8.99998 10.5001C8.86729 10.5001 8.74005 10.4474 8.64622 10.3536C8.5524 10.2598 8.4997 10.1325 8.4997 9.99983C8.4997 9.86715 8.5524 9.7399 8.64622 9.64608L10.2944 7.99983L8.64685 6.35233C8.6004 6.30587 8.56354 6.25072 8.5384 6.19002C8.51326 6.12933 8.50032 6.06427 8.50032 5.99858C8.50032 5.93288 8.51326 5.86783 8.5384 5.80713C8.56354 5.74643 8.6004 5.69128 8.64685 5.64483C8.69331 5.59837 8.74846 5.56152 8.80915 5.53638C8.86985 5.51124 8.9349 5.4983 9.0006 5.4983C9.0663 5.4983 9.13135 5.51124 9.19205 5.53638C9.25274 5.56152 9.3079 5.59837 9.35435 5.64483L11.3544 7.64483C11.4011 7.69125 11.4382 7.74643 11.4635 7.80723C11.4888 7.86802 11.5019 7.93322 11.5019 7.99907C11.502 8.06493 11.489 8.13015 11.4638 8.19099C11.4386 8.25182 11.4016 8.30708 11.355 8.35358H11.3537Z" fill="black"/>
</g>
<defs>
<clipPath id="clip0_5_1103">
<rect width="16" height="16" fill="white"/>
</clipPath>
</defs>
</svg>
