<svg width="16" height="16" viewBox="0 0 16 16" fill="none" xmlns="http://www.w3.org/2000/svg">
<g clip-path="url(#clip0_5_1101)">
<path d="M12.5989 12.5979C13.5073 11.6886 14.1258 10.5304 14.3761 9.26966C14.6263 8.00896 14.4973 6.70235 14.0051 5.515C13.5129 4.32765 12.6798 3.31286 11.611 2.59891C10.5423 1.88496 9.2858 1.50391 8.00049 1.50391C6.71518 1.50391 5.45873 1.88496 4.38994 2.59891C3.32116 3.31286 2.48804 4.32765 1.99588 5.515C1.50373 6.70235 1.37463 8.00896 1.62492 9.26966C1.87521 10.5304 2.49365 11.6886 3.40205 12.5979C4.6226 13.8156 6.27635 14.4995 8.00049 14.4995C9.72464 14.4995 11.3784 13.8156 12.5989 12.5979ZM6.3533 7.35286C6.30685 7.39931 6.2517 7.43616 6.191 7.4613C6.13031 7.48644 6.06525 7.49938 5.99955 7.49938C5.93386 7.49938 5.8688 7.48644 5.80811 7.4613C5.74741 7.43616 5.69226 7.39931 5.6458 7.35286C5.59935 7.3064 5.5625 7.25125 5.53736 7.19055C5.51222 7.12986 5.49928 7.0648 5.49928 6.99911C5.49928 6.93341 5.51222 6.86835 5.53736 6.80766C5.5625 6.74696 5.59935 6.69181 5.6458 6.64536L7.6458 4.64536C7.69224 4.59887 7.74738 4.56199 7.80808 4.53683C7.86878 4.51166 7.93385 4.49871 7.99955 4.49871C8.06526 4.49871 8.13033 4.51166 8.19102 4.53683C8.25172 4.56199 8.30687 4.59887 8.3533 4.64536L10.3533 6.64536C10.4471 6.73918 10.4998 6.86642 10.4998 6.99911C10.4998 7.13179 10.4471 7.25904 10.3533 7.35286C10.2595 7.44668 10.1322 7.49938 9.99955 7.49938C9.86687 7.49938 9.73962 7.44668 9.6458 7.35286L8.00018 5.70536L6.3533 7.35286ZM6.3533 10.8529C6.30685 10.8993 6.2517 10.9362 6.191 10.9613C6.13031 10.9864 6.06525 10.9994 5.99955 10.9994C5.93386 10.9994 5.8688 10.9864 5.80811 10.9613C5.74741 10.9362 5.69226 10.8993 5.6458 10.8529C5.59935 10.8064 5.5625 10.7513 5.53736 10.6906C5.51222 10.6299 5.49928 10.5648 5.49928 10.4991C5.49928 10.4334 5.51222 10.3684 5.53736 10.3077C5.5625 10.247 5.59935 10.1918 5.6458 10.1454L7.6458 8.14536C7.69224 8.09887 7.74738 8.06199 7.80808 8.03683C7.86878 8.01166 7.93385 7.99871 7.99955 7.99871C8.06526 7.99871 8.13033 8.01166 8.19102 8.03683C8.25172 8.06199 8.30687 8.09887 8.3533 8.14536L10.3533 10.1454C10.4471 10.2392 10.4998 10.3664 10.4998 10.4991C10.4998 10.6318 10.4471 10.759 10.3533 10.8529C10.2595 10.9467 10.1322 10.9994 9.99955 10.9994C9.86687 10.9994 9.73962 10.9467 9.6458 10.8529L8.00018 9.20723L6.3533 10.8529Z" fill="black"/>
</g>
<defs>
<clipPath id="clip0_5_1101">
<rect width="16" height="16" fill="white"/>
</clipPath>
</defs>
</svg>
