<svg width="16" height="16" viewBox="0 0 16 16" fill="none" xmlns="http://www.w3.org/2000/svg">
<g clip-path="url(#clip0_5_1105)">
<path d="M3.40108 3.40165C2.49267 4.31095 1.87424 5.46915 1.62395 6.72985C1.37366 7.99055 1.50275 9.29716 1.99491 10.4845C2.48706 11.6719 3.32019 12.6866 4.38897 13.4006C5.45775 14.1145 6.71421 14.4956 7.99951 14.4956C9.28482 14.4956 10.5413 14.1145 11.6101 13.4006C12.6788 12.6866 13.512 11.6719 14.0041 10.4845C14.4963 9.29716 14.6254 7.99055 14.3751 6.72985C14.1248 5.46915 13.5064 4.31095 12.598 3.40165C11.3774 2.1839 9.72366 1.5 7.99951 1.5C6.27537 1.5 4.62162 2.1839 3.40108 3.40165ZM9.6467 8.64665C9.69316 8.6002 9.74831 8.56335 9.809 8.53821C9.8697 8.51307 9.93475 8.50013 10.0005 8.50013C10.0661 8.50013 10.1312 8.51307 10.1919 8.53821C10.2526 8.56335 10.3077 8.6002 10.3542 8.64665C10.4007 8.69311 10.4375 8.74826 10.4626 8.80896C10.4878 8.86965 10.5007 8.93471 10.5007 9.0004C10.5007 9.0661 10.4878 9.13116 10.4626 9.19185C10.4375 9.25255 10.4007 9.3077 10.3542 9.35415L8.3542 11.3542C8.30777 11.4006 8.25262 11.4375 8.19192 11.4627C8.13122 11.4878 8.06616 11.5008 8.00045 11.5008C7.93474 11.5008 7.86968 11.4878 7.80898 11.4627C7.74828 11.4375 7.69314 11.4006 7.6467 11.3542L5.6467 9.35415C5.60025 9.3077 5.5634 9.25255 5.53826 9.19185C5.51311 9.13116 5.50017 9.0661 5.50017 9.0004C5.50017 8.93471 5.51311 8.86965 5.53826 8.80896C5.5634 8.74826 5.60025 8.69311 5.6467 8.64665C5.69316 8.6002 5.74831 8.56335 5.809 8.53821C5.8697 8.51307 5.93475 8.50013 6.00045 8.50013C6.06615 8.50013 6.1312 8.51307 6.1919 8.53821C6.2526 8.56335 6.30775 8.6002 6.3542 8.64665L7.99983 10.2942L9.6467 8.64665ZM9.6467 5.14665C9.69316 5.1002 9.74831 5.06335 9.809 5.03821C9.8697 5.01307 9.93475 5.00013 10.0005 5.00013C10.0661 5.00013 10.1312 5.01307 10.1919 5.03821C10.2526 5.06335 10.3077 5.1002 10.3542 5.14665C10.4007 5.19311 10.4375 5.24826 10.4626 5.30896C10.4878 5.36965 10.5007 5.43471 10.5007 5.5004C10.5007 5.5661 10.4878 5.63116 10.4626 5.69185C10.4375 5.75255 10.4007 5.8077 10.3542 5.85415L8.3542 7.85415C8.30777 7.90064 8.25262 7.93752 8.19192 7.96268C8.13122 7.98785 8.06616 8.0008 8.00045 8.0008C7.93474 8.0008 7.86968 7.98785 7.80898 7.96268C7.74828 7.93752 7.69314 7.90064 7.6467 7.85415L5.6467 5.85415C5.60025 5.8077 5.5634 5.75255 5.53826 5.69185C5.51311 5.63116 5.50017 5.5661 5.50017 5.5004C5.50017 5.43471 5.51311 5.36965 5.53826 5.30896C5.5634 5.24826 5.60025 5.19311 5.6467 5.14665C5.69316 5.1002 5.74831 5.06335 5.809 5.03821C5.8697 5.01307 5.93475 5.00013 6.00045 5.00013C6.06615 5.00013 6.1312 5.01307 6.1919 5.03821C6.2526 5.06335 6.30775 5.1002 6.3542 5.14665L7.99983 6.79228L9.6467 5.14665Z" fill="black"/>
</g>
<defs>
<clipPath id="clip0_5_1105">
<rect width="16" height="16" fill="white"/>
</clipPath>
</defs>
</svg>
