<svg width="16" height="16" viewBox="0 0 16 16" fill="none" xmlns="http://www.w3.org/2000/svg">
<g clip-path="url(#clip0_5_1602)">
<path d="M12.6912 2.53803C12.5998 2.50013 12.4993 2.49018 12.4023 2.50942C12.3052 2.52867 12.2161 2.57625 12.1462 2.64616L7.99991 6.79303V2.99991C7.99998 2.90096 7.9707 2.80421 7.91577 2.72191C7.86083 2.63962 7.78271 2.57547 7.6913 2.53759C7.59989 2.49972 7.49929 2.48982 7.40225 2.50914C7.30521 2.52847 7.21608 2.57615 7.14615 2.64616L2.14615 7.64616C2.09967 7.69259 2.06279 7.74774 2.03763 7.80844C2.01246 7.86913 1.99951 7.9342 1.99951 7.99991C1.99951 8.06561 2.01246 8.13068 2.03763 8.19138C2.06279 8.25207 2.09967 8.30722 2.14615 8.35366L7.14615 13.3537C7.21608 13.4237 7.30521 13.4713 7.40225 13.4907C7.49929 13.51 7.59989 13.5001 7.6913 13.4622C7.78271 13.4243 7.86083 13.3602 7.91577 13.2779C7.9707 13.1956 7.99998 13.0989 7.99991 12.9999V9.20678L12.1462 13.3537C12.2161 13.4237 12.3052 13.4713 12.4023 13.4907C12.4993 13.51 12.5999 13.5001 12.6913 13.4622C12.7827 13.4243 12.8608 13.3602 12.9158 13.2779C12.9707 13.1956 13 13.0989 12.9999 12.9999V2.99991C12.9999 2.90102 12.9705 2.80435 12.9156 2.72214C12.8606 2.63993 12.7825 2.57586 12.6912 2.53803Z" fill="black"/>
</g>
<defs>
<clipPath id="clip0_5_1602">
<rect width="16" height="16" fill="white"/>
</clipPath>
</defs>
</svg>
