<svg width="16" height="16" viewBox="0 0 16 16" fill="none" xmlns="http://www.w3.org/2000/svg">
<g clip-path="url(#clip0_5_1083)">
<path d="M14.5 5.00016H12.465C12.9052 5.76289 13.0814 6.64957 12.9662 7.52265C12.8511 8.39573 12.451 9.2064 11.8281 9.82891C11.2956 10.372 10.6025 10.8864 9.8375 11.3608C9.78962 11.3899 9.73334 11.4021 9.67768 11.3955C9.62203 11.3888 9.57024 11.3636 9.53063 11.3239L7.35313 9.14641C7.30577 9.09903 7.24936 9.06166 7.18727 9.0365C7.12518 9.01134 7.05867 8.99892 6.99168 8.99997C6.9247 9.00102 6.85861 9.01552 6.79734 9.04261C6.73606 9.0697 6.68086 9.10882 6.635 9.15766C6.54677 9.25666 6.50017 9.38591 6.50495 9.51844C6.50972 9.65096 6.5655 9.77652 6.66063 9.86891L8.52813 11.7364C8.55602 11.7643 8.57694 11.7983 8.58917 11.8358C8.6014 11.8732 8.6046 11.9131 8.59851 11.952C8.59241 11.9909 8.5772 12.0279 8.55411 12.0598C8.53101 12.0918 8.5007 12.1178 8.46563 12.1358C5.98375 13.4245 3.3125 14.2839 2.92375 14.4052C2.73779 14.4918 2.52967 14.5191 2.32764 14.4835C2.1256 14.4478 1.93943 14.3509 1.79436 14.2058C1.64929 14.0607 1.55235 13.8746 1.51669 13.6725C1.48103 13.4705 1.50837 13.2624 1.595 13.0764C1.76563 12.532 3.4075 7.43454 5.64875 4.74204C5.67103 4.7154 5.69861 4.69369 5.72973 4.6783C5.76086 4.6629 5.79486 4.65416 5.82955 4.65263C5.86424 4.65111 5.89887 4.65682 5.93123 4.66942C5.96359 4.68201 5.99297 4.70121 6.0175 4.72579L8.64563 7.35454C8.69424 7.40312 8.75234 7.44116 8.81631 7.46628C8.88028 7.4914 8.94874 7.50306 9.01742 7.50054C9.0861 7.49802 9.15352 7.48136 9.21548 7.45162C9.27743 7.42188 9.33259 7.37968 9.3775 7.32766C9.45966 7.22851 9.50143 7.10203 9.49448 6.97345C9.48753 6.84487 9.43237 6.72364 9.34 6.63391L6.755 4.04891C6.72865 4.02267 6.70848 3.99087 6.69597 3.95583C6.68346 3.9208 6.67892 3.88342 6.6827 3.84641C6.68647 3.8094 6.69845 3.7737 6.71777 3.74192C6.73709 3.71013 6.76327 3.68305 6.79438 3.66266C7.41451 3.25332 8.1364 3.0248 8.87912 3.00272C9.62184 2.98064 10.356 3.16588 10.9994 3.53766V1.50016C10.9992 1.43156 11.0132 1.36367 11.0404 1.30069C11.0676 1.23772 11.1075 1.18102 11.1575 1.13412C11.2076 1.08722 11.2668 1.05113 11.3314 1.02808C11.396 1.00504 11.4647 0.995533 11.5331 1.00016C11.6619 1.01137 11.7816 1.0709 11.8682 1.1668C11.9548 1.26269 12.0019 1.38783 12 1.51704V3.29329L13.6463 1.64641C13.6927 1.59996 13.7479 1.56311 13.8086 1.53797C13.8693 1.51283 13.9343 1.49989 14 1.49989C14.0657 1.49989 14.1308 1.51283 14.1915 1.53797C14.2521 1.56311 14.3073 1.59996 14.3538 1.64641C14.4002 1.69287 14.4371 1.74802 14.4622 1.80872C14.4873 1.86941 14.5003 1.93447 14.5003 2.00016C14.5003 2.06586 14.4873 2.13092 14.4622 2.19161C14.4371 2.25231 14.4002 2.30746 14.3538 2.35391L12.7069 4.00016H14.4831C14.6123 3.99826 14.7375 4.04535 14.8334 4.13197C14.9293 4.21858 14.9888 4.3383 15 4.46704C15.0045 4.53543 14.995 4.60403 14.9719 4.66857C14.9488 4.73311 14.9127 4.79221 14.8658 4.84221C14.8189 4.8922 14.7622 4.93202 14.6993 4.9592C14.6364 4.98637 14.5685 5.00031 14.5 5.00016Z" fill="black"/>
</g>
<defs>
<clipPath id="clip0_5_1083">
<rect width="16" height="16" fill="white"/>
</clipPath>
</defs>
</svg>
