<svg width="16" height="16" viewBox="0 0 16 16" fill="none" xmlns="http://www.w3.org/2000/svg">
<g clip-path="url(#clip0_5_1074)">
<path d="M13.927 2.09621C13.7407 2.00828 13.5318 1.98 13.3289 2.01523C13.126 2.05047 12.9389 2.14751 12.7932 2.29308C12.7845 2.30183 12.7769 2.30996 12.7695 2.31871L11.6907 3.56246C10.5847 2.87044 9.30631 2.50346 8.00164 2.50346C6.69696 2.50346 5.4186 2.87044 4.31258 3.56246L3.2307 2.31871C3.2232 2.30996 3.2157 2.30183 3.20695 2.29308C3.06125 2.14751 2.87416 2.05047 2.67123 2.01523C2.4683 1.98 2.25945 2.00828 2.0732 2.09621C1.89931 2.1816 1.75318 2.31451 1.65175 2.47956C1.55031 2.6446 1.49772 2.835 1.50008 3.02871V8.49996C1.50008 11.5625 4.00383 14.1018 7.22258 14.4575C7.25764 14.4613 7.29313 14.4578 7.32671 14.4469C7.36029 14.4361 7.3912 14.4183 7.41741 14.3947C7.44362 14.3711 7.46454 14.3422 7.47879 14.3099C7.49303 14.2777 7.50029 14.2427 7.50008 14.2075V12.2075L6.66133 11.3681C6.56623 11.2758 6.51048 11.1503 6.5057 11.0179C6.50093 10.8855 6.5475 10.7564 6.6357 10.6575C6.68156 10.6086 6.73676 10.5695 6.79803 10.5424C6.8593 10.5153 6.9254 10.5008 6.99238 10.4998C7.05937 10.4987 7.12588 10.5111 7.18797 10.5363C7.25006 10.5615 7.30646 10.5988 7.35383 10.6462L8.00008 11.2925L8.64633 10.6456C8.69369 10.5982 8.75009 10.5608 8.81218 10.5357C8.87427 10.5105 8.94079 10.4981 9.00777 10.4991C9.07476 10.5002 9.14085 10.5147 9.20212 10.5418C9.26339 10.5689 9.31859 10.608 9.36445 10.6568C9.45265 10.7557 9.49922 10.8849 9.49445 11.0173C9.48967 11.1497 9.43392 11.2752 9.33883 11.3675L8.50008 12.2068V14.2068C8.49986 14.2421 8.50712 14.277 8.52136 14.3093C8.53561 14.3416 8.55653 14.3705 8.58274 14.3941C8.60895 14.4177 8.63986 14.4355 8.67344 14.4463C8.70702 14.4571 8.74251 14.4607 8.77758 14.4568C11.9963 14.1012 14.5001 11.5625 14.5001 8.49996V3.02871C14.5024 2.835 14.4498 2.6446 14.3484 2.47956C14.247 2.31451 14.1008 2.1816 13.927 2.09621ZM5.25008 9.49996C5.10174 9.49996 4.95673 9.45597 4.8334 9.37356C4.71006 9.29115 4.61393 9.17402 4.55717 9.03697C4.5004 8.89993 4.48555 8.74913 4.51449 8.60364C4.54343 8.45816 4.61486 8.32452 4.71975 8.21963C4.82463 8.11474 4.95827 8.04331 5.10376 8.01437C5.24924 7.98543 5.40004 8.00028 5.53709 8.05705C5.67413 8.11382 5.79127 8.20995 5.87368 8.33328C5.95609 8.45662 6.00008 8.60162 6.00008 8.74996C6.00008 8.94887 5.92106 9.13964 5.78041 9.28029C5.63975 9.42094 5.44899 9.49996 5.25008 9.49996ZM6.50008 5.49996C6.50008 5.63257 6.4474 5.75974 6.35363 5.85351C6.25986 5.94728 6.13268 5.99996 6.00008 5.99996C5.86747 5.99996 5.74029 5.94728 5.64652 5.85351C5.55275 5.75974 5.50008 5.63257 5.50008 5.49996V4.31246C5.50008 4.17985 5.55275 4.05267 5.64652 3.95891C5.74029 3.86514 5.86747 3.81246 6.00008 3.81246C6.13268 3.81246 6.25986 3.86514 6.35363 3.95891C6.4474 4.05267 6.50008 4.17985 6.50008 4.31246V5.49996ZM8.50008 5.49996C8.50008 5.63257 8.4474 5.75974 8.35363 5.85351C8.25986 5.94728 8.13268 5.99996 8.00008 5.99996C7.86747 5.99996 7.74029 5.94728 7.64652 5.85351C7.55275 5.75974 7.50008 5.63257 7.50008 5.49996V3.99996C7.50008 3.86735 7.55275 3.74017 7.64652 3.64641C7.74029 3.55264 7.86747 3.49996 8.00008 3.49996C8.13268 3.49996 8.25986 3.55264 8.35363 3.64641C8.4474 3.74017 8.50008 3.86735 8.50008 3.99996V5.49996ZM9.50008 5.49996V4.31246C9.50008 4.17985 9.55275 4.05267 9.64652 3.95891C9.74029 3.86514 9.86747 3.81246 10.0001 3.81246C10.1327 3.81246 10.2599 3.86514 10.3536 3.95891C10.4474 4.05267 10.5001 4.17985 10.5001 4.31246V5.49996C10.5001 5.63257 10.4474 5.75974 10.3536 5.85351C10.2599 5.94728 10.1327 5.99996 10.0001 5.99996C9.86747 5.99996 9.74029 5.94728 9.64652 5.85351C9.55275 5.75974 9.50008 5.63257 9.50008 5.49996ZM10.7501 9.49996C10.6017 9.49996 10.4567 9.45597 10.3334 9.37356C10.2101 9.29115 10.1139 9.17402 10.0572 9.03697C10.0004 8.89993 9.98555 8.74913 10.0145 8.60364C10.0434 8.45816 10.1149 8.32452 10.2197 8.21963C10.3246 8.11474 10.4583 8.04331 10.6038 8.01437C10.7492 7.98543 10.9 8.00028 11.0371 8.05705C11.1741 8.11382 11.2913 8.20995 11.3737 8.33328C11.4561 8.45662 11.5001 8.60162 11.5001 8.74996C11.5001 8.94887 11.4211 9.13964 11.2804 9.28029C11.1398 9.42094 10.949 9.49996 10.7501 9.49996Z" fill="black"/>
</g>
<defs>
<clipPath id="clip0_5_1074">
<rect width="16" height="16" fill="white"/>
</clipPath>
</defs>
</svg>
