<svg width="16" height="16" viewBox="0 0 16 16" fill="none" xmlns="http://www.w3.org/2000/svg">
<g clip-path="url(#clip0_5_1605)">
<path d="M8.44737 5.27607C8.4059 5.19287 8.34205 5.12287 8.263 5.07395C8.18395 5.02502 8.09283 4.99911 7.99987 4.99911C7.9069 4.99911 7.81578 5.02502 7.73673 5.07395C7.65768 5.12287 7.59383 5.19287 7.55237 5.27607L3.05237 14.2761C2.99302 14.3947 2.98323 14.532 3.02513 14.6578C3.06703 14.7836 3.1572 14.8877 3.2758 14.947C3.3944 15.0064 3.53172 15.0161 3.65755 14.9742C3.78337 14.9323 3.8874 14.8422 3.94674 14.7236L4.81237 12.9998H11.1936L12.0555 14.7236C12.0968 14.8062 12.1602 14.8757 12.2387 14.9245C12.3171 14.9732 12.4075 14.9993 12.4999 14.9998C12.5851 14.9998 12.6689 14.978 12.7433 14.9364C12.8177 14.8949 12.8803 14.835 12.925 14.7625C12.9698 14.69 12.9953 14.6072 12.9991 14.5221C13.0029 14.437 12.9849 14.3523 12.9467 14.2761L8.44737 5.27607ZM7.99987 6.61795L9.69112 9.99982H6.30862L7.99987 6.61795ZM9.96799 5.85857C10.0195 5.57068 10.0072 5.27499 9.93205 4.99235C9.85688 4.70971 9.72063 4.447 9.53292 4.22272C9.3452 3.99845 9.11058 3.81808 8.8456 3.69431C8.58061 3.57055 8.29171 3.5064 7.99924 3.5064C7.70678 3.5064 7.41787 3.57055 7.15288 3.69431C6.8879 3.81808 6.65328 3.99845 6.46556 4.22272C6.27785 4.447 6.1416 4.70971 6.06643 4.99235C5.99126 5.27499 5.97899 5.57068 6.03049 5.85857C6.04383 5.92383 6.044 5.9911 6.03098 6.05642C6.01797 6.12175 5.99203 6.18381 5.95469 6.23898C5.91736 6.29414 5.86938 6.34128 5.81357 6.37764C5.75776 6.41401 5.69525 6.43885 5.62971 6.45072C5.56416 6.46259 5.49691 6.46124 5.4319 6.44675C5.36688 6.43227 5.30542 6.40494 5.25111 6.36637C5.1968 6.3278 5.15075 6.27877 5.11565 6.22216C5.08056 6.16555 5.05713 6.10249 5.04674 6.0367C4.96837 5.60445 4.98589 5.16027 5.09805 4.73554C5.21021 4.31081 5.41428 3.91589 5.69584 3.57869C5.97739 3.24149 6.32957 2.97024 6.72748 2.78411C7.12539 2.59798 7.55932 2.5015 7.99862 2.5015C8.43791 2.5015 8.87184 2.59798 9.26975 2.78411C9.66766 2.97024 10.0198 3.24149 10.3014 3.57869C10.583 3.91589 10.787 4.31081 10.8992 4.73554C11.0113 5.16027 11.0289 5.60445 10.9505 6.0367C10.9297 6.15191 10.8692 6.25619 10.7794 6.33134C10.6896 6.40649 10.5763 6.44776 10.4592 6.44795C10.4293 6.4477 10.3994 6.44498 10.3699 6.43982C10.2395 6.41596 10.124 6.34134 10.0487 6.23235C9.97331 6.12337 9.94429 5.98893 9.96799 5.85857ZM4.00924 8.51295C3.44899 7.77078 3.10681 6.88709 3.02113 5.96116C2.93546 5.03523 3.10969 4.10376 3.52425 3.2714C3.93881 2.43903 4.57727 1.73877 5.36789 1.24928C6.15852 0.759799 7.06998 0.500488 7.99987 0.500488C8.92975 0.500488 9.84121 0.759799 10.6318 1.24928C11.4225 1.73877 12.0609 2.43903 12.4755 3.2714C12.89 4.10376 13.0643 5.03523 12.9786 5.96116C12.8929 6.88709 12.5507 7.77078 11.9905 8.51295C11.9097 8.61644 11.7915 8.684 11.6613 8.70105C11.5311 8.7181 11.3995 8.68327 11.2948 8.60408C11.19 8.52489 11.1207 8.4077 11.1016 8.2778C11.0826 8.1479 11.1154 8.01573 11.193 7.90982C11.641 7.31605 11.9145 6.60912 11.9829 5.86845C12.0513 5.12778 11.9118 4.38271 11.5801 3.71695C11.2484 3.05118 10.7377 2.49109 10.1052 2.09958C9.47277 1.70808 8.74368 1.50068 7.99987 1.50068C7.25605 1.50068 6.52696 1.70808 5.89451 2.09958C5.26206 2.49109 4.7513 3.05118 4.4196 3.71695C4.08791 4.38271 3.94842 5.12778 4.01681 5.86845C4.08519 6.60912 4.35875 7.31605 4.80674 7.90982C4.88432 8.01573 4.91713 8.1479 4.89809 8.2778C4.87905 8.4077 4.80969 8.52489 4.70498 8.60408C4.60026 8.68327 4.46861 8.7181 4.33844 8.70105C4.20827 8.684 4.09002 8.61644 4.00924 8.51295Z" fill="black"/>
</g>
<defs>
<clipPath id="clip0_5_1605">
<rect width="16" height="16" fill="white"/>
</clipPath>
</defs>
</svg>
