<svg width="16" height="16" viewBox="0 0 16 16" fill="none" xmlns="http://www.w3.org/2000/svg">
<g clip-path="url(#clip0_5_1068)">
<path d="M13.3538 12.1461C13.4002 12.1926 13.4371 12.2478 13.4622 12.3084C13.4874 12.3691 13.5003 12.4342 13.5003 12.4999C13.5003 12.5656 13.4874 12.6306 13.4622 12.6913C13.4371 12.752 13.4002 12.8072 13.3538 12.8536C13.3073 12.9001 13.2522 12.937 13.1915 12.9621C13.1308 12.9872 13.0657 13.0002 13 13.0002C12.9343 13.0002 12.8693 12.9872 12.8086 12.9621C12.7479 12.937 12.6927 12.9001 12.6463 12.8536L11.5 11.7068L10.3538 12.8536C10.2599 12.9475 10.1327 13.0002 10 13.0002C9.86733 13.0002 9.74008 12.9475 9.64626 12.8536C9.55244 12.7598 9.49973 12.6326 9.49973 12.4999C9.49973 12.3672 9.55244 12.24 9.64626 12.1461L10.7931 10.9999L9.64626 9.85365C9.55244 9.75983 9.49973 9.63258 9.49973 9.4999C9.49973 9.36721 9.55244 9.23997 9.64626 9.14615C9.74008 9.05233 9.86733 8.99962 10 8.99962C10.1327 8.99962 10.2599 9.05233 10.3538 9.14615L11.5 10.293L12.6463 9.14615C12.7401 9.05233 12.8673 8.99962 13 8.99962C13.1327 8.99962 13.2599 9.05233 13.3538 9.14615C13.4476 9.23997 13.5003 9.36721 13.5003 9.4999C13.5003 9.63258 13.4476 9.75983 13.3538 9.85365L12.2069 10.9999L13.3538 12.1461ZM9.83814 7.50615C10.1084 7.48428 10.3803 7.51761 10.6373 7.6041C10.8943 7.69059 11.1311 7.82844 11.3331 8.00927C11.379 8.05038 11.4384 8.07312 11.5 8.07312C11.5616 8.07312 11.621 8.05038 11.6669 8.00927C11.9758 7.73076 12.3642 7.55593 12.7775 7.50927C12.8389 7.50247 12.8957 7.47316 12.9368 7.42699C12.9779 7.38083 13.0004 7.32107 13 7.25927V2.52865C13.0024 2.33478 12.9497 2.14423 12.8481 1.97907C12.7466 1.81392 12.6003 1.68093 12.4263 1.59552C12.24 1.50767 12.0311 1.47949 11.8281 1.51484C11.6252 1.55019 11.4381 1.64734 11.2925 1.79302L1.29251 11.793C1.14686 11.9385 1.04967 12.1254 1.01421 12.3282C0.978753 12.531 1.00675 12.7399 1.09439 12.9261C1.17982 13.1004 1.313 13.2469 1.47841 13.3485C1.64382 13.45 1.83467 13.5025 2.02876 13.4999H7.87876C7.91856 13.4999 7.95777 13.4903 7.99314 13.4721C8.02851 13.4539 8.05902 13.4275 8.08212 13.3951C8.10523 13.3627 8.12027 13.3252 8.12599 13.2858C8.13171 13.2465 8.12795 13.2063 8.11501 13.1686C7.99539 12.8305 7.96888 12.4665 8.03827 12.1146C8.10765 11.7628 8.27037 11.436 8.50939 11.1686C8.5505 11.1228 8.57324 11.0634 8.57324 11.0018C8.57324 10.9402 8.5505 10.8808 8.50939 10.8349C8.26116 10.5574 8.09531 10.2161 8.03052 9.84949C7.96573 9.48285 8.00457 9.1054 8.14267 8.75964C8.28077 8.41388 8.51264 8.11353 8.81218 7.8924C9.11172 7.67128 9.46704 7.53815 9.83814 7.50802V7.50615Z" fill="black"/>
</g>
<defs>
<clipPath id="clip0_5_1068">
<rect width="16" height="16" fill="white"/>
</clipPath>
</defs>
</svg>
