<svg width="16" height="16" viewBox="0 0 16 16" fill="none" xmlns="http://www.w3.org/2000/svg">
<g clip-path="url(#clip0_5_1069)">
<path d="M13.3362 13.8698C13.2381 13.959 13.1086 14.0055 12.9761 13.9992C12.8437 13.9929 12.7192 13.9342 12.63 13.8361L12.2856 13.4573C12.1929 13.4851 12.0967 13.4994 12 13.4998H1.99999C1.79403 13.4998 1.5931 13.4363 1.42463 13.3178C1.25616 13.1994 1.12837 13.0318 1.05874 12.8379C0.996628 12.6549 0.987555 12.458 1.03256 12.27C1.07757 12.082 1.17483 11.9105 1.31311 11.7754L6.25874 6.83044L2.64124 2.85106C2.55065 2.75428 2.50098 2.62623 2.50262 2.49368C2.50425 2.36113 2.55705 2.23434 2.64999 2.13981C2.69812 2.09327 2.75511 2.05688 2.81758 2.03278C2.88004 2.00869 2.94671 1.99738 3.01363 1.99954C3.08055 2.0017 3.14635 2.01727 3.20713 2.04534C3.26792 2.07341 3.32245 2.1134 3.36749 2.16294L13.3675 13.1629C13.4119 13.2114 13.4463 13.2681 13.4688 13.3299C13.4912 13.3916 13.5013 13.4572 13.4984 13.5229C13.4955 13.5885 13.4797 13.6529 13.4519 13.7125C13.424 13.772 13.3847 13.8255 13.3362 13.8698ZM12.5625 10.7911C12.5962 10.8293 12.6409 10.8564 12.6904 10.8685C12.74 10.8807 12.7921 10.8774 12.8397 10.8591C12.8873 10.8408 12.9282 10.8083 12.9568 10.7661C12.9855 10.7239 13.0006 10.674 13 10.6229V2.49981C13.0001 2.30192 12.9416 2.10842 12.8317 1.94383C12.7218 1.77923 12.5656 1.65094 12.3828 1.57519C12.2 1.49944 11.9988 1.47963 11.8047 1.51828C11.6106 1.55693 11.4323 1.6523 11.2925 1.79231L7.84186 5.24231C7.79643 5.28775 7.77024 5.34894 7.76872 5.41318C7.76721 5.47742 7.79049 5.53978 7.83374 5.58731L12.5625 10.7911Z" fill="black"/>
</g>
<defs>
<clipPath id="clip0_5_1069">
<rect width="16" height="16" fill="white"/>
</clipPath>
</defs>
</svg>
