<svg width="16" height="16" viewBox="0 0 16 16" fill="none" xmlns="http://www.w3.org/2000/svg">
<g clip-path="url(#clip0_5_1070)">
<path d="M12.3827 1.57682C12.2 1.50103 11.9989 1.48111 11.8049 1.51961C11.6108 1.5581 11.4326 1.65327 11.2927 1.79307L1.29266 11.7931C1.15287 11.933 1.05769 12.1112 1.01916 12.3051C0.980632 12.4991 1.00049 12.7002 1.07621 12.8829C1.15194 13.0656 1.28014 13.2217 1.4446 13.3315C1.60906 13.4414 1.80239 13.5 2.00016 13.4999H12.0002C12.2654 13.4999 12.5197 13.3946 12.7073 13.2071C12.8948 13.0195 13.0002 12.7652 13.0002 12.4999V2.49995C13.0005 2.30216 12.9419 2.10875 12.832 1.94436C12.722 1.77996 12.5656 1.65202 12.3827 1.57682ZM12.0002 12.4999H2.00016L12.0002 2.49995V12.4999Z" fill="black"/>
</g>
<defs>
<clipPath id="clip0_5_1070">
<rect width="16" height="16" fill="white"/>
</clipPath>
</defs>
</svg>
