<svg width="16" height="16" viewBox="0 0 16 16" fill="none" xmlns="http://www.w3.org/2000/svg">
<g clip-path="url(#clip0_5_1057)">
<path d="M7.49984 12.4711V14.2048C7.50008 14.2402 7.49279 14.2753 7.47847 14.3077C7.46415 14.34 7.44312 14.369 7.41677 14.3926C7.39042 14.4162 7.35935 14.434 7.32561 14.4447C7.29188 14.4555 7.25626 14.4589 7.22109 14.4548C5.77736 14.2783 4.43425 13.6236 3.40577 12.5952C2.37729 11.5667 1.72263 10.2236 1.54609 8.77984C1.54202 8.74468 1.54546 8.70906 1.55619 8.67532C1.56692 8.64159 1.58469 8.61052 1.60832 8.58417C1.63195 8.55782 1.66091 8.53679 1.69328 8.52246C1.72565 8.50814 1.7607 8.50086 1.79609 8.50109H3.52859C3.64362 9.51456 4.09903 10.459 4.82037 11.1802C5.54172 11.9013 6.48634 12.3564 7.49984 12.4711ZM11.4636 8.49984H8.49984V11.4636C9.24711 11.3545 9.93921 11.0072 10.4732 10.4732C11.0072 9.93921 11.3545 9.24711 11.4636 8.49984ZM8.49984 4.53609V7.49984H11.4636C11.3545 6.75258 11.0072 6.06047 10.4732 5.52648C9.93921 4.99249 9.24711 4.64514 8.49984 4.53609ZM14.2048 8.49984H12.4711C12.3563 9.51354 11.901 10.4583 11.1797 11.1797C10.4583 11.901 9.51354 12.3563 8.49984 12.4711V14.2048C8.49961 14.2402 8.50689 14.2753 8.52121 14.3077C8.53554 14.34 8.55657 14.369 8.58292 14.3926C8.60927 14.4162 8.64034 14.434 8.67407 14.4447C8.70781 14.4555 8.74343 14.4589 8.77859 14.4548C10.2223 14.2783 11.5654 13.6236 12.5939 12.5952C13.6224 11.5667 14.2771 10.2236 14.4536 8.77984C14.4578 8.74469 14.4546 8.70903 14.444 8.67524C14.4334 8.64144 14.4158 8.61028 14.3923 8.5838C14.3688 8.55733 14.3399 8.53616 14.3076 8.52168C14.2753 8.50721 14.2403 8.49976 14.2048 8.49984ZM12.4711 7.49984H14.2048C14.2402 7.50008 14.2753 7.49279 14.3077 7.47847C14.34 7.46415 14.369 7.44312 14.3926 7.41677C14.4162 7.39042 14.434 7.35935 14.4447 7.32561C14.4555 7.29188 14.4589 7.25626 14.4548 7.22109C14.2783 5.77736 13.6236 4.43425 12.5952 3.40577C11.5667 2.37729 10.2236 1.72263 8.77984 1.54609C8.74468 1.54202 8.70906 1.54546 8.67532 1.55619C8.64159 1.56692 8.61052 1.58469 8.58417 1.60832C8.55782 1.63195 8.53679 1.66091 8.52246 1.69328C8.50814 1.72565 8.50086 1.7607 8.50109 1.79609V3.52859C9.51456 3.64362 10.459 4.09903 11.1802 4.82037C11.9013 5.54172 12.3564 6.48634 12.4711 7.49984ZM7.22109 1.54609C5.77736 1.72263 4.43425 2.37729 3.40577 3.40577C2.37729 4.43425 1.72263 5.77736 1.54609 7.22109C1.54202 7.25626 1.54546 7.29188 1.55619 7.32561C1.56692 7.35935 1.58469 7.39042 1.60832 7.41677C1.63195 7.44312 1.66091 7.46415 1.69328 7.47847C1.72565 7.49279 1.7607 7.50008 1.79609 7.49984H3.52859C3.64336 6.48615 4.09865 5.54138 4.82002 4.82002C5.54138 4.09865 6.48615 3.64336 7.49984 3.52859V1.79484C7.4999 1.75955 7.49249 1.72465 7.47809 1.69243C7.46369 1.66021 7.44263 1.6314 7.4163 1.60791C7.38997 1.58441 7.35896 1.56675 7.32531 1.5561C7.29167 1.54544 7.25615 1.54203 7.22109 1.54609ZM4.53609 7.49984H7.49984V4.53609C6.75258 4.64514 6.06047 4.99249 5.52648 5.52648C4.99249 6.06047 4.64514 6.75258 4.53609 7.49984ZM7.49984 11.4636V8.49984H4.53609C4.64514 9.24711 4.99249 9.93921 5.52648 10.4732C6.06047 11.0072 6.75258 11.3545 7.49984 11.4636Z" fill="black"/>
</g>
<defs>
<clipPath id="clip0_5_1057">
<rect width="16" height="16" fill="white"/>
</clipPath>
</defs>
</svg>
