<svg width="16" height="16" viewBox="0 0 16 16" fill="none" xmlns="http://www.w3.org/2000/svg">
<g clip-path="url(#clip0_5_1052)">
<path d="M14.5 3.49995V11.4999C14.5 11.633 14.4734 11.7647 14.4216 11.8873C14.3699 12.0099 14.2941 12.1209 14.1987 12.2137C14.1745 12.2361 14.146 12.2535 14.115 12.2649C14.084 12.2763 14.051 12.2814 14.018 12.2799C13.985 12.2785 13.9526 12.2705 13.9227 12.2564C13.8928 12.2424 13.8659 12.2226 13.8438 12.1981L5.4075 2.91807C5.37479 2.88207 5.35328 2.83732 5.34563 2.78928C5.33797 2.74125 5.3445 2.69202 5.3644 2.64764C5.3843 2.60326 5.41672 2.56565 5.45768 2.53941C5.49864 2.51318 5.54636 2.49946 5.595 2.49995H13.5C13.7652 2.49995 14.0196 2.6053 14.2071 2.79284C14.3946 2.98038 14.5 3.23473 14.5 3.49995ZM3.37 2.1637C3.30212 2.08902 3.21324 2.03663 3.11503 2.01341C3.01682 1.99019 2.91388 1.99724 2.81975 2.03362C2.72562 2.07 2.6447 2.13402 2.58763 2.21725C2.53056 2.30048 2.50001 2.39903 2.5 2.49995C2.23478 2.49995 1.98043 2.6053 1.79289 2.79284C1.60536 2.98038 1.5 3.23473 1.5 3.49995V11.4999C1.5 11.7652 1.60536 12.0195 1.79289 12.2071C1.98043 12.3946 2.23478 12.4999 2.5 12.4999H6.27688L7.13188 13.9962C7.21936 14.1492 7.34572 14.2764 7.49818 14.3648C7.65063 14.4533 7.82375 14.4999 8 14.4999C8.17625 14.4999 8.34937 14.4533 8.50182 14.3648C8.65428 14.2764 8.78064 14.1492 8.86812 13.9962L9.72313 12.4999H11.415L12.63 13.8362C12.6739 13.8857 12.7272 13.926 12.7868 13.9547C12.8464 13.9835 12.9111 14.0001 12.9772 14.0037C13.0432 14.0072 13.1094 13.9976 13.1717 13.9754C13.234 13.9532 13.2913 13.9189 13.3403 13.8744C13.3893 13.8299 13.4289 13.7761 13.4569 13.7162C13.485 13.6563 13.5008 13.5914 13.5036 13.5253C13.5064 13.4591 13.496 13.3931 13.473 13.3311C13.4501 13.269 13.4151 13.2121 13.37 13.1637L3.37 2.1637Z" fill="black"/>
</g>
<defs>
<clipPath id="clip0_5_1052">
<rect width="16" height="16" fill="white"/>
</clipPath>
</defs>
</svg>
