<svg width="16" height="16" viewBox="0 0 16 16" fill="none" xmlns="http://www.w3.org/2000/svg">
<g clip-path="url(#clip0_5_1037)">
<path d="M10.5981 4.537C10.1456 3.47759 9.34119 2.60694 8.32081 2.07223C7.30043 1.53752 6.12671 1.37156 4.99808 1.6024C3.86945 1.83324 2.85516 2.44672 2.12667 3.33913C1.39818 4.23154 1.0002 5.34813 1 6.50012V10.5001C1 10.7653 1.10536 11.0197 1.29289 11.2072C1.48043 11.3948 1.73478 11.5001 2 11.5001H5.41687C5.80705 12.3912 6.44821 13.1493 7.26207 13.682C8.07593 14.2148 9.02729 14.499 10 14.5001H14C14.2652 14.5001 14.5196 14.3948 14.7071 14.2072C14.8946 14.0197 15 13.7653 15 13.5001V9.50012C14.9998 8.27779 14.5518 7.09788 13.7407 6.1834C12.9296 5.26892 11.8117 4.68322 10.5981 4.537ZM14 13.5001H10C9.2927 13.4993 8.5982 13.3114 7.987 12.9554C7.37581 12.5994 6.86968 12.0881 6.52 11.4732C7.20482 11.4022 7.86756 11.1903 8.46663 10.851C9.06569 10.5116 9.58813 10.0521 10.0012 9.50127C10.4142 8.95043 10.7089 8.32015 10.8668 7.65C11.0247 6.97985 11.0424 6.2843 10.9187 5.607C11.7958 5.81398 12.5773 6.31104 13.1365 7.01764C13.6957 7.72425 14 8.59899 14 9.50012V13.5001Z" fill="black"/>
</g>
<defs>
<clipPath id="clip0_5_1037">
<rect width="16" height="16" fill="white"/>
</clipPath>
</defs>
</svg>
