<svg width="16" height="16" viewBox="0 0 16 16" fill="none" xmlns="http://www.w3.org/2000/svg">
<g clip-path="url(#clip0_5_1425)">
<path d="M13.37 13.1638C13.4151 13.2123 13.4501 13.2692 13.473 13.3312C13.496 13.3933 13.5064 13.4593 13.5036 13.5254C13.5008 13.5915 13.485 13.6564 13.457 13.7163C13.4289 13.7763 13.3893 13.8301 13.3403 13.8746C13.2913 13.9191 13.234 13.9534 13.1717 13.9756C13.1094 13.9978 13.0432 14.0074 12.9772 14.0038C12.9111 14.0003 12.8464 13.9836 12.7868 13.9549C12.7272 13.9261 12.6739 13.8858 12.63 13.8363L11.7819 12.9038C10.7432 13.6193 9.51128 14.0017 8.25 14.0001H3C2.73479 14.0001 2.48043 13.8947 2.2929 13.7072C2.10536 13.5197 2 13.2653 2 13.0001V7.75009C1.99861 6.28536 2.51408 4.86711 3.45563 3.74509L2.63 2.83634C2.58499 2.78681 2.55038 2.72875 2.52822 2.6656C2.50606 2.60245 2.4968 2.53549 2.501 2.4687C2.50519 2.4019 2.52276 2.33663 2.55265 2.27675C2.58254 2.21687 2.62414 2.16359 2.675 2.12009C2.77799 2.03665 2.90923 1.99624 3.04131 2.0073C3.17339 2.01837 3.29609 2.08005 3.38375 2.17947L13.37 13.1638ZM13.0219 11.2945C13.0471 11.3223 13.0783 11.344 13.1131 11.3581C13.1479 11.3722 13.1854 11.3782 13.2229 11.3758C13.2604 11.3734 13.2968 11.3626 13.3295 11.3442C13.3622 11.3258 13.3904 11.3002 13.4119 11.2695C14.2011 10.1087 14.5766 8.71615 14.4779 7.31602C14.3792 5.9159 13.8121 4.58974 12.868 3.55116C11.9238 2.51258 10.6575 1.82205 9.2731 1.59079C7.88868 1.35954 6.46671 1.60102 5.23625 2.27634C5.20346 2.29475 5.17525 2.32032 5.15371 2.35115C5.13217 2.38198 5.11787 2.41727 5.11186 2.45439C5.10585 2.49152 5.1083 2.52952 5.11902 2.56556C5.12973 2.60161 5.14844 2.63478 5.17375 2.66259L13.0219 11.2945Z" fill="black"/>
</g>
<defs>
<clipPath id="clip0_5_1425">
<rect width="16" height="16" fill="white"/>
</clipPath>
</defs>
</svg>
