<svg width="16" height="16" viewBox="0 0 16 16" fill="none" xmlns="http://www.w3.org/2000/svg">
<g clip-path="url(#clip0_5_1043)">
<path d="M13.37 13.1632C13.4151 13.2116 13.4501 13.2685 13.4731 13.3306C13.496 13.3926 13.5064 13.4586 13.5036 13.5247C13.5009 13.5908 13.485 13.6557 13.457 13.7157C13.4289 13.7756 13.3893 13.8294 13.3403 13.8739C13.2914 13.9184 13.234 13.9527 13.1717 13.9749C13.1094 13.9971 13.0433 14.0067 12.9772 14.0031C12.9111 13.9996 12.8464 13.9829 12.7868 13.9542C12.7272 13.9255 12.6739 13.8852 12.63 13.8357L11.87 13H5.18752L3.15002 14.76L3.14502 14.7644C2.96473 14.9169 2.73615 15.0004 2.50002 15C2.35312 14.9997 2.20807 14.9673 2.07502 14.905C1.90243 14.8253 1.75645 14.6975 1.65449 14.5371C1.55253 14.3766 1.49891 14.1902 1.50002 14V4.00004C1.50002 3.73483 1.60537 3.48047 1.79291 3.29294C1.98045 3.1054 2.2348 3.00004 2.50002 3.00004H2.77877L2.63002 2.83629C2.58493 2.78786 2.54991 2.73097 2.52698 2.6689C2.50405 2.60684 2.49366 2.54084 2.49642 2.47473C2.49918 2.40863 2.51504 2.34372 2.54307 2.28379C2.5711 2.22385 2.61074 2.17008 2.65971 2.12558C2.70868 2.08108 2.76599 2.04674 2.82832 2.02455C2.89066 2.00237 2.95678 1.99277 3.02285 1.99633C3.08891 1.99988 3.15362 2.01651 3.21322 2.04526C3.27281 2.07401 3.32611 2.1143 3.37002 2.16379L13.37 13.1632ZM13.5 3.00004H6.04689C5.99825 2.99956 5.95053 3.01327 5.90957 3.03951C5.86861 3.06574 5.83619 3.10335 5.81629 3.14774C5.79639 3.19212 5.78987 3.24134 5.79752 3.28938C5.80518 3.33741 5.82668 3.38217 5.85939 3.41817L14.0625 12.4413C14.0963 12.4796 14.1409 12.5066 14.1905 12.5187C14.24 12.5309 14.2921 12.5276 14.3397 12.5093C14.3873 12.491 14.4282 12.4586 14.4569 12.4164C14.4855 12.3742 14.5006 12.3242 14.5 12.2732V4.00004C14.5 3.73483 14.3947 3.48047 14.2071 3.29294C14.0196 3.1054 13.7652 3.00004 13.5 3.00004Z" fill="black"/>
</g>
<defs>
<clipPath id="clip0_5_1043">
<rect width="16" height="16" fill="white"/>
</clipPath>
</defs>
</svg>
