<svg width="16" height="16" viewBox="0 0 16 16" fill="none" xmlns="http://www.w3.org/2000/svg">
<g clip-path="url(#clip0_5_1173)">
<path d="M14.5044 11.6723C14.8499 10.9557 15.0194 10.1671 14.9989 9.37182C14.9783 8.57657 14.7684 7.7977 14.3864 7.09991C14.0044 6.40211 13.4614 5.80553 12.8025 5.35973C12.1437 4.91392 11.388 4.63176 10.5981 4.53668C10.3353 3.92566 9.95327 3.37321 9.4743 2.91169C8.99533 2.45018 8.42909 2.08886 7.80874 1.84891C7.18839 1.60895 6.5264 1.49519 5.86154 1.51426C5.19667 1.53334 4.54229 1.68489 3.93672 1.96002C3.33116 2.23516 2.78657 2.62835 2.33486 3.11657C1.88314 3.6048 1.53338 4.17825 1.30605 4.80334C1.07872 5.42842 0.978399 6.09258 1.01095 6.75693C1.04351 7.42127 1.20829 8.07244 1.49564 8.67231L1.04127 10.2167C0.990463 10.3891 0.987066 10.572 1.03143 10.7462C1.0758 10.9204 1.16629 11.0793 1.29338 11.2064C1.42047 11.3335 1.57947 11.424 1.75365 11.4684C1.92782 11.5128 2.11073 11.5094 2.28314 11.4586L3.82752 11.0042C4.32341 11.2424 4.85507 11.3976 5.40127 11.4636C5.66663 12.0853 6.05532 12.6468 6.54383 13.1141C7.03235 13.5813 7.61054 13.9447 8.24347 14.1822C8.8764 14.4197 9.55091 14.5263 10.2262 14.4957C10.9016 14.4651 11.5637 14.2979 12.1725 14.0042L13.7169 14.4586C13.8892 14.5093 14.0721 14.5127 14.2462 14.4683C14.4203 14.424 14.5792 14.3336 14.7063 14.2066C14.8333 14.0796 14.9238 13.9207 14.9683 13.7466C15.0127 13.5725 15.0094 13.3897 14.9588 13.2173L14.5044 11.6723ZM13.4888 11.7642L14 13.4998L12.265 12.9892C12.1397 12.9529 12.0051 12.967 11.89 13.0286C10.9693 13.5202 9.89294 13.6328 8.8904 13.3423C7.88786 13.0518 7.03842 12.3813 6.52314 11.4736C7.20775 11.4021 7.87021 11.1899 8.46896 10.8504C9.0677 10.5108 9.58982 10.0512 10.0025 9.50032C10.4153 8.94945 10.7097 8.31923 10.8674 7.6492C11.025 6.97918 11.0425 6.28379 10.9188 5.60668C11.5153 5.74728 12.0715 6.02307 12.5445 6.41275C13.0175 6.80242 13.3946 7.29557 13.6468 7.85413C13.8989 8.41269 14.0194 9.02172 13.9988 9.63422C13.9782 10.2467 13.8172 10.8463 13.5281 11.3867C13.4659 11.5024 13.4518 11.6381 13.4888 11.7642Z" fill="black"/>
</g>
<defs>
<clipPath id="clip0_5_1173">
<rect width="16" height="16" fill="white"/>
</clipPath>
</defs>
</svg>
