<svg width="16" height="16" viewBox="0 0 16 16" fill="none" xmlns="http://www.w3.org/2000/svg">
<g clip-path="url(#clip0_5_1049)">
<path d="M14.5 8.00026C14.5002 9.12247 14.2099 10.2256 13.6574 11.2024C13.1048 12.1791 12.3087 12.9961 11.3467 13.5739C10.3847 14.1517 9.28942 14.4706 8.16759 14.4995C7.04575 14.5285 5.93554 14.2665 4.945 13.739L2.81687 14.4484C2.64068 14.5071 2.4516 14.5157 2.27083 14.473C2.09006 14.4304 1.92474 14.3382 1.79341 14.2069C1.66207 14.0755 1.56991 13.9102 1.52725 13.7294C1.48459 13.5487 1.49312 13.3596 1.55187 13.1834L2.26125 11.0553C1.79759 10.1835 1.53862 9.21763 1.504 8.23087C1.46937 7.24411 1.66 6.26243 2.06142 5.36035C2.46283 4.45826 3.06448 3.65948 3.8207 3.02463C4.57691 2.38979 5.46782 1.93556 6.42579 1.69644C7.38376 1.45731 8.38362 1.43957 9.34948 1.64456C10.3153 1.84955 11.2218 2.27188 12.0001 2.8795C12.7783 3.48711 13.4079 4.26405 13.8411 5.15132C14.2743 6.0386 14.4996 7.0129 14.5 8.00026Z" fill="black"/>
</g>
<defs>
<clipPath id="clip0_5_1049">
<rect width="16" height="16" fill="white"/>
</clipPath>
</defs>
</svg>
