<svg width="16" height="16" viewBox="0 0 16 16" fill="none" xmlns="http://www.w3.org/2000/svg">
<g clip-path="url(#clip0_5_1163)">
<path d="M13.3706 13.3712L12.2675 13.6668L11.6163 11.2362C12.1314 10.9782 12.5418 10.5505 12.7782 10.0252C13.0147 9.49989 13.0628 8.90909 12.9144 8.35244C12.1269 5.41494 10.4906 2.83869 10.4213 2.73057C10.3648 2.64233 10.2821 2.57405 10.1847 2.53536C10.0874 2.49667 9.98037 2.48953 9.87875 2.51494L8.5125 2.85682C8.5125 2.34119 8.50125 2.01744 8.49938 1.97682C8.49439 1.86941 8.45491 1.76646 8.3868 1.68326C8.31868 1.60006 8.22556 1.54104 8.12125 1.51494L6.12125 1.01494C6.01963 0.989529 5.9126 0.996671 5.81526 1.03536C5.71793 1.07405 5.63519 1.14233 5.57875 1.23057C5.50938 1.33869 3.87313 3.91369 3.08562 6.85557C2.93721 7.41221 2.98529 8.00301 3.22177 8.52833C3.45824 9.05365 3.86864 9.48136 4.38375 9.73932L3.7325 12.1668L2.62937 11.8712C2.50124 11.8369 2.36473 11.8549 2.24986 11.9212C2.13499 11.9876 2.05119 12.0968 2.01688 12.2249C1.98256 12.3531 2.00056 12.4896 2.0669 12.6045C2.13324 12.7193 2.24249 12.8031 2.37063 12.8374L5.37063 13.6412C5.41286 13.6523 5.45633 13.658 5.5 13.6581C5.62141 13.6582 5.73872 13.6142 5.83004 13.5342C5.92136 13.4542 5.98046 13.3437 5.9963 13.2233C6.01214 13.1029 5.98364 12.9809 5.91613 12.88C5.84861 12.7791 5.74669 12.7062 5.62937 12.6749L4.69812 12.4249L5.34937 9.99432C5.4 9.99744 5.45 9.99932 5.5 9.99932C5.99604 9.99792 6.48052 9.84943 6.89215 9.57264C7.30379 9.29584 7.62408 8.90318 7.8125 8.44432C7.88625 8.84244 7.975 9.24557 8.08187 9.64557C8.22495 10.1775 8.5394 10.6475 8.97654 10.9827C9.41367 11.318 9.94912 11.4997 10.5 11.4999C10.55 11.4999 10.6 11.4999 10.6506 11.4949L11.3019 13.9256L10.3706 14.1756C10.2539 14.2073 10.1526 14.2803 10.0855 14.381C10.0185 14.4818 9.99022 14.6034 10.006 14.7233C10.0218 14.8433 10.0806 14.9535 10.1714 15.0334C10.2623 15.1134 10.379 15.1576 10.5 15.1581C10.5437 15.158 10.5871 15.1523 10.6294 15.1412L13.6294 14.3374C13.7575 14.3031 13.8668 14.2193 13.9331 14.1045C13.9994 13.9896 14.0174 13.8531 13.9831 13.7249C13.9488 13.5968 13.865 13.4876 13.7501 13.4212C13.6353 13.3549 13.4988 13.3369 13.3706 13.3712ZM9.76375 3.57432C9.9375 3.86807 10.2156 4.35807 10.5262 4.97807L8.5 5.48557C8.47375 4.86057 8.47625 4.34494 8.48438 3.99869C8.48438 3.96369 8.4875 3.92869 8.48938 3.89369L9.76375 3.57432ZM6.23625 2.07432L7.50938 2.39244C7.51312 2.65994 7.50938 3.05932 7.49625 3.54682C7.4925 3.62244 7.48625 3.74619 7.48187 3.91182C7.48187 3.97432 7.47563 4.03682 7.47188 4.09932L5.41813 3.58932C5.75 2.91682 6.0525 2.38494 6.23625 2.07432ZM11.5525 2.72369C11.5231 2.66493 11.5055 2.60095 11.5008 2.5354C11.4962 2.46985 11.5044 2.40403 11.5252 2.34168C11.546 2.27934 11.5789 2.22171 11.6219 2.17208C11.665 2.12245 11.7175 2.08179 11.7762 2.05244L12.7762 1.55244C12.835 1.52306 12.899 1.50554 12.9645 1.50088C13.0301 1.49622 13.0959 1.50452 13.1582 1.5253C13.2205 1.54607 13.2782 1.57892 13.3278 1.62197C13.3774 1.66502 13.4181 1.71742 13.4475 1.77619C13.4769 1.83496 13.4944 1.89894 13.4991 1.96447C13.5037 2.03001 13.4954 2.09583 13.4746 2.15816C13.4539 2.22049 13.421 2.27812 13.378 2.32775C13.3349 2.37739 13.2825 2.41806 13.2238 2.44744L12.2238 2.94744C12.165 2.97687 12.101 2.99442 12.0355 2.9991C11.9699 3.00378 11.9041 2.99549 11.8417 2.97471C11.7794 2.95393 11.7218 2.92107 11.6721 2.87799C11.6225 2.83492 11.5819 2.78249 11.5525 2.72369ZM14.5 4.49994C14.5 4.63255 14.4473 4.75973 14.3536 4.85349C14.2598 4.94726 14.1326 4.99994 14 4.99994H13C12.8674 4.99994 12.7402 4.94726 12.6464 4.85349C12.5527 4.75973 12.5 4.63255 12.5 4.49994C12.5 4.36733 12.5527 4.24016 12.6464 4.14639C12.7402 4.05262 12.8674 3.99994 13 3.99994H14C14.1326 3.99994 14.2598 4.05262 14.3536 4.14639C14.4473 4.24016 14.5 4.36733 14.5 4.49994ZM2.0525 1.27619C2.08185 1.2174 2.1225 1.16496 2.17213 1.12189C2.22177 1.07882 2.2794 1.04595 2.34174 1.02517C2.40409 1.00439 2.46991 0.996102 2.53546 1.00078C2.60101 1.00546 2.66499 1.02302 2.72375 1.05244L3.72375 1.55244C3.78252 1.58182 3.83492 1.6225 3.87797 1.67213C3.92102 1.72177 3.95387 1.7794 3.97465 1.84173C3.99542 1.90406 4.00372 1.96987 3.99906 2.03541C3.9944 2.10095 3.97688 2.16493 3.9475 2.22369C3.91812 2.28246 3.87745 2.33486 3.82781 2.37791C3.77818 2.42096 3.72055 2.45381 3.65822 2.47459C3.53233 2.51655 3.39493 2.50678 3.27625 2.44744L2.27625 1.94744C2.21745 1.91809 2.16502 1.87744 2.12195 1.82781C2.07888 1.77818 2.04601 1.72054 2.02523 1.6582C2.00445 1.59586 1.99616 1.53003 2.00084 1.46448C2.00552 1.39893 2.02307 1.33495 2.0525 1.27619ZM2.5 4.49994H1.5C1.36739 4.49994 1.24021 4.44726 1.14645 4.35349C1.05268 4.25973 1 4.13255 1 3.99994C1 3.86733 1.05268 3.74016 1.14645 3.64639C1.24021 3.55262 1.36739 3.49994 1.5 3.49994H2.5C2.63261 3.49994 2.75979 3.55262 2.85355 3.64639C2.94732 3.74016 3 3.86733 3 3.99994C3 4.13255 2.94732 4.25973 2.85355 4.35349C2.75979 4.44726 2.63261 4.49994 2.5 4.49994Z" fill="black"/>
</g>
<defs>
<clipPath id="clip0_5_1163">
<rect width="16" height="16" fill="white"/>
</clipPath>
</defs>
</svg>
