<svg width="16" height="16" viewBox="0 0 16 16" fill="none" xmlns="http://www.w3.org/2000/svg">
<g clip-path="url(#clip0_5_1023)">
<path d="M15.0001 6.99978C14.9991 6.07183 14.6301 5.18217 13.9739 4.526C13.3177 3.86984 12.4281 3.50077 11.5001 3.49978C11.3895 3.49978 11.2789 3.50603 11.1695 3.51603C10.8873 2.91371 10.4393 2.40427 9.87799 2.04739C9.31668 1.69052 8.66529 1.50098 8.00013 1.50098C7.33497 1.50098 6.68359 1.69052 6.12228 2.04739C5.56096 2.40427 5.11296 2.91371 4.83076 3.51603C4.72138 3.50603 4.61076 3.49978 4.50013 3.49978C3.70562 3.49997 2.93481 3.77048 2.31443 4.26684C1.69404 4.76319 1.26099 5.45586 1.08646 6.23096C0.91194 7.00607 1.00633 7.81749 1.35411 8.53184C1.70189 9.24619 2.28238 9.82096 3.00013 10.1617V12.9998C3.00013 13.265 3.10549 13.5194 3.29303 13.7069C3.48056 13.8944 3.73492 13.9998 4.00013 13.9998H12.0001C12.2653 13.9998 12.5197 13.8944 12.7072 13.7069C12.8948 13.5194 13.0001 13.265 13.0001 12.9998V10.1617C13.5981 9.87729 14.1032 9.4294 14.4572 8.86983C14.8111 8.31026 14.9994 7.6619 15.0001 6.99978ZM9.51513 8.87853L10.0151 6.87853C10.0491 6.75189 10.1315 6.64366 10.2445 6.57716C10.3575 6.51066 10.4921 6.49122 10.6193 6.52302C10.7465 6.55483 10.8562 6.63533 10.9246 6.74718C10.993 6.85904 11.0147 6.9933 10.9851 7.12103L10.4851 9.12103C10.4581 9.2292 10.3957 9.32523 10.3078 9.39386C10.2199 9.46248 10.1116 9.49976 10.0001 9.49978C9.95905 9.49973 9.91813 9.49469 9.87826 9.48478C9.74975 9.45247 9.63933 9.37047 9.57124 9.2568C9.50316 9.14313 9.48298 9.00707 9.51513 8.87853ZM7.50013 6.99978C7.50013 6.86717 7.55281 6.74 7.64658 6.64623C7.74035 6.55246 7.86752 6.49978 8.00013 6.49978C8.13274 6.49978 8.25992 6.55246 8.35369 6.64623C8.44745 6.74 8.50013 6.86717 8.50013 6.99978V8.99978C8.50013 9.13239 8.44745 9.25957 8.35369 9.35334C8.25992 9.4471 8.13274 9.49978 8.00013 9.49978C7.86752 9.49978 7.74035 9.4471 7.64658 9.35334C7.55281 9.25957 7.50013 9.13239 7.50013 8.99978V6.99978ZM5.37888 6.51478C5.50751 6.48264 5.64364 6.50291 5.75733 6.57112C5.87102 6.63934 5.95296 6.74991 5.98513 6.87853L6.48513 8.87853C6.51727 9.00716 6.497 9.14329 6.42879 9.25698C6.36058 9.37067 6.25 9.45261 6.12138 9.48478C6.0805 9.49494 6.03851 9.49998 5.99638 9.49978C5.88499 9.49963 5.77684 9.46228 5.68909 9.39366C5.60134 9.32505 5.53902 9.2291 5.51201 9.12103L5.01201 7.12103C4.99614 7.05713 4.99306 6.99073 5.00292 6.92563C5.01279 6.86053 5.03542 6.79802 5.06951 6.74169C5.10359 6.68537 5.14847 6.63632 5.20156 6.59738C5.25465 6.55844 5.31491 6.53037 5.37888 6.51478ZM12.0001 12.9998H4.00013V10.4635C4.16571 10.4877 4.33281 10.4998 4.50013 10.4998H11.5001C11.6675 10.4998 11.8346 10.4877 12.0001 10.4635V12.9998Z" fill="black"/>
</g>
<defs>
<clipPath id="clip0_5_1023">
<rect width="16" height="16" fill="white"/>
</clipPath>
</defs>
</svg>
