<svg width="16" height="16" viewBox="0 0 16 16" fill="none" xmlns="http://www.w3.org/2000/svg">
<g clip-path="url(#clip0_5_1283)">
<path d="M12.5 1.99991H10.2338C9.95281 1.68536 9.6086 1.4337 9.22367 1.26138C8.83873 1.08907 8.42174 1 8 1C7.57826 1 7.16127 1.08907 6.77633 1.26138C6.39139 1.4337 6.04719 1.68536 5.76625 1.99991H3.5C3.23478 1.99991 2.98043 2.10527 2.79289 2.2928C2.60536 2.48034 2.5 2.73469 2.5 2.99991V13.4999C2.5 13.7651 2.60536 14.0195 2.79289 14.207C2.98043 14.3946 3.23478 14.4999 3.5 14.4999H12.5C12.7652 14.4999 13.0196 14.3946 13.2071 14.207C13.3946 14.0195 13.5 13.7651 13.5 13.4999V2.99991C13.5 2.73469 13.3946 2.48034 13.2071 2.2928C13.0196 2.10527 12.7652 1.99991 12.5 1.99991ZM8 1.99991C8.53043 1.99991 9.03914 2.21062 9.41421 2.5857C9.78929 2.96077 10 3.46948 10 3.99991H6C6 3.46948 6.21071 2.96077 6.58579 2.5857C6.96086 2.21062 7.46957 1.99991 8 1.99991Z" fill="black"/>
</g>
<defs>
<clipPath id="clip0_5_1283">
<rect width="16" height="16" fill="white"/>
</clipPath>
</defs>
</svg>
