<svg width="16" height="16" viewBox="0 0 16 16" fill="none" xmlns="http://www.w3.org/2000/svg">
<g clip-path="url(#clip0_5_1004)">
<path d="M14.4998 8.541C14.3936 9.77598 13.9369 10.9549 13.1834 11.9392C12.4299 12.9234 11.4109 13.6719 10.2465 14.0967C9.08197 14.5215 7.82039 14.6049 6.61013 14.3371C5.39987 14.0692 4.29128 13.4613 3.41479 12.5848C2.5383 11.7083 1.93037 10.5997 1.66253 9.38946C1.39469 8.1792 1.47807 6.91762 1.90287 5.75314C2.32767 4.58866 3.07621 3.56973 4.06044 2.81622C5.04466 2.06271 6.22362 1.60597 7.4586 1.49975C7.52426 1.49433 7.59034 1.5019 7.65308 1.52202C7.71582 1.54214 7.77397 1.57443 7.82423 1.61702C7.87449 1.65962 7.91587 1.7117 7.946 1.77029C7.97614 1.82888 7.99443 1.89283 7.99985 1.9585C8.00527 2.02416 7.9977 2.09024 7.97757 2.15298C7.95745 2.21571 7.92517 2.27387 7.88257 2.32413C7.83997 2.37439 7.78789 2.41577 7.7293 2.4459C7.67071 2.47603 7.60676 2.49433 7.5411 2.49975C6.49584 2.58955 5.49798 2.97604 4.66492 3.61372C3.83186 4.25141 3.19826 5.11376 2.83868 6.09932C2.47909 7.08488 2.40848 8.15265 2.63515 9.17698C2.86182 10.2013 3.37634 11.1396 4.11818 11.8814C4.86001 12.6233 5.79829 13.1378 6.82262 13.3644C7.84695 13.5911 8.91471 13.5205 9.90027 13.1609C10.8858 12.8013 11.7482 12.1677 12.3859 11.3347C13.0236 10.5016 13.41 9.50375 13.4998 8.4585C13.5108 8.32589 13.574 8.20306 13.6755 8.11702C13.777 8.03099 13.9085 7.98881 14.0411 7.99975C14.1737 8.01069 14.2965 8.07386 14.3826 8.17536C14.4686 8.27686 14.5108 8.40839 14.4998 8.541ZM9.99985 2.99975C10.1482 2.99975 10.2932 2.95576 10.4165 2.87335C10.5399 2.79094 10.636 2.6738 10.6928 2.53676C10.7495 2.39971 10.7644 2.24891 10.7354 2.10343C10.7065 1.95794 10.6351 1.8243 10.5302 1.71942C10.4253 1.61453 10.2917 1.5431 10.1462 1.51416C10.0007 1.48522 9.84988 1.50007 9.71284 1.55684C9.57579 1.6136 9.45866 1.70973 9.37625 1.83307C9.29384 1.9564 9.24985 2.10141 9.24985 2.24975C9.24985 2.44866 9.32887 2.63942 9.46952 2.78008C9.61017 2.92073 9.80094 2.99975 9.99985 2.99975ZM12.2498 4.49975C12.3982 4.49975 12.5432 4.45576 12.6665 4.37335C12.7899 4.29094 12.886 4.1738 12.9428 4.03676C12.9995 3.89971 13.0144 3.74891 12.9854 3.60343C12.9565 3.45794 12.8851 3.3243 12.7802 3.21942C12.6753 3.11453 12.5417 3.0431 12.3962 3.01416C12.2507 2.98522 12.0999 3.00007 11.9628 3.05684C11.8258 3.1136 11.7087 3.20973 11.6262 3.33307C11.5438 3.4564 11.4998 3.60141 11.4998 3.74975C11.4998 3.94866 11.5789 4.13942 11.7195 4.28008C11.8602 4.42073 12.0509 4.49975 12.2498 4.49975ZM13.7498 6.74975C13.8982 6.74975 14.0432 6.70576 14.1665 6.62335C14.2899 6.54094 14.386 6.4238 14.4428 6.28676C14.4995 6.14971 14.5144 5.99891 14.4854 5.85343C14.4565 5.70794 14.3851 5.5743 14.2802 5.46942C14.1753 5.36453 14.0417 5.2931 13.8962 5.26416C13.7507 5.23522 13.5999 5.25007 13.4628 5.30684C13.3258 5.3636 13.2087 5.45973 13.1262 5.58307C13.0438 5.7064 12.9998 5.85141 12.9998 5.99975C12.9998 6.19866 13.0789 6.38942 13.2195 6.53008C13.3602 6.67073 13.5509 6.74975 13.7498 6.74975ZM7.99985 3.49975C8.88987 3.49975 9.75989 3.76367 10.4999 4.25813C11.2399 4.7526 11.8167 5.4554 12.1573 6.27767C12.4979 7.09994 12.587 8.00474 12.4134 8.87765C12.2397 9.75057 11.8112 10.5524 11.1818 11.1817C10.5525 11.8111 9.75067 12.2396 8.87776 12.4133C8.00484 12.5869 7.10004 12.4978 6.27777 12.1572C5.45551 11.8166 4.7527 11.2398 4.25824 10.4998C3.76377 9.75979 3.49985 8.88976 3.49985 7.99975C3.50117 6.80668 3.9757 5.66285 4.81933 4.81923C5.66296 3.9756 6.80678 3.50107 7.99985 3.49975ZM7.49985 7.99975C7.49985 8.13235 7.55253 8.25953 7.6463 8.3533C7.74006 8.44707 7.86724 8.49975 7.99985 8.49975H10.9998C11.1325 8.49975 11.2596 8.44707 11.3534 8.3533C11.4472 8.25953 11.4998 8.13235 11.4998 7.99975C11.4998 7.86714 11.4472 7.73996 11.3534 7.64619C11.2596 7.55242 11.1325 7.49975 10.9998 7.49975H8.49985V4.99975C8.49985 4.86714 8.44717 4.73996 8.3534 4.64619C8.25963 4.55242 8.13246 4.49975 7.99985 4.49975C7.86724 4.49975 7.74006 4.55242 7.6463 4.64619C7.55253 4.73996 7.49985 4.86714 7.49985 4.99975V7.99975Z" fill="black"/>
</g>
<defs>
<clipPath id="clip0_5_1004">
<rect width="16" height="16" fill="white"/>
</clipPath>
</defs>
</svg>
