<svg width="16" height="16" viewBox="0 0 16 16" fill="none" xmlns="http://www.w3.org/2000/svg">
<g clip-path="url(#clip0_5_1134)">
<path d="M8.5001 5.00009V7.71697L10.7576 9.07134C10.8713 9.13964 10.9532 9.25031 10.9854 9.379C11.0175 9.5077 10.9971 9.64388 10.9289 9.75759C10.8606 9.87131 10.7499 9.95323 10.6212 9.98535C10.4925 10.0175 10.3563 9.99714 10.2426 9.92884L7.7426 8.42884C7.66861 8.38439 7.60739 8.32154 7.56489 8.2464C7.52239 8.17127 7.50007 8.08641 7.5001 8.00009V5.00009C7.5001 4.86749 7.55278 4.74031 7.64655 4.64654C7.74032 4.55277 7.86749 4.50009 8.0001 4.50009C8.13271 4.50009 8.25989 4.55277 8.35365 4.64654C8.44742 4.74031 8.5001 4.86749 8.5001 5.00009ZM14.1913 3.53822C14.1 3.50032 13.9995 3.49036 13.9024 3.50961C13.8054 3.52886 13.7163 3.57644 13.6463 3.64634L12.8751 4.41947C12.6732 4.20009 12.4651 3.98197 12.2438 3.75759C11.41 2.92366 10.3489 2.35394 9.19312 2.11963C8.03734 1.88531 6.83813 1.99679 5.74534 2.44014C4.65255 2.88348 3.71465 3.63903 3.04881 4.61237C2.38297 5.58572 2.01874 6.73369 2.00161 7.91287C1.98448 9.09204 2.31523 10.2501 2.95251 11.2424C3.5898 12.2347 4.50537 13.0171 5.58482 13.492C6.66427 13.9669 7.85974 14.1132 9.02184 13.9125C10.1839 13.7119 11.2611 13.1732 12.1188 12.3638C12.1666 12.3187 12.205 12.2646 12.2319 12.2046C12.2587 12.1446 12.2735 12.0799 12.2754 12.0142C12.2772 11.9485 12.2661 11.8831 12.2427 11.8217C12.2193 11.7603 12.184 11.7041 12.1389 11.6563C12.0937 11.6086 12.0396 11.5702 11.9796 11.5433C11.9196 11.5165 11.8549 11.5017 11.7892 11.4998C11.7235 11.498 11.6581 11.5091 11.5967 11.5325C11.5353 11.5559 11.4791 11.5912 11.4313 11.6363C10.7167 12.3107 9.81909 12.7595 8.85079 12.9268C7.88249 13.094 6.88639 12.9722 5.98691 12.5766C5.08743 12.181 4.32445 11.5291 3.7933 10.7024C3.26215 9.8757 2.98637 8.91081 3.00041 7.92827C3.01445 6.94574 3.31768 5.98913 3.87224 5.17793C4.42679 4.36674 5.20808 3.73693 6.11849 3.36718C7.02891 2.99743 8.02809 2.90414 8.99122 3.09896C9.95434 3.29378 10.8387 3.76808 11.5338 4.46259C11.7551 4.68634 11.9632 4.90634 12.1657 5.12697L11.1463 6.14634C11.0763 6.21627 11.0287 6.3054 11.0093 6.40244C10.99 6.49948 10.9999 6.60008 11.0378 6.69149C11.0757 6.7829 11.1398 6.86102 11.2221 6.91595C11.3044 6.97089 11.4012 7.00017 11.5001 7.00009H14.0001C14.1327 7.00009 14.2599 6.94742 14.3537 6.85365C14.4474 6.75988 14.5001 6.6327 14.5001 6.50009V4.00009C14.5001 3.9012 14.4707 3.80454 14.4158 3.72233C14.3608 3.64012 14.2827 3.57605 14.1913 3.53822Z" fill="black"/>
</g>
<defs>
<clipPath id="clip0_5_1134">
<rect width="16" height="16" fill="white"/>
</clipPath>
</defs>
</svg>
