<svg width="16" height="16" viewBox="0 0 16 16" fill="none" xmlns="http://www.w3.org/2000/svg">
<g clip-path="url(#clip0_5_1001)">
<path d="M14 8.00013C14 9.17205 13.6569 10.3183 13.0129 11.2974C12.3689 12.2765 11.4522 13.0456 10.3761 13.5097C9.30001 13.9738 8.11155 14.1126 6.95746 13.909C5.80337 13.7054 4.73417 13.1682 3.88188 12.3639C3.83411 12.3187 3.7957 12.2646 3.76884 12.2046C3.74198 12.1447 3.7272 12.08 3.72535 12.0143C3.72349 11.9486 3.73459 11.8832 3.75802 11.8218C3.78144 11.7603 3.81673 11.7042 3.86188 11.6564C3.95304 11.5599 4.0788 11.5036 4.21148 11.4999C4.27718 11.498 4.3426 11.5091 4.40401 11.5325C4.46542 11.556 4.52161 11.5912 4.56938 11.6364C5.28421 12.3108 6.18193 12.7595 7.15037 12.9266C8.11881 13.0937 9.11501 12.9717 10.0145 12.5759C10.914 12.18 11.6769 11.5279 12.2079 10.7009C12.7389 9.87398 13.0144 8.90889 13 7.92625C12.9856 6.94361 12.6819 5.987 12.127 5.17594C11.572 4.36489 10.7904 3.73535 9.87967 3.36601C8.96897 2.99666 7.96962 2.90387 7.00649 3.09925C6.04336 3.29462 5.15916 3.76949 4.46438 4.46451C4.24375 4.68763 4.03625 4.90701 3.83438 5.12513L4.85375 6.14638C4.92376 6.21631 4.97144 6.30544 4.99076 6.40248C5.01009 6.49952 5.00019 6.60012 4.96231 6.69153C4.92444 6.78294 4.86029 6.86106 4.77799 6.916C4.69569 6.97093 4.59895 7.00021 4.5 7.00013H2C1.86739 7.00013 1.74021 6.94746 1.64645 6.85369C1.55268 6.75992 1.5 6.63274 1.5 6.50013V4.00013C1.49992 3.90119 1.5292 3.80444 1.58414 3.72214C1.63908 3.63985 1.71719 3.5757 1.80861 3.53782C1.90002 3.49995 2.00061 3.49004 2.09765 3.50937C2.1947 3.5287 2.28382 3.57638 2.35375 3.64638L3.125 4.41888C3.32625 4.20076 3.53375 3.98138 3.75375 3.75951C4.59255 2.91928 5.66178 2.34679 6.82609 2.1145C7.99041 1.88221 9.19746 2.00057 10.2945 2.45459C11.3915 2.90861 12.3292 3.67789 12.9888 4.66505C13.6484 5.65221 14.0003 6.81288 14 8.00013ZM8 4.50013C7.86739 4.50013 7.74021 4.55281 7.64645 4.64658C7.55268 4.74035 7.5 4.86753 7.5 5.00013V8.00013C7.49997 8.08645 7.52229 8.17131 7.56479 8.24644C7.60729 8.32158 7.66851 8.38443 7.7425 8.42888L10.2425 9.92888C10.2988 9.9627 10.3612 9.9851 10.4262 9.99479C10.4911 10.0045 10.5574 10.0013 10.6211 9.98539C10.6848 9.96949 10.7448 9.94119 10.7976 9.90211C10.8504 9.86303 10.8949 9.81394 10.9288 9.75763C10.9626 9.70133 10.985 9.63892 10.9947 9.57396C11.0043 9.509 11.0012 9.44277 10.9853 9.37904C10.9694 9.31532 10.9411 9.25535 10.902 9.20256C10.8629 9.14977 10.8138 9.1052 10.7575 9.07138L8.5 7.71701V5.00013C8.5 4.86753 8.44732 4.74035 8.35355 4.64658C8.25979 4.55281 8.13261 4.50013 8 4.50013Z" fill="black"/>
</g>
<defs>
<clipPath id="clip0_5_1001">
<rect width="16" height="16" fill="white"/>
</clipPath>
</defs>
</svg>
