<svg width="16" height="16" viewBox="0 0 16 16" fill="none" xmlns="http://www.w3.org/2000/svg">
<g clip-path="url(#clip0_5_995)">
<path d="M5.50006 12.2499C5.50006 12.3982 5.45607 12.5432 5.37366 12.6666C5.29125 12.7899 5.17411 12.886 5.03707 12.9428C4.90002 12.9996 4.74922 13.0144 4.60374 12.9855C4.45825 12.9565 4.32462 12.8851 4.21973 12.7802C4.11484 12.6753 4.04341 12.5417 4.01447 12.3962C3.98553 12.2507 4.00038 12.0999 4.05715 11.9629C4.11391 11.8258 4.21004 11.7087 4.33338 11.6263C4.45672 11.5439 4.60172 11.4999 4.75006 11.4999C4.94897 11.4999 5.13973 11.5789 5.28039 11.7196C5.42104 11.8602 5.50006 12.051 5.50006 12.2499ZM7.25006 12.4999C7.10172 12.4999 6.95672 12.5439 6.83338 12.6263C6.71004 12.7087 6.61391 12.8258 6.55715 12.9629C6.50038 13.0999 6.48553 13.2507 6.51447 13.3962C6.54341 13.5417 6.61484 13.6753 6.71973 13.7802C6.82462 13.8851 6.95825 13.9565 7.10374 13.9855C7.24922 14.0144 7.40002 13.9996 7.53707 13.9428C7.67411 13.886 7.79125 13.7899 7.87366 13.6666C7.95607 13.5432 8.00006 13.3982 8.00006 13.2499C8.00006 13.051 7.92104 12.8602 7.78039 12.7196C7.63973 12.5789 7.44897 12.4999 7.25006 12.4999ZM10.2501 11.4999C10.1017 11.4999 9.95671 11.5439 9.83338 11.6263C9.71004 11.7087 9.61391 11.8258 9.55715 11.9629C9.50038 12.0999 9.48553 12.2507 9.51447 12.3962C9.54341 12.5417 9.61484 12.6753 9.71973 12.7802C9.82461 12.8851 9.95825 12.9565 10.1037 12.9855C10.2492 13.0144 10.4 12.9996 10.5371 12.9428C10.6741 12.886 10.7912 12.7899 10.8737 12.6666C10.9561 12.5432 11.0001 12.3982 11.0001 12.2499C11.0001 12.051 10.921 11.8602 10.7804 11.7196C10.6397 11.5789 10.449 11.4999 10.2501 11.4999ZM4.25006 13.9999C4.10172 13.9999 3.95671 14.0439 3.83338 14.1263C3.71004 14.2087 3.61391 14.3258 3.55715 14.4629C3.50038 14.5999 3.48553 14.7507 3.51447 14.8962C3.54341 15.0417 3.61484 15.1753 3.71973 15.2802C3.82462 15.3851 3.95825 15.4565 4.10374 15.4855C4.24922 15.5144 4.40002 15.4996 4.53707 15.4428C4.67411 15.386 4.79125 15.2899 4.87366 15.1666C4.95607 15.0432 5.00006 14.8982 5.00006 14.7499C5.00006 14.551 4.92104 14.3602 4.78039 14.2196C4.63973 14.0789 4.44897 13.9999 4.25006 13.9999ZM9.75006 13.9999C9.60172 13.9999 9.45672 14.0439 9.33338 14.1263C9.21004 14.2087 9.11391 14.3258 9.05715 14.4629C9.00038 14.5999 8.98553 14.7507 9.01447 14.8962C9.04341 15.0417 9.11484 15.1753 9.21973 15.2802C9.32462 15.3851 9.45825 15.4565 9.60374 15.4855C9.74922 15.5144 9.90002 15.4996 10.0371 15.4428C10.1741 15.386 10.2912 15.2899 10.3737 15.1666C10.4561 15.0432 10.5001 14.8982 10.5001 14.7499C10.5001 14.551 10.421 14.3602 10.2804 14.2196C10.1397 14.0789 9.94897 13.9999 9.75006 13.9999ZM14.4919 5.47176C14.421 4.25811 13.8874 3.11786 13.001 2.2858C12.1146 1.45375 10.9429 0.993231 9.72718 0.999078C8.51147 1.00493 7.34427 1.47669 6.46593 2.31723C5.58759 3.15778 5.06497 4.30311 5.00568 5.51739C4.99839 5.64697 4.94209 5.76893 4.84819 5.85853C4.75429 5.94813 4.62984 5.99867 4.50006 5.99989H4.46256C4.33056 5.98809 4.20838 5.92526 4.12201 5.82476C4.03563 5.72426 3.99188 5.59403 4.00006 5.46176C4.01743 5.11412 4.06617 4.76876 4.14568 4.42989C4.15594 4.38734 4.15485 4.34284 4.14251 4.30085C4.13018 4.25885 4.10704 4.22083 4.0754 4.19059C4.04376 4.16034 4.00474 4.13893 3.96223 4.1285C3.91973 4.11807 3.87523 4.11898 3.83318 4.13114C3.15636 4.3311 2.56285 4.74558 2.14204 5.31214C1.72124 5.8787 1.49593 6.56666 1.50006 7.27239C1.51256 9.06676 3.00756 10.4999 4.80256 10.4999H9.75006C10.397 10.4992 11.0371 10.3664 11.631 10.1098C12.2249 9.85312 12.7602 9.47797 13.2041 9.00727C13.648 8.53658 13.9912 7.98024 14.2126 7.37232C14.434 6.7644 14.5291 6.11769 14.4919 5.47176Z" fill="black"/>
</g>
<defs>
<clipPath id="clip0_5_995">
<rect width="16" height="16" fill="white"/>
</clipPath>
</defs>
</svg>
