<svg width="16" height="16" viewBox="0 0 16 16" fill="none" xmlns="http://www.w3.org/2000/svg">
<g clip-path="url(#clip0_5_996)">
<path d="M15.5 8.04504C15.4893 9.48195 14.915 10.8572 13.9006 11.875C13.8766 11.8987 13.8481 11.9173 13.8167 11.9296C13.7854 11.942 13.7519 11.9478 13.7182 11.9469C13.6845 11.946 13.6514 11.9382 13.6207 11.9242C13.5901 11.9101 13.5627 11.89 13.54 11.865L6.48626 4.10442C6.46356 4.07949 6.44615 4.05024 6.43505 4.01841C6.42395 3.98659 6.41941 3.95285 6.42168 3.91922C6.42396 3.88559 6.43301 3.85277 6.4483 3.82273C6.46359 3.79269 6.48479 3.76605 6.51063 3.74442C7.50879 2.9258 8.76355 2.48519 10.0544 2.50004C13.0719 2.52942 15.5238 5.02692 15.5 8.04504ZM3.37001 2.16379C3.3261 2.1143 3.2728 2.07401 3.21321 2.04526C3.15361 2.01651 3.0889 1.99988 3.02283 1.99633C2.95676 1.99277 2.89065 2.00237 2.82831 2.02455C2.76598 2.04674 2.70867 2.08108 2.6597 2.12558C2.61073 2.17008 2.57109 2.22385 2.54306 2.28379C2.51503 2.34372 2.49917 2.40863 2.49641 2.47473C2.49365 2.54084 2.50403 2.60684 2.52697 2.6689C2.5499 2.73097 2.58492 2.78786 2.63001 2.83629L5.08313 5.53504L5.07938 5.54192C4.50591 5.45789 3.92102 5.4995 3.36522 5.66386C2.80941 5.82822 2.29596 6.1114 1.86041 6.49381C1.42487 6.87621 1.07763 7.3487 0.842731 7.87857C0.607835 8.40843 0.490895 8.98302 0.500006 9.56254C0.533131 11.7575 2.36501 13.5 4.56251 13.5H10C10.6794 13.5003 11.353 13.3742 11.9863 13.1282L12.63 13.8363C12.6743 13.8851 12.7278 13.9246 12.7874 13.9527C12.847 13.9807 12.9115 13.9967 12.9773 13.9997C13.0431 14.0027 13.1089 13.9927 13.1708 13.9703C13.2327 13.9478 13.2896 13.9133 13.3381 13.8688C13.4335 13.7743 13.4886 13.6466 13.492 13.5124C13.4954 13.3782 13.4468 13.2479 13.3563 13.1488L3.37001 2.16379Z" fill="black"/>
</g>
<defs>
<clipPath id="clip0_5_996">
<rect width="16" height="16" fill="white"/>
</clipPath>
</defs>
</svg>
