<svg width="16" height="16" viewBox="0 0 16 16" fill="none" xmlns="http://www.w3.org/2000/svg">
<g clip-path="url(#clip0_5_1466)">
<path d="M10.5001 14.4999C10.5001 14.6325 10.4474 14.7597 10.3536 14.8534C10.2598 14.9472 10.1327 14.9999 10.0001 14.9999H6.50006C6.36745 14.9999 6.24027 14.9472 6.1465 14.8534C6.05273 14.7597 6.00006 14.6325 6.00006 14.4999C6.00006 14.3673 6.05273 14.2401 6.1465 14.1463C6.24027 14.0526 6.36745 13.9999 6.50006 13.9999H10.0001C10.1327 13.9999 10.2598 14.0526 10.3536 14.1463C10.4474 14.2401 10.5001 14.3673 10.5001 14.4999ZM8.00006 12.4999C8.00006 12.3673 7.94738 12.2401 7.85361 12.1463C7.75984 12.0526 7.63266 11.9999 7.50006 11.9999H4.50006C4.36745 11.9999 4.24027 12.0526 4.1465 12.1463C4.05273 12.2401 4.00006 12.3673 4.00006 12.4999C4.00006 12.6325 4.05273 12.7597 4.1465 12.8534C4.24027 12.9472 4.36745 12.9999 4.50006 12.9999H7.50006C7.63266 12.9999 7.75984 12.9472 7.85361 12.8534C7.94738 12.7597 8.00006 12.6325 8.00006 12.4999ZM11.5001 11.9999H10.0001C9.86745 11.9999 9.74027 12.0526 9.6465 12.1463C9.55273 12.2401 9.50006 12.3673 9.50006 12.4999C9.50006 12.6325 9.55273 12.7597 9.6465 12.8534C9.74027 12.9472 9.86745 12.9999 10.0001 12.9999H11.5001C11.6327 12.9999 11.7598 12.9472 11.8536 12.8534C11.9474 12.7597 12.0001 12.6325 12.0001 12.4999C12.0001 12.3673 11.9474 12.2401 11.8536 12.1463C11.7598 12.0526 11.6327 11.9999 11.5001 11.9999ZM14.4919 5.97176C14.421 4.75811 13.8874 3.61786 13.001 2.7858C12.1146 1.95375 10.9429 1.49323 9.72718 1.49908C8.51147 1.50493 7.34427 1.97669 6.46593 2.81723C5.58759 3.65778 5.06497 4.80311 5.00568 6.01739C4.99839 6.14697 4.94209 6.26893 4.84819 6.35853C4.75429 6.44813 4.62984 6.49867 4.50006 6.49989H4.46256C4.33056 6.48809 4.20838 6.42526 4.12201 6.32476C4.03563 6.22426 3.99188 6.09403 4.00006 5.96176C4.01743 5.61412 4.06617 5.26876 4.14568 4.92989C4.15594 4.88734 4.15485 4.84284 4.14251 4.80085C4.13018 4.75885 4.10704 4.72083 4.0754 4.69059C4.04376 4.66034 4.00474 4.63893 3.96223 4.6285C3.91973 4.61807 3.87523 4.61898 3.83318 4.63114C3.15636 4.8311 2.56285 5.24558 2.14204 5.81214C1.72124 6.3787 1.49593 7.06666 1.50006 7.77239C1.51256 9.56676 3.00756 10.9999 4.80256 10.9999H9.75006C10.397 10.9992 11.0371 10.8664 11.631 10.6098C12.2249 10.3531 12.7602 9.97797 13.2041 9.50727C13.648 9.03658 13.9912 8.48024 14.2126 7.87232C14.434 7.2644 14.5291 6.61769 14.4919 5.97176Z" fill="black"/>
</g>
<defs>
<clipPath id="clip0_5_1466">
<rect width="16" height="16" fill="white"/>
</clipPath>
</defs>
</svg>
