<svg width="16" height="16" viewBox="0 0 16 16" fill="none" xmlns="http://www.w3.org/2000/svg">
<g clip-path="url(#clip0_5_670)">
<path d="M10.7501 4.49988C10.4913 4.49974 10.2329 4.52064 9.97755 4.56238C9.88672 3.62386 9.50309 2.73765 8.88093 2.02913C8.25878 1.32061 7.42959 0.825642 6.51068 0.614257C6.42815 0.595298 6.34216 0.597607 6.26077 0.62097C6.17939 0.644332 6.10526 0.687981 6.04536 0.747825C5.98545 0.807668 5.94172 0.881746 5.91828 0.96311C5.89483 1.04447 5.89243 1.13046 5.9113 1.21301C6.02907 1.72605 6.02971 2.25903 5.91317 2.77235C5.79662 3.28567 5.5659 3.76613 5.23814 4.17802C4.91038 4.58991 4.49402 4.92264 4.01998 5.15149C3.54595 5.38034 3.02644 5.49942 2.50005 5.49988C2.23526 5.49992 1.97131 5.47015 1.71318 5.41113C1.63059 5.39213 1.54453 5.39443 1.46307 5.41782C1.38162 5.44121 1.30745 5.48492 1.24752 5.54485C1.1876 5.60477 1.14389 5.67895 1.1205 5.7604C1.09711 5.84186 1.0948 5.92792 1.1138 6.01051C1.24813 6.58972 1.49556 7.13668 1.84189 7.61998C2.18823 8.10328 2.62663 8.51339 3.13193 8.82676C2.77655 9.31089 2.56228 9.88404 2.51288 10.4826C2.46348 11.0811 2.5809 11.6816 2.85209 12.2175C3.12329 12.7533 3.53765 13.2035 4.04921 13.5182C4.56076 13.8328 5.14949 13.9995 5.75005 13.9999H10.7501C12.0098 13.9999 13.218 13.4994 14.1088 12.6086C14.9996 11.7178 15.5001 10.5097 15.5001 9.24988C15.5001 7.9901 14.9996 6.78192 14.1088 5.89113C13.218 5.00033 12.0098 4.49988 10.7501 4.49988ZM2.33568 6.49988C2.39005 6.49988 2.44505 6.49988 2.50005 6.49988C3.69312 6.49856 4.83695 6.02403 5.68057 5.1804C6.5242 4.33677 6.99873 3.19295 7.00005 1.99988C7.00005 1.94426 7.00005 1.88863 7.00005 1.83301C7.57623 2.10275 8.06737 2.52537 8.42002 3.05489C8.77266 3.5844 8.97328 4.2005 9.00005 4.83613C8.38958 5.07904 7.8358 5.44532 7.37337 5.91205C6.91093 6.37879 6.5498 6.93593 6.31255 7.54863C6.12681 7.51621 5.93861 7.4999 5.75005 7.49988C5.07792 7.49976 4.42249 7.70928 3.87505 8.09926C3.20258 7.74648 2.6625 7.18534 2.33568 6.49988Z" fill="black"/>
</g>
<defs>
<clipPath id="clip0_5_670">
<rect width="16" height="16" fill="white"/>
</clipPath>
</defs>
</svg>
