<svg width="16" height="16" viewBox="0 0 16 16" fill="none" xmlns="http://www.w3.org/2000/svg">
<g clip-path="url(#clip0_5_668)">
<path d="M9.91631 12.2774L7.91631 15.2774C7.87986 15.3321 7.83301 15.379 7.77843 15.4156C7.72384 15.4521 7.66259 15.4776 7.59817 15.4904C7.46806 15.5165 7.33295 15.4897 7.22256 15.4161C7.11216 15.3425 7.03552 15.2281 7.0095 15.098C6.98348 14.9679 7.01021 14.8328 7.08381 14.7224L9.08381 11.7224C9.1574 11.612 9.27184 11.5354 9.40194 11.5093C9.53205 11.4833 9.66716 11.51 9.77756 11.5836C9.88795 11.6572 9.96459 11.7717 9.99061 11.9018C10.0166 12.0319 9.9899 12.167 9.91631 12.2774ZM14.4919 5.47176C14.421 4.25811 13.8874 3.11786 13.001 2.2858C12.1146 1.45375 10.9429 0.993231 9.72718 0.999078C8.51147 1.00493 7.34427 1.47669 6.46593 2.31723C5.58759 3.15778 5.06497 4.30311 5.00568 5.51739C4.99839 5.64697 4.94209 5.76893 4.84819 5.85853C4.75429 5.94813 4.62984 5.99867 4.50006 5.99989H4.46256C4.33056 5.98809 4.20838 5.92526 4.12201 5.82476C4.03563 5.72426 3.99188 5.59403 4.00006 5.46176C4.01743 5.11412 4.06617 4.76876 4.14568 4.42989C4.15594 4.38734 4.15485 4.34284 4.14251 4.30085C4.13018 4.25885 4.10704 4.22083 4.0754 4.19059C4.04376 4.16034 4.00474 4.13893 3.96223 4.1285C3.91973 4.11807 3.87523 4.11898 3.83318 4.13114C3.15636 4.3311 2.56285 4.74558 2.14204 5.31214C1.72124 5.8787 1.49593 6.56666 1.50006 7.27239C1.51256 9.06676 3.00756 10.4999 4.80256 10.4999H7.06568L5.58381 12.7224C5.51021 12.8328 5.48348 12.9679 5.5095 13.098C5.53552 13.2281 5.61216 13.3425 5.72256 13.4161C5.83295 13.4897 5.96806 13.5165 6.09817 13.4904C6.22827 13.4644 6.34271 13.3878 6.41631 13.2774L8.26756 10.4999H9.75006C10.397 10.4992 11.0371 10.3664 11.631 10.1098C12.2249 9.85312 12.7602 9.47797 13.2041 9.00727C13.648 8.53658 13.9912 7.98024 14.2126 7.37232C14.434 6.7644 14.5291 6.11769 14.4919 5.47176Z" fill="black"/>
</g>
<defs>
<clipPath id="clip0_5_668">
<rect width="16" height="16" fill="white"/>
</clipPath>
</defs>
</svg>
