<svg width="16" height="16" viewBox="0 0 16 16" fill="none" xmlns="http://www.w3.org/2000/svg">
<g clip-path="url(#clip0_5_1017)">
<path d="M10.25 4.50013C9.82213 4.49987 9.39622 4.55726 8.98371 4.67075C8.82088 4.40507 8.62307 4.16248 8.39559 3.9495L8.98996 3.10138C9.02764 3.04758 9.05434 2.98688 9.06856 2.92276C9.08278 2.85864 9.08422 2.79234 9.07282 2.72766C9.06142 2.66298 9.03738 2.60118 9.0021 2.54578C8.96681 2.49039 8.92095 2.44249 8.86715 2.40482C8.81335 2.36714 8.75266 2.34044 8.68853 2.32622C8.62441 2.312 8.55812 2.31056 8.49344 2.32196C8.42875 2.33336 8.36695 2.3574 8.31156 2.39269C8.25616 2.42797 8.20826 2.47383 8.17059 2.52763L7.57621 3.37513C7.08744 3.12834 6.54751 2.99989 5.99996 3.00013C5.96309 3.00013 5.92746 3.00013 5.89121 3.00013L5.71059 1.982C5.70111 1.91566 5.67839 1.85191 5.64378 1.79452C5.60917 1.73713 5.56338 1.68729 5.50913 1.64795C5.45488 1.60861 5.39327 1.58058 5.32797 1.56552C5.26267 1.55046 5.19501 1.54868 5.12901 1.56029C5.06301 1.5719 5.00001 1.59666 4.94377 1.63309C4.88753 1.66953 4.83918 1.7169 4.80161 1.77239C4.76403 1.82787 4.738 1.89035 4.72504 1.9561C4.71209 2.02185 4.71249 2.08953 4.72621 2.15513L4.90621 3.17638C4.35169 3.35979 3.85176 3.67882 3.45184 4.1045L2.60059 3.50888C2.54683 3.47028 2.48594 3.44274 2.42146 3.42785C2.35698 3.41296 2.29018 3.41102 2.22494 3.42214C2.1597 3.43326 2.09732 3.45723 2.04141 3.49264C1.9855 3.52805 1.93718 3.57421 1.89925 3.62844C1.86132 3.68268 1.83453 3.7439 1.82044 3.80856C1.80634 3.87322 1.80523 3.94004 1.81716 4.00514C1.82908 4.07023 1.85381 4.13231 1.88991 4.18778C1.92602 4.24325 1.97277 4.29099 2.02746 4.32825L2.87496 4.92325C2.6273 5.41193 2.4988 5.95228 2.49996 6.50013C2.49996 6.53575 2.49996 6.572 2.49996 6.60763L1.48184 6.78763C1.35861 6.80922 1.24794 6.87622 1.1717 6.97541C1.09545 7.0746 1.05916 7.19878 1.06999 7.32342C1.08083 7.44806 1.13799 7.56411 1.2302 7.64866C1.32242 7.73321 1.44298 7.78012 1.56809 7.78013C1.59721 7.78009 1.62627 7.77758 1.65496 7.77263L2.67496 7.59263C2.76458 7.86549 2.8876 8.12621 3.04121 8.36888C2.56296 8.81311 2.22955 9.39105 2.0844 10.0274C1.93926 10.6638 1.9891 11.3292 2.22745 11.9369C2.46579 12.5445 2.88159 13.0663 3.4207 13.4344C3.9598 13.8024 4.59723 13.9995 5.24996 14.0001H10.25C11.5097 14.0001 12.7179 13.4997 13.6087 12.6089C14.4995 11.7181 15 10.5099 15 9.25013C15 7.99035 14.4995 6.78217 13.6087 5.89137C12.7179 5.00057 11.5097 4.50013 10.25 4.50013ZM5.80746 7.54763C5.15018 7.43417 4.47391 7.52514 3.86996 7.80825C3.53577 7.25627 3.42795 6.59644 3.56906 5.96678C3.71017 5.33713 4.08927 4.78642 4.62708 4.42985C5.16488 4.07328 5.81973 3.93846 6.45464 4.0536C7.08956 4.16874 7.65536 4.52492 8.03371 5.04763C7.01377 5.58438 6.22287 6.47253 5.80746 7.54763Z" fill="black"/>
</g>
<defs>
<clipPath id="clip0_5_1017">
<rect width="16" height="16" fill="white"/>
</clipPath>
</defs>
</svg>
