<svg width="16" height="16" viewBox="0 0 16 16" fill="none" xmlns="http://www.w3.org/2000/svg">
<g clip-path="url(#clip0_5_991)">
<path d="M15 9.00006C14.9997 9.61931 14.8352 10.2274 14.5232 10.7623C14.2112 11.2972 13.7628 11.7397 13.2239 12.0448C12.685 12.3498 12.0748 12.5063 11.4556 12.4985C10.8364 12.4906 10.2303 12.3186 9.69933 12.0001H9.42183L9.9787 13.8563C10.0011 13.931 10.0058 14.0098 9.99227 14.0866C9.97878 14.1633 9.94754 14.2359 9.90102 14.2984C9.85451 14.361 9.79402 14.4118 9.72439 14.4468C9.65475 14.4818 9.57789 14.5 9.49995 14.5001H6.49995C6.42201 14.5 6.34515 14.4818 6.27552 14.4468C6.20588 14.4118 6.14539 14.361 6.09888 14.2984C6.05237 14.2359 6.02112 14.1633 6.00764 14.0866C5.99415 14.0098 5.99879 13.931 6.0212 13.8563L6.57808 12.0001H6.30058C5.83812 12.278 5.31768 12.4452 4.7799 12.4887C4.24212 12.5322 3.70157 12.4507 3.20047 12.2507C2.69937 12.0508 2.25129 11.7376 1.89122 11.3358C1.53116 10.934 1.26887 10.4544 1.12483 9.93444C0.980795 9.41449 0.958915 8.86827 1.0609 8.33847C1.16289 7.80866 1.38598 7.3096 1.71275 6.88028C2.03952 6.45096 2.46112 6.10299 2.94461 5.86356C3.42811 5.62414 3.96042 5.49973 4.49995 5.50006C4.5487 5.50006 4.59683 5.50006 4.64558 5.50006C4.49 4.9777 4.45856 4.42622 4.55377 3.88956C4.64898 3.35291 4.86821 2.8459 5.19399 2.40894C5.51978 1.97198 5.94311 1.61715 6.43026 1.37271C6.91741 1.12827 7.45491 1.00098 7.99995 1.00098C8.54499 1.00098 9.0825 1.12827 9.56965 1.37271C10.0568 1.61715 10.4801 1.97198 10.8059 2.40894C11.1317 2.8459 11.3509 3.35291 11.4461 3.88956C11.5413 4.42622 11.5099 4.9777 11.3543 5.50006C11.4025 5.50006 11.4512 5.50006 11.5 5.50006C12.4279 5.50105 13.3176 5.87012 13.9737 6.52628C14.6299 7.18245 14.999 8.07211 15 9.00006Z" fill="black"/>
</g>
<defs>
<clipPath id="clip0_5_991">
<rect width="16" height="16" fill="white"/>
</clipPath>
</defs>
</svg>
