<svg width="16" height="16" viewBox="0 0 16 16" fill="none" xmlns="http://www.w3.org/2000/svg">
<g clip-path="url(#clip0_5_985)">
<path d="M14.7369 5.5626L8.23687 2.0626C8.16406 2.02343 8.08268 2.00293 8 2.00293C7.91732 2.00293 7.83594 2.02343 7.76312 2.0626L1.26312 5.5626C1.18401 5.60516 1.11782 5.66825 1.07152 5.74524C1.02521 5.82222 1.00051 5.91026 1 6.0001V10.0001C1.00051 10.0899 1.02521 10.178 1.07152 10.255C1.11782 10.332 1.18401 10.395 1.26312 10.4376L7.13125 13.6001C7.16933 13.6207 7.2121 13.631 7.25537 13.63C7.29864 13.6291 7.34092 13.617 7.37809 13.5948C7.41525 13.5726 7.44603 13.5412 7.4674 13.5035C7.48877 13.4659 7.5 13.4234 7.5 13.3801V9.79885L4.15938 8.0001L2 9.16323V6.83698L4.15938 8.0001L5.21438 7.43198L2.55437 6.0001L7.5 3.33697V6.20135L5.21438 7.43198L8 8.93198L10.7856 7.43198L11.8406 8.0001L14 6.83698V9.16323L11.8406 8.0001L8.5 9.79885V13.3801C8.5 13.4234 8.51123 13.4659 8.5326 13.5035C8.55397 13.5412 8.58475 13.5726 8.62191 13.5948C8.65908 13.617 8.70136 13.6291 8.74463 13.63C8.7879 13.631 8.83067 13.6207 8.86875 13.6001L14.7369 10.4376C14.816 10.395 14.8822 10.332 14.9285 10.255C14.9748 10.178 14.9995 10.0899 15 10.0001V6.0001C14.9995 5.91026 14.9748 5.82222 14.9285 5.74524C14.8822 5.66825 14.816 5.60516 14.7369 5.5626ZM10.7856 7.4376L8.5 6.20135V3.33697L13.4456 6.0001L10.7856 7.4376Z" fill="black"/>
</g>
<defs>
<clipPath id="clip0_5_985">
<rect width="16" height="16" fill="white"/>
</clipPath>
</defs>
</svg>
