<svg width="16" height="16" viewBox="0 0 16 16" fill="none" xmlns="http://www.w3.org/2000/svg">
<g clip-path="url(#clip0_5_984)">
<path d="M14.3681 4.51584C14.2768 4.35636 14.1431 4.22527 13.9819 4.13709L8.48 1.12521C8.33294 1.04435 8.16783 1.00195 8 1.00195C7.83217 1.00195 7.66706 1.04435 7.52 1.12521L2.02 4.13646C1.85876 4.22464 1.72508 4.35573 1.63375 4.51521C1.54669 4.66615 1.50059 4.83722 1.5 5.01146V10.989C1.50041 11.168 1.54888 11.3437 1.64034 11.4976C1.73181 11.6515 1.86293 11.778 2.02 11.864L7.52 14.8746C7.66695 14.9558 7.83211 14.9984 8 14.9984C8.16789 14.9984 8.33305 14.9558 8.48 14.8746L13.98 11.864C14.1371 11.778 14.2682 11.6515 14.3597 11.4976C14.4511 11.3437 14.4996 11.168 14.5 10.989V5.01146C14.4999 4.8376 14.4544 4.66677 14.3681 4.51584ZM7.5 13.7258L5.5 12.6308V9.50021C5.4998 9.41069 5.47556 9.32286 5.42983 9.24591C5.38409 9.16895 5.31853 9.10568 5.24 9.06271L2.5 7.56271V5.56271L7.5 8.30021V13.7258ZM8 7.43021L3.04125 4.71521L5.19625 3.53584L7.75875 4.93896C7.83234 4.97922 7.91487 5.00033 7.99875 5.00033C8.08263 5.00033 8.16516 4.97922 8.23875 4.93896L10.8013 3.53584L12.9563 4.71521L8 7.43021ZM13.5 7.56146L10.76 9.06146C10.6815 9.10443 10.6159 9.1677 10.5702 9.24466C10.5244 9.32162 10.5002 9.40944 10.5 9.49896V12.6296L8.5 13.7246V8.29646L13.5 5.55896V7.56146Z" fill="black"/>
</g>
<defs>
<clipPath id="clip0_5_984">
<rect width="16" height="16" fill="white"/>
</clipPath>
</defs>
</svg>
