<svg width="16" height="16" viewBox="0 0 16 16" fill="none" xmlns="http://www.w3.org/2000/svg">
<g clip-path="url(#clip0_5_661)">
<path d="M4.45126 11.9042C3.78181 12.208 3.06756 12.4013 2.33626 12.4767C2.28798 12.4817 2.23927 12.4726 2.1961 12.4504C2.15293 12.4282 2.11715 12.3939 2.09314 12.3517C1.55126 11.3967 1.37314 10.2086 1.59314 8.90481C1.87376 7.22231 2.78626 5.53793 4.16314 4.16106C5.54001 2.78418 7.22564 1.87168 8.90689 1.59106C10.3313 1.35418 11.6175 1.59106 12.6125 2.25356C12.6532 2.2803 12.6852 2.31835 12.7046 2.36304C12.724 2.40773 12.7299 2.45711 12.7216 2.50511C12.7133 2.55312 12.6912 2.59765 12.6579 2.63323C12.6247 2.66882 12.5817 2.69392 12.5344 2.70543C12.066 2.81708 11.6093 2.97321 11.1706 3.17168C9.81001 3.79043 8.07064 5.11293 7.51314 7.90293C7.13126 9.79543 6.10189 11.1417 4.45126 11.9042ZM13.9069 3.64856C13.8829 3.60647 13.8472 3.57226 13.8042 3.55007C13.7611 3.52787 13.7126 3.51867 13.6644 3.52356C12.9328 3.59841 12.2183 3.79177 11.5488 4.09606C9.89814 4.85856 8.86876 6.20481 8.49001 8.09606C7.93189 10.8861 6.19314 12.2086 4.83251 12.8273C4.39381 13.0258 3.93715 13.1819 3.46876 13.2936C3.42037 13.3045 3.37631 13.3295 3.34221 13.3656C3.30811 13.4016 3.2855 13.447 3.27725 13.4959C3.26901 13.5448 3.27551 13.5951 3.29592 13.6403C3.31634 13.6855 3.34974 13.7236 3.39189 13.7498C4.13376 14.2448 5.03689 14.4998 6.03876 14.4998C6.39313 14.4988 6.74682 14.4687 7.09626 14.4098C8.77814 14.1292 10.4631 13.2167 11.84 11.8398C13.2169 10.4629 14.1294 8.77731 14.41 7.09606C14.625 5.79231 14.4488 4.60356 13.9069 3.64856Z" fill="black"/>
</g>
<defs>
<clipPath id="clip0_5_661">
<rect width="16" height="16" fill="white"/>
</clipPath>
</defs>
</svg>
