<svg width="16" height="16" viewBox="0 0 16 16" fill="none" xmlns="http://www.w3.org/2000/svg">
<g clip-path="url(#clip0_5_970)">
<path d="M12.9618 7.69115C12.924 7.78253 12.8599 7.86063 12.7777 7.91558C12.6955 7.97054 12.5988 7.99988 12.4999 7.99991H3.49991C3.40096 7.99998 3.30421 7.9707 3.22191 7.91577C3.13962 7.86083 3.07547 7.78271 3.03759 7.6913C2.99972 7.59989 2.98982 7.49929 3.00914 7.40225C3.02847 7.30521 3.07615 7.21608 3.14616 7.14615L7.64616 2.64616C7.69259 2.59967 7.74774 2.56279 7.80844 2.53763C7.86913 2.51246 7.9342 2.49951 7.99991 2.49951C8.06561 2.49951 8.13068 2.51246 8.19138 2.53763C8.25207 2.56279 8.30722 2.59967 8.35366 2.64616L12.8537 7.14615C12.9236 7.21612 12.9711 7.30524 12.9904 7.40225C13.0096 7.49926 12.9997 7.5998 12.9618 7.69115Z" fill="black"/>
</g>
<defs>
<clipPath id="clip0_5_970">
<rect width="16" height="16" fill="white"/>
</clipPath>
</defs>
</svg>
