<svg width="16" height="16" viewBox="0 0 16 16" fill="none" xmlns="http://www.w3.org/2000/svg">
<g clip-path="url(#clip0_5_961)">
<path d="M9.49991 5.99991V2.99991C9.49983 2.90096 9.52911 2.80421 9.58405 2.72191C9.63898 2.63962 9.7171 2.57547 9.80851 2.53759C9.89992 2.49972 10.0005 2.48982 10.0976 2.50914C10.1946 2.52847 10.2837 2.57615 10.3537 2.64616L13.3537 5.64616C13.4237 5.71608 13.4713 5.80521 13.4907 5.90225C13.51 5.99929 13.5001 6.09989 13.4622 6.1913C13.4243 6.28271 13.3602 6.36083 13.2779 6.41577C13.1956 6.4707 13.0989 6.49998 12.9999 6.49991H9.99991C9.8673 6.49991 9.74012 6.44723 9.64635 6.35346C9.55258 6.25969 9.49991 6.13251 9.49991 5.99991ZM5.99991 9.49991H2.99991C2.90096 9.49983 2.80421 9.52911 2.72191 9.58405C2.63962 9.63898 2.57547 9.7171 2.53759 9.80851C2.49972 9.89992 2.48982 10.0005 2.50914 10.0976C2.52847 10.1946 2.57615 10.2837 2.64616 10.3537L5.64616 13.3537C5.71608 13.4237 5.80521 13.4713 5.90225 13.4907C5.99929 13.51 6.09989 13.5001 6.1913 13.4622C6.28271 13.4243 6.36083 13.3602 6.41577 13.2779C6.4707 13.1956 6.49998 13.0989 6.49991 12.9999V9.99991C6.49991 9.8673 6.44723 9.74012 6.35346 9.64635C6.25969 9.55258 6.13251 9.49991 5.99991 9.49991ZM6.19116 2.53803C6.0998 2.50013 5.99926 2.49018 5.90225 2.50942C5.80524 2.52867 5.71612 2.57625 5.64616 2.64616L2.64616 5.64616C2.57615 5.71608 2.52847 5.80521 2.50914 5.90225C2.48982 5.99929 2.49972 6.09989 2.53759 6.1913C2.57547 6.28271 2.63962 6.36083 2.72191 6.41577C2.80421 6.4707 2.90096 6.49998 2.99991 6.49991H5.99991C6.13251 6.49991 6.25969 6.44723 6.35346 6.35346C6.44723 6.25969 6.49991 6.13251 6.49991 5.99991V2.99991C6.49989 2.90102 6.47054 2.80435 6.41558 2.72214C6.36063 2.63993 6.28253 2.57586 6.19116 2.53803ZM12.9999 9.49991H9.99991C9.8673 9.49991 9.74012 9.55258 9.64635 9.64635C9.55258 9.74012 9.49991 9.8673 9.49991 9.99991V12.9999C9.49983 13.0989 9.52911 13.1956 9.58405 13.2779C9.63898 13.3602 9.7171 13.4243 9.80851 13.4622C9.89992 13.5001 10.0005 13.51 10.0976 13.4907C10.1946 13.4713 10.2837 13.4237 10.3537 13.3537L13.3537 10.3537C13.4237 10.2837 13.4713 10.1946 13.4907 10.0976C13.51 10.0005 13.5001 9.89992 13.4622 9.80851C13.4243 9.7171 13.3602 9.63898 13.2779 9.58405C13.1956 9.52911 13.0989 9.49983 12.9999 9.49991Z" fill="black"/>
</g>
<defs>
<clipPath id="clip0_5_961">
<rect width="16" height="16" fill="white"/>
</clipPath>
</defs>
</svg>
