<svg width="16" height="16" viewBox="0 0 16 16" fill="none" xmlns="http://www.w3.org/2000/svg">
<g clip-path="url(#clip0_5_954)">
<path d="M6.49983 12C6.49983 12.1326 6.44715 12.2598 6.35338 12.3536C6.25961 12.4473 6.13243 12.5 5.99983 12.5H4.99983C4.86722 12.5 4.74004 12.4473 4.64627 12.3536C4.5525 12.2598 4.49983 12.1326 4.49983 12C4.49983 11.8674 4.5525 11.7402 4.64627 11.6464C4.74004 11.5527 4.86722 11.5 4.99983 11.5H5.99983C6.13243 11.5 6.25961 11.5527 6.35338 11.6464C6.44715 11.7402 6.49983 11.8674 6.49983 12ZM10.9998 11.5H9.99983C9.86722 11.5 9.74004 11.5527 9.64627 11.6464C9.5525 11.7402 9.49983 11.8674 9.49983 12C9.49983 12.1326 9.5525 12.2598 9.64627 12.3536C9.74004 12.4473 9.86722 12.5 9.99983 12.5H10.9998C11.1324 12.5 11.2596 12.4473 11.3534 12.3536C11.4471 12.2598 11.4998 12.1326 11.4998 12C11.4998 11.8674 11.4471 11.7402 11.3534 11.6464C11.2596 11.5527 11.1324 11.5 10.9998 11.5ZM15.2742 7.6325C15.1804 7.74733 15.0623 7.83987 14.9284 7.90343C14.7945 7.96699 14.6481 7.99997 14.4998 8H12.4998V10C12.9196 10.3148 13.2297 10.7537 13.3861 11.2546C13.5426 11.7554 13.5375 12.2928 13.3715 12.7906C13.2056 13.2883 12.8873 13.7213 12.4616 14.0281C12.0359 14.3349 11.5245 14.5 10.9998 14.5H4.99983C4.47512 14.5 3.96371 14.3349 3.53805 14.0281C3.11239 13.7213 2.79404 13.2883 2.62812 12.7906C2.46219 12.2928 2.45709 11.7554 2.61354 11.2546C2.76999 10.7537 3.08006 10.3148 3.49983 10V8H1.49983C1.35275 7.99976 1.20754 7.96708 1.07455 7.90429C0.941549 7.8415 0.824039 7.75015 0.73039 7.63675C0.636742 7.52334 0.569261 7.39068 0.532757 7.24821C0.496253 7.10573 0.491624 6.95696 0.519201 6.8125C0.679522 6.02003 1.10866 5.30726 1.73401 4.79476C2.35937 4.28227 3.14255 4.00152 3.95108 4H4.05358C3.71991 3.67476 3.45476 3.28598 3.27378 2.8566C3.0928 2.42723 2.99965 1.96596 2.99983 1.5C2.99983 1.36739 3.0525 1.24021 3.14627 1.14645C3.24004 1.05268 3.36722 1 3.49983 1C3.63243 1 3.75961 1.05268 3.85338 1.14645C3.94715 1.24021 3.99983 1.36739 3.99983 1.5C3.99983 2.16304 4.26322 2.79893 4.73206 3.26777C5.2009 3.73661 5.83678 4 6.49983 4H9.49983C9.82813 4 10.1532 3.93534 10.4565 3.8097C10.7598 3.68406 11.0354 3.49991 11.2676 3.26777C11.4997 3.03562 11.6839 2.76002 11.8095 2.45671C11.9352 2.15339 11.9998 1.8283 11.9998 1.5C11.9998 1.36739 12.0525 1.24021 12.1463 1.14645C12.24 1.05268 12.3672 1 12.4998 1C12.6324 1 12.7596 1.05268 12.8534 1.14645C12.9471 1.24021 12.9998 1.36739 12.9998 1.5C13 1.96596 12.9068 2.42723 12.7259 2.8566C12.5449 3.28598 12.2797 3.67476 11.9461 4H12.0486C12.8571 4.00152 13.6403 4.28227 14.2656 4.79476C14.891 5.30726 15.3201 6.02003 15.4805 6.8125C15.5088 6.95593 15.5051 7.10387 15.4694 7.24566C15.4337 7.38745 15.3671 7.51957 15.2742 7.6325ZM8.99983 7.75C8.99983 7.89834 9.04381 8.04334 9.12622 8.16668C9.20863 8.29001 9.32577 8.38614 9.46281 8.44291C9.59986 8.49967 9.75066 8.51453 9.89614 8.48559C10.0416 8.45665 10.1753 8.38522 10.2802 8.28033C10.385 8.17544 10.4565 8.0418 10.4854 7.89632C10.5144 7.75083 10.4995 7.60003 10.4427 7.46299C10.386 7.32594 10.2898 7.20881 10.1665 7.1264C10.0432 7.04399 9.89816 7 9.74983 7C9.55091 7 9.36015 7.07902 9.2195 7.21967C9.07884 7.36032 8.99983 7.55109 8.99983 7.75ZM5.49983 7.75C5.49983 7.89834 5.54381 8.04334 5.62622 8.16668C5.70863 8.29001 5.82577 8.38614 5.96281 8.44291C6.09986 8.49967 6.25066 8.51453 6.39614 8.48559C6.54163 8.45665 6.67527 8.38522 6.78016 8.28033C6.88505 8.17544 6.95648 8.0418 6.98541 7.89632C7.01435 7.75083 6.9995 7.60003 6.94274 7.46299C6.88597 7.32594 6.78984 7.20881 6.6665 7.1264C6.54317 7.04399 6.39816 7 6.24983 7C6.05091 7 5.86015 7.07902 5.7195 7.21967C5.57884 7.36032 5.49983 7.55109 5.49983 7.75ZM3.49983 7V6.5C3.49896 5.95894 3.6745 5.43234 3.99983 5H3.94983C3.37378 5.00094 2.81565 5.20033 2.36941 5.56461C1.92316 5.92889 1.61607 6.4358 1.49983 7H3.49983ZM12.4998 12C12.4998 11.6022 12.3418 11.2206 12.0605 10.9393C11.7792 10.658 11.3976 10.5 10.9998 10.5H4.99983C4.602 10.5 4.22047 10.658 3.93917 10.9393C3.65786 11.2206 3.49983 11.6022 3.49983 12C3.49983 12.3978 3.65786 12.7794 3.93917 13.0607C4.22047 13.342 4.602 13.5 4.99983 13.5H10.9998C11.3976 13.5 11.7792 13.342 12.0605 13.0607C12.3418 12.7794 12.4998 12.3978 12.4998 12ZM14.4998 7C14.3837 6.43575 14.0766 5.92877 13.6304 5.56447C13.1841 5.20017 12.6259 5.00082 12.0498 5H11.9998C12.3252 5.43234 12.5007 5.95894 12.4998 6.5V7H14.4998Z" fill="black"/>
</g>
<defs>
<clipPath id="clip0_5_954">
<rect width="16" height="16" fill="white"/>
</clipPath>
</defs>
</svg>
