<svg width="16" height="16" viewBox="0 0 16 16" fill="none" xmlns="http://www.w3.org/2000/svg">
<g clip-path="url(#clip0_5_1653)">
<path d="M13.5 7.50019C13.4152 7.50023 13.3319 7.52182 13.2578 7.56292C13.1836 7.60403 13.1212 7.66331 13.0763 7.73519C12.8153 8.15454 12.5269 8.55625 12.2131 8.93769L12.1112 8.40206L11.145 3.31706C11.1132 3.14737 11.038 2.98879 10.9268 2.85677C10.8156 2.72475 10.672 2.62377 10.5102 2.56368C10.3483 2.50358 10.1737 2.48641 10.0032 2.51384C9.83277 2.54127 9.67233 2.61235 9.5375 2.72019L9.52938 2.72644L8 4.00019L6.47062 2.72644L6.4625 2.72019C6.32776 2.61236 6.1674 2.54125 5.99704 2.51375C5.82667 2.48626 5.65208 2.50332 5.49026 2.56328C5.32844 2.62324 5.18489 2.72405 5.07357 2.85592C4.96225 2.98779 4.88695 3.14622 4.855 3.31581L3.88937 8.39894L3.78688 8.93769C3.47295 8.55611 3.18461 8.1542 2.92375 7.73456C2.87875 7.6628 2.81626 7.60365 2.74214 7.56265C2.66802 7.52166 2.5847 7.50016 2.5 7.50019C1.83696 7.50019 1.20107 7.76358 0.732233 8.23242C0.263392 8.70126 0 9.33714 0 10.0002C0 10.6632 0.263392 11.2991 0.732233 11.768C1.20107 12.2368 1.83696 12.5002 2.5 12.5002H13.5C14.163 12.5002 14.7989 12.2368 15.2678 11.768C15.7366 11.2991 16 10.6632 16 10.0002C16 9.33714 15.7366 8.70126 15.2678 8.23242C14.7989 7.76358 14.163 7.50019 13.5 7.50019ZM4.7925 9.00019H11.2069L11.3656 9.83456C10.8574 10.3124 10.2814 10.7126 9.65625 11.0221C8.69375 11.4858 8.00375 11.5002 8 11.5002C7.97937 11.5002 6.40688 11.4752 4.63375 9.83769L4.7925 9.00019Z" fill="black"/>
</g>
<defs>
<clipPath id="clip0_5_1653">
<rect width="16" height="16" fill="white"/>
</clipPath>
</defs>
</svg>
