<svg width="16" height="16" viewBox="0 0 16 16" fill="none" xmlns="http://www.w3.org/2000/svg">
<g clip-path="url(#clip0_5_1518)">
<path d="M7.98325 13H7.00012V10.25C7.00012 10.1837 6.97378 10.1201 6.9269 10.0732C6.88001 10.0263 6.81643 10 6.75012 10H2.75012C2.68382 10 2.62023 10.0263 2.57335 10.0732C2.52646 10.1201 2.50012 10.1837 2.50012 10.25V13H1.517C1.38775 12.9979 1.26253 13.045 1.1666 13.1316C1.07068 13.2183 1.01118 13.3381 1.00012 13.4669C0.995581 13.5353 1.00515 13.6039 1.02824 13.6684C1.05132 13.7329 1.08743 13.792 1.13432 13.842C1.18121 13.892 1.23788 13.9319 1.30081 13.959C1.36374 13.9862 1.43158 14.0002 1.50012 14H8.00012C8.06867 14.0002 8.13651 13.9862 8.19944 13.959C8.26236 13.9319 8.31903 13.892 8.36592 13.842C8.41281 13.792 8.44892 13.7329 8.47201 13.6684C8.49509 13.6039 8.50466 13.5353 8.50012 13.4669C8.48906 13.3381 8.42957 13.2183 8.33364 13.1316C8.23772 13.045 8.1125 12.9979 7.98325 13Z" fill="black"/>
<path d="M14.9832 5H6.80887L5.44762 2.27625C5.40605 2.19318 5.34217 2.12333 5.26313 2.07454C5.18408 2.02574 5.09301 1.99993 5.00012 2H3.00012C2.86751 2 2.74034 2.05268 2.64657 2.14645C2.5528 2.24022 2.50012 2.36739 2.50012 2.5V5H1.517C1.38775 4.99794 1.26253 5.04498 1.1666 5.13163C1.07068 5.21828 1.01118 5.33808 1.00012 5.46688C0.995581 5.53527 1.00515 5.60387 1.02824 5.6684C1.05132 5.73294 1.08743 5.79205 1.13432 5.84204C1.18121 5.89204 1.23788 5.93186 1.30081 5.95903C1.36374 5.98621 1.43158 6.00015 1.50012 6H2.50012V8.75C2.50012 8.8163 2.52646 8.87989 2.57335 8.92678C2.62023 8.97366 2.68382 9 2.75012 9H6.75012C6.81643 9 6.88001 8.97366 6.9269 8.92678C6.97378 8.87989 7.00012 8.8163 7.00012 8.75V6H13.0001V11.5H12.0001V11.0169C12.0017 10.8879 11.9545 10.7631 11.8679 10.6674C11.7813 10.5718 11.6618 10.5124 11.5332 10.5013C11.4649 10.4967 11.3963 10.5063 11.3317 10.5294C11.2672 10.5525 11.2081 10.5886 11.1581 10.6354C11.1081 10.6823 11.0683 10.739 11.0411 10.8019C11.0139 10.8649 11 10.9327 11.0001 11.0013V11.5013C11.0001 11.7665 11.1055 12.0208 11.293 12.2084C11.4806 12.3959 11.7349 12.5013 12.0001 12.5013H13.0001C13.2653 12.5013 13.5197 12.3959 13.7072 12.2084C13.8948 12.0208 14.0001 11.7665 14.0001 11.5013V6H15.0001C15.0687 6.00015 15.1365 5.98621 15.1994 5.95903C15.2624 5.93186 15.319 5.89204 15.3659 5.84204C15.4128 5.79205 15.4489 5.73294 15.472 5.6684C15.4951 5.60387 15.5047 5.53527 15.5001 5.46688C15.4891 5.33808 15.4296 5.21828 15.3336 5.13163C15.2377 5.04498 15.1125 4.99794 14.9832 5ZM3.50012 5V3H4.69137L5.69137 5H3.50012Z" fill="black"/>
</g>
<defs>
<clipPath id="clip0_5_1518">
<rect width="16" height="16" fill="white"/>
</clipPath>
</defs>
</svg>
