<svg width="16" height="16" viewBox="0 0 16 16" fill="none" xmlns="http://www.w3.org/2000/svg">
<g clip-path="url(#clip0_5_1690)">
<path d="M15.2069 5.08547L11.9144 1.79297C11.8215 1.70009 11.7113 1.62641 11.5899 1.57614C11.4686 1.52587 11.3385 1.5 11.2072 1.5C11.0758 1.5 10.9458 1.52587 10.8245 1.57614C10.7031 1.62641 10.5929 1.70009 10.5 1.79297L3.79312 8.49985C3.70024 8.59271 3.62656 8.70296 3.57629 8.8243C3.52602 8.94564 3.50015 9.0757 3.50015 9.20704C3.50015 9.33838 3.52602 9.46843 3.57629 9.58977C3.62656 9.71111 3.70024 9.82136 3.79312 9.91422L5.08563 11.2067L2.14812 14.1442C2.0543 14.238 2.0016 14.3653 2.0016 14.498C2.0016 14.6307 2.0543 14.7579 2.14812 14.8517C2.24195 14.9455 2.36919 14.9983 2.50187 14.9983C2.63456 14.9983 2.7618 14.9455 2.85562 14.8517L5.79313 11.9142L7.08563 13.2067C7.17849 13.2996 7.28874 13.3733 7.41008 13.4236C7.53142 13.4738 7.66147 13.4997 7.79281 13.4997C7.92415 13.4997 8.05421 13.4738 8.17555 13.4236C8.29689 13.3733 8.40714 13.2996 8.5 13.2067L15.2069 6.49985C15.2998 6.40699 15.3734 6.29674 15.4237 6.1754C15.474 6.05406 15.4998 5.924 15.4998 5.79266C15.4998 5.66132 15.474 5.53127 15.4237 5.40992C15.3734 5.28858 15.2998 5.17834 15.2069 5.08547ZM7.79313 12.4998L6.5 11.2067L8.35375 9.3536C8.44757 9.25978 8.50028 9.13253 8.50028 8.99985C8.50028 8.86717 8.44757 8.73992 8.35375 8.6461C8.25993 8.55228 8.13268 8.49957 8 8.49957C7.86732 8.49957 7.74007 8.55228 7.64625 8.6461L5.79313 10.4998L4.5 9.20672L6.70687 6.99985H10V10.293L7.79313 12.4998ZM2 3.74985C2 3.40373 2.10264 3.06539 2.29493 2.7776C2.48722 2.48982 2.76053 2.26551 3.0803 2.13306C3.40007 2.00061 3.75194 1.96595 4.09141 2.03347C4.43088 2.101 4.74269 2.26767 4.98744 2.51241C5.23218 2.75715 5.39885 3.06897 5.46637 3.40844C5.5339 3.74791 5.49924 4.09977 5.36679 4.41954C5.23434 4.73932 5.01003 5.01263 4.72225 5.20492C4.43446 5.39721 4.09612 5.49985 3.75 5.49985C3.28587 5.49985 2.84075 5.31547 2.51256 4.98729C2.18437 4.6591 2 4.21398 2 3.74985Z" fill="black"/>
</g>
<defs>
<clipPath id="clip0_5_1690">
<rect width="16" height="16" fill="white"/>
</clipPath>
</defs>
</svg>
