<svg width="16" height="16" viewBox="0 0 16 16" fill="none" xmlns="http://www.w3.org/2000/svg">
<g clip-path="url(#clip0_5_942)">
<path d="M15.5 4.99994C15.5002 4.72585 15.4361 4.45553 15.3127 4.21077C15.1893 3.96601 15.0102 3.75365 14.7898 3.5908C14.5693 3.42795 14.3137 3.31915 14.0434 3.27319C13.7732 3.22722 13.496 3.24537 13.2341 3.32617C12.9722 3.40696 12.7329 3.54815 12.5356 3.73835C12.3382 3.92856 12.1883 4.16246 12.0979 4.42121C12.0075 4.67996 11.9791 4.95633 12.0151 5.22805C12.0511 5.49977 12.1504 5.75924 12.305 5.98556L10.6306 8.04806L9.12497 4.58744C9.39957 4.35632 9.59646 4.04636 9.68897 3.69958C9.78148 3.35279 9.76512 2.98595 9.64211 2.64877C9.5191 2.3116 9.2954 2.0204 9.00132 1.81465C8.70724 1.60889 8.35701 1.49854 7.99809 1.49854C7.63918 1.49854 7.28895 1.60889 6.99487 1.81465C6.70079 2.0204 6.47709 2.3116 6.35408 2.64877C6.23107 2.98595 6.21471 3.35279 6.30722 3.69958C6.39972 4.04636 6.59662 4.35632 6.87122 4.58744L5.36934 8.04619L3.69497 5.98369C3.91006 5.66853 4.01625 5.29171 3.99737 4.91061C3.97849 4.52952 3.83558 4.16504 3.5904 3.87268C3.34521 3.58032 3.0112 3.37611 2.63922 3.29114C2.26724 3.20617 1.87769 3.2451 1.52988 3.40201C1.18207 3.55891 0.89508 3.82519 0.712606 4.16029C0.530132 4.49539 0.462177 4.88094 0.519092 5.25823C0.576007 5.63553 0.754673 5.98388 1.02788 6.25024C1.30108 6.51659 1.65386 6.68636 2.03247 6.73369L2.93747 12.1643C2.97638 12.3978 3.09684 12.6099 3.27743 12.7629C3.45802 12.9159 3.68702 12.9999 3.92372 12.9999H12.0762C12.3129 12.9999 12.5419 12.9159 12.7225 12.7629C12.9031 12.6099 13.0236 12.3978 13.0625 12.1643L13.9668 6.73619C14.3901 6.68333 14.7794 6.47772 15.0618 6.158C15.3441 5.83828 15.4999 5.42646 15.5 4.99994ZM7.99997 2.49994C8.14831 2.49994 8.29331 2.54392 8.41665 2.62633C8.53998 2.70874 8.63611 2.82588 8.69288 2.96292C8.74964 3.09997 8.7645 3.25077 8.73556 3.39625C8.70662 3.54174 8.63519 3.67538 8.5303 3.78027C8.42541 3.88515 8.29177 3.95659 8.14629 3.98552C8.0008 4.01446 7.85 3.99961 7.71296 3.94284C7.57591 3.88608 7.45878 3.78995 7.37637 3.66661C7.29396 3.54328 7.24997 3.39827 7.24997 3.24994C7.24997 3.05102 7.32899 2.86026 7.46964 2.7196C7.61029 2.57895 7.80106 2.49994 7.99997 2.49994ZM1.49997 4.99994C1.49997 4.8516 1.54396 4.70659 1.62637 4.58326C1.70878 4.45992 1.82591 4.36379 1.96296 4.30703C2.1 4.25026 2.2508 4.23541 2.39629 4.26435C2.54177 4.29329 2.67541 4.36472 2.7803 4.4696C2.88519 4.57449 2.95662 4.70813 2.98556 4.85362C3.0145 4.9991 2.99964 5.1499 2.94288 5.28695C2.88611 5.42399 2.78998 5.54113 2.66665 5.62354C2.54331 5.70595 2.39831 5.74994 2.24997 5.74994C2.05106 5.74994 1.86029 5.67092 1.71964 5.53027C1.57899 5.38961 1.49997 5.19885 1.49997 4.99994ZM13.75 5.74994C13.6016 5.74994 13.4566 5.70595 13.3333 5.62354C13.21 5.54113 13.1138 5.42399 13.0571 5.28695C13.0003 5.1499 12.9854 4.9991 13.0144 4.85362C13.0433 4.70813 13.1148 4.57449 13.2196 4.4696C13.3245 4.36472 13.4582 4.29329 13.6037 4.26435C13.7491 4.23541 13.8999 4.25026 14.037 4.30703C14.174 4.36379 14.2912 4.45992 14.3736 4.58326C14.456 4.70659 14.5 4.8516 14.5 4.99994C14.5 5.19885 14.421 5.38961 14.2803 5.53027C14.1396 5.67092 13.9489 5.74994 13.75 5.74994Z" fill="black"/>
</g>
<defs>
<clipPath id="clip0_5_942">
<rect width="16" height="16" fill="white"/>
</clipPath>
</defs>
</svg>
