<svg width="16" height="16" viewBox="0 0 16 16" fill="none" xmlns="http://www.w3.org/2000/svg">
<g clip-path="url(#clip0_5_1012)">
<path d="M14.9844 5.67581C14.9844 5.68269 14.9844 5.68894 14.98 5.69581L13.5625 12.1877C13.5189 12.4163 13.3969 12.6225 13.2176 12.7708C13.0382 12.9191 12.8128 13.0002 12.58 13.0002H3.41941C3.18679 13.0001 2.96149 12.9189 2.78227 12.7706C2.60306 12.6223 2.48115 12.4162 2.43753 12.1877L1.02003 5.69581C1.02003 5.68894 1.01691 5.68269 1.01566 5.67581C0.976864 5.46088 1.0095 5.23915 1.10859 5.04451C1.20768 4.84987 1.36777 4.69302 1.56439 4.59793C1.76102 4.50284 1.98336 4.47474 2.19746 4.51792C2.41156 4.56111 2.60564 4.67319 2.75003 4.83706L4.85441 7.10519L7.09191 2.08706C7.09201 2.08498 7.09201 2.08289 7.09191 2.08081C7.17192 1.90728 7.29997 1.7603 7.46091 1.65728C7.62185 1.55426 7.80894 1.49951 8.00003 1.49951C8.19112 1.49951 8.37821 1.55426 8.53915 1.65728C8.70009 1.7603 8.82815 1.90728 8.90816 2.08081C8.90805 2.08289 8.90805 2.08498 8.90816 2.08706L11.1457 7.10519L13.25 4.83706C13.3947 4.67441 13.5886 4.56342 13.8021 4.52094C14.0156 4.47847 14.2371 4.50683 14.4331 4.60172C14.629 4.69661 14.7886 4.85284 14.8877 5.0467C14.9867 5.24055 15.0198 5.46144 14.9819 5.67581H14.9844Z" fill="black"/>
</g>
<defs>
<clipPath id="clip0_5_1012">
<rect width="16" height="16" fill="white"/>
</clipPath>
</defs>
</svg>
