<svg width="16" height="16" viewBox="0 0 16 16" fill="none" xmlns="http://www.w3.org/2000/svg">
<g clip-path="url(#clip0_5_935)">
<path d="M13.893 7.69105L8.39296 0.691046C8.34618 0.631514 8.28648 0.583385 8.21838 0.550291C8.15028 0.517196 8.07556 0.5 7.99984 0.5C7.92412 0.5 7.8494 0.517196 7.7813 0.550291C7.7132 0.583385 7.6535 0.631514 7.60671 0.691046L2.10671 7.69105C2.03758 7.77911 2 7.88783 2 7.9998C2 8.11176 2.03758 8.22048 2.10671 8.30855L7.60671 15.3085C7.6535 15.3681 7.7132 15.4162 7.7813 15.4493C7.8494 15.4824 7.92412 15.4996 7.99984 15.4996C8.07556 15.4996 8.15028 15.4824 8.21838 15.4493C8.28648 15.4162 8.34618 15.3681 8.39296 15.3085L13.893 8.30855C13.9621 8.22048 13.9997 8.11176 13.9997 7.9998C13.9997 7.88783 13.9621 7.77911 13.893 7.69105ZM8.49984 9.72355V2.44542L12.7136 7.80792L8.49984 9.72355ZM7.49984 9.72355L3.28609 7.80792L7.49984 2.44542V9.72355ZM7.49984 10.8217V13.5542L4.16046 9.30417L7.49984 10.8217Z" fill="black"/>
</g>
<defs>
<clipPath id="clip0_5_935">
<rect width="16" height="16" fill="white"/>
</clipPath>
</defs>
</svg>
