<svg width="16" height="16" viewBox="0 0 16 16" fill="none" xmlns="http://www.w3.org/2000/svg">
<g clip-path="url(#clip0_5_1240)">
<path d="M16 7.49988C16 7.63249 15.9473 7.75966 15.8536 7.85343C15.7598 7.9472 15.6326 7.99988 15.5 7.99988H0.5C0.367392 7.99988 0.240215 7.9472 0.146447 7.85343C0.0526784 7.75966 0 7.63249 0 7.49988C0 7.36727 0.0526784 7.24009 0.146447 7.14632C0.240215 7.05256 0.367392 6.99988 0.5 6.99988H2.245L5.21375 2.91175C5.30371 2.78823 5.42079 2.68698 5.55598 2.61575C5.69118 2.54453 5.84089 2.50524 5.99364 2.50089C6.14639 2.49655 6.2981 2.52727 6.43712 2.59069C6.57614 2.65411 6.69879 2.74855 6.79563 2.86675L7.59875 3.798L7.61125 3.81238C7.65779 3.87084 7.71691 3.91805 7.78421 3.9505C7.85152 3.98295 7.92528 3.9998 8 3.9998C8.07472 3.9998 8.14848 3.98295 8.21579 3.9505C8.28309 3.91805 8.34221 3.87084 8.38875 3.81238L8.40125 3.798L9.20438 2.86675C9.30122 2.74855 9.42385 2.65411 9.56288 2.59069C9.7019 2.52727 9.85361 2.49655 10.0064 2.50089C10.1591 2.50524 10.3088 2.54453 10.444 2.61575C10.5792 2.68698 10.6963 2.78823 10.7863 2.91175L13.755 6.99988H15.5C15.6326 6.99988 15.7598 7.05256 15.8536 7.14632C15.9473 7.24009 16 7.36727 16 7.49988ZM11.25 8.99988C10.6966 8.99999 10.1627 9.20402 9.75028 9.57297C9.33785 9.94193 9.07586 10.4499 9.01437 10.9999H6.98562C6.924 10.4504 6.66222 9.94292 6.25026 9.57418C5.8383 9.20543 5.30499 9.00128 4.7521 9.00068C4.19921 9.00008 3.66546 9.20306 3.25269 9.57091C2.83993 9.93875 2.57705 10.4457 2.51422 10.995C2.45139 11.5443 2.59302 12.0975 2.91207 12.5491C3.23112 13.0006 3.70525 13.3189 4.244 13.4431C4.78274 13.5674 5.34837 13.4889 5.83296 13.2227C6.31754 12.9565 6.68715 12.5212 6.87125 11.9999H9.12875C9.26625 12.3888 9.50802 12.7324 9.82763 12.9932C10.1472 13.254 10.5324 13.4219 10.941 13.4785C11.3496 13.5352 11.7659 13.4785 12.1444 13.3145C12.5229 13.1506 12.8491 12.8857 13.0872 12.5489C13.3254 12.2121 13.4663 11.8163 13.4947 11.4048C13.5231 10.9932 13.4378 10.5818 13.2482 10.2155C13.0586 9.84918 12.7719 9.54203 12.4195 9.32764C12.0671 9.11325 11.6625 8.99986 11.25 8.99988Z" fill="black"/>
</g>
<defs>
<clipPath id="clip0_5_1240">
<rect width="16" height="16" fill="white"/>
</clipPath>
</defs>
</svg>
