<svg width="16" height="16" viewBox="0 0 16 16" fill="none" xmlns="http://www.w3.org/2000/svg">
<g clip-path="url(#clip0_5_915)">
<path d="M13.3364 13.87C13.2382 13.9592 13.1087 14.0057 12.9763 13.9994C12.8438 13.993 12.7193 13.9344 12.6301 13.8363L12.4889 13.6812C12.4446 14.045 12.2687 14.3799 11.9945 14.6228C11.7202 14.8658 11.3665 14.9999 11.0001 15H5.00013C4.6023 15 4.22077 14.842 3.93947 14.5607C3.65816 14.2794 3.50013 13.8978 3.50013 13.5V3.79312L2.63013 2.83625C2.58504 2.78782 2.55002 2.73093 2.52709 2.66886C2.50415 2.6068 2.49377 2.5408 2.49653 2.47469C2.49929 2.40858 2.51515 2.34368 2.54318 2.28375C2.57121 2.22381 2.61085 2.17004 2.65982 2.12554C2.70879 2.08104 2.7661 2.0467 2.82843 2.02451C2.89077 2.00233 2.95688 1.99273 3.02295 1.99629C3.08902 1.99984 3.15373 2.01647 3.21333 2.04522C3.27292 2.07397 3.32622 2.11425 3.37013 2.16375L13.3701 13.1637C13.4593 13.2619 13.5058 13.3914 13.4995 13.5239C13.4932 13.6563 13.4345 13.7808 13.3364 13.87ZM11.6301 9.76313C11.698 9.8378 11.7869 9.89019 11.8851 9.91341C11.9833 9.93663 12.0862 9.92958 12.1804 9.8932C12.2745 9.85682 12.3554 9.79281 12.4125 9.70957C12.4696 9.62634 12.5001 9.52779 12.5001 9.42688V2.5C12.5001 2.10218 12.3421 1.72064 12.0608 1.43934C11.7795 1.15804 11.398 1 11.0001 1H4.79388C4.69702 1.00001 4.60226 1.02815 4.5211 1.08099C4.43994 1.13384 4.37587 1.20912 4.33668 1.29769C4.29749 1.38626 4.28487 1.48431 4.30035 1.57991C4.31583 1.67552 4.35874 1.76457 4.42388 1.83625L11.6301 9.76313Z" fill="black"/>
</g>
<defs>
<clipPath id="clip0_5_915">
<rect width="16" height="16" fill="white"/>
</clipPath>
</defs>
</svg>
