<svg width="16" height="16" viewBox="0 0 16 16" fill="none" xmlns="http://www.w3.org/2000/svg">
<g clip-path="url(#clip0_5_911)">
<path d="M12.8537 13.8537L11.3537 15.3537C11.2837 15.4237 11.1946 15.4713 11.0976 15.4907C11.0005 15.51 10.8999 15.5001 10.8085 15.4622C10.7171 15.4243 10.639 15.3602 10.584 15.2779C10.5291 15.1956 10.4998 15.0989 10.4999 14.9999V13.9999H4.99991C4.60208 13.9999 4.22055 13.8419 3.93924 13.5606C3.65794 13.2793 3.49991 12.8977 3.49991 12.4999V6.49991C3.49991 6.3673 3.55258 6.24012 3.64635 6.14635C3.74012 6.05258 3.8673 5.99991 3.99991 5.99991C4.13251 5.99991 4.25969 6.05258 4.35346 6.14635C4.44723 6.24012 4.49991 6.3673 4.49991 6.49991V12.4999C4.49991 12.6325 4.55258 12.7597 4.64635 12.8535C4.74012 12.9472 4.8673 12.9999 4.99991 12.9999H10.4999V11.9999C10.4998 11.901 10.5291 11.8042 10.584 11.7219C10.639 11.6396 10.7171 11.5755 10.8085 11.5376C10.8999 11.4997 11.0005 11.4898 11.0976 11.5091C11.1946 11.5285 11.2837 11.5761 11.3537 11.6462L12.8537 13.1462C12.9001 13.1926 12.937 13.2477 12.9622 13.3084C12.9873 13.3691 13.0003 13.4342 13.0003 13.4999C13.0003 13.5656 12.9873 13.6307 12.9622 13.6914C12.937 13.7521 12.9001 13.8072 12.8537 13.8537ZM4.99991 4.49991C5.13251 4.49991 5.25969 4.44723 5.35346 4.35346C5.44723 4.25969 5.49991 4.13251 5.49991 3.99991V2.99991H10.9999C11.1325 2.99991 11.2597 3.05258 11.3535 3.14635C11.4472 3.24012 11.4999 3.3673 11.4999 3.49991V9.49991C11.4999 9.63251 11.5526 9.75969 11.6464 9.85346C11.7401 9.94723 11.8673 9.99991 11.9999 9.99991C12.1325 9.99991 12.2597 9.94723 12.3535 9.85346C12.4472 9.75969 12.4999 9.63251 12.4999 9.49991V3.49991C12.4999 3.10208 12.3419 2.72055 12.0606 2.43925C11.7793 2.15794 11.3977 1.99991 10.9999 1.99991H5.49991V0.999905C5.49998 0.900958 5.4707 0.804211 5.41577 0.721914C5.36083 0.639617 5.28271 0.57547 5.1913 0.537594C5.09989 0.499718 4.99929 0.489816 4.90225 0.509141C4.80521 0.528466 4.71608 0.57615 4.64615 0.646155L3.14616 2.14616C3.09967 2.19259 3.06279 2.24774 3.03763 2.30844C3.01246 2.36913 2.99951 2.4342 2.99951 2.49991C2.99951 2.56561 3.01246 2.63068 3.03763 2.69138C3.06279 2.75207 3.09967 2.80722 3.14616 2.85366L4.64615 4.35366C4.69262 4.40007 4.74778 4.43688 4.80848 4.46197C4.86918 4.48707 4.93422 4.49996 4.99991 4.49991Z" fill="black"/>
</g>
<defs>
<clipPath id="clip0_5_911">
<rect width="16" height="16" fill="white"/>
</clipPath>
</defs>
</svg>
