<svg width="16" height="16" viewBox="0 0 16 16" fill="none" xmlns="http://www.w3.org/2000/svg">
<g clip-path="url(#clip0_5_1442)">
<path d="M14.9999 8.00003C15.0003 8.131 14.9747 8.26075 14.9246 8.38176C14.8745 8.50277 14.8009 8.61265 14.7081 8.70503L8.70494 14.7088C8.51758 14.895 8.26413 14.9996 7.99994 14.9996C7.73576 14.9996 7.48231 14.895 7.29494 14.7088L1.29494 8.70503C1.10869 8.51767 1.00415 8.26422 1.00415 8.00003C1.00415 7.73585 1.10869 7.48239 1.29494 7.29503L7.29807 1.29128C7.48543 1.10503 7.73888 1.00049 8.00307 1.00049C8.26725 1.00049 8.52071 1.10503 8.70807 1.29128L14.7112 7.29503C14.8035 7.38767 14.8765 7.49766 14.9261 7.61866C14.9756 7.73966 15.0007 7.86928 14.9999 8.00003Z" fill="black"/>
</g>
<defs>
<clipPath id="clip0_5_1442">
<rect width="16" height="16" fill="white"/>
</clipPath>
</defs>
</svg>
