<svg width="16" height="16" viewBox="0 0 16 16" fill="none" xmlns="http://www.w3.org/2000/svg">
<g clip-path="url(#clip0_5_898)">
<path d="M11.7686 2.70676C11.7556 2.69566 11.7421 2.68523 11.728 2.67551C11.7136 2.66551 11.6986 2.65614 11.6836 2.64739C10.2922 1.64162 8.55902 1.22809 6.86341 1.49733C5.1678 1.76657 3.64793 2.69664 2.63652 4.08394C1.6251 5.47125 1.20453 7.20276 1.46688 8.89945C1.72922 10.5961 2.65311 12.1198 4.03629 13.1368C5.41948 14.1539 7.14927 14.5815 8.84701 14.326C10.5448 14.0706 12.0721 13.1529 13.0948 11.7738C14.1174 10.3948 14.5521 8.66677 14.3035 6.968C14.055 5.26924 13.1435 3.73814 11.7686 2.70989V2.70676ZM7.99988 9.49989C7.70321 9.49989 7.4132 9.41192 7.16653 9.24709C6.91986 9.08227 6.7276 8.848 6.61406 8.57391C6.50053 8.29982 6.47083 7.99822 6.52871 7.70725C6.58658 7.41628 6.72944 7.14901 6.93922 6.93923C7.149 6.72945 7.41628 6.58659 7.70725 6.52871C7.99822 6.47083 8.29982 6.50054 8.57391 6.61407C8.848 6.7276 9.08227 6.91986 9.24709 7.16653C9.41191 7.41321 9.49988 7.70322 9.49988 7.99989C9.49988 8.39771 9.34185 8.77924 9.06054 9.06055C8.77924 9.34185 8.39771 9.49989 7.99988 9.49989ZM13.4999 7.99989C13.4999 8.15426 13.493 8.30739 13.4805 8.45864L10.4999 7.93239C10.483 7.31602 10.2381 6.72784 9.81238 6.28176L11.5486 3.80239C12.16 4.31764 12.6515 4.96028 12.9885 5.68533C13.3256 6.41038 13.5001 7.20033 13.4999 7.99989Z" fill="black"/>
</g>
<defs>
<clipPath id="clip0_5_898">
<rect width="16" height="16" fill="white"/>
</clipPath>
</defs>
</svg>
