<svg width="16" height="16" viewBox="0 0 16 16" fill="none" xmlns="http://www.w3.org/2000/svg">
<g clip-path="url(#clip0_5_1714)">
<path d="M12.4999 12.7814V14.5001C12.4999 14.6327 12.4473 14.7599 12.3535 14.8537C12.2597 14.9474 12.1326 15.0001 11.9999 15.0001C11.8673 15.0001 11.7402 14.9474 11.6464 14.8537C11.5526 14.7599 11.4999 14.6327 11.4999 14.5001V12.7814C11.5024 12.0379 11.2965 11.3087 10.9057 10.6763C10.5149 10.0439 9.95471 9.53357 9.28869 9.20325L6.26369 7.69137C5.43121 7.27848 4.73105 6.64064 4.24257 5.85014C3.75409 5.05965 3.49682 4.14811 3.49994 3.21887V1.50012C3.49994 1.36751 3.55262 1.24034 3.64639 1.14657C3.74016 1.0528 3.86733 1.00012 3.99994 1.00012C4.13255 1.00012 4.25973 1.0528 4.3535 1.14657C4.44726 1.24034 4.49994 1.36751 4.49994 1.50012V3.21887C4.49749 3.9623 4.70335 4.69156 5.09417 5.32397C5.485 5.95639 6.04517 6.46668 6.71119 6.797L9.73619 8.30887C10.5687 8.72176 11.2688 9.35961 11.7573 10.1501C12.2458 10.9406 12.5031 11.8521 12.4999 12.7814ZM10.1987 12.0001H5.24432C5.17577 12.0003 5.10793 11.9863 5.045 11.9592C4.98208 11.932 4.92541 11.8922 4.87852 11.8422C4.83163 11.7922 4.79552 11.7331 4.77243 11.6685C4.74935 11.604 4.73978 11.5354 4.74432 11.467C4.75552 11.3383 4.81506 11.2185 4.91095 11.1319C5.00685 11.0453 5.13198 10.9982 5.26119 11.0001H9.35619C9.40616 11.0001 9.45496 10.985 9.4963 10.957C9.53764 10.9289 9.56962 10.8891 9.58812 10.8427C9.60661 10.7963 9.61078 10.7454 9.60008 10.6966C9.58937 10.6478 9.56429 10.6033 9.52807 10.5689C9.32178 10.3809 9.09041 10.2226 8.84057 10.0982L5.92494 8.6395C5.88469 8.61938 5.83975 8.61051 5.79486 8.61381C5.74998 8.61711 5.70682 8.63246 5.66994 8.65825C4.99881 9.11582 4.45007 9.73093 4.07177 10.4497C3.69346 11.1685 3.49713 11.9691 3.49994 12.7814V14.4832C3.49789 14.6125 3.54493 14.7377 3.63157 14.8336C3.71822 14.9296 3.83803 14.9891 3.96682 15.0001C4.03521 15.0047 4.10381 14.9951 4.16835 14.972C4.23289 14.9489 4.29199 14.9128 4.34199 14.8659C4.39198 14.819 4.4318 14.7624 4.45898 14.6994C4.48615 14.6365 4.50009 14.5687 4.49994 14.5001V13.5001H10.2499C10.3162 13.5001 10.3798 13.4738 10.4267 13.4269C10.4736 13.38 10.4999 13.3164 10.4999 13.2501V12.7814C10.4999 12.5859 10.4811 12.3908 10.4437 12.1989C10.4319 12.1426 10.4011 12.0922 10.3565 12.056C10.3119 12.0198 10.2562 12.0001 10.1987 12.0001ZM11.9668 1.00012C11.838 1.01118 11.7182 1.07068 11.6316 1.1666C11.5449 1.26253 11.4979 1.38775 11.4999 1.517V2.50012H5.74994C5.68364 2.50012 5.62005 2.52646 5.57317 2.57335C5.52628 2.62023 5.49994 2.68382 5.49994 2.75012V3.21887C5.49996 3.41439 5.5188 3.60946 5.55619 3.80137C5.56797 3.85761 5.59876 3.90807 5.64338 3.94427C5.68801 3.98047 5.74373 4.00019 5.80119 4.00012H10.7387C10.8677 3.99853 10.9925 4.04577 11.0881 4.13235C11.1838 4.21894 11.2431 4.33848 11.2543 4.467C11.2589 4.53539 11.2493 4.60399 11.2262 4.66853C11.2031 4.73307 11.167 4.79217 11.1201 4.84216C11.0732 4.89216 11.0166 4.93198 10.9536 4.95916C10.8907 4.98633 10.8229 5.00027 10.7543 5.00012H6.64369C6.59373 5.00018 6.54493 5.01522 6.50359 5.04328C6.46225 5.07134 6.43027 5.11115 6.41177 5.15756C6.39327 5.20398 6.3891 5.25487 6.39981 5.30368C6.41051 5.35248 6.43559 5.39696 6.47182 5.43137C6.6781 5.61931 6.90948 5.77769 7.15932 5.902L10.0762 7.36075C10.1164 7.38086 10.1614 7.38974 10.2063 7.38644C10.2512 7.38314 10.2943 7.36778 10.3312 7.342C11.0021 6.88429 11.5506 6.26912 11.9287 5.55032C12.3068 4.83153 12.5029 4.03103 12.4999 3.21887V1.50012C12.5001 1.43158 12.4861 1.36374 12.459 1.30081C12.4318 1.23788 12.392 1.18121 12.342 1.13432C12.292 1.08743 12.2329 1.05132 12.1683 1.02824C12.1038 1.00515 12.0352 0.995581 11.9668 1.00012Z" fill="black"/>
</g>
<defs>
<clipPath id="clip0_5_1714">
<rect width="16" height="16" fill="white"/>
</clipPath>
</defs>
</svg>
