<svg width="16" height="16" viewBox="0 0 16 16" fill="none" xmlns="http://www.w3.org/2000/svg">
<g clip-path="url(#clip0_5_1598)">
<path d="M14.9819 7.81224L13.9557 2.31224C13.9306 2.17817 13.8784 2.05065 13.8022 1.93752C13.726 1.82439 13.6275 1.72804 13.5127 1.6544C13.3979 1.58076 13.2692 1.53137 13.1346 1.50929C13 1.48721 12.8624 1.49289 12.73 1.52599L12.7107 1.53161L9.42817 2.49974H6.57192L3.28942 1.53474L3.27004 1.52911C3.13773 1.49601 3.00004 1.49033 2.86545 1.51241C2.73086 1.5345 2.60221 1.58388 2.48741 1.65752C2.37262 1.73117 2.2741 1.82752 2.19791 1.94065C2.12173 2.05378 2.06949 2.1813 2.04442 2.31536L1.01817 7.81224C0.974281 8.03238 1.00686 8.26091 1.1105 8.46002C1.21415 8.65914 1.38267 8.81691 1.58817 8.90724C1.71977 8.96759 1.86276 8.99913 2.00754 8.99974C2.18084 8.99965 2.35093 8.95303 2.50004 8.86474V11.4997C2.50004 12.1628 2.76343 12.7987 3.23227 13.2675C3.70112 13.7363 4.337 13.9997 5.00004 13.9997H11C11.6631 13.9997 12.299 13.7363 12.7678 13.2675C13.2366 12.7987 13.5 12.1628 13.5 11.4997V8.86536C13.649 8.95349 13.8188 9.00011 13.9919 9.00036C14.1369 8.99994 14.28 8.96862 14.4119 8.90848C14.6177 8.81811 14.7864 8.66014 14.89 8.46077C14.9937 8.26139 15.0261 8.03257 14.9819 7.81224ZM11 12.9997H8.50004V12.2066L9.35379 11.3535C9.44761 11.2597 9.50032 11.1324 9.50032 10.9997C9.50032 10.8671 9.44761 10.7398 9.35379 10.646C9.25997 10.5522 9.13272 10.4995 9.00004 10.4995C8.86736 10.4995 8.74011 10.5522 8.64629 10.646L8.00004 11.2929L7.35379 10.646C7.25997 10.5522 7.13272 10.4995 7.00004 10.4995C6.86736 10.4995 6.74011 10.5522 6.64629 10.646C6.55247 10.7398 6.49976 10.8671 6.49976 10.9997C6.49976 11.1324 6.55247 11.2597 6.64629 11.3535L7.50004 12.2066V12.9997H5.00004C4.60222 12.9997 4.22069 12.8417 3.93938 12.5604C3.65808 12.2791 3.50004 11.8976 3.50004 11.4997V7.69411L6.74567 3.49974H9.25442L12.5 7.69411V11.4997C12.5 11.8976 12.342 12.2791 12.0607 12.5604C11.7794 12.8417 11.3979 12.9997 11 12.9997ZM6.50004 8.74974C6.50004 8.89807 6.45605 9.04308 6.37364 9.16641C6.29123 9.28975 6.1741 9.38588 6.03705 9.44264C5.90001 9.49941 5.74921 9.51426 5.60372 9.48532C5.45824 9.45639 5.3246 9.38495 5.21971 9.28007C5.11482 9.17518 5.04339 9.04154 5.01445 8.89605C4.98551 8.75057 5.00037 8.59977 5.05713 8.46272C5.1139 8.32568 5.21003 8.20854 5.33336 8.12613C5.4567 8.04372 5.60171 7.99974 5.75004 7.99974C5.94895 7.99974 6.13972 8.07875 6.28037 8.21941C6.42102 8.36006 6.50004 8.55082 6.50004 8.74974ZM11 8.74974C11 8.89807 10.9561 9.04308 10.8736 9.16641C10.7912 9.28975 10.6741 9.38588 10.5371 9.44264C10.4 9.49941 10.2492 9.51426 10.1037 9.48532C9.95824 9.45639 9.8246 9.38495 9.71971 9.28007C9.61482 9.17518 9.54339 9.04154 9.51445 8.89605C9.48551 8.75057 9.50037 8.59977 9.55713 8.46272C9.6139 8.32568 9.71003 8.20854 9.83336 8.12613C9.9567 8.04372 10.1017 7.99974 10.25 7.99974C10.449 7.99974 10.6397 8.07875 10.7804 8.21941C10.921 8.36006 11 8.55082 11 8.74974Z" fill="black"/>
</g>
<defs>
<clipPath id="clip0_5_1598">
<rect width="16" height="16" fill="white"/>
</clipPath>
</defs>
</svg>
