<svg width="16" height="16" viewBox="0 0 16 16" fill="none" xmlns="http://www.w3.org/2000/svg">
<g clip-path="url(#clip0_5_888)">
<path d="M4.14119 5.0145C4.07225 4.90177 4.02749 4.77595 4.00973 4.64502C3.99198 4.51408 4.00163 4.38088 4.03807 4.25387C4.06285 4.14843 4.1051 4.04787 4.16307 3.95637L5.49994 2.04387V0.500122C5.49979 0.431578 5.51374 0.363736 5.54091 0.300808C5.56808 0.23788 5.6079 0.181211 5.6579 0.134322C5.7079 0.0874318 5.767 0.0513225 5.83154 0.0282364C5.89608 0.00515043 5.96467 -0.00441917 6.03307 0.000122029C6.16186 0.0111811 6.28166 0.0706752 6.36831 0.166602C6.45496 0.262528 6.502 0.387748 6.49994 0.516997V2.02637L6.82807 2.43762C6.9709 2.61676 7.15302 2.76066 7.36033 2.8582C7.56765 2.95573 7.79462 3.00429 8.02369 3.00012C8.24992 2.99372 8.47196 2.9376 8.67406 2.83574C8.87615 2.73388 9.05335 2.58879 9.19307 2.41075L9.49994 2.02637V0.500122C9.49979 0.431578 9.51374 0.363736 9.54091 0.300808C9.56808 0.23788 9.6079 0.181211 9.6579 0.134322C9.7079 0.0874318 9.767 0.0513225 9.83154 0.0282364C9.89608 0.00515043 9.96467 -0.00441917 10.0331 0.000122029C10.1619 0.0111811 10.2817 0.0706752 10.3683 0.166602C10.455 0.262528 10.502 0.387748 10.4999 0.516997V2.04387L11.8387 3.95637C11.8967 4.04787 11.9389 4.14843 11.9637 4.25387C12.0001 4.38088 12.0098 4.51408 11.992 4.64502C11.9743 4.77595 11.9295 4.90177 11.8606 5.0145C11.8581 5.0181 11.8558 5.02186 11.8537 5.02575L10.9881 6.3845C10.9653 6.42027 10.9337 6.44965 10.8965 6.46988C10.8592 6.4901 10.8174 6.50051 10.7749 6.50012H5.22494C5.18284 6.5002 5.14141 6.48964 5.10448 6.46942C5.06755 6.44921 5.03632 6.42 5.01369 6.3845L4.14807 5.02575C4.14601 5.02186 4.14371 5.0181 4.14119 5.0145ZM13.4224 13.112C13.4198 13.1047 13.4167 13.0976 13.4131 13.0907L10.8556 7.64387C10.8353 7.60081 10.8033 7.56441 10.7631 7.53894C10.7229 7.51348 10.6763 7.50001 10.6287 7.50012H5.37119C5.32362 7.50001 5.277 7.51348 5.23681 7.53894C5.19662 7.56441 5.16454 7.60081 5.14432 7.64387L2.58682 13.0907C2.58317 13.0976 2.58004 13.1047 2.57744 13.112C2.52292 13.2435 2.49674 13.3849 2.50062 13.5272C2.5045 13.6695 2.53834 13.8093 2.59994 13.9376C2.68205 14.1064 2.81001 14.2486 2.96916 14.3481C3.12832 14.4476 3.31226 14.5003 3.49994 14.5001H12.4999C12.6875 14.5002 12.8713 14.4474 13.0304 14.348C13.1894 14.2485 13.3173 14.1063 13.3993 13.9376C13.461 13.8094 13.495 13.6695 13.499 13.5273C13.5029 13.385 13.4769 13.2435 13.4224 13.112Z" fill="black"/>
</g>
<defs>
<clipPath id="clip0_5_888">
<rect width="16" height="16" fill="white"/>
</clipPath>
</defs>
</svg>
