<svg width="16" height="16" viewBox="0 0 16 16" fill="none" xmlns="http://www.w3.org/2000/svg">
<g clip-path="url(#clip0_5_883)">
<path d="M11.8537 4.8538L10 6.70692V9.29317L11.8537 11.1463C11.9002 11.1928 11.9371 11.2479 11.9622 11.3086C11.9873 11.3693 12.0003 11.4344 12.0003 11.5C12.0003 11.5657 11.9873 11.6308 11.9622 11.6915C11.9371 11.7522 11.9002 11.8073 11.8537 11.8538C11.8073 11.9003 11.7521 11.9371 11.6914 11.9622C11.6308 11.9874 11.5657 12.0003 11.5 12.0003C11.4343 12.0003 11.3692 11.9874 11.3086 11.9622C11.2479 11.9371 11.1927 11.9003 11.1462 11.8538L9.29312 10H6.70687L4.85375 11.8538C4.75993 11.9476 4.63268 12.0003 4.5 12.0003C4.36732 12.0003 4.24007 11.9476 4.14625 11.8538C4.05243 11.76 3.99972 11.6327 3.99972 11.5C3.99972 11.3674 4.05243 11.2401 4.14625 11.1463L6 9.29317V6.70692L4.14625 4.8538C4.05243 4.75998 3.99972 4.63273 3.99972 4.50005C3.99972 4.36737 4.05243 4.24012 4.14625 4.1463C4.24007 4.05248 4.36732 3.99977 4.5 3.99977C4.63268 3.99977 4.75993 4.05248 4.85375 4.1463L6.70687 6.00005H9.29312L11.1462 4.1463C11.2401 4.05248 11.3673 3.99977 11.5 3.99977C11.6327 3.99977 11.7599 4.05248 11.8537 4.1463C11.9476 4.24012 12.0003 4.36737 12.0003 4.50005C12.0003 4.63273 11.9476 4.75998 11.8537 4.8538ZM8.96125 4.4713C9.08623 4.51554 9.22367 4.50832 9.34334 4.45124C9.463 4.39416 9.5551 4.29189 9.59937 4.16692C9.69802 3.88832 9.86562 3.63924 10.0865 3.44292C10.3075 3.2466 10.5745 3.10942 10.8628 3.04419C11.151 2.97896 11.4511 2.98779 11.735 3.06988C12.019 3.15196 12.2775 3.30461 12.4865 3.51359C12.6954 3.72258 12.8481 3.98109 12.9302 4.26501C13.0123 4.54893 13.0211 4.84902 12.9559 5.13728C12.8906 5.42554 12.7535 5.69258 12.5571 5.91351C12.3608 6.13443 12.1117 6.30203 11.8331 6.40067C11.7197 6.43839 11.6235 6.5155 11.5621 6.61803C11.5006 6.72055 11.4779 6.84171 11.4981 6.95953C11.5182 7.07736 11.58 7.18406 11.6721 7.26028C11.7641 7.33651 11.8805 7.37723 12 7.37505C12.0569 7.3752 12.1133 7.36547 12.1669 7.3463C12.6047 7.19132 12.9962 6.92797 13.3047 6.58081C13.6133 6.23366 13.8289 5.81401 13.9314 5.36101C14.034 4.90801 14.0201 4.43642 13.8911 3.99023C13.7621 3.54404 13.5222 3.13778 13.1938 2.80936C12.8654 2.48094 12.4591 2.24105 12.0129 2.11207C11.5668 1.98309 11.0952 1.96922 10.6422 2.07176C10.1892 2.17429 9.76951 2.38989 9.42236 2.69845C9.0752 3.007 8.81185 3.39846 8.65687 3.8363C8.6136 3.96089 8.62131 4.09753 8.67832 4.21647C8.73533 4.3354 8.83702 4.427 8.96125 4.4713ZM12.1669 8.6588C12.0426 8.6172 11.9069 8.6261 11.789 8.68357C11.6712 8.74104 11.5807 8.84248 11.5369 8.96606C11.4931 9.08964 11.4997 9.22546 11.5551 9.34427C11.6105 9.46309 11.7103 9.55539 11.8331 9.6013C12.1117 9.69994 12.3608 9.86755 12.5571 10.0885C12.7535 10.3094 12.8906 10.5764 12.9559 10.8647C13.0211 11.153 13.0123 11.453 12.9302 11.737C12.8481 12.0209 12.6954 12.2794 12.4865 12.4884C12.2775 12.6974 12.019 12.85 11.735 12.9321C11.4511 13.0142 11.151 13.023 10.8628 12.9578C10.5745 12.8926 10.3075 12.7554 10.0865 12.5591C9.86562 12.3627 9.69802 12.1136 9.59937 11.835C9.55346 11.7123 9.46116 11.6124 9.34235 11.557C9.22354 11.5016 9.08772 11.4951 8.96414 11.5388C8.84056 11.5826 8.73911 11.6731 8.68164 11.791C8.62417 11.9088 8.61528 12.0445 8.65687 12.1688C8.81185 12.6066 9.0752 12.9981 9.42236 13.3066C9.76951 13.6152 10.1892 13.8308 10.6422 13.9333C11.0952 14.0359 11.5668 14.022 12.0129 13.893C12.4591 13.764 12.8654 13.5242 13.1938 13.1957C13.5222 12.8673 13.7621 12.4611 13.8911 12.0149C14.0201 11.5687 14.034 11.0971 13.9314 10.6441C13.8289 10.1911 13.6133 9.77144 13.3047 9.42428C12.9962 9.07713 12.6047 8.81378 12.1669 8.6588ZM7.04187 11.5338C6.91689 11.4896 6.77945 11.4968 6.65979 11.5539C6.54012 11.6109 6.44802 11.7132 6.40375 11.8382C6.3051 12.1168 6.1375 12.3659 5.91658 12.5622C5.69566 12.7585 5.42862 12.8957 5.14036 12.9609C4.8521 13.0261 4.55201 13.0173 4.26809 12.9352C3.98416 12.8531 3.72566 12.7005 3.51667 12.4915C3.30769 12.2825 3.15503 12.024 3.07295 11.7401C2.99087 11.4562 2.98203 11.1561 3.04726 10.8678C3.1125 10.5796 3.24967 10.3125 3.446 10.0916C3.64232 9.87067 3.8914 9.70307 4.17 9.60442C4.29279 9.55851 4.39265 9.46621 4.44805 9.3474C4.50345 9.22858 4.50998 9.09276 4.46622 8.96919C4.42246 8.84561 4.33191 8.74416 4.21409 8.68669C4.09626 8.62922 3.96057 8.62033 3.83625 8.66192C3.39841 8.8169 3.00695 9.08025 2.6984 9.42741C2.38985 9.77456 2.17424 10.1942 2.07171 10.6472C1.96917 11.1002 1.98304 11.5718 2.11202 12.018C2.241 12.4642 2.48089 12.8704 2.80931 13.1989C3.13774 13.5273 3.54399 13.7672 3.99018 13.8962C4.43637 14.0251 4.90796 14.039 5.36096 13.9365C5.81396 13.8339 6.23361 13.6183 6.58077 13.3098C6.92792 13.0012 7.19127 12.6098 7.34625 12.1719C7.36885 12.1095 7.37881 12.0433 7.37554 11.977C7.37228 11.9108 7.35586 11.8458 7.32724 11.7859C7.29862 11.7261 7.25837 11.6725 7.20884 11.6284C7.15931 11.5842 7.10149 11.5504 7.03875 11.5288L7.04187 11.5338ZM3.83625 7.3463C3.8888 7.36512 3.94418 7.37484 4 7.37505C4.11789 7.37499 4.23197 7.33329 4.32209 7.25729C4.41221 7.1813 4.47259 7.0759 4.49255 6.95971C4.51251 6.84353 4.49078 6.72403 4.43119 6.62231C4.3716 6.52059 4.27798 6.4432 4.16687 6.4038C3.88827 6.30515 3.6392 6.13755 3.44287 5.91663C3.24655 5.69571 3.10937 5.42867 3.04414 5.1404C2.97891 4.85214 2.98775 4.55206 3.06983 4.26814C3.15191 3.98421 3.30456 3.7257 3.51355 3.51672C3.72253 3.30773 3.98104 3.15508 4.26496 3.073C4.54888 2.99092 4.84897 2.98208 5.13723 3.04731C5.42549 3.11255 5.69254 3.24972 5.91346 3.44605C6.13438 3.64237 6.30198 3.89145 6.40062 4.17005C6.42169 4.23301 6.45509 4.29115 6.49887 4.34107C6.54264 4.39099 6.59592 4.43169 6.6556 4.4608C6.71527 4.4899 6.78015 4.50683 6.84644 4.5106C6.91273 4.51436 6.9791 4.50488 7.04169 4.48272C7.10428 4.46056 7.16182 4.42615 7.21097 4.38151C7.26012 4.33687 7.29988 4.28289 7.32794 4.22271C7.356 4.16254 7.3718 4.09738 7.3744 4.03103C7.37701 3.96469 7.36638 3.89849 7.34312 3.8363C7.18815 3.39846 6.9248 3.007 6.57764 2.69845C6.23049 2.38989 5.81084 2.17429 5.35784 2.07176C4.90484 1.96922 4.43325 1.98309 3.98706 2.11207C3.54087 2.24105 3.13461 2.48094 2.80619 2.80936C2.47777 3.13778 2.23788 3.54404 2.1089 3.99023C1.97992 4.43642 1.96605 4.90801 2.06858 5.36101C2.17112 5.81401 2.38672 6.23366 2.69528 6.58081C3.00383 6.92797 3.39528 7.19132 3.83312 7.3463H3.83625Z" fill="black"/>
</g>
<defs>
<clipPath id="clip0_5_883">
<rect width="16" height="16" fill="white"/>
</clipPath>
</defs>
</svg>
