<svg width="16" height="16" viewBox="0 0 16 16" fill="none" xmlns="http://www.w3.org/2000/svg">
<g clip-path="url(#clip0_5_882)">
<path d="M10.875 2.98423C10.103 2.09263 9.23409 1.28977 8.28438 0.590485C8.2003 0.531592 8.10015 0.5 7.9975 0.5C7.89485 0.5 7.7947 0.531592 7.71063 0.590485C6.76266 1.29006 5.89545 2.09291 5.125 2.98423C3.40688 4.95736 2.5 7.03736 2.5 8.99986C2.5 10.4586 3.07946 11.8575 4.11091 12.8889C5.14236 13.9204 6.54131 14.4999 8 14.4999C9.45869 14.4999 10.8576 13.9204 11.8891 12.8889C12.9205 11.8575 13.5 10.4586 13.5 8.99986C13.5 7.03736 12.5931 4.95736 10.875 2.98423ZM11.4906 9.58361C11.361 10.3078 11.0126 10.9749 10.4923 11.495C9.972 12.0152 9.30484 12.3635 8.58062 12.493C8.55396 12.4973 8.52701 12.4996 8.5 12.4999C8.37458 12.4998 8.25375 12.4527 8.16148 12.3677C8.06921 12.2828 8.01223 12.1662 8.00185 12.0413C7.99146 11.9163 8.02843 11.7919 8.10542 11.6929C8.18242 11.5939 8.2938 11.5275 8.4175 11.5067C9.45312 11.3324 10.3319 10.4536 10.5075 9.41611C10.5297 9.28533 10.603 9.16872 10.7112 9.09195C10.8193 9.01517 10.9536 8.98452 11.0844 9.00673C11.2152 9.02895 11.3318 9.1022 11.4085 9.21039C11.4853 9.31857 11.516 9.45282 11.4937 9.58361H11.4906Z" fill="black"/>
</g>
<defs>
<clipPath id="clip0_5_882">
<rect width="16" height="16" fill="white"/>
</clipPath>
</defs>
</svg>
