<svg width="16" height="16" viewBox="0 0 16 16" fill="none" xmlns="http://www.w3.org/2000/svg">
<g clip-path="url(#clip0_5_876)">
<path d="M13.3699 13.1636C13.415 13.212 13.45 13.2689 13.4729 13.331C13.4959 13.3931 13.5063 13.4591 13.5035 13.5252C13.5007 13.5913 13.4849 13.6562 13.4569 13.7161C13.4288 13.776 13.3892 13.8298 13.3402 13.8743C13.2912 13.9188 13.2339 13.9532 13.1716 13.9753C13.1093 13.9975 13.0431 14.0071 12.9771 14.0036C12.911 14 12.8463 13.9834 12.7867 13.9546C12.7271 13.9259 12.6738 13.8856 12.6299 13.8361L11.8237 12.9492C10.7997 13.9444 9.42779 14.5007 7.9999 14.4999C4.9999 14.4999 2.53178 12.0667 2.4999 9.06986C2.48303 7.54861 3.01365 5.95486 4.04553 4.39423L2.64365 2.85173C2.55321 2.75488 2.50364 2.62686 2.50527 2.49435C2.5069 2.36185 2.55961 2.23509 2.6524 2.14048C2.70054 2.09395 2.75753 2.05755 2.81999 2.03346C2.88246 2.00936 2.94913 1.99806 3.01605 2.00021C3.08296 2.00237 3.14877 2.01794 3.20955 2.04601C3.27034 2.07408 3.32486 2.11407 3.3699 2.16361L13.3699 13.1636ZM12.7405 10.9849C12.7693 11.0165 12.8057 11.0402 12.8462 11.0538C12.8868 11.0674 12.9301 11.0703 12.9721 11.0624C13.0141 11.0544 13.0534 11.0358 13.0862 11.0083C13.1189 10.9809 13.1441 10.9455 13.1593 10.9055C13.385 10.2955 13.5004 9.65025 13.4999 8.99986C13.4999 7.03736 12.593 4.95736 10.8749 2.98423C10.1029 2.09263 9.23399 1.28977 8.28428 0.590485C8.20021 0.531592 8.10005 0.5 7.9974 0.5C7.89476 0.5 7.7946 0.531592 7.71053 0.590485C6.89229 1.19378 6.13457 1.8751 5.44803 2.62486C5.40569 2.67098 5.3822 2.73131 5.3822 2.79392C5.3822 2.85653 5.40569 2.91686 5.44803 2.96298L12.7405 10.9849Z" fill="black"/>
</g>
<defs>
<clipPath id="clip0_5_876">
<rect width="16" height="16" fill="white"/>
</clipPath>
</defs>
</svg>
