<svg width="16" height="16" viewBox="0 0 16 16" fill="none" xmlns="http://www.w3.org/2000/svg">
<g clip-path="url(#clip0_5_873)">
<path d="M11.7498 7.50009L7.99984 5.00009L11.4723 2.68759C11.5545 2.63277 11.6511 2.60352 11.7498 2.60352C11.8486 2.60352 11.9452 2.63277 12.0273 2.68759L14.8748 4.58384C14.9434 4.62948 14.9997 4.69136 15.0386 4.76398C15.0775 4.8366 15.0978 4.91771 15.0978 5.00009C15.0978 5.08247 15.0775 5.16358 15.0386 5.2362C14.9997 5.30882 14.9434 5.3707 14.8748 5.41634L11.7498 7.50009ZM4.52734 2.68759C4.44518 2.63277 4.34862 2.60352 4.24984 2.60352C4.15107 2.60352 4.05451 2.63277 3.97234 2.68759L1.12484 4.58384C1.05626 4.62948 1.00002 4.69136 0.961114 4.76398C0.922212 4.8366 0.901855 4.91771 0.901855 5.00009C0.901855 5.08247 0.922212 5.16358 0.961114 5.2362C1.00002 5.30882 1.05626 5.3707 1.12484 5.41634L4.24984 7.50009L7.99984 5.00009L4.52734 2.68759ZM14.8748 9.58384L11.7498 7.50009L7.99984 10.0001L11.4723 12.3126C11.5545 12.3674 11.6511 12.3967 11.7498 12.3967C11.8486 12.3967 11.9452 12.3674 12.0273 12.3126L14.8748 10.4163C14.9434 10.3707 14.9997 10.3088 15.0386 10.2362C15.0775 10.1636 15.0978 10.0825 15.0978 10.0001C15.0978 9.91771 15.0775 9.8366 15.0386 9.76398C14.9997 9.69136 14.9434 9.62948 14.8748 9.58384ZM1.12484 9.58384C1.05626 9.62948 1.00002 9.69136 0.961114 9.76398C0.922212 9.8366 0.901855 9.91771 0.901855 10.0001C0.901855 10.0825 0.922212 10.1636 0.961114 10.2362C1.00002 10.3088 1.05626 10.3707 1.12484 10.4163L3.97234 12.3126C4.05451 12.3674 4.15107 12.3967 4.24984 12.3967C4.34862 12.3967 4.44518 12.3674 4.52734 12.3126L7.99984 10.0001L4.24984 7.50009L1.12484 9.58384ZM10.538 12.8932L8.13984 11.2945C8.09876 11.2671 8.05048 11.2524 8.00109 11.2524C7.95171 11.2524 7.90343 11.2671 7.86234 11.2945L5.46297 12.8932C5.42881 12.9161 5.4008 12.947 5.38144 12.9832C5.36207 13.0195 5.35194 13.0599 5.35194 13.101C5.35194 13.1421 5.36207 13.1826 5.38144 13.2188C5.4008 13.2551 5.42881 13.286 5.46297 13.3088L7.72234 14.8126C7.80451 14.8674 7.90107 14.8967 7.99984 14.8967C8.09862 14.8967 8.19518 14.8674 8.27734 14.8126L10.5367 13.3063C10.5704 13.2834 10.5979 13.2526 10.6169 13.2166C10.6359 13.1806 10.6459 13.1405 10.6459 13.0998C10.6459 13.0591 10.6359 13.019 10.6169 12.983C10.5979 12.947 10.5704 12.9162 10.5367 12.8932H10.538Z" fill="black"/>
</g>
<defs>
<clipPath id="clip0_5_873">
<rect width="16" height="16" fill="white"/>
</clipPath>
</defs>
</svg>
