<svg width="16" height="16" viewBox="0 0 16 16" fill="none" xmlns="http://www.w3.org/2000/svg">
<g clip-path="url(#clip0_5_878)">
<path d="M10.875 2.98423C10.103 2.09263 9.23409 1.28977 8.28438 0.590485C8.2003 0.531592 8.10015 0.5 7.9975 0.5C7.89485 0.5 7.7947 0.531592 7.71063 0.590485C6.76266 1.29006 5.89545 2.09291 5.125 2.98423C3.40688 4.95736 2.5 7.03736 2.5 8.99986C2.5 10.4586 3.07946 11.8575 4.11091 12.8889C5.14236 13.9204 6.54131 14.4999 8 14.4999C9.45869 14.4999 10.8576 13.9204 11.8891 12.8889C12.9205 11.8575 13.5 10.4586 13.5 8.99986C13.5 7.03736 12.5931 4.95736 10.875 2.98423ZM3.5 8.99986C3.5 5.42299 6.96688 2.43736 8 1.62486V13.4999C6.80693 13.4985 5.66311 13.024 4.81948 12.1804C3.97585 11.3368 3.50132 10.1929 3.5 8.99986Z" fill="black"/>
</g>
<defs>
<clipPath id="clip0_5_878">
<rect width="16" height="16" fill="white"/>
</clipPath>
</defs>
</svg>
