<svg width="16" height="16" viewBox="0 0 16 16" fill="none" xmlns="http://www.w3.org/2000/svg">
<g clip-path="url(#clip0_5_1685)">
<path d="M13.3701 13.1635C13.4152 13.212 13.4502 13.2689 13.4731 13.3309C13.4961 13.393 13.5064 13.459 13.5037 13.5251C13.5009 13.5912 13.4851 13.6561 13.457 13.716C13.429 13.776 13.3894 13.8297 13.3404 13.8742C13.2914 13.9187 13.2341 13.9531 13.1718 13.9753C13.1094 13.9975 13.0433 14.007 12.9773 14.0035C12.9112 13.9999 12.8465 13.9833 12.7869 13.9546C12.7273 13.9258 12.674 13.8855 12.6301 13.836L11.9876 13.1292C12.2511 12.9243 12.4983 12.6992 12.727 12.456L13.3701 13.1635ZM4.01258 2.8704L3.37008 2.16353C3.32617 2.11403 3.27288 2.07374 3.21328 2.045C3.15369 2.01625 3.08898 1.99962 3.02291 1.99606C2.95684 1.99251 2.89072 2.0021 2.82839 2.02429C2.76605 2.04648 2.70874 2.08082 2.65977 2.12532C2.61081 2.16981 2.57116 2.22359 2.54313 2.28353C2.5151 2.34346 2.49925 2.40836 2.49648 2.47447C2.49372 2.54058 2.50411 2.60658 2.52704 2.66864C2.54997 2.7307 2.585 2.7876 2.63008 2.83603L3.27321 3.54353C3.50187 3.30036 3.74907 3.0753 4.01258 2.8704ZM12.727 12.456L4.01258 2.8704C5.30442 1.86462 6.92839 1.3837 8.55958 1.52386C10.1908 1.66403 11.7089 2.41494 12.8102 3.62637C13.9115 4.83779 14.5148 6.42038 14.4994 8.05752C14.4839 9.69465 13.8509 11.2656 12.727 12.456ZM9.93758 6.49978C9.85636 6.18498 9.69962 5.89472 9.48094 5.65415C9.26226 5.41358 8.98823 5.22995 8.68258 5.11915C8.56096 5.08454 8.43075 5.0973 8.31816 5.15485C8.20557 5.2124 8.11896 5.31047 8.07578 5.42931C8.0326 5.54816 8.03605 5.67895 8.08544 5.79535C8.13483 5.91175 8.22649 6.00512 8.34196 6.05665C8.49399 6.11212 8.63029 6.20366 8.73915 6.32341C8.84801 6.44316 8.92619 6.58754 8.96696 6.74415C8.99465 6.85142 9.05719 6.94645 9.14474 7.01432C9.2323 7.0822 9.33992 7.11907 9.45071 7.11915C9.49291 7.11926 9.53493 7.11379 9.57571 7.1029C9.7033 7.07029 9.81287 6.98865 9.88062 6.87573C9.94838 6.7628 9.96885 6.62771 9.93758 6.49978ZM12.0001 6.99978C12.0003 6.35663 11.8454 5.72291 11.5486 5.15236C11.2517 4.5818 10.8217 4.09124 10.2949 3.72227C9.76809 3.35329 9.1601 3.11678 8.52246 3.03279C7.88481 2.9488 7.23632 3.0198 6.63196 3.23978C6.51573 3.29094 6.42332 3.38441 6.37349 3.50121C6.32366 3.61801 6.32014 3.7494 6.36365 3.86871C6.40716 3.98801 6.49443 4.08629 6.60775 4.1436C6.72107 4.20091 6.85195 4.21295 6.97383 4.17728C7.42731 4.01219 7.91392 3.95894 8.39238 4.02205C8.87083 4.08515 9.32699 4.26275 9.72216 4.53977C10.1173 4.8168 10.4398 5.18506 10.6623 5.61332C10.8848 6.04158 11.0006 6.51718 11.0001 6.99978C11.0001 7.13239 11.0528 7.25956 11.1465 7.35333C11.2403 7.4471 11.3675 7.49978 11.5001 7.49978C11.6327 7.49978 11.7599 7.4471 11.8536 7.35333C11.9474 7.25956 12.0001 7.13239 12.0001 6.99978ZM9.25008 10.4998C8.91856 10.4998 8.60062 10.3681 8.3662 10.1337C8.13178 9.89924 8.00008 9.5813 8.00008 9.24978C7.9993 9.10167 8.02036 8.95425 8.06258 8.81228L6.78446 7.40603C6.70163 7.46592 6.60228 7.49868 6.50008 7.49978C6.36747 7.49978 6.2403 7.4471 6.14653 7.35333C6.05276 7.25956 6.00008 7.13239 6.00008 6.99978C6.00009 6.86201 6.01433 6.72462 6.04258 6.58978L5.27446 5.74478C5.09267 6.13813 4.99903 6.56645 5.00008 6.99978C5.00008 7.74353 5.41946 8.28103 5.86383 8.84978C6.30133 9.40728 6.75008 9.98415 6.75008 10.7498C6.74999 10.996 6.82261 11.2367 6.95883 11.4418C7.09504 11.6469 7.28878 11.8072 7.51575 11.9026C7.74272 11.998 7.99281 12.0242 8.23463 11.978C8.47646 11.9318 8.69926 11.8152 8.87508 11.6429C8.9213 11.594 8.9769 11.555 9.03856 11.5281C9.10022 11.5013 9.16666 11.4871 9.23391 11.4865C9.30116 11.4859 9.36785 11.4989 9.42996 11.5247C9.49208 11.5505 9.54836 11.5885 9.59543 11.6366C9.6425 11.6846 9.6794 11.7417 9.70391 11.8043C9.72842 11.8669 9.74005 11.9339 9.73809 12.0011C9.73613 12.0683 9.72063 12.1344 9.69251 12.1955C9.6644 12.2566 9.62424 12.3114 9.57446 12.3567C9.25799 12.6666 8.85708 12.8763 8.42196 12.9593C7.98685 13.0424 7.5369 12.9951 7.12851 12.8236C6.72013 12.652 6.37148 12.3636 6.12627 11.9947C5.88105 11.6258 5.75019 11.1927 5.75008 10.7498C5.75008 10.3285 5.43758 9.92853 5.07571 9.4654C4.59633 8.85165 4.00008 8.0879 4.00008 6.99978C3.99927 6.28098 4.19369 5.57545 4.56258 4.95853L3.27321 3.54353C2.14924 4.73397 1.51621 6.3049 1.50078 7.94204C1.48534 9.57917 2.08863 11.1618 3.18995 12.3732C4.29126 13.5846 5.80938 14.3355 7.44058 14.4757C9.07177 14.6159 10.6957 14.1349 11.9876 13.1292L9.56258 10.4604C9.46051 10.4868 9.3555 10.5 9.25008 10.4998Z" fill="black"/>
</g>
<defs>
<clipPath id="clip0_5_1685">
<rect width="16" height="16" fill="white"/>
</clipPath>
</defs>
</svg>
