<svg width="16" height="16" viewBox="0 0 16 16" fill="none" xmlns="http://www.w3.org/2000/svg">
<g clip-path="url(#clip0_5_868)">
<path d="M14.5 12.5001C14.5 12.6327 14.4473 12.7598 14.3536 12.8536C14.2598 12.9474 14.1326 13.0001 14 13.0001H2C1.86739 13.0001 1.74021 12.9474 1.64645 12.8536C1.55268 12.7598 1.5 12.6327 1.5 12.5001C1.5 12.3674 1.55268 12.2403 1.64645 12.1465C1.74021 12.0527 1.86739 12.0001 2 12.0001H14C14.1326 12.0001 14.2598 12.0527 14.3536 12.1465C14.4473 12.2403 14.5 12.3674 14.5 12.5001ZM2.50563 10.0001H13.4944C13.6842 9.99965 13.8701 9.94555 14.0305 9.84399C14.1909 9.74244 14.3193 9.59757 14.4009 9.42613C14.4825 9.25468 14.5139 9.06366 14.4915 8.87513C14.4691 8.68659 14.3938 8.50824 14.2744 8.36068L9.17125 2.0588C9.02999 1.88428 8.85151 1.74354 8.64886 1.64686C8.44622 1.55017 8.22453 1.5 8 1.5C7.77547 1.5 7.55378 1.55017 7.35114 1.64686C7.14849 1.74354 6.97002 1.88428 6.82875 2.0588L1.72563 8.36068C1.60617 8.50824 1.53089 8.68659 1.5085 8.87513C1.48611 9.06366 1.51752 9.25468 1.59909 9.42613C1.68066 9.59757 1.80907 9.74244 1.96948 9.84399C2.12989 9.94555 2.31577 9.99965 2.50563 10.0001Z" fill="black"/>
</g>
<defs>
<clipPath id="clip0_5_868">
<rect width="16" height="16" fill="white"/>
</clipPath>
</defs>
</svg>
