<svg width="16" height="16" viewBox="0 0 16 16" fill="none" xmlns="http://www.w3.org/2000/svg">
<g clip-path="url(#clip0_5_869)">
<path d="M2.08188 7.89008C2.00417 7.71267 1.9811 7.51612 2.01561 7.32554C2.05012 7.13495 2.14064 6.95898 2.27562 6.82008L6.88375 1.97571C7.02816 1.8253 7.20149 1.70563 7.39331 1.62389C7.58513 1.54214 7.79149 1.5 8 1.5C8.20851 1.5 8.41487 1.54214 8.60669 1.62389C8.79851 1.70563 8.97184 1.8253 9.11625 1.97571L13.7244 6.82008C13.8594 6.95898 13.9499 7.13495 13.9844 7.32554C14.0189 7.51612 13.9958 7.71267 13.9181 7.89008C13.8395 8.07201 13.7091 8.22683 13.5432 8.33528C13.3773 8.44373 13.1832 8.50104 12.985 8.50008H3.015C2.8168 8.50104 2.62269 8.44373 2.45679 8.33528C2.29089 8.22683 2.16052 8.07201 2.08188 7.89008ZM13 9.50008H3C2.73478 9.50008 2.48043 9.60544 2.29289 9.79297C2.10536 9.98051 2 10.2349 2 10.5001V11.5001C2 11.7653 2.10536 12.0197 2.29289 12.2072C2.48043 12.3947 2.73478 12.5001 3 12.5001H13C13.2652 12.5001 13.5196 12.3947 13.7071 12.2072C13.8946 12.0197 14 11.7653 14 11.5001V10.5001C14 10.2349 13.8946 9.98051 13.7071 9.79297C13.5196 9.60544 13.2652 9.50008 13 9.50008Z" fill="black"/>
</g>
<defs>
<clipPath id="clip0_5_869">
<rect width="16" height="16" fill="white"/>
</clipPath>
</defs>
</svg>
