<svg width="16" height="16" viewBox="0 0 16 16" fill="none" xmlns="http://www.w3.org/2000/svg">
<g clip-path="url(#clip0_5_862)">
<path d="M14.2775 5.58359L8.2775 1.58359C8.19533 1.52877 8.09877 1.49951 8 1.49951C7.90123 1.49951 7.80467 1.52877 7.7225 1.58359L1.7225 5.58359C1.65401 5.62928 1.59786 5.69119 1.55904 5.76381C1.52023 5.83642 1.49995 5.9175 1.5 5.99984V12.4998C1.5 12.7651 1.60536 13.0194 1.79289 13.2069C1.98043 13.3945 2.23478 13.4998 2.5 13.4998H13.5C13.7652 13.4998 14.0196 13.3945 14.2071 13.2069C14.3946 13.0194 14.5 12.7651 14.5 12.4998V5.99984C14.5001 5.9175 14.4798 5.83642 14.441 5.76381C14.4021 5.69119 14.346 5.62928 14.2775 5.58359ZM6.045 9.49984L2.5 11.9998V6.97046L6.045 9.49984ZM7.06812 9.99984H8.93188L12.4712 12.4998H3.52875L7.06812 9.99984ZM9.955 9.49984L13.5 6.97046V11.9998L9.955 9.49984Z" fill="black"/>
</g>
<defs>
<clipPath id="clip0_5_862">
<rect width="16" height="16" fill="white"/>
</clipPath>
</defs>
</svg>
