<svg width="16" height="16" viewBox="0 0 16 16" fill="none" xmlns="http://www.w3.org/2000/svg">
<g clip-path="url(#clip0_5_853)">
<path d="M14.0624 5.02485L11.4749 2.43735C11.1936 2.15607 10.812 1.99805 10.4142 1.99805C10.0164 1.99805 9.6349 2.15607 9.3536 2.43735L1.93735 9.8536C1.65607 10.1349 1.49805 10.5164 1.49805 10.9142C1.49805 11.312 1.65607 11.6936 1.93735 11.9749L3.8161 13.8536C3.86272 13.9002 3.91808 13.9371 3.979 13.9622C4.03993 13.9873 4.10521 14.0001 4.1711 13.9999H13.4999C13.6325 13.9999 13.7596 13.9472 13.8534 13.8534C13.9472 13.7596 13.9999 13.6325 13.9999 13.4999C13.9999 13.3672 13.9472 13.2401 13.8534 13.1463C13.7596 13.0525 13.6325 12.9999 13.4999 12.9999H8.2061L14.0624 7.1461C14.3436 6.8648 14.5017 6.48328 14.5017 6.08548C14.5017 5.68767 14.3436 5.30615 14.0624 5.02485ZM13.3542 6.43735L9.99985 9.79298L6.70673 6.49985L10.0624 3.1461C10.1088 3.09961 10.1639 3.06273 10.2246 3.03757C10.2853 3.01241 10.3504 2.99946 10.4161 2.99946C10.4818 2.99946 10.5469 3.01241 10.6076 3.03757C10.6683 3.06273 10.7234 3.09961 10.7699 3.1461L13.3561 5.73235C13.4498 5.82611 13.5024 5.95324 13.5024 6.08579C13.5024 6.21834 13.4498 6.34547 13.3561 6.43923L13.3542 6.43735Z" fill="black"/>
</g>
<defs>
<clipPath id="clip0_5_853">
<rect width="16" height="16" fill="white"/>
</clipPath>
</defs>
</svg>
