<svg width="16" height="16" viewBox="0 0 16 16" fill="none" xmlns="http://www.w3.org/2000/svg">
<g clip-path="url(#clip0_5_845)">
<path d="M15 10.0002C14.9992 11.2462 14.5332 12.4471 13.6934 13.3675C12.8535 14.2879 11.7002 14.8615 10.4594 14.976C9.21869 15.0905 7.97989 14.7376 6.98574 13.9865C5.9916 13.2353 5.31374 12.14 5.08496 10.9152C5.883 11.0636 6.70517 11.0155 7.48046 10.7751C8.25574 10.5346 8.96083 10.109 9.5348 9.53505C10.1088 8.96107 10.5344 8.25599 10.7748 7.4807C11.0153 6.70541 11.0634 5.88324 10.915 5.08521C12.0625 5.29881 13.0991 5.90717 13.8452 6.80485C14.5913 7.70253 14.9998 8.83295 15 10.0002ZM9.99996 5.00021C10.3069 5.00049 10.6132 5.02895 10.915 5.08521C10.7484 4.18983 10.3405 3.35695 9.73522 2.67647C9.12994 1.99598 8.3503 1.49373 7.48046 1.22394C6.61061 0.954149 5.68359 0.92706 4.79947 1.1456C3.91535 1.36413 3.10772 1.82 2.46373 2.46398C1.81975 3.10796 1.36389 3.9156 1.14535 4.79972C0.926815 5.68384 0.953905 6.61085 1.2237 7.4807C1.49349 8.35055 1.99573 9.13019 2.67622 9.73547C3.35671 10.3407 4.18959 10.7487 5.08496 10.9152C4.95062 10.1935 4.97685 9.45111 5.16176 8.74071C5.34667 8.0303 5.68575 7.36932 6.15489 6.80472C6.62404 6.24012 7.21175 5.78575 7.87629 5.47388C8.54083 5.16201 9.26588 5.00029 9.99996 5.00021Z" fill="black"/>
</g>
<defs>
<clipPath id="clip0_5_845">
<rect width="16" height="16" fill="white"/>
</clipPath>
</defs>
</svg>
