<svg width="16" height="16" viewBox="0 0 16 16" fill="none" xmlns="http://www.w3.org/2000/svg">
<g clip-path="url(#clip0_5_1514)">
<path d="M13.5 6.99991V12.9999C13.5 13.2651 13.3946 13.5195 13.2071 13.707C13.0196 13.8945 12.7652 13.9999 12.5 13.9999H3.5C3.23478 13.9999 2.98043 13.8945 2.79289 13.707C2.60536 13.5195 2.5 13.2651 2.5 12.9999V6.99991C2.5 6.73469 2.60536 6.48033 2.79289 6.2928C2.98043 6.10526 3.23478 5.99991 3.5 5.99991H7.5V8.9999C7.5 9.13251 7.55268 9.25969 7.64645 9.35346C7.74021 9.44723 7.86739 9.4999 8 9.4999C8.13261 9.4999 8.25979 9.44723 8.35355 9.35346C8.44732 9.25969 8.5 9.13251 8.5 8.9999V5.99991H12.5C12.7652 5.99991 13.0196 6.10526 13.2071 6.2928C13.3946 6.48033 13.5 6.73469 13.5 6.99991ZM8.5 2.70678L10.1462 4.35366C10.2401 4.44748 10.3673 4.50018 10.5 4.50018C10.6327 4.50018 10.7599 4.44748 10.8538 4.35366C10.9476 4.25984 11.0003 4.13259 11.0003 3.99991C11.0003 3.86722 10.9476 3.73998 10.8538 3.64616L8.35375 1.14616C8.30731 1.09967 8.25217 1.06279 8.19147 1.03763C8.13077 1.01246 8.06571 0.999512 8 0.999512C7.93429 0.999512 7.86923 1.01246 7.80853 1.03763C7.74783 1.06279 7.69269 1.09967 7.64625 1.14616L5.14625 3.64616C5.05243 3.73998 4.99972 3.86722 4.99972 3.99991C4.99972 4.13259 5.05243 4.25983 5.14625 4.35365C5.24007 4.44748 5.36732 4.50018 5.5 4.50018C5.63268 4.50018 5.75993 4.44748 5.85375 4.35366L7.5 2.70678V5.99991H8.5V2.70678Z" fill="black"/>
</g>
<defs>
<clipPath id="clip0_5_1514">
<rect width="16" height="16" fill="white"/>
</clipPath>
</defs>
</svg>
