<svg width="16" height="16" viewBox="0 0 16 16" fill="none" xmlns="http://www.w3.org/2000/svg">
<g clip-path="url(#clip0_5_1499)">
<path d="M14 4.49996H13.9469C13.8996 4.35694 13.8207 4.22645 13.7159 4.11823C13.6111 4.01 13.4833 3.92684 13.3419 3.87496L8.34188 2.06246C8.12098 1.98244 7.87902 1.98244 7.65812 2.06246L2.65812 3.88058C2.51672 3.93247 2.38887 4.01563 2.28411 4.12385C2.17935 4.23208 2.10039 4.36257 2.05312 4.50558H2C1.47054 4.50558 0.962683 4.71552 0.587771 5.08938C0.21286 5.46323 0.00148911 5.9705 0 6.49996L0 7.99996C0 8.53039 0.210714 9.0391 0.585786 9.41417C0.960859 9.78924 1.46957 9.99996 2 9.99996H2.32437C2.77375 10.9875 3.68625 11.8393 5.02625 12.51C5.94186 12.959 6.9112 13.289 7.91062 13.4918C7.96972 13.5027 8.03028 13.5027 8.08937 13.4918C9.0888 13.289 10.0581 12.959 10.9738 12.51C12.3138 11.8393 13.2238 10.9875 13.6756 9.99996H14C14.5304 9.99996 15.0391 9.78924 15.4142 9.41417C15.7893 9.0391 16 8.53039 16 7.99996V6.49996C16 5.96952 15.7893 5.46082 15.4142 5.08574C15.0391 4.71067 14.5304 4.49996 14 4.49996ZM2 8.99996C1.73478 8.99996 1.48043 8.8946 1.29289 8.70706C1.10536 8.51953 1 8.26517 1 7.99996V6.49996C1 6.23474 1.10536 5.98039 1.29289 5.79285C1.48043 5.60531 1.73478 5.49996 2 5.49996V8.49996C2.00006 8.66721 2.01154 8.83427 2.03437 8.99996H2ZM10.5 8.99996H5.5C5.36739 8.99996 5.24021 8.94728 5.14645 8.85351C5.05268 8.75974 5 8.63257 5 8.49996C5 8.36735 5.05268 8.24017 5.14645 8.1464C5.24021 8.05263 5.36739 7.99996 5.5 7.99996H10.5C10.6326 7.99996 10.7598 8.05263 10.8536 8.1464C10.9473 8.24017 11 8.36735 11 8.49996C11 8.63257 10.9473 8.75974 10.8536 8.85351C10.7598 8.94728 10.6326 8.99996 10.5 8.99996ZM10.5 6.99996H5.5C5.36739 6.99996 5.24021 6.94728 5.14645 6.85351C5.05268 6.75974 5 6.63257 5 6.49996C5 6.36735 5.05268 6.24017 5.14645 6.1464C5.24021 6.05264 5.36739 5.99996 5.5 5.99996H10.5C10.6326 5.99996 10.7598 6.05264 10.8536 6.1464C10.9473 6.24017 11 6.36735 11 6.49996C11 6.63257 10.9473 6.75974 10.8536 6.85351C10.7598 6.94728 10.6326 6.99996 10.5 6.99996ZM15 7.99996C15 8.26517 14.8946 8.51953 14.7071 8.70706C14.5196 8.8946 14.2652 8.99996 14 8.99996H13.9656C13.9885 8.83427 13.9999 8.66721 14 8.49996V5.49996C14.2652 5.49996 14.5196 5.60531 14.7071 5.79285C14.8946 5.98039 15 6.23474 15 6.49996V7.99996Z" fill="black"/>
</g>
<defs>
<clipPath id="clip0_5_1499">
<rect width="16" height="16" fill="white"/>
</clipPath>
</defs>
</svg>
