<svg width="16" height="16" viewBox="0 0 16 16" fill="none" xmlns="http://www.w3.org/2000/svg">
<g clip-path="url(#clip0_5_831)">
<path d="M14.5 8.00023C14.4979 9.58886 13.9151 11.1219 12.8612 12.3106C11.8072 13.4993 10.355 14.2617 8.7781 14.454C8.74298 14.458 8.70743 14.4544 8.67377 14.4437C8.64011 14.4329 8.60912 14.4151 8.58284 14.3915C8.55656 14.3679 8.53559 14.3389 8.5213 14.3066C8.50702 14.2743 8.49975 14.2393 8.49997 14.204V9.50023H9.99997C10.0685 9.50038 10.1364 9.48643 10.1993 9.45926C10.2622 9.43209 10.3189 9.39227 10.3658 9.34227C10.4127 9.29227 10.4488 9.23317 10.4719 9.16863C10.4949 9.10409 10.5045 9.0355 10.5 8.9671C10.4889 8.83853 10.4296 8.71891 10.3339 8.63229C10.2383 8.54568 10.1134 8.49849 9.98435 8.50023H8.49997V7.00023C8.49997 6.73501 8.60533 6.48066 8.79286 6.29312C8.9804 6.10559 9.23476 6.00023 9.49997 6.00023H10.5C10.5685 6.00038 10.6364 5.98643 10.6993 5.95926C10.7622 5.93209 10.8189 5.89227 10.8658 5.84227C10.9127 5.79227 10.9488 5.73317 10.9719 5.66863C10.9949 5.60409 11.0045 5.5355 11 5.4671C10.9889 5.33831 10.9294 5.21851 10.8335 5.13186C10.7376 5.04521 10.6123 4.99817 10.4831 5.00023H9.49997C8.96954 5.00023 8.46083 5.21094 8.08576 5.58601C7.71069 5.96109 7.49997 6.4698 7.49997 7.00023V8.50023H5.99997C5.93143 8.50008 5.86358 8.51402 5.80066 8.5412C5.73773 8.56837 5.68106 8.60819 5.63417 8.65819C5.58728 8.70818 5.55117 8.76728 5.52809 8.83182C5.505 8.89636 5.49543 8.96496 5.49997 9.03335C5.51103 9.16215 5.57052 9.28195 5.66645 9.3686C5.76238 9.45524 5.8876 9.50229 6.01685 9.50023H7.49997V14.2052C7.50019 14.2405 7.49293 14.2754 7.47868 14.3077C7.46444 14.34 7.44352 14.3689 7.41731 14.3925C7.3911 14.4161 7.36019 14.4339 7.32661 14.4447C7.29303 14.4555 7.25754 14.4591 7.22247 14.4552C5.60332 14.258 4.1172 13.4602 3.05827 12.2195C1.99934 10.9789 1.44477 9.38588 1.50435 7.75585C1.62935 4.38085 4.3631 1.6371 7.7406 1.50585C8.61503 1.47198 9.48731 1.61482 10.3053 1.92583C11.1232 2.23684 11.87 2.70963 12.5011 3.31591C13.1321 3.9222 13.6344 4.64953 13.9778 5.4544C14.3213 6.25927 14.4989 7.12514 14.5 8.00023Z" fill="black"/>
</g>
<defs>
<clipPath id="clip0_5_831">
<rect width="16" height="16" fill="white"/>
</clipPath>
</defs>
</svg>
