<svg width="16" height="16" viewBox="0 0 16 16" fill="none" xmlns="http://www.w3.org/2000/svg">
<g clip-path="url(#clip0_5_1461)">
<path d="M14.4964 7.78449C14.3857 4.37887 11.6214 1.61449 8.21574 1.50387C7.32658 1.4752 6.44098 1.62921 5.61369 1.95636C4.7864 2.28352 4.035 2.77688 3.40594 3.40594C2.77688 4.035 2.28352 4.7864 1.95636 5.61369C1.62921 6.44098 1.4752 7.32658 1.50387 8.21574C1.61449 11.6214 4.37887 14.3857 7.78449 14.4964C8.67366 14.525 9.55925 14.371 10.3865 14.0439C11.2138 13.7167 11.9652 13.2234 12.5943 12.5943C13.2234 11.9652 13.7167 11.2138 14.0439 10.3865C14.371 9.55925 14.525 8.67366 14.4964 7.78449ZM12.3989 8.84199L10.9332 10.8939C10.884 10.9628 10.819 11.0189 10.7436 11.0576C10.6683 11.0964 10.5848 11.1166 10.5001 11.1166C10.4154 11.1166 10.3319 11.0964 10.2566 11.0576C10.1813 11.0189 10.1163 10.9628 10.067 10.8939L8.00012 8.00012L5.93324 10.8939C5.88397 10.9628 5.81896 11.0189 5.74364 11.0576C5.66831 11.0964 5.58482 11.1166 5.50012 11.1166C5.41541 11.1166 5.33193 11.0964 5.2566 11.0576C5.18127 11.0189 5.11627 10.9628 5.06699 10.8939L3.60137 8.84199C3.54455 8.76239 3.51074 8.66868 3.50367 8.57113C3.4966 8.47358 3.51652 8.37598 3.56127 8.28901C3.60601 8.20204 3.67384 8.12908 3.75732 8.07811C3.84079 8.02715 3.93669 8.00017 4.03449 8.00012H8.00012L6.10137 5.34199C6.04455 5.26239 6.01074 5.16868 6.00367 5.07113C5.9966 4.97358 6.01652 4.87597 6.06127 4.78901C6.10601 4.70204 6.17384 4.62908 6.25732 4.57811C6.34079 4.52715 6.43669 4.50017 6.53449 4.50012H9.46574C9.56354 4.50017 9.65944 4.52715 9.74292 4.57811C9.82639 4.62908 9.89422 4.70204 9.93897 4.78901C9.98371 4.87597 10.0036 4.97358 9.99656 5.07113C9.98949 5.16868 9.95569 5.26239 9.89887 5.34199L8.00012 8.00012H11.9657C12.0635 8.00017 12.1594 8.02715 12.2429 8.07811C12.3264 8.12908 12.3942 8.20204 12.439 8.28901C12.4837 8.37598 12.5036 8.47358 12.4966 8.57113C12.4895 8.66868 12.4557 8.76239 12.3989 8.84199Z" fill="black"/>
</g>
<defs>
<clipPath id="clip0_5_1461">
<rect width="16" height="16" fill="white"/>
</clipPath>
</defs>
</svg>
