<svg width="16" height="16" viewBox="0 0 16 16" fill="none" xmlns="http://www.w3.org/2000/svg">
<g clip-path="url(#clip0_5_827)">
<path d="M14.5626 8.43761C14.4112 7.87203 14.1295 7.34976 13.7399 6.91263C13.3504 6.4755 12.864 6.13564 12.3195 5.92028C11.7751 5.70492 11.1878 5.62004 10.6046 5.67243C10.0215 5.72482 9.45871 5.91303 8.96136 6.22198L9.98574 2.13198C10.0112 2.03037 10.004 1.92334 9.96532 1.826C9.92663 1.72866 9.85835 1.64593 9.77011 1.58948C9.34486 1.32095 8.86993 1.14071 8.37359 1.05949C7.87724 0.978257 7.36964 0.997701 6.88096 1.11666C6.39229 1.23562 5.93254 1.45166 5.52907 1.75194C5.1256 2.05221 4.78665 2.43058 4.5324 2.86452C4.27815 3.29846 4.11379 3.77912 4.04909 4.27788C3.9844 4.77665 4.02069 5.28333 4.15582 5.76778C4.29095 6.25223 4.52215 6.70455 4.83566 7.09783C5.14917 7.4911 5.53859 7.81729 5.98074 8.05698L1.92636 9.21511C1.82564 9.24379 1.73647 9.30338 1.67142 9.38547C1.60638 9.46756 1.56876 9.56799 1.56386 9.67261C1.52538 10.5263 1.77964 11.3675 2.28452 12.057C2.7894 12.7465 3.51463 13.2428 4.34011 13.4639C4.6585 13.5493 4.9867 13.5928 5.31636 13.5932C5.81871 13.5919 6.31569 13.4898 6.77785 13.2929C7.24001 13.096 7.65796 12.8084 8.00694 12.447C8.35592 12.0857 8.62884 11.658 8.80953 11.1893C8.99022 10.7205 9.07501 10.2203 9.05886 9.71823L12.0889 12.6507C12.1642 12.7236 12.2606 12.771 12.3643 12.7861C12.4681 12.8013 12.5739 12.7834 12.667 12.7351C13.4251 12.3417 14.0263 11.7014 14.371 10.9199C14.7157 10.1384 14.7833 9.26272 14.5626 8.43761ZM8.15261 9.24073C7.90723 9.2709 7.65841 9.22763 7.43763 9.11639C7.21684 9.00514 7.03399 8.83093 6.91222 8.61577C6.79045 8.40061 6.73521 8.15417 6.7535 7.90762C6.77178 7.66107 6.86277 7.42547 7.01496 7.23063C7.16714 7.03579 7.37368 6.89046 7.60847 6.813C7.84325 6.73555 8.09573 6.72946 8.33398 6.7955C8.57222 6.86154 8.78553 6.99674 8.94694 7.18402C9.10834 7.37129 9.21058 7.60222 9.24074 7.84761C9.28118 8.17664 9.18925 8.50826 8.98519 8.76952C8.78113 9.03078 8.48164 9.20028 8.15261 9.24073Z" fill="black"/>
</g>
<defs>
<clipPath id="clip0_5_827">
<rect width="16" height="16" fill="white"/>
</clipPath>
</defs>
</svg>
