<svg width="16" height="16" viewBox="0 0 16 16" fill="none" xmlns="http://www.w3.org/2000/svg">
<g clip-path="url(#clip0_5_1448)">
<path d="M16 7.99985C16.0003 8.16621 15.9584 8.32991 15.8783 8.4757C15.7982 8.6215 15.6824 8.74462 15.5419 8.8336L10.03 12.3436C9.88001 12.4395 9.70703 12.4934 9.52911 12.4996C9.3512 12.5058 9.17488 12.4642 9.01856 12.379C8.86224 12.2938 8.73165 12.1682 8.64044 12.0153C8.54922 11.8624 8.50072 11.6879 8.5 11.5099V9.1786L3.53 12.3436C3.38001 12.4395 3.20703 12.4934 3.02911 12.4996C2.8512 12.5058 2.67488 12.4642 2.51856 12.379C2.36224 12.2938 2.23165 12.1682 2.14044 12.0153C2.04922 11.8624 2.00072 11.6879 2 11.5099V4.48985C2.00072 4.31183 2.04922 4.13727 2.14044 3.98439C2.23165 3.83151 2.36224 3.70592 2.51856 3.62074C2.67488 3.53555 2.8512 3.4939 3.02911 3.50012C3.20703 3.50634 3.38001 3.56021 3.53 3.6561L8.5 6.8211V4.48985C8.50072 4.31183 8.54922 4.13727 8.64044 3.98439C8.73165 3.83151 8.86224 3.70592 9.01856 3.62074C9.17488 3.53555 9.3512 3.4939 9.52911 3.50012C9.70703 3.50634 9.88001 3.56021 10.03 3.6561L15.5419 7.16611C15.6824 7.25509 15.7982 7.37821 15.8783 7.52401C15.9584 7.6698 16.0003 7.8335 16 7.99985Z" fill="black"/>
</g>
<defs>
<clipPath id="clip0_5_1448">
<rect width="16" height="16" fill="white"/>
</clipPath>
</defs>
</svg>
