<svg width="16" height="16" viewBox="0 0 16 16" fill="none" xmlns="http://www.w3.org/2000/svg">
<g clip-path="url(#clip0_5_825)">
<path d="M13.24 8.42542L9.50316 12.2048C9.41163 12.2974 9.30263 12.371 9.18247 12.4212C9.06231 12.4714 8.93339 12.4973 8.80316 12.4973H4.70753L2.85378 14.3535C2.80733 14.4 2.75218 14.4368 2.69148 14.462C2.63079 14.4871 2.56573 14.5001 2.50003 14.5001C2.43434 14.5001 2.36928 14.4871 2.30859 14.462C2.24789 14.4368 2.19274 14.4 2.14628 14.3535C2.09983 14.3071 2.06298 14.2519 2.03784 14.1912C2.0127 14.1305 1.99976 14.0655 1.99976 13.9998C1.99976 13.9341 2.0127 13.869 2.03784 13.8083C2.06298 13.7477 2.09983 13.6925 2.14628 13.646L3.55816 12.2348L7.79378 7.9998H13.0625C13.1118 7.99988 13.16 8.01452 13.2009 8.04188C13.2419 8.06924 13.2739 8.10809 13.2929 8.15357C13.3118 8.19904 13.3169 8.24911 13.3075 8.29748C13.2981 8.34584 13.2746 8.39035 13.24 8.42542ZM13.5438 1.91042C12.7766 1.27907 11.8019 0.955834 10.8095 1.00366C9.81705 1.05149 8.87795 1.46696 8.17503 2.16917L7.57503 2.76167C7.52778 2.80798 7.50081 2.87114 7.50003 2.9373V6.8748L10.9375 3.4373C11.0321 3.34749 11.1579 3.29816 11.2883 3.29983C11.4187 3.30149 11.5433 3.35403 11.6355 3.44623C11.7277 3.53843 11.7802 3.663 11.7819 3.79338C11.7835 3.92376 11.7342 4.04964 11.6444 4.14417L8.79441 6.9998H14.3182C14.3641 6.99989 14.4091 6.98734 14.4484 6.96353C14.4876 6.93972 14.5195 6.90556 14.5407 6.8648C14.9691 6.05018 15.1039 5.11285 14.9223 4.21052C14.7408 3.3082 14.2539 2.49594 13.5438 1.91042ZM3.92691 10.4517L6.50003 7.87855V4.4223C6.49995 4.37302 6.48531 4.32488 6.45795 4.2839C6.43059 4.24292 6.39174 4.21094 6.34626 4.19198C6.30078 4.17301 6.25072 4.16791 6.20235 4.1773C6.15399 4.1867 6.10947 4.21018 6.07441 4.2448L3.79316 6.4998C3.70001 6.5924 3.62614 6.70255 3.57583 6.82389C3.52551 6.94522 3.49975 7.07532 3.50003 7.20667V10.2748C3.49999 10.3243 3.51464 10.3726 3.5421 10.4138C3.56957 10.4549 3.60863 10.487 3.65434 10.506C3.70004 10.5249 3.75034 10.5298 3.79886 10.5202C3.84738 10.5105 3.89195 10.4867 3.92691 10.4517Z" fill="black"/>
</g>
<defs>
<clipPath id="clip0_5_825">
<rect width="16" height="16" fill="white"/>
</clipPath>
</defs>
</svg>
