<svg width="16" height="16" viewBox="0 0 16 16" fill="none" xmlns="http://www.w3.org/2000/svg">
<g clip-path="url(#clip0_5_860)">
<path d="M13.2499 5.99984C13.0249 5.99865 12.8018 6.0411 12.593 6.12484L10.6874 3.74609C10.844 3.52048 10.9454 3.26116 10.9832 2.98912C11.021 2.71708 10.9943 2.43995 10.9052 2.18016C10.816 1.92036 10.667 1.68519 10.4701 1.49368C10.2733 1.30216 10.0341 1.15967 9.77193 1.07773C9.50978 0.995795 9.23202 0.976715 8.96113 1.02203C8.69023 1.06735 8.43381 1.1758 8.2126 1.3386C7.99139 1.5014 7.8116 1.71398 7.68778 1.95914C7.56397 2.20431 7.4996 2.47518 7.49988 2.74984C7.49985 2.81121 7.50298 2.87254 7.50925 2.93359L4.60488 4.14359C4.42992 3.929 4.20655 3.75898 3.9531 3.64751C3.69966 3.53604 3.42339 3.48629 3.14698 3.50236C2.87057 3.51843 2.60192 3.59985 2.3631 3.73994C2.12428 3.88003 1.92211 4.07478 1.7732 4.3082C1.62429 4.54162 1.53288 4.80704 1.5065 5.08265C1.48012 5.35826 1.5195 5.6362 1.62143 5.89363C1.72335 6.15106 1.88491 6.38064 2.09281 6.56349C2.30071 6.74634 2.54904 6.87725 2.81738 6.94547L2.933 9.84422C2.66805 9.93468 2.42867 10.0874 2.23497 10.2895C2.04126 10.4917 1.89888 10.7373 1.81978 11.0059C1.74067 11.2745 1.72716 11.5581 1.78037 11.8329C1.83358 12.1078 1.95196 12.3659 2.12557 12.5855C2.29918 12.8052 2.52296 12.98 2.77811 13.0952C3.03326 13.2104 3.31233 13.2628 3.5919 13.2478C3.87147 13.2329 4.14337 13.1511 4.38478 13.0093C4.62618 12.8675 4.83005 12.6699 4.97925 12.433L7.99988 13.2792C8.00412 13.5607 8.0762 13.837 8.21 14.0847C8.3438 14.3323 8.53538 14.5441 8.76847 14.7019C9.00156 14.8597 9.26929 14.959 9.54893 14.9913C9.82858 15.0236 10.1119 14.9879 10.3748 14.8874C10.6377 14.7868 10.8725 14.6243 11.0593 14.4137C11.246 14.203 11.3791 13.9504 11.4474 13.6773C11.5157 13.4042 11.5171 13.1187 11.4515 12.8449C11.3859 12.5712 11.2552 12.3173 11.0705 12.1048L12.7711 9.43297C13.0118 9.50149 13.2644 9.51759 13.5119 9.48018C13.7593 9.44277 13.9959 9.35271 14.2056 9.21609C14.4153 9.07948 14.5932 8.89947 14.7274 8.68823C14.8616 8.47698 14.9489 8.23941 14.9835 7.99154C15.0181 7.74367 14.9991 7.49127 14.9278 7.25137C14.8565 7.01147 14.7346 6.78965 14.5703 6.60088C14.406 6.41211 14.2031 6.26077 13.9753 6.15709C13.7475 6.0534 13.5001 5.99978 13.2499 5.99984ZM4.44925 6.52234L7.10738 8.06234L4.51613 10.0761C4.34004 9.95014 4.1421 9.85795 3.93238 9.80422L3.81675 6.90547C4.05247 6.82427 4.26812 6.69365 4.44925 6.52234ZM9.348 4.49984C9.53988 4.48936 9.7287 4.44712 9.90675 4.37484L11.8124 6.75359C11.6908 6.92811 11.6023 7.12341 11.5511 7.32984L8.6405 7.46859L9.348 4.49984ZM5.1305 10.8655L7.74988 8.82859L8.74613 11.818C8.55641 11.9517 8.39499 12.1216 8.27113 12.318L5.24988 11.4705C5.24621 11.2633 5.20579 11.0585 5.1305 10.8655ZM9.74988 11.4998H9.69425L8.683 8.46672L11.5986 8.32797C11.6723 8.53452 11.7843 8.72535 11.9286 8.89047L10.228 11.5623C10.0723 11.5195 9.91137 11.4985 9.74988 11.4998ZM7.89488 3.85609C8.02924 4.01985 8.1918 4.15828 8.37488 4.26484L7.66863 7.23047L4.95175 5.65734C4.98372 5.52386 4.99987 5.38709 4.99988 5.24984C4.9999 5.18847 4.99677 5.12714 4.9905 5.06609L7.89488 3.85609Z" fill="black"/>
</g>
<defs>
<clipPath id="clip0_5_860">
<rect width="16" height="16" fill="white"/>
</clipPath>
</defs>
</svg>
