<svg width="16" height="16" viewBox="0 0 16 16" fill="none" xmlns="http://www.w3.org/2000/svg">
<g clip-path="url(#clip0_5_806)">
<path d="M2.75007 7.5H13.2501C13.3164 7.5 13.38 7.47366 13.4269 7.42678C13.4737 7.37989 13.5001 7.3163 13.5001 7.25V5.5C13.5001 5.43432 13.4872 5.36927 13.4621 5.30858C13.437 5.24788 13.4002 5.19272 13.3538 5.14625L9.85383 1.64625C9.80736 1.59983 9.7522 1.56303 9.6915 1.53793C9.6308 1.51284 9.56576 1.49995 9.50007 1.5H3.50007C3.23486 1.5 2.9805 1.60536 2.79297 1.79289C2.60543 1.98043 2.50007 2.23478 2.50007 2.5V7.25C2.50007 7.3163 2.52641 7.37989 2.5733 7.42678C2.62018 7.47366 2.68377 7.5 2.75007 7.5ZM9.50007 2.75L12.2501 5.5H9.50007V2.75ZM3.75007 9H2.75007C2.61747 9 2.49029 9.05268 2.39652 9.14645C2.30275 9.24021 2.25007 9.36739 2.25007 9.5V12.9825C2.24786 13.1119 2.29483 13.2372 2.38149 13.3333C2.46815 13.4294 2.58805 13.4889 2.71695 13.5C2.78534 13.5045 2.85394 13.495 2.91848 13.4719C2.98302 13.4488 3.04212 13.4127 3.09212 13.3658C3.14211 13.3189 3.18194 13.2622 3.20911 13.1993C3.23628 13.1364 3.25023 13.0685 3.25007 13V12.5H3.71258C4.66508 12.5 5.47132 11.755 5.49945 10.8031C5.50656 10.5689 5.46658 10.3357 5.38186 10.1172C5.29714 9.8988 5.16942 9.69959 5.00627 9.53143C4.84312 9.36326 4.64787 9.22957 4.43208 9.13829C4.21629 9.047 3.98438 8.99998 3.75007 9ZM3.7282 11.5H3.25007V10H3.75007C3.85498 9.99951 3.95881 10.021 4.05488 10.0632C4.15094 10.1053 4.2371 10.1671 4.30778 10.2446C4.37846 10.3222 4.4321 10.4136 4.46522 10.5132C4.49834 10.6127 4.51022 10.7181 4.50008 10.8225C4.47825 11.011 4.38721 11.1847 4.24459 11.3099C4.10197 11.4351 3.91794 11.5028 3.7282 11.5ZM14.0001 12.5544C14 12.6844 13.9494 12.8092 13.8588 12.9025C13.6848 13.0891 13.4745 13.2383 13.2409 13.3411C13.0073 13.4438 12.7553 13.4979 12.5001 13.5C11.3976 13.5 10.5001 12.4906 10.5001 11.25C10.5001 10.0094 11.3976 9 12.5001 9C12.8577 9.00109 13.2073 9.10666 13.5057 9.30375C13.6141 9.37134 13.6935 9.47697 13.7281 9.59996C13.7628 9.72295 13.7504 9.85446 13.6932 9.96875C13.6603 10.0308 13.6148 10.0851 13.5595 10.1284C13.5042 10.1716 13.4405 10.2027 13.3724 10.2197C13.3043 10.2367 13.2334 10.2392 13.1643 10.2269C13.0952 10.2147 13.0295 10.1881 12.9713 10.1488C12.8331 10.0522 12.6687 10.0003 12.5001 10C11.9488 10 11.5001 10.5625 11.5001 11.25C11.5001 11.9375 11.9488 12.5 12.5001 12.5C12.6806 12.498 12.8557 12.4384 13.0001 12.33V12C12.9315 12.0002 12.8637 11.9862 12.8008 11.959C12.7378 11.9319 12.6812 11.892 12.6343 11.842C12.5874 11.792 12.5513 11.7329 12.5282 11.6684C12.5051 11.6039 12.4955 11.5353 12.5001 11.4669C12.5111 11.3383 12.5704 11.2187 12.6661 11.1321C12.7618 11.0454 12.8867 10.9983 13.0157 11H13.5001C13.6327 11 13.7599 11.0527 13.8536 11.1464C13.9474 11.2402 14.0001 11.3674 14.0001 11.5V12.5544ZM9.75007 9.5V12.985C9.75136 13.0765 9.72816 13.1667 9.68289 13.2463C9.63762 13.3258 9.57192 13.3919 9.49258 13.4375C9.38518 13.497 9.25965 13.5149 9.13989 13.4879C9.02013 13.4608 8.91452 13.3906 8.8432 13.2906L7.25007 11.0625V12.985C7.25197 13.1141 7.20486 13.2392 7.11823 13.335C7.0316 13.4308 6.91188 13.4902 6.7832 13.5013C6.71481 13.5058 6.64621 13.4962 6.58167 13.4731C6.51713 13.4501 6.45803 13.4139 6.40803 13.3671C6.35804 13.3202 6.31821 13.2635 6.29104 13.2006C6.26387 13.1376 6.24992 13.0698 6.25007 13.0013V9.51937C6.24839 9.42236 6.27405 9.32682 6.32412 9.2437C6.37419 9.16059 6.44665 9.09324 6.5332 9.04937C6.6395 8.99795 6.76056 8.9858 6.87496 9.01509C6.98935 9.04437 7.08969 9.1132 7.1582 9.20938L8.75007 11.4375V9.51688C8.74834 9.38784 8.79552 9.26293 8.88214 9.16727C8.96875 9.07161 9.08838 9.0123 9.21695 9.00125C9.28524 8.99672 9.35373 9.00625 9.41818 9.02926C9.48264 9.05227 9.54168 9.08827 9.59166 9.13502C9.64164 9.18178 9.68149 9.2383 9.70873 9.30108C9.73598 9.36386 9.75005 9.43156 9.75007 9.5Z" fill="black"/>
</g>
<defs>
<clipPath id="clip0_5_806">
<rect width="16" height="16" fill="white"/>
</clipPath>
</defs>
</svg>
