<svg width="16" height="16" viewBox="0 0 16 16" fill="none" xmlns="http://www.w3.org/2000/svg">
<g clip-path="url(#clip0_5_1233)">
<path d="M13.3538 5.14625L9.85382 1.64625C9.80735 1.59983 9.75219 1.56303 9.69149 1.53793C9.63079 1.51284 9.56575 1.49995 9.50006 1.5H3.50006C3.23485 1.5 2.98049 1.60536 2.79296 1.79289C2.60542 1.98043 2.50006 2.23478 2.50006 2.5V7.25C2.50006 7.3163 2.5264 7.37989 2.57329 7.42678C2.62017 7.47366 2.68376 7.5 2.75006 7.5H10.7501C10.8164 7.5 10.88 7.52634 10.9268 7.57322C10.9737 7.62011 11.0001 7.6837 11.0001 7.75V14.25C11.0001 14.3163 11.0264 14.3799 11.0733 14.4268C11.1202 14.4737 11.1838 14.5 11.2501 14.5H12.5001C12.7653 14.5 13.0196 14.3946 13.2072 14.2071C13.3947 14.0196 13.5001 13.7652 13.5001 13.5V5.5C13.5001 5.43432 13.4872 5.36927 13.4621 5.30858C13.437 5.24788 13.4002 5.19272 13.3538 5.14625ZM9.50006 5.5V2.75L12.2501 5.5H9.50006ZM4.00006 9H3.00006C2.86746 9 2.74028 9.05268 2.64651 9.14645C2.55274 9.24021 2.50006 9.36739 2.50006 9.5V12.9831C2.49801 13.1124 2.54505 13.2376 2.6317 13.3335C2.71834 13.4294 2.83815 13.4889 2.96694 13.5C3.03533 13.5045 3.10393 13.495 3.16847 13.4719C3.23301 13.4488 3.29211 13.4127 3.34211 13.3658C3.3921 13.3189 3.43193 13.2622 3.4591 13.1993C3.48627 13.1364 3.50022 13.0685 3.50006 13V12.5H3.96256C4.91506 12.5 5.72131 11.755 5.74944 10.8031C5.75655 10.5689 5.71656 10.3357 5.63185 10.1172C5.54713 9.8988 5.41941 9.69959 5.25626 9.53143C5.09311 9.36326 4.89785 9.22957 4.68207 9.13829C4.46628 9.047 4.23436 8.99998 4.00006 9ZM3.97819 11.5H3.50006V10H4.00006C4.10497 9.99951 4.2088 10.021 4.30487 10.0632C4.40093 10.1053 4.48709 10.1671 4.55777 10.2446C4.62845 10.3222 4.68209 10.4136 4.71521 10.5132C4.74833 10.6127 4.76021 10.7181 4.75006 10.8225C4.72824 11.011 4.63719 11.1847 4.49458 11.3099C4.35196 11.4351 4.16793 11.5028 3.97819 11.5ZM9.66569 9.7825L8.50006 11.6431V12.9831C8.5018 13.1122 8.45462 13.2371 8.368 13.3327C8.28139 13.4284 8.16176 13.4877 8.03319 13.4987C7.9648 13.5033 7.8962 13.4937 7.83166 13.4706C7.76712 13.4475 7.70802 13.4114 7.65802 13.3646C7.60803 13.3177 7.5682 13.261 7.54103 13.1981C7.51386 13.1351 7.49991 13.0673 7.50006 12.9987V11.6431L6.33694 9.7825C6.26507 9.67118 6.23899 9.5364 6.26415 9.40631C6.28931 9.27622 6.36375 9.16088 6.47194 9.08438C6.5276 9.04716 6.59016 9.02151 6.65592 9.00893C6.72168 8.99636 6.78929 8.99712 6.85475 9.01117C6.92021 9.02521 6.98218 9.05226 7.03699 9.09071C7.0918 9.12916 7.13833 9.17823 7.17381 9.235L8.00006 10.5569L8.82631 9.235C8.8618 9.17823 8.90833 9.12916 8.96314 9.09071C9.01795 9.05226 9.07992 9.02521 9.14538 9.01117C9.21084 8.99712 9.27845 8.99636 9.34421 9.00893C9.40997 9.02151 9.47253 9.04716 9.52819 9.08438C9.63638 9.16088 9.71082 9.27622 9.73598 9.40631C9.76114 9.5364 9.73506 9.67118 9.66319 9.7825H9.66569Z" fill="black"/>
</g>
<defs>
<clipPath id="clip0_5_1233">
<rect width="16" height="16" fill="white"/>
</clipPath>
</defs>
</svg>
