<svg width="16" height="16" viewBox="0 0 16 16" fill="none" xmlns="http://www.w3.org/2000/svg">
<g clip-path="url(#clip0_5_809)">
<path d="M13.3538 5.14625L9.85382 1.64625C9.80735 1.59983 9.7522 1.56303 9.6915 1.53793C9.6308 1.51284 9.56575 1.49995 9.50007 1.5H3.50007C3.23486 1.5 2.9805 1.60536 2.79297 1.79289C2.60543 1.98043 2.50007 2.23478 2.50007 2.5V7.25C2.50007 7.3163 2.52641 7.37989 2.5733 7.42678C2.62018 7.47366 2.68377 7.5 2.75007 7.5H12.2501C12.3164 7.5 12.38 7.52634 12.4268 7.57322C12.4737 7.62011 12.5001 7.6837 12.5001 7.75V14C12.5001 14.0719 12.5156 14.143 12.5456 14.2084C12.5756 14.2738 12.6194 14.332 12.6739 14.3789C12.7284 14.4258 12.7924 14.4604 12.8616 14.4804C12.9307 14.5003 13.0033 14.5051 13.0744 14.4944C13.1947 14.4743 13.3037 14.4119 13.3818 14.3183C13.4599 14.2247 13.5019 14.1062 13.5001 13.9844V5.5C13.5001 5.43432 13.4872 5.36927 13.4621 5.30858C13.437 5.24788 13.4002 5.19272 13.3538 5.14625ZM9.50007 5.5V2.75L12.2501 5.5H9.50007ZM9.00007 9H8.00007C7.86746 9 7.74029 9.05268 7.64652 9.14645C7.55275 9.24021 7.50007 9.36739 7.50007 9.5V13C7.50007 13.1326 7.55275 13.2598 7.64652 13.3536C7.74029 13.4473 7.86746 13.5 8.00007 13.5H8.95757C10.1863 13.5 11.2207 12.5325 11.2494 11.3044C11.2567 11.0044 11.2039 10.706 11.0941 10.4268C10.9843 10.1475 10.8198 9.89306 10.6102 9.67834C10.4006 9.46362 10.1502 9.293 9.87366 9.1765C9.59715 9.06001 9.30013 9 9.00007 9ZM8.96945 12.5H8.50007V10H9.00007C9.16835 9.99988 9.33493 10.0337 9.48981 10.0995C9.64469 10.1653 9.78469 10.2617 9.90142 10.383C10.0181 10.5042 10.1092 10.6477 10.1691 10.805C10.229 10.9622 10.2566 11.13 10.2501 11.2981C10.2238 11.9744 9.64632 12.5 8.96945 12.5ZM6.50007 9.5V12.9831C6.50213 13.1124 6.45509 13.2376 6.36844 13.3335C6.28179 13.4294 6.16199 13.4889 6.0332 13.5C5.9648 13.5045 5.89621 13.495 5.83167 13.4719C5.76713 13.4488 5.70803 13.4127 5.65803 13.3658C5.60803 13.3189 5.56821 13.2622 5.54104 13.1993C5.51387 13.1364 5.49992 13.0685 5.50007 13V11.0863L4.66757 12.2738C4.60418 12.3672 4.51201 12.4374 4.40507 12.4738C4.30358 12.5066 4.19423 12.5061 4.09303 12.4724C3.99183 12.4386 3.90407 12.3734 3.84257 12.2863L3.00007 11.0863V12.9831C3.00213 13.1124 2.95509 13.2376 2.86844 13.3335C2.78179 13.4294 2.66199 13.4889 2.5332 13.5C2.4648 13.5045 2.39621 13.495 2.33167 13.4719C2.26713 13.4488 2.20803 13.4127 2.15803 13.3658C2.10803 13.3189 2.06821 13.2622 2.04104 13.1993C2.01387 13.1364 1.99992 13.0685 2.00007 13V9.51937C1.99844 9.42205 2.02433 9.32625 2.07475 9.24299C2.12517 9.15973 2.19807 9.0924 2.28507 9.04875C2.39185 8.99776 2.51326 8.9863 2.6277 9.01639C2.74214 9.04649 2.84219 9.1162 2.91007 9.21313L4.25007 11.1281L5.57945 9.22875C5.63404 9.14812 5.71027 9.08453 5.79938 9.04528C5.88849 9.00603 5.98686 8.99272 6.0832 9.00688C6.19976 9.02653 6.3056 9.08684 6.38191 9.17712C6.45823 9.26739 6.50009 9.38179 6.50007 9.5Z" fill="black"/>
</g>
<defs>
<clipPath id="clip0_5_809">
<rect width="16" height="16" fill="white"/>
</clipPath>
</defs>
</svg>
