<svg width="16" height="16" viewBox="0 0 16 16" fill="none" xmlns="http://www.w3.org/2000/svg">
<g clip-path="url(#clip0_5_1312)">
<path d="M13.5 6.49984H6.38059L13.125 4.71921C13.1888 4.70239 13.2487 4.67309 13.3011 4.63301C13.3536 4.59293 13.3976 4.54285 13.4306 4.48568C13.4636 4.4285 13.485 4.36535 13.4934 4.29988C13.5019 4.23441 13.4973 4.1679 13.48 4.10421L12.97 2.22921C12.8998 1.97695 12.733 1.7625 12.5059 1.6323C12.2787 1.5021 12.0094 1.46664 11.7562 1.53359L2.23809 4.04609C2.11136 4.07898 1.99247 4.13683 1.88837 4.21625C1.78427 4.29566 1.69706 4.39505 1.63184 4.50859C1.56627 4.62073 1.5239 4.74491 1.50725 4.87375C1.49061 5.00259 1.50004 5.13346 1.53497 5.25859L1.99997 6.97234C1.99997 6.98109 1.99997 6.99046 1.99997 6.99984V12.4998C1.99997 12.7651 2.10533 13.0194 2.29286 13.2069C2.4804 13.3945 2.73475 13.4998 2.99997 13.4998H13C13.2652 13.4998 13.5195 13.3945 13.7071 13.2069C13.8946 13.0194 14 12.7651 14 12.4998V6.99984C14 6.86723 13.9473 6.74005 13.8535 6.64628C13.7598 6.55251 13.6326 6.49984 13.5 6.49984ZM12.01 2.49984L12.385 3.87921L10.2856 4.43734L8.52747 3.41984L12.01 2.49984ZM4.84684 4.39171L6.60434 5.40671L2.87934 6.38984L2.50434 5.00984L4.84684 4.39171Z" fill="black"/>
</g>
<defs>
<clipPath id="clip0_5_1312">
<rect width="16" height="16" fill="white"/>
</clipPath>
</defs>
</svg>
