<svg width="16" height="16" viewBox="0 0 16 16" fill="none" xmlns="http://www.w3.org/2000/svg">
<g clip-path="url(#clip0_5_796)">
<path d="M14.5001 13.5001H11.4601C12.7847 12.6656 13.7633 11.3808 14.2161 9.8822C14.6689 8.38357 14.5653 6.77184 13.9244 5.3435C13.2835 3.91517 12.1484 2.76629 10.7279 2.10821C9.30735 1.45014 7.69699 1.32712 6.19301 1.7618C4.68903 2.19648 3.39258 3.15961 2.54216 4.47403C1.69173 5.78844 1.34453 7.36573 1.56442 8.91575C1.78431 10.4658 2.5565 11.8843 3.73894 12.9103C4.92139 13.9363 6.43455 14.5009 8.00009 14.5001H14.5001C14.6327 14.5001 14.7599 14.4474 14.8536 14.3537C14.9474 14.2599 15.0001 14.1327 15.0001 14.0001C15.0001 13.8675 14.9474 13.7403 14.8536 13.6465C14.7599 13.5528 14.6327 13.5001 14.5001 13.5001ZM5.00009 9.2501C4.75286 9.2501 4.51119 9.17679 4.30563 9.03944C4.10007 8.90209 3.93985 8.70686 3.84524 8.47846C3.75063 8.25005 3.72588 7.99871 3.77411 7.75624C3.82234 7.51376 3.94139 7.29103 4.11621 7.11622C4.29102 6.9414 4.51375 6.82235 4.75623 6.77412C4.9987 6.72589 5.25004 6.75064 5.47845 6.84525C5.70685 6.93986 5.90208 7.10008 6.03943 7.30564C6.17678 7.5112 6.25009 7.75287 6.25009 8.0001C6.25009 8.33162 6.11839 8.64956 5.88397 8.88398C5.64955 9.1184 5.33161 9.2501 5.00009 9.2501ZM8.00009 12.2501C7.75286 12.2501 7.51119 12.1768 7.30563 12.0394C7.10007 11.9021 6.93985 11.7069 6.84524 11.4785C6.75063 11.25 6.72588 10.9987 6.77411 10.7562C6.82234 10.5138 6.94139 10.291 7.11621 10.1162C7.29102 9.9414 7.51375 9.82235 7.75623 9.77412C7.9987 9.72589 8.25004 9.75064 8.47845 9.84525C8.70685 9.93986 8.90208 10.1001 9.03943 10.3056C9.17678 10.5112 9.25009 10.7529 9.25009 11.0001C9.25009 11.3316 9.11839 11.6496 8.88397 11.884C8.64955 12.1184 8.33161 12.2501 8.00009 12.2501ZM8.00009 6.2501C7.75286 6.2501 7.51119 6.17679 7.30563 6.03944C7.10007 5.90209 6.93985 5.70686 6.84524 5.47846C6.75063 5.25005 6.72588 4.99871 6.77411 4.75624C6.82234 4.51376 6.94139 4.29103 7.11621 4.11622C7.29102 3.9414 7.51375 3.82235 7.75623 3.77412C7.9987 3.72589 8.25004 3.75064 8.47845 3.84525C8.70685 3.93986 8.90208 4.10008 9.03943 4.30564C9.17678 4.5112 9.25009 4.75287 9.25009 5.0001C9.25009 5.33162 9.11839 5.64956 8.88397 5.88398C8.64955 6.1184 8.33161 6.2501 8.00009 6.2501ZM9.75009 8.0001C9.75009 7.75287 9.8234 7.5112 9.96075 7.30564C10.0981 7.10008 10.2933 6.93986 10.5217 6.84525C10.7501 6.75064 11.0015 6.72589 11.244 6.77412C11.4864 6.82235 11.7092 6.9414 11.884 7.11622C12.0588 7.29103 12.1778 7.51376 12.2261 7.75624C12.2743 7.99871 12.2495 8.25005 12.1549 8.47846C12.0603 8.70686 11.9001 8.90209 11.6946 9.03944C11.489 9.17679 11.2473 9.2501 11.0001 9.2501C10.6686 9.2501 10.3506 9.1184 10.1162 8.88398C9.88179 8.64956 9.75009 8.33162 9.75009 8.0001Z" fill="black"/>
</g>
<defs>
<clipPath id="clip0_5_796">
<rect width="16" height="16" fill="white"/>
</clipPath>
</defs>
</svg>
