<svg width="16" height="16" viewBox="0 0 16 16" fill="none" xmlns="http://www.w3.org/2000/svg">
<g clip-path="url(#clip0_5_1144)">
<path d="M7.9008 1.5002C4.42018 1.55333 1.5758 4.37958 1.50018 7.85958C1.4738 9.03004 1.76564 10.1857 2.34455 11.2033C2.36726 11.2432 2.40048 11.276 2.44059 11.2982C2.48069 11.3204 2.52613 11.3312 2.57194 11.3293C2.61775 11.3274 2.66217 11.313 2.70033 11.2876C2.73848 11.2622 2.76892 11.2268 2.7883 11.1852C3.2579 10.1891 3.50101 9.10142 3.50018 8.0002C3.49974 6.9125 3.89366 5.86152 4.60893 5.04208C4.68978 4.94578 4.80315 4.88248 4.92755 4.86416C5.05195 4.84585 5.17875 4.87379 5.28393 4.9427C5.34253 4.9828 5.39193 5.03492 5.42882 5.09559C5.46572 5.15627 5.48926 5.2241 5.4979 5.29459C5.50653 5.36507 5.50005 5.43658 5.47889 5.50437C5.45773 5.57215 5.42237 5.63465 5.37518 5.6877C4.81149 6.32617 4.50033 7.14851 4.50018 8.0002C4.50205 9.50044 4.10425 10.9741 3.34768 12.2696C3.31963 12.3172 3.30815 12.3728 3.31505 12.4276C3.32195 12.4825 3.34683 12.5335 3.3858 12.5727C3.63394 12.8243 3.90211 13.0552 4.18768 13.2633C4.21593 13.284 4.24821 13.2986 4.28245 13.306C4.31668 13.3135 4.35209 13.3136 4.38638 13.3065C4.42068 13.2993 4.45309 13.2851 4.48153 13.2646C4.50996 13.2442 4.53377 13.218 4.55143 13.1877C4.81949 12.7481 5.0531 12.2884 5.25018 11.8127C5.27521 11.752 5.31196 11.6968 5.35833 11.6502C5.4047 11.6037 5.45978 11.5667 5.52043 11.5415C5.58108 11.5163 5.64611 11.5032 5.7118 11.5031C5.77749 11.503 5.84257 11.5158 5.9033 11.5408C5.96404 11.5659 6.01925 11.6026 6.06578 11.649C6.11232 11.6954 6.14926 11.7504 6.17451 11.8111C6.19975 11.8717 6.21281 11.9368 6.21292 12.0025C6.21304 12.0681 6.20021 12.1332 6.17518 12.194C5.96523 12.7021 5.71767 13.1939 5.43455 13.6652C5.41619 13.696 5.40466 13.7303 5.40073 13.7659C5.39679 13.8015 5.40055 13.8375 5.41176 13.8715C5.42296 13.9056 5.44134 13.9368 5.46565 13.9631C5.48996 13.9894 5.51964 14.0101 5.55268 14.024C6.05393 14.2284 6.57887 14.3691 7.11518 14.4427C7.16525 14.4501 7.21637 14.4421 7.26179 14.4197C7.30721 14.3974 7.34479 14.3618 7.36955 14.3177C8.28567 12.6719 8.8311 10.8457 8.96768 8.96708C8.97044 8.90016 8.98662 8.83447 9.01525 8.77392C9.04389 8.71337 9.0844 8.65919 9.13438 8.61459C9.18436 8.57 9.24279 8.53591 9.3062 8.51433C9.36962 8.49276 9.43672 8.48415 9.50352 8.489C9.57032 8.49386 9.63547 8.51209 9.6951 8.54262C9.75472 8.57314 9.8076 8.61533 9.8506 8.66668C9.8936 8.71804 9.92585 8.77751 9.94543 8.84157C9.965 8.90562 9.9715 8.97296 9.96455 9.03958C9.83733 10.7919 9.3797 12.5043 8.6158 14.0865C8.59583 14.1269 8.58718 14.172 8.59077 14.217C8.59436 14.262 8.61007 14.3052 8.63621 14.342C8.66235 14.3787 8.69797 14.4077 8.73927 14.4259C8.78057 14.4441 8.82602 14.4508 8.8708 14.4452C9.3094 14.3863 9.74082 14.2826 10.1583 14.1358C10.1912 14.1241 10.2212 14.1057 10.2465 14.0817C10.2718 14.0577 10.2918 14.0286 10.3052 13.9965C11.0846 12.1314 11.4906 10.1316 11.5002 8.1102C11.5139 6.1952 10.0377 4.56833 8.12518 4.50208C7.7884 4.49041 7.45168 4.52682 7.12518 4.6102C7.05922 4.62714 6.99051 4.63042 6.92324 4.61985C6.85597 4.60928 6.79157 4.58509 6.73399 4.54875C6.67641 4.51241 6.62685 4.46469 6.58837 4.40851C6.54988 4.35234 6.52327 4.2889 6.51018 4.22208C6.48839 4.09256 6.51698 3.95961 6.59007 3.85049C6.66317 3.74137 6.77524 3.66435 6.9033 3.6352C7.567 3.46902 8.25985 3.45626 8.92922 3.59789C9.59859 3.73952 10.2269 4.03182 10.7664 4.45258C11.3059 4.87335 11.7424 5.41152 12.0429 6.02623C12.3433 6.64093 12.4997 7.31601 12.5002 8.0002C12.5017 9.57881 12.2773 11.1495 11.8339 12.6646C11.8184 12.7165 11.8203 12.7721 11.8392 12.823C11.858 12.8738 11.8929 12.9171 11.9385 12.9464C11.9842 12.9756 12.0381 12.9893 12.0922 12.9852C12.1462 12.9812 12.1975 12.9597 12.2383 12.924C13.2496 12.0527 13.9681 10.8913 14.2962 9.59744C14.6243 8.3036 14.5462 6.94011 14.0724 5.69224C13.5986 4.44436 12.7521 3.37261 11.6479 2.62261C10.5438 1.8726 9.23546 1.48072 7.9008 1.5002ZM8.00018 6.0002C8.28154 6.00044 8.5597 6.05995 8.81653 6.17485C9.07336 6.28975 9.30311 6.45747 9.4908 6.66708C9.53733 6.7191 9.57245 6.78029 9.5939 6.8467C9.61535 6.91312 9.62267 6.98328 9.61537 7.05269C9.60807 7.1221 9.58632 7.18922 9.55151 7.24971C9.51671 7.31021 9.46963 7.36275 9.4133 7.40395C9.30932 7.47556 9.18271 7.50657 9.05741 7.49114C8.93211 7.47571 8.8168 7.4149 8.7333 7.3202C8.60273 7.17947 8.43441 7.07929 8.24844 7.03163C8.06247 6.98397 7.86672 6.99086 7.68455 7.05145C7.48177 7.12205 7.3063 7.25458 7.18294 7.43032C7.05957 7.60606 6.99455 7.81613 6.99705 8.03083C6.99531 8.72306 6.92856 9.41359 6.79768 10.0933C6.7762 10.2067 6.71617 10.3091 6.62777 10.3833C6.53937 10.4575 6.42805 10.4988 6.31268 10.5002C6.28122 10.5004 6.24981 10.4974 6.21893 10.4915C6.08773 10.4616 5.97325 10.382 5.89967 10.2693C5.82609 10.1567 5.79915 10.0198 5.82455 9.8877C5.94231 9.26546 6.00112 8.63349 6.00018 8.0002C6.00018 7.46977 6.21089 6.96106 6.58596 6.58599C6.96104 6.21092 7.46974 6.0002 8.00018 6.0002Z" fill="black"/>
</g>
<defs>
<clipPath id="clip0_5_1144">
<rect width="16" height="16" fill="white"/>
</clipPath>
</defs>
</svg>
