<svg width="16" height="16" viewBox="0 0 16 16" fill="none" xmlns="http://www.w3.org/2000/svg">
<g clip-path="url(#clip0_5_794)">
<path d="M7.90119 1.49976C4.42057 1.55289 1.57557 4.38039 1.49994 7.86289C1.47346 9.03423 1.76552 10.1908 2.34494 11.2091C2.3677 11.2489 2.40097 11.2817 2.44111 11.3039C2.48125 11.3261 2.52671 11.3368 2.57253 11.3348C2.61834 11.3329 2.66274 11.3184 2.70086 11.2929C2.73899 11.2674 2.76937 11.232 2.78869 11.1904C3.2581 10.1934 3.50079 9.10483 3.49932 8.00289C3.49821 7.32793 3.64944 6.66143 3.94173 6.05304C4.23402 5.44466 4.65983 4.91008 5.18744 4.48914C5.23919 4.44867 5.29841 4.4188 5.3617 4.40122C5.425 4.38364 5.49113 4.3787 5.55634 4.38668C5.62154 4.39466 5.68453 4.4154 5.74172 4.44773C5.79891 4.48005 5.84917 4.52332 5.88963 4.57507C5.9301 4.62682 5.95997 4.68604 5.97755 4.74933C5.99513 4.81262 6.00007 4.87876 5.99209 4.94397C5.98411 5.00917 5.96337 5.07216 5.93104 5.12935C5.89872 5.18654 5.85544 5.2368 5.80369 5.27726C5.39582 5.60494 5.06686 6.02016 4.84118 6.49218C4.6155 6.9642 4.49888 7.48094 4.49994 8.00414C4.50159 9.50521 4.10359 10.9797 3.34682 12.276C3.31877 12.3236 3.30729 12.3792 3.31419 12.4341C3.32109 12.4889 3.34597 12.5399 3.38494 12.5791C3.50994 12.7041 3.64057 12.8291 3.77557 12.9429C3.80324 12.9661 3.83561 12.9831 3.87047 12.9926C3.90533 13.0021 3.94183 13.004 3.97747 12.9981C4.01312 12.9921 4.04705 12.9785 4.07693 12.9582C4.10681 12.9379 4.13194 12.9113 4.15057 12.8804C4.70387 11.9618 5.09677 10.9558 5.31244 9.90539C5.33888 9.77543 5.41586 9.6613 5.52645 9.5881C5.63704 9.5149 5.77218 9.48864 5.90213 9.51507C6.03209 9.54151 6.14622 9.61849 6.21942 9.72908C6.29261 9.83967 6.31888 9.9748 6.29244 10.1048C6.05068 11.29 5.60511 12.4243 4.97557 13.4573C4.95781 13.4866 4.9463 13.5193 4.94173 13.5533C4.93716 13.5874 4.93965 13.6219 4.94903 13.655C4.95841 13.688 4.97449 13.7187 4.99626 13.7452C5.01803 13.7717 5.04502 13.7935 5.07557 13.8091C5.22994 13.8873 5.38807 13.9598 5.54869 14.026C5.60416 14.0498 5.66634 14.0527 5.72378 14.0342C5.78121 14.0157 5.83002 13.977 5.86119 13.9254C6.93495 12.1419 7.50156 10.0991 7.49994 8.01726C7.49866 7.88891 7.54582 7.7648 7.63201 7.66968C7.7182 7.57457 7.83709 7.51546 7.96494 7.50414C8.03349 7.49933 8.10229 7.5087 8.16705 7.53166C8.23181 7.55463 8.29115 7.59069 8.34135 7.63761C8.39155 7.68453 8.43154 7.74129 8.45883 7.80435C8.48612 7.86741 8.50011 7.93542 8.49994 8.00414C8.50242 10.1297 7.95995 12.2204 6.92432 14.0766C6.90438 14.1122 6.89344 14.1521 6.89245 14.1928C6.89145 14.2336 6.90044 14.2739 6.91862 14.3104C6.9368 14.3469 6.96362 14.3784 6.99675 14.4021C7.02988 14.4259 7.06831 14.4411 7.10869 14.4466C7.29828 14.4729 7.49015 14.4908 7.68432 14.5004C7.731 14.5021 7.77723 14.4907 7.81777 14.4675C7.85831 14.4443 7.89154 14.4103 7.91369 14.3691C8.95314 12.4248 9.49792 10.2545 9.49994 8.04976C9.50307 7.22164 8.85619 6.51914 8.0287 6.50351C7.82962 6.49969 7.63178 6.53555 7.44671 6.60899C7.26163 6.68242 7.09303 6.79197 6.95074 6.93124C6.80844 7.07051 6.69529 7.23672 6.6179 7.42017C6.5405 7.60363 6.50041 7.80065 6.49994 7.99976C6.49903 8.12462 6.452 8.24474 6.3679 8.33703C6.2838 8.42932 6.16856 8.48728 6.04432 8.49976C5.97503 8.50594 5.90521 8.49758 5.83932 8.47523C5.77344 8.45289 5.71295 8.41704 5.66172 8.36998C5.61048 8.32292 5.56963 8.26569 5.54177 8.20194C5.51392 8.13819 5.49967 8.06933 5.49994 7.99976C5.49993 7.66924 5.56545 7.34199 5.69273 7.03695C5.82 6.73191 6.0065 6.45514 6.24143 6.22265C6.47637 5.99016 6.75507 5.80656 7.06142 5.68248C7.36777 5.55839 7.69569 5.49629 8.02619 5.49976C9.40119 5.51414 10.5062 6.69789 10.4993 8.07226C10.4932 10.1108 10.0562 12.1251 9.21682 13.9829C9.19775 14.0257 9.19108 14.073 9.19758 14.1194C9.20408 14.1658 9.22349 14.2094 9.25359 14.2453C9.28369 14.2812 9.32328 14.3079 9.36783 14.3224C9.41238 14.3369 9.46011 14.3386 9.50557 14.3273C9.72241 14.2759 9.93644 14.2133 10.1468 14.1398C10.1796 14.1281 10.2096 14.1098 10.2349 14.0859C10.2602 14.062 10.2802 14.0331 10.2937 14.001C10.5847 13.3113 10.8246 12.601 11.0112 11.876C11.0276 11.8124 11.0564 11.7527 11.0959 11.7002C11.1354 11.6477 11.1849 11.6035 11.2415 11.5701C11.298 11.5367 11.3606 11.5148 11.4257 11.5057C11.4907 11.4965 11.557 11.5002 11.6206 11.5166C11.6842 11.5331 11.7439 11.5618 11.7964 11.6013C11.8489 11.6409 11.8931 11.6903 11.9265 11.7469C11.9598 11.8035 11.9817 11.8661 11.9909 11.9311C12.0001 11.9962 11.9964 12.0624 11.9799 12.126C11.9333 12.3081 11.8833 12.4893 11.8299 12.6698C11.8142 12.7217 11.8159 12.7773 11.8346 12.8283C11.8533 12.8792 11.8881 12.9227 11.9337 12.9521C11.9793 12.9815 12.0332 12.9953 12.0873 12.9914C12.1414 12.9875 12.1928 12.9661 12.2337 12.9304C13.2473 12.06 13.968 10.8985 14.2979 9.60392C14.6277 8.30932 14.5507 6.94452 14.0772 5.69528C13.6037 4.44604 12.7568 3.37304 11.6517 2.62233C10.5466 1.87161 9.23701 1.47964 7.90119 1.49976ZM12.3749 10.0673C12.3597 10.1879 12.3011 10.2989 12.21 10.3794C12.1189 10.4599 12.0015 10.5045 11.8799 10.5048C11.8591 10.5048 11.8382 10.5035 11.8174 10.501C11.7523 10.4929 11.6893 10.472 11.6322 10.4396C11.5751 10.4071 11.525 10.3638 11.4846 10.3119C11.4443 10.2601 11.4146 10.2008 11.3971 10.1375C11.3797 10.0742 11.3749 10.0081 11.3831 9.94289C11.4628 9.30013 11.5029 8.65307 11.5031 8.00539C11.5017 7.07753 11.1326 6.18806 10.4765 5.53197C9.82039 4.87588 8.93092 4.50671 8.00307 4.50539C7.85682 4.50532 7.71071 4.5143 7.56557 4.53226C7.43387 4.54884 7.30099 4.51242 7.19614 4.43102C7.0913 4.34961 7.02308 4.2299 7.00651 4.0982C6.98993 3.9665 7.02635 3.83361 7.10775 3.72877C7.18916 3.62393 7.30887 3.55571 7.44057 3.53914C8.07411 3.46033 8.71716 3.51704 9.32713 3.70551C9.9371 3.89398 10.5001 4.20991 10.9787 4.63237C11.4574 5.05483 11.8408 5.57417 12.1036 6.15599C12.3664 6.73782 12.5026 7.36884 12.5031 8.00726C12.5029 8.69591 12.4601 9.3839 12.3749 10.0673Z" fill="black"/>
</g>
<defs>
<clipPath id="clip0_5_794">
<rect width="16" height="16" fill="white"/>
</clipPath>
</defs>
</svg>
