<svg width="16" height="16" viewBox="0 0 16 16" fill="none" xmlns="http://www.w3.org/2000/svg">
<g clip-path="url(#clip0_5_1294)">
<path d="M11 9.25004C11 9.39837 10.956 9.54338 10.8736 9.66671C10.7912 9.79005 10.6741 9.88618 10.537 9.94294C10.4 9.99971 10.2492 10.0146 10.1037 9.98562C9.9582 9.95669 9.82456 9.88525 9.71967 9.78036C9.61479 9.67548 9.54335 9.54184 9.51441 9.39635C9.48548 9.25087 9.50033 9.10007 9.55709 8.96302C9.61386 8.82598 9.70999 8.70884 9.83333 8.62643C9.95666 8.54402 10.1017 8.50004 10.25 8.50004C10.4489 8.50004 10.6397 8.57905 10.7803 8.71971C10.921 8.86036 11 9.05112 11 9.25004ZM5.75 8.50004C5.60167 8.50004 5.45666 8.54402 5.33333 8.62643C5.20999 8.70884 5.11386 8.82598 5.05709 8.96302C5.00033 9.10007 4.98548 9.25087 5.01441 9.39635C5.04335 9.54184 5.11478 9.67548 5.21967 9.78036C5.32456 9.88525 5.4582 9.95669 5.60369 9.98562C5.74917 10.0146 5.89997 9.99971 6.03702 9.94294C6.17406 9.88618 6.29119 9.79005 6.37361 9.66671C6.45602 9.54338 6.5 9.39837 6.5 9.25004C6.5 9.05112 6.42099 8.86036 6.28033 8.71971C6.13968 8.57905 5.94892 8.50004 5.75 8.50004ZM15 4.50004V9.50004C14.9987 10.6931 14.5241 11.8369 13.6805 12.6806C12.8369 13.5242 11.6931 13.9987 10.5 14H5.5C4.30694 13.9987 3.16311 13.5242 2.31949 12.6806C1.47586 11.8369 1.00133 10.6931 1 9.50004V4.50004C0.999044 4.01256 1.17616 3.54152 1.49805 3.17544C1.81995 2.80935 2.26446 2.57344 2.74806 2.51203C3.23165 2.45062 3.72102 2.56795 4.1242 2.84196C4.52737 3.11597 4.81659 3.52779 4.9375 4.00004H11.0625C11.1834 3.52779 11.4726 3.11597 11.8758 2.84196C12.279 2.56795 12.7684 2.45062 13.252 2.51203C13.7355 2.57344 14.1801 2.80935 14.502 3.17544C14.8239 3.54152 15.001 4.01256 15 4.50004ZM12.5 9.00004C12.5 8.4696 12.2893 7.96089 11.9142 7.58582C11.5391 7.21075 11.0304 7.00004 10.5 7.00004H5.5C4.96957 7.00004 4.46086 7.21075 4.08579 7.58582C3.71072 7.96089 3.5 8.4696 3.5 9.00004V9.50004C3.5 10.0305 3.71072 10.5392 4.08579 10.9142C4.46086 11.2893 4.96957 11.5 5.5 11.5H10.5C11.0304 11.5 11.5391 11.2893 11.9142 10.9142C12.2893 10.5392 12.5 10.0305 12.5 9.50004V9.00004Z" fill="black"/>
</g>
<defs>
<clipPath id="clip0_5_1294">
<rect width="16" height="16" fill="white"/>
</clipPath>
</defs>
</svg>
