<svg width="16" height="16" viewBox="0 0 16 16" fill="none" xmlns="http://www.w3.org/2000/svg">
<g clip-path="url(#clip0_5_846)">
<path d="M8.96125 1.11552C8.89961 1.06428 8.82656 1.0286 8.74824 1.01151C8.66993 0.994409 8.58865 0.996391 8.51127 1.01728C8.43388 1.03818 8.36265 1.07737 8.30359 1.13156C8.24452 1.18575 8.19935 1.25334 8.17188 1.32865L6.79688 5.10427L5.28687 3.64115C5.23616 3.59196 5.17561 3.55408 5.10919 3.53C5.04278 3.50592 4.97201 3.49619 4.90157 3.50145C4.83112 3.5067 4.76258 3.52683 4.70047 3.5605C4.63837 3.59416 4.5841 3.64061 4.54125 3.69677C3.1875 5.47052 2.5 7.2549 2.5 8.9999C2.5 10.4586 3.07946 11.8575 4.11091 12.889C5.14236 13.9204 6.54131 14.4999 8 14.4999C9.45869 14.4999 10.8576 13.9204 11.8891 12.889C12.9205 11.8575 13.5 10.4586 13.5 8.9999C13.5 5.28427 10.3256 2.2499 8.96125 1.11552Z" fill="black"/>
</g>
<defs>
<clipPath id="clip0_5_846">
<rect width="16" height="16" fill="white"/>
</clipPath>
</defs>
</svg>
