<svg width="16" height="16" viewBox="0 0 16 16" fill="none" xmlns="http://www.w3.org/2000/svg">
<g clip-path="url(#clip0_5_1286)">
<path d="M13.6438 3.02112L9.85125 1.88362L11.7262 0.946118C11.8447 0.886444 11.9346 0.782166 11.9761 0.656224C12.0177 0.530281 12.0075 0.392991 11.9478 0.274555C11.8881 0.15612 11.7839 0.0662399 11.6579 0.0246889C11.532 -0.0168622 11.3947 -0.00668095 11.2762 0.0529928L8.375 1.50299C7.07112 1.53687 5.83197 2.07842 4.92142 3.01231C4.01087 3.94621 3.50086 5.19867 3.5 6.50299V12.9999C3.5 13.1325 3.55268 13.2597 3.64645 13.3534C3.74021 13.4472 3.86739 13.4999 4 13.4999C4.13261 13.4999 4.25979 13.4472 4.35355 13.3534C4.44732 13.2597 4.5 13.1325 4.5 12.9999V10.9999H5.5V14.4999C5.5 14.7651 5.60536 15.0194 5.79289 15.207C5.98043 15.3945 6.23478 15.4999 6.5 15.4999H10.5C10.7652 15.4999 11.0196 15.3945 11.2071 15.207C11.3946 15.0194 11.5 14.7651 11.5 14.4999V6.49987C11.499 5.79124 11.2476 5.10577 10.7901 4.56458C10.3326 4.0234 9.69857 3.66133 9 3.54237V2.67174L13.3562 3.97862C13.4196 3.99926 13.4865 4.00702 13.5529 4.00145C13.6193 3.99589 13.6839 3.97711 13.7429 3.94621C13.802 3.91531 13.8542 3.87293 13.8967 3.82154C13.9391 3.77016 13.9708 3.71081 13.99 3.64699C14.0091 3.58317 14.0154 3.51616 14.0083 3.4499C14.0012 3.38365 13.9809 3.31948 13.9486 3.26117C13.9164 3.20286 13.8728 3.15159 13.8204 3.11036C13.7681 3.06914 13.708 3.0388 13.6438 3.02112ZM4.5 9.99987V6.49987C4.50121 5.52605 4.85724 4.58605 5.50146 3.85578C6.14568 3.12551 7.03394 2.65502 8 2.53237V3.54237C7.30143 3.66133 6.66739 4.0234 6.20992 4.56458C5.75245 5.10577 5.501 5.79124 5.5 6.49987V9.99987H4.5ZM10.5 6.49987V9.99987H6.5V6.49987C6.5 5.96943 6.71071 5.46073 7.08579 5.08565C7.46086 4.71058 7.96957 4.49987 8.5 4.49987C9.03043 4.49987 9.53914 4.71058 9.91421 5.08565C10.2893 5.46073 10.5 5.96943 10.5 6.49987Z" fill="black"/>
</g>
<defs>
<clipPath id="clip0_5_1286">
<rect width="16" height="16" fill="white"/>
</clipPath>
</defs>
</svg>
