<svg width="16" height="16" viewBox="0 0 16 16" fill="none" xmlns="http://www.w3.org/2000/svg">
<g clip-path="url(#clip0_5_1620)">
<path d="M10.5001 4.74977C10.5001 4.89811 10.4561 5.04312 10.3737 5.16645C10.2913 5.28979 10.1742 5.38592 10.0371 5.44268C9.90007 5.49945 9.74927 5.5143 9.60378 5.48536C9.45829 5.45642 9.32466 5.38499 9.21977 5.2801C9.11488 5.17522 9.04345 5.04158 9.01451 4.89609C8.98557 4.75061 9.00042 4.59981 9.05719 4.46276C9.11395 4.32572 9.21008 4.20858 9.33342 4.12617C9.45676 4.04376 9.60176 3.99977 9.7501 3.99977C9.94901 3.99977 10.1398 4.07879 10.2804 4.21944C10.4211 4.3601 10.5001 4.55086 10.5001 4.74977ZM13.5451 8.97727C12.3345 11.1585 10.0801 12.3373 6.8426 12.4835L5.4676 15.6966C5.42895 15.7869 5.36461 15.8637 5.28259 15.9176C5.20057 15.9715 5.1045 16.0001 5.00635 15.9998H4.97447C4.87144 15.9933 4.77293 15.9551 4.69247 15.8904C4.61201 15.8258 4.55354 15.7378 4.5251 15.6385L3.6001 12.3991L0.362598 11.4723C0.26308 11.4443 0.174671 11.3862 0.10954 11.3059C0.0444086 11.2257 0.0057564 11.1272 -0.00109687 11.0241C-0.00795014 10.9209 0.0173324 10.8182 0.0712711 10.73C0.12521 10.6418 0.205153 10.5725 0.300098 10.5316L3.51322 9.15665C3.6601 5.9204 4.83885 3.66665 7.01885 2.4554C8.56572 1.59665 10.3151 1.4654 11.5113 1.50665C12.6763 1.54665 13.7613 1.77352 13.9401 1.88165C14.0131 1.92467 14.074 1.98553 14.117 2.05852C14.2226 2.23665 14.4501 3.32165 14.492 4.48665C14.5345 5.6804 14.4038 7.4304 13.5451 8.97727ZM13.2763 2.7229C12.392 2.5354 9.2701 2.0354 7.0076 3.64477C6.63312 3.91197 6.29671 4.22882 6.0076 4.58665C5.98391 4.91315 6.03175 5.24089 6.14779 5.547C6.26382 5.85311 6.44526 6.13021 6.67943 6.35896C6.9136 6.58772 7.19487 6.76262 7.50361 6.87147C7.81234 6.98031 8.14111 7.02047 8.46697 6.98915C8.54038 6.98208 8.61445 6.99134 8.68386 7.01626C8.75327 7.04118 8.81631 7.08115 8.86845 7.13329C8.9206 7.18544 8.96057 7.24848 8.98549 7.31789C9.01041 7.3873 9.01967 7.46137 9.0126 7.53477C8.98134 7.86075 9.02161 8.18963 9.13061 8.49843C9.2396 8.80724 9.41469 9.08853 9.64364 9.32266C9.8726 9.55679 10.1499 9.73813 10.4562 9.854C10.7625 9.96987 11.0904 10.0175 11.417 9.99352C11.7735 9.70434 12.0889 9.36791 12.3545 8.99352C13.9638 6.7329 13.4638 3.60852 13.2763 2.7229Z" fill="black"/>
</g>
<defs>
<clipPath id="clip0_5_1620">
<rect width="16" height="16" fill="white"/>
</clipPath>
</defs>
</svg>
