<svg width="16" height="16" viewBox="0 0 16 16" fill="none" xmlns="http://www.w3.org/2000/svg">
<g clip-path="url(#clip0_5_833)">
<path d="M15.5 6.4998C15.5001 6.60366 15.4678 6.70497 15.4076 6.78964C15.3475 6.87432 15.2625 6.93816 15.1644 6.9723L4 10.8554V13.4998C4 13.6324 3.94732 13.7596 3.85355 13.8534C3.75979 13.9471 3.63261 13.9998 3.5 13.9998C3.36739 13.9998 3.24021 13.9471 3.14645 13.8534C3.05268 13.7596 3 13.6324 3 13.4998V2.4998C2.99995 2.41999 3.01901 2.34133 3.05558 2.2704C3.09216 2.19946 3.14518 2.13831 3.21022 2.09205C3.27525 2.0458 3.35042 2.01578 3.42943 2.00452C3.50844 1.99325 3.589 2.00107 3.66438 2.0273L15.1644 6.0273C15.2625 6.06145 15.3475 6.12529 15.4076 6.20996C15.4678 6.29464 15.5001 6.39594 15.5 6.4998Z" fill="black"/>
</g>
<defs>
<clipPath id="clip0_5_833">
<rect width="16" height="16" fill="white"/>
</clipPath>
</defs>
</svg>
