<svg width="16" height="16" viewBox="0 0 16 16" fill="none" xmlns="http://www.w3.org/2000/svg">
<g clip-path="url(#clip0_5_887)">
<path d="M10.8619 3.21765C10.0846 2.39859 9.21 1.67781 8.2575 1.0714C8.17973 1.02468 8.09072 1 8 1C7.90928 1 7.82027 1.02468 7.7425 1.0714C6.79 1.67781 5.91537 2.39859 5.13812 3.21765C3.41187 5.03016 2.5 7.02953 2.5 9.00015C2.5 10.4588 3.07946 11.8578 4.11091 12.8892C5.14236 13.9207 6.54131 14.5002 8 14.5002C9.45869 14.5002 10.8576 13.9207 11.8891 12.8892C12.9205 11.8578 13.5 10.4588 13.5 9.00015C13.5 7.02953 12.5881 5.03016 10.8619 3.21765ZM6 11.5002C6 9.77078 7.40812 8.54515 8 8.1064C8.5925 8.5439 10 9.77078 10 11.5002C10 12.0306 9.78929 12.5393 9.41421 12.9144C9.03914 13.2894 8.53043 13.5002 8 13.5002C7.46957 13.5002 6.96086 13.2894 6.58579 12.9144C6.21071 12.5393 6 12.0306 6 11.5002Z" fill="black"/>
</g>
<defs>
<clipPath id="clip0_5_887">
<rect width="16" height="16" fill="white"/>
</clipPath>
</defs>
</svg>
