<svg width="16" height="16" viewBox="0 0 16 16" fill="none" xmlns="http://www.w3.org/2000/svg">
<g clip-path="url(#clip0_5_787)">
<path d="M7.50008 2.49992V12.4999C7.50008 12.7651 7.39473 13.0195 7.20719 13.207C7.01966 13.3946 6.7653 13.4999 6.50008 13.4999H2.50008C2.33543 13.5 2.1733 13.4594 2.02809 13.3818C1.88288 13.3042 1.75908 13.1919 1.66769 13.055C1.5763 12.918 1.52014 12.7606 1.50421 12.5967C1.48827 12.4328 1.51305 12.2675 1.57633 12.1155L5.57633 2.11992L5.58008 2.11117C5.67031 1.89936 5.83086 1.72517 6.03462 1.61801C6.23839 1.51085 6.47289 1.47727 6.69854 1.52296C6.92418 1.56865 7.12715 1.6908 7.27318 1.86878C7.41921 2.04677 7.49936 2.26969 7.50008 2.49992ZM14.3332 13.0524C14.242 13.19 14.1183 13.3028 13.9729 13.3809C13.8275 13.459 13.6651 13.4999 13.5001 13.4999H9.50008C9.23487 13.4999 8.98051 13.3946 8.79298 13.207C8.60544 13.0195 8.50008 12.7651 8.50008 12.4999V2.49992C8.49999 2.26911 8.57974 2.04538 8.7258 1.86667C8.87187 1.68796 9.07525 1.56528 9.30146 1.51944C9.52766 1.47359 9.76276 1.50741 9.96688 1.61515C10.171 1.72289 10.3316 1.89791 10.4213 2.11054L10.4251 2.11929L14.4251 12.1149C14.488 12.2667 14.5125 12.4316 14.4964 12.5952C14.4804 12.7587 14.4244 12.9157 14.3332 13.0524ZM13.5001 12.4999L13.4963 12.4905L9.50008 2.49992V12.4999H13.5001Z" fill="black"/>
</g>
<defs>
<clipPath id="clip0_5_787">
<rect width="16" height="16" fill="white"/>
</clipPath>
</defs>
</svg>
