<svg width="16" height="16" viewBox="0 0 16 16" fill="none" xmlns="http://www.w3.org/2000/svg">
<g clip-path="url(#clip0_5_881)">
<path d="M3.5 7.50013H13.5C13.7308 7.50023 13.9545 7.42048 14.1332 7.27441C14.312 7.12835 14.4346 6.92497 14.4805 6.69876C14.5263 6.47255 14.4925 6.23745 14.3848 6.03334C14.277 5.82922 14.102 5.66866 13.8894 5.57888L13.8806 5.57513L3.885 1.57513C3.73287 1.51167 3.56741 1.4868 3.40334 1.50273C3.23927 1.51866 3.08169 1.57491 2.94461 1.66646C2.80753 1.75801 2.69521 1.88203 2.61764 2.02748C2.54007 2.17292 2.49966 2.33529 2.5 2.50013V6.50013C2.5 6.76535 2.60536 7.0197 2.7929 7.20724C2.98043 7.39477 3.23479 7.50013 3.5 7.50013ZM3.5 2.50013L3.50938 2.50388L13.5 6.50013H3.5V2.50013ZM14.4794 9.30138C14.5271 9.52765 14.4942 9.7635 14.3864 9.96806C14.2785 10.1726 14.1024 10.333 13.8888 10.4214L13.88 10.4251L3.88438 14.4251C3.73227 14.4885 3.56688 14.5132 3.4029 14.4972C3.23892 14.4812 3.08143 14.425 2.94443 14.3334C2.80744 14.2419 2.69519 14.1179 2.61765 13.9725C2.54012 13.8272 2.4997 13.6649 2.5 13.5001V9.50013C2.5 9.23492 2.60536 8.98056 2.7929 8.79303C2.98043 8.60549 3.23479 8.50013 3.5 8.50013H13.5C13.7311 8.4985 13.9554 8.57769 14.1343 8.72401C14.3131 8.87033 14.4352 9.07457 14.4794 9.30138Z" fill="black"/>
</g>
<defs>
<clipPath id="clip0_5_881">
<rect width="16" height="16" fill="white"/>
</clipPath>
</defs>
</svg>
