<svg width="16" height="16" viewBox="0 0 16 16" fill="none" xmlns="http://www.w3.org/2000/svg">
<g clip-path="url(#clip0_5_783)">
<path d="M13 2.99987C12.239 2.99918 11.4863 3.15735 10.79 3.46424C9.84625 1.87862 8.295 1.08924 8.22375 1.05237C8.15428 1.01761 8.07768 0.999512 8 0.999512C7.92232 0.999512 7.84572 1.01761 7.77625 1.05237C7.705 1.08862 6.15125 1.87862 5.21 3.46424C4.51368 3.15735 3.76096 2.99918 3 2.99987C2.86739 2.99987 2.74021 3.05255 2.64645 3.14632C2.55268 3.24008 2.5 3.36726 2.5 3.49987V5.99987C2.50165 7.37149 3.01511 8.69313 3.93989 9.70611C4.86467 10.7191 6.1342 11.3505 7.5 11.4767V13.6911L5.22375 12.5524C5.16498 12.523 5.101 12.5055 5.03547 12.5008C4.96993 12.4962 4.90412 12.5044 4.84178 12.5252C4.77945 12.546 4.72182 12.5789 4.67219 12.6219C4.62255 12.6649 4.58188 12.7174 4.5525 12.7761C4.52312 12.8349 4.5056 12.8989 4.50094 12.9644C4.49628 13.0299 4.50458 13.0958 4.52535 13.1581C4.54613 13.2204 4.57898 13.278 4.62203 13.3277C4.66508 13.3773 4.71748 13.418 4.77625 13.4474L7.77625 14.9474C7.84572 14.9821 7.92232 15.0002 8 15.0002C8.07768 15.0002 8.15428 14.9821 8.22375 14.9474L11.2238 13.4474C11.3424 13.388 11.4327 13.284 11.4746 13.1581C11.5166 13.0322 11.5068 12.8948 11.4475 12.7761C11.3882 12.6574 11.2841 12.5672 11.1582 12.5252C11.0323 12.4833 10.8949 12.493 10.7762 12.5524L8.5 13.6911V11.4767C9.8658 11.3505 11.1353 10.7191 12.0601 9.70611C12.9849 8.69313 13.4984 7.37149 13.5 5.99987V3.49987C13.5 3.36726 13.4473 3.24008 13.3536 3.14632C13.2598 3.05255 13.1326 2.99987 13 2.99987ZM3.5 5.99987V4.02737C4.59957 4.15169 5.61495 4.67624 6.35263 5.50106C7.09032 6.32588 7.49872 7.3933 7.5 8.49987V10.4724C6.40043 10.3481 5.38505 9.8235 4.64737 8.99868C3.90968 8.17386 3.50128 7.10644 3.5 5.99987ZM12.5 5.99987C12.4987 7.10644 12.0903 8.17386 11.3526 8.99868C10.615 9.8235 9.59957 10.3481 8.5 10.4724V8.49987C8.50128 7.3933 8.90968 6.32588 9.64736 5.50106C10.385 4.67624 11.4004 4.15169 12.5 4.02737V5.99987Z" fill="black"/>
</g>
<defs>
<clipPath id="clip0_5_783">
<rect width="16" height="16" fill="white"/>
</clipPath>
</defs>
</svg>
