<svg width="16" height="16" viewBox="0 0 16 16" fill="none" xmlns="http://www.w3.org/2000/svg">
<g clip-path="url(#clip0_5_875)">
<path d="M13.147 8.0852C13.0964 8.05582 13.0407 8.0277 12.9832 8.0002C13.0407 7.9727 13.0964 7.94457 13.147 7.9152C13.4336 7.75224 13.6851 7.5342 13.8871 7.27363C14.0892 7.01306 14.2376 6.71511 14.324 6.39693C14.4104 6.07874 14.433 5.74662 14.3905 5.41967C14.348 5.09272 14.2412 4.7774 14.0764 4.49188C13.9115 4.20635 13.6918 3.95625 13.4299 3.75598C13.168 3.55571 12.8691 3.40922 12.5503 3.32495C12.2316 3.24068 11.8993 3.22029 11.5727 3.26495C11.246 3.30961 10.9314 3.41845 10.647 3.5852C10.5964 3.61457 10.5439 3.6477 10.492 3.68457C10.497 3.62207 10.5001 3.55957 10.5001 3.49707C10.5001 2.83403 10.2367 2.19814 9.76787 1.7293C9.29903 1.26046 8.66314 0.99707 8.0001 0.99707C7.33706 0.99707 6.70118 1.26046 6.23234 1.7293C5.7635 2.19814 5.5001 2.83403 5.5001 3.49707C5.5001 3.55582 5.5001 3.61832 5.50823 3.68457C5.45635 3.64895 5.40385 3.61457 5.35323 3.5852C5.0688 3.41845 4.7542 3.30961 4.42754 3.26495C4.10088 3.22029 3.76861 3.24068 3.44986 3.32495C3.13111 3.40922 2.83218 3.55571 2.57028 3.75598C2.30838 3.95625 2.08867 4.20635 1.92382 4.49188C1.75897 4.7774 1.65222 5.09272 1.60972 5.41967C1.56722 5.74662 1.58982 6.07874 1.6762 6.39693C1.76259 6.71511 1.91106 7.01306 2.11306 7.27363C2.31506 7.5342 2.56661 7.75224 2.85323 7.9152C2.90385 7.94457 2.95948 7.9727 3.01698 8.0002C2.95948 8.0277 2.90385 8.05582 2.85323 8.0852C2.56661 8.24815 2.31506 8.46619 2.11306 8.72676C1.91106 8.98733 1.76259 9.28528 1.6762 9.60347C1.58982 9.92165 1.56722 10.2538 1.60972 10.5807C1.65222 10.9077 1.75897 11.223 1.92382 11.5085C2.08867 11.794 2.30838 12.0441 2.57028 12.2444C2.83218 12.4447 3.13111 12.5912 3.44986 12.6754C3.76861 12.7597 4.10088 12.7801 4.42754 12.7354C4.7542 12.6908 5.0688 12.5819 5.35323 12.4152C5.40385 12.3858 5.45635 12.3527 5.50823 12.3158C5.50323 12.3783 5.5001 12.4408 5.5001 12.5002C5.5001 13.1632 5.7635 13.7991 6.23234 14.268C6.70118 14.7368 7.33706 15.0002 8.0001 15.0002C8.66314 15.0002 9.29903 14.7368 9.76787 14.268C10.2367 13.7991 10.5001 13.1632 10.5001 12.5002C10.5001 12.4414 10.497 12.3789 10.492 12.3158C10.5439 12.3514 10.5964 12.3858 10.647 12.4152C11.0257 12.6346 11.4556 12.7501 11.8932 12.7502C12.1131 12.7499 12.3321 12.7209 12.5445 12.6639C13.0221 12.5359 13.451 12.2692 13.777 11.8974C14.103 11.5256 14.3114 11.0655 14.3759 10.5752C14.4404 10.085 14.3581 9.58664 14.1393 9.14319C13.9206 8.69974 13.5752 8.33112 13.147 8.08395V8.0852ZM8.0001 9.7502C7.65399 9.7502 7.31564 9.64756 7.02786 9.45527C6.74007 9.26297 6.51577 8.98966 6.38331 8.66989C6.25086 8.35012 6.21621 7.99825 6.28373 7.65879C6.35125 7.31932 6.51792 7.0075 6.76267 6.76276C7.00741 6.51802 7.31923 6.35135 7.6587 6.28382C7.99816 6.2163 8.35003 6.25095 8.6698 6.38341C8.98957 6.51586 9.26288 6.74016 9.45517 7.02795C9.64747 7.31573 9.7501 7.65408 9.7501 8.0002C9.7501 8.46432 9.56573 8.90944 9.23754 9.23763C8.90935 9.56582 8.46423 9.7502 8.0001 9.7502Z" fill="black"/>
</g>
<defs>
<clipPath id="clip0_5_875">
<rect width="16" height="16" fill="white"/>
</clipPath>
</defs>
</svg>
