<svg width="16" height="16" viewBox="0 0 16 16" fill="none" xmlns="http://www.w3.org/2000/svg">
<g clip-path="url(#clip0_5_785)">
<path d="M15.3537 5.35354L13.3537 7.35354C13.2599 7.44736 13.1327 7.50007 13 7.50007C12.8673 7.50007 12.74 7.44736 12.6462 7.35354C12.5524 7.25972 12.4997 7.13247 12.4997 6.99979C12.4997 6.86711 12.5524 6.73986 12.6462 6.64604L13.7931 5.49979H13C10.5831 5.49979 10.0881 6.68729 9.46122 8.19229C8.81559 9.74229 8.08309 11.4998 4.99997 11.4998H4.93747C4.81577 11.9711 4.52635 12.3819 4.12346 12.6551C3.72058 12.9283 3.23188 13.0452 2.74897 12.9838C2.26606 12.9225 1.8221 12.6872 1.50031 12.3219C1.17851 11.9567 1.00098 11.4866 1.00098 10.9998C1.00098 10.513 1.17851 10.0429 1.50031 9.67767C1.8221 9.31242 2.26606 9.07707 2.74897 9.01573C3.23188 8.95439 3.72058 9.07128 4.12346 9.34449C4.52635 9.61769 4.81577 10.0285 4.93747 10.4998H4.99997C7.41684 10.4998 7.91184 9.31229 8.53872 7.80729C9.18747 6.25729 9.91684 4.49979 13 4.49979H13.7931L12.6462 3.35354C12.5524 3.25972 12.4997 3.13247 12.4997 2.99979C12.4997 2.86711 12.5524 2.73986 12.6462 2.64604C12.74 2.55222 12.8673 2.49951 13 2.49951C13.1327 2.49951 13.2599 2.55222 13.3537 2.64604L15.3537 4.64604C15.4002 4.69248 15.4371 4.74762 15.4622 4.80832C15.4874 4.86902 15.5004 4.93408 15.5004 4.99979C15.5004 5.0655 15.4874 5.13056 15.4622 5.19126C15.4371 5.25196 15.4002 5.3071 15.3537 5.35354Z" fill="black"/>
</g>
<defs>
<clipPath id="clip0_5_785">
<rect width="16" height="16" fill="white"/>
</clipPath>
</defs>
</svg>
