<svg width="16" height="16" viewBox="0 0 16 16" fill="none" xmlns="http://www.w3.org/2000/svg">
<g clip-path="url(#clip0_5_781)">
<path d="M11.4744 13.3418C11.5163 13.4677 11.5066 13.605 11.4472 13.7236C11.3879 13.8422 11.2839 13.9324 11.1581 13.9743C11.0323 14.0163 10.895 14.0065 10.7764 13.9472C10.6578 13.8879 10.5676 13.7839 10.5256 13.6581L10.0256 12.1581C10.0049 12.0958 9.99657 12.03 10.0012 11.9645C10.0059 11.899 10.0234 11.8351 10.0528 11.7763C10.0821 11.7176 10.1228 11.6652 10.1724 11.6222C10.222 11.5792 10.2796 11.5464 10.3419 11.5256C10.4042 11.5048 10.4699 11.4965 10.5354 11.5012C10.6009 11.5058 10.6649 11.5234 10.7236 11.5527C10.7824 11.5821 10.8347 11.6227 10.8778 11.6723C10.9208 11.722 10.9536 11.7795 10.9744 11.8418L11.4744 13.3418ZM8 11.5C7.86739 11.5 7.74021 11.5526 7.64645 11.6464C7.55268 11.7402 7.5 11.8674 7.5 12V14C7.5 14.1326 7.55268 14.2598 7.64645 14.3535C7.74021 14.4473 7.86739 14.5 8 14.5C8.13261 14.5 8.25979 14.4473 8.35355 14.3535C8.44732 14.2598 8.5 14.1326 8.5 14V12C8.5 11.8674 8.44732 11.7402 8.35355 11.6464C8.25979 11.5526 8.13261 11.5 8 11.5ZM5.65812 11.5256C5.59583 11.5048 5.53005 11.4965 5.46455 11.5012C5.39905 11.5058 5.33511 11.5233 5.27637 11.5527C5.21764 11.5821 5.16526 11.6227 5.12224 11.6723C5.07922 11.7219 5.04639 11.7795 5.02563 11.8418L4.52563 13.3418C4.48369 13.4677 4.49345 13.605 4.55275 13.7236C4.61206 13.8422 4.71606 13.9324 4.84188 13.9743C4.96769 14.0163 5.10501 14.0065 5.22362 13.9472C5.34224 13.8879 5.43244 13.7839 5.47437 13.6581L5.97437 12.1581C5.99514 12.0958 6.00344 12.03 5.99879 11.9645C5.99413 11.899 5.97662 11.8351 5.94726 11.7763C5.91789 11.7176 5.87724 11.6652 5.82763 11.6222C5.77802 11.5792 5.72042 11.5464 5.65812 11.5256ZM15.5 6.99997C15.5 8.01372 14.6644 8.93059 13.1469 9.58059C11.7638 10.1737 9.9375 10.5 8 10.5C6.0625 10.5 4.23625 10.1737 2.85313 9.58059C1.33563 8.93059 0.5 8.01372 0.5 6.99997C0.5 6.47684 0.729375 5.70059 1.82313 4.96872C2.53375 4.49309 3.50688 4.10872 4.64687 3.85309C4.96478 3.34941 5.39175 2.92355 5.89626 2.60696C6.40077 2.29036 6.96994 2.09112 7.56175 2.02392C8.15357 1.95673 8.75292 2.02332 9.31556 2.21875C9.87821 2.41419 10.3898 2.73349 10.8125 3.15309C11.0281 3.36646 11.2191 3.60336 11.3819 3.85934C13.9644 4.44309 15.5 5.60872 15.5 6.99997ZM11 5.99997C11.001 5.48908 10.8706 4.98652 10.6213 4.54059L10.6175 4.53497C10.3534 4.06387 9.9672 3.67267 9.49953 3.40254C9.03187 3.13242 8.50003 2.99335 7.96 2.99997C6.32812 3.02122 5 4.39059 5 6.05184V6.23934C4.99936 6.35166 5.03694 6.46085 5.10656 6.54899C5.17619 6.63712 5.27371 6.69896 5.38312 6.72434C6.24237 6.91378 7.12015 7.00624 8 6.99997C8.87935 7.00704 9.75671 6.91543 10.6156 6.72684C10.7252 6.7016 10.823 6.63984 10.8928 6.5517C10.9627 6.46357 11.0005 6.3543 11 6.24184V5.99997Z" fill="black"/>
</g>
<defs>
<clipPath id="clip0_5_781">
<rect width="16" height="16" fill="white"/>
</clipPath>
</defs>
</svg>
