<svg width="16" height="16" viewBox="0 0 16 16" fill="none" xmlns="http://www.w3.org/2000/svg">
<g clip-path="url(#clip0_5_769)">
<path d="M14.3161 3.36818C14.2447 2.9474 14.0442 2.55923 13.7424 2.25745C13.4406 1.95566 13.0525 1.75519 12.6317 1.6838C10.608 1.34068 6.79483 1.1838 3.98983 3.99005C1.18483 6.7963 1.34045 10.6088 1.68358 12.6319C1.75516 13.0531 1.95609 13.4416 2.25848 13.7435C2.56087 14.0453 2.94973 14.2455 3.37108 14.3163C4.07992 14.4372 4.79763 14.4987 5.5167 14.5001C7.52233 14.5001 10.0198 14.0001 12.0098 12.0101C14.8155 9.20505 14.6592 5.3913 14.3161 3.36818ZM3.53483 13.3313C3.31847 13.2945 3.11888 13.1914 2.96369 13.0362C2.8085 12.881 2.70538 12.6814 2.66858 12.4651C2.49704 11.4979 2.4527 10.5125 2.5367 9.5338L6.46608 13.4632C5.48743 13.5472 4.50199 13.5028 3.53483 13.3313ZM10.3523 6.35443L9.45608 7.25005L9.85233 7.6463C9.90174 7.69202 9.9414 7.74724 9.96896 7.80866C9.99651 7.87007 10.0114 7.93642 10.0127 8.00372C10.014 8.07102 10.0016 8.13788 9.97647 8.20031C9.95129 8.26274 9.91377 8.31944 9.86615 8.36701C9.81853 8.41459 9.7618 8.45206 9.69935 8.47718C9.6369 8.5023 9.57002 8.51455 9.50272 8.5132C9.43543 8.51185 9.36909 8.49693 9.3077 8.46932C9.24631 8.44172 9.19113 8.402 9.14545 8.35255L8.74983 7.95693L7.9567 8.75005L8.35295 9.1463C8.4024 9.19198 8.44212 9.24716 8.46972 9.30855C8.49733 9.36994 8.51225 9.43628 8.5136 9.50357C8.51495 9.57087 8.5027 9.63775 8.47758 9.7002C8.45246 9.76265 8.41499 9.81938 8.36741 9.867C8.31984 9.91462 8.26314 9.95214 8.20071 9.97732C8.13828 10.0025 8.07142 10.0148 8.00412 10.0135C7.93682 10.0122 7.87047 9.99736 7.80906 9.9698C7.74764 9.94225 7.69242 9.90259 7.6467 9.85318L7.24983 9.4563L6.35358 10.3526C6.30761 10.4009 6.25242 10.4396 6.19127 10.4663C6.13011 10.4931 6.06422 10.5073 5.99749 10.5081C5.93076 10.509 5.86453 10.4965 5.80271 10.4713C5.74089 10.4462 5.68473 10.4089 5.63754 10.3617C5.59035 10.3145 5.55308 10.2584 5.52794 10.1965C5.50279 10.1347 5.49028 10.0685 5.49113 10.0018C5.49199 9.93503 5.50619 9.86915 5.53291 9.80799C5.55963 9.74684 5.59832 9.69165 5.6467 9.64568L6.54358 8.75005L6.14733 8.3538C6.05966 8.25888 6.01214 8.13371 6.01473 8.00452C6.01732 7.87534 6.06983 7.75217 6.16123 7.66084C6.25264 7.56952 6.37585 7.51712 6.50504 7.51465C6.63423 7.51217 6.75936 7.5598 6.8542 7.64755L7.25045 8.0438L8.04295 7.25005L7.6467 6.8538C7.55895 6.75896 7.51132 6.63383 7.5138 6.50464C7.51627 6.37545 7.56867 6.25224 7.65999 6.16083C7.75132 6.06943 7.87449 6.01692 8.00367 6.01433C8.13286 6.01174 8.25803 6.05926 8.35295 6.14693L8.74983 6.5438L9.64608 5.64755C9.69205 5.59917 9.74724 5.56048 9.80839 5.53376C9.86955 5.50704 9.93544 5.49284 10.0022 5.49198C10.0689 5.49113 10.1351 5.50364 10.1969 5.52879C10.2588 5.55393 10.3149 5.5912 10.3621 5.63839C10.4093 5.68558 10.4466 5.74174 10.4717 5.80356C10.4969 5.86538 10.5094 5.93161 10.5085 5.99834C10.5077 6.06507 10.4935 6.13096 10.4667 6.19212C10.44 6.25327 10.4013 6.30846 10.353 6.35443H10.3523ZM13.463 6.4663L9.53358 2.53693C9.83108 2.50943 10.1411 2.4938 10.4655 2.4938C11.1358 2.49617 11.8048 2.55471 12.4655 2.6688C12.6817 2.70572 12.8811 2.8089 13.0362 2.96408C13.1913 3.11926 13.2943 3.31878 13.3311 3.53505C13.5026 4.50221 13.547 5.48765 13.463 6.4663Z" fill="black"/>
</g>
<defs>
<clipPath id="clip0_5_769">
<rect width="16" height="16" fill="white"/>
</clipPath>
</defs>
</svg>
