<svg width="16" height="16" viewBox="0 0 16 16" fill="none" xmlns="http://www.w3.org/2000/svg">
<g clip-path="url(#clip0_5_1595)">
<path d="M13.5 10.0001H10.3625L9.91938 8.50014H13.5C13.6326 8.50014 13.7598 8.44746 13.8536 8.3537C13.9473 8.25993 14 8.13275 14 8.00014V7.75014C14.0001 6.92186 13.8355 6.10182 13.5159 5.33769C13.1963 4.57356 12.728 3.88059 12.1382 3.29905C11.5484 2.71751 10.8488 2.259 10.0803 1.95018C9.31173 1.64136 8.48945 1.48838 7.66125 1.50014C4.265 1.54827 1.5 4.35077 1.5 7.75014C1.49991 8.76755 1.7482 9.76961 2.2233 10.6693C2.6984 11.5689 3.38596 12.339 4.22625 12.9126C4.30944 12.9696 4.40791 13.0001 4.50875 13.0001H7.5C7.64975 13.0001 7.79758 12.9665 7.9326 12.9018C8.06761 12.837 8.18635 12.7427 8.28006 12.6259C8.37377 12.5091 8.44004 12.3728 8.474 12.2269C8.50796 12.0811 8.50873 11.9294 8.47625 11.7833C8.47371 11.7719 8.47058 11.7606 8.46688 11.7495L8.24438 10.9995H9.615L10.2894 13.2826C10.3513 13.4895 10.4782 13.6709 10.6512 13.8001C10.8241 13.9293 11.0341 13.9994 11.25 14.0001H13.5C13.7652 14.0001 14.0196 13.8948 14.2071 13.7072C14.3946 13.5197 14.5 13.2654 14.5 13.0001V11.0001C14.5 10.7349 14.3946 10.4806 14.2071 10.293C14.0196 10.1055 13.7652 10.0001 13.5 10.0001ZM5.25 11.0001C5.10166 11.0001 4.95666 10.9562 4.83332 10.8737C4.70999 10.7913 4.61386 10.6742 4.55709 10.5372C4.50032 10.4001 4.48547 10.2493 4.51441 10.1038C4.54335 9.95834 4.61478 9.8247 4.71967 9.71981C4.82456 9.61492 4.9582 9.54349 5.10368 9.51455C5.24917 9.48561 5.39997 9.50047 5.53701 9.55723C5.67406 9.614 5.79119 9.71013 5.8736 9.83346C5.95601 9.9568 6 10.1018 6 10.2501C6 10.4491 5.92098 10.6398 5.78033 10.7805C5.63968 10.9211 5.44891 11.0001 5.25 11.0001ZM7.9475 10.0001L7.5 8.50014H8.875L9.31812 10.0001H7.9475ZM13.5 13.0001H11.25L10.6587 11.0001H13.5V13.0001Z" fill="black"/>
</g>
<defs>
<clipPath id="clip0_5_1595">
<rect width="16" height="16" fill="white"/>
</clipPath>
</defs>
</svg>
