<svg width="16" height="16" viewBox="0 0 16 16" fill="none" xmlns="http://www.w3.org/2000/svg">
<g clip-path="url(#clip0_5_1279)">
<path d="M13.5 2.49981V13.9998C13.5 14.1324 13.4473 14.2596 13.3536 14.3534C13.2598 14.4471 13.1326 14.4998 13 14.4998C12.8674 14.4998 12.7402 14.4471 12.6464 14.3534C12.5527 14.2596 12.5 14.1324 12.5 13.9998V10.9998H9.5C9.36739 10.9998 9.24021 10.9471 9.14645 10.8534C9.05268 10.7596 9 10.6324 9 10.4998C9.02322 9.30211 9.1745 8.11033 9.45125 6.94481C10.0625 4.41419 11.2213 2.71794 12.8031 2.04044C12.8792 2.00787 12.9621 1.99467 13.0445 2.00203C13.1269 2.00938 13.2061 2.03706 13.2752 2.08259C13.3442 2.12811 13.4009 2.19005 13.4402 2.26287C13.4794 2.33569 13.5 2.4171 13.5 2.49981ZM7.49312 2.41794C7.48333 2.35228 7.46056 2.28924 7.42615 2.23247C7.39174 2.17571 7.34636 2.12637 7.29268 2.08733C7.239 2.04829 7.17807 2.02033 7.11347 2.00507C7.04887 1.98982 6.98187 1.98759 6.9164 1.9985C6.85092 2.00942 6.78827 2.03326 6.73211 2.06864C6.67594 2.10401 6.62738 2.15022 6.58926 2.20457C6.55114 2.25891 6.52422 2.3203 6.51008 2.38515C6.49593 2.45001 6.49485 2.51703 6.50688 2.58231L6.99312 5.49981H5.5V2.49981C5.5 2.3672 5.44732 2.24003 5.35355 2.14626C5.25979 2.05249 5.13261 1.99981 5 1.99981C4.86739 1.99981 4.74021 2.05249 4.64645 2.14626C4.55268 2.24003 4.5 2.3672 4.5 2.49981V5.49981H3.00688L3.49312 2.58231C3.50515 2.51703 3.50407 2.45001 3.48992 2.38515C3.47578 2.3203 3.44886 2.25891 3.41074 2.20457C3.37262 2.15022 3.32406 2.10401 3.26789 2.06864C3.21173 2.03326 3.14908 2.00942 3.0836 1.9985C3.01813 1.98759 2.95113 1.98982 2.88653 2.00507C2.82192 2.02033 2.761 2.04829 2.70732 2.08733C2.65364 2.12637 2.60826 2.17571 2.57385 2.23247C2.53944 2.28924 2.51667 2.35228 2.50688 2.41794L2.00688 5.41794C2.00239 5.445 2.00009 5.47238 2 5.49981C2.001 6.20844 2.25245 6.89391 2.70992 7.4351C3.16739 7.97628 3.80143 8.33835 4.5 8.45731V13.9998C4.5 14.1324 4.55268 14.2596 4.64645 14.3534C4.74021 14.4471 4.86739 14.4998 5 14.4998C5.13261 14.4998 5.25979 14.4471 5.35355 14.3534C5.44732 14.2596 5.5 14.1324 5.5 13.9998V8.45731C6.19857 8.33835 6.83261 7.97628 7.29008 7.4351C7.74755 6.89391 7.999 6.20844 8 5.49981C7.99991 5.47238 7.99761 5.445 7.99312 5.41794L7.49312 2.41794Z" fill="black"/>
</g>
<defs>
<clipPath id="clip0_5_1279">
<rect width="16" height="16" fill="white"/>
</clipPath>
</defs>
</svg>
