<svg width="16" height="16" viewBox="0 0 16 16" fill="none" xmlns="http://www.w3.org/2000/svg">
<g clip-path="url(#clip0_5_1372)">
<path d="M15 11.9998H14.5V6.16669C14.5 6.00212 14.4594 5.84009 14.3818 5.69498C14.3041 5.54987 14.1919 5.42615 14.055 5.33482L8.555 1.66794C8.39074 1.55844 8.19773 1.5 8.00031 1.5C7.80289 1.5 7.60989 1.55844 7.44562 1.66794L1.94562 5.33482C1.80861 5.42608 1.69625 5.54976 1.61851 5.69488C1.54077 5.84 1.50006 6.00206 1.5 6.16669V11.9998H1C0.867392 11.9998 0.740215 12.0525 0.646447 12.1463C0.552678 12.24 0.5 12.3672 0.5 12.4998C0.5 12.6324 0.552678 12.7596 0.646447 12.8534C0.740215 12.9471 0.867392 12.9998 1 12.9998H15C15.1326 12.9998 15.2598 12.9471 15.3536 12.8534C15.4473 12.7596 15.5 12.6324 15.5 12.4998C15.5 12.3672 15.4473 12.24 15.3536 12.1463C15.2598 12.0525 15.1326 11.9998 15 11.9998ZM8.5 7.99982H12V9.49982H8.5V7.99982ZM7.5 9.49982H4V7.99982H7.5V9.49982ZM4 10.4998H7.5V11.9998H4V10.4998ZM8.5 10.4998H12V11.9998H8.5V10.4998Z" fill="black"/>
</g>
<defs>
<clipPath id="clip0_5_1372">
<rect width="16" height="16" fill="white"/>
</clipPath>
</defs>
</svg>
