<svg width="16" height="16" viewBox="0 0 16 16" fill="none" xmlns="http://www.w3.org/2000/svg">
<g clip-path="url(#clip0_5_1184)">
<path d="M3.29309 6.20681C3.20021 6.11395 3.12653 6.0037 3.07626 5.88236C3.02599 5.76102 3.00011 5.63097 3.00011 5.49963C3.00011 5.36829 3.02599 5.23823 3.07626 5.11689C3.12653 4.99555 3.20021 4.8853 3.29309 4.79244L7.29309 0.792438C7.48065 0.604881 7.73503 0.499512 8.00028 0.499512C8.26552 0.499512 8.51991 0.604881 8.70746 0.792438C8.89502 0.979996 9.00039 1.23438 9.00039 1.49963C9.00039 1.76487 8.89502 2.01926 8.70746 2.20681L4.70746 6.20681C4.6146 6.2997 4.50435 6.37338 4.38301 6.42365C4.26167 6.47391 4.13162 6.49979 4.00028 6.49979C3.86893 6.49979 3.73888 6.47391 3.61754 6.42365C3.4962 6.37338 3.38595 6.2997 3.29309 6.20681ZM15.2075 7.29244C15.1146 7.19956 15.0044 7.12588 14.883 7.07561C14.7617 7.02534 14.6316 6.99946 14.5003 6.99946C14.3689 6.99946 14.2389 7.02534 14.1175 7.07561C13.9962 7.12588 13.8859 7.19956 13.7931 7.29244L9.79309 11.2924C9.7002 11.3853 9.62652 11.4955 9.57626 11.6169C9.52599 11.7382 9.50011 11.8683 9.50011 11.9996C9.50011 12.131 9.52599 12.261 9.57626 12.3824C9.62652 12.5037 9.7002 12.614 9.79309 12.7068C9.88595 12.7997 9.9962 12.8734 10.1175 12.9236C10.2389 12.9739 10.3689 12.9998 10.5003 12.9998C10.6316 12.9998 10.7617 12.9739 10.883 12.9236C11.0044 12.8734 11.1146 12.7997 11.2075 12.7068L15.2075 8.70681C15.3003 8.61395 15.374 8.5037 15.4243 8.38236C15.4746 8.26102 15.5004 8.13097 15.5004 7.99963C15.5004 7.86829 15.4746 7.73823 15.4243 7.61689C15.374 7.49555 15.3003 7.3853 15.2075 7.29244ZM13.0131 6.30494L9.69496 2.98681C9.67174 2.96357 9.64417 2.94513 9.61382 2.93255C9.58347 2.91997 9.55094 2.91349 9.51809 2.91349C9.48523 2.91349 9.4527 2.91997 9.42235 2.93255C9.392 2.94513 9.36443 2.96357 9.34121 2.98681L5.48746 6.84056C5.46422 6.86378 5.44578 6.89135 5.4332 6.9217C5.42062 6.95205 5.41414 6.98458 5.41414 7.01744C5.41414 7.05029 5.42062 7.08282 5.4332 7.11317C5.44578 7.14352 5.46422 7.1711 5.48746 7.19431L6.43746 8.14619L1.79309 12.7931C1.61347 12.9821 1.51481 13.2339 1.51815 13.4946C1.52149 13.7554 1.62656 14.0045 1.81096 14.1889C1.99536 14.3733 2.2445 14.4784 2.50526 14.4818C2.76603 14.4851 3.01778 14.3864 3.20684 14.2068L7.85371 9.56244L8.80559 10.5143C8.82881 10.5376 8.85638 10.556 8.88673 10.5686C8.91708 10.5812 8.94961 10.5876 8.98246 10.5876C9.01532 10.5876 9.04785 10.5812 9.0782 10.5686C9.10855 10.556 9.13612 10.5376 9.15934 10.5143L13.0131 6.66056C13.0366 6.63731 13.0553 6.60962 13.068 6.5791C13.0808 6.54858 13.0874 6.51583 13.0874 6.48275C13.0874 6.44967 13.0808 6.41692 13.068 6.3864C13.0553 6.35588 13.0366 6.32819 13.0131 6.30494Z" fill="black"/>
</g>
<defs>
<clipPath id="clip0_5_1184">
<rect width="16" height="16" fill="white"/>
</clipPath>
</defs>
</svg>
