<svg width="16" height="16" viewBox="0 0 16 16" fill="none" xmlns="http://www.w3.org/2000/svg">
<g clip-path="url(#clip0_5_746)">
<path d="M6.5 3.99997C6.49982 3.62594 6.39475 3.25947 6.19674 2.94216C5.99872 2.62485 5.7157 2.36942 5.37981 2.20489C5.04392 2.04035 4.66862 1.9733 4.29654 2.01135C3.92445 2.0494 3.5705 2.19103 3.27486 2.42015C2.97923 2.64926 2.75376 2.95669 2.62408 3.30751C2.49439 3.65833 2.46568 4.03849 2.5412 4.40481C2.61672 4.77113 2.79345 5.10894 3.05132 5.37986C3.30919 5.65078 3.63786 5.84396 4 5.93747V10.0625C3.52868 10.1842 3.11791 10.4736 2.8447 10.8765C2.5715 11.2794 2.45461 11.7681 2.51595 12.251C2.57728 12.7339 2.81264 13.1778 3.17789 13.4996C3.54314 13.8214 4.01322 13.999 4.5 13.999C4.98679 13.999 5.45687 13.8214 5.82212 13.4996C6.18737 13.1778 6.42273 12.7339 6.48406 12.251C6.5454 11.7681 6.42851 11.2794 6.15531 10.8765C5.8821 10.4736 5.47133 10.1842 5 10.0625V5.93747C5.42916 5.826 5.80923 5.57532 6.08067 5.22472C6.35211 4.87411 6.49959 4.44337 6.5 3.99997ZM5.5 12C5.5 12.1978 5.44136 12.3911 5.33147 12.5555C5.22159 12.72 5.06541 12.8482 4.88269 12.9238C4.69996 12.9995 4.4989 13.0193 4.30491 12.9808C4.11093 12.9422 3.93275 12.8469 3.7929 12.7071C3.65305 12.5672 3.5578 12.389 3.51922 12.1951C3.48063 12.0011 3.50044 11.8 3.57613 11.6173C3.65181 11.4346 3.77999 11.2784 3.94443 11.1685C4.10888 11.0586 4.30222 11 4.5 11C4.76522 11 5.01957 11.1053 5.20711 11.2929C5.39465 11.4804 5.5 11.7348 5.5 12ZM14.5 12C14.4998 12.374 14.3947 12.7405 14.1967 13.0578C13.9987 13.3751 13.7157 13.6305 13.3798 13.7951C13.0439 13.9596 12.6686 14.0266 12.2965 13.9886C11.9245 13.9505 11.5705 13.8089 11.2749 13.5798C10.9792 13.3507 10.7538 13.0432 10.6241 12.6924C10.4944 12.3416 10.4657 11.9614 10.5412 11.5951C10.6167 11.2288 10.7935 10.891 11.0513 10.6201C11.3092 10.3492 11.6379 10.156 12 10.0625V6.91434C12.0001 6.84866 11.9872 6.78362 11.9621 6.72292C11.937 6.66222 11.9002 6.60706 11.8538 6.56059L9.5 4.20684V5.99997C9.5 6.13258 9.44733 6.25975 9.35356 6.35352C9.25979 6.44729 9.13261 6.49997 9 6.49997C8.8674 6.49997 8.74022 6.44729 8.64645 6.35352C8.55268 6.25975 8.5 6.13258 8.5 5.99997V2.99997C8.5 2.86736 8.55268 2.74018 8.64645 2.64642C8.74022 2.55265 8.8674 2.49997 9 2.49997H12C12.1326 2.49997 12.2598 2.55265 12.3536 2.64642C12.4473 2.74018 12.5 2.86736 12.5 2.99997C12.5 3.13258 12.4473 3.25975 12.3536 3.35352C12.2598 3.44729 12.1326 3.49997 12 3.49997H10.2069L12.5625 5.85372C12.7021 5.99307 12.8126 6.15873 12.8877 6.34112C12.9628 6.5235 13.001 6.71898 13 6.91622V10.0625C13.4292 10.1739 13.8092 10.4246 14.0807 10.7752C14.3521 11.1258 14.4996 11.5566 14.5 12Z" fill="black"/>
</g>
<defs>
<clipPath id="clip0_5_746">
<rect width="16" height="16" fill="white"/>
</clipPath>
</defs>
</svg>
