<svg width="16" height="16" viewBox="0 0 16 16" fill="none" xmlns="http://www.w3.org/2000/svg">
<g clip-path="url(#clip0_5_749)">
<path d="M14 3.99997C13.9998 3.62594 13.8947 3.25947 13.6967 2.94216C13.4987 2.62485 13.2157 2.36942 12.8798 2.20489C12.5439 2.04035 12.1686 1.9733 11.7965 2.01135C11.4245 2.0494 11.0705 2.19103 10.7749 2.42015C10.4792 2.64926 10.2538 2.95669 10.1241 3.30751C9.99439 3.65833 9.96568 4.03849 10.0412 4.40481C10.1167 4.77113 10.2935 5.10894 10.5513 5.37986C10.8092 5.65078 11.1379 5.84396 11.5 5.93747V6.99997C11.5 7.13258 11.4473 7.25975 11.3536 7.35352C11.2598 7.44729 11.1326 7.49997 11 7.49997H5C4.8674 7.49997 4.74022 7.44729 4.64645 7.35352C4.55268 7.25975 4.5 7.13258 4.5 6.99997V5.93747C4.97133 5.81577 5.3821 5.52635 5.65531 5.12347C5.92851 4.72058 6.0454 4.23188 5.98406 3.74897C5.92273 3.26606 5.68737 2.8221 5.32212 2.50031C4.95687 2.17851 4.48679 2.00098 4 2.00098C3.51322 2.00098 3.04314 2.17851 2.67789 2.50031C2.31264 2.8221 2.07728 3.26606 2.01595 3.74897C1.95461 4.23188 2.0715 4.72058 2.3447 5.12347C2.61791 5.52635 3.02868 5.81577 3.5 5.93747V6.99997C3.5 7.39779 3.65804 7.77933 3.93934 8.06063C4.22065 8.34193 4.60218 8.49997 5 8.49997H7.5V10.0625C7.02868 10.1842 6.61791 10.4736 6.3447 10.8765C6.0715 11.2794 5.95461 11.7681 6.01595 12.251C6.07728 12.7339 6.31264 13.1778 6.67789 13.4996C7.04314 13.8214 7.51322 13.999 8 13.999C8.48679 13.999 8.95687 13.8214 9.32212 13.4996C9.68737 13.1778 9.92273 12.7339 9.98406 12.251C10.0454 11.7681 9.92851 11.2794 9.65531 10.8765C9.3821 10.4736 8.97133 10.1842 8.5 10.0625V8.49997H11C11.3978 8.49997 11.7794 8.34193 12.0607 8.06063C12.342 7.77933 12.5 7.39779 12.5 6.99997V5.93747C12.9292 5.826 13.3092 5.57532 13.5807 5.22472C13.8521 4.87411 13.9996 4.44337 14 3.99997ZM9 12C9 12.1978 8.94136 12.3911 8.83147 12.5555C8.72159 12.72 8.56541 12.8482 8.38269 12.9238C8.19996 12.9995 7.9989 13.0193 7.80491 12.9808C7.61093 12.9422 7.43275 12.8469 7.2929 12.7071C7.15305 12.5672 7.0578 12.389 7.01922 12.1951C6.98063 12.0011 7.00044 11.8 7.07613 11.6173C7.15181 11.4346 7.27999 11.2784 7.44443 11.1685C7.60888 11.0586 7.80222 11 8 11C8.26522 11 8.51958 11.1053 8.70711 11.2929C8.89465 11.4804 9 11.7348 9 12Z" fill="black"/>
</g>
<defs>
<clipPath id="clip0_5_749">
<rect width="16" height="16" fill="white"/>
</clipPath>
</defs>
</svg>
