<svg width="16" height="16" viewBox="0 0 16 16" fill="none" xmlns="http://www.w3.org/2000/svg">
<g clip-path="url(#clip0_5_693)">
<path d="M7.38625 13.3175C7.37938 13.3262 7.37125 13.3343 7.36375 13.3425L7.35375 13.3537L7.34313 13.3631C7.33483 13.3713 7.32607 13.379 7.31688 13.3862C7.31049 13.3918 7.30381 13.397 7.29688 13.4018L7.27813 13.4156L7.25438 13.43C7.24835 13.4339 7.24208 13.4374 7.23563 13.4406L7.2125 13.4525L7.19125 13.4618L7.16875 13.47C7.16104 13.4732 7.1531 13.4759 7.145 13.4781L7.1225 13.4843C7.11375 13.4843 7.10625 13.4887 7.0975 13.49L7.07125 13.4943L7.04938 13.4975C7.03293 13.4984 7.01645 13.4984 7 13.4975H4C3.8674 13.4975 3.74022 13.4448 3.64645 13.351C3.55268 13.2573 3.5 13.1301 3.5 12.9975C3.5 12.8649 3.55268 12.7377 3.64645 12.6439C3.74022 12.5501 3.8674 12.4975 4 12.4975H5.79313L3.4375 10.1462C3.29791 10.0069 3.18736 9.8412 3.11226 9.65882C3.03716 9.47643 2.99901 9.28096 3 9.08372V5.93747C2.52868 5.81577 2.11791 5.52635 1.8447 5.12346C1.5715 4.72058 1.45461 4.23188 1.51595 3.74897C1.57728 3.26606 1.81264 2.8221 2.17789 2.50031C2.54314 2.17851 3.01322 2.00098 3.5 2.00098C3.98679 2.00098 4.45687 2.17851 4.82212 2.50031C5.18737 2.8221 5.42273 3.26606 5.48406 3.74897C5.5454 4.23188 5.42851 4.72058 5.15531 5.12346C4.8821 5.52635 4.47133 5.81577 4 5.93747V9.08622C4.00056 9.218 4.05312 9.34423 4.14625 9.43747L6.5 11.7931V9.99997C6.5 9.86736 6.55268 9.74018 6.64645 9.64641C6.74022 9.55265 6.8674 9.49997 7 9.49997C7.13261 9.49997 7.25979 9.55265 7.35356 9.64641C7.44733 9.74018 7.5 9.86736 7.5 9.99997V13C7.50096 13.0166 7.50096 13.0333 7.5 13.05C7.5 13.0568 7.5 13.0631 7.5 13.07C7.5 13.0768 7.5 13.0887 7.49563 13.0987C7.49428 13.1065 7.4924 13.1143 7.49 13.1218C7.49 13.13 7.48625 13.1381 7.48375 13.1462C7.48125 13.1543 7.47875 13.1606 7.47625 13.1681L7.4675 13.1925L7.45813 13.2118C7.45438 13.22 7.45063 13.2287 7.44625 13.2368C7.44188 13.245 7.43938 13.2481 7.43625 13.2543L7.42125 13.2787L7.40813 13.2962L7.38625 13.3175ZM13 10.0625V6.91434C13.001 6.7171 12.9628 6.52163 12.8877 6.33924C12.8126 6.15686 12.7021 5.99119 12.5625 5.85184L10.2069 3.49997H12C12.1326 3.49997 12.2598 3.44729 12.3536 3.35352C12.4473 3.25975 12.5 3.13258 12.5 2.99997C12.5 2.86736 12.4473 2.74018 12.3536 2.64641C12.2598 2.55265 12.1326 2.49997 12 2.49997H8.98876H8.95125C8.9425 2.49997 8.93375 2.49997 8.92563 2.50372H8.9025L8.87563 2.51059L8.855 2.51559L8.83 2.52434L8.80875 2.53247L8.78688 2.54247L8.76438 2.55372C8.75771 2.5571 8.75124 2.56085 8.745 2.56497C8.7375 2.56934 8.72938 2.57372 8.7225 2.57872C8.71579 2.58315 8.70932 2.58795 8.70313 2.59309C8.69621 2.59774 8.68953 2.60275 8.68313 2.60809C8.67375 2.61559 8.66563 2.62309 8.65688 2.63122L8.64625 2.64059L8.63625 2.65184C8.62875 2.65997 8.62063 2.66809 8.61376 2.67684L8.5975 2.69872L8.58438 2.71622L8.56938 2.74059C8.56625 2.74684 8.5625 2.75247 8.55938 2.75809C8.55625 2.76372 8.55125 2.77497 8.5475 2.78309L8.53813 2.80247L8.52938 2.82684C8.52938 2.83434 8.52376 2.84122 8.52188 2.84872C8.52001 2.85622 8.5175 2.86497 8.51563 2.87309C8.51324 2.88067 8.51136 2.88839 8.51 2.89622C8.51 2.90622 8.51 2.91559 8.50563 2.92497C8.50125 2.93434 8.50563 2.93809 8.5025 2.94497C8.50155 2.96162 8.50155 2.97832 8.5025 2.99497V5.99997C8.5025 6.13258 8.55518 6.25975 8.64895 6.35352C8.74272 6.44729 8.8699 6.49997 9.0025 6.49997C9.13511 6.49997 9.26229 6.44729 9.35606 6.35352C9.44983 6.25975 9.5025 6.13258 9.5025 5.99997V4.20684L11.8538 6.56247C11.9002 6.60894 11.937 6.6641 11.9621 6.72479C11.9872 6.78549 12.0001 6.85054 12 6.91622V10.0625C11.5287 10.1842 11.1179 10.4736 10.8447 10.8765C10.5715 11.2794 10.4546 11.7681 10.5159 12.251C10.5773 12.7339 10.8126 13.1778 11.1779 13.4996C11.5431 13.8214 12.0132 13.999 12.5 13.999C12.9868 13.999 13.4569 13.8214 13.8221 13.4996C14.1874 13.1778 14.4227 12.7339 14.4841 12.251C14.5454 11.7681 14.4285 11.2794 14.1553 10.8765C13.8821 10.4736 13.4713 10.1842 13 10.0625Z" fill="black"/>
</g>
<defs>
<clipPath id="clip0_5_693">
<rect width="16" height="16" fill="white"/>
</clipPath>
</defs>
</svg>
