<svg width="16" height="16" viewBox="0 0 16 16" fill="none" xmlns="http://www.w3.org/2000/svg">
<g clip-path="url(#clip0_5_747)">
<path d="M12.9998 7.00007C12.5679 7.00082 12.1477 7.1412 11.802 7.40026C11.4564 7.65931 11.2037 8.02318 11.0817 8.43757L8.4436 8.06257C8.32332 8.04557 8.21335 7.98536 8.13422 7.8932L5.90172 5.28445C6.31941 5.07275 6.64958 4.7212 6.83468 4.29106C7.01978 3.86092 7.04808 3.37947 6.91465 2.93061C6.78122 2.48174 6.49451 2.09393 6.1045 1.83476C5.71449 1.57558 5.2459 1.46147 4.7804 1.51232C4.31489 1.56316 3.88198 1.77574 3.55712 2.113C3.23226 2.45026 3.03603 2.89083 3.00265 3.35791C2.96927 3.82499 3.10084 4.28898 3.37443 4.66902C3.64803 5.04905 4.0463 5.32104 4.49985 5.43757V10.5626C4.02852 10.6843 3.61775 10.9737 3.34454 11.3766C3.07134 11.7795 2.95445 12.2682 3.01579 12.7511C3.07712 13.234 3.31248 13.6779 3.67773 13.9997C4.04298 14.3215 4.51306 14.4991 4.99985 14.4991C5.48663 14.4991 5.95671 14.3215 6.32196 13.9997C6.68721 13.6779 6.92257 13.234 6.9839 12.7511C7.04524 12.2682 6.92835 11.7795 6.65515 11.3766C6.38194 10.9737 5.97117 10.6843 5.49985 10.5626V6.35195L7.37485 8.53945C7.61181 8.81591 7.94125 8.99673 8.30172 9.0482L11.0517 9.4407C11.1347 9.80822 11.3199 10.1448 11.5858 10.4117C11.8517 10.6786 12.1877 10.865 12.5549 10.9493C12.9221 11.0337 13.3057 11.0126 13.6614 10.8884C14.0172 10.7643 14.3306 10.5422 14.5657 10.2478C14.8007 9.95328 14.9478 9.5984 14.99 9.22399C15.0322 8.84958 14.9678 8.47087 14.8041 8.13148C14.6405 7.79208 14.3843 7.50582 14.0651 7.30565C13.7459 7.10548 13.3766 6.99956 12.9998 7.00007ZM5.99985 12.5001C5.99985 12.6979 5.9412 12.8912 5.83131 13.0556C5.72143 13.2201 5.56525 13.3483 5.38253 13.424C5.1998 13.4996 4.99874 13.5194 4.80476 13.4809C4.61077 13.4423 4.43259 13.347 4.29274 13.2072C4.15289 13.0673 4.05765 12.8891 4.01906 12.6952C3.98047 12.5012 4.00028 12.3001 4.07597 12.1174C4.15165 11.9347 4.27983 11.7785 4.44428 11.6686C4.60872 11.5587 4.80206 11.5001 4.99985 11.5001C5.26506 11.5001 5.51942 11.6054 5.70695 11.793C5.89449 11.9805 5.99985 12.2349 5.99985 12.5001ZM12.9998 10.0001C12.8021 10.0001 12.6087 9.94142 12.4443 9.83154C12.2798 9.72166 12.1517 9.56548 12.076 9.38276C12.0003 9.20003 11.9805 8.99896 12.0191 8.80498C12.0576 8.611 12.1529 8.43282 12.2927 8.29297C12.4326 8.15311 12.6108 8.05787 12.8048 8.01929C12.9987 7.9807 13.1998 8.0005 13.3825 8.07619C13.5653 8.15188 13.7214 8.28005 13.8313 8.4445C13.9412 8.60895 13.9998 8.80229 13.9998 9.00007C13.9998 9.26529 13.8945 9.51964 13.707 9.70718C13.5194 9.89471 13.2651 10.0001 12.9998 10.0001Z" fill="black"/>
</g>
<defs>
<clipPath id="clip0_5_747">
<rect width="16" height="16" fill="white"/>
</clipPath>
</defs>
</svg>
