<svg width="16" height="16" viewBox="0 0 16 16" fill="none" xmlns="http://www.w3.org/2000/svg">
<g clip-path="url(#clip0_5_742)">
<path d="M14.3844 7.31899L13.1406 2.56274C13.101 2.40827 13.013 2.27053 12.8894 2.16973C12.7659 2.06893 12.6133 2.01035 12.454 2.00259C12.2947 1.99484 12.1372 2.0383 12.0044 2.12662C11.8716 2.21494 11.7706 2.34347 11.7162 2.49336L10.6112 5.50024H5.38873L4.28373 2.49211C4.22921 2.34224 4.12811 2.21378 3.99525 2.12556C3.8624 2.03733 3.70477 1.99399 3.54549 2.00189C3.3862 2.00979 3.23363 2.06851 3.11016 2.16944C2.98668 2.27037 2.89878 2.40821 2.85936 2.56274L1.61561 7.31899C1.43191 8.01896 1.46501 8.7582 1.71053 9.43895C1.95605 10.1197 2.40242 10.7099 2.99061 11.1315L7.56998 14.3665C7.69559 14.4552 7.84559 14.5028 7.99936 14.5028C8.15313 14.5028 8.30312 14.4552 8.42873 14.3665L13.0081 11.1315C13.5965 10.7101 14.0431 10.1199 14.2889 9.43918C14.5346 8.75841 14.5679 8.01908 14.3844 7.31899ZM2.54248 7.75649L7.13311 11.0002L5.83811 11.9159L3.56811 10.3127C3.17198 10.0282 2.86512 9.63676 2.68348 9.18414C2.50183 8.73153 2.45292 8.23652 2.54248 7.75711V7.75649ZM7.99998 13.444L6.70436 12.5284L7.99998 11.6127L9.29561 12.5277L7.99998 13.444ZM12.4319 10.3127L10.1619 11.9165L8.86686 11.0002L13.4575 7.75649C13.5472 8.23599 13.4983 8.73113 13.3167 9.18387C13.135 9.63661 12.8281 10.0282 12.4319 10.3127Z" fill="black"/>
</g>
<defs>
<clipPath id="clip0_5_742">
<rect width="16" height="16" fill="white"/>
</clipPath>
</defs>
</svg>
