<svg width="16" height="16" viewBox="0 0 16 16" fill="none" xmlns="http://www.w3.org/2000/svg">
<g clip-path="url(#clip0_5_741)">
<path d="M13.0086 11.129L8.42922 14.364C8.30361 14.4527 8.15361 14.5003 7.99984 14.5003C7.84607 14.5003 7.69608 14.4527 7.57047 14.364L2.99109 11.129C2.4029 10.7074 1.95654 10.1172 1.71102 9.43646C1.4655 8.7557 1.4324 8.01646 1.61609 7.31649L2.85922 2.56274C2.8988 2.40827 2.98682 2.27053 3.11038 2.16973C3.23394 2.06893 3.38654 2.01035 3.54581 2.00259C3.70509 1.99484 3.86266 2.0383 3.99543 2.12662C4.1282 2.21494 4.22919 2.34347 4.28359 2.49336L5.38859 5.50024H10.6111L11.7161 2.49211C11.7706 2.34224 11.8717 2.21378 12.0046 2.12556C12.1374 2.03733 12.2951 1.99399 12.4543 2.00189C12.6136 2.00979 12.7662 2.06851 12.8897 2.16944C13.0131 2.27037 13.101 2.40821 13.1405 2.56274L14.3842 7.32024C14.567 8.01973 14.5334 8.75822 14.2878 9.43821C14.0422 10.1182 13.5962 10.7077 13.0086 11.129Z" fill="black"/>
</g>
<defs>
<clipPath id="clip0_5_741">
<rect width="16" height="16" fill="white"/>
</clipPath>
</defs>
</svg>
