<svg width="16" height="16" viewBox="0 0 16 16" fill="none" xmlns="http://www.w3.org/2000/svg">
<g clip-path="url(#clip0_5_732)">
<path d="M3.4999 6.49975C3.4999 5.51085 3.79314 4.54415 4.34255 3.7219C4.89196 2.89966 5.67285 2.25879 6.58648 1.88036C7.50011 1.50192 8.50545 1.4029 9.47535 1.59583C10.4453 1.78875 11.3362 2.26496 12.0354 2.96422C12.7347 3.66348 13.2109 4.5544 13.4038 5.5243C13.5968 6.49421 13.4977 7.49954 13.1193 8.41317C12.7409 9.3268 12.1 10.1077 11.2778 10.6571C10.4555 11.2065 9.48881 11.4998 8.4999 11.4998C7.17427 11.4983 5.90337 10.971 4.96601 10.0336C4.02865 9.09628 3.50139 7.82538 3.4999 6.49975ZM12.6536 10.8298C11.5215 11.9197 10.0069 12.5219 8.43538 12.507C6.86389 12.4921 5.36099 11.8612 4.24973 10.7499C3.13848 9.63866 2.50757 8.13576 2.49265 6.56427C2.47772 4.99279 3.07995 3.47817 4.1699 2.346C4.21657 2.29889 4.2534 2.24296 4.27824 2.18147C4.30309 2.11999 4.31546 2.05418 4.31462 1.98787C4.31379 1.92155 4.29978 1.85607 4.2734 1.79523C4.24701 1.73439 4.20879 1.6794 4.16096 1.63347C4.11312 1.58754 4.05662 1.55159 3.99476 1.5277C3.9329 1.50382 3.8669 1.49247 3.80061 1.49434C3.73432 1.4962 3.66906 1.51123 3.60864 1.53856C3.54821 1.56589 3.49383 1.60496 3.44865 1.6535C2.52824 2.61291 1.90009 3.8146 1.63769 5.11797C1.37529 6.42134 1.4895 7.77249 1.96695 9.01332C2.4444 10.2542 3.26534 11.3334 4.33374 12.1247C5.40213 12.916 6.67378 13.3866 7.9999 13.4816V14.4998H6.4999C6.36729 14.4998 6.24011 14.5524 6.14635 14.6462C6.05258 14.74 5.9999 14.8671 5.9999 14.9998C5.9999 15.1324 6.05258 15.2595 6.14635 15.3533C6.24011 15.4471 6.36729 15.4998 6.4999 15.4998H10.4999C10.6325 15.4998 10.7597 15.4471 10.8535 15.3533C10.9472 15.2595 10.9999 15.1324 10.9999 14.9998C10.9999 14.8671 10.9472 14.74 10.8535 14.6462C10.7597 14.5524 10.6325 14.4998 10.4999 14.4998H8.9999V13.4823C10.6307 13.3696 12.1696 12.6858 13.3461 11.551C13.3947 11.5058 13.4338 11.4514 13.4611 11.391C13.4884 11.3306 13.5034 11.2653 13.5053 11.199C13.5072 11.1328 13.4958 11.0668 13.472 11.0049C13.4481 10.943 13.4121 10.8865 13.3662 10.8387C13.3203 10.7909 13.2653 10.7526 13.2044 10.7263C13.1436 10.6999 13.0781 10.6859 13.0118 10.685C12.9455 10.6842 12.8797 10.6966 12.8182 10.7214C12.7567 10.7463 12.7008 10.7831 12.6536 10.8298Z" fill="black"/>
</g>
<defs>
<clipPath id="clip0_5_732">
<rect width="16" height="16" fill="white"/>
</clipPath>
</defs>
</svg>
