<svg width="16" height="16" viewBox="0 0 16 16" fill="none" xmlns="http://www.w3.org/2000/svg">
<g clip-path="url(#clip0_5_1710)">
<path d="M14.9888 7.13642L4.50002 1.13517C4.34712 1.04601 4.17328 0.999023 3.99627 0.999023C3.81927 0.999023 3.64543 1.04601 3.49252 1.13517C3.34187 1.22156 3.21688 1.34642 3.13034 1.49698C3.04381 1.64754 2.99883 1.81839 3.00002 1.99205V14.0083C2.99953 14.1818 3.04509 14.3523 3.13206 14.5024C3.21902 14.6525 3.34428 14.7768 3.49502 14.8627C3.64793 14.9518 3.82177 14.9988 3.99877 14.9988C4.17578 14.9988 4.34962 14.9518 4.50252 14.8627L14.9888 8.86267C15.1436 8.77778 15.2728 8.65282 15.3628 8.50086C15.4528 8.3489 15.5003 8.17553 15.5003 7.99892C15.5003 7.82231 15.4528 7.64895 15.3628 7.49699C15.2728 7.34503 15.1436 7.22006 14.9888 7.13517V7.13642ZM10 8.70705L11.1825 9.88955L5.65127 13.0558L10 8.70705ZM5.65002 2.94392L11.1831 6.1108L10 7.2933L5.65002 2.94392ZM12.0819 9.37517L10.7069 8.00017L12.0819 6.62517L14.4838 8.00017L12.0819 9.37517Z" fill="black"/>
</g>
<defs>
<clipPath id="clip0_5_1710">
<rect width="16" height="16" fill="white"/>
</clipPath>
</defs>
</svg>
