<svg width="16" height="16" viewBox="0 0 16 16" fill="none" xmlns="http://www.w3.org/2000/svg">
<g clip-path="url(#clip0_5_1094)">
<path d="M15.2076 7.29231L8.70755 0.79231C8.61468 0.699334 8.50439 0.625575 8.38299 0.57525C8.2616 0.524926 8.13147 0.499023 8.00005 0.499023C7.86864 0.499023 7.73851 0.524926 7.61711 0.57525C7.49572 0.625575 7.38543 0.699334 7.29255 0.79231L0.792554 7.29231C0.699578 7.38518 0.625819 7.49547 0.575495 7.61687C0.52517 7.73827 0.499268 7.86839 0.499268 7.99981C0.499268 8.13123 0.52517 8.26135 0.575495 8.38275C0.625819 8.50415 0.699578 8.61444 0.792554 8.70731L7.29255 15.2073C7.38543 15.3003 7.49572 15.374 7.61711 15.4244C7.73851 15.4747 7.86864 15.5006 8.00005 15.5006C8.13147 15.5006 8.2616 15.4747 8.38299 15.4244C8.50439 15.374 8.61468 15.3003 8.70755 15.2073L15.2076 8.70731C15.3005 8.61444 15.3743 8.50415 15.4246 8.38275C15.4749 8.26135 15.5008 8.13123 15.5008 7.99981C15.5008 7.86839 15.4749 7.73827 15.4246 7.61687C15.3743 7.49547 15.3005 7.38518 15.2076 7.29231ZM3.50005 8.49981C3.50005 8.63242 3.44738 8.7596 3.35361 8.85336C3.25984 8.94713 3.13266 8.99981 3.00005 8.99981C2.86745 8.99981 2.74027 8.94713 2.6465 8.85336C2.55273 8.7596 2.50005 8.63242 2.50005 8.49981V7.49981C2.50005 7.3672 2.55273 7.24003 2.6465 7.14626C2.74027 7.05249 2.86745 6.99981 3.00005 6.99981C3.13266 6.99981 3.25984 7.05249 3.35361 7.14626C3.44738 7.24003 3.50005 7.3672 3.50005 7.49981V8.49981ZM6.00005 10.9998C6.00005 11.1324 5.94738 11.2596 5.85361 11.3534C5.75984 11.4471 5.63266 11.4998 5.50005 11.4998C5.36745 11.4998 5.24027 11.4471 5.1465 11.3534C5.05273 11.2596 5.00005 11.1324 5.00005 10.9998V9.99981C5.00005 9.8672 5.05273 9.74002 5.1465 9.64626C5.24027 9.55249 5.36745 9.49981 5.50005 9.49981C5.63266 9.49981 5.75984 9.55249 5.85361 9.64626C5.94738 9.74002 6.00005 9.8672 6.00005 9.99981V10.9998ZM6.00005 7.99981C6.00005 8.13242 5.94738 8.2596 5.85361 8.35336C5.75984 8.44713 5.63266 8.49981 5.50005 8.49981C5.36745 8.49981 5.24027 8.44713 5.1465 8.35336C5.05273 8.2596 5.00005 8.13242 5.00005 7.99981V4.99981C5.00005 4.8672 5.05273 4.74003 5.1465 4.64626C5.24027 4.55249 5.36745 4.49981 5.50005 4.49981C5.63266 4.49981 5.75984 4.55249 5.85361 4.64626C5.94738 4.74003 6.00005 4.8672 6.00005 4.99981V7.99981ZM8.50005 13.4998C8.50005 13.6324 8.44738 13.7596 8.35361 13.8534C8.25984 13.9471 8.13266 13.9998 8.00005 13.9998C7.86745 13.9998 7.74027 13.9471 7.6465 13.8534C7.55273 13.7596 7.50005 13.6324 7.50005 13.4998V12.4998C7.50005 12.3672 7.55273 12.24 7.6465 12.1463C7.74027 12.0525 7.86745 11.9998 8.00005 11.9998C8.13266 11.9998 8.25984 12.0525 8.35361 12.1463C8.44738 12.24 8.50005 12.3672 8.50005 12.4998V13.4998ZM8.50005 10.4998C8.50005 10.6324 8.44738 10.7596 8.35361 10.8534C8.25984 10.9471 8.13266 10.9998 8.00005 10.9998C7.86745 10.9998 7.74027 10.9471 7.6465 10.8534C7.55273 10.7596 7.50005 10.6324 7.50005 10.4998V5.49981C7.50005 5.3672 7.55273 5.24003 7.6465 5.14626C7.74027 5.05249 7.86745 4.99981 8.00005 4.99981C8.13266 4.99981 8.25984 5.05249 8.35361 5.14626C8.44738 5.24003 8.50005 5.3672 8.50005 5.49981V10.4998ZM8.50005 3.49981C8.50005 3.63242 8.44738 3.7596 8.35361 3.85336C8.25984 3.94713 8.13266 3.99981 8.00005 3.99981C7.86745 3.99981 7.74027 3.94713 7.6465 3.85336C7.55273 3.7596 7.50005 3.63242 7.50005 3.49981V2.49981C7.50005 2.3672 7.55273 2.24003 7.6465 2.14626C7.74027 2.05249 7.86745 1.99981 8.00005 1.99981C8.13266 1.99981 8.25984 2.05249 8.35361 2.14626C8.44738 2.24003 8.50005 2.3672 8.50005 2.49981V3.49981ZM11.0001 10.9998C11.0001 11.1324 10.9474 11.2596 10.8536 11.3534C10.7598 11.4471 10.6327 11.4998 10.5001 11.4998C10.3674 11.4998 10.2403 11.4471 10.1465 11.3534C10.0527 11.2596 10.0001 11.1324 10.0001 10.9998V7.99981C10.0001 7.8672 10.0527 7.74003 10.1465 7.64626C10.2403 7.55249 10.3674 7.49981 10.5001 7.49981C10.6327 7.49981 10.7598 7.55249 10.8536 7.64626C10.9474 7.74003 11.0001 7.8672 11.0001 7.99981V10.9998ZM11.0001 5.99981C11.0001 6.13242 10.9474 6.2596 10.8536 6.35336C10.7598 6.44713 10.6327 6.49981 10.5001 6.49981C10.3674 6.49981 10.2403 6.44713 10.1465 6.35336C10.0527 6.2596 10.0001 6.13242 10.0001 5.99981V4.99981C10.0001 4.8672 10.0527 4.74003 10.1465 4.64626C10.2403 4.55249 10.3674 4.49981 10.5001 4.49981C10.6327 4.49981 10.7598 4.55249 10.8536 4.64626C10.9474 4.74003 11.0001 4.8672 11.0001 4.99981V5.99981ZM13.5001 8.49981C13.5001 8.63242 13.4474 8.7596 13.3536 8.85336C13.2598 8.94713 13.1327 8.99981 13.0001 8.99981C12.8674 8.99981 12.7403 8.94713 12.6465 8.85336C12.5527 8.7596 12.5001 8.63242 12.5001 8.49981V7.49981C12.5001 7.3672 12.5527 7.24003 12.6465 7.14626C12.7403 7.05249 12.8674 6.99981 13.0001 6.99981C13.1327 6.99981 13.2598 7.05249 13.3536 7.14626C13.4474 7.24003 13.5001 7.3672 13.5001 7.49981V8.49981Z" fill="black"/>
</g>
<defs>
<clipPath id="clip0_5_1094">
<rect width="16" height="16" fill="white"/>
</clipPath>
</defs>
</svg>
