<svg width="16" height="16" viewBox="0 0 16 16" fill="none" xmlns="http://www.w3.org/2000/svg">
<g clip-path="url(#clip0_5_721)">
<path d="M15 8.50012H13.4769C13.4104 9.23601 13.195 9.95069 12.8438 10.6007C12.8249 10.6362 12.7978 10.6667 12.7648 10.6895C12.7317 10.7123 12.6936 10.7268 12.6538 10.7317C12.6139 10.7367 12.5735 10.732 12.5358 10.718C12.4982 10.704 12.4644 10.6812 12.4375 10.6514L5.78188 3.33012C5.75493 3.30057 5.73547 3.26498 5.72512 3.22635C5.71478 3.18772 5.71385 3.14717 5.72243 3.1081C5.731 3.06904 5.74882 3.0326 5.77439 3.00185C5.79996 2.9711 5.83253 2.94693 5.86938 2.93137C6.38848 2.71163 6.93859 2.57394 7.5 2.52325V1.00012C7.49985 0.931578 7.51379 0.863736 7.54097 0.800808C7.56814 0.73788 7.60796 0.681211 7.65796 0.634322C7.70795 0.587432 7.76706 0.551322 7.8316 0.528236C7.89614 0.50515 7.96473 0.495581 8.03312 0.500122C8.16192 0.511181 8.28172 0.570675 8.36837 0.666602C8.45502 0.762528 8.50206 0.887748 8.5 1.017V2.52325C9.77993 2.64175 10.9781 3.20416 11.887 4.11308C12.796 5.022 13.3584 6.22019 13.4769 7.50012H14.9831C15.1122 7.49838 15.2371 7.54557 15.3327 7.63218C15.4284 7.7188 15.4877 7.83842 15.4987 7.967C15.5033 8.03529 15.4938 8.10378 15.4707 8.16823C15.4477 8.23269 15.4117 8.29173 15.365 8.34171C15.3182 8.39169 15.2617 8.43153 15.1989 8.45878C15.1361 8.48603 15.0684 8.5001 15 8.50012ZM3.37 2.16387C3.32609 2.11438 3.27279 2.07409 3.2132 2.04534C3.15361 2.01659 3.0889 1.99996 3.02283 1.99641C2.95676 1.99285 2.89064 2.00245 2.82831 2.02463C2.76597 2.04682 2.70866 2.08116 2.65969 2.12566C2.61073 2.17016 2.57108 2.22393 2.54305 2.28387C2.51502 2.3438 2.49917 2.40871 2.4964 2.47481C2.49364 2.54092 2.50403 2.60692 2.52696 2.66898C2.54989 2.73105 2.58492 2.78794 2.63 2.83637L3.94812 4.28637C3.13288 5.17193 2.63207 6.30139 2.52312 7.50012H1C0.867392 7.50012 0.740215 7.5528 0.646447 7.64657C0.552678 7.74034 0.5 7.86751 0.5 8.00012C0.5 8.13273 0.552678 8.25991 0.646447 8.35368C0.740215 8.44744 0.867392 8.50012 1 8.50012H2.52312C2.64163 9.78006 3.20404 10.9782 4.11296 11.8872C5.02188 12.7961 6.22007 13.3585 7.5 13.477V15.0001C7.5 15.1327 7.55268 15.2599 7.64645 15.3537C7.74021 15.4474 7.86739 15.5001 8 15.5001C8.13261 15.5001 8.25979 15.4474 8.35355 15.3537C8.44732 15.2599 8.5 15.1327 8.5 15.0001V13.477C9.52107 13.3847 10.4956 13.0072 11.3125 12.3876L12.63 13.8364C12.6739 13.8859 12.7272 13.9262 12.7868 13.9549C12.8464 13.9837 12.9111 14.0003 12.9772 14.0038C13.0432 14.0074 13.1094 13.9978 13.1717 13.9756C13.234 13.9534 13.2913 13.9191 13.3403 13.8746C13.3893 13.8301 13.4289 13.7763 13.4569 13.7164C13.485 13.6564 13.5008 13.5915 13.5036 13.5254C13.5064 13.4593 13.496 13.3933 13.473 13.3313C13.4501 13.2692 13.4151 13.2123 13.37 13.1639L3.37 2.16387Z" fill="black"/>
</g>
<defs>
<clipPath id="clip0_5_721">
<rect width="16" height="16" fill="white"/>
</clipPath>
</defs>
</svg>
