<svg width="16" height="16" viewBox="0 0 16 16" fill="none" xmlns="http://www.w3.org/2000/svg">
<g clip-path="url(#clip0_5_715)">
<path d="M13.5001 3.99973V8.99973C13.5006 9.65012 13.3853 10.2954 13.1595 10.9054C13.1443 10.9453 13.1191 10.9807 13.0864 11.0082C13.0536 11.0357 13.0143 11.0543 12.9723 11.0622C12.9303 11.0702 12.887 11.0673 12.8464 11.0537C12.8059 11.0401 12.7695 11.0164 12.7408 10.9847L10.1576 8.14348C10.1326 8.11568 10.114 8.0826 10.1035 8.04669C10.0929 8.01077 10.0905 7.97294 10.0965 7.93599C10.1025 7.89903 10.1167 7.8639 10.1381 7.83317C10.1595 7.80245 10.1875 7.77693 10.2201 7.75848C10.9163 7.34751 11.695 7.09625 12.5001 7.02286V4.52786C11.877 4.59871 11.2754 4.79844 10.7337 5.11435C10.1919 5.43026 9.72181 5.85544 9.35325 6.36286C9.31183 6.42034 9.25867 6.46837 9.19729 6.50376C9.13591 6.53914 9.0677 6.56108 8.9972 6.56811C8.9267 6.57514 8.85551 6.56711 8.78835 6.54455C8.72118 6.52198 8.65958 6.4854 8.60763 6.43723C8.51831 6.35112 8.46341 6.23543 8.45317 6.11178C8.44293 5.98813 8.47807 5.86499 8.552 5.76536C8.97392 5.18684 9.50467 4.69622 10.1145 4.32098C9.53888 3.11223 8.46575 2.35848 8.00013 2.07473C7.45118 2.41211 6.95782 2.83251 6.53763 3.32098C6.49191 3.37526 6.43517 3.41919 6.37117 3.44984C6.30717 3.48049 6.23738 3.49717 6.16644 3.49877C6.09549 3.50036 6.02502 3.48684 5.95971 3.4591C5.89439 3.43135 5.83573 3.39002 5.78763 3.33786C5.7051 3.24501 5.65921 3.12529 5.65852 3.00106C5.65783 2.87684 5.70239 2.75662 5.78388 2.66286C6.34333 2.00868 7.0183 1.46294 7.77513 1.05286C7.84459 1.0181 7.9212 1 7.99888 1C8.07655 1 8.15316 1.0181 8.22263 1.05286C8.30513 1.09411 10.1145 2.01723 11.0095 3.87473C11.6419 3.62821 12.3145 3.50106 12.9933 3.49973C13.0595 3.49882 13.1252 3.51108 13.1867 3.5358C13.2482 3.56052 13.3041 3.59721 13.3513 3.64373C13.3984 3.69025 13.4359 3.74567 13.4614 3.80679C13.487 3.86791 13.5001 3.93349 13.5001 3.99973ZM13.3701 13.1635C13.4152 13.2119 13.4502 13.2688 13.4732 13.3309C13.4961 13.3929 13.5065 13.4589 13.5037 13.525C13.501 13.5911 13.4851 13.6561 13.4571 13.716C13.429 13.7759 13.3894 13.8297 13.3404 13.8742C13.2915 13.9187 13.2342 13.953 13.1718 13.9752C13.1095 13.9974 13.0434 14.007 12.9773 14.0034C12.9112 13.9999 12.8465 13.9833 12.7869 13.9545C12.7273 13.9258 12.674 13.8855 12.6301 13.836L11.8239 12.9491C10.8077 13.9361 9.44919 14.4918 8.03263 14.4997C4.9895 14.5172 2.50013 11.9691 2.50013 8.92661V3.99973C2.50012 3.9336 2.51324 3.86812 2.53872 3.80708C2.5642 3.74605 2.60153 3.69068 2.64856 3.64418C2.69558 3.59767 2.75137 3.56096 2.81268 3.53617C2.87399 3.51137 2.93962 3.49899 3.00575 3.49973C3.08388 3.49973 3.16075 3.49973 3.23825 3.50536L2.63013 2.83598C2.58504 2.78755 2.55002 2.73066 2.52709 2.66859C2.50415 2.60653 2.49377 2.54053 2.49653 2.47442C2.49929 2.40832 2.51515 2.34341 2.54318 2.28348C2.57121 2.22354 2.61085 2.16977 2.65982 2.12527C2.70879 2.08077 2.7661 2.04643 2.82843 2.02425C2.89077 2.00206 2.95688 1.99246 3.02295 1.99602C3.08902 1.99957 3.15373 2.01621 3.21333 2.04495C3.27292 2.0737 3.32622 2.11399 3.37013 2.16348L13.3701 13.1635ZM8.52013 9.31536L4.32388 4.69911C4.05533 4.61597 3.77952 4.55842 3.50013 4.52723V7.02348C4.46409 7.1127 5.38754 7.45428 6.17752 8.01385C6.9675 8.57342 7.59613 9.33123 8.00013 10.211C8.14498 9.89679 8.31908 9.59692 8.52013 9.31536Z" fill="black"/>
</g>
<defs>
<clipPath id="clip0_5_715">
<rect width="16" height="16" fill="white"/>
</clipPath>
</defs>
</svg>
