<svg width="16" height="16" viewBox="0 0 16 16" fill="none" xmlns="http://www.w3.org/2000/svg">
<g clip-path="url(#clip0_5_704)">
<path d="M15.6038 2.89653L13.1038 0.396528C13.0099 0.302708 12.8827 0.25 12.75 0.25C12.6173 0.25 12.4901 0.302708 12.3963 0.396528C12.3024 0.490348 12.2497 0.617596 12.2497 0.750278C12.2497 0.88296 12.3024 1.01021 12.3963 1.10403L12.5431 1.25028L8.78251 5.01028C7.35813 4.26903 5.76313 4.3309 4.79688 5.29653C4.54189 5.55261 4.34215 5.85829 4.21001 6.19465C4.16943 6.28584 4.10323 6.36328 4.01945 6.41754C3.93568 6.47179 3.83794 6.50054 3.73813 6.50028C2.82626 6.5309 2.03438 6.85778 1.44751 7.44465C0.692508 8.20153 0.375008 9.28778 0.546258 10.5047C0.712508 11.669 1.31688 12.8222 2.25001 13.7503C3.18313 14.6784 4.33376 15.2853 5.50001 15.4515C5.709 15.4828 5.91995 15.4991 6.13126 15.5003C7.08876 15.5003 7.93313 15.1734 8.55376 14.5528C9.14063 13.9659 9.46751 13.174 9.49813 12.2622C9.49803 12.1621 9.52705 12.0643 9.58166 11.9805C9.63627 11.8967 9.71409 11.8306 9.80563 11.7903C10.142 11.6582 10.4477 11.4585 10.7038 11.2034C11.6694 10.2372 11.7313 8.6409 10.99 7.21778L14.75 3.45715L14.8963 3.60403C14.9427 3.65048 14.9979 3.68733 15.0586 3.71247C15.1193 3.73762 15.1843 3.75056 15.25 3.75056C15.3157 3.75056 15.3808 3.73762 15.4415 3.71247C15.5022 3.68733 15.5573 3.65048 15.6038 3.60403C15.6502 3.55757 15.6871 3.50242 15.7122 3.44173C15.7373 3.38103 15.7503 3.31598 15.7503 3.25028C15.7503 3.18458 15.7373 3.11953 15.7122 3.05883C15.6871 2.99813 15.6502 2.94298 15.6038 2.89653ZM5.85376 12.8534C5.76 12.9471 5.63287 12.9997 5.50032 12.9997C5.36777 12.9997 5.24064 12.9471 5.14688 12.8534L3.14688 10.8534C3.05315 10.7596 3.00052 10.6324 3.00058 10.4997C3.00063 10.3671 3.05338 10.24 3.1472 10.1462C3.24102 10.0525 3.36823 9.99985 3.50085 9.99991C3.63348 9.99997 3.76065 10.0527 3.85438 10.1465L5.85438 12.1465C5.948 12.2404 6.00052 12.3675 6.0004 12.5001C6.00028 12.6326 5.94754 12.7597 5.85376 12.8534ZM8.48751 9.98715C8.24279 10.232 7.93098 10.3987 7.59149 10.4663C7.252 10.5339 6.9001 10.4993 6.58029 10.3668C6.26048 10.2344 5.98712 10.0101 5.7948 9.72229C5.60248 9.43449 5.49982 9.09611 5.49982 8.74997C5.49982 8.40382 5.60248 8.06545 5.7948 7.77764C5.98712 7.48984 6.26048 7.26554 6.58029 7.13311C6.9001 7.00068 7.252 6.96606 7.59149 7.03364C7.93098 7.10122 8.24279 7.26797 8.48751 7.51278C8.81555 7.84095 8.99982 8.28596 8.99982 8.74997C8.99982 9.21397 8.81555 9.65899 8.48751 9.98715ZM10.4288 6.36215C10.311 6.21662 10.1859 6.07727 10.0538 5.94465C9.92107 5.81239 9.78151 5.68721 9.63563 5.56965L11 4.20715L11.7931 5.00028L10.4288 6.36215ZM12.5 4.29278L11.7075 3.50028L13.25 1.95715L14.0431 2.75028L12.5 4.29278Z" fill="black"/>
</g>
<defs>
<clipPath id="clip0_5_704">
<rect width="16" height="16" fill="white"/>
</clipPath>
</defs>
</svg>
