<svg width="16" height="16" viewBox="0 0 16 16" fill="none" xmlns="http://www.w3.org/2000/svg">
<g clip-path="url(#clip0_5_1406)">
<path d="M6.03426 2.25896C5.96631 2.00609 6.00026 1.73665 6.12881 1.50853C6.25736 1.28042 6.47026 1.11182 6.72176 1.03896C7.25988 0.885212 7.82488 1.22646 7.97176 1.76709L8.97176 5.50334C8.98098 5.53698 8.98307 5.57217 8.97787 5.60667C8.97268 5.64116 8.96033 5.67418 8.94161 5.70361C8.92289 5.73305 8.89822 5.75824 8.86918 5.77756C8.84015 5.79689 8.80739 5.80993 8.77301 5.81584C8.49634 5.86319 8.23285 5.96863 7.99988 6.12521C7.96488 6.14834 7.93113 6.17271 7.89738 6.19834C7.87676 6.16209 7.85551 6.12584 7.83488 6.09084C7.62126 5.76624 7.317 5.51153 6.95988 5.35834C6.92555 5.34351 6.89504 5.32106 6.87067 5.29269C6.84631 5.26432 6.82873 5.23077 6.81926 5.19459L6.03426 2.25896ZM5.02488 11.0408C5.09131 11.0545 5.15895 11.0614 5.22676 11.0615C5.47459 11.0612 5.71351 10.969 5.89719 10.8026C6.08088 10.6363 6.19624 10.4076 6.22092 10.161C6.24559 9.91443 6.17782 9.66746 6.03074 9.46799C5.88366 9.26853 5.66776 9.13078 5.42488 9.08146L4.20051 8.83146C3.94177 8.78107 3.6736 8.83488 3.45433 8.98118C3.23506 9.12748 3.08242 9.35445 3.02962 9.6127C2.97682 9.87096 3.02812 10.1396 3.17236 10.3602C3.31661 10.5809 3.54213 10.7356 3.79988 10.7908L5.02488 11.0408ZM3.79988 7.72834L5.96488 8.17021C6.09435 8.19861 6.22818 8.20099 6.35858 8.17721C6.48897 8.15343 6.61334 8.10397 6.72445 8.03169C6.83556 7.95941 6.93119 7.86577 7.00578 7.7562C7.08038 7.64663 7.13244 7.52333 7.15896 7.39346C7.18547 7.26359 7.1859 7.12975 7.16022 6.99971C7.13454 6.86967 7.08327 6.74604 7.00938 6.63599C6.93549 6.52595 6.84046 6.43169 6.72982 6.35871C6.61918 6.28572 6.49513 6.23545 6.36488 6.21084L4.20051 5.77084C3.94068 5.71772 3.6704 5.76999 3.44911 5.91615C3.22782 6.06231 3.07365 6.29039 3.02051 6.55021C2.9674 6.81004 3.01967 7.08033 3.16583 7.30162C3.31198 7.52291 3.54006 7.67708 3.79988 7.73021V7.72834ZM10.1749 5.96834L11.6468 6.26896C11.7088 6.28152 11.7734 6.27005 11.8273 6.23687C11.8812 6.20369 11.9206 6.15128 11.9374 6.09021L12.9636 2.25896C13.0312 2.00314 12.9946 1.73098 12.8618 1.50209C12.7291 1.2732 12.5111 1.10624 12.2555 1.03778C11.9999 0.969313 11.7276 1.00493 11.4983 1.13682C11.2689 1.26872 11.1011 1.48614 11.0318 1.74146L9.98176 5.66021C9.9729 5.69333 9.97095 5.72792 9.97602 5.76183C9.9811 5.79574 9.9931 5.82824 10.0113 5.85732C10.0294 5.88639 10.0534 5.91142 10.0817 5.93084C10.1099 5.95026 10.1419 5.96366 10.1755 5.97021L10.1749 5.96834ZM12.5086 7.95209C12.4016 7.77615 12.2594 7.62425 12.0908 7.50594C11.9223 7.38762 11.7311 7.30545 11.5293 7.26459L9.30426 6.81271C9.13317 6.77776 8.95591 6.78821 8.79012 6.84304C8.62432 6.89786 8.47578 6.99515 8.35926 7.12521C8.2974 7.19128 8.24616 7.26655 8.20738 7.34834C8.12306 7.5175 8.0884 7.70709 8.10743 7.89514C8.12645 8.08319 8.19838 8.262 8.31488 8.41084C8.46824 8.60356 8.68551 8.73503 8.92738 8.78146L9.87988 8.97584C10.0092 9.00215 10.1231 9.07818 10.197 9.18759C10.2708 9.29699 10.2988 9.43102 10.2749 9.56084C10.1908 9.9647 10.2521 10.3853 10.448 10.7483C10.5082 10.8535 10.529 10.9766 10.507 11.0958C10.4849 11.2149 10.4212 11.3223 10.3274 11.399C10.2704 11.4436 10.2044 11.4754 10.1339 11.4921C10.0634 11.5087 9.99014 11.5099 9.91917 11.4954C9.8482 11.481 9.78122 11.4513 9.72285 11.4084C9.66448 11.3655 9.61613 11.3105 9.58113 11.2471C9.34786 10.8249 9.22974 10.3487 9.23863 9.86646L8.70426 9.75021C8.44709 9.69842 8.20273 9.5962 7.98529 9.44945C7.76785 9.3027 7.58163 9.11433 7.43738 8.89521C7.41363 8.85959 7.39176 8.82334 7.37113 8.78646C7.23891 8.88725 7.09468 8.97123 6.94176 9.03646C7.12316 9.33989 7.22089 9.68598 7.225 10.0395C7.2291 10.393 7.13944 10.7412 6.96515 11.0488C6.79085 11.3564 6.53814 11.6122 6.23277 11.7903C5.9274 11.9684 5.58028 12.0624 5.22676 12.0627C5.09178 12.0626 4.95715 12.049 4.82488 12.0221L3.60051 11.7721H3.59676C3.56735 11.7651 3.53658 11.7665 3.50788 11.7759C3.47919 11.7854 3.4537 11.8027 3.43425 11.8259C3.4148 11.849 3.40217 11.8771 3.39776 11.907C3.39334 11.9369 3.39733 11.9674 3.40926 11.9952C3.79946 12.8882 4.44152 13.648 5.25685 14.1817C6.07217 14.7154 7.02541 14.9998 7.99988 15.0002H8.03801C10.7736 14.9796 12.9999 12.7115 12.9999 9.94396V9.73521C12.9997 9.10812 12.8302 8.49271 12.5093 7.95396L12.5086 7.95209Z" fill="black"/>
</g>
<defs>
<clipPath id="clip0_5_1406">
<rect width="16" height="16" fill="white"/>
</clipPath>
</defs>
</svg>
