<svg width="16" height="16" viewBox="0 0 16 16" fill="none" xmlns="http://www.w3.org/2000/svg">
<g clip-path="url(#clip0_5_1393)">
<path d="M13.5 8.00028V11.1834C13.5 12.7828 12.97 13.679 12.9475 13.724C12.9059 13.8071 12.8421 13.8769 12.763 13.9257C12.684 13.9745 12.5929 14.0003 12.5 14.0003H4.00001C3.91284 14.0003 3.82719 13.9775 3.75154 13.9342C3.6759 13.8909 3.61289 13.8286 3.56876 13.7534L1.63438 10.0003C1.56664 9.88304 1.52342 9.75326 1.50733 9.61882C1.49124 9.48438 1.50262 9.34807 1.54078 9.21815C1.57894 9.08824 1.64309 8.96743 1.72934 8.86305C1.81558 8.75866 1.92212 8.67288 2.04251 8.6109C2.52126 8.3609 3.11126 8.5584 3.38001 9.02465L4.69251 11.3022C4.72901 11.3677 4.78409 11.4211 4.85081 11.4554C4.91753 11.4898 4.99293 11.5036 5.06751 11.4953H5.07501C5.19511 11.4746 5.3039 11.4118 5.38181 11.318C5.45971 11.2243 5.50163 11.1059 5.50001 10.984V3.50028C5.49985 3.36481 5.52722 3.23072 5.58046 3.10614C5.6337 2.98157 5.71169 2.86911 5.80971 2.7756C5.90772 2.68208 6.02372 2.60946 6.15066 2.56213C6.27759 2.5148 6.41282 2.49376 6.54813 2.50028C7.08626 2.52528 7.50001 2.98903 7.50001 3.52715V8.00028C7.49986 8.06882 7.5138 8.13666 7.54098 8.19959C7.56815 8.26252 7.60797 8.31919 7.65797 8.36608C7.70796 8.41297 7.76707 8.44908 7.8316 8.47216C7.89614 8.49525 7.96474 8.50482 8.03313 8.50028C8.16171 8.48923 8.28133 8.42992 8.36795 8.33426C8.45456 8.2386 8.50175 8.11369 8.50001 7.98465V7.00028C8.49985 6.86481 8.52722 6.73072 8.58046 6.60614C8.6337 6.48157 8.71169 6.36911 8.80971 6.2756C8.90772 6.18208 9.02372 6.10946 9.15066 6.06213C9.27759 6.0148 9.41282 5.99376 9.54813 6.00028C10.0863 6.02528 10.5 6.48903 10.5 7.02715V8.50028C10.4999 8.56882 10.5138 8.63666 10.541 8.69959C10.5681 8.76252 10.608 8.81919 10.658 8.86608C10.708 8.91297 10.7671 8.94908 10.8316 8.97216C10.8961 8.99525 10.9647 9.00482 11.0331 9.00028C11.1617 8.98909 11.2812 8.92973 11.3678 8.8341C11.4544 8.73847 11.5016 8.61365 11.5 8.48465V8.02965C11.5 7.49153 11.9138 7.02965 12.4519 7.00278C12.587 6.99627 12.722 7.01724 12.8488 7.06441C12.9755 7.11158 13.0914 7.18399 13.1894 7.27724C13.2874 7.37048 13.3654 7.48264 13.4188 7.60692C13.4722 7.7312 13.4998 7.86502 13.5 8.00028ZM15.8538 3.14653L13.8538 1.14653C13.7599 1.05271 13.6327 1 13.5 1C13.3673 1 13.2401 1.05271 13.1463 1.14653C13.0524 1.24035 12.9997 1.3676 12.9997 1.50028C12.9997 1.63296 13.0524 1.76021 13.1463 1.85403L14.2931 3.00028H11C10.8674 3.00028 10.7402 3.05296 10.6465 3.14672C10.5527 3.24049 10.5 3.36767 10.5 3.50028C10.5 3.63289 10.5527 3.76006 10.6465 3.85383C10.7402 3.9476 10.8674 4.00028 11 4.00028H14.2931L13.1463 5.14653C13.0524 5.24035 12.9997 5.3676 12.9997 5.50028C12.9997 5.63296 13.0524 5.76021 13.1463 5.85403C13.2401 5.94785 13.3673 6.00056 13.5 6.00056C13.6327 6.00056 13.7599 5.94785 13.8538 5.85403L15.8538 3.85403C15.9002 3.80759 15.9371 3.75245 15.9623 3.69175C15.9875 3.63105 16.0004 3.56599 16.0004 3.50028C16.0004 3.43457 15.9875 3.36951 15.9623 3.30881C15.9371 3.24811 15.9002 3.19296 15.8538 3.14653Z" fill="black"/>
</g>
<defs>
<clipPath id="clip0_5_1393">
<rect width="16" height="16" fill="white"/>
</clipPath>
</defs>
</svg>
