<svg width="16" height="16" viewBox="0 0 16 16" fill="none" xmlns="http://www.w3.org/2000/svg">
<g clip-path="url(#clip0_5_731)">
<path d="M13.5 8.00028V11.1834C13.5 12.7828 12.97 13.679 12.9475 13.724C12.9059 13.8071 12.8421 13.8769 12.763 13.9257C12.684 13.9745 12.5929 14.0003 12.5 14.0003H4.00001C3.91284 14.0003 3.82719 13.9775 3.75154 13.9342C3.6759 13.8909 3.61289 13.8286 3.56876 13.7534L1.63438 10.0003C1.56664 9.88304 1.52342 9.75326 1.50733 9.61882C1.49124 9.48438 1.50262 9.34807 1.54078 9.21815C1.57894 9.08824 1.64309 8.96743 1.72934 8.86305C1.81558 8.75866 1.92212 8.67288 2.04251 8.6109C2.52126 8.3609 3.11126 8.5584 3.38001 9.02465L4.69251 11.3022C4.72901 11.3677 4.78409 11.4211 4.85081 11.4554C4.91753 11.4898 4.99293 11.5036 5.06751 11.4953H5.07501C5.19511 11.4746 5.3039 11.4118 5.38181 11.318C5.45971 11.2243 5.50163 11.1059 5.50001 10.984V3.50028C5.49985 3.36481 5.52722 3.23072 5.58046 3.10614C5.6337 2.98157 5.71169 2.86911 5.80971 2.7756C5.90772 2.68208 6.02372 2.60946 6.15066 2.56213C6.27759 2.5148 6.41282 2.49376 6.54813 2.50028C7.08626 2.52528 7.50001 2.98903 7.50001 3.52715V8.00028C7.49986 8.06882 7.5138 8.13666 7.54098 8.19959C7.56815 8.26252 7.60797 8.31919 7.65797 8.36608C7.70796 8.41297 7.76707 8.44908 7.8316 8.47216C7.89614 8.49525 7.96474 8.50482 8.03313 8.50028C8.16171 8.48923 8.28133 8.42992 8.36795 8.33426C8.45456 8.2386 8.50175 8.11369 8.50001 7.98465V7.00028C8.49985 6.86481 8.52722 6.73072 8.58046 6.60614C8.6337 6.48157 8.71169 6.36911 8.80971 6.2756C8.90772 6.18208 9.02372 6.10946 9.15066 6.06213C9.27759 6.0148 9.41282 5.99376 9.54813 6.00028C10.0863 6.02528 10.5 6.48903 10.5 7.02715V8.50028C10.4999 8.56882 10.5138 8.63666 10.541 8.69959C10.5681 8.76252 10.608 8.81919 10.658 8.86608C10.708 8.91297 10.7671 8.94908 10.8316 8.97216C10.8961 8.99525 10.9647 9.00482 11.0331 9.00028C11.1617 8.98909 11.2812 8.92973 11.3678 8.8341C11.4544 8.73847 11.5016 8.61365 11.5 8.48465V8.02965C11.5 7.49153 11.9138 7.02965 12.4519 7.00278C12.587 6.99627 12.722 7.01724 12.8488 7.06441C12.9755 7.11158 13.0914 7.18399 13.1894 7.27724C13.2874 7.37048 13.3654 7.48264 13.4188 7.60692C13.4722 7.7312 13.4998 7.86502 13.5 8.00028ZM15.5 3.00028H12.2069L13.3538 1.85403C13.4002 1.80757 13.4371 1.75242 13.4622 1.69173C13.4873 1.63103 13.5003 1.56598 13.5003 1.50028C13.5003 1.43458 13.4873 1.36953 13.4622 1.30883C13.4371 1.24813 13.4002 1.19298 13.3538 1.14653C13.3073 1.10007 13.2522 1.06322 13.1915 1.03808C13.1308 1.01294 13.0657 1 13 1C12.9343 1 12.8693 1.01294 12.8086 1.03808C12.7479 1.06322 12.6927 1.10007 12.6463 1.14653L10.6463 3.14653C10.5998 3.19296 10.5629 3.24811 10.5377 3.30881C10.5126 3.36951 10.4996 3.43457 10.4996 3.50028C10.4996 3.56599 10.5126 3.63105 10.5377 3.69175C10.5629 3.75245 10.5998 3.80759 10.6463 3.85403L12.6463 5.85403C12.6927 5.90048 12.7479 5.93733 12.8086 5.96247C12.8693 5.98762 12.9343 6.00056 13 6.00056C13.0657 6.00056 13.1308 5.98762 13.1915 5.96247C13.2522 5.93733 13.3073 5.90048 13.3538 5.85403C13.4002 5.80757 13.4371 5.75242 13.4622 5.69173C13.4873 5.63103 13.5003 5.56598 13.5003 5.50028C13.5003 5.43458 13.4873 5.36953 13.4622 5.30883C13.4371 5.24813 13.4002 5.19298 13.3538 5.14653L12.2069 4.00028H15.5C15.6326 4.00028 15.7598 3.9476 15.8536 3.85383C15.9473 3.76006 16 3.63289 16 3.50028C16 3.36767 15.9473 3.24049 15.8536 3.14672C15.7598 3.05296 15.6326 3.00028 15.5 3.00028Z" fill="black"/>
</g>
<defs>
<clipPath id="clip0_5_731">
<rect width="16" height="16" fill="white"/>
</clipPath>
</defs>
</svg>
