<svg width="16" height="16" viewBox="0 0 16 16" fill="none" xmlns="http://www.w3.org/2000/svg">
<g clip-path="url(#clip0_5_1601)">
<path d="M4.00016 4C4.00016 3.20435 4.31623 2.44129 4.87884 1.87868C5.44145 1.31607 6.20451 1 7.00016 1C7.79581 1 8.55887 1.31607 9.12148 1.87868C9.68409 2.44129 10.0002 3.20435 10.0002 4C10.0002 4.13261 9.94748 4.25979 9.85371 4.35355C9.75994 4.44732 9.63277 4.5 9.50016 4.5C9.36755 4.5 9.24037 4.44732 9.14661 4.35355C9.05284 4.25979 9.00016 4.13261 9.00016 4C9.00016 3.46957 8.78944 2.96086 8.41437 2.58579C8.0393 2.21071 7.53059 2 7.00016 2C6.46973 2 5.96102 2.21071 5.58595 2.58579C5.21087 2.96086 5.00016 3.46957 5.00016 4C5.00016 4.13261 4.94748 4.25979 4.85371 4.35355C4.75994 4.44732 4.63277 4.5 4.50016 4.5C4.36755 4.5 4.24037 4.44732 4.14661 4.35355C4.05284 4.25979 4.00016 4.13261 4.00016 4ZM12.952 7.5C12.4139 7.525 12.0002 7.98875 12.0002 8.52687V8.98188C12.0019 9.11091 11.9547 9.23582 11.8681 9.33148C11.7815 9.42714 11.6619 9.48646 11.5333 9.4975C11.4649 9.50204 11.3963 9.49247 11.3318 9.46939C11.2672 9.4463 11.2081 9.41019 11.1581 9.3633C11.1081 9.31641 11.0683 9.25974 11.0411 9.19681C11.014 9.13389 11 9.06604 11.0002 8.9975V7.52812C11.0002 6.99 10.5864 6.52812 10.0483 6.50125C9.91307 6.49474 9.77795 6.51574 9.6511 6.56299C9.52425 6.61024 9.40831 6.68276 9.31031 6.77614C9.21231 6.86952 9.13429 6.98183 9.08098 7.10625C9.02767 7.23068 9.00017 7.36463 9.00016 7.5V8.48312C9.0019 8.61216 8.95471 8.73707 8.8681 8.83273C8.78148 8.92839 8.66186 8.9877 8.53328 8.99875C8.46489 9.00329 8.39629 8.99372 8.33175 8.97064C8.26721 8.94755 8.20811 8.91144 8.15812 8.86455C8.10812 8.81766 8.0683 8.76099 8.04113 8.69806C8.01395 8.63514 8.00001 8.56729 8.00016 8.49875V4.02812C8.00016 3.49 7.58641 3.02813 7.04828 3.00125C6.91307 2.99474 6.77795 3.01574 6.6511 3.06299C6.52425 3.11024 6.40831 3.18276 6.31031 3.27614C6.21231 3.36952 6.13429 3.48183 6.08098 3.60625C6.02767 3.73068 6.00017 3.86463 6.00016 4V11.4838C6.00168 11.6047 5.96033 11.7222 5.88346 11.8156C5.80658 11.9089 5.69913 11.9721 5.58016 11.9937H5.57266C5.49808 12.0021 5.42268 11.9882 5.35596 11.9539C5.28924 11.9195 5.23416 11.8662 5.19766 11.8006L3.88516 9.52312C3.61641 9.05687 3.02641 8.8625 2.54766 9.10938C2.42668 9.1709 2.3195 9.25641 2.23263 9.36069C2.14576 9.46497 2.08103 9.58584 2.04238 9.71595C2.00373 9.84605 1.99197 9.98266 2.00781 10.1175C2.02366 10.2522 2.06677 10.3824 2.13453 10.5L4.06891 14.2531C4.11304 14.3283 4.17605 14.3906 4.25169 14.4339C4.32734 14.4772 4.41299 14.5 4.50016 14.5H13.0002C13.093 14.5001 13.1841 14.4743 13.2632 14.4255C13.3422 14.3767 13.4061 14.3068 13.4477 14.2238C13.4702 14.1788 14.0002 13.2825 14.0002 11.6831V8.5C14.0003 8.36453 13.9729 8.23044 13.9197 8.10586C13.8665 7.98129 13.7885 7.86884 13.6905 7.77532C13.5924 7.6818 13.4764 7.60918 13.3495 7.56185C13.2226 7.51452 13.0873 7.49348 12.952 7.5Z" fill="black"/>
</g>
<defs>
<clipPath id="clip0_5_1601">
<rect width="16" height="16" fill="white"/>
</clipPath>
</defs>
</svg>
