<svg width="16" height="16" viewBox="0 0 16 16" fill="none" xmlns="http://www.w3.org/2000/svg">
<g clip-path="url(#clip0_5_1420)">
<path d="M14.5 7.49986V7.99986C14.5 8.8554 14.3311 9.70252 14.003 10.4927C13.6749 11.2828 13.1941 12.0004 12.588 12.6042C11.982 13.2081 11.2627 13.6864 10.4714 14.0117C9.68013 14.337 8.83241 14.5029 7.97688 14.4999C4.60188 14.488 1.85188 11.8711 1.53188 8.57611C1.52841 8.53318 1.53608 8.49009 1.55416 8.45101C1.57224 8.41193 1.60011 8.37817 1.63506 8.35302C1.67002 8.32788 1.71088 8.31218 1.75368 8.30747C1.79649 8.30275 1.83978 8.30917 1.87938 8.32611C2.3291 8.5149 2.82805 8.55218 3.30083 8.43232C3.77361 8.31246 4.19454 8.04197 4.5 7.66173C4.70014 7.91063 4.95109 8.11397 5.23609 8.25815C5.52108 8.40233 5.83356 8.48404 6.15265 8.49782C6.47175 8.51161 6.79011 8.45714 7.08647 8.33808C7.38284 8.21901 7.65039 8.03807 7.87125 7.80736C8.07366 8.13618 8.34885 8.41416 8.67563 8.61986C8.31 8.89959 8.01375 9.25981 7.80986 9.67256C7.60598 10.0853 7.49995 10.5395 7.5 10.9999C7.49976 11.0692 7.51394 11.1378 7.54164 11.2014C7.56935 11.265 7.60997 11.3221 7.66093 11.3691C7.71189 11.4161 7.77207 11.452 7.83765 11.4745C7.90323 11.497 7.97278 11.5057 8.04188 11.4999C8.16876 11.4862 8.286 11.4257 8.37071 11.3303C8.45542 11.2348 8.50151 11.1112 8.5 10.9836C8.50429 10.456 8.71689 9.95145 9.0915 9.57989C9.46611 9.20832 9.97237 8.99984 10.5 8.99986C10.5685 9.00001 10.6364 8.98606 10.6993 8.95889C10.7622 8.93172 10.8189 8.8919 10.8658 8.8419C10.9127 8.7919 10.9488 8.7328 10.9719 8.66826C10.995 8.60372 11.0045 8.53512 11 8.46673C10.9888 8.33821 10.9295 8.21868 10.8338 8.13209C10.7382 8.0455 10.6134 7.99827 10.4844 7.99986H10C9.60218 7.99986 9.22064 7.84182 8.93934 7.56052C8.65804 7.27921 8.5 6.89768 8.5 6.49986V5.49986H12.5C13.0304 5.49986 13.5391 5.71057 13.9142 6.08564C14.2893 6.46072 14.5 6.96942 14.5 7.49986ZM2.79563 7.49986C3.47313 7.47486 4 6.89798 4 6.21986V4.78236C4 4.10173 3.47313 3.52486 2.79563 3.49986C2.62767 3.49372 2.46021 3.52152 2.30325 3.58159C2.14629 3.64165 2.00305 3.73275 1.8821 3.84944C1.76115 3.96613 1.66497 4.10601 1.59932 4.26072C1.53367 4.41543 1.49989 4.58179 1.5 4.74986V6.24986C1.49989 6.41792 1.53367 6.58428 1.59932 6.73899C1.66497 6.8937 1.76115 7.03358 1.8821 7.15027C2.00305 7.26696 2.14629 7.35806 2.30325 7.41813C2.46021 7.47819 2.62767 7.50599 2.79563 7.49986ZM6.29563 7.49986C6.97313 7.47548 7.5 6.89861 7.5 6.22048V3.28298C7.5 2.60486 6.97313 2.02798 6.29563 2.00361C6.12799 1.99748 5.96084 2.02516 5.80412 2.085C5.64741 2.14483 5.50434 2.2356 5.38345 2.35189C5.26255 2.46818 5.1663 2.60761 5.10042 2.76189C5.03454 2.91616 5.00039 3.08211 5 3.24986V6.24986C4.99989 6.41792 5.03367 6.58428 5.09932 6.73899C5.16497 6.8937 5.26115 7.03358 5.3821 7.15027C5.50305 7.26696 5.64629 7.35806 5.80325 7.41813C5.96021 7.47819 6.12767 7.50599 6.29563 7.49986ZM11 3.24986C11.0001 3.08179 10.9663 2.91543 10.9007 2.76072C10.835 2.60601 10.7389 2.46613 10.6179 2.34944C10.497 2.23275 10.3537 2.14165 10.1968 2.08159C10.0398 2.02152 9.87233 1.99372 9.70438 1.99986C9.02688 2.02486 8.5 2.60173 8.5 3.27986V4.49986H10.75C10.8163 4.49986 10.8799 4.47352 10.9268 4.42663C10.9737 4.37975 11 4.31616 11 4.24986V3.24986Z" fill="black"/>
</g>
<defs>
<clipPath id="clip0_5_1420">
<rect width="16" height="16" fill="white"/>
</clipPath>
</defs>
</svg>
