<svg width="16" height="16" viewBox="0 0 16 16" fill="none" xmlns="http://www.w3.org/2000/svg">
<g clip-path="url(#clip0_5_690)">
<path d="M14 6.50018V9.68331C14 12.5708 11.6969 14.9677 8.81251 14.9996C8.11246 15.009 7.41763 14.8778 6.76919 14.6138C6.12076 14.3499 5.5319 13.9584 5.03751 13.4627C3.67438 12.0208 2.13438 8.50018 2.13438 8.50018C2.06664 8.38294 2.02342 8.25317 2.00733 8.11872C1.99124 7.98428 2.00262 7.84797 2.04078 7.71806C2.07894 7.58814 2.14309 7.46733 2.22934 7.36295C2.31558 7.25857 2.42212 7.17279 2.54251 7.11081C3.02126 6.86081 3.61126 7.05831 3.88001 7.52456L5.19251 9.80206C5.22901 9.86763 5.28409 9.92095 5.35081 9.95532C5.41753 9.98968 5.49293 10.0035 5.56751 9.99518H5.57501C5.69511 9.97451 5.8039 9.91166 5.88181 9.81795C5.95971 9.72423 6.00163 9.60579 6.00001 9.48393V2.00018C5.99985 1.86471 6.02722 1.73062 6.08046 1.60605C6.1337 1.48147 6.21169 1.36902 6.30971 1.2755C6.40772 1.18199 6.52372 1.10936 6.65066 1.06203C6.77759 1.0147 6.91282 0.993663 7.04813 1.00018C7.58626 1.02518 8.00001 1.48893 8.00001 2.02706V6.50018C7.99986 6.56873 8.0138 6.63657 8.04098 6.6995C8.06815 6.76242 8.10797 6.81909 8.15797 6.86598C8.20796 6.91287 8.26707 6.94898 8.3316 6.97207C8.39614 6.99515 8.46474 7.00472 8.53313 7.00018C8.66171 6.98914 8.78133 6.92982 8.86795 6.83416C8.95456 6.7385 9.00175 6.61359 9.00001 6.48456V5.50018C8.99985 5.36471 9.02722 5.23062 9.08046 5.10605C9.1337 4.98147 9.21169 4.86902 9.30971 4.7755C9.40772 4.68199 9.52372 4.60936 9.65066 4.56203C9.77759 4.5147 9.91282 4.49366 10.0481 4.50018C10.5863 4.52518 11 4.98893 11 5.52706V7.00018C10.9999 7.06873 11.0138 7.13657 11.041 7.1995C11.0681 7.26242 11.108 7.31909 11.158 7.36598C11.208 7.41287 11.2671 7.44898 11.3316 7.47207C11.3961 7.49515 11.4647 7.50472 11.5331 7.50018C11.6617 7.48914 11.7813 7.42982 11.8679 7.33416C11.9546 7.2385 12.0017 7.11359 12 6.98456V6.52956C12 5.99143 12.4138 5.52956 12.9519 5.50268C13.087 5.49617 13.222 5.51714 13.3488 5.56431C13.4755 5.61149 13.5914 5.68389 13.6894 5.77714C13.7874 5.87039 13.8654 5.98254 13.9188 6.10682C13.9722 6.2311 13.9998 6.36492 14 6.50018Z" fill="black"/>
</g>
<defs>
<clipPath id="clip0_5_690">
<rect width="16" height="16" fill="white"/>
</clipPath>
</defs>
</svg>
