<svg width="16" height="16" viewBox="0 0 16 16" fill="none" xmlns="http://www.w3.org/2000/svg">
<g clip-path="url(#clip0_5_743)">
<path d="M13.5 4.00018V9.68331C13.5 12.5708 11.1969 14.9677 8.31251 14.9996C7.61246 15.009 6.91763 14.8778 6.26919 14.6138C5.62076 14.3499 5.0319 13.9584 4.53751 13.4627C3.17438 12.0208 1.63438 8.50018 1.63438 8.50018C1.56664 8.38294 1.52342 8.25317 1.50733 8.11872C1.49124 7.98428 1.50262 7.84797 1.54078 7.71806C1.57894 7.58814 1.64309 7.46733 1.72934 7.36295C1.81558 7.25857 1.92212 7.17279 2.04251 7.11081C2.52126 6.86081 3.11126 7.05831 3.38001 7.52456L4.69251 9.80206C4.72901 9.86763 4.78409 9.92095 4.85081 9.95532C4.91753 9.98968 4.99293 10.0035 5.06751 9.99518H5.07501C5.19511 9.97451 5.3039 9.91166 5.38181 9.81795C5.45971 9.72423 5.50163 9.60579 5.50001 9.48393V3.00018C5.49985 2.86471 5.52722 2.73062 5.58046 2.60605C5.6337 2.48147 5.71169 2.36902 5.80971 2.2755C5.90772 2.18199 6.02372 2.10936 6.15066 2.06203C6.27759 2.0147 6.41282 1.99366 6.54813 2.00018C7.08626 2.02518 7.50001 2.48893 7.50001 3.02706V7.00018C7.49986 7.06873 7.5138 7.13657 7.54098 7.1995C7.56815 7.26242 7.60797 7.31909 7.65797 7.36598C7.70796 7.41287 7.76707 7.44898 7.8316 7.47207C7.89614 7.49515 7.96474 7.50472 8.03313 7.50018C8.16171 7.48914 8.28133 7.42982 8.36795 7.33416C8.45456 7.2385 8.50175 7.11359 8.50001 6.98456V2.00018C8.49985 1.86471 8.52722 1.73062 8.58046 1.60605C8.6337 1.48147 8.71169 1.36902 8.80971 1.2755C8.90772 1.18199 9.02372 1.10936 9.15066 1.06203C9.27759 1.0147 9.41282 0.993663 9.54813 1.00018C10.0863 1.02518 10.5 1.48893 10.5 2.02706V7.50018C10.4999 7.56873 10.5138 7.63657 10.541 7.6995C10.5681 7.76242 10.608 7.81909 10.658 7.86598C10.708 7.91287 10.7671 7.94898 10.8316 7.97207C10.8961 7.99515 10.9647 8.00472 11.0331 8.00018C11.1617 7.98914 11.2813 7.92982 11.3679 7.83416C11.4546 7.7385 11.5017 7.61359 11.5 7.48456V4.02831C11.5 3.49018 11.9138 3.02831 12.4519 3.00143C12.5871 2.99492 12.7222 3.01592 12.8491 3.06317C12.9759 3.11042 13.0919 3.18294 13.1899 3.27632C13.2879 3.3697 13.3659 3.48201 13.4192 3.60644C13.4725 3.73086 13.5 3.86482 13.5 4.00018Z" fill="black"/>
</g>
<defs>
<clipPath id="clip0_5_743">
<rect width="16" height="16" fill="white"/>
</clipPath>
</defs>
</svg>
