<svg width="16" height="16" viewBox="0 0 16 16" fill="none" xmlns="http://www.w3.org/2000/svg">
<g clip-path="url(#clip0_5_692)">
<path d="M14.5 12.4155V14.9999C14.5 15.1325 14.4473 15.2597 14.3536 15.3535C14.2598 15.4472 14.1326 15.4999 14 15.4999C13.8674 15.4999 13.7402 15.4472 13.6464 15.3535C13.5527 15.2597 13.5 15.1325 13.5 14.9999V12.4155C13.4977 11.7738 13.3633 11.1393 13.1052 10.5517C12.8472 9.9641 12.471 9.43587 12 8.9999V12.6468C11.9999 12.7544 11.9651 12.8591 11.9008 12.9453C11.8364 13.0316 11.746 13.0948 11.6429 13.1255C11.5398 13.1563 11.4295 13.1529 11.3284 13.116C11.2273 13.0791 11.1409 13.0105 11.0819 12.9205L10.4144 11.9012C10.4094 11.8937 10.4044 11.8855 10.4 11.8774C10.302 11.7043 10.1391 11.5772 9.94739 11.5241C9.75563 11.471 9.55064 11.4962 9.3775 11.5943C9.20436 11.6923 9.07727 11.8551 9.02417 12.0469C8.97107 12.2386 8.99633 12.4436 9.09437 12.6168L10.4775 14.7287C10.5501 14.8396 10.5756 14.9749 10.5485 15.1047C10.5214 15.2345 10.4438 15.3482 10.3328 15.4208C10.2218 15.4934 10.0866 15.519 9.95675 15.4919C9.82694 15.4647 9.71323 15.3871 9.64062 15.2762L8.24938 13.1512L8.23438 13.1274C8.21063 13.0862 8.18875 13.0443 8.16875 13.0024H3.5C3.36739 13.0024 3.24021 12.9497 3.14645 12.856C3.05268 12.7622 3 12.635 3 12.5024V5.99991C3 5.73469 3.10536 5.48033 3.29289 5.2928C3.48043 5.10526 3.73478 4.99991 4 4.99991H7V7.99991C7 8.13251 7.05268 8.25969 7.14645 8.35346C7.24021 8.44723 7.36739 8.4999 7.5 8.4999C7.63261 8.4999 7.75979 8.44723 7.85355 8.35346C7.94732 8.25969 8 8.13251 8 7.99991V4.99991H11C11.2652 4.99991 11.5196 5.10526 11.7071 5.2928C11.8946 5.48033 12 5.73469 12 5.99991V7.72616C12.7674 8.24476 13.3964 8.94314 13.8322 9.76048C14.2679 10.5778 14.4972 11.4893 14.5 12.4155ZM8 2.20678L9.14625 3.35366C9.24007 3.44748 9.36732 3.50018 9.5 3.50018C9.63268 3.50018 9.75993 3.44748 9.85375 3.35366C9.94757 3.25983 10.0003 3.13259 10.0003 2.99991C10.0003 2.86722 9.94757 2.73998 9.85375 2.64616L7.85375 0.646155C7.80731 0.599667 7.75217 0.562787 7.69147 0.537625C7.63077 0.512463 7.56571 0.499512 7.5 0.499512C7.43429 0.499512 7.36923 0.512463 7.30853 0.537625C7.24783 0.562787 7.19269 0.599667 7.14625 0.646155L5.14625 2.64616C5.05243 2.73998 4.99972 2.86722 4.99972 2.99991C4.99972 3.0656 5.01266 3.13066 5.0378 3.19135C5.06294 3.25205 5.09979 3.3072 5.14625 3.35366C5.1927 3.40011 5.24786 3.43696 5.30855 3.4621C5.36925 3.48724 5.4343 3.50018 5.5 3.50018C5.63268 3.50018 5.75993 3.44748 5.85375 3.35366L7 2.20678V4.99991H8V2.20678Z" fill="black"/>
</g>
<defs>
<clipPath id="clip0_5_692">
<rect width="16" height="16" fill="white"/>
</clipPath>
</defs>
</svg>
