<svg width="16" height="16" viewBox="0 0 16 16" fill="none" xmlns="http://www.w3.org/2000/svg">
<g clip-path="url(#clip0_5_676)">
<path d="M15.0002 6.12486C15.0012 6.60102 14.9079 7.07266 14.7255 7.5125C14.5431 7.95235 14.2753 8.35167 13.9377 8.68736L8.35641 14.3511C8.30988 14.3984 8.25443 14.4359 8.19326 14.4615C8.1321 14.4871 8.06646 14.5003 8.00016 14.5003C7.93385 14.5003 7.86821 14.4871 7.80705 14.4615C7.74589 14.4359 7.69043 14.3984 7.64391 14.3511L2.06266 8.68736C1.38221 8.00775 0.99961 7.08566 0.999024 6.12395C0.998438 5.16224 1.37991 4.23968 2.05953 3.55924C2.73915 2.87879 3.66124 2.49619 4.62295 2.49561C5.58466 2.49502 6.50721 2.8765 7.18766 3.55611L8.00016 4.31549L8.81828 3.55361C9.32606 3.04836 9.97215 2.70487 10.675 2.56651C11.3778 2.42815 12.1059 2.50112 12.7673 2.77622C13.4287 3.05132 13.9938 3.5162 14.3912 4.11219C14.7886 4.70817 15.0005 5.40854 15.0002 6.12486Z" fill="black"/>
</g>
<defs>
<clipPath id="clip0_5_676">
<rect width="16" height="16" fill="white"/>
</clipPath>
</defs>
</svg>
