<svg width="16" height="16" viewBox="0 0 16 16" fill="none" xmlns="http://www.w3.org/2000/svg">
<g clip-path="url(#clip0_5_1570)">
<path d="M7.08063 3.45675C6.387 2.79073 5.45721 2.42752 4.4958 2.44704C3.53438 2.46655 2.62009 2.86719 1.95407 3.56081C1.28804 4.25444 0.924836 5.18423 0.944351 6.14565C0.963867 7.10706 1.3645 8.02135 2.05813 8.68738L7.64375 14.3536C7.69028 14.4009 7.74573 14.4384 7.80689 14.464C7.86806 14.4896 7.9337 14.5028 8 14.5028C8.06631 14.5028 8.13195 14.4896 8.19311 14.464C8.25427 14.4384 8.30973 14.4009 8.35625 14.3536L13.9375 8.68738C14.6179 8.00776 15.0005 7.08567 15.0011 6.12396C15.0017 5.16225 14.6202 4.2397 13.9406 3.55925C13.261 2.87881 12.3389 2.49621 11.3772 2.49562C10.4155 2.49503 9.49295 2.87651 8.8125 3.55613L7.2875 4.99363L8.9375 6.64488C8.98399 6.69131 9.02087 6.74646 9.04603 6.80716C9.07119 6.86785 9.08415 6.93292 9.08415 6.99863C9.08415 7.06433 9.07119 7.1294 9.04603 7.1901C9.02087 7.2508 8.98399 7.30594 8.9375 7.35238L7.64438 8.6455C7.59788 8.69192 7.5427 8.72872 7.48198 8.7538C7.42126 8.77889 7.3562 8.79177 7.2905 8.79172C7.2248 8.79166 7.15976 8.77866 7.09908 8.75347C7.03841 8.72827 6.98329 8.69137 6.93688 8.64488C6.89046 8.59838 6.85366 8.5432 6.82858 8.48248C6.80349 8.42176 6.7906 8.35669 6.79066 8.291C6.79072 8.2253 6.80372 8.16026 6.82891 8.09958C6.85411 8.03891 6.89101 7.98379 6.9375 7.93738L7.875 6.99988L6.21875 5.33863C6.17114 5.29106 6.13363 5.23436 6.10845 5.17195C6.08328 5.10953 6.07097 5.04268 6.07225 4.97539C6.07353 4.9081 6.08839 4.84176 6.11593 4.78035C6.14346 4.71894 6.18311 4.66372 6.2325 4.618L7.07938 3.81925C7.10396 3.7959 7.12354 3.76778 7.13692 3.73662C7.15029 3.70547 7.15719 3.67191 7.15719 3.638C7.15719 3.60409 7.15029 3.57054 7.13692 3.53938C7.12354 3.50822 7.10396 3.48011 7.07938 3.45675H7.08063Z" fill="black"/>
</g>
<defs>
<clipPath id="clip0_5_1570">
<rect width="16" height="16" fill="white"/>
</clipPath>
</defs>
</svg>
