<svg width="16" height="16" viewBox="0 0 16 16" fill="none" xmlns="http://www.w3.org/2000/svg">
<g clip-path="url(#clip0_5_1530)">
<path d="M14.5 5.01137V10.9889C14.4996 11.1679 14.4511 11.3436 14.3597 11.4975C14.2682 11.6514 14.1371 11.7779 13.98 11.8639L8.48 14.8745C8.33305 14.9557 8.16789 14.9983 8 14.9983C7.83211 14.9983 7.66695 14.9557 7.52 14.8745L2.02 11.8639C1.86293 11.7779 1.73181 11.6514 1.64034 11.4975C1.54888 11.3436 1.50041 11.1679 1.5 10.9889V5.01137C1.50041 4.83233 1.54888 4.65667 1.64034 4.50276C1.73181 4.34884 1.86293 4.22231 2.02 4.13637L7.52 1.12574C7.66695 1.04455 7.83211 1.00195 8 1.00195C8.16789 1.00195 8.33305 1.04455 8.48 1.12574L13.98 4.13637C14.1371 4.22231 14.2682 4.34884 14.3597 4.50276C14.4511 4.65667 14.4996 4.83233 14.5 5.01137Z" fill="black"/>
</g>
<defs>
<clipPath id="clip0_5_1530">
<rect width="16" height="16" fill="white"/>
</clipPath>
</defs>
</svg>
