<svg width="16" height="16" viewBox="0 0 16 16" fill="none" xmlns="http://www.w3.org/2000/svg">
<g clip-path="url(#clip0_5_672)">
<path d="M2 9.00012C2.80626 8.99948 3.60426 9.16256 4.34562 9.4795C4.39136 9.49843 4.43044 9.53051 4.45793 9.57168C4.48541 9.61285 4.50005 9.66125 4.5 9.71075V12.0001C4.5 12.2653 4.39464 12.5197 4.20711 12.7072C4.01957 12.8948 3.76522 13.0001 3.5 13.0001H2.5C2.23478 13.0001 1.98043 12.8948 1.79289 12.7072C1.60536 12.5197 1.5 12.2653 1.5 12.0001V9.25012C1.5 9.18382 1.52634 9.12023 1.57322 9.07335C1.62011 9.02646 1.6837 9.00012 1.75 9.00012H2ZM14.4375 9.762L11.25 9.0445L4.35375 2.14637C4.30598 2.09863 4.24904 2.06105 4.18636 2.03592C4.12367 2.01078 4.05655 1.99861 3.98903 2.00013C3.92151 2.00165 3.855 2.01683 3.79351 2.04475C3.73202 2.07268 3.67682 2.11278 3.63125 2.16262C2.25687 3.66512 1.5 5.56262 1.5 7.50012C1.5 7.63273 1.55268 7.75991 1.64645 7.85368C1.74021 7.94744 1.86739 8.00012 2 8.00012C3.41411 7.99824 4.79516 8.42777 5.95875 9.23137C7.09374 10.0103 7.97499 11.1054 8.49312 12.3807C8.56798 12.5648 8.69631 12.7222 8.86153 12.8326C9.02676 12.9431 9.22129 13.0014 9.42 13.0001H15C15.2652 13.0001 15.5196 12.8948 15.7071 12.7072C15.8946 12.5197 16 12.2653 16 12.0001V11.7045C16.0011 11.2508 15.8466 10.8104 15.5623 10.4569C15.2779 10.1034 14.8809 9.85811 14.4375 9.762Z" fill="black"/>
</g>
<defs>
<clipPath id="clip0_5_672">
<rect width="16" height="16" fill="white"/>
</clipPath>
</defs>
</svg>
