<svg width="16" height="16" viewBox="0 0 16 16" fill="none" xmlns="http://www.w3.org/2000/svg">
<g clip-path="url(#clip0_5_669)">
<path d="M15.8536 6.64653C15.8071 6.60004 15.752 6.56316 15.6913 6.538C15.6306 6.51284 15.5655 6.49988 15.4998 6.49988C15.4341 6.49988 15.3691 6.51284 15.3084 6.538C15.2477 6.56316 15.1925 6.60004 15.1461 6.64653L11.9998 9.7934L6.70671 4.50028L9.85359 1.35403C9.90004 1.30757 9.93689 1.25242 9.96203 1.19173C9.98717 1.13103 10.0001 1.06598 10.0001 1.00028C10.0001 0.934581 9.98717 0.869526 9.96203 0.80883C9.93689 0.748133 9.90004 0.692983 9.85359 0.646528C9.80713 0.600073 9.75198 0.563223 9.69128 0.538081C9.63059 0.51294 9.56553 0.5 9.49984 0.5C9.43414 0.5 9.36908 0.51294 9.30839 0.538081C9.24769 0.563223 9.19254 0.600073 9.14608 0.646528L5.99983 3.7934C5.84855 3.94472 5.74978 4.14057 5.71806 4.35218C5.68633 4.56379 5.72332 4.78 5.82358 4.96903L4.49983 6.2934C4.31244 6.48092 4.20717 6.73518 4.20717 7.00028C4.20717 7.26538 4.31244 7.51964 4.49983 7.70715L4.79296 8.00028L1.14608 11.6465C1.08577 11.7068 1.04187 11.7815 1.01856 11.8635C0.995246 11.9455 0.993301 12.0322 1.0129 12.1152C1.03251 12.1981 1.07301 12.2747 1.13056 12.3377C1.18811 12.4006 1.2608 12.4477 1.34171 12.4747L5.84171 13.9747C5.89267 13.9918 5.94608 14.0004 5.99983 14.0003C6.06552 14.0003 6.13056 13.9874 6.19126 13.9623C6.25196 13.9373 6.30712 13.9004 6.35358 13.854L8.49983 11.7072L8.79296 12.0003C8.98048 12.1877 9.23473 12.2929 9.49984 12.2929C9.76494 12.2929 10.0192 12.1877 10.2067 12.0003L11.5305 10.6765C11.7196 10.7769 11.9359 10.814 12.1476 10.7823C12.3594 10.7506 12.5553 10.6517 12.7067 10.5003L15.8536 7.35403C15.9001 7.30759 15.937 7.25245 15.9621 7.19175C15.9873 7.13105 16.0002 7.06599 16.0002 7.00028C16.0002 6.93457 15.9873 6.86951 15.9621 6.80881C15.937 6.74811 15.9001 6.69296 15.8536 6.64653ZM9.49984 11.2934L5.20671 7.00028L6.49983 5.70715L10.793 10.0003L9.49984 11.2934Z" fill="black"/>
</g>
<defs>
<clipPath id="clip0_5_669">
<rect width="16" height="16" fill="white"/>
</clipPath>
</defs>
</svg>
