<svg width="16" height="16" viewBox="0 0 16 16" fill="none" xmlns="http://www.w3.org/2000/svg">
<g clip-path="url(#clip0_5_671)">
<path d="M12.5963 3.40383C11.3773 2.18483 9.72401 1.5 8.00008 1.5C6.27615 1.5 4.62283 2.18483 3.40383 3.40383C2.18483 4.62283 1.5 6.27615 1.5 8.00008C1.5 9.72401 2.18483 11.3773 3.40383 12.5963C4.62283 13.8153 6.27615 14.5002 8.00008 14.5002C9.72401 14.5002 11.3773 13.8153 12.5963 12.5963C13.8153 11.3773 14.5002 9.72401 14.5002 8.00008C14.5002 6.27615 13.8153 4.62283 12.5963 3.40383ZM6.00008 13.1251V9.50008H10.0001V13.1251C8.71362 13.6251 7.28653 13.6251 6.00008 13.1251ZM11.8888 11.8888C11.6185 12.1597 11.3206 12.4016 11.0001 12.6107V9.50008C11.0001 9.23486 10.8947 8.98051 10.7072 8.79297C10.5196 8.60544 10.2653 8.50008 10.0001 8.50008V4.50008C10.0001 4.41481 9.97839 4.33094 9.9369 4.25644C9.89541 4.18194 9.83556 4.11929 9.76303 4.07445C9.6905 4.0296 9.60771 4.00405 9.52252 4.00023C9.43734 3.9964 9.35259 4.01442 9.27633 4.05258L6.27633 5.55258C6.19326 5.59415 6.12341 5.65803 6.07462 5.73708C6.02582 5.81612 6.00001 5.90719 6.00008 6.00008V8.50008C5.73486 8.50008 5.48051 8.60544 5.29297 8.79297C5.10544 8.98051 5.00008 9.23486 5.00008 9.50008V12.6107C4.04726 11.9909 3.30988 11.0911 2.88936 10.035C2.46885 8.979 2.38586 7.81862 2.65181 6.71349C2.91777 5.60836 3.51959 4.61277 4.37451 3.86367C5.22943 3.11456 6.29545 2.64875 7.42595 2.53028C8.55644 2.41182 9.69586 2.64653 10.6875 3.20213C11.6791 3.75773 12.4743 4.60692 12.9636 5.63291C13.4528 6.65891 13.6122 7.81129 13.4197 8.93156C13.2273 10.0518 12.6925 11.085 11.8888 11.8888Z" fill="black"/>
</g>
<defs>
<clipPath id="clip0_5_671">
<rect width="16" height="16" fill="white"/>
</clipPath>
</defs>
</svg>
