<svg width="16" height="16" viewBox="0 0 16 16" fill="none" xmlns="http://www.w3.org/2000/svg">
<g clip-path="url(#clip0_5_667)">
<path d="M9.36875 7.67642L13.6187 2.67642C13.7046 2.5753 13.8271 2.51244 13.9593 2.50166C14.0916 2.49087 14.2226 2.53305 14.3237 2.61892C14.4249 2.70478 14.4877 2.8273 14.4985 2.95951C14.5093 3.09172 14.4671 3.2228 14.3813 3.32392L10.1313 8.32392C10.0887 8.37398 10.0368 8.41519 9.97834 8.44517C9.9199 8.47516 9.85612 8.49334 9.79066 8.49868C9.65845 8.50946 9.52736 8.46728 9.42625 8.38142C9.32514 8.29555 9.26227 8.17304 9.25149 8.04083C9.24071 7.90861 9.28289 7.77753 9.36875 7.67642ZM15 10.5002V12.5002C15 12.7654 14.8946 13.0197 14.7071 13.2073C14.5196 13.3948 14.2652 13.5002 14 13.5002H10.7312C10.5863 13.5001 10.4431 13.4686 10.3115 13.4077C10.18 13.3469 10.0632 13.2581 9.96937 13.1477L1.61875 3.32392C1.57623 3.27385 1.544 3.2159 1.52388 3.15337C1.50376 3.09085 1.49615 3.02497 1.50149 2.95951C1.50683 2.89404 1.52501 2.83027 1.555 2.77183C1.58498 2.71339 1.62618 2.66143 1.67625 2.61892C1.72632 2.5764 1.78427 2.54416 1.84679 2.52404C1.90932 2.50392 1.97519 2.49632 2.04066 2.50166C2.10612 2.507 2.1699 2.52518 2.22834 2.55516C2.28677 2.58515 2.33873 2.62635 2.38125 2.67642L8.18125 9.50017H14C14.2652 9.50017 14.5196 9.60552 14.7071 9.79306C14.8946 9.9806 15 10.235 15 10.5002ZM14 10.5002H13V12.5002H14V10.5002ZM7.20625 11.4414C7.24465 11.4866 7.26573 11.544 7.26573 11.6033C7.26573 11.6626 7.24465 11.72 7.20625 11.7652L6.03062 13.1477C5.93677 13.2581 5.82002 13.3469 5.68847 13.4077C5.55691 13.4686 5.4137 13.5001 5.26875 13.5002H2C1.73478 13.5002 1.48043 13.3948 1.29289 13.2073C1.10536 13.0197 1 12.7654 1 12.5002V10.5002C1 10.235 1.10536 9.9806 1.29289 9.79306C1.48043 9.60552 1.73478 9.50017 2 9.50017H5.44063C5.47636 9.5006 5.51159 9.50869 5.54393 9.52389C5.57628 9.53909 5.60499 9.56105 5.62813 9.58829L7.20625 11.4414ZM3 10.5002H2V12.5002H3V10.5002Z" fill="black"/>
</g>
<defs>
<clipPath id="clip0_5_667">
<rect width="16" height="16" fill="white"/>
</clipPath>
</defs>
</svg>
