<svg width="16" height="16" viewBox="0 0 16 16" fill="none" xmlns="http://www.w3.org/2000/svg">
<g clip-path="url(#clip0_5_1021)">
<path d="M14.8321 7.53312L11.4377 2.445C11.3466 2.30845 11.2233 2.19643 11.0786 2.11882C10.934 2.04121 10.7724 2.00041 10.6083 2H5.39205C5.2279 2.00041 5.06638 2.04121 4.92174 2.11882C4.77709 2.19643 4.65378 2.30845 4.56268 2.445L1.1683 7.53312C1.08891 7.65205 1.03595 7.78661 1.01298 7.92774C0.990017 8.06888 0.997585 8.21329 1.03518 8.35125L2.37518 13.2631C2.43288 13.4747 2.55854 13.6614 2.73279 13.7946C2.90705 13.9277 3.12025 13.9999 3.33955 14H5.00018C5.26539 14 5.51975 13.8946 5.70728 13.7071C5.89482 13.5196 6.00018 13.2652 6.00018 13V12H10.0002V13C10.0002 13.2652 10.1055 13.5196 10.2931 13.7071C10.4806 13.8946 10.735 14 11.0002 14H12.6608C12.8801 13.9999 13.0933 13.9277 13.2676 13.7946C13.4418 13.6614 13.5675 13.4747 13.6252 13.2631L14.9652 8.35125C15.0028 8.21329 15.0103 8.06888 14.9874 7.92774C14.9644 7.78661 14.9114 7.65205 14.8321 7.53312ZM5.00018 13H3.33955L2.00018 8.08813L4.00018 5.08813V11C4.00018 11.2652 4.10553 11.5196 4.29307 11.7071C4.48061 11.8946 4.73496 12 5.00018 12V13ZM7.50018 8.5C7.50018 8.63261 7.4475 8.75979 7.35373 8.85355C7.25996 8.94732 7.13278 9 7.00018 9C6.86757 9 6.74039 8.94732 6.64662 8.85355C6.55286 8.75979 6.50018 8.63261 6.50018 8.5V6.07125C6.50018 5.93864 6.55286 5.81146 6.64662 5.7177C6.74039 5.62393 6.86757 5.57125 7.00018 5.57125C7.13278 5.57125 7.25996 5.62393 7.35373 5.7177C7.4475 5.81146 7.50018 5.93864 7.50018 6.07125V8.5ZM9.50018 8C9.50018 8.13261 9.4475 8.25979 9.35373 8.35355C9.25996 8.44732 9.13278 8.5 9.00018 8.5C8.86757 8.5 8.74039 8.44732 8.64662 8.35355C8.55285 8.25979 8.50018 8.13261 8.50018 8V6.07125C8.50018 5.93864 8.55285 5.81146 8.64662 5.7177C8.74039 5.62393 8.86757 5.57125 9.00018 5.57125C9.13278 5.57125 9.25996 5.62393 9.35373 5.7177C9.4475 5.81146 9.50018 5.93864 9.50018 6.07125V8ZM8.00018 4.91937L5.20955 3.27437L5.39205 3H10.6083L10.7908 3.27437L8.00018 4.91937ZM12.6608 13H11.0002V12C11.2654 12 11.5197 11.8946 11.7073 11.7071C11.8948 11.5196 12.0002 11.2652 12.0002 11V5.08813L14.0002 8.08813L12.6608 13Z" fill="black"/>
</g>
<defs>
<clipPath id="clip0_5_1021">
<rect width="16" height="16" fill="white"/>
</clipPath>
</defs>
</svg>
