<svg width="16" height="16" viewBox="0 0 16 16" fill="none" xmlns="http://www.w3.org/2000/svg">
<g clip-path="url(#clip0_5_1290)">
<path d="M15 13.0002H14V8.50016L14.1462 8.64641C14.2402 8.74023 14.3676 8.79287 14.5004 8.79276C14.6332 8.79264 14.7606 8.73977 14.8544 8.64579C14.9482 8.5518 15.0008 8.42439 15.0007 8.29159C15.0006 8.1588 14.9477 8.03148 14.8538 7.93766L8.70687 1.79266C8.51936 1.60527 8.2651 1.5 8 1.5C7.7349 1.5 7.48064 1.60527 7.29313 1.79266L1.14625 7.93766C1.05251 8.03148 0.999884 8.1587 0.999943 8.29132C1 8.42394 1.05274 8.55111 1.14656 8.64485C1.24038 8.73859 1.3676 8.79121 1.50022 8.79116C1.63284 8.7911 1.76001 8.73836 1.85375 8.64454L2 8.50016V13.0002H1C0.867392 13.0002 0.740215 13.0528 0.646447 13.1466C0.552678 13.2404 0.5 13.3676 0.5 13.5002C0.5 13.6328 0.552678 13.7599 0.646447 13.8537C0.740215 13.9475 0.867392 14.0002 1 14.0002H15C15.1326 14.0002 15.2598 13.9475 15.3536 13.8537C15.4473 13.7599 15.5 13.6328 15.5 13.5002C15.5 13.3676 15.4473 13.2404 15.3536 13.1466C15.2598 13.0528 15.1326 13.0002 15 13.0002ZM9.5 13.0002H6.5V10.0002C6.5 9.93386 6.52634 9.87027 6.57322 9.82338C6.62011 9.7765 6.6837 9.75016 6.75 9.75016H9.25C9.3163 9.75016 9.37989 9.7765 9.42678 9.82338C9.47366 9.87027 9.5 9.93386 9.5 10.0002V13.0002Z" fill="black"/>
</g>
<defs>
<clipPath id="clip0_5_1290">
<rect width="16" height="16" fill="white"/>
</clipPath>
</defs>
</svg>
