<svg width="16" height="16" viewBox="0 0 16 16" fill="none" xmlns="http://www.w3.org/2000/svg">
<g clip-path="url(#clip0_5_981)">
<path d="M9.895 2.83489L10.4831 0.62864C10.5051 0.545952 10.5056 0.458997 10.4844 0.376097C10.4632 0.293197 10.421 0.217126 10.362 0.155163C10.303 0.093201 10.2291 0.0474211 10.1473 0.0222043C10.0655 -0.00301243 9.97866 -0.00682205 9.895 0.01114C8.59564 0.330028 7.35735 0.85976 6.22937 1.57926C3.78937 3.14802 2.5 5.36801 2.5 7.99989C2.50062 9.12615 2.84655 10.2251 3.49116 11.1487C4.13576 12.0722 5.04804 12.7759 6.105 13.1649L5.51687 15.3711C5.49486 15.4538 5.49443 15.5408 5.51564 15.6237C5.53684 15.7066 5.57897 15.7827 5.63798 15.8446C5.697 15.9066 5.77093 15.9524 5.8527 15.9776C5.93446 16.0028 6.02134 16.0066 6.105 15.9886C7.40436 15.6698 8.64265 15.14 9.77063 14.4205C12.2106 12.8518 13.5 10.6318 13.5 7.99989C13.4995 6.87361 13.1536 5.77459 12.509 4.85102C11.8643 3.92746 10.952 3.22378 9.895 2.83489ZM8 9.49989C7.70333 9.49989 7.41332 9.41192 7.16664 9.2471C6.91997 9.08227 6.72771 8.848 6.61418 8.57392C6.50065 8.29983 6.47094 7.99823 6.52882 7.70725C6.5867 7.41628 6.72956 7.14901 6.93934 6.93923C7.14912 6.72945 7.41639 6.58659 7.70736 6.52871C7.99834 6.47083 8.29994 6.50054 8.57403 6.61407C8.84811 6.7276 9.08238 6.91986 9.2472 7.16653C9.41203 7.41321 9.5 7.70322 9.5 7.99989C9.5 8.39771 9.34196 8.77925 9.06066 9.06055C8.77936 9.34186 8.39782 9.49989 8 9.49989Z" fill="black"/>
</g>
<defs>
<clipPath id="clip0_5_981">
<rect width="16" height="16" fill="white"/>
</clipPath>
</defs>
</svg>
