<svg width="16" height="16" viewBox="0 0 16 16" fill="none" xmlns="http://www.w3.org/2000/svg">
<g clip-path="url(#clip0_5_1084)">
<path d="M10.9144 5.08576C10.7481 4.19021 10.3404 3.35709 9.73515 2.67636C9.12994 1.99564 8.35028 1.49316 7.48035 1.2232C6.61041 0.953229 5.68326 0.926027 4.799 1.14453C3.91473 1.36303 3.10695 1.81893 2.46288 2.463C1.8188 3.10708 1.3629 3.91486 1.1444 4.79912C0.925905 5.68338 0.953107 6.61054 1.22307 7.48047C1.49304 8.3504 1.99551 9.13006 2.67624 9.73527C3.35697 10.3405 4.19009 10.7482 5.08564 10.9145C5.25192 11.8101 5.65968 12.6432 6.26489 13.3239C6.87009 14.0046 7.64975 14.5071 8.51969 14.7771C9.38962 15.0471 10.3168 15.0743 11.201 14.8558C12.0853 14.6373 12.8931 14.1814 13.5372 13.5373C14.1812 12.8932 14.6371 12.0854 14.8556 11.2012C15.0741 10.3169 15.0469 9.38974 14.777 8.51981C14.507 7.64988 14.0045 6.87022 13.3238 6.26501C12.6431 5.6598 11.8099 5.25205 10.9144 5.08576ZM2.00002 6.00014C1.9981 5.02519 2.35232 4.0831 2.99611 3.35094C3.6399 2.61878 4.52893 2.14695 5.49612 2.02413C6.4633 1.90131 7.44205 2.13596 8.2484 2.68398C9.05475 3.232 9.6332 4.05565 9.87502 5.00014C8.593 5.03383 7.37284 5.55835 6.46629 6.46548C5.55975 7.3726 5.03601 8.5931 5.00314 9.87514C4.14419 9.65288 3.3833 9.15181 2.8398 8.45052C2.2963 7.74923 2.00093 6.88738 2.00002 6.00014ZM10 14.0001C9.11319 13.9994 8.25166 13.7045 7.55042 13.1616C6.84918 12.6187 6.34787 11.8585 6.12502 11.0001C7.40758 10.9672 8.62853 10.4431 9.53573 9.53585C10.4429 8.62865 10.9671 7.4077 11 6.12514C11.9445 6.36696 12.7682 6.9454 13.3162 7.75176C13.8642 8.55811 14.0988 9.53685 13.976 10.504C13.8532 11.4712 13.3814 12.3603 12.6492 13.004C11.9171 13.6478 10.975 14.0021 10 14.0001Z" fill="black"/>
</g>
<defs>
<clipPath id="clip0_5_1084">
<rect width="16" height="16" fill="white"/>
</clipPath>
</defs>
</svg>
