<svg width="16" height="16" viewBox="0 0 16 16" fill="none" xmlns="http://www.w3.org/2000/svg">
<g clip-path="url(#clip0_5_646)">
<path d="M14.9718 14.1658C14.9375 14.2635 14.8736 14.3482 14.7891 14.4081C14.7046 14.468 14.6035 14.5001 14.4999 14.5001H1.4999C1.39624 14.5002 1.29511 14.4681 1.21051 14.4081C1.12591 14.3482 1.06203 14.2635 1.02771 14.1657C0.993389 14.0679 0.99032 13.9618 1.01893 13.8621C1.04754 13.7625 1.10641 13.6742 1.1874 13.6095C1.28928 13.5283 3.59553 11.7183 7.33053 11.5189C7.13627 10.7446 7.06685 9.94437 7.1249 9.14825C7.23303 7.79138 7.80678 5.98388 9.80928 4.61825C9.50226 4.54367 9.18771 4.50446 8.87178 4.50138H8.7674C7.5799 4.54013 6.83365 5.23325 6.48615 6.62138C6.45906 6.72976 6.39646 6.82594 6.30833 6.89459C6.2202 6.96323 6.11161 7.00039 5.9999 7.00013C5.95776 7.00065 5.91573 6.99561 5.8749 6.98513C5.74628 6.95295 5.63571 6.87101 5.5675 6.75732C5.49928 6.64363 5.47902 6.50751 5.51115 6.37888C6.08928 4.0695 7.58053 3.54013 8.7299 3.50388C9.18639 3.49391 9.64215 3.54541 10.0849 3.657C9.84615 3.26138 9.49615 2.84888 9.00928 2.64138C8.38428 2.37638 7.62365 2.492 6.7399 2.98575C6.68245 3.01776 6.61925 3.03814 6.55392 3.04573C6.4886 3.05332 6.42241 3.04796 6.35915 3.02997C6.29589 3.01198 6.23679 2.9817 6.18523 2.94087C6.13368 2.90004 6.09066 2.84946 6.05865 2.792C6.02664 2.73455 6.00626 2.67135 5.99868 2.60602C5.99109 2.54069 5.99644 2.47451 6.01444 2.41125C6.03243 2.34799 6.0627 2.28889 6.10353 2.23733C6.14436 2.18577 6.19495 2.14276 6.2524 2.11075C7.42365 1.45763 8.4849 1.327 9.4074 1.72325C10.188 2.05825 10.703 2.7095 11.0249 3.28575C11.4105 2.68325 11.8918 2.27513 12.4237 2.102C13.1649 1.86013 13.9637 2.057 14.7987 2.68763C14.8998 2.76914 14.9652 2.88681 14.9811 3.01572C14.997 3.14463 14.9621 3.27467 14.8838 3.37831C14.8055 3.48194 14.69 3.55104 14.5616 3.57098C14.4333 3.59092 14.3022 3.56013 14.1962 3.48513C13.6393 3.0645 13.148 2.91888 12.7374 3.052C12.2812 3.19888 11.933 3.677 11.7137 4.09013C12.1647 4.18092 12.5987 4.34183 12.9999 4.567C13.913 5.08888 14.9999 6.19513 14.9999 8.50075C14.9999 8.63336 14.9472 8.76054 14.8535 8.85431C14.7597 8.94807 14.6325 9.00075 14.4999 9.00075C14.3673 9.00075 14.2401 8.94807 14.1463 8.85431C14.0526 8.76054 13.9999 8.63336 13.9999 8.50075C13.9999 7.0345 13.4962 6.00075 12.4999 5.43825C12.3839 5.37238 12.2639 5.31393 12.1405 5.26325C12.4554 5.90327 12.5658 6.62462 12.4568 7.3295C12.3782 7.851 12.1894 8.34978 11.903 8.79263C11.8264 8.90012 11.7103 8.97293 11.5802 8.99518C11.4501 9.01744 11.3164 8.98732 11.2084 8.91141C11.1004 8.8355 11.0268 8.71995 11.0037 8.58998C10.9805 8.46 11.0097 8.32615 11.0849 8.21763C11.1318 8.1495 12.1055 6.69388 10.8812 5.132C9.19365 6.08263 8.26303 7.46013 8.12115 9.23138C8.06589 9.99872 8.14693 10.7698 8.36053 11.5089C12.2762 11.622 14.7055 13.5295 14.8105 13.6126C14.8912 13.6769 14.95 13.7646 14.9788 13.8636C15.0077 13.9627 15.0052 14.0682 14.9718 14.1658ZM3.2499 10.5001C3.59602 10.5001 3.93437 10.3975 4.22215 10.2052C4.50994 10.0129 4.73424 9.73959 4.86669 9.41982C4.99915 9.10005 5.0338 8.74819 4.96628 8.40872C4.89875 8.06925 4.73208 7.75743 4.48734 7.51269C4.2426 7.26795 3.93078 7.10128 3.59131 7.03375C3.25184 6.96623 2.89998 7.00088 2.58021 7.13334C2.26044 7.26579 1.98712 7.49009 1.79483 7.77788C1.60254 8.06567 1.4999 8.40401 1.4999 8.75013C1.4999 9.21426 1.68428 9.65938 2.01247 9.98757C2.34065 10.3158 2.78577 10.5001 3.2499 10.5001Z" fill="black"/>
</g>
<defs>
<clipPath id="clip0_5_646">
<rect width="16" height="16" fill="white"/>
</clipPath>
</defs>
</svg>
