<svg width="16" height="16" viewBox="0 0 16 16" fill="none" xmlns="http://www.w3.org/2000/svg">
<g clip-path="url(#clip0_5_643)">
<path d="M14 10.0001V13.0001C14 13.2653 13.8946 13.5197 13.7071 13.7072C13.5196 13.8948 13.2652 14.0001 13 14.0001H3C2.73478 14.0001 2.48043 13.8948 2.29289 13.7072C2.10536 13.5197 2 13.2653 2 13.0001V10.0001C2 9.7349 2.10536 9.48054 2.29289 9.29301C2.48043 9.10547 2.73478 9.00011 3 9.00011H7.5V5.94949C6.89298 5.82558 6.35359 5.4807 5.9864 4.98169C5.61921 4.48269 5.45039 3.86513 5.51266 3.24873C5.57493 2.63233 5.86386 2.061 6.32342 1.64552C6.78299 1.23004 7.38046 1 8 1C8.61954 1 9.21701 1.23004 9.67658 1.64552C10.1361 2.061 10.4251 2.63233 10.4873 3.24873C10.5496 3.86513 10.3808 4.48269 10.0136 4.98169C9.64641 5.4807 9.10702 5.82558 8.5 5.94949V9.00011H13C13.2652 9.00011 13.5196 9.10547 13.7071 9.29301C13.8946 9.48054 14 9.7349 14 10.0001ZM10 7.50011C10 7.63272 10.0527 7.7599 10.1464 7.85367C10.2402 7.94744 10.3674 8.00011 10.5 8.00011H12.5C12.6326 8.00011 12.7598 7.94744 12.8536 7.85367C12.9473 7.7599 13 7.63272 13 7.50011C13 7.36751 12.9473 7.24033 12.8536 7.14656C12.7598 7.05279 12.6326 7.00011 12.5 7.00011H10.5C10.3674 7.00011 10.2402 7.05279 10.1464 7.14656C10.0527 7.24033 10 7.36751 10 7.50011Z" fill="black"/>
</g>
<defs>
<clipPath id="clip0_5_643">
<rect width="16" height="16" fill="white"/>
</clipPath>
</defs>
</svg>
