<svg width="16" height="16" viewBox="0 0 16 16" fill="none" xmlns="http://www.w3.org/2000/svg">
<g clip-path="url(#clip0_5_952)">
<path d="M14.7501 3.06234C14.7493 2.75401 14.6573 2.45281 14.4856 2.19666C14.314 1.94052 14.0704 1.74087 13.7856 1.62287C13.5007 1.50487 13.1873 1.47378 12.8848 1.53352C12.5824 1.59325 12.3043 1.74115 12.0857 1.95859L8.94757 5.09609L1.14632 12.8998C1.08324 12.963 1.03821 13.0418 1.01589 13.1282C0.993572 13.2146 0.994784 13.3054 1.0194 13.3912C1.04402 13.477 1.09114 13.5546 1.15588 13.616C1.22062 13.6774 1.30062 13.7204 1.38757 13.7405C2.12946 13.9124 2.88851 13.9995 3.65007 13.9998C5.70945 13.9998 7.76945 13.3623 9.70882 12.1105C11.6938 10.8292 12.8457 9.37171 12.8963 9.31046C12.9717 9.2143 13.0092 9.09388 13.0018 8.97194C12.9945 8.85 12.9427 8.73498 12.8563 8.64859L11.3319 7.12484L14.2932 4.16296C14.4381 4.01864 14.553 3.84711 14.6314 3.65823C14.7098 3.46935 14.7502 3.26684 14.7501 3.06234ZM9.13945 11.2873C6.98757 12.6686 4.7682 13.2198 2.52945 12.9311L9.12507 6.33359L11.8182 9.02734C11.0253 9.89181 10.1251 10.6513 9.13945 11.2873Z" fill="black"/>
</g>
<defs>
<clipPath id="clip0_5_952">
<rect width="16" height="16" fill="white"/>
</clipPath>
</defs>
</svg>
