<svg width="16" height="16" viewBox="0 0 16 16" fill="none" xmlns="http://www.w3.org/2000/svg">
<g clip-path="url(#clip0_5_943)">
<path d="M13.9658 2.50445C13.9586 2.38213 13.9068 2.26669 13.8202 2.18004C13.7335 2.0934 13.6181 2.04159 13.4958 2.03445C8.73766 1.75507 4.92641 3.18757 3.30141 5.87507C2.73814 6.79439 2.46057 7.86028 2.50391 8.93757C2.5322 9.62647 2.67237 10.3062 2.91891 10.9501C2.9334 10.9897 2.95768 11.025 2.98949 11.0527C3.0213 11.0804 3.05961 11.0997 3.10085 11.1086C3.14209 11.1175 3.18491 11.1158 3.22534 11.1038C3.26576 11.0917 3.30247 11.0695 3.33204 11.0394L8.64454 5.6457C8.69099 5.59924 8.74614 5.56239 8.80684 5.53725C8.86754 5.51211 8.93259 5.49917 8.99829 5.49917C9.06398 5.49917 9.12904 5.51211 9.18974 5.53725C9.25043 5.56239 9.30558 5.59924 9.35204 5.6457C9.39849 5.69215 9.43534 5.7473 9.46048 5.808C9.48562 5.8687 9.49856 5.93375 9.49856 5.99945C9.49856 6.06515 9.48562 6.1302 9.46048 6.1909C9.43534 6.25159 9.39849 6.30674 9.35204 6.3532L3.54641 12.2463L2.65954 13.1332C2.5673 13.223 2.51224 13.3442 2.50529 13.4727C2.49834 13.6013 2.54002 13.7277 2.62204 13.8269C2.66695 13.879 2.72211 13.9212 2.78407 13.9509C2.84602 13.9806 2.91344 13.9973 2.98212 13.9998C3.0508 14.0023 3.11926 13.9907 3.18323 13.9656C3.2472 13.9404 3.3053 13.9024 3.35391 13.8538L4.40329 12.8044C5.28704 13.2319 6.17891 13.4651 7.06329 13.4963C7.13287 13.4988 7.20225 13.5001 7.27141 13.5001C8.27854 13.5026 9.26656 13.2252 10.1252 12.6988C12.8127 11.0738 14.2458 7.2632 13.9658 2.50445Z" fill="black"/>
</g>
<defs>
<clipPath id="clip0_5_943">
<rect width="16" height="16" fill="white"/>
</clipPath>
</defs>
</svg>
