<svg width="16" height="16" viewBox="0 0 16 16" fill="none" xmlns="http://www.w3.org/2000/svg">
<g clip-path="url(#clip0_5_999)">
<path d="M10.867 7.4112L4.91699 13.8393C4.84205 13.9209 4.74216 13.9753 4.63298 13.9939C4.52381 14.0126 4.41153 13.9944 4.31377 13.9424C4.21602 13.8903 4.13831 13.8073 4.09285 13.7063C4.0474 13.6053 4.03676 13.492 4.06261 13.3843L4.91699 9.78683L1.79199 8.38433C1.71964 8.35179 1.65608 8.30251 1.60654 8.24055C1.55701 8.17859 1.52292 8.10574 1.50711 8.02801C1.49129 7.95027 1.4942 7.86989 1.51559 7.79351C1.53698 7.71712 1.57623 7.64692 1.63011 7.5887L7.58011 1.16058C7.65464 1.07735 7.7549 1.02149 7.86489 1.00189C7.97487 0.982297 8.08825 1.0001 8.18694 1.05247C8.28563 1.10483 8.36393 1.18874 8.40937 1.2908C8.4548 1.39286 8.46475 1.5072 8.43761 1.61558L7.58199 5.21308L10.707 6.61495C10.7794 6.64746 10.8431 6.69676 10.8927 6.75877C10.9423 6.82077 10.9765 6.89371 10.9923 6.97153C11.0081 7.04935 11.0052 7.12982 10.9837 7.20628C10.9622 7.28274 10.9229 7.35298 10.8689 7.4112H10.867ZM14.7239 13.9468C14.6545 13.9819 14.5778 14.0001 14.5001 14C14.4072 14 14.3161 13.9742 14.2371 13.9254C14.1581 13.8766 14.0942 13.8068 14.0526 13.7237L13.4407 12.5H11.0589L10.447 13.7237C10.3876 13.8423 10.2836 13.9325 10.1578 13.9744C10.032 14.0163 9.89465 14.0065 9.77605 13.9471C9.65745 13.8878 9.56728 13.7838 9.52537 13.6579C9.48347 13.5321 9.49327 13.3948 9.55261 13.2762L11.8026 8.7762C11.8441 8.69316 11.908 8.62333 11.987 8.57452C12.0659 8.52571 12.157 8.49986 12.2498 8.49986C12.3426 8.49986 12.4337 8.52571 12.5126 8.57452C12.5916 8.62333 12.6555 8.69316 12.697 8.7762L14.947 13.2762C15.0063 13.3947 15.0161 13.5319 14.9742 13.6577C14.9324 13.7834 14.8423 13.8874 14.7239 13.9468ZM12.9407 11.5L12.2501 10.1181L11.5589 11.5H12.9407Z" fill="black"/>
</g>
<defs>
<clipPath id="clip0_5_999">
<rect width="16" height="16" fill="white"/>
</clipPath>
</defs>
</svg>
