<svg width="16" height="16" viewBox="0 0 16 16" fill="none" xmlns="http://www.w3.org/2000/svg">
<g clip-path="url(#clip0_5_621)">
<path d="M6.60763 4.23834C6.56511 4.19218 6.54151 4.13172 6.54151 4.06897C6.54151 4.00621 6.56511 3.94575 6.60763 3.89959L9.632 0.658966C9.70612 0.579503 9.8041 0.526347 9.91112 0.507544C10.0181 0.48874 10.1284 0.505313 10.2251 0.554754C10.3219 0.604195 10.3999 0.683812 10.4474 0.781555C10.4949 0.879298 10.5092 0.989846 10.4883 1.09647L9.57388 5.68147L13.1633 7.02709C13.2726 7.06616 13.3656 7.14105 13.427 7.23959C13.4838 7.33296 13.5084 7.44236 13.4971 7.55106C13.4858 7.65975 13.4393 7.76176 13.3645 7.84147L11.7851 9.53334C11.7617 9.55872 11.7333 9.57897 11.7017 9.59282C11.6701 9.60667 11.6359 9.61382 11.6014 9.61382C11.5668 9.61382 11.5327 9.60667 11.5011 9.59282C11.4694 9.57897 11.441 9.55872 11.4176 9.53334L6.60763 4.23834ZM8.34263 7.63334L3.37013 2.16397C3.32622 2.11447 3.27292 2.07418 3.21333 2.04543C3.15373 2.01669 3.08902 2.00006 3.02295 1.9965C2.95688 1.99295 2.89077 2.00254 2.82843 2.02473C2.7661 2.04692 2.70879 2.08125 2.65982 2.12575C2.61085 2.17025 2.57121 2.22403 2.54318 2.28396C2.51515 2.3439 2.49929 2.4088 2.49653 2.47491C2.49377 2.54102 2.50415 2.60701 2.52709 2.66908C2.55002 2.73114 2.58504 2.78804 2.63013 2.83647L5.08388 5.53522L2.64638 8.14959C2.5638 8.23228 2.51216 8.34085 2.50013 8.45709C2.49071 8.56583 2.51714 8.67466 2.57537 8.76697C2.6336 8.85928 2.72044 8.93 2.82263 8.96834L6.4245 10.319L5.51013 14.9021C5.48938 15.0086 5.50383 15.1189 5.5513 15.2165C5.59876 15.314 5.67667 15.3935 5.77327 15.4429C5.86986 15.4923 5.9799 15.5089 6.08678 15.4903C6.19365 15.4716 6.29157 15.4188 6.36575 15.3396L10.232 11.1971L12.6301 13.8346C12.674 13.8841 12.7273 13.9244 12.7869 13.9531C12.8465 13.9819 12.9112 13.9985 12.9773 14.0021C13.0434 14.0056 13.1095 13.996 13.1718 13.9738C13.2342 13.9516 13.2915 13.9173 13.3404 13.8728C13.3894 13.8283 13.429 13.7745 13.4571 13.7146C13.4851 13.6547 13.501 13.5898 13.5037 13.5236C13.5065 13.4575 13.4961 13.3915 13.4732 13.3295C13.4502 13.2674 13.4152 13.2105 13.3701 13.1621L8.34263 7.63334Z" fill="black"/>
</g>
<defs>
<clipPath id="clip0_5_621">
<rect width="16" height="16" fill="white"/>
</clipPath>
</defs>
</svg>
