<svg width="16" height="16" viewBox="0 0 16 16" fill="none" xmlns="http://www.w3.org/2000/svg">
<g clip-path="url(#clip0_5_1002)">
<path d="M13 4.99975C12.8674 4.99975 12.7402 5.05243 12.6464 5.1462C12.5527 5.23996 12.5 5.36714 12.5 5.49975V6.49975H11.8031L11.5 3.44975C11.487 3.32407 11.427 3.20795 11.3319 3.12475L8.6525 0.74225L8.64 0.731625C8.46031 0.581958 8.23385 0.5 8 0.5C7.76615 0.5 7.53969 0.581958 7.36 0.731625L7.3475 0.74225L4.6675 3.12475C4.57229 3.20778 4.51237 3.32403 4.5 3.44975L4.19688 6.49975H3.5V5.49975C3.5 5.36714 3.44732 5.23996 3.35355 5.1462C3.25979 5.05243 3.13261 4.99975 3 4.99975C2.86739 4.99975 2.74021 5.05243 2.64645 5.1462C2.55268 5.23996 2.5 5.36714 2.5 5.49975V6.99975C2.5 7.13236 2.55268 7.25954 2.64645 7.3533C2.74021 7.44707 2.86739 7.49975 3 7.49975H4.09625L3.50437 13.4047C3.49114 13.5435 3.50704 13.6834 3.55105 13.8156C3.59507 13.9478 3.66623 14.0694 3.75997 14.1725C3.85371 14.2756 3.96797 14.358 4.09541 14.4143C4.22284 14.4707 4.36066 14.4998 4.5 14.4998H11.5C11.6395 14.4997 11.7775 14.4705 11.905 14.4139C12.0326 14.3574 12.1469 14.2748 12.2406 14.1714C12.3343 14.068 12.4054 13.9462 12.4492 13.8137C12.493 13.6813 12.5086 13.5411 12.495 13.4023L11.9038 7.49975H13C13.1326 7.49975 13.2598 7.44707 13.3536 7.3533C13.4473 7.25954 13.5 7.13236 13.5 6.99975V5.49975C13.5 5.36714 13.4473 5.23996 13.3536 5.1462C13.2598 5.05243 13.1326 4.99975 13 4.99975ZM5.4525 3.99975H10.5475L10.7975 6.49975H8.5V5.49975C8.5 5.36714 8.44732 5.23996 8.35355 5.1462C8.25979 5.05243 8.13261 4.99975 8 4.99975C7.86739 4.99975 7.74021 5.05243 7.64645 5.1462C7.55268 5.23996 7.5 5.36714 7.5 5.49975V6.49975H5.20188L5.4525 3.99975ZM4.5 13.4998L4.80062 10.4998H11.1994L11.5 13.4998H4.5Z" fill="black"/>
</g>
<defs>
<clipPath id="clip0_5_1002">
<rect width="16" height="16" fill="white"/>
</clipPath>
</defs>
</svg>
