<svg width="16" height="16" viewBox="0 0 16 16" fill="none" xmlns="http://www.w3.org/2000/svg">
<g clip-path="url(#clip0_5_624)">
<path d="M11.0001 14.5001C11.0001 14.6327 10.9474 14.7599 10.8536 14.8537C10.7599 14.9475 10.6327 15.0001 10.5001 15.0001H5.50008C5.36747 15.0001 5.2403 14.9475 5.14653 14.8537C5.05276 14.7599 5.00008 14.6327 5.00008 14.5001C5.00008 14.3675 5.05276 14.2403 5.14653 14.1466C5.2403 14.0528 5.36747 14.0001 5.50008 14.0001H10.5001C10.6327 14.0001 10.7599 14.0528 10.8536 14.1466C10.9474 14.2403 11.0001 14.3675 11.0001 14.5001ZM13.5001 6.50013C13.5022 7.33366 13.3139 8.15666 12.9496 8.90633C12.5852 9.65599 12.0543 10.3125 11.3976 10.8258C11.2748 10.9199 11.1751 11.0408 11.1062 11.1794C11.0373 11.3179 11.001 11.4704 11.0001 11.6251V12.0001C11.0001 12.2653 10.8947 12.5197 10.7072 12.7072C10.5197 12.8948 10.2653 13.0001 10.0001 13.0001H6.00008C5.73487 13.0001 5.48051 12.8948 5.29298 12.7072C5.10544 12.5197 5.00008 12.2653 5.00008 12.0001V11.6251C4.99998 11.4723 4.96483 11.3214 4.89733 11.1843C4.82983 11.0471 4.73177 10.9272 4.61071 10.8339C3.95558 10.3237 3.42511 9.6711 3.05944 8.92558C2.69378 8.18006 2.5025 7.36112 2.50008 6.53076C2.48383 3.55201 4.89133 1.07138 7.86758 1.00013C8.60092 0.982459 9.33039 1.11166 10.0131 1.38014C10.6957 1.64862 11.3178 2.05095 11.8426 2.56344C12.3674 3.07593 12.7845 3.68824 13.0691 4.36431C13.3538 5.04039 13.5003 5.76658 13.5001 6.50013ZM11.4932 5.91638C11.3636 5.19219 11.0151 4.52511 10.4949 4.00494C9.97458 3.48478 9.30743 3.1365 8.58321 3.00701C8.51845 2.99609 8.45217 2.99804 8.38817 3.01273C8.32416 3.02743 8.26368 3.05459 8.21017 3.09266C8.15666 3.13073 8.11117 3.17897 8.0763 3.23462C8.04144 3.29027 8.01787 3.35225 8.00696 3.41701C7.99604 3.48176 7.99799 3.54804 8.01268 3.61204C8.02738 3.67605 8.05454 3.73654 8.09261 3.79005C8.13068 3.84356 8.17892 3.88904 8.23457 3.92391C8.29022 3.95878 8.3522 3.98234 8.41696 3.99326C9.45258 4.16763 10.3313 5.04638 10.507 6.08388C10.5267 6.20033 10.5871 6.30602 10.6774 6.38221C10.7676 6.4584 10.882 6.50018 11.0001 6.50013C11.0283 6.49996 11.0565 6.49766 11.0845 6.49326C11.2152 6.47094 11.3316 6.39764 11.4083 6.28946C11.4849 6.18128 11.5155 6.04708 11.4932 5.91638Z" fill="black"/>
</g>
<defs>
<clipPath id="clip0_5_624">
<rect width="16" height="16" fill="white"/>
</clipPath>
</defs>
</svg>
