<svg width="16" height="16" viewBox="0 0 16 16" fill="none" xmlns="http://www.w3.org/2000/svg">
<g clip-path="url(#clip0_5_625)">
<path d="M11.0001 14.5001C11.0001 14.6327 10.9474 14.7599 10.8536 14.8537C10.7599 14.9475 10.6327 15.0001 10.5001 15.0001H5.50008C5.36747 15.0001 5.2403 14.9475 5.14653 14.8537C5.05276 14.7599 5.00008 14.6327 5.00008 14.5001C5.00008 14.3675 5.05276 14.2403 5.14653 14.1466C5.2403 14.0528 5.36747 14.0001 5.50008 14.0001H10.5001C10.6327 14.0001 10.7599 14.0528 10.8536 14.1466C10.9474 14.2403 11.0001 14.3675 11.0001 14.5001ZM13.5001 6.50013C13.5022 7.33366 13.3139 8.15666 12.9496 8.90633C12.5852 9.65599 12.0543 10.3125 11.3976 10.8258C11.2748 10.9199 11.1751 11.0408 11.1062 11.1794C11.0373 11.3179 11.001 11.4704 11.0001 11.6251V12.0001C11.0001 12.2653 10.8947 12.5197 10.7072 12.7072C10.5197 12.8948 10.2653 13.0001 10.0001 13.0001H6.00008C5.73487 13.0001 5.48051 12.8948 5.29298 12.7072C5.10544 12.5197 5.00008 12.2653 5.00008 12.0001V11.6251C4.99998 11.4723 4.96483 11.3214 4.89733 11.1843C4.82983 11.0471 4.73177 10.9272 4.61071 10.8339C3.95558 10.3237 3.42511 9.6711 3.05944 8.92558C2.69378 8.18006 2.5025 7.36112 2.50008 6.53076C2.48383 3.55201 4.89133 1.07138 7.86758 1.00013C8.60092 0.982459 9.33039 1.11166 10.0131 1.38014C10.6957 1.64862 11.3178 2.05095 11.8426 2.56344C12.3674 3.07593 12.7845 3.68824 13.0691 4.36431C13.3538 5.04039 13.5003 5.76658 13.5001 6.50013ZM10.3538 6.64638C10.3074 6.59989 10.2523 6.56301 10.1916 6.53785C10.1309 6.51269 10.0658 6.49974 10.0001 6.49974C9.93437 6.49974 9.86931 6.51269 9.80861 6.53785C9.74791 6.56301 9.69277 6.59989 9.64633 6.64638L8.00008 8.29326L6.35383 6.64638C6.26001 6.55256 6.13276 6.49985 6.00008 6.49985C5.8674 6.49985 5.74015 6.55256 5.64633 6.64638C5.55251 6.7402 5.4998 6.86745 5.4998 7.00013C5.4998 7.13281 5.55251 7.26006 5.64633 7.35388L7.50008 9.20701V11.5001C7.50008 11.6327 7.55276 11.7599 7.64653 11.8537C7.7403 11.9475 7.86747 12.0001 8.00008 12.0001C8.13269 12.0001 8.25987 11.9475 8.35364 11.8537C8.4474 11.7599 8.50008 11.6327 8.50008 11.5001V9.20701L10.3538 7.35388C10.4003 7.30745 10.4372 7.2523 10.4624 7.1916C10.4875 7.1309 10.5005 7.06584 10.5005 7.00013C10.5005 6.93442 10.4875 6.86936 10.4624 6.80866C10.4372 6.74796 10.4003 6.69282 10.3538 6.64638Z" fill="black"/>
</g>
<defs>
<clipPath id="clip0_5_625">
<rect width="16" height="16" fill="white"/>
</clipPath>
</defs>
</svg>
