<svg width="16" height="16" viewBox="0 0 16 16" fill="none" xmlns="http://www.w3.org/2000/svg">
<g clip-path="url(#clip0_5_932)">
<path d="M13.2383 5.23688C12.9717 5.50341 12.6263 5.67677 12.2533 5.73116C11.8804 5.78555 11.4998 5.71807 11.1683 5.53876L5.53888 11.1681C5.69325 11.4536 5.76519 11.7764 5.74666 12.1004C5.72812 12.4245 5.61985 12.7369 5.43393 13.003C5.24801 13.269 4.99178 13.4781 4.69387 13.6069C4.39596 13.7356 4.06811 13.779 3.74695 13.7322C3.4258 13.6853 3.12399 13.5501 2.87527 13.3416C2.62655 13.1331 2.44071 12.8596 2.33852 12.5515C2.23633 12.2435 2.22182 11.9131 2.2966 11.5973C2.37139 11.2814 2.53253 10.9926 2.76201 10.7631C3.02852 10.4966 3.37397 10.3232 3.74694 10.2689C4.11991 10.2145 4.50047 10.2819 4.83201 10.4613L10.4614 4.83188C10.307 4.54639 10.2351 4.2236 10.2536 3.89958C10.2721 3.57555 10.3804 3.26307 10.5663 2.99704C10.7523 2.73102 11.0085 2.52194 11.3064 2.39316C11.6043 2.26439 11.9322 2.22099 12.2533 2.26783C12.5745 2.31467 12.8763 2.4499 13.125 2.6584C13.3737 2.8669 13.5596 3.14046 13.6617 3.4485C13.7639 3.75655 13.7784 4.08694 13.7037 4.40276C13.6289 4.71858 13.4677 5.00738 13.2383 5.23688Z" fill="black"/>
</g>
<defs>
<clipPath id="clip0_5_932">
<rect width="16" height="16" fill="white"/>
</clipPath>
</defs>
</svg>
