<svg width="16" height="16" viewBox="0 0 16 16" fill="none" xmlns="http://www.w3.org/2000/svg">
<g clip-path="url(#clip0_5_930)">
<path d="M14.7382 4.73704C14.5758 4.89998 14.3829 5.0292 14.1704 5.11726C13.9579 5.20532 13.7301 5.25049 13.5001 5.25017C13.381 5.24996 13.2623 5.23782 13.1457 5.21392L11.2351 8.76204C11.4646 8.9915 11.6258 9.28027 11.7006 9.59607C11.7754 9.91186 11.761 10.2423 11.6589 10.5503C11.5567 10.8584 11.371 11.132 11.1223 11.3405C10.8736 11.5491 10.5719 11.6843 10.2507 11.7313C9.92958 11.7782 9.60172 11.7348 9.30379 11.6061C9.00585 11.4774 8.74958 11.2684 8.5636 11.0024C8.37762 10.7365 8.26927 10.424 8.25066 10.1C8.23204 9.776 8.30389 9.45319 8.45818 9.16767L6.82943 7.53892C6.57465 7.67672 6.28972 7.7493 6.00006 7.75017C5.88102 7.74999 5.7623 7.73785 5.64568 7.71392L3.73506 11.2614C3.97978 11.5062 4.14644 11.818 4.21395 12.1574C4.28146 12.4969 4.24679 12.8488 4.11433 13.1685C3.98187 13.4883 3.75757 13.7616 3.46979 13.9539C3.18201 14.1462 2.84367 14.2488 2.49756 14.2488C2.15145 14.2488 1.81311 14.1462 1.52533 13.9539C1.23755 13.7616 1.01325 13.4883 0.880787 13.1685C0.748329 12.8488 0.713662 12.4969 0.781172 12.1574C0.848682 11.818 1.01534 11.5062 1.26006 11.2614C1.46521 11.0564 1.71809 10.9057 1.99596 10.8227C2.27382 10.7396 2.56796 10.727 2.85193 10.7858L4.76256 7.23767C4.43491 6.90904 4.25091 6.46391 4.25091 5.99986C4.25091 5.5358 4.43491 5.09067 4.76256 4.76204C5.05978 4.46464 5.45414 4.28419 5.8735 4.25371C6.29286 4.22323 6.70917 4.34475 7.04628 4.59604C7.38338 4.84733 7.61874 5.2116 7.7093 5.62219C7.79986 6.03279 7.73956 6.46226 7.53943 6.83204L9.16818 8.46079C9.53141 8.26544 9.9518 8.20415 10.3557 8.28767L12.2663 4.73954C12.1038 4.57704 11.9749 4.38411 11.8869 4.17178C11.799 3.95945 11.7537 3.73187 11.7537 3.50204C11.7537 3.27221 11.799 3.04464 11.8869 2.83231C11.9749 2.61997 12.1038 2.42705 12.2663 2.26454C12.5945 1.93634 13.0397 1.75195 13.5038 1.75195C13.968 1.75195 14.4131 1.93634 14.7413 2.26454C15.0695 2.59275 15.2539 3.03789 15.2539 3.50204C15.2539 3.96619 15.0695 4.41134 14.7413 4.73954L14.7382 4.73704Z" fill="black"/>
</g>
<defs>
<clipPath id="clip0_5_930">
<rect width="16" height="16" fill="white"/>
</clipPath>
</defs>
</svg>
