<svg width="16" height="16" viewBox="0 0 16 16" fill="none" xmlns="http://www.w3.org/2000/svg">
<g clip-path="url(#clip0_5_1597)">
<path d="M14.3537 13.6461L11.225 10.5173C12.1336 9.4276 12.5871 8.02951 12.4912 6.61392C12.3952 5.19833 11.7572 3.87423 10.7098 2.91707C9.66247 1.95992 8.28641 1.44341 6.86793 1.475C5.44944 1.50659 4.09774 2.08384 3.09402 3.08667C2.09031 4.0895 1.51186 5.44069 1.47902 6.85915C1.44618 8.27761 1.96147 9.65412 2.9177 10.7023C3.87392 11.7505 5.19746 12.3897 6.61297 12.4869C8.02847 12.5841 9.42696 12.1319 10.5175 11.2242L13.6462 14.3536C13.6927 14.4 13.7479 14.4369 13.8086 14.462C13.8692 14.4872 13.9343 14.5001 14 14.5001C14.0657 14.5001 14.1308 14.4872 14.1914 14.462C14.2521 14.4369 14.3073 14.4 14.3537 14.3536C14.4002 14.3071 14.4371 14.252 14.4622 14.1913C14.4873 14.1306 14.5003 14.0655 14.5003 13.9998C14.5003 13.9341 14.4873 13.8691 14.4622 13.8084C14.4371 13.7477 14.4002 13.6925 14.3537 13.6461ZM9 7.49984H7.5V8.99984C7.5 9.13244 7.44732 9.25962 7.35355 9.35339C7.25978 9.44716 7.13261 9.49984 7 9.49984C6.86739 9.49984 6.74021 9.44716 6.64645 9.35339C6.55268 9.25962 6.5 9.13244 6.5 8.99984V7.49984H5C4.86739 7.49984 4.74021 7.44716 4.64645 7.35339C4.55268 7.25962 4.5 7.13244 4.5 6.99984C4.5 6.86723 4.55268 6.74005 4.64645 6.64628C4.74021 6.55251 4.86739 6.49984 5 6.49984H6.5V4.99984C6.5 4.86723 6.55268 4.74005 6.64645 4.64628C6.74021 4.55251 6.86739 4.49984 7 4.49984C7.13261 4.49984 7.25978 4.55251 7.35355 4.64628C7.44732 4.74005 7.5 4.86723 7.5 4.99984V6.49984H9C9.13261 6.49984 9.25978 6.55251 9.35355 6.64628C9.44732 6.74005 9.5 6.86723 9.5 6.99984C9.5 7.13244 9.44732 7.25962 9.35355 7.35339C9.25978 7.44716 9.13261 7.49984 9 7.49984Z" fill="black"/>
</g>
<defs>
<clipPath id="clip0_5_1597">
<rect width="16" height="16" fill="white"/>
</clipPath>
</defs>
</svg>
