<svg width="16" height="16" viewBox="0 0 16 16" fill="none" xmlns="http://www.w3.org/2000/svg">
<g clip-path="url(#clip0_5_1656)">
<path d="M14 13.4999C14 13.6325 13.9473 13.7596 13.8536 13.8534C13.7598 13.9472 13.6326 13.9999 13.5 13.9999H2.5C2.36739 13.9999 2.24021 13.9472 2.14645 13.8534C2.05268 13.7596 2 13.6325 2 13.4999C2 13.3673 2.05268 13.2401 2.14645 13.1463C2.24021 13.0525 2.36739 12.9999 2.5 12.9999H7.5V8.46361C6.62421 8.3372 5.8288 7.88376 5.27385 7.19453C4.71891 6.50531 4.44562 5.63147 4.50899 4.74887C4.57235 3.86627 4.96767 3.04043 5.61539 2.43755C6.2631 1.83468 7.11513 1.49951 8 1.49951C8.88487 1.49951 9.7369 1.83468 10.3846 2.43755C11.0323 3.04043 11.4276 3.86627 11.491 4.74887C11.5544 5.63147 11.2811 6.50531 10.7261 7.19453C10.1712 7.88376 9.37579 8.3372 8.5 8.46361V12.9999H13.5C13.6326 12.9999 13.7598 13.0525 13.8536 13.1463C13.9473 13.2401 14 13.3673 14 13.4999Z" fill="black"/>
</g>
<defs>
<clipPath id="clip0_5_1656">
<rect width="16" height="16" fill="white"/>
</clipPath>
</defs>
</svg>
