<svg width="16" height="16" viewBox="0 0 16 16" fill="none" xmlns="http://www.w3.org/2000/svg">
<g clip-path="url(#clip0_5_1587)">
<path d="M14.8537 2.85375C14.9237 2.78382 14.9713 2.6947 14.9907 2.59765C15.01 2.50061 15.0001 2.40002 14.9622 2.30861C14.9243 2.21719 14.8602 2.13908 14.7779 2.08414C14.6956 2.0292 14.5989 1.99992 14.4999 2H1.49991C1.40096 1.99992 1.30421 2.0292 1.22191 2.08414C1.13962 2.13908 1.07547 2.21719 1.03759 2.30861C0.999718 2.40002 0.989816 2.50061 1.00914 2.59765C1.02847 2.6947 1.07615 2.78382 1.14616 2.85375L7.49991 9.20687V13H5.49991C5.3673 13 5.24012 13.0527 5.14635 13.1464C5.05258 13.2402 4.99991 13.3674 4.99991 13.5C4.99991 13.6326 5.05258 13.7598 5.14635 13.8536C5.24012 13.9473 5.3673 14 5.49991 14H10.4999C10.6325 14 10.7597 13.9473 10.8535 13.8536C10.9472 13.7598 10.9999 13.6326 10.9999 13.5C10.9999 13.3674 10.9472 13.2402 10.8535 13.1464C10.7597 13.0527 10.6325 13 10.4999 13H8.49991V9.20687L14.8537 2.85375ZM13.2912 3L12.2912 4H3.70678L2.70678 3H13.2912Z" fill="black"/>
</g>
<defs>
<clipPath id="clip0_5_1587">
<rect width="16" height="16" fill="white"/>
</clipPath>
</defs>
</svg>
