<svg width="16" height="16" viewBox="0 0 16 16" fill="none" xmlns="http://www.w3.org/2000/svg">
<g clip-path="url(#clip0_5_1519)">
<path d="M13.5 5.99985C13.5006 5.07297 13.2669 4.16099 12.8206 3.34861C12.3744 2.53623 11.7301 1.8498 10.9475 1.35308C10.165 0.856355 9.26961 0.565451 8.34456 0.507386C7.4195 0.449321 6.49478 0.625979 5.65627 1.02095C4.81776 1.41592 4.09268 2.0164 3.54835 2.7666C3.00403 3.5168 2.65812 4.3924 2.54276 5.31207C2.42741 6.23174 2.54634 7.16564 2.88852 8.02704C3.2307 8.88844 3.78502 9.64939 4.5 10.2392V14.9998C4.49994 15.0851 4.52169 15.169 4.56318 15.2435C4.60467 15.318 4.66452 15.3806 4.73705 15.4255C4.80958 15.4703 4.89237 15.4959 4.97756 15.4997C5.06274 15.5035 5.14749 15.4855 5.22375 15.4473L8 14.0623L10.7769 15.4505C10.8465 15.4838 10.9228 15.5007 11 15.4998C11.1326 15.4998 11.2598 15.4472 11.3536 15.3534C11.4473 15.2596 11.5 15.1325 11.5 14.9998V10.2392C12.1256 9.72399 12.6293 9.07666 12.9751 8.34369C13.3209 7.61072 13.5002 6.81029 13.5 5.99985ZM3.5 5.99985C3.5 5.10983 3.76392 4.2398 4.25839 3.49978C4.75285 2.75976 5.45566 2.18298 6.27793 1.84239C7.10019 1.5018 8.00499 1.41268 8.87791 1.58631C9.75082 1.75995 10.5526 2.18853 11.182 2.81787C11.8113 3.4472 12.2399 4.24903 12.4135 5.12194C12.5872 5.99486 12.4981 6.89966 12.1575 7.72192C11.8169 8.54419 11.2401 9.24699 10.5001 9.74146C9.76005 10.2359 8.89002 10.4998 8 10.4998C6.80693 10.4985 5.66311 10.024 4.81948 9.18037C3.97586 8.33674 3.50132 7.19292 3.5 5.99985ZM4.5 5.99985C4.5 5.30761 4.70527 4.63092 5.08986 4.05535C5.47444 3.47978 6.02107 3.03118 6.66061 2.76627C7.30015 2.50136 8.00388 2.43205 8.68282 2.5671C9.36175 2.70215 9.98539 3.03549 10.4749 3.52497C10.9644 4.01446 11.2977 4.6381 11.4327 5.31703C11.5678 5.99597 11.4985 6.6997 11.2336 7.33924C10.9687 7.97878 10.5201 8.52541 9.9445 8.90999C9.36892 9.29458 8.69223 9.49985 8 9.49985C7.07205 9.49886 6.18239 9.12979 5.52622 8.47363C4.87006 7.81746 4.50099 6.9278 4.5 5.99985Z" fill="black"/>
</g>
<defs>
<clipPath id="clip0_5_1519">
<rect width="16" height="16" fill="white"/>
</clipPath>
</defs>
</svg>
