<svg width="16" height="16" viewBox="0 0 16 16" fill="none" xmlns="http://www.w3.org/2000/svg">
<g clip-path="url(#clip0_5_1488)">
<path d="M14.2837 5.41598L3.28 2.04098C3.13107 1.99754 2.97407 1.98935 2.82142 2.01705C2.66878 2.04476 2.52467 2.1076 2.4005 2.2006C2.27633 2.29361 2.1755 2.41423 2.10599 2.55292C2.03648 2.69162 2.00019 2.84459 2 2.99973V11.9997C2 12.2649 2.10536 12.5193 2.29289 12.7068C2.48043 12.8944 2.73478 12.9997 3 12.9997C3.09562 12.9998 3.19076 12.9861 3.2825 12.9591L8.5 11.3579V11.9997C8.5 12.2649 8.60536 12.5193 8.79289 12.7068C8.98043 12.8944 9.23478 12.9997 9.5 12.9997H11.5C11.7652 12.9997 12.0196 12.8944 12.2071 12.7068C12.3946 12.5193 12.5 12.2649 12.5 11.9997V10.131L14.2837 9.5841C14.4902 9.52207 14.6712 9.39535 14.8002 9.22262C14.9292 9.04989 14.9992 8.84029 15 8.62473V6.37473C14.9991 6.15927 14.929 5.94982 14.8 5.77721C14.6711 5.6046 14.4901 5.47797 14.2837 5.41598ZM11.5 11.9997H9.5V11.051L11.5 10.4372V11.9997ZM14 8.62473H13.9931L9.5 10.0047V4.9941L13.9931 6.37473H14V8.62473Z" fill="black"/>
</g>
<defs>
<clipPath id="clip0_5_1488">
<rect width="16" height="16" fill="white"/>
</clipPath>
</defs>
</svg>
