<svg width="16" height="16" viewBox="0 0 16 16" fill="none" xmlns="http://www.w3.org/2000/svg">
<g clip-path="url(#clip0_5_582)">
<path d="M12.5 4.50022H10.0125C9.83062 4.48959 6.66125 4.26647 3.64313 1.73522C3.49738 1.61281 3.31973 1.53454 3.13104 1.5096C2.94236 1.48466 2.75047 1.51408 2.57793 1.59442C2.40538 1.67475 2.25935 1.80265 2.15697 1.9631C2.0546 2.12355 2.00014 2.30989 2 2.50022V12.5002C2.00003 12.6906 2.0544 12.877 2.15672 13.0376C2.25905 13.1981 2.40508 13.3261 2.57764 13.4065C2.75021 13.4869 2.94214 13.5164 3.13089 13.4915C3.31963 13.4666 3.49734 13.3883 3.64313 13.2658C6.00375 11.2858 8.45563 10.7183 9.5 10.5596V12.5421C9.49979 12.7069 9.5403 12.8692 9.61794 13.0145C9.69558 13.1599 9.80793 13.2838 9.945 13.3752L10.6325 13.8333C10.7654 13.922 10.9176 13.9776 11.0764 13.9954C11.2351 14.0132 11.3959 13.9926 11.5451 13.9355C11.6943 13.8784 11.8276 13.7864 11.934 13.6672C12.0403 13.5479 12.1165 13.405 12.1562 13.2502L12.8919 10.4777C13.6523 10.3843 14.3482 10.0034 14.8368 9.41329C15.3255 8.82313 15.5698 8.06839 15.5196 7.30385C15.4695 6.53931 15.1288 5.82292 14.5673 5.30161C14.0058 4.78029 13.2661 4.49356 12.5 4.50022ZM11.1875 12.9933V13.0002L10.5 12.5421V10.5002H11.85L11.1875 12.9933ZM12.5 9.50022H10.5V5.50022H12.5C13.0304 5.50022 13.5391 5.71093 13.9142 6.086C14.2893 6.46108 14.5 6.96978 14.5 7.50022C14.5 8.03065 14.2893 8.53936 13.9142 8.91443C13.5391 9.2895 13.0304 9.50022 12.5 9.50022Z" fill="black"/>
</g>
<defs>
<clipPath id="clip0_5_582">
<rect width="16" height="16" fill="white"/>
</clipPath>
</defs>
</svg>
