<svg width="16" height="16" viewBox="0 0 16 16" fill="none" xmlns="http://www.w3.org/2000/svg">
<g clip-path="url(#clip0_5_578)">
<path d="M8.50003 10.0003C8.50003 10.4947 8.35341 10.9781 8.07871 11.3892C7.804 11.8003 7.41356 12.1208 6.95674 12.31C6.49993 12.4992 5.99726 12.5487 5.51231 12.4522C5.02736 12.3558 4.5819 12.1177 4.23227 11.768C3.88264 11.4184 3.64453 10.973 3.54807 10.488C3.45161 10.0031 3.50112 9.50039 3.69034 9.04357C3.87955 8.58675 4.19999 8.19631 4.61111 7.9216C5.02223 7.6469 5.50558 7.50028 6.00003 7.50028C6.66307 7.50028 7.29896 7.76367 7.7678 8.23251C8.23664 8.70135 8.50003 9.33724 8.50003 10.0003ZM13.1463 7.64653L10.1463 10.6465C10.0525 10.7403 9.99976 10.8676 9.99976 11.0003C9.99976 11.133 10.0525 11.2602 10.1463 11.354C10.2401 11.4478 10.3674 11.5006 10.5 11.5006C10.6327 11.5006 10.76 11.4478 10.8538 11.354L13.8538 8.35403C13.9002 8.30757 13.9371 8.25242 13.9622 8.19173C13.9874 8.13103 14.0003 8.06598 14.0003 8.00028C14.0003 7.93458 13.9874 7.86953 13.9622 7.80883C13.9371 7.74813 13.9002 7.69298 13.8538 7.64653C13.8073 7.60007 13.7522 7.56322 13.6915 7.53808C13.6308 7.51294 13.5657 7.5 13.5 7.5C13.4343 7.5 13.3693 7.51294 13.3086 7.53808C13.2479 7.56322 13.1927 7.60007 13.1463 7.64653ZM11.8538 6.85403C11.9002 6.80757 11.9371 6.75242 11.9622 6.69173C11.9874 6.63103 12.0003 6.56598 12.0003 6.50028C12.0003 6.43458 11.9874 6.36953 11.9622 6.30883C11.9371 6.24813 11.9002 6.19298 11.8538 6.14653C11.8073 6.10007 11.7522 6.06322 11.6915 6.03808C11.6308 6.01294 11.5657 6 11.5 6C11.4343 6 11.3693 6.01294 11.3086 6.03808C11.2479 6.06322 11.1927 6.10007 11.1463 6.14653L9.64628 7.64653C9.55246 7.74035 9.49976 7.8676 9.49976 8.00028C9.49976 8.13296 9.55246 8.26021 9.64628 8.35403C9.7401 8.44785 9.86735 8.50056 10 8.50056C10.1327 8.50056 10.26 8.44785 10.3538 8.35403L11.8538 6.85403ZM14.3538 3.64653C14.3073 3.60004 14.2522 3.56316 14.1915 3.538C14.1308 3.51284 14.0657 3.49988 14 3.49988C13.9343 3.49988 13.8693 3.51284 13.8086 3.538C13.7479 3.56316 13.6927 3.60004 13.6463 3.64653L12.6463 4.64653C12.5525 4.74035 12.4998 4.8676 12.4998 5.00028C12.4998 5.13296 12.5525 5.26021 12.6463 5.35403C12.7401 5.44785 12.8674 5.50056 13 5.50056C13.1327 5.50056 13.26 5.44785 13.3538 5.35403L14.3538 4.35403C14.4003 4.30759 14.4372 4.25245 14.4623 4.19175C14.4875 4.13105 14.5004 4.06599 14.5004 4.00028C14.5004 3.93457 14.4875 3.86951 14.4623 3.80881C14.4372 3.74811 14.4003 3.69296 14.3538 3.64653ZM7.64628 6.35403C7.69272 6.40052 7.74786 6.4374 7.80856 6.46256C7.86926 6.48772 7.93433 6.50067 8.00003 6.50067C8.06574 6.50067 8.13081 6.48772 8.1915 6.46256C8.2522 6.4374 8.30735 6.40052 8.35378 6.35403L12.8538 1.85403C12.9002 1.80757 12.9371 1.75242 12.9622 1.69173C12.9874 1.63103 13.0003 1.56598 13.0003 1.50028C13.0003 1.43458 12.9874 1.36953 12.9622 1.30883C12.9371 1.24813 12.9002 1.19298 12.8538 1.14653C12.8073 1.10007 12.7522 1.06322 12.6915 1.03808C12.6308 1.01294 12.5657 1 12.5 1C12.4343 1 12.3693 1.01294 12.3086 1.03808C12.2479 1.06322 12.1927 1.10007 12.1463 1.14653L7.64628 5.64653C7.5998 5.69296 7.56292 5.74811 7.53775 5.80881C7.51259 5.86951 7.49964 5.93457 7.49964 6.00028C7.49964 6.06599 7.51259 6.13105 7.53775 6.19175C7.56292 6.25245 7.5998 6.30759 7.64628 6.35403ZM8.47503 12.4753C7.81862 13.1317 6.92834 13.5005 6.00003 13.5005C5.07173 13.5005 4.18145 13.1317 3.52503 12.4753C2.86862 11.8189 2.49986 10.9286 2.49986 10.0003C2.49986 9.07197 2.86862 8.18169 3.52503 7.52528L8.69691 2.35403C8.74336 2.30757 8.78021 2.25242 8.80536 2.19173C8.8305 2.13103 8.84344 2.06598 8.84344 2.00028C8.84344 1.93458 8.8305 1.86953 8.80536 1.80883C8.78021 1.74813 8.74336 1.69298 8.69691 1.64653C8.65045 1.60007 8.5953 1.56322 8.53461 1.53808C8.47391 1.51294 8.40886 1.5 8.34316 1.5C8.27746 1.5 8.21241 1.51294 8.15171 1.53808C8.09101 1.56322 8.03586 1.60007 7.98941 1.64653L2.81816 6.8184C2.39471 7.23501 2.05793 7.73134 1.82726 8.27875C1.59658 8.82617 1.47658 9.41384 1.47416 10.0079C1.47174 10.6019 1.58696 11.1905 1.81317 11.7398C2.03937 12.2891 2.3721 12.7881 2.79214 13.2082C3.21218 13.6282 3.71124 13.9609 4.26051 14.1871C4.80979 14.4134 5.39842 14.5286 5.99244 14.5262C6.58647 14.5237 7.17414 14.4037 7.72156 14.1731C8.26897 13.9424 8.7653 13.6056 9.18191 13.1822C9.27172 13.0876 9.32105 12.9617 9.31938 12.8314C9.31771 12.701 9.26517 12.5764 9.17297 12.4842C9.08077 12.392 8.9562 12.3395 8.82582 12.3378C8.69544 12.3361 8.56957 12.3855 8.47503 12.4753Z" fill="black"/>
</g>
<defs>
<clipPath id="clip0_5_578">
<rect width="16" height="16" fill="white"/>
</clipPath>
</defs>
</svg>
