<svg width="16" height="16" viewBox="0 0 16 16" fill="none" xmlns="http://www.w3.org/2000/svg">
<g clip-path="url(#clip0_5_571)">
<path d="M13.7037 5.00017H13.2306C13.4075 4.69661 13.5004 4.35149 13.5 4.00017C13.5002 3.66171 13.4145 3.32874 13.2509 3.03244C13.0873 2.73614 12.8512 2.4862 12.5646 2.30603C12.2781 2.12586 11.9506 2.02135 11.6126 2.00229C11.2747 1.98323 10.9375 2.05024 10.6325 2.19705C10.3255 1.69591 9.8518 1.31893 9.29453 1.13232C8.73725 0.945703 8.13205 0.961377 7.58518 1.17659C7.03831 1.3918 6.58474 1.79279 6.30411 2.30915C6.02348 2.82551 5.93373 3.42423 6.05062 4.00017H2.5C2.23478 4.00017 1.98043 4.10553 1.79289 4.29307C1.60536 4.4806 1.5 4.73496 1.5 5.00017V11.0002C1.5 11.2654 1.60536 11.5197 1.79289 11.7073C1.98043 11.8948 2.23478 12.0002 2.5 12.0002H4.79187C5.09119 12.7392 5.60456 13.372 6.26607 13.8171C6.92758 14.2623 7.70705 14.4997 8.50441 14.4986C9.30178 14.4976 10.0806 14.2584 10.741 13.8115C11.4014 13.3646 11.9132 12.7306 12.2106 11.9908C12.8349 11.938 13.4166 11.6528 13.8406 11.1915C14.2645 10.7303 14.4999 10.1267 14.5 9.50017V5.79642C14.4997 5.58535 14.4157 5.38301 14.2664 5.23376C14.1172 5.0845 13.9148 5.0005 13.7037 5.00017ZM8.5 2.00017C8.81031 2.00015 9.113 2.09638 9.36633 2.27558C9.61967 2.45478 9.8112 2.70814 9.91452 3.00075C10.0178 3.29336 10.0279 3.61081 9.94321 3.90936C9.85856 4.2079 9.6834 4.47284 9.44188 4.66767C9.37314 4.4727 9.24566 4.30382 9.07698 4.18429C8.90831 4.06475 8.70674 4.00043 8.5 4.00017H7.08625C7.00627 3.77396 6.98173 3.53187 7.01467 3.29421C7.04762 3.05655 7.13709 2.83026 7.27558 2.63434C7.41408 2.43841 7.59755 2.27857 7.8106 2.16822C8.02365 2.05788 8.26007 2.00025 8.5 2.00017ZM5.5 10.0002C5.36739 10.0002 5.24021 9.9475 5.14645 9.85373C5.05268 9.75996 5 9.63278 5 9.50017V7.00017H4.5C4.36739 7.00017 4.24021 6.9475 4.14645 6.85373C4.05268 6.75996 4 6.63278 4 6.50017C4 6.36757 4.05268 6.24039 4.14645 6.14662C4.24021 6.05285 4.36739 6.00017 4.5 6.00017H6.5C6.63261 6.00017 6.75979 6.05285 6.85355 6.14662C6.94732 6.24039 7 6.36757 7 6.50017C7 6.63278 6.94732 6.75996 6.85355 6.85373C6.75979 6.9475 6.63261 7.00017 6.5 7.00017H6V9.50017C6 9.63278 5.94732 9.75996 5.85355 9.85373C5.75979 9.9475 5.63261 10.0002 5.5 10.0002ZM11.5 10.5002C11.4998 11.1604 11.2818 11.8021 10.8798 12.3258C10.4778 12.8496 9.91425 13.226 9.27653 13.3969C8.63881 13.5678 7.96253 13.5236 7.35252 13.271C6.7425 13.0185 6.23283 12.5718 5.9025 12.0002H8.5C8.76522 12.0002 9.01957 11.8948 9.20711 11.7073C9.39464 11.5197 9.5 11.2654 9.5 11.0002V6.00017H11.5V10.5002ZM11.5 5.00017H10.5C10.6969 4.73817 10.8402 4.43991 10.9217 4.12246C11.0032 3.80502 11.0213 3.47462 10.975 3.15017C11.1066 3.06864 11.2553 3.01876 11.4094 3.00445C11.5635 2.99015 11.7188 3.01182 11.8632 3.06775C12.0075 3.12369 12.1368 3.21236 12.2411 3.32678C12.3453 3.44121 12.4215 3.57827 12.4638 3.72717C12.506 3.87607 12.5132 4.03275 12.4846 4.18487C12.456 4.33699 12.3925 4.48039 12.2991 4.60379C12.2056 4.7272 12.0848 4.82723 11.9462 4.89601C11.8075 4.96479 11.6548 5.00045 11.5 5.00017ZM13.5 9.50017C13.5 9.81441 13.4013 10.1207 13.2178 10.3758C13.0343 10.631 12.7754 10.822 12.4775 10.922C12.4926 10.7819 12.5001 10.6411 12.5 10.5002V6.00017H13.5V9.50017Z" fill="black"/>
</g>
<defs>
<clipPath id="clip0_5_571">
<rect width="16" height="16" fill="white"/>
</clipPath>
</defs>
</svg>
