<svg width="16" height="16" viewBox="0 0 16 16" fill="none" xmlns="http://www.w3.org/2000/svg">
<g clip-path="url(#clip0_5_1545)">
<path d="M13.3361 14.3701C13.238 14.4593 13.1085 14.5058 12.976 14.4995C12.8436 14.4931 12.7191 14.4345 12.6299 14.3363L10.6974 12.2113C10.0363 12.6375 9.28279 12.8991 8.49988 12.9745V15.0001C8.49988 15.1327 8.4472 15.2599 8.35343 15.3536C8.25966 15.4474 8.13248 15.5001 7.99988 15.5001C7.86727 15.5001 7.74009 15.4474 7.64632 15.3536C7.55255 15.2599 7.49988 15.1327 7.49988 15.0001V12.9751C6.26715 12.8497 5.12473 12.2716 4.29353 11.3526C3.46233 10.4337 3.0014 9.23918 2.99988 8.00009C2.99988 7.86749 3.05255 7.74031 3.14632 7.64654C3.24009 7.55277 3.36727 7.50009 3.49988 7.50009C3.63248 7.50009 3.75966 7.55277 3.85343 7.64654C3.9472 7.74031 3.99988 7.86749 3.99988 8.00009C4.00103 9.0606 4.42283 10.0773 5.17273 10.8272C5.92262 11.5771 6.93936 11.9989 7.99988 12.0001C8.70731 12.0022 9.40241 11.8149 10.013 11.4576L9.31925 10.6951C8.86182 10.9191 8.3549 11.0229 7.84624 10.9969C7.33759 10.9708 6.84395 10.8156 6.41183 10.546C5.97972 10.2764 5.62336 9.90121 5.37634 9.4558C5.12931 9.01039 4.99976 8.50942 4.99988 8.00009V5.94322L2.62988 3.33634C2.54256 3.23792 2.49756 3.10905 2.50463 2.97767C2.5117 2.84629 2.57026 2.72299 2.66763 2.6345C2.765 2.54602 2.89332 2.49947 3.02478 2.50497C3.15623 2.51046 3.28023 2.56754 3.36987 2.66384L13.3699 13.6638C13.459 13.762 13.5056 13.8915 13.4993 14.024C13.4929 14.1564 13.4342 14.2809 13.3361 14.3701ZM11.8243 10.4245C11.8924 10.4583 11.9675 10.4758 12.0436 10.4757C12.1373 10.4757 12.2291 10.4494 12.3085 10.3998C12.388 10.3502 12.4519 10.2793 12.493 10.1951C12.8285 9.51214 13.002 8.761 12.9999 8.00009C12.9999 7.86749 12.9472 7.74031 12.8534 7.64654C12.7597 7.55277 12.6325 7.50009 12.4999 7.50009C12.3673 7.50009 12.2401 7.55277 12.1463 7.64654C12.0526 7.74031 11.9999 7.86749 11.9999 8.00009C12.0017 8.60866 11.8631 9.20943 11.5949 9.75572C11.5366 9.87482 11.5281 10.0122 11.5711 10.1376C11.6141 10.263 11.7052 10.3662 11.8243 10.4245ZM10.1161 8.59822C10.1811 8.66973 10.2654 8.72088 10.3588 8.74549C10.4522 8.7701 10.5508 8.76712 10.6426 8.73691C10.7343 8.70669 10.8154 8.65054 10.8759 8.57524C10.9364 8.49994 10.9738 8.40871 10.9836 8.31259C10.9943 8.20877 10.9997 8.10447 10.9999 8.00009V4.00009C10.9991 3.31106 10.7612 2.64329 10.3261 2.10902C9.89098 1.57474 9.28522 1.20652 8.61062 1.06625C7.93601 0.925974 7.23369 1.02219 6.62167 1.33874C6.00965 1.65528 5.52525 2.17285 5.24988 2.80447C5.21143 2.89275 5.19929 2.99026 5.21492 3.08528C5.23056 3.1803 5.27329 3.26878 5.338 3.34009L10.1161 8.59822Z" fill="black"/>
</g>
<defs>
<clipPath id="clip0_5_1545">
<rect width="16" height="16" fill="white"/>
</clipPath>
</defs>
</svg>
