<svg width="16" height="16" viewBox="0 0 16 16" fill="none" xmlns="http://www.w3.org/2000/svg">
<g clip-path="url(#clip0_5_575)">
<path d="M7.19132 2.89723C7.16547 2.87138 7.13428 2.85151 7.09993 2.83902C7.06558 2.82653 7.02891 2.82172 6.9925 2.82494C6.95609 2.82816 6.92083 2.83932 6.8892 2.85764C6.85757 2.87596 6.83035 2.901 6.80944 2.93098C6.28205 3.68369 5.99944 4.58064 6.00007 5.49973C6.00052 5.69662 6.01368 5.89328 6.03944 6.08848L1.69507 12.0135C1.55287 12.2058 1.48466 12.4429 1.5029 12.6814C1.52115 12.9198 1.62464 13.1438 1.79444 13.3122L2.68757 14.2054C2.85601 14.3752 3.07995 14.4786 3.31843 14.4969C3.55692 14.5151 3.794 14.4469 3.98632 14.3047L9.91194 9.9591C10.1069 9.98526 10.3034 9.99883 10.5001 9.99973C11.4188 10.0006 12.3155 9.71842 13.0682 9.1916C13.0982 9.1707 13.1232 9.14347 13.1415 9.11184C13.1598 9.08021 13.171 9.04495 13.1742 9.00854C13.1774 8.97214 13.1726 8.93546 13.1601 8.90111C13.1477 8.86676 13.1278 8.83557 13.1019 8.80973L7.19132 2.89723ZM7.35444 9.35223L6.35444 10.3522C6.30847 10.4006 6.25328 10.4393 6.19213 10.466C6.13097 10.4927 6.06508 10.5069 5.99835 10.5078C5.93162 10.5087 5.86539 10.4961 5.80357 10.471C5.74175 10.4459 5.68559 10.4086 5.6384 10.3614C5.59121 10.3142 5.55394 10.258 5.5288 10.1962C5.50365 10.1344 5.49114 10.0682 5.49199 10.0014C5.49285 9.93471 5.50705 9.86882 5.53377 9.80766C5.56049 9.74651 5.59918 9.69132 5.64757 9.64535L6.64757 8.64535C6.7421 8.55554 6.86797 8.50621 6.99835 8.50788C7.12873 8.50955 7.2533 8.56209 7.3455 8.65429C7.43771 8.74649 7.49024 8.87106 7.49191 9.00144C7.49358 9.13182 7.44425 9.2577 7.35444 9.35223ZM14.1919 8.06723C14.171 8.09731 14.1438 8.12244 14.1121 8.14083C14.0804 8.15921 14.0451 8.17041 14.0086 8.17363C13.9721 8.17685 13.9353 8.17201 13.9009 8.15946C13.8665 8.1469 13.8353 8.12694 13.8094 8.10098L7.89882 2.19035C7.87285 2.16451 7.85289 2.13327 7.84033 2.09886C7.82778 2.06445 7.82294 2.02769 7.82616 1.9912C7.82938 1.95471 7.84058 1.91937 7.85897 1.88769C7.87735 1.85601 7.90248 1.82875 7.93257 1.80785C8.79831 1.20375 9.84903 0.923593 10.9006 1.01646C11.9522 1.10932 12.9375 1.56929 13.684 2.31577C14.4305 3.06224 14.8905 4.0476 14.9833 5.09918C15.0762 6.15076 14.796 7.20148 14.1919 8.06723Z" fill="black"/>
</g>
<defs>
<clipPath id="clip0_5_575">
<rect width="16" height="16" fill="white"/>
</clipPath>
</defs>
</svg>
