<svg width="16" height="16" viewBox="0 0 16 16" fill="none" xmlns="http://www.w3.org/2000/svg">
<g clip-path="url(#clip0_5_1034)">
<path d="M13 2.50006H10.45C10.3352 1.93492 10.0286 1.42683 9.58213 1.06188C9.13562 0.696924 8.57668 0.497559 8 0.497559C7.42332 0.497559 6.86438 0.696924 6.41787 1.06188C5.97136 1.42683 5.66476 1.93492 5.55 2.50006H3C2.86739 2.50006 2.74021 2.55274 2.64645 2.64651C2.55268 2.74028 2.5 2.86746 2.5 3.00006C2.5 3.13267 2.55268 3.25985 2.64645 3.35362C2.74021 3.44739 2.86739 3.50006 3 3.50006H5.55C5.65839 4.02745 5.93415 4.50576 6.33625 4.86381C5.63985 5.18301 5.0496 5.69524 4.63551 6.33974C4.22142 6.98425 4.00087 7.734 4 8.50006V12.5001C4 12.7653 4.10536 13.0196 4.29289 13.2072C4.48043 13.3947 4.73478 13.5001 5 13.5001H6C6 14.0305 6.21071 14.5392 6.58579 14.9143C6.96086 15.2894 7.46957 15.5001 8 15.5001C8.53043 15.5001 9.03914 15.2894 9.41421 14.9143C9.78929 14.5392 10 14.0305 10 13.5001H11C11.2652 13.5001 11.5196 13.3947 11.7071 13.2072C11.8946 13.0196 12 12.7653 12 12.5001V8.50006C11.9991 7.734 11.7786 6.98425 11.3645 6.33974C10.9504 5.69524 10.3602 5.18301 9.66375 4.86381C10.0658 4.50576 10.3416 4.02745 10.45 3.50006H13C13.1326 3.50006 13.2598 3.44739 13.3536 3.35362C13.4473 3.25985 13.5 3.13267 13.5 3.00006C13.5 2.86746 13.4473 2.74028 13.3536 2.64651C13.2598 2.55274 13.1326 2.50006 13 2.50006ZM9 13.5001C9 13.7653 8.89464 14.0196 8.70711 14.2072C8.51957 14.3947 8.26522 14.5001 8 14.5001C7.73478 14.5001 7.48043 14.3947 7.29289 14.2072C7.10536 14.0196 7 13.7653 7 13.5001V10.5001C7 10.2348 7.10536 9.98049 7.29289 9.79296C7.48043 9.60542 7.73478 9.50006 8 9.50006C8.26522 9.50006 8.51957 9.60542 8.70711 9.79296C8.89464 9.98049 9 10.2348 9 10.5001V13.5001ZM8 4.50006C7.70333 4.50006 7.41332 4.41209 7.16664 4.24727C6.91997 4.08245 6.72771 3.84818 6.61418 3.57409C6.50065 3.3 6.47094 2.9984 6.52882 2.70743C6.5867 2.41646 6.72956 2.14918 6.93934 1.9394C7.14912 1.72963 7.41639 1.58676 7.70736 1.52889C7.99834 1.47101 8.29994 1.50071 8.57403 1.61425C8.84811 1.72778 9.08238 1.92004 9.2472 2.16671C9.41203 2.41338 9.5 2.70339 9.5 3.00006C9.5 3.39789 9.34196 3.77942 9.06066 4.06073C8.77936 4.34203 8.39782 4.50006 8 4.50006Z" fill="black"/>
</g>
<defs>
<clipPath id="clip0_5_1034">
<rect width="16" height="16" fill="white"/>
</clipPath>
</defs>
</svg>
