<svg width="16" height="16" viewBox="0 0 16 16" fill="none" xmlns="http://www.w3.org/2000/svg">
<g clip-path="url(#clip0_5_1453)">
<path d="M14 2.5H11C10.8674 2.5 10.7402 2.55268 10.6464 2.64645C10.5527 2.74021 10.5 2.86739 10.5 3C10.5 3.13261 10.5527 3.25979 10.6464 3.35355C10.7402 3.44732 10.8674 3.5 11 3.5H14C14.1326 3.5 14.2598 3.44732 14.3536 3.35355C14.4473 3.25979 14.5 3.13261 14.5 3C14.5 2.86739 14.4473 2.74021 14.3536 2.64645C14.2598 2.55268 14.1326 2.5 14 2.5Z" fill="black"/>
<path d="M10.133 4.78108C9.69373 4.57442 9.34605 4.21306 9.15648 3.76613C8.96691 3.31919 8.94877 2.81806 9.10552 2.35858C9.12024 2.31631 9.12334 2.27085 9.1145 2.22697C9.10565 2.18308 9.08518 2.14238 9.05523 2.10911C9.02528 2.07583 8.98695 2.05122 8.94423 2.03782C8.90151 2.02443 8.85598 2.02275 8.8124 2.03296L4.87865 3.01546C4.77058 3.04247 4.67463 3.1048 4.60601 3.19255C4.5374 3.28029 4.50005 3.38844 4.4999 3.49983V10.3811C4.20692 10.1847 3.87188 10.0599 3.52181 10.0169C3.17173 9.97379 2.81644 10.0136 2.4846 10.1332C2.15276 10.2527 1.85366 10.4485 1.61146 10.7049C1.36925 10.9613 1.19071 11.2711 1.09026 11.6092C0.989801 11.9473 0.970239 12.3043 1.03315 12.6513C1.09606 12.9984 1.23968 13.3258 1.45242 13.6071C1.66516 13.8885 1.94106 14.1158 2.25786 14.2709C2.57465 14.426 2.92346 14.5044 3.27615 14.4998C4.51552 14.4855 5.4999 13.4455 5.4999 12.2061V6.39046L10.0786 5.24608C10.1281 5.23387 10.1726 5.20687 10.2062 5.16869C10.2399 5.13051 10.261 5.08297 10.267 5.03243C10.2729 4.98188 10.2632 4.93073 10.2393 4.88582C10.2153 4.8409 10.1783 4.80437 10.133 4.78108Z" fill="black"/>
<path d="M13.2499 5H12.7499C12.6836 5 12.62 5.02634 12.5731 5.07322C12.5262 5.12011 12.4999 5.1837 12.4999 5.25V8.38125C12.2069 8.18486 11.8719 8.06009 11.5218 8.01702C11.1717 7.97396 10.8164 8.01379 10.4846 8.13332C10.1528 8.25284 9.85366 8.44871 9.61146 8.70511C9.36925 8.96151 9.19071 9.27126 9.09026 9.60936C8.9898 9.94747 8.97024 10.3044 9.03315 10.6515C9.09606 10.9986 9.23968 11.326 9.45242 11.6073C9.66516 11.8886 9.94106 12.116 10.2579 12.2711C10.5747 12.4261 10.9235 12.5046 11.2761 12.5C12.5155 12.4856 13.4999 11.4462 13.4999 10.2063V5.25C13.4999 5.1837 13.4736 5.12011 13.4267 5.07322C13.3798 5.02634 13.3162 5 13.2499 5Z" fill="black"/>
</g>
<defs>
<clipPath id="clip0_5_1453">
<rect width="16" height="16" fill="white"/>
</clipPath>
</defs>
</svg>
