<svg width="16" height="16" viewBox="0 0 16 16" fill="none" xmlns="http://www.w3.org/2000/svg">
<g clip-path="url(#clip0_5_562)">
<path d="M13.1438 3.52111L8.14375 2.02111C8.0691 1.9987 7.99025 1.99406 7.91348 2.00754C7.83672 2.02103 7.76417 2.05228 7.70162 2.09879C7.63908 2.1453 7.58828 2.20579 7.55327 2.27543C7.51827 2.34506 7.50002 2.42192 7.5 2.49986V9.26611C6.98794 8.80811 6.3342 8.53973 5.64804 8.50583C4.96188 8.47193 4.28487 8.67456 3.73016 9.07986C3.17545 9.48515 2.77664 10.0686 2.6004 10.7326C2.42416 11.3966 2.48115 12.1009 2.76186 12.728C3.04257 13.355 3.52998 13.8667 4.14264 14.1775C4.7553 14.4884 5.45608 14.5795 6.12787 14.4357C6.79965 14.292 7.40174 13.922 7.8335 13.3876C8.26526 12.8532 8.50053 12.1869 8.5 11.4999V6.17173L12.8563 7.47861C12.9309 7.50102 13.0098 7.50566 13.0865 7.49218C13.1633 7.47869 13.2358 7.44744 13.2984 7.40093C13.3609 7.35442 13.4117 7.29393 13.4467 7.22429C13.4817 7.15466 13.5 7.0778 13.5 6.99986V3.99986C13.5 3.89237 13.4653 3.78775 13.4011 3.70151C13.337 3.61527 13.2467 3.55201 13.1438 3.52111Z" fill="black"/>
</g>
<defs>
<clipPath id="clip0_5_562">
<rect width="16" height="16" fill="white"/>
</clipPath>
</defs>
</svg>
