<svg width="16" height="16" viewBox="0 0 16 16" fill="none" xmlns="http://www.w3.org/2000/svg">
<g clip-path="url(#clip0_5_1458)">
<path d="M13.1438 3.52111L8.14375 2.02111C8.0691 1.9987 7.99025 1.99406 7.91348 2.00754C7.83672 2.02103 7.76417 2.05228 7.70162 2.09879C7.63908 2.1453 7.58828 2.20579 7.55327 2.27543C7.51827 2.34506 7.50002 2.42192 7.5 2.49986V9.26611C6.98794 8.80811 6.3342 8.53973 5.64804 8.50583C4.96188 8.47193 4.28487 8.67456 3.73016 9.07986C3.17545 9.48515 2.77664 10.0686 2.6004 10.7326C2.42416 11.3966 2.48115 12.1009 2.76186 12.728C3.04257 13.355 3.52998 13.8667 4.14264 14.1775C4.7553 14.4884 5.45608 14.5795 6.12787 14.4357C6.79965 14.292 7.40174 13.922 7.8335 13.3876C8.26526 12.8532 8.50053 12.1869 8.5 11.4999V3.17173L12.8563 4.47861C12.9196 4.49925 12.9865 4.50701 13.0529 4.50145C13.1193 4.49588 13.1839 4.4771 13.2429 4.4462C13.302 4.41531 13.3542 4.37292 13.3967 4.32154C13.4391 4.27015 13.4708 4.2108 13.49 4.14698C13.5091 4.08316 13.5154 4.01615 13.5083 3.9499C13.5012 3.88364 13.4809 3.81947 13.4486 3.76116C13.4164 3.70285 13.3728 3.65158 13.3204 3.61035C13.2681 3.56913 13.208 3.53879 13.1438 3.52111Z" fill="black"/>
</g>
<defs>
<clipPath id="clip0_5_1458">
<rect width="16" height="16" fill="white"/>
</clipPath>
</defs>
</svg>
