<svg width="16" height="16" viewBox="0 0 16 16" fill="none" xmlns="http://www.w3.org/2000/svg">
<g clip-path="url(#clip0_5_1451)">
<path d="M14.4999 3C14.4999 3.13261 14.4472 3.25979 14.3534 3.35355C14.2597 3.44732 14.1325 3.5 13.9999 3.5H12.9999V4.5C12.9999 4.63261 12.9472 4.75979 12.8534 4.85355C12.7597 4.94732 12.6325 5 12.4999 5C12.3673 5 12.2401 4.94732 12.1463 4.85355C12.0526 4.75979 11.9999 4.63261 11.9999 4.5V3.5H10.9999C10.8673 3.5 10.7401 3.44732 10.6463 3.35355C10.5526 3.25979 10.4999 3.13261 10.4999 3C10.4999 2.86739 10.5526 2.74021 10.6463 2.64645C10.7401 2.55268 10.8673 2.5 10.9999 2.5H11.9999V1.5C11.9999 1.36739 12.0526 1.24021 12.1463 1.14645C12.2401 1.05268 12.3673 1 12.4999 1C12.6325 1 12.7597 1.05268 12.8534 1.14645C12.9472 1.24021 12.9999 1.36739 12.9999 1.5V2.5H13.9999C14.1325 2.5 14.2597 2.55268 14.3534 2.64645C14.4472 2.74021 14.4999 2.86739 14.4999 3ZM10.0374 4.86625L9.6149 4.44375C9.24639 4.08347 9.02686 3.59778 8.9999 3.08313C8.98911 2.83583 9.0245 2.5887 9.10427 2.35437C9.11833 2.31192 9.12075 2.26648 9.11127 2.22278C9.10179 2.17908 9.08076 2.13872 9.05038 2.10591C9.01999 2.0731 8.98136 2.04904 8.93852 2.03624C8.89567 2.02344 8.85017 2.02236 8.80677 2.03312L4.87865 3.01562C4.77058 3.04264 4.67463 3.10496 4.60601 3.19271C4.5374 3.28046 4.50005 3.38861 4.4999 3.5V10.3813C4.20692 10.1849 3.87188 10.0601 3.52181 10.017C3.17173 9.97396 2.81644 10.0138 2.4846 10.1333C2.15276 10.2528 1.85366 10.4487 1.61146 10.7051C1.36925 10.9615 1.19071 11.2713 1.09026 11.6094C0.989801 11.9475 0.970239 12.3044 1.03315 12.6515C1.09606 12.9986 1.23968 13.326 1.45242 13.6073C1.66516 13.8886 1.94106 14.116 2.25786 14.2711C2.57465 14.4261 2.92346 14.5046 3.27615 14.5C4.51552 14.4856 5.4999 13.4456 5.4999 12.2063V6.39062L9.92115 5.285C9.96396 5.27423 10.0032 5.25231 10.0348 5.22147C10.0664 5.19063 10.0892 5.15197 10.101 5.10943C10.1128 5.06689 10.1132 5.02197 10.102 4.97926C10.0908 4.93655 10.0685 4.89755 10.0374 4.86625ZM13.1693 6.38562C13.0249 6.4366 12.8752 6.47078 12.723 6.4875C12.6615 6.49415 12.6046 6.5234 12.5634 6.56958C12.5222 6.61577 12.4995 6.6756 12.4999 6.7375V8.38125C12.2069 8.18486 11.8719 8.06009 11.5218 8.01702C11.1717 7.97396 10.8164 8.01379 10.4846 8.13332C10.1528 8.25284 9.85366 8.44871 9.61146 8.70511C9.36925 8.96151 9.19071 9.27126 9.09026 9.60936C8.9898 9.94747 8.97024 10.3044 9.03315 10.6515C9.09606 10.9986 9.23968 11.326 9.45242 11.6073C9.66516 11.8886 9.94106 12.116 10.2579 12.2711C10.5747 12.4261 10.9235 12.5046 11.2761 12.5C12.5155 12.4856 13.4999 11.4462 13.4999 10.2063V6.625C13.5003 6.58502 13.4912 6.54551 13.4732 6.5098C13.4552 6.47409 13.4289 6.44321 13.3965 6.41976C13.3641 6.39632 13.3266 6.38098 13.2871 6.37504C13.2475 6.3691 13.2071 6.37273 13.1693 6.38562Z" fill="black"/>
</g>
<defs>
<clipPath id="clip0_5_1451">
<rect width="16" height="16" fill="white"/>
</clipPath>
</defs>
</svg>
