<svg width="16" height="16" viewBox="0 0 16 16" fill="none" xmlns="http://www.w3.org/2000/svg">
<g clip-path="url(#clip0_5_1455)">
<path d="M13.3075 1.10669C13.2479 1.05945 13.1782 1.02663 13.1038 1.0108C13.0294 0.994973 12.9524 0.996559 12.8788 1.01544L4.87875 3.01544C4.77069 3.04245 4.67473 3.10477 4.60612 3.19252C4.53751 3.28027 4.50016 3.38842 4.5 3.49981V10.3811C4.08285 10.1023 3.58452 9.97104 3.08419 10.008C2.58386 10.045 2.11024 10.2481 1.73859 10.5851C1.36694 10.9221 1.11858 11.3737 1.03299 11.868C0.947397 12.3624 1.02947 12.8711 1.26618 13.3135C1.50289 13.7558 1.88064 14.1064 2.33941 14.3094C2.79819 14.5124 3.31166 14.5563 3.79823 14.4341C4.28481 14.3118 4.71657 14.0305 5.0249 13.6347C5.33324 13.239 5.50047 12.7515 5.5 12.2498V6.39044L12.5 4.64044V8.38106C12.0829 8.10234 11.5845 7.97104 11.0842 8.00801C10.5839 8.04498 10.1102 8.24811 9.73859 8.58512C9.36694 8.92213 9.11858 9.37368 9.03299 9.86802C8.9474 10.3624 9.02947 10.8711 9.26618 11.3135C9.50289 11.7558 9.88064 12.1064 10.3394 12.3094C10.7982 12.5124 11.3117 12.5563 11.7982 12.4341C12.2848 12.3118 12.7166 12.0305 13.0249 11.6347C13.3332 11.239 13.5005 10.7515 13.5 10.2498V1.49981C13.4998 1.42398 13.4824 1.34917 13.4491 1.28107C13.4157 1.21296 13.3673 1.15333 13.3075 1.10669Z" fill="black"/>
</g>
<defs>
<clipPath id="clip0_5_1455">
<rect width="16" height="16" fill="white"/>
</clipPath>
</defs>
</svg>
