<svg width="16" height="16" viewBox="0 0 16 16" fill="none" xmlns="http://www.w3.org/2000/svg">
<g clip-path="url(#clip0_5_1449)">
<path d="M15.5 7.59862C15.4985 7.8099 15.4291 8.01509 15.302 8.18391C15.1749 8.35272 14.997 8.4762 14.7944 8.53612L14.7819 8.53987L9.90686 9.90487L8.54186 14.7799L8.53811 14.7924C8.4781 14.9949 8.35459 15.1728 8.1858 15.2999C8.01701 15.4269 7.81186 15.4964 7.60061 15.498H7.58186C7.3747 15.4999 7.17219 15.4365 7.00311 15.3168C6.83403 15.1971 6.70697 15.0272 6.63998 14.8311L2.56248 3.83799C2.56116 3.83475 2.56012 3.83141 2.55936 3.82799C2.49842 3.65102 2.48838 3.46049 2.53038 3.27808C2.57237 3.09568 2.66472 2.92872 2.79691 2.79621C2.9291 2.66369 3.09583 2.57093 3.27813 2.52849C3.46043 2.48605 3.65098 2.49562 3.82811 2.55612L3.83811 2.55924L14.8331 6.63799C15.0322 6.70605 15.2043 6.83598 15.3243 7.00881C15.4443 7.18164 15.5058 7.38831 15.5 7.59862Z" fill="black"/>
</g>
<defs>
<clipPath id="clip0_5_1449">
<rect width="16" height="16" fill="white"/>
</clipPath>
</defs>
</svg>
