<svg width="16" height="16" viewBox="0 0 16 16" fill="none" xmlns="http://www.w3.org/2000/svg">
<g clip-path="url(#clip0_5_561)">
<path d="M13.2676 2.73245C12.7988 2.26378 12.163 2.00049 11.5001 2.00049C10.8372 2.00049 10.2014 2.26378 9.7326 2.73245L8.2326 4.23245C8.15948 4.30548 8.11079 4.39937 8.09322 4.5012C7.54322 7.70495 2.2501 13.0456 2.1476 13.1456C2.05378 13.2393 2.00104 13.3665 2.00098 13.4991C2.00092 13.6317 2.05355 13.7589 2.14728 13.8528C2.24102 13.9466 2.36819 13.9993 2.50081 13.9994C2.63344 13.9994 2.76065 13.9468 2.85447 13.8531C2.90822 13.7987 8.28135 8.4587 11.4995 7.9062C11.6013 7.88863 11.6952 7.83994 11.7682 7.76683L13.2682 6.26683C13.7369 5.79801 14.0002 5.16224 14.0002 4.49933C14.0002 3.83642 13.7369 3.20065 13.2682 2.73183L13.2676 2.73245ZM11.8538 4.8537L10.8538 5.8537C10.76 5.94753 10.6328 6.00023 10.5001 6.00023C10.3674 6.00023 10.2402 5.94753 10.1463 5.8537C10.0525 5.75988 9.99982 5.63264 9.99982 5.49995C9.99982 5.36727 10.0525 5.24002 10.1463 5.1462L11.1463 4.1462C11.2402 4.05238 11.3674 3.99968 11.5001 3.99968C11.6328 3.99968 11.76 4.05238 11.8538 4.1462C11.9477 4.24002 12.0004 4.36727 12.0004 4.49995C12.0004 4.63264 11.9477 4.75988 11.8538 4.8537Z" fill="black"/>
</g>
<defs>
<clipPath id="clip0_5_561">
<rect width="16" height="16" fill="white"/>
</clipPath>
</defs>
</svg>
