<svg width="16" height="16" viewBox="0 0 16 16" fill="none" xmlns="http://www.w3.org/2000/svg">
<g clip-path="url(#clip0_5_1398)">
<path d="M12.4999 2.49991V11.9999C12.4999 12.1325 12.4472 12.2597 12.3535 12.3535C12.2597 12.4472 12.1325 12.4999 11.9999 12.4999H2.49991C2.40096 12.5 2.30421 12.4707 2.22191 12.4158C2.13962 12.3608 2.07547 12.2827 2.03759 12.1913C1.99972 12.0999 1.98982 11.9993 2.00914 11.9023C2.02847 11.8052 2.07615 11.7161 2.14616 11.6462L11.6462 2.14616C11.7161 2.07615 11.8052 2.02847 11.9023 2.00914C11.9993 1.98982 12.0999 1.99972 12.1913 2.03759C12.2827 2.07547 12.3608 2.13962 12.4158 2.22191C12.4707 2.30421 12.5 2.40096 12.4999 2.49991Z" fill="black"/>
</g>
<defs>
<clipPath id="clip0_5_1398">
<rect width="16" height="16" fill="white"/>
</clipPath>
</defs>
</svg>
