<svg width="16" height="16" viewBox="0 0 16 16" fill="none" xmlns="http://www.w3.org/2000/svg">
<g clip-path="url(#clip0_5_1305)">
<path d="M10.7501 8.5C10.8985 8.5 11.0435 8.54399 11.1668 8.6264C11.2902 8.70881 11.3863 8.82594 11.443 8.96299C11.4998 9.10003 11.5147 9.25083 11.4857 9.39632C11.4568 9.5418 11.3854 9.67544 11.2805 9.78033C11.1756 9.88522 11.0419 9.95665 10.8965 9.98559C10.751 10.0145 10.6002 9.99967 10.4631 9.94291C10.3261 9.88614 10.2089 9.79001 10.1265 9.66668C10.0441 9.54334 10.0001 9.39834 10.0001 9.25C10.0001 9.05109 10.0792 8.86032 10.2198 8.71967C10.3605 8.57902 10.5512 8.5 10.7501 8.5ZM11.5389 6.45312L7.43201 4.53687C6.37451 4.67096 5.39902 5.17635 4.67955 5.9629C3.96008 6.74946 3.54342 7.76601 3.50389 8.83125L7.76514 6.55875C7.84132 6.51819 7.9267 6.49803 8.01298 6.50025C8.09926 6.50246 8.1835 6.52698 8.25749 6.5714C8.33149 6.61582 8.39273 6.67865 8.43525 6.75375C8.47777 6.82886 8.50012 6.91369 8.50014 7V13.4719C9.36846 13.3778 10.1903 13.0319 10.8645 12.4766C11.5387 11.9214 12.0358 11.1811 12.2945 10.3469C12.3347 10.2202 12.4236 10.1146 12.5416 10.0534C12.6597 9.99222 12.7972 9.98043 12.9239 10.0206C13.0506 10.0608 13.1562 10.1497 13.2174 10.2677C13.2785 10.3858 13.2903 10.5233 13.2501 10.65C13.0171 11.3856 12.6319 12.0639 12.1195 12.6409C11.6072 13.2179 10.9792 13.6806 10.2763 13.999C9.57337 14.3174 8.81136 14.4843 8.03974 14.4889C7.26812 14.4935 6.50416 14.3357 5.79753 14.0257C5.09089 13.7157 4.45739 13.2605 3.93819 12.6897C3.41899 12.1189 3.02572 11.4452 2.78393 10.7124C2.54214 9.97963 2.45725 9.20418 2.53477 8.43645C2.61229 7.66872 2.85049 6.9259 3.23389 6.25625C2.78317 6.02743 2.42264 5.6535 2.21039 5.19474C1.99815 4.73598 1.94657 4.21912 2.06396 3.72746C2.18135 3.23581 2.46088 2.798 2.85748 2.48462C3.25408 2.17123 3.74466 2.00052 4.25014 2C4.32312 2.00012 4.3952 2.01611 4.46139 2.04688L11.852 5.49563C12.1731 5.4687 12.4714 5.31879 12.6847 5.0772C12.8979 4.83561 13.0097 4.52099 12.9965 4.19901C12.9834 3.87703 12.8464 3.57257 12.6142 3.34916C12.3819 3.12576 12.0724 3.00067 11.7501 3C11.6175 3 11.4904 2.94732 11.3966 2.85355C11.3028 2.75979 11.2501 2.63261 11.2501 2.5C11.2501 2.36739 11.3028 2.24021 11.3966 2.14645C11.4904 2.05268 11.6175 2 11.7501 2C12.3469 2 12.9192 2.23705 13.3411 2.65901C13.7631 3.08097 14.0001 3.65326 14.0001 4.25C14.0001 4.84674 13.7631 5.41903 13.3411 5.84099C12.9192 6.26295 12.3469 6.5 11.7501 6.5C11.6772 6.49988 11.6051 6.48389 11.5389 6.45312ZM6.00014 13.0294V8.63313L3.59451 9.91625C3.73456 10.5831 4.02374 11.2095 4.44035 11.7487C4.85697 12.2878 5.39022 12.7256 6.00014 13.0294ZM6.00826 3.875L4.14826 3.00437C3.86461 3.02825 3.59759 3.14822 3.39138 3.34445C3.18517 3.54069 3.05211 3.80143 3.01421 4.08355C2.97631 4.36568 3.03584 4.65229 3.18296 4.89599C3.33007 5.13968 3.55596 5.32587 3.82326 5.42375C3.86076 5.37937 3.89826 5.335 3.93826 5.29187C4.50991 4.66644 5.21833 4.18154 6.00826 3.875Z" fill="black"/>
</g>
<defs>
<clipPath id="clip0_5_1305">
<rect width="16" height="16" fill="white"/>
</clipPath>
</defs>
</svg>
