<svg width="16" height="16" viewBox="0 0 16 16" fill="none" xmlns="http://www.w3.org/2000/svg">
<g clip-path="url(#clip0_5_536)">
<path d="M14.4706 9.16047L10.98 3.16609L10.9731 3.15422C10.659 2.64856 10.2212 2.23137 9.70094 1.94208C9.18069 1.6528 8.59527 1.50098 8.00001 1.50098C7.40474 1.50098 6.81931 1.6528 6.29907 1.94208C5.77883 2.23137 5.34097 2.64856 5.02688 3.15422L5.02001 3.16609L1.52938 9.16047C1.20193 9.69057 1.02192 10.2985 1.00796 10.9214C0.993995 11.5443 1.14658 12.1597 1.44995 12.7039C1.75332 13.2482 2.19647 13.7016 2.73365 14.0173C3.27083 14.333 3.88255 14.4996 4.50563 14.4998H11.4944C12.1175 14.4996 12.7292 14.333 13.2664 14.0173C13.8035 13.7016 14.2467 13.2482 14.5501 12.7039C14.8534 12.1597 15.006 11.5443 14.9921 10.9214C14.9781 10.2985 14.7981 9.69057 14.4706 9.16047ZM13.6781 12.2155C13.4642 12.6069 13.1481 12.9331 12.7636 13.1592C12.3791 13.3854 11.9405 13.5031 11.4944 13.4998H11V10.4998C11 10.2346 10.8946 9.98027 10.7071 9.79273C10.5196 9.6052 10.2652 9.49984 10 9.49984H6.00001C5.73479 9.49984 5.48043 9.6052 5.2929 9.79273C5.10536 9.98027 5.00001 10.2346 5.00001 10.4998V13.4998H4.50563C4.05999 13.5 3.62242 13.381 3.23822 13.1552C2.85402 12.9294 2.53716 12.605 2.32044 12.2156C2.10372 11.8262 1.99503 11.386 2.00561 10.9405C2.01619 10.495 2.14567 10.0604 2.38063 9.68172C2.38316 9.67768 2.38545 9.67351 2.38751 9.66922L5.87813 3.67547C6.10286 3.3159 6.41534 3.0194 6.78621 2.81385C7.15707 2.6083 7.57412 2.50046 7.99813 2.50046C8.42215 2.50046 8.83919 2.6083 9.21005 2.81385C9.58092 3.0194 9.8934 3.3159 10.1181 3.67547L13.6088 9.66922C13.6108 9.67351 13.6131 9.67768 13.6156 9.68172C13.8541 10.059 13.9858 10.4938 13.9969 10.94C14.0079 11.3861 13.8977 11.8269 13.6781 12.2155Z" fill="black"/>
</g>
<defs>
<clipPath id="clip0_5_536">
<rect width="16" height="16" fill="white"/>
</clipPath>
</defs>
</svg>
