<svg width="16" height="16" viewBox="0 0 16 16" fill="none" xmlns="http://www.w3.org/2000/svg">
<g clip-path="url(#clip0_5_1285)">
<path d="M14.02 7.13983C14.2537 6.56787 14.3318 5.94424 14.2464 5.33232C14.1609 4.7204 13.9151 4.142 13.5337 3.65589C13.1523 3.16978 12.6491 2.79328 12.0751 2.56465C11.5011 2.33602 10.8768 2.26342 10.2657 2.35421C9.88693 1.86634 9.38584 1.48739 8.81327 1.25582C8.24071 1.02425 7.61706 0.94831 7.00566 1.03572C6.39426 1.12312 5.81687 1.37076 5.33212 1.75349C4.84738 2.13621 4.47254 2.64039 4.24567 3.21483C3.6335 3.29863 3.05443 3.54299 2.5673 3.92307C2.08016 4.30316 1.70232 4.80543 1.47218 5.37885C1.24204 5.95226 1.1678 6.57638 1.257 7.18778C1.3462 7.79918 1.59567 8.37607 1.98005 8.85983C1.79247 9.3195 1.70484 9.81381 1.72296 10.3099C1.74108 10.8061 1.86454 11.2927 2.08515 11.7374C2.30575 12.1822 2.61845 12.5749 3.00248 12.8896C3.38651 13.2042 3.83308 13.4335 4.31255 13.5623C4.60973 13.6437 4.9163 13.6857 5.22442 13.6873C5.39533 13.6872 5.566 13.6744 5.73505 13.6492C6.11386 14.1369 6.61496 14.5157 7.18749 14.7471C7.76001 14.9785 8.38358 15.0544 8.99488 14.9669C9.60618 14.8794 10.1835 14.6318 10.6681 14.2491C11.1528 13.8664 11.5276 13.3623 11.7544 12.788C12.3666 12.7042 12.9457 12.4598 13.4328 12.0797C13.9199 11.6996 14.2978 11.1974 14.5279 10.6239C14.758 10.0505 14.8323 9.42641 14.7431 8.81501C14.6539 8.20361 14.4044 7.62672 14.02 7.14296V7.13983ZM9.00005 8.57733L8.00005 9.15483L7.00005 8.57733V7.42233L8.00005 6.84483L9.00005 7.42233V8.57733ZM11.4282 3.40171C12.0582 3.57013 12.5975 3.9781 12.931 4.53857C13.2645 5.09903 13.3657 5.76763 13.2132 6.40171C13.1538 6.36233 13.0938 6.32421 13.0313 6.28858L10.25 4.67983C10.174 4.63595 10.0878 4.61285 10 4.61285C9.91228 4.61285 9.82605 4.63595 9.75004 4.67983L7.00005 6.26796V5.11296L9.53129 3.65171C9.81527 3.48676 10.1291 3.37974 10.4547 3.33683C10.7803 3.29392 11.1112 3.31597 11.4282 3.40171ZM2.55317 5.43296C2.87188 4.87725 3.39294 4.46614 4.00755 4.28546C4.00317 4.35671 4.00005 4.42796 4.00005 4.49983V7.71108C4.00003 7.79887 4.02312 7.88512 4.067 7.96115C4.11089 8.03718 4.17402 8.10031 4.25005 8.14421L7.00005 9.73171L6.00005 10.3123L3.4688 8.84796C2.89461 8.51643 2.47564 7.97039 2.30405 7.32995C2.13245 6.68952 2.22229 6.00715 2.5538 5.43296H2.55317ZM8.50005 13.9998C7.86001 14.0015 7.24395 13.7564 6.78005 13.3155C6.84255 13.2836 6.90505 13.2498 6.96755 13.2136L9.75004 11.608C9.82598 11.5641 9.88905 11.5011 9.93293 11.4252C9.97681 11.3493 9.99996 11.2631 10 11.1755V7.99983L11 8.57733V11.4998C11 12.1629 10.7367 12.7988 10.2678 13.2676C9.79897 13.7364 9.16309 13.9998 8.50005 13.9998Z" fill="black"/>
</g>
<defs>
<clipPath id="clip0_5_1285">
<rect width="16" height="16" fill="white"/>
</clipPath>
</defs>
</svg>
