<svg width="16" height="16" viewBox="0 0 16 16" fill="none" xmlns="http://www.w3.org/2000/svg">
<g clip-path="url(#clip0_5_529)">
<path d="M14.7624 13.6445C14.6691 13.756 14.5524 13.8457 14.4207 13.9071C14.2889 13.9686 14.1453 14.0003 13.9999 14.0001C13.8856 14 13.7721 13.9806 13.6643 13.9426L8.66739 12.2551C8.61783 12.2384 8.57478 12.2065 8.54428 12.164C8.51378 12.1215 8.49738 12.0706 8.49739 12.0183V7.50013C8.49754 7.43158 8.48359 7.36374 8.45642 7.30081C8.42925 7.23788 8.38943 7.18122 8.33943 7.13433C8.28944 7.08744 8.23033 7.05133 8.16579 7.02824C8.10125 7.00515 8.03266 6.99558 7.96426 7.00013C7.83569 7.01146 7.71615 7.07095 7.62957 7.16668C7.543 7.26241 7.49579 7.38732 7.49739 7.51638V12.0164C7.49739 12.0687 7.48099 12.1197 7.4505 12.1622C7.42 12.2047 7.37694 12.2365 7.32739 12.2533L2.33051 13.9408C2.13881 14.0081 1.93114 14.0155 1.73515 13.9618C1.53916 13.9082 1.36416 13.7962 1.23344 13.6406C1.10272 13.4851 1.02249 13.2934 1.00343 13.0911C0.984375 12.8888 1.0274 12.6855 1.12676 12.5083L7.12489 2.00825C7.21188 1.85361 7.33845 1.72489 7.49162 1.63532C7.64478 1.54574 7.81902 1.49854 7.99645 1.49854C8.17388 1.49854 8.34812 1.54574 8.50129 1.63532C8.65445 1.72489 8.78102 1.85361 8.86801 2.00825L14.8686 12.5064C14.9703 12.6839 15.0147 12.8885 14.9957 13.0923C14.9767 13.296 14.8952 13.4888 14.7624 13.6445Z" fill="black"/>
</g>
<defs>
<clipPath id="clip0_5_529">
<rect width="16" height="16" fill="white"/>
</clipPath>
</defs>
</svg>
