<svg width="16" height="16" viewBox="0 0 16 16" fill="none" xmlns="http://www.w3.org/2000/svg">
<g clip-path="url(#clip0_5_528)">
<path d="M14.9999 7.99327C15.0004 8.17144 14.9532 8.34649 14.8633 8.50033C14.7735 8.65416 14.6441 8.78119 14.4887 8.86827L3.99366 14.8689C3.84306 14.9543 3.67303 14.9995 3.49991 15.0001C3.3404 14.9993 3.18342 14.9603 3.04206 14.8864C2.90069 14.8125 2.77906 14.7059 2.6873 14.5754C2.59555 14.4449 2.53633 14.2944 2.51461 14.1364C2.49288 13.9783 2.50927 13.8174 2.56241 13.667L4.24991 8.67014C4.2664 8.62129 4.2976 8.57873 4.33922 8.5483C4.38084 8.51786 4.43086 8.50104 4.48241 8.50014H8.99991C9.06845 8.50029 9.1363 8.48635 9.19922 8.45918C9.26215 8.432 9.31882 8.39218 9.36571 8.34219C9.4126 8.29219 9.44871 8.23309 9.4718 8.16855C9.49488 8.10401 9.50445 8.03541 9.49991 7.96702C9.48857 7.83845 9.42908 7.7189 9.33335 7.63233C9.23762 7.54575 9.11272 7.49854 8.98366 7.50014H4.48366C4.43136 7.50015 4.38037 7.48375 4.33787 7.45325C4.29538 7.42275 4.26352 7.3797 4.24679 7.33014L2.55929 2.33389C2.49212 2.14239 2.48481 1.93498 2.53833 1.73922C2.59184 1.54346 2.70366 1.36862 2.85891 1.23792C3.01416 1.10723 3.2055 1.02686 3.40752 1.00749C3.60953 0.98813 3.81266 1.03069 3.98991 1.12952L14.4899 7.12264C14.6445 7.20952 14.7731 7.33593 14.8628 7.48892C14.9524 7.6419 14.9997 7.81597 14.9999 7.99327Z" fill="black"/>
</g>
<defs>
<clipPath id="clip0_5_528">
<rect width="16" height="16" fill="white"/>
</clipPath>
</defs>
</svg>
