<svg width="16" height="16" viewBox="0 0 16 16" fill="none" xmlns="http://www.w3.org/2000/svg">
<g clip-path="url(#clip0_5_1199)">
<path d="M13.7573 5.84625C13.4218 5.41496 12.9895 5.06856 12.4955 4.835C12.4531 3.93639 12.0663 3.08862 11.4154 2.46763C10.7645 1.84664 9.89946 1.50012 8.99985 1.5H5.24985C5.02685 1.50003 4.81027 1.5746 4.63451 1.71185C4.45876 1.8491 4.33393 2.04116 4.27985 2.2575L2.02985 11.2575C1.993 11.4049 1.99023 11.5588 2.02175 11.7074C2.05327 11.8561 2.11825 11.9956 2.21176 12.1154C2.30527 12.2351 2.42484 12.332 2.56139 12.3987C2.69795 12.4653 2.8479 12.5 2.99985 12.5H4.7186L4.5311 13.2575C4.49428 13.4048 4.49148 13.5586 4.52294 13.7071C4.55439 13.8557 4.61926 13.9951 4.71262 14.1149C4.80599 14.2346 4.9254 14.3315 5.0618 14.3983C5.1982 14.465 5.348 14.4998 5.49985 14.5H7.4686C7.69138 14.4997 7.90768 14.425 8.08318 14.2878C8.25868 14.1505 8.38332 13.9586 8.43735 13.7425L8.99985 11.5H10.9998C11.6556 11.5 12.2981 11.3157 12.8542 10.9683C13.4104 10.6209 13.8577 10.1242 14.1452 9.53485C14.4328 8.94554 14.549 8.28729 14.4807 7.63513C14.4123 6.98297 14.1621 6.36313 13.7586 5.84625H13.7573ZM2.99985 11.5L5.24985 2.5H8.99985C9.58157 2.49984 10.1451 2.70254 10.5935 3.07319C11.0418 3.44385 11.3469 3.95925 11.4561 4.53062C11.3048 4.51066 11.1524 4.50043 10.9998 4.5H7.49985C7.27675 4.49989 7.06002 4.5744 6.88414 4.71166C6.70825 4.84892 6.58333 5.04106 6.52922 5.2575L4.96985 11.5H2.99985ZM13.423 8.60625C13.2885 9.14711 12.9768 9.62739 12.5377 9.97059C12.0985 10.3138 11.5572 10.5002 10.9998 10.5H8.99985C8.77685 10.5 8.56027 10.5746 8.38451 10.7119C8.20876 10.8491 8.08392 11.0412 8.02985 11.2575L7.46735 13.5H5.49985L6.74985 8.5H8.99985C9.76865 8.50022 10.5161 8.24685 11.1262 7.77916C11.7364 7.31147 12.1753 6.65557 12.3748 5.91313C12.6006 6.06271 12.8007 6.2478 12.9673 6.46125C13.2025 6.75999 13.366 7.10876 13.4451 7.48065C13.5242 7.85255 13.5168 8.23765 13.4236 8.60625H13.423Z" fill="black"/>
</g>
<defs>
<clipPath id="clip0_5_1199">
<rect width="16" height="16" fill="white"/>
</clipPath>
</defs>
</svg>
