<svg width="16" height="16" viewBox="0 0 16 16" fill="none" xmlns="http://www.w3.org/2000/svg">
<g clip-path="url(#clip0_5_521)">
<path d="M14.2075 4.58547L11.4144 1.79297C11.3215 1.70009 11.2113 1.62641 11.0899 1.57614C10.9686 1.52587 10.8385 1.5 10.7072 1.5C10.5759 1.5 10.4458 1.52587 10.3245 1.57614C10.2031 1.62641 10.0929 1.70009 10 1.79297L2.29313 9.49985C2.19987 9.59237 2.12593 9.70251 2.0756 9.82386C2.02528 9.94521 1.99959 10.0754 2.00001 10.2067V12.9998C2.00001 13.2651 2.10536 13.5194 2.2929 13.707C2.48043 13.8945 2.73479 13.9998 3.00001 13.9998H5.79313C5.9245 14.0003 6.05464 13.9746 6.17599 13.9242C6.29735 13.8739 6.40748 13.8 6.50001 13.7067L11.7294 8.47797L11.9469 9.34672L9.64688 11.6461C9.55306 11.7398 9.50032 11.867 9.50026 11.9996C9.5002 12.1323 9.55283 12.2595 9.64657 12.3533C9.74031 12.4471 9.86747 12.4998 10.0001 12.4999C10.1327 12.5 10.2599 12.4473 10.3538 12.3536L12.8538 9.8536C12.9149 9.79256 12.9592 9.71673 12.9823 9.63348C13.0054 9.55023 13.0066 9.46242 12.9856 9.3786L12.5544 7.65297L14.2075 5.99985C14.3004 5.90699 14.3741 5.79674 14.4243 5.6754C14.4746 5.55406 14.5005 5.424 14.5005 5.29266C14.5005 5.16132 14.4746 5.03127 14.4243 4.90992C14.3741 4.78858 14.3004 4.67834 14.2075 4.58547ZM12 6.79297L9.20751 3.99985L10.7075 2.49985L13.5 5.29297L12 6.79297Z" fill="black"/>
</g>
<defs>
<clipPath id="clip0_5_521">
<rect width="16" height="16" fill="white"/>
</clipPath>
</defs>
</svg>
