<svg width="16" height="16" viewBox="0 0 16 16" fill="none" xmlns="http://www.w3.org/2000/svg">
<g clip-path="url(#clip0_5_772)">
<path d="M14 2.9999V12.9999C14 13.2651 13.8946 13.5195 13.7071 13.707C13.5196 13.8945 13.2652 13.9999 13 13.9999H10C9.73478 13.9999 9.48043 13.8945 9.29289 13.707C9.10536 13.5195 9 13.2651 9 12.9999V11.2499C9 11.1836 9.02634 11.12 9.07322 11.0731C9.12011 11.0262 9.1837 10.9999 9.25 10.9999H11.5C11.5685 11.0001 11.6364 10.9861 11.6993 10.9589C11.7622 10.9318 11.8189 10.8919 11.8658 10.8419C11.9127 10.792 11.9488 10.7328 11.9719 10.6683C11.995 10.6038 12.0045 10.5352 12 10.4668C11.9888 10.3383 11.9295 10.2187 11.8338 10.1321C11.7382 10.0455 11.6134 9.99831 11.4844 9.9999H9.25C9.1837 9.9999 9.12011 9.97357 9.07322 9.92668C9.02634 9.8798 9 9.81621 9 9.7499V8.74991C9 8.6836 9.02634 8.62001 9.07322 8.57313C9.12011 8.52624 9.1837 8.49991 9.25 8.49991H11.5C11.5685 8.50006 11.6364 8.48611 11.6993 8.45894C11.7622 8.43177 11.8189 8.39194 11.8658 8.34195C11.9127 8.29195 11.9488 8.23285 11.9719 8.16831C11.995 8.10377 12.0045 8.03517 12 7.96678C11.9888 7.83826 11.9295 7.71872 11.8338 7.63214C11.7382 7.54555 11.6134 7.49832 11.4844 7.49991H9.25C9.1837 7.49991 9.12011 7.47357 9.07322 7.42668C9.02634 7.3798 9 7.31621 9 7.24991V6.24991C9 6.1836 9.02634 6.12001 9.07322 6.07313C9.12011 6.02624 9.1837 5.99991 9.25 5.99991H11.5C11.5685 6.00006 11.6364 5.98611 11.6993 5.95894C11.7622 5.93177 11.8189 5.89194 11.8658 5.84195C11.9127 5.79195 11.9488 5.73285 11.9719 5.66831C11.995 5.60377 12.0045 5.53517 12 5.46678C11.9888 5.33804 11.9293 5.21833 11.8334 5.13171C11.7375 5.04509 11.6123 4.998 11.4831 4.99991H9.25C9.1837 4.99991 9.12011 4.97357 9.07322 4.92668C9.02634 4.8798 9 4.81621 9 4.74991V2.9999C9 2.73469 9.10536 2.48033 9.29289 2.2928C9.48043 2.10526 9.73478 1.9999 10 1.9999H13C13.2652 1.9999 13.5196 2.10526 13.7071 2.2928C13.8946 2.48033 14 2.73469 14 2.9999ZM6.85375 3.64615C6.90017 3.69262 6.93697 3.74778 6.96207 3.80848C6.98716 3.86918 7.00005 3.93422 7 3.99991V12.9999C7 13.2651 6.89464 13.5195 6.70711 13.707C6.51957 13.8945 6.26522 13.9999 6 13.9999H3C2.73478 13.9999 2.48043 13.8945 2.29289 13.707C2.10536 13.5195 2 13.2651 2 12.9999V3.99991C1.99995 3.93422 2.01284 3.86918 2.03793 3.80848C2.06303 3.74778 2.09983 3.69262 2.14625 3.64615L4.14625 1.64615C4.19269 1.59967 4.24783 1.56279 4.30853 1.53763C4.36923 1.51246 4.43429 1.49951 4.5 1.49951C4.56571 1.49951 4.63077 1.51246 4.69147 1.53763C4.75217 1.56279 4.80731 1.59967 4.85375 1.64615L6.85375 3.64615ZM3 4.99991V11.4999H4V4.99991H3ZM5 4.99991V11.4999H6V4.99991H5ZM3.20688 3.99991H5.79313L4.5 2.70678L3.20688 3.99991Z" fill="black"/>
</g>
<defs>
<clipPath id="clip0_5_772">
<rect width="16" height="16" fill="white"/>
</clipPath>
</defs>
</svg>
