<svg width="16" height="16" viewBox="0 0 16 16" fill="none" xmlns="http://www.w3.org/2000/svg">
<g clip-path="url(#clip0_5_768)">
<path d="M3.37 2.1636C3.3261 2.1141 3.2728 2.07381 3.2132 2.04507C3.15361 2.01632 3.0889 1.99969 3.02283 1.99613C2.95676 1.99258 2.89064 2.00217 2.82831 2.02436C2.76598 2.04655 2.70866 2.08089 2.6597 2.12539C2.61073 2.16989 2.57109 2.22366 2.54306 2.2836C2.51503 2.34353 2.49917 2.40843 2.49641 2.47454C2.49365 2.54065 2.50403 2.60665 2.52697 2.66871C2.5499 2.73077 2.58492 2.78767 2.63 2.8361L5.6425 6.1486L2.2925 9.49985C2.19944 9.59249 2.12567 9.70266 2.07546 9.82399C2.02525 9.94533 1.99961 10.0754 2 10.2067V12.9998C2 13.2651 2.10536 13.5194 2.2929 13.707C2.48043 13.8945 2.73479 13.9998 3 13.9998H5.79313C5.9245 14.0003 6.05464 13.9746 6.17599 13.9242C6.29734 13.8739 6.40748 13.8 6.5 13.7067L9.65 10.5573L12.6306 13.8361C12.6745 13.8856 12.7278 13.9259 12.7874 13.9546C12.847 13.9834 12.9117 14 12.9778 14.0036C13.0439 14.0071 13.11 13.9975 13.1723 13.9753C13.2347 13.9531 13.292 13.9188 13.3409 13.8743C13.3899 13.8298 13.4295 13.776 13.4576 13.7161C13.4856 13.6562 13.5015 13.5913 13.5042 13.5252C13.507 13.4591 13.4966 13.3931 13.4737 13.331C13.4507 13.2689 13.4157 13.212 13.3706 13.1636L3.37 2.1636ZM6.31625 6.8911L7.3125 7.9836L4.25 11.043L3.20688 9.99985L6.31625 6.8911ZM3 12.9998V11.2067L4.79313 12.9998H3ZM6 12.793L4.9575 11.7498L7.98313 8.72422L8.97625 9.81672L6 12.793ZM14.2075 5.99985L11.4375 8.7711C11.3435 8.865 11.2161 8.91772 11.0832 8.91767C10.9504 8.91761 10.823 8.86477 10.7291 8.77079C10.6352 8.6768 10.5824 8.54936 10.5825 8.4165C10.5826 8.28364 10.6354 8.15625 10.7294 8.06235L11.6469 7.14485L10.6038 6.1036L9.76938 6.93735C9.67485 7.02716 9.54897 7.07649 9.41859 7.07482C9.28821 7.07315 9.16364 7.02061 9.07144 6.92841C8.97924 6.83621 8.9267 6.71164 8.92503 6.58126C8.92337 6.45088 8.97269 6.32501 9.0625 6.23047L9.89688 5.3961L8.85375 4.3536L8.10375 5.1036C8.05734 5.15005 8.00223 5.18691 7.94157 5.21207C7.88091 5.23723 7.81589 5.25019 7.75023 5.25022C7.68456 5.25025 7.61953 5.23734 7.55885 5.21224C7.49816 5.18713 7.44302 5.15033 7.39657 5.10391C7.35011 5.0575 7.31325 5.00239 7.2881 4.94173C7.26294 4.88107 7.24998 4.81605 7.24995 4.75038C7.24992 4.68471 7.26282 4.61968 7.28793 4.559C7.31303 4.49832 7.34984 4.44318 7.39625 4.39672L10 1.79297C10.0929 1.70009 10.2031 1.62641 10.3245 1.57614C10.4458 1.52587 10.5759 1.5 10.7072 1.5C10.8385 1.5 10.9686 1.52587 11.0899 1.57614C11.2113 1.62641 11.3215 1.70009 11.4144 1.79297L14.2075 4.58547C14.3004 4.67834 14.3741 4.78858 14.4243 4.90992C14.4746 5.03127 14.5005 5.16132 14.5005 5.29266C14.5005 5.424 14.4746 5.55406 14.4243 5.6754C14.3741 5.79674 14.3004 5.90699 14.2075 5.99985Z" fill="black"/>
</g>
<defs>
<clipPath id="clip0_5_768">
<rect width="16" height="16" fill="white"/>
</clipPath>
</defs>
</svg>
