<svg width="16" height="16" viewBox="0 0 16 16" fill="none" xmlns="http://www.w3.org/2000/svg">
<g clip-path="url(#clip0_5_520)">
<path d="M12.5963 3.40383C11.3773 2.18483 9.72401 1.5 8.00008 1.5C6.27615 1.5 4.62283 2.18483 3.40383 3.40383C2.18483 4.62283 1.5 6.27615 1.5 8.00008C1.5 9.72401 2.18483 11.3773 3.40383 12.5963C4.62283 13.8153 6.27615 14.5002 8.00008 14.5002C9.72401 14.5002 11.3773 13.8153 12.5963 12.5963C13.8153 11.3773 14.5002 9.72401 14.5002 8.00008C14.5002 6.27615 13.8153 4.62283 12.5963 3.40383ZM8.00008 10.6795C7.75414 10.3992 7.4346 10.1934 7.07768 10.0855C6.72076 9.97756 6.34074 9.97179 5.9807 10.0688L6.93758 8.00008H9.06258L10.017 10.0688C9.65728 9.97229 9.27777 9.97832 8.92135 10.0862C8.56492 10.1941 8.2458 10.3996 8.00008 10.6795ZM10.5001 12.8982C9.87617 13.2158 9.19735 13.4114 8.50008 13.4745V12.0001C8.50008 11.7349 8.60544 11.4805 8.79297 11.293C8.98051 11.1054 9.23486 11.0001 9.50008 11.0001C9.7653 11.0001 10.0196 11.1054 10.2072 11.293C10.3947 11.4805 10.5001 11.7349 10.5001 12.0001V12.8982ZM11.8888 11.8895C11.7638 12.0145 11.6338 12.1313 11.5001 12.242V11.0001C11.5002 10.9277 11.4844 10.8563 11.4538 10.7907L8.45383 4.2907C8.41375 4.20411 8.34973 4.1308 8.26933 4.07941C8.18892 4.02803 8.0955 4.00073 8.00008 4.00073C7.90466 4.00073 7.81124 4.02803 7.73083 4.07941C7.65043 4.1308 7.58641 4.20411 7.54633 4.2907L4.54633 10.7907C4.51578 10.8563 4.49999 10.9277 4.50008 11.0001V12.242C4.36633 12.1313 4.23633 12.0145 4.11133 11.8895C3.34204 11.1203 2.81813 10.1403 2.60583 9.07338C2.39353 8.00646 2.5024 6.90054 2.91865 5.89549C3.3349 4.89044 4.03985 4.0314 4.94434 3.42701C5.84883 2.82262 6.91224 2.50003 8.00008 2.50003C9.08792 2.50003 10.1513 2.82262 11.0558 3.42701C11.9603 4.0314 12.6653 4.89044 13.0815 5.89549C13.4978 6.90054 13.6066 8.00646 13.3943 9.07338C13.182 10.1403 12.6581 11.1203 11.8888 11.8895Z" fill="black"/>
</g>
<defs>
<clipPath id="clip0_5_520">
<rect width="16" height="16" fill="white"/>
</clipPath>
</defs>
</svg>
