<svg width="16" height="16" viewBox="0 0 16 16" fill="none" xmlns="http://www.w3.org/2000/svg">
<g clip-path="url(#clip0_5_770)">
<path d="M14.2075 4.58547L11.4144 1.79297C11.3215 1.70009 11.2113 1.62641 11.0899 1.57614C10.9686 1.52587 10.8385 1.5 10.7072 1.5C10.5759 1.5 10.4458 1.52587 10.3245 1.57614C10.2031 1.62641 10.0929 1.70009 10 1.79297L7.2275 4.56547C7.18198 4.61083 7.15568 4.67198 7.15405 4.73622C7.15242 4.80046 7.17559 4.86286 7.21875 4.91047L10.8894 8.94797C10.9122 8.97299 10.9398 8.99312 10.9706 9.00715C11.0014 9.02117 11.0347 9.02879 11.0686 9.02955C11.1024 9.03031 11.1361 9.02419 11.1675 9.01156C11.1989 8.99894 11.2274 8.98007 11.2513 8.9561L14.2075 5.99985C14.3004 5.90699 14.3741 5.79674 14.4243 5.6754C14.4746 5.55406 14.5005 5.424 14.5005 5.29266C14.5005 5.16132 14.4746 5.03127 14.4243 4.90992C14.3741 4.78858 14.3004 4.67834 14.2075 4.58547ZM12 6.79297L9.20751 3.99985L10.7075 2.49985L13.5 5.29297L12 6.79297ZM13.37 13.1636C13.4151 13.212 13.4501 13.2689 13.473 13.331C13.496 13.3931 13.5064 13.4591 13.5036 13.5252C13.5008 13.5913 13.485 13.6562 13.457 13.7161C13.4289 13.776 13.3893 13.8298 13.3403 13.8743C13.2913 13.9188 13.234 13.9531 13.1717 13.9753C13.1094 13.9975 13.0432 14.0071 12.9772 14.0036C12.9111 14 12.8464 13.9834 12.7868 13.9546C12.7272 13.9259 12.6739 13.8856 12.63 13.8361L9.65 10.5573L6.5 13.7067C6.40748 13.8 6.29734 13.8739 6.17599 13.9242C6.05464 13.9746 5.9245 14.0003 5.79313 13.9998H3C2.73479 13.9998 2.48043 13.8945 2.2929 13.707C2.10536 13.5194 2 13.2651 2 12.9998V10.2067C1.99961 10.0754 2.02525 9.94533 2.07546 9.82399C2.12567 9.70266 2.19944 9.59249 2.2925 9.49985L5.6425 6.14985L2.6425 2.8486C2.55809 2.75832 2.50923 2.64052 2.50498 2.517C2.50073 2.39347 2.54137 2.27259 2.61938 2.17672C2.66536 2.12269 2.72232 2.07906 2.78646 2.04873C2.85061 2.01841 2.92047 2.00208 2.99142 2.00084C3.06236 1.9996 3.13275 2.01347 3.19792 2.04153C3.26309 2.0696 3.32153 2.11121 3.36938 2.1636L13.37 13.1636Z" fill="black"/>
</g>
<defs>
<clipPath id="clip0_5_770">
<rect width="16" height="16" fill="white"/>
</clipPath>
</defs>
</svg>
