<svg width="16" height="16" viewBox="0 0 16 16" fill="none" xmlns="http://www.w3.org/2000/svg">
<g clip-path="url(#clip0_5_516)">
<path d="M14.4536 6.57432L12.4536 13.2956L12.4498 13.3062C12.3856 13.5077 12.259 13.6835 12.0882 13.8083C11.9174 13.933 11.7113 14.0001 11.4998 13.9999H4.49985C4.28837 14.0001 4.08232 13.933 3.91152 13.8083C3.74073 13.6835 3.61406 13.5077 3.54985 13.3062L3.5461 13.2956L1.5461 6.57432C1.48383 6.3764 1.48466 6.164 1.5485 5.96657C1.61233 5.76914 1.73599 5.59646 1.90235 5.47245L7.39735 1.20307L7.4086 1.19432C7.57982 1.06795 7.78704 0.999756 7.99985 0.999756C8.21266 0.999756 8.41987 1.06795 8.5911 1.19432L8.60235 1.20307L14.0973 5.47245C14.2637 5.59646 14.3874 5.76914 14.4512 5.96657C14.515 6.164 14.5159 6.3764 14.4536 6.57432Z" fill="black"/>
</g>
<defs>
<clipPath id="clip0_5_516">
<rect width="16" height="16" fill="white"/>
</clipPath>
</defs>
</svg>
