<svg width="16" height="16" viewBox="0 0 16 16" fill="none" xmlns="http://www.w3.org/2000/svg">
<g clip-path="url(#clip0_5_514)">
<path d="M10.4542 2.52625C10.3435 1.95632 10.0382 1.44259 9.59044 1.07296C9.14272 0.703333 8.58045 0.500793 7.99987 0.5C7.86726 0.5 7.74008 0.552678 7.64631 0.646447C7.55254 0.740215 7.49987 0.867392 7.49987 1C7.49987 1.13261 7.55254 1.25979 7.64631 1.35355C7.74008 1.44732 7.86726 1.5 7.99987 1.5C8.31749 1.5 8.62692 1.60083 8.88357 1.78795C9.14022 1.97508 9.33085 2.23884 9.42799 2.54125C8.47655 2.67974 7.60668 3.15588 6.97727 3.88271C6.34787 4.60954 6.00094 5.53853 5.99987 6.5C5.99987 9.42188 4.39049 11.375 1.21674 12.3125C0.99965 12.3758 0.810415 12.5108 0.679916 12.6954C0.549417 12.8801 0.485359 13.1036 0.498195 13.3293C0.511032 13.5551 0.600005 13.7698 0.750595 13.9385C0.901185 14.1072 1.1045 14.2199 1.32737 14.2581C2.26676 14.4205 3.21842 14.5014 4.17174 14.5C6.72049 14.5 9.55674 13.9281 11.5174 12.2837C13.1649 10.9025 13.9999 8.95625 13.9999 6.5C13.9988 5.51815 13.6371 4.57089 12.9834 3.83827C12.3297 3.10565 11.4296 2.63873 10.4542 2.52625ZM11.9999 5.9375L10.2236 5.05188C10.1542 5.01711 10.0775 4.99902 9.99987 4.99902C9.92219 4.99902 9.84558 5.01711 9.77612 5.05188L7.99987 5.9375L7.16424 5.52C7.36799 4.93009 7.75065 4.41841 8.25892 4.05623C8.76719 3.69405 9.37576 3.4994 9.99987 3.4994C10.624 3.4994 11.2325 3.69405 11.7408 4.05623C12.2491 4.41841 12.6317 4.93009 12.8355 5.52L11.9999 5.9375Z" fill="black"/>
</g>
<defs>
<clipPath id="clip0_5_514">
<rect width="16" height="16" fill="white"/>
</clipPath>
</defs>
</svg>
