<svg width="16" height="16" viewBox="0 0 16 16" fill="none" xmlns="http://www.w3.org/2000/svg">
<g clip-path="url(#clip0_5_506)">
<path d="M15.5 8.49986C15.5 8.63247 15.4473 8.75965 15.3536 8.85341C15.2598 8.94718 15.1326 8.99986 15 8.99986H14V12.9999C14 13.2651 13.8946 13.5194 13.7071 13.707C13.5196 13.8945 13.2652 13.9999 13 13.9999C12.9398 13.9997 12.8798 13.9943 12.8206 13.9836L2.82063 12.1655C2.59032 12.1235 2.38205 12.002 2.2321 11.8223C2.08214 11.6425 2.00001 11.4158 2 11.1817V8.99986H1C0.867392 8.99986 0.740215 8.94718 0.646447 8.85341C0.552678 8.75965 0.5 8.63247 0.5 8.49986C0.5 8.36725 0.552678 8.24007 0.646447 8.14631C0.740215 8.05254 0.867392 7.99986 1 7.99986H15C15.1326 7.99986 15.2598 8.05254 15.3536 8.14631C15.4473 8.24007 15.5 8.36725 15.5 8.49986ZM2.25 6.99986H13.75C13.8163 6.99986 13.8799 6.97352 13.9268 6.92664C13.9737 6.87975 14 6.81616 14 6.74986V3.02611C14.0036 2.77179 13.913 2.52512 13.7456 2.33361C13.6316 2.20602 13.4867 2.10982 13.3249 2.05423C13.163 1.99864 12.9896 1.98552 12.8212 2.01611L2.82125 3.83423C2.59083 3.8761 2.38242 3.9975 2.23234 4.17727C2.08226 4.35705 2.00003 4.5838 2 4.81798V6.74986C2 6.81616 2.02634 6.87975 2.07322 6.92664C2.12011 6.97352 2.1837 6.99986 2.25 6.99986Z" fill="black"/>
</g>
<defs>
<clipPath id="clip0_5_506">
<rect width="16" height="16" fill="white"/>
</clipPath>
</defs>
</svg>
