<svg width="16" height="16" viewBox="0 0 16 16" fill="none" xmlns="http://www.w3.org/2000/svg">
<g clip-path="url(#clip0_5_1314)">
<path d="M13.9925 11.4424C13.8811 12.2893 13.4651 13.0666 12.8224 13.6293C12.1797 14.1919 11.3542 14.5014 10.5 14.4999C5.53751 14.4999 1.50001 10.4624 1.50001 5.49987C1.49847 4.64568 1.80794 3.82014 2.37059 3.17743C2.93324 2.53473 3.71061 2.11882 4.55751 2.00737C4.77166 1.98122 4.98854 2.02504 5.17575 2.13227C5.36296 2.23951 5.51047 2.40441 5.59626 2.60237L6.91626 5.54925C6.91601 5.55174 6.91601 5.55426 6.91626 5.55675C6.98194 5.70828 7.00906 5.87372 6.99521 6.0383C6.98136 6.20287 6.92696 6.36145 6.83688 6.49987C6.82563 6.51675 6.81376 6.53237 6.80126 6.548L5.50001 8.0905C5.96813 9.04175 6.96313 10.028 7.92688 10.4974L9.44813 9.203C9.46307 9.19044 9.47872 9.17875 9.49501 9.168C9.63339 9.07564 9.79262 9.01927 9.95829 9.00399C10.124 8.98872 10.2908 9.01501 10.4438 9.0805L10.4513 9.08425L13.395 10.4036C13.5934 10.489 13.7589 10.6363 13.8666 10.8236C13.9743 11.0108 14.0185 11.2279 13.9925 11.4424ZM9.00001 5.49987H10.5V6.99987C10.5 7.13248 10.5527 7.25966 10.6465 7.35343C10.7402 7.4472 10.8674 7.49987 11 7.49987C11.1326 7.49987 11.2598 7.4472 11.3536 7.35343C11.4473 7.25966 11.5 7.13248 11.5 6.99987V5.49987H13C13.1326 5.49987 13.2598 5.4472 13.3536 5.35343C13.4473 5.25966 13.5 5.13248 13.5 4.99987C13.5 4.86727 13.4473 4.74009 13.3536 4.64632C13.2598 4.55255 13.1326 4.49987 13 4.49987H11.5V2.99987C11.5 2.86727 11.4473 2.74009 11.3536 2.64632C11.2598 2.55255 11.1326 2.49987 11 2.49987C10.8674 2.49987 10.7402 2.55255 10.6465 2.64632C10.5527 2.74009 10.5 2.86727 10.5 2.99987V4.49987H9.00001C8.8674 4.49987 8.74022 4.55255 8.64645 4.64632C8.55268 4.74009 8.50001 4.86727 8.50001 4.99987C8.50001 5.13248 8.55268 5.25966 8.64645 5.35343C8.74022 5.4472 8.8674 5.49987 9.00001 5.49987Z" fill="black"/>
</g>
<defs>
<clipPath id="clip0_5_1314">
<rect width="16" height="16" fill="white"/>
</clipPath>
</defs>
</svg>
