<svg width="16" height="16" viewBox="0 0 16 16" fill="none" xmlns="http://www.w3.org/2000/svg">
<g clip-path="url(#clip0_5_757)">
<path d="M13.9925 11.4424C13.8811 12.2893 13.4651 13.0666 12.8224 13.6293C12.1797 14.1919 11.3542 14.5014 10.5 14.4999C5.53751 14.4999 1.50001 10.4624 1.50001 5.49987C1.49847 4.64568 1.80794 3.82014 2.37059 3.17743C2.93324 2.53473 3.71061 2.11882 4.55751 2.00737C4.77166 1.98122 4.98854 2.02504 5.17575 2.13227C5.36296 2.23951 5.51047 2.40441 5.59626 2.60237L6.91626 5.54925C6.91601 5.55174 6.91601 5.55426 6.91626 5.55675C6.98194 5.70828 7.00906 5.87372 6.99521 6.0383C6.98136 6.20287 6.92696 6.36145 6.83688 6.49987C6.82563 6.51675 6.81376 6.53237 6.80126 6.548L5.50001 8.0905C5.96813 9.04175 6.96313 10.028 7.92688 10.4974L9.44813 9.203C9.46307 9.19044 9.47872 9.17875 9.49501 9.168C9.63339 9.07564 9.79262 9.01927 9.95829 9.00399C10.124 8.98872 10.2908 9.01501 10.4438 9.0805L10.4513 9.08425L13.395 10.4036C13.5934 10.489 13.7589 10.6363 13.8666 10.8236C13.9743 11.0108 14.0185 11.2279 13.9925 11.4424ZM9.00001 4.49987H13C13.1326 4.49987 13.2598 4.4472 13.3536 4.35343C13.4473 4.25966 13.5 4.13248 13.5 3.99987C13.5 3.86727 13.4473 3.74009 13.3536 3.64632C13.2598 3.55255 13.1326 3.49987 13 3.49987H9.00001C8.8674 3.49987 8.74022 3.55255 8.64645 3.64632C8.55268 3.74009 8.50001 3.86727 8.50001 3.99987C8.50001 4.13248 8.55268 4.25966 8.64645 4.35343C8.74022 4.4472 8.8674 4.49987 9.00001 4.49987ZM9.00001 6.99987H13C13.1326 6.99987 13.2598 6.9472 13.3536 6.85343C13.4473 6.75966 13.5 6.63248 13.5 6.49987C13.5 6.36727 13.4473 6.24009 13.3536 6.14632C13.2598 6.05255 13.1326 5.99987 13 5.99987H9.00001C8.8674 5.99987 8.74022 6.05255 8.64645 6.14632C8.55268 6.24009 8.50001 6.36727 8.50001 6.49987C8.50001 6.63248 8.55268 6.75966 8.64645 6.85343C8.74022 6.9472 8.8674 6.99987 9.00001 6.99987Z" fill="black"/>
</g>
<defs>
<clipPath id="clip0_5_757">
<rect width="16" height="16" fill="white"/>
</clipPath>
</defs>
</svg>
