<svg width="16" height="16" viewBox="0 0 16 16" fill="none" xmlns="http://www.w3.org/2000/svg">
<g clip-path="url(#clip0_5_1147)">
<path d="M9.14626 6.14612L10.2931 4.99987L9.14626 3.85362C9.05244 3.7598 8.99973 3.63256 8.99973 3.49987C8.99973 3.36719 9.05243 3.23994 9.14626 3.14612C9.24008 3.0523 9.36732 2.9996 9.50001 2.9996C9.63269 2.9996 9.75994 3.0523 9.85376 3.14612L11 4.293L12.1463 3.14612C12.2401 3.0523 12.3673 2.9996 12.5 2.9996C12.6327 2.9996 12.7599 3.0523 12.8538 3.14612C12.9476 3.23994 13.0003 3.36719 13.0003 3.49987C13.0003 3.63256 12.9476 3.7598 12.8538 3.85362L11.7075 4.99987L12.8538 6.14612C12.9002 6.19258 12.9371 6.24773 12.9622 6.30843C12.9873 6.36912 13.0003 6.43418 13.0003 6.49987C13.0003 6.56557 12.9873 6.63063 12.9622 6.69132C12.9371 6.75202 12.9002 6.80717 12.8538 6.85362C12.8073 6.90008 12.7522 6.93693 12.6915 6.96207C12.6308 6.98721 12.5657 7.00015 12.5 7.00015C12.4343 7.00015 12.3693 6.98721 12.3086 6.96207C12.2479 6.93693 12.1927 6.90008 12.1463 6.85362L11 5.70675L9.85376 6.85362C9.75994 6.94744 9.63269 7.00015 9.50001 7.00015C9.36732 7.00015 9.24008 6.94744 9.14626 6.85362C9.05243 6.7598 8.99973 6.63256 8.99973 6.49987C8.99973 6.36719 9.05243 6.23994 9.14626 6.14612ZM13.3963 10.4036L10.4519 9.08425L10.4438 9.0805C10.2909 9.01512 10.1242 8.98888 9.95861 9.00416C9.79306 9.01944 9.63394 9.07575 9.49563 9.168C9.47935 9.17875 9.46369 9.19044 9.44876 9.203L7.92938 10.4999C6.96563 10.0317 5.97063 9.04425 5.50251 8.093L6.80126 6.54862C6.81376 6.533 6.82563 6.51737 6.83688 6.5005C6.92715 6.36256 6.98192 6.20445 6.99631 6.04023C7.0107 5.87601 6.98428 5.71078 6.91938 5.55925V5.55175L5.59626 2.60237C5.51047 2.40441 5.36296 2.23951 5.17575 2.13227C4.98854 2.02504 4.77166 1.98122 4.55751 2.00737C3.71061 2.11882 2.93324 2.53473 2.37059 3.17743C1.80794 3.82014 1.49847 4.64568 1.50001 5.49987C1.50001 10.4624 5.53751 14.4999 10.5 14.4999C11.3542 14.5014 12.1797 14.1919 12.8224 13.6293C13.4651 13.0666 13.8811 12.2893 13.9925 11.4424C14.0187 11.2283 13.975 11.0115 13.8679 10.8243C13.7607 10.6371 13.596 10.4895 13.3981 10.4036H13.3963Z" fill="black"/>
</g>
<defs>
<clipPath id="clip0_5_1147">
<rect width="16" height="16" fill="white"/>
</clipPath>
</defs>
</svg>
