<svg width="16" height="16" viewBox="0 0 16 16" fill="none" xmlns="http://www.w3.org/2000/svg">
<g clip-path="url(#clip0_5_1358)">
<path d="M9.01688 2.8705C9.03385 2.80704 9.06316 2.74755 9.10313 2.69543C9.14311 2.64331 9.19296 2.59957 9.24984 2.56672C9.30672 2.53387 9.36951 2.51254 9.43464 2.50397C9.49976 2.4954 9.56594 2.49974 9.62938 2.51675C10.5563 2.75859 11.402 3.24315 12.0794 3.92052C12.7567 4.59789 13.2413 5.44358 13.4831 6.3705C13.5001 6.43394 13.5045 6.50012 13.4959 6.56524C13.4873 6.63037 13.466 6.69316 13.4332 6.75004C13.4003 6.80692 13.3566 6.85677 13.3044 6.89675C13.2523 6.93672 13.1928 6.96603 13.1294 6.983C13.0871 6.99409 13.0437 6.99976 13 6.99987C12.8899 6.99991 12.7829 6.9636 12.6955 6.89659C12.6082 6.82957 12.5454 6.7356 12.5169 6.62925C12.3197 5.87246 11.9243 5.18195 11.3714 4.6289C10.8184 4.07586 10.128 3.68029 9.37126 3.483C9.30774 3.46609 9.24819 3.43683 9.196 3.39689C9.1438 3.35695 9.1 3.30711 9.06708 3.25022C9.03417 3.19333 9.01279 3.13051 9.00418 3.06536C8.99557 3.0002 8.99988 2.93399 9.01688 2.8705ZM8.87126 5.483C9.73313 5.713 10.2869 6.26737 10.5169 7.12925C10.5454 7.2356 10.6082 7.32957 10.6955 7.39659C10.7829 7.4636 10.8899 7.49991 11 7.49987C11.0437 7.49976 11.0871 7.49409 11.1294 7.483C11.1928 7.46603 11.2523 7.43672 11.3044 7.39675C11.3566 7.35677 11.4003 7.30692 11.4332 7.25004C11.466 7.19316 11.4873 7.13037 11.4959 7.06524C11.5045 7.00012 11.5001 6.93394 11.4831 6.8705C11.1631 5.673 10.3269 4.83675 9.12938 4.51675C9.00125 4.48252 8.86477 4.50059 8.74996 4.56699C8.63515 4.63339 8.55142 4.74268 8.51719 4.87081C8.48296 4.99894 8.50104 5.13543 8.56744 5.25023C8.63384 5.36504 8.74312 5.44877 8.87126 5.483ZM13.3981 10.4036L10.4538 9.08425L10.4456 9.0805C10.2928 9.01512 10.126 8.98888 9.96049 9.00416C9.79494 9.01944 9.63581 9.07575 9.49751 9.168C9.48122 9.17875 9.46557 9.19044 9.45063 9.203L7.92938 10.4999C6.96563 10.0317 5.97063 9.04425 5.50251 8.093L6.80126 6.54862C6.81376 6.533 6.82563 6.51737 6.83688 6.5005C6.92715 6.36256 6.98192 6.20445 6.99631 6.04023C7.0107 5.87601 6.98428 5.71078 6.91938 5.55925V5.55175L5.59626 2.60237C5.51047 2.40441 5.36296 2.23951 5.17575 2.13227C4.98854 2.02504 4.77166 1.98122 4.55751 2.00737C3.71061 2.11882 2.93324 2.53473 2.37059 3.17743C1.80794 3.82014 1.49847 4.64568 1.50001 5.49987C1.50001 10.4624 5.53751 14.4999 10.5 14.4999C11.3542 14.5014 12.1797 14.1919 12.8224 13.6293C13.4651 13.0666 13.8811 12.2893 13.9925 11.4424C14.0187 11.2283 13.975 11.0115 13.8679 10.8243C13.7607 10.6371 13.596 10.4895 13.3981 10.4036Z" fill="black"/>
</g>
<defs>
<clipPath id="clip0_5_1358">
<rect width="16" height="16" fill="white"/>
</clipPath>
</defs>
</svg>
