<svg width="16" height="16" viewBox="0 0 16 16" fill="none" xmlns="http://www.w3.org/2000/svg">
<g clip-path="url(#clip0_5_504)">
<path d="M9.14626 6.85362C9.09977 6.80719 9.06289 6.75204 9.03773 6.69134C9.01256 6.63064 8.99961 6.56558 8.99961 6.49987C8.99961 6.43417 9.01256 6.3691 9.03773 6.3084C9.06289 6.2477 9.09977 6.19256 9.14626 6.14612L11.2931 3.99987H10C9.8674 3.99987 9.74022 3.9472 9.64645 3.85343C9.55268 3.75966 9.50001 3.63248 9.50001 3.49987C9.50001 3.36727 9.55268 3.24009 9.64645 3.14632C9.74022 3.05255 9.8674 2.99987 10 2.99987H12.5C12.6326 2.99987 12.7598 3.05255 12.8536 3.14632C12.9473 3.24009 13 3.36727 13 3.49987V5.99987C13 6.13248 12.9473 6.25966 12.8536 6.35343C12.7598 6.4472 12.6326 6.49987 12.5 6.49987C12.3674 6.49987 12.2402 6.4472 12.1465 6.35343C12.0527 6.25966 12 6.13248 12 5.99987V4.70675L9.85376 6.85362C9.80732 6.90011 9.75218 6.93699 9.69148 6.96215C9.63078 6.98732 9.56571 7.00027 9.50001 7.00027C9.4343 7.00027 9.36923 6.98732 9.30854 6.96215C9.24784 6.93699 9.19269 6.90011 9.14626 6.85362ZM13.3963 10.4036L10.4519 9.08425L10.4438 9.0805C10.2909 9.01512 10.1242 8.98888 9.95861 9.00416C9.79306 9.01944 9.63394 9.07575 9.49563 9.168C9.47935 9.17875 9.46369 9.19044 9.44876 9.203L7.92938 10.4999C6.96563 10.0317 5.97063 9.04425 5.50251 8.093L6.80126 6.54862C6.81376 6.533 6.82563 6.51737 6.83688 6.5005C6.92715 6.36256 6.98192 6.20445 6.99631 6.04023C7.0107 5.87601 6.98428 5.71078 6.91938 5.55925V5.55175L5.59626 2.60237C5.51047 2.40441 5.36296 2.23951 5.17575 2.13227C4.98854 2.02504 4.77166 1.98122 4.55751 2.00737C3.71061 2.11882 2.93324 2.53473 2.37059 3.17743C1.80794 3.82014 1.49847 4.64568 1.50001 5.49987C1.50001 10.4624 5.53751 14.4999 10.5 14.4999C11.3542 14.5014 12.1797 14.1919 12.8224 13.6293C13.4651 13.0666 13.8811 12.2893 13.9925 11.4424C14.0187 11.2283 13.975 11.0115 13.8679 10.8243C13.7607 10.6371 13.596 10.4895 13.3981 10.4036H13.3963Z" fill="black"/>
</g>
<defs>
<clipPath id="clip0_5_504">
<rect width="16" height="16" fill="white"/>
</clipPath>
</defs>
</svg>
