<svg width="16" height="16" viewBox="0 0 16 16" fill="none" xmlns="http://www.w3.org/2000/svg">
<g clip-path="url(#clip0_5_782)">
<path d="M13.9925 11.4424C13.8811 12.2893 13.4651 13.0666 12.8224 13.6293C12.1797 14.1919 11.3542 14.5014 10.5 14.4999C5.53751 14.4999 1.50001 10.4624 1.50001 5.49987C1.49847 4.64568 1.80794 3.82014 2.37059 3.17743C2.93324 2.53473 3.71061 2.11882 4.55751 2.00737C4.77166 1.98122 4.98854 2.02504 5.17575 2.13227C5.36296 2.23951 5.51047 2.40441 5.59626 2.60237L6.91626 5.54925V5.55675C6.98194 5.70828 7.00906 5.87372 6.99521 6.0383C6.98136 6.20287 6.92696 6.36145 6.83688 6.49987C6.82563 6.51675 6.81376 6.53237 6.80126 6.548L5.50001 8.0905C5.96813 9.04175 6.96313 10.028 7.92688 10.4974L9.44813 9.203C9.46307 9.19044 9.47872 9.17875 9.49501 9.168C9.63331 9.07575 9.79244 9.01944 9.95799 9.00416C10.1235 8.98888 10.2903 9.01512 10.4431 9.0805L10.4513 9.08425L13.3956 10.4036C13.5939 10.4891 13.7592 10.6365 13.8668 10.8237C13.9744 11.011 14.0185 11.228 13.9925 11.4424ZM9.50001 6.99987H12C12.1326 6.99987 12.2598 6.9472 12.3536 6.85343C12.4473 6.75966 12.5 6.63248 12.5 6.49987C12.5 6.36727 12.4473 6.24009 12.3536 6.14632C12.2598 6.05255 12.1326 5.99987 12 5.99987H10.7075L12.8538 3.85362C12.9476 3.7598 13.0003 3.63256 13.0003 3.49987C13.0003 3.36719 12.9476 3.23994 12.8538 3.14612C12.7599 3.0523 12.6327 2.9996 12.5 2.9996C12.3673 2.9996 12.2401 3.0523 12.1463 3.14612L10 5.293V3.99987C10 3.86727 9.94733 3.74009 9.85356 3.64632C9.75979 3.55255 9.63261 3.49987 9.50001 3.49987C9.3674 3.49987 9.24022 3.55255 9.14645 3.64632C9.05268 3.74009 9.00001 3.86727 9.00001 3.99987V6.49987C9.00001 6.63248 9.05268 6.75966 9.14645 6.85343C9.24022 6.9472 9.3674 6.99987 9.50001 6.99987Z" fill="black"/>
</g>
<defs>
<clipPath id="clip0_5_782">
<rect width="16" height="16" fill="white"/>
</clipPath>
</defs>
</svg>
