<svg width="16" height="16" viewBox="0 0 16 16" fill="none" xmlns="http://www.w3.org/2000/svg">
<g clip-path="url(#clip0_5_501)">
<path d="M14.125 5.50488C14.1 5.44238 14.0737 5.37988 14.0469 5.31738C13.6436 4.3874 12.991 3.58707 12.1613 3.00488H13.5C13.6326 3.00488 13.7598 2.9522 13.8536 2.85844C13.9473 2.76467 14 2.63749 14 2.50488C14 2.37227 13.9473 2.2451 13.8536 2.15133C13.7598 2.05756 13.6326 2.00488 13.5 2.00488H7C5.61756 2.00664 4.28634 2.52823 3.27068 3.46608C2.25501 4.40394 1.6292 5.68946 1.5175 7.06738C1.0856 7.17475 0.70185 7.4231 0.426993 7.77312C0.152135 8.12314 0.00187595 8.55484 0 8.99988C0 9.13249 0.0526784 9.25967 0.146447 9.35344C0.240215 9.4472 0.367392 9.49988 0.5 9.49988C0.632608 9.49988 0.759785 9.4472 0.853553 9.35344C0.947322 9.25967 1 9.13249 1 8.99988C1.00012 8.81755 1.05008 8.63873 1.14449 8.48274C1.23889 8.32676 1.37415 8.19955 1.53562 8.11488C1.66008 9.23667 2.12784 10.2927 2.875 11.1386L3.66 13.3361C3.7294 13.5305 3.85724 13.6986 4.02598 13.8175C4.19473 13.9363 4.39611 14 4.6025 13.9999H5.3975C5.60378 13.9999 5.80503 13.9361 5.97365 13.8173C6.14227 13.6985 6.27001 13.5304 6.33938 13.3361L6.45937 12.9999H10.0406L10.1606 13.3361C10.23 13.5304 10.3577 13.6985 10.5264 13.8173C10.695 13.9361 10.8962 13.9999 11.1025 13.9999H11.8975C12.1038 13.9999 12.305 13.9361 12.4736 13.8173C12.6423 13.6985 12.77 13.5304 12.8394 13.3361L13.8525 10.4999H14C14.3978 10.4999 14.7794 10.3418 15.0607 10.0605C15.342 9.77924 15.5 9.39771 15.5 8.99988V6.99988C15.5001 6.62366 15.3587 6.26115 15.104 5.98424C14.8494 5.70733 14.4999 5.53623 14.125 5.50488ZM9.5 4.49988H7C6.86739 4.49988 6.74021 4.4472 6.64645 4.35344C6.55268 4.25967 6.5 4.13249 6.5 3.99988C6.5 3.86727 6.55268 3.7401 6.64645 3.64633C6.74021 3.55256 6.86739 3.49988 7 3.49988H9.5C9.63261 3.49988 9.75979 3.55256 9.85355 3.64633C9.94732 3.7401 10 3.86727 10 3.99988C10 4.13249 9.94732 4.25967 9.85355 4.35344C9.75979 4.4472 9.63261 4.49988 9.5 4.49988ZM11.25 7.99988C11.1017 7.99988 10.9567 7.9559 10.8333 7.87349C10.71 7.79107 10.6139 7.67394 10.5571 7.5369C10.5003 7.39985 10.4855 7.24905 10.5144 7.10356C10.5434 6.95808 10.6148 6.82444 10.7197 6.71955C10.8246 6.61466 10.9582 6.54323 11.1037 6.51429C11.2492 6.48535 11.4 6.50021 11.537 6.55697C11.6741 6.61374 11.7912 6.70987 11.8736 6.83321C11.956 6.95654 12 7.10155 12 7.24988C12 7.44879 11.921 7.63956 11.7803 7.78021C11.6397 7.92087 11.4489 7.99988 11.25 7.99988Z" fill="black"/>
</g>
<defs>
<clipPath id="clip0_5_501">
<rect width="16" height="16" fill="white"/>
</clipPath>
</defs>
</svg>
