<svg width="16" height="16" viewBox="0 0 16 16" fill="none" xmlns="http://www.w3.org/2000/svg">
<g clip-path="url(#clip0_5_1552)">
<path d="M15 12.2502C14.988 12.1054 14.9446 11.965 14.8728 11.8387C14.801 11.7124 14.7026 11.6033 14.5844 11.5189L12.2094 9.82203L13.2719 8.76266C13.5618 8.47522 13.7762 8.12066 13.8961 7.73044C14.0161 7.34021 14.0378 6.92642 13.9594 6.52578C13.6685 5.09779 12.8855 3.81727 11.7469 2.90766C10.5906 1.97683 9.14551 1.479 7.66125 1.50016C6.03577 1.52765 4.48455 2.1856 3.33499 3.33515C2.18544 4.48471 1.52749 6.03593 1.5 7.66141C1.48168 9.14382 1.97999 10.5864 2.90937 11.7414C3.81899 12.88 5.09951 13.663 6.5275 13.9539C6.92813 14.0323 7.34192 14.0105 7.73213 13.8906C8.12234 13.7707 8.47691 13.5563 8.76437 13.2664L9.82375 12.2039L11.5206 14.5789C11.6042 14.698 11.7128 14.7973 11.8388 14.8701C11.9648 14.9428 12.1051 14.9872 12.25 15.0002C12.2775 15.0002 12.305 15.0033 12.3325 15.0033C12.5977 15.0032 12.8519 14.8977 13.0394 14.7102L14.7044 13.0452C14.8089 12.9424 14.8896 12.8179 14.9406 12.6806C14.9917 12.5432 15.012 12.3962 15 12.2502ZM12.3375 14.0002L10.2981 11.1445C10.2559 11.0855 10.2013 11.0363 10.1382 11.0005C10.075 10.9647 10.0049 10.943 9.9325 10.937C9.91875 10.937 9.905 10.937 9.89125 10.937C9.82557 10.937 9.76052 10.9499 9.69982 10.975C9.63913 11.0001 9.58397 11.0369 9.5375 11.0833L8.06062 12.5602C7.88946 12.7339 7.67803 12.8626 7.44513 12.9349C7.21222 13.0072 6.96506 13.0208 6.72562 12.9745C6.46397 12.9222 6.2069 12.849 5.95687 12.7558L12.7569 5.95578C12.85 6.20584 12.9232 6.4629 12.9756 6.72453C13.0219 6.96397 13.0084 7.21115 12.9361 7.44406C12.8638 7.67698 12.735 7.88841 12.5612 8.05953L11.0812 9.53453C11.0298 9.58585 10.9902 9.64776 10.9652 9.71594C10.9401 9.78412 10.9302 9.85694 10.9362 9.92933C10.9421 10.0017 10.9638 10.072 10.9996 10.1351C11.0355 10.1983 11.0847 10.2529 11.1437 10.2952L14 12.3352L12.3375 14.0002Z" fill="black"/>
</g>
<defs>
<clipPath id="clip0_5_1552">
<rect width="16" height="16" fill="white"/>
</clipPath>
</defs>
</svg>
