<svg width="16" height="16" viewBox="0 0 16 16" fill="none" xmlns="http://www.w3.org/2000/svg">
<g clip-path="url(#clip0_5_500)">
<path d="M14.9999 8.04381C14.9761 11.5744 12.0961 14.4644 8.56614 14.4994C8.02 14.5052 7.47531 14.4422 6.94489 14.3119C6.91298 14.304 6.88296 14.2898 6.85654 14.2702C6.83012 14.2506 6.80782 14.226 6.79093 14.1978C6.77403 14.1696 6.76287 14.1383 6.75808 14.1058C6.75329 14.0732 6.75497 14.0401 6.76302 14.0082L7.30302 11.8488C7.82972 12.1128 8.41075 12.2502 8.99989 12.2501C11.3124 12.2501 13.1686 10.1594 12.988 7.66506C12.939 7.01764 12.7505 6.38848 12.4354 5.82079C12.1203 5.2531 11.6861 4.76031 11.1626 4.37627C10.6391 3.99222 10.0387 3.726 9.4026 3.5959C8.76649 3.46579 8.10977 3.47487 7.47751 3.62252C6.84524 3.77018 6.25242 4.0529 5.73974 4.45128C5.22705 4.84966 4.80664 5.35427 4.50738 5.93045C4.20811 6.50664 4.03707 7.14077 4.006 7.7893C3.97494 8.43783 4.08458 9.0854 4.32739 9.68756C4.35262 9.75038 4.39034 9.80742 4.43827 9.85523C4.48619 9.90303 4.54333 9.94061 4.60621 9.96568C4.66909 9.99075 4.7364 10.0028 4.80408 10.0011C4.87175 9.99936 4.93837 9.98391 4.99989 9.95568C5.11724 9.8988 5.20845 9.79929 5.25491 9.67745C5.30137 9.5556 5.29957 9.42062 5.24989 9.30006C5.06302 8.83142 4.97967 8.32792 5.00555 7.82407C5.03144 7.32021 5.16595 6.82791 5.39987 6.38089C5.63379 5.93387 5.96158 5.54271 6.3608 5.23421C6.76001 4.92571 7.2212 4.70717 7.71276 4.59355C8.20432 4.47993 8.71463 4.47393 9.20873 4.57596C9.70283 4.67799 10.169 4.88563 10.5754 5.18466C10.9817 5.48369 11.3186 5.86703 11.563 6.30842C11.8074 6.74982 11.9534 7.23882 11.9911 7.74193C12.1249 9.65006 10.733 11.2501 8.99989 11.2501C8.49019 11.2498 7.99019 11.1107 7.55364 10.8476L8.48489 7.12131C8.51451 6.99357 8.49277 6.85931 8.42434 6.74746C8.35592 6.6356 8.24629 6.5551 8.11908 6.5233C7.99187 6.4915 7.85726 6.51094 7.74425 6.57744C7.63124 6.64393 7.54887 6.75216 7.51489 6.87881L5.83614 13.5944C5.82703 13.631 5.80976 13.665 5.78564 13.694C5.76152 13.7229 5.73116 13.7461 5.69684 13.7616C5.66252 13.7772 5.62512 13.7848 5.58744 13.7839C5.54977 13.783 5.51279 13.7735 5.47927 13.7563C4.41891 13.1999 3.53287 12.3614 2.9189 11.3333C2.30493 10.3052 1.9869 9.12746 1.99989 7.93006C2.03739 4.40756 4.91677 1.53256 8.43739 1.50006C9.29993 1.49174 10.1555 1.65519 10.9542 1.98086C11.7529 2.30654 12.4789 2.78793 13.0897 3.39699C13.7005 4.00605 14.1839 4.73058 14.5119 5.52838C14.8398 6.32617 15.0057 7.18126 14.9999 8.04381Z" fill="black"/>
</g>
<defs>
<clipPath id="clip0_5_500">
<rect width="16" height="16" fill="white"/>
</clipPath>
</defs>
</svg>
