<svg width="16" height="16" viewBox="0 0 16 16" fill="none" xmlns="http://www.w3.org/2000/svg">
<g clip-path="url(#clip0_5_1128)">
<path d="M12.8752 1.66813C12.8281 1.61513 12.7704 1.57274 12.7057 1.54376C12.6411 1.51477 12.571 1.49986 12.5002 1.5H3.50017C3.42922 1.49998 3.35907 1.51505 3.2944 1.54423C3.22972 1.5734 3.172 1.61601 3.12506 1.66922C3.07812 1.72242 3.04304 1.78501 3.02215 1.85282C3.00127 1.92063 2.99505 1.99211 3.00392 2.0625L4.4508 14.125C4.48126 14.3668 4.599 14.5892 4.78188 14.7503C4.96476 14.9114 5.20019 15.0002 5.44392 15H10.5564C10.801 15.0001 11.0371 14.9105 11.2202 14.7482C11.4032 14.5859 11.5203 14.3622 11.5495 14.1194L12.9964 2.0625C13.0054 1.99192 12.9993 1.92023 12.9784 1.85222C12.9575 1.78421 12.9223 1.72145 12.8752 1.66813ZM11.9377 2.5L11.7564 4H4.24392L4.06267 2.5H11.9377Z" fill="black"/>
</g>
<defs>
<clipPath id="clip0_5_1128">
<rect width="16" height="16" fill="white"/>
</clipPath>
</defs>
</svg>
