<svg width="16" height="16" viewBox="0 0 16 16" fill="none" xmlns="http://www.w3.org/2000/svg">
<g clip-path="url(#clip0_5_1383)">
<path d="M14.3538 13.6462L11.3276 10.6206C11.3963 10.6 11.4645 10.5781 11.532 10.5537C12.4659 10.2136 13.2266 9.5165 13.6468 8.61575C14.0671 7.715 14.1126 6.68425 13.7732 5.75C13.7278 5.62546 13.6349 5.52403 13.5147 5.46801C13.3946 5.41199 13.2572 5.40596 13.1326 5.45125L10.3701 6.45625C10.3901 6.4175 10.4101 6.37875 10.4282 6.33875C10.7418 5.66678 10.8491 4.91693 10.7366 4.18398C10.6241 3.45103 10.2968 2.76789 9.79614 2.22091C9.29545 1.67393 8.64384 1.28767 7.92367 1.11096C7.20349 0.934255 6.4471 0.975026 5.75009 1.22812C5.6882 1.25034 5.6313 1.28455 5.58265 1.32879C5.534 1.37303 5.49456 1.42644 5.46658 1.48594C5.43859 1.54545 5.42262 1.60989 5.41958 1.67558C5.41654 1.74127 5.42648 1.80691 5.44884 1.86875L6.45447 4.6325C6.41509 4.6125 6.37634 4.59187 6.33634 4.57C5.66423 4.25681 4.91436 4.1499 4.1815 4.2628C3.44865 4.37569 2.76571 4.70332 2.21901 5.20426C1.67231 5.7052 1.2864 6.35698 1.11004 7.0772C0.933691 7.79743 0.974815 8.55377 1.22822 9.25062C1.27359 9.37516 1.36656 9.47659 1.48669 9.53261C1.60682 9.58863 1.74427 9.59466 1.86884 9.54937L4.63134 8.54375C4.61134 8.58312 4.59134 8.62187 4.57322 8.66187C4.26003 9.33399 4.15312 10.0839 4.26602 10.8167C4.37891 11.5496 4.70654 12.2325 5.20748 12.7792C5.70843 13.3259 6.3602 13.7118 7.08042 13.8882C7.80065 14.0645 8.55699 14.0234 9.25384 13.77C9.37838 13.7246 9.47981 13.6317 9.53583 13.5115C9.59185 13.3914 9.59788 13.2539 9.55259 13.1294L8.54759 10.3681C8.58634 10.3875 8.62509 10.4069 8.66509 10.425C9.10626 10.6316 9.58352 10.7501 10.0701 10.7737L13.6463 14.3506C13.7402 14.4444 13.8674 14.4972 14.0001 14.4972C14.1328 14.4972 14.26 14.4444 14.3538 14.3506C14.4477 14.2568 14.5004 14.1296 14.5004 13.9969C14.5004 13.8642 14.4477 13.7369 14.3538 13.6431V13.6462ZM6.81259 12.7419C6.35819 12.5302 5.97029 12.1984 5.69082 11.7822C5.41135 11.3661 5.25095 10.8814 5.22694 10.3807C5.20294 9.88003 5.31626 9.38229 5.55464 8.94131C5.79302 8.50034 6.1474 8.13291 6.57947 7.87875L8.42947 12.9619C7.88069 13.0554 7.31643 12.9786 6.81259 12.7419ZM9.52509 5.91375C9.29058 6.42026 8.90674 6.84292 8.42509 7.125L6.57447 2.03937C7.06881 1.95634 7.57644 2.01001 8.04249 2.19456C8.50854 2.37912 8.91529 2.68755 9.21876 3.08651C9.52223 3.48547 9.71088 3.95979 9.76432 4.4582C9.81776 4.95661 9.73396 5.46014 9.52197 5.91437L9.52509 5.91375Z" fill="black"/>
</g>
<defs>
<clipPath id="clip0_5_1383">
<rect width="16" height="16" fill="white"/>
</clipPath>
</defs>
</svg>
