<svg width="16" height="16" viewBox="0 0 16 16" fill="none" xmlns="http://www.w3.org/2000/svg">
<g clip-path="url(#clip0_5_1123)">
<path d="M13.7675 3.43761L13.7569 3.42699L10.9506 0.78449C10.7628 0.600041 10.5098 0.497117 10.2465 0.498053C9.98322 0.498989 9.73094 0.60371 9.54439 0.78949L6.76064 3.55449L6.66439 3.45699C6.36761 3.18659 5.97814 3.04081 5.57675 3.04989C5.17537 3.05896 4.79288 3.22219 4.50862 3.50573C4.22437 3.78926 4.06016 4.17133 4.05006 4.57269C4.03996 4.97405 4.18475 5.3639 4.45439 5.66136L4.54564 5.75386L3.29314 7.00011C3.20026 7.09298 3.12658 7.20323 3.07631 7.32457C3.02604 7.44591 3.00017 7.57596 3.00017 7.7073C3.00017 7.83864 3.02604 7.9687 3.07631 8.09004C3.12658 8.21138 3.20026 8.32163 3.29314 8.41449L4.08564 9.20699C4.27308 9.39381 4.52693 9.49872 4.79158 9.49872C5.05622 9.49872 5.31007 9.39381 5.49751 9.20699L6.74314 7.97886L7.50002 8.75011L3.45689 12.8357C3.30049 12.9781 3.1746 13.1507 3.08687 13.3431C2.99913 13.5355 2.95137 13.7437 2.94646 13.9551C2.94156 14.1666 2.97963 14.3768 3.05836 14.573C3.13708 14.7693 3.25483 14.9476 3.40447 15.097C3.55411 15.2464 3.73253 15.3639 3.92891 15.4424C4.12529 15.5208 4.33556 15.5586 4.54697 15.5534C4.75837 15.5482 4.96653 15.5001 5.15882 15.4121C5.35111 15.3241 5.52353 15.198 5.66564 15.0414L11.2075 9.45699C11.3945 9.26952 11.4996 9.01554 11.4996 8.75074C11.4996 8.48594 11.3945 8.23196 11.2075 8.04449L8.97689 5.79136L9.78502 5.00011L9.79127 5.00574L12.125 7.21261C12.313 7.39755 12.5665 7.50072 12.8302 7.49967C13.094 7.49861 13.3466 7.39342 13.5331 7.20699L13.765 6.97511C13.9972 6.74297 14.1813 6.46736 14.307 6.16404C14.4326 5.86072 14.4973 5.53562 14.4973 5.2073C14.4973 4.87899 14.4326 4.55389 14.307 4.25056C14.1813 3.94724 13.9972 3.67164 13.765 3.43949L13.7675 3.43761ZM4.79314 8.50011L4.00002 7.70824L5.25002 6.46574L6.04314 7.26949L4.79314 8.50011ZM13.0625 6.26761L12.8281 6.50011C12.8251 6.49648 12.8218 6.49313 12.8181 6.49011L10.4806 4.28136C10.2924 4.10006 10.0408 3.9994 9.77943 4.0008C9.51807 4.0022 9.26757 4.10556 9.08127 4.28886L8.27314 5.08074L7.46439 4.26449L10.25 1.50011L10.2606 1.51011L13.0656 4.15136C13.3447 4.43312 13.5009 4.81394 13.5 5.21052C13.499 5.60711 13.3411 5.98718 13.0606 6.26761H13.0625Z" fill="black"/>
</g>
<defs>
<clipPath id="clip0_5_1123">
<rect width="16" height="16" fill="white"/>
</clipPath>
</defs>
</svg>
