<svg width="16" height="16" viewBox="0 0 16 16" fill="none" xmlns="http://www.w3.org/2000/svg">
<g clip-path="url(#clip0_5_1370)">
<path d="M14.9713 3.93735C14.9405 3.80936 14.8846 3.68875 14.8068 3.58254C14.729 3.47632 14.6309 3.38661 14.5182 3.3186C12.552 2.12923 10.2979 1.50049 8.00005 1.50049C5.70216 1.50049 3.44806 2.12923 1.48192 3.3186C1.36952 3.38677 1.27166 3.47644 1.19395 3.58246C1.11623 3.68849 1.06018 3.8088 1.02901 3.93651C0.997837 4.06422 0.992151 4.19683 1.01228 4.32674C1.0324 4.45665 1.07794 4.58131 1.1463 4.6936L7.1463 14.523C7.23543 14.6699 7.36094 14.7914 7.5107 14.8757C7.66046 14.9601 7.82943 15.0043 8.0013 15.0043C8.17317 15.0043 8.34213 14.9601 8.4919 14.8757C8.64166 14.7914 8.76716 14.6699 8.8563 14.523L14.8563 4.6936C14.9247 4.5815 14.9701 4.45689 14.9899 4.32705C15.0096 4.19721 15.0033 4.06473 14.9713 3.93735ZM11.5275 8.22048C10.9718 7.96823 10.343 7.92799 9.75961 8.10734C9.17624 8.28669 8.67863 8.67324 8.36058 9.19413C8.04253 9.71502 7.92601 10.3343 8.03298 10.9351C8.13995 11.536 8.46302 12.077 8.9413 12.4561L8.00005 13.9999L6.0313 10.7767C6.35452 10.6311 6.64307 10.4183 6.87779 10.1527C7.11251 9.88696 7.28804 9.57438 7.39273 9.23567C7.49741 8.89695 7.52886 8.53985 7.48499 8.18805C7.44111 7.83625 7.32291 7.49781 7.13824 7.19518C6.95356 6.89256 6.70663 6.63267 6.41384 6.43277C6.12105 6.23287 5.78909 6.09753 5.43999 6.03573C5.0909 5.97393 4.73265 5.98709 4.38903 6.07433C4.0454 6.16157 3.72426 6.32089 3.44692 6.54173L3.05005 5.8911C4.54069 4.98118 6.25332 4.49978 7.99974 4.49978C9.74615 4.49978 11.4588 4.98118 12.9494 5.8911L11.5275 8.22048Z" fill="black"/>
</g>
<defs>
<clipPath id="clip0_5_1370">
<rect width="16" height="16" fill="white"/>
</clipPath>
</defs>
</svg>
