<svg width="16" height="16" viewBox="0 0 16 16" fill="none" xmlns="http://www.w3.org/2000/svg">
<g clip-path="url(#clip0_5_496)">
<path d="M15.3193 3.79253C14.8412 2.96815 13.5787 2.78253 11.6631 3.25128C10.7235 2.52755 9.59048 2.09851 8.4072 2.01836C7.22391 1.93821 6.04341 2.21053 5.01481 2.80094C3.98621 3.39135 3.15566 4.27335 2.62807 5.33553C2.10048 6.39772 1.89951 7.59244 2.05055 8.76878C0.318054 10.5625 0.343054 11.625 0.681179 12.2075C0.999929 12.76 1.66493 13 2.53993 13C3.14744 12.9875 3.75138 12.9036 4.3393 12.75C5.27878 13.4732 6.41143 13.9018 7.59428 13.9817C8.77713 14.0617 9.95716 13.7895 10.9854 13.1994C12.0137 12.6093 12.8441 11.7278 13.3718 10.6662C13.8995 9.60454 14.1009 8.41038 13.9506 7.2344C14.7324 6.4219 15.2524 5.65003 15.4293 4.9894C15.5518 4.5319 15.5149 4.1294 15.3193 3.79253ZM14.4637 4.73003C14.0818 6.15378 11.4231 8.3119 8.99368 9.70753C4.75555 12.145 1.89243 12.3025 1.54618 11.7075C1.45493 11.5507 1.50555 11.255 1.68493 10.895C1.86259 10.5581 2.07816 10.2425 2.32743 9.9544C2.43302 10.2599 2.56324 10.5563 2.7168 10.8407C2.74021 10.8854 2.77663 10.922 2.82126 10.9457C2.86588 10.9693 2.91663 10.9789 2.9668 10.9732C3.32438 10.9291 3.67839 10.8597 4.02618 10.7657C5.35305 10.4188 6.94055 9.73565 8.49618 8.8419C10.0518 7.94815 11.4337 6.92565 12.3993 5.95753C12.6534 5.7062 12.8896 5.43742 13.1062 5.15315C13.1363 5.11264 13.1534 5.06397 13.1553 5.01355C13.1572 4.96313 13.1437 4.91331 13.1168 4.87065C12.9484 4.59627 12.7582 4.33585 12.5481 4.0919C13.4362 3.94503 14.2587 3.95628 14.4543 4.2944C14.5118 4.39253 14.5149 4.5394 14.4637 4.73065V4.73003Z" fill="black"/>
</g>
<defs>
<clipPath id="clip0_5_496">
<rect width="16" height="16" fill="white"/>
</clipPath>
</defs>
</svg>
