<svg width="16" height="16" viewBox="0 0 16 16" fill="none" xmlns="http://www.w3.org/2000/svg">
<g clip-path="url(#clip0_5_481)">
<path d="M5.53561 2.18759C5.48588 2.06443 5.48711 1.92656 5.53904 1.80431C5.59096 1.68206 5.68932 1.58544 5.81248 1.53572C5.93564 1.48599 6.07351 1.48722 6.19576 1.53915C6.31801 1.59107 6.41463 1.68943 6.46436 1.81259L6.96436 3.06259C6.98898 3.12357 7.00135 3.18881 7.00076 3.25457C7.00017 3.32034 6.98664 3.38534 6.96093 3.44587C6.93522 3.5064 6.89783 3.56128 6.85092 3.60736C6.804 3.65345 6.74846 3.68984 6.68748 3.71447C6.6265 3.73909 6.56126 3.75146 6.4955 3.75087C6.42974 3.75028 6.36473 3.73675 6.3042 3.71104C6.24367 3.68533 6.18879 3.64794 6.14271 3.60103C6.09662 3.55411 6.06023 3.49857 6.03561 3.43759L5.53561 2.18759ZM1.81248 6.46447L3.06248 6.96447C3.12346 6.98909 3.1887 7.00146 3.25446 7.00087C3.32023 7.00028 3.38523 6.98675 3.44576 6.96104C3.50629 6.93533 3.56117 6.89794 3.60725 6.85103C3.65334 6.80411 3.68973 6.74857 3.71436 6.68759C3.73898 6.62661 3.75135 6.56137 3.75076 6.49561C3.75017 6.42985 3.73664 6.36484 3.71093 6.30431C3.68522 6.24378 3.64783 6.1889 3.60092 6.14282C3.554 6.09673 3.49846 6.06034 3.43748 6.03572L2.18748 5.53572C2.06432 5.48599 1.92645 5.48722 1.8042 5.53915C1.68195 5.59107 1.58533 5.68943 1.53561 5.81259C1.48588 5.93575 1.48711 6.07362 1.53904 6.19587C1.59096 6.31812 1.68932 6.41474 1.81248 6.46447ZM14.1875 9.53572L12.9375 9.03572C12.8143 8.98599 12.6765 8.98722 12.5542 9.03915C12.432 9.09107 12.3353 9.18943 12.2856 9.31259C12.2359 9.43575 12.2371 9.57362 12.289 9.69587C12.341 9.81812 12.4393 9.91474 12.5625 9.96447L13.8125 10.4645C13.9356 10.5142 14.0735 10.513 14.1958 10.461C14.318 10.4091 14.4146 10.3108 14.4644 10.1876C14.5141 10.0644 14.5128 9.92656 14.4609 9.80431C14.409 9.68206 14.3106 9.58544 14.1875 9.53572ZM9.96436 12.5626C9.91463 12.4394 9.81801 12.3411 9.69576 12.2891C9.57351 12.2372 9.43564 12.236 9.31248 12.2857C9.18932 12.3354 9.09096 12.4321 9.03904 12.5543C8.98711 12.6766 8.98588 12.8144 9.03561 12.9376L9.53561 14.1876C9.58533 14.3108 9.68195 14.4091 9.8042 14.461C9.92645 14.513 10.0643 14.5142 10.1875 14.4645C10.3106 14.4147 10.409 14.3181 10.4609 14.1959C10.5128 14.0736 10.5141 13.9358 10.4644 13.8126L9.96436 12.5626ZM14.8694 1.15759C14.8235 1.10865 14.7683 1.06945 14.7069 1.0423C14.6456 1.01515 14.5794 1.00062 14.5124 0.999573C14.4453 0.998523 14.3787 1.01098 14.3166 1.03619C14.2544 1.0614 14.198 1.09886 14.1506 1.14634L10.875 4.42197L10.5387 4.08572C10.353 3.89976 10.1324 3.75224 9.88961 3.6516C9.64682 3.55095 9.38656 3.49914 9.12373 3.49914C8.8609 3.49914 8.60065 3.55095 8.35785 3.6516C8.11505 3.75224 7.89448 3.89976 7.70873 4.08572L6.63373 5.15884C6.61049 5.18206 6.59205 5.20963 6.57947 5.23998C6.56688 5.27033 6.56041 5.30286 6.56041 5.33572C6.56041 5.36857 6.56688 5.4011 6.57947 5.43145C6.59205 5.4618 6.61049 5.48937 6.63373 5.51259L10.49 9.36634C10.5132 9.38958 10.5408 9.40802 10.5711 9.42061C10.6015 9.43319 10.634 9.43966 10.6669 9.43966C10.6997 9.43966 10.7322 9.43319 10.7626 9.42061C10.7929 9.40802 10.8205 9.38958 10.8437 9.36634L11.89 8.32009C12.2692 7.9482 12.489 7.44352 12.5031 6.91259C12.5083 6.64418 12.4591 6.3775 12.3584 6.12862C12.2578 5.87975 12.1078 5.65382 11.9175 5.46447L11.5812 5.12884L14.8437 1.86822C14.9388 1.77593 14.9946 1.65048 14.9994 1.51805C15.0041 1.38563 14.9576 1.25648 14.8694 1.15759ZM5.35248 5.64634C5.30512 5.59896 5.24872 5.56158 5.18663 5.53643C5.12453 5.51127 5.05802 5.49885 4.99104 5.4999C4.92405 5.50095 4.85796 5.51545 4.79669 5.54253C4.73542 5.56962 4.68021 5.60875 4.63436 5.65759C4.54616 5.75648 4.49958 5.88563 4.50436 6.01805C4.50913 6.15048 4.56489 6.27593 4.65998 6.36822L5.04186 6.75009L4.08373 7.70697C3.89384 7.89641 3.74424 8.1223 3.64392 8.37106C3.5436 8.61981 3.49464 8.88629 3.49998 9.15447C3.51318 9.68527 3.73213 10.1902 4.11061 10.5626L4.42311 10.8713L1.15561 14.1332C1.06341 14.223 1.00832 14.3442 1.00126 14.4727C0.9942 14.6012 1.03568 14.7276 1.11748 14.827C1.1624 14.8791 1.21759 14.9214 1.27961 14.9512C1.34162 14.981 1.40911 14.9977 1.47787 15.0002C1.54662 15.0027 1.61516 14.991 1.67919 14.9658C1.74322 14.9406 1.80136 14.9025 1.84998 14.8538L5.12498 11.5782L5.46061 11.9145C5.83658 12.2887 6.34545 12.4988 6.87592 12.4988C7.40638 12.4988 7.91526 12.2887 8.29123 11.9145L9.24998 10.957L9.64623 11.3538C9.69269 11.4003 9.74784 11.4371 9.80853 11.4623C9.86923 11.4874 9.93428 11.5004 9.99998 11.5004C10.0657 11.5004 10.1307 11.4874 10.1914 11.4623C10.2521 11.4371 10.3073 11.4003 10.3537 11.3538C10.4002 11.3074 10.437 11.2522 10.4622 11.1915C10.4873 11.1308 10.5003 11.0658 10.5003 11.0001C10.5003 10.9344 10.4873 10.8693 10.4622 10.8086C10.437 10.7479 10.4002 10.6928 10.3537 10.6463L5.35248 5.64634Z" fill="black"/>
</g>
<defs>
<clipPath id="clip0_5_481">
<rect width="16" height="16" fill="white"/>
</clipPath>
</defs>
</svg>
