<svg width="16" height="16" viewBox="0 0 16 16" fill="none" xmlns="http://www.w3.org/2000/svg">
<g clip-path="url(#clip0_5_479)">
<path d="M9.35378 9.35365L8.20691 10.4999L9.35378 11.6462C9.40024 11.6926 9.43709 11.7478 9.46223 11.8085C9.48737 11.8692 9.50031 11.9342 9.50031 11.9999C9.50031 12.0656 9.48737 12.1307 9.46223 12.1914C9.43709 12.252 9.40024 12.3072 9.35378 12.3537C9.30733 12.4001 9.25218 12.437 9.19148 12.4621C9.13079 12.4872 9.06573 12.5002 9.00003 12.5002C8.93434 12.5002 8.86928 12.4872 8.80859 12.4621C8.74789 12.437 8.69274 12.4001 8.64628 12.3537L8.25003 11.9568L6.79316 13.4143C6.41759 13.7885 5.90899 13.9987 5.37878 13.9987C4.84858 13.9987 4.33998 13.7885 3.96441 13.4143L3.62878 13.078L1.85378 14.8537C1.80733 14.9001 1.75218 14.937 1.69148 14.9621C1.63079 14.9872 1.56573 15.0002 1.50003 15.0002C1.43434 15.0002 1.36928 14.9872 1.30859 14.9621C1.24789 14.937 1.19274 14.9001 1.14628 14.8537C1.09983 14.8072 1.06298 14.752 1.03784 14.6914C1.0127 14.6307 0.999756 14.5656 0.999756 14.4999C0.999756 14.4342 1.0127 14.3692 1.03784 14.3085C1.06298 14.2478 1.09983 14.1926 1.14628 14.1462L2.92191 12.3712L2.58566 12.0355C2.39989 11.8498 2.25253 11.6293 2.152 11.3866C2.05146 11.1439 1.99971 10.8838 1.99971 10.6212C1.99971 10.3585 2.05146 10.0984 2.152 9.85568C2.25253 9.613 2.39989 9.3925 2.58566 9.20678L4.04316 7.74991L3.64628 7.35366C3.55246 7.25984 3.49976 7.13259 3.49976 6.99991C3.49976 6.86722 3.55246 6.73998 3.64628 6.64616C3.7401 6.55233 3.86735 6.49963 4.00003 6.49963C4.13272 6.49963 4.25996 6.55233 4.35378 6.64615L5.50003 7.79303L6.64628 6.64615C6.7401 6.55233 6.86735 6.49963 7.00003 6.49963C7.13272 6.49963 7.25996 6.55233 7.35378 6.64615C7.4476 6.73997 7.50031 6.86722 7.50031 6.99991C7.50031 7.13259 7.4476 7.25984 7.35378 7.35366L6.20691 8.49991L7.50003 9.79303L8.64628 8.64615C8.7401 8.55233 8.86735 8.49963 9.00003 8.49963C9.13272 8.49963 9.25996 8.55233 9.35378 8.64615C9.44761 8.73997 9.50031 8.86722 9.50031 8.9999C9.50031 9.13259 9.44761 9.25983 9.35378 9.35365ZM14.8538 1.14616C14.8073 1.09967 14.7522 1.06279 14.6915 1.03763C14.6308 1.01246 14.5657 0.999512 14.5 0.999512C14.4343 0.999512 14.3693 1.01246 14.3086 1.03763C14.2479 1.06279 14.1927 1.09967 14.1463 1.14616L12.3713 2.92178L12.0357 2.58553C11.6602 2.21112 11.1515 2.00087 10.6213 2.00087C10.091 2.00087 9.5824 2.21112 9.20691 2.58553L7.75003 4.04303L7.35378 3.64616C7.25996 3.55233 7.13272 3.49963 7.00003 3.49963C6.86735 3.49963 6.7401 3.55233 6.64628 3.64616C6.55246 3.73998 6.49976 3.86722 6.49976 3.99991C6.49976 4.13259 6.55246 4.25984 6.64628 4.35366L11.6463 9.35365C11.6927 9.40011 11.7479 9.43696 11.8086 9.4621C11.8693 9.48724 11.9343 9.50018 12 9.50018C12.0657 9.50018 12.1308 9.48724 12.1915 9.4621C12.2522 9.43696 12.3073 9.40011 12.3538 9.35365C12.4002 9.3072 12.4371 9.25205 12.4622 9.19135C12.4874 9.13066 12.5003 9.0656 12.5003 8.9999C12.5003 8.93421 12.4874 8.86915 12.4622 8.80846C12.4371 8.74776 12.4002 8.69261 12.3538 8.64615L11.9569 8.24991L13.4144 6.79303C13.6002 6.60731 13.7475 6.38681 13.8481 6.14413C13.9486 5.90145 14.0004 5.64134 14.0004 5.37865C14.0004 5.11597 13.9486 4.85586 13.8481 4.61318C13.7475 4.3705 13.6002 4.15 13.4144 3.96428L13.0782 3.62866L14.8538 1.85366C14.9003 1.80722 14.9372 1.75207 14.9623 1.69138C14.9875 1.63068 15.0004 1.56561 15.0004 1.49991C15.0004 1.4342 14.9875 1.36913 14.9623 1.30843C14.9372 1.24774 14.9003 1.19259 14.8538 1.14616Z" fill="black"/>
</g>
<defs>
<clipPath id="clip0_5_479">
<rect width="16" height="16" fill="white"/>
</clipPath>
</defs>
</svg>
