<svg width="16" height="16" viewBox="0 0 16 16" fill="none" xmlns="http://www.w3.org/2000/svg">
<g clip-path="url(#clip0_5_1266)">
<path d="M12.4549 9.36267C12.391 8.91189 12.2586 8.47351 12.0624 8.06267C13.2499 5.69142 13.9655 2.54517 13.1462 1.18767C13.0237 0.975422 12.8467 0.79977 12.6335 0.678896C12.4203 0.558021 12.1787 0.496317 11.9337 0.50017C11.0512 0.50017 10.3087 1.2433 9.65617 2.77267C9.26742 3.68642 8.97805 4.73017 8.78117 5.56892C8.26435 5.47755 7.7355 5.47755 7.21867 5.56892C7.02305 4.73017 6.73367 3.68642 6.34367 2.77267C5.69367 1.2433 4.94867 0.50017 4.06617 0.50017C3.82044 0.496594 3.57823 0.558946 3.36477 0.680736C3.15131 0.802527 2.97439 0.979304 2.85242 1.19267C2.03305 2.54767 2.74992 5.69392 3.93742 8.06267C3.74188 8.47279 3.60995 8.91031 3.54617 9.36017C2.91827 9.95077 2.55071 10.7666 2.52434 11.6282C2.49796 12.4898 2.81495 13.3266 3.40555 13.9545C3.99615 14.5824 4.812 14.95 5.67361 14.9764C6.53522 15.0028 7.37202 14.6858 7.99992 14.0952L6.67992 12.8845C6.57798 12.7997 6.51393 12.6778 6.50186 12.5457C6.48978 12.4136 6.53068 12.2821 6.61555 12.1802C6.70042 12.0782 6.82231 12.0142 6.9544 12.0021C7.0865 11.99 7.21798 12.0309 7.31992 12.1158L7.99992 12.6814L8.67992 12.1158C8.78187 12.0309 8.91335 11.99 9.04544 12.0021C9.17754 12.0142 9.29943 12.0782 9.3843 12.1802C9.46917 12.2821 9.51006 12.4136 9.49799 12.5457C9.48592 12.6778 9.42187 12.7997 9.31992 12.8845L7.99992 14.0952C8.30948 14.3939 8.67526 14.6281 9.07605 14.7844C9.47683 14.9406 9.90465 15.0158 10.3347 15.0054C10.7647 14.9951 11.1884 14.8995 11.5813 14.7242C11.9741 14.5488 12.3282 14.2973 12.623 13.984C12.9179 13.6708 13.1476 13.3022 13.2989 12.8995C13.4502 12.4968 13.5201 12.0681 13.5044 11.6382C13.4888 11.2084 13.388 10.7859 13.2078 10.3952C13.0277 10.0046 12.7718 9.65364 12.4549 9.36267ZM4.57992 7.07954C4.16367 6.15478 3.85175 5.18651 3.64992 4.19267C3.4318 3.05955 3.45305 2.13017 3.70805 1.71017C3.74043 1.64379 3.79169 1.58845 3.8554 1.55109C3.91911 1.51373 3.99243 1.49602 4.06617 1.50017C4.4793 1.50017 4.97367 2.10642 5.42367 3.16392C5.7943 4.03517 6.07055 5.04642 6.2568 5.85142C5.60827 6.12316 5.03277 6.54365 4.5768 7.07892L4.57992 7.07954ZM6.24992 11.0002C6.10159 11.0002 5.95658 10.9562 5.83325 10.8738C5.70991 10.7914 5.61378 10.6742 5.55701 10.5372C5.50025 10.4001 5.4854 10.2493 5.51434 10.1039C5.54327 9.95837 5.6147 9.82473 5.71959 9.71984C5.82448 9.61495 5.95812 9.54352 6.10361 9.51458C6.24909 9.48564 6.39989 9.50049 6.53694 9.55726C6.67398 9.61403 6.79112 9.71016 6.87353 9.83349C6.95594 9.95683 6.99992 10.1018 6.99992 10.2502C6.99992 10.4491 6.92091 10.6398 6.78025 10.7805C6.6396 10.9212 6.44884 11.0002 6.24992 11.0002ZM9.74992 11.0002C9.60159 11.0002 9.45658 10.9562 9.33325 10.8738C9.20991 10.7914 9.11378 10.6742 9.05701 10.5372C9.00025 10.4001 8.9854 10.2493 9.01434 10.1039C9.04327 9.95837 9.11471 9.82473 9.21959 9.71984C9.32448 9.61495 9.45812 9.54352 9.60361 9.51458C9.74909 9.48564 9.89989 9.50049 10.0369 9.55726C10.174 9.61403 10.2911 9.71016 10.3735 9.83349C10.4559 9.95683 10.4999 10.1018 10.4999 10.2502C10.4999 10.4491 10.4209 10.6398 10.2803 10.7805C10.1396 10.9212 9.94884 11.0002 9.74992 11.0002ZM11.0343 6.67704C10.6543 6.33014 10.2175 6.05108 9.74305 5.85204C9.93055 5.04642 10.2055 4.03517 10.5762 3.16455C11.0262 2.10642 11.5205 1.50017 11.9337 1.50017C12.0074 1.49602 12.0807 1.51373 12.1444 1.55109C12.2082 1.58845 12.2594 1.64379 12.2918 1.71017C12.5468 2.13142 12.5681 3.05955 12.3499 4.19267C12.1491 5.18639 11.8382 6.15465 11.423 7.07954C11.3019 6.93751 11.172 6.80309 11.0343 6.67704Z" fill="black"/>
</g>
<defs>
<clipPath id="clip0_5_1266">
<rect width="16" height="16" fill="white"/>
</clipPath>
</defs>
</svg>
