<svg width="16" height="16" viewBox="0 0 16 16" fill="none" xmlns="http://www.w3.org/2000/svg">
<g clip-path="url(#clip0_5_443)">
<path d="M14.3752 1.62819C12.6252 -0.11744 9.47079 0.19756 7.33766 2.33131C5.35079 4.31819 4.94204 7.19193 6.30579 8.98693L4.45829 10.8344L4.41579 10.7919C4.32291 10.699 4.21263 10.6252 4.09123 10.5749C3.96983 10.5246 3.8397 10.4986 3.70829 10.4986C3.57687 10.4986 3.44674 10.5246 3.32535 10.5749C3.20395 10.6252 3.09366 10.699 3.00079 10.7919L1.29329 12.5001C1.20031 12.5929 1.12655 12.7032 1.07623 12.8246C1.0259 12.946 1 13.0761 1 13.2076C1 13.339 1.0259 13.4691 1.07623 13.5905C1.12655 13.7119 1.20031 13.8222 1.29329 13.9151L2.08641 14.7082C2.17927 14.8011 2.28952 14.8747 2.41086 14.925C2.5322 14.9753 2.66226 15.0012 2.7936 15.0012C2.92494 15.0012 3.05499 14.9753 3.17634 14.925C3.29768 14.8747 3.40792 14.8011 3.50079 14.7082L5.20891 13.0001C5.30179 12.9072 5.37547 12.7969 5.42574 12.6756C5.47601 12.5543 5.50189 12.4242 5.50189 12.2929C5.50189 12.1615 5.47601 12.0315 5.42574 11.9101C5.37547 11.7888 5.30179 11.6785 5.20891 11.5857L5.16579 11.5426L7.01329 9.69506C7.71891 10.2313 8.59079 10.4944 9.51329 10.4944C10.9333 10.4944 12.4664 9.86944 13.672 8.66319C15.802 6.52944 16.1177 3.37506 14.3752 1.62819ZM14.0145 6.50006H12.5039V4.50006H14.5039C14.4965 5.19546 14.3291 5.87982 14.0145 6.50006ZM8.50016 9.35069C8.06262 9.21949 7.66448 8.98173 7.34149 8.65874C7.01849 8.33574 6.78073 7.9376 6.64954 7.50006H8.50016V9.35069ZM6.50016 6.50006C6.50765 5.80445 6.67577 5.11998 6.99141 4.50006H8.50016V6.50006H6.50016ZM9.50016 4.50006H11.5002V6.50006H9.50016V4.50006ZM14.3545 3.50006H12.5039V1.64256C12.9422 1.774 13.341 2.01217 13.6645 2.33571C13.9881 2.65925 14.2262 3.05804 14.3577 3.49631L14.3545 3.50006ZM11.4908 1.50006H11.5008V3.50006H9.50079V1.98506C10.1188 1.67093 10.8007 1.50287 11.4939 1.49381L11.4908 1.50006ZM8.50016 2.62881V3.49631H7.63516C7.76337 3.33643 7.90024 3.1837 8.04516 3.03881C8.18953 2.89426 8.34141 2.7574 8.50016 2.62881ZM9.50016 9.49881V7.50006H11.5002V9.01006C10.8811 9.3248 10.1977 9.49248 9.50329 9.50006L9.50016 9.49881ZM12.5002 8.36506V7.50006H13.3752C13.2468 7.65979 13.1099 7.81251 12.9652 7.95756C12.819 8.10174 12.665 8.23778 12.5039 8.36506H12.5002Z" fill="black"/>
</g>
<defs>
<clipPath id="clip0_5_443">
<rect width="16" height="16" fill="white"/>
</clipPath>
</defs>
</svg>
