<svg width="16" height="16" viewBox="0 0 16 16" fill="none" xmlns="http://www.w3.org/2000/svg">
<g clip-path="url(#clip0_5_441)">
<path d="M13.5 3.99985H5.40688L12.1438 1.97923C12.2708 1.9411 12.3775 1.85407 12.4404 1.73727C12.5033 1.62047 12.5172 1.48347 12.4791 1.35642C12.4409 1.22936 12.3539 1.12265 12.2371 1.05977C12.1203 0.996888 11.9833 0.982978 11.8562 1.0211L1.85625 4.0211C1.7533 4.05201 1.66304 4.11527 1.59887 4.2015C1.5347 4.28774 1.50003 4.39236 1.5 4.49985V11.9999C1.5 12.2651 1.60536 12.5194 1.79289 12.707C1.98043 12.8945 2.23478 12.9999 2.5 12.9999H13.5C13.7652 12.9999 14.0196 12.8945 14.2071 12.707C14.3946 12.5194 14.5 12.2651 14.5 11.9999V4.99985C14.5 4.73464 14.3946 4.48028 14.2071 4.29275C14.0196 4.10521 13.7652 3.99985 13.5 3.99985ZM6.5 10.9999H4C3.86739 10.9999 3.74021 10.9472 3.64645 10.8534C3.55268 10.7596 3.5 10.6325 3.5 10.4999C3.5 10.3672 3.55268 10.2401 3.64645 10.1463C3.74021 10.0525 3.86739 9.99985 4 9.99985H6.5C6.63261 9.99985 6.75979 10.0525 6.85355 10.1463C6.94732 10.2401 7 10.3672 7 10.4999C7 10.6325 6.94732 10.7596 6.85355 10.8534C6.75979 10.9472 6.63261 10.9999 6.5 10.9999ZM6.5 8.99985H4C3.86739 8.99985 3.74021 8.94718 3.64645 8.85341C3.55268 8.75964 3.5 8.63246 3.5 8.49985C3.5 8.36724 3.55268 8.24007 3.64645 8.1463C3.74021 8.05253 3.86739 7.99985 4 7.99985H6.5C6.63261 7.99985 6.75979 8.05253 6.85355 8.1463C6.94732 8.24007 7 8.36724 7 8.49985C7 8.63246 6.94732 8.75964 6.85355 8.85341C6.75979 8.94718 6.63261 8.99985 6.5 8.99985ZM6.5 6.99985H4C3.86739 6.99985 3.74021 6.94717 3.64645 6.85341C3.55268 6.75964 3.5 6.63246 3.5 6.49985C3.5 6.36724 3.55268 6.24007 3.64645 6.1463C3.74021 6.05253 3.86739 5.99985 4 5.99985H6.5C6.63261 5.99985 6.75979 6.05253 6.85355 6.1463C6.94732 6.24007 7 6.36724 7 6.49985C7 6.63246 6.94732 6.75964 6.85355 6.85341C6.75979 6.94717 6.63261 6.99985 6.5 6.99985ZM10.5 10.4999C10.1044 10.4999 9.71776 10.3826 9.38886 10.1628C9.05996 9.94303 8.80362 9.63067 8.65224 9.26522C8.50087 8.89977 8.46126 8.49763 8.53843 8.10967C8.6156 7.72171 8.80608 7.36534 9.08579 7.08564C9.36549 6.80593 9.72186 6.61545 10.1098 6.53828C10.4978 6.46111 10.8999 6.50072 11.2654 6.65209C11.6308 6.80347 11.9432 7.05981 12.1629 7.38871C12.3827 7.71761 12.5 8.10429 12.5 8.49985C12.5 9.03029 12.2893 9.53899 11.9142 9.91407C11.5391 10.2891 11.0304 10.4999 10.5 10.4999Z" fill="black"/>
</g>
<defs>
<clipPath id="clip0_5_441">
<rect width="16" height="16" fill="white"/>
</clipPath>
</defs>
</svg>
