<svg width="16" height="16" viewBox="0 0 16 16" fill="none" xmlns="http://www.w3.org/2000/svg">
<g clip-path="url(#clip0_5_1164)">
<path d="M6.00006 12.9999C6.00006 13.1325 5.94739 13.2597 5.85362 13.3534C5.75985 13.4472 5.63267 13.4999 5.50006 13.4999H2.50006C2.23684 13.4997 1.97829 13.4303 1.75038 13.2986C1.52248 13.1669 1.33325 12.9775 1.20171 12.7495C1.07017 12.5215 1.00094 12.2629 1.00098 11.9997C1.00102 11.7364 1.07032 11.4778 1.20194 11.2499L2.95194 8.23114L2.08819 7.73114C2.00163 7.68209 1.93167 7.60833 1.88726 7.5193C1.84285 7.43027 1.82601 7.33002 1.8389 7.23136C1.85178 7.13271 1.89381 7.04014 1.95959 6.96551C2.02538 6.89087 2.11193 6.83756 2.20819 6.81239L4.25631 6.26426C4.31976 6.24725 4.38593 6.24291 4.45106 6.25148C4.51618 6.26006 4.57898 6.28138 4.63586 6.31423C4.69274 6.34708 4.74259 6.39082 4.78256 6.44294C4.82253 6.49507 4.85184 6.55456 4.86881 6.61801L5.41819 8.66614C5.44383 8.76168 5.44056 8.86269 5.40878 8.95638C5.37699 9.05006 5.31813 9.13222 5.23965 9.19244C5.16116 9.25266 5.06657 9.28824 4.96785 9.29469C4.86913 9.30113 4.77071 9.27814 4.68506 9.22864L3.81756 8.72864L2.06944 11.7499C2.02565 11.8257 2.00255 11.9117 2.00245 11.9993C2.00234 12.0869 2.02524 12.1729 2.06884 12.2489C2.11244 12.3248 2.17522 12.388 2.2509 12.432C2.32658 12.4761 2.4125 12.4995 2.50006 12.4999H5.50006C5.63267 12.4999 5.75985 12.5526 5.85362 12.6463C5.94739 12.7401 6.00006 12.8673 6.00006 12.9999ZM14.7957 11.2499L13.3494 8.74989C13.2803 8.64105 13.1717 8.56316 13.0464 8.53248C12.9212 8.5018 12.7889 8.5207 12.6773 8.58524C12.5656 8.64978 12.4832 8.75496 12.4473 8.87881C12.4113 9.00267 12.4247 9.13562 12.4844 9.24989L13.9307 11.7499C13.9745 11.8257 13.9976 11.9117 13.9977 11.9993C13.9978 12.0869 13.9749 12.1729 13.9313 12.2489C13.8877 12.3248 13.8249 12.388 13.7492 12.432C13.6736 12.4761 13.5876 12.4995 13.5001 12.4999H10.0001V11.4999C10.0001 11.4009 9.97086 11.3042 9.91592 11.2219C9.86099 11.1396 9.78287 11.0755 9.69146 11.0376C9.60005 10.9997 9.49945 10.9898 9.40241 11.0091C9.30537 11.0284 9.21624 11.0761 9.14631 11.1461L7.64631 12.6461C7.59983 12.6926 7.56295 12.7477 7.53778 12.8084C7.51262 12.8691 7.49967 12.9342 7.49967 12.9999C7.49967 13.0656 7.51262 13.1307 7.53778 13.1914C7.56295 13.2521 7.59983 13.3072 7.64631 13.3536L9.14631 14.8536C9.21624 14.9236 9.30537 14.9713 9.40241 14.9907C9.49945 15.01 9.60005 15.0001 9.69146 14.9622C9.78287 14.9243 9.86099 14.8602 9.91592 14.7779C9.97086 14.6956 10.0001 14.5988 10.0001 14.4999V13.4999H13.5001C13.7633 13.4997 14.0218 13.4303 14.2497 13.2986C14.4776 13.1669 14.6669 12.9775 14.7984 12.7495C14.93 12.5215 14.9992 12.2629 14.9992 11.9997C14.9991 11.7364 14.9298 11.4778 14.7982 11.2499H14.7957ZM8.00006 1.99989C8.08794 1.999 8.17443 2.02174 8.25051 2.06572C8.3266 2.1097 8.38947 2.1733 8.43256 2.24989L10.1826 5.26864L9.31881 5.76864C9.23387 5.81821 9.16543 5.89173 9.12207 5.98001C9.0787 6.06828 9.06233 6.16738 9.07501 6.26491C9.08768 6.36244 9.12884 6.45407 9.19333 6.52833C9.25782 6.60258 9.34277 6.65617 9.43756 6.68239L11.4863 7.23176C11.5285 7.24285 11.572 7.24853 11.6157 7.24864C11.7257 7.24853 11.8326 7.21216 11.9198 7.14516C12.007 7.07815 12.0697 6.98426 12.0982 6.87801L12.6476 4.82864C12.6731 4.73317 12.6698 4.63228 12.638 4.53871C12.6062 4.44513 12.5474 4.36307 12.4691 4.30289C12.3907 4.2427 12.2962 4.20709 12.1976 4.20055C12.099 4.19401 12.0007 4.21683 11.9151 4.26614L11.0469 4.76614L9.29819 1.74989C9.16641 1.52228 8.97712 1.33333 8.74927 1.20197C8.52143 1.07061 8.26306 1.00146 8.00006 1.00146C7.73707 1.00146 7.47869 1.07061 7.25085 1.20197C7.02301 1.33333 6.83371 1.52228 6.70194 1.74989L5.25444 4.24989C5.19225 4.36442 5.17723 4.49871 5.21259 4.62415C5.24795 4.74959 5.3309 4.85626 5.44375 4.92145C5.5566 4.98663 5.69045 5.00518 5.81678 4.97313C5.94311 4.94109 6.05193 4.86098 6.12006 4.74989L7.56756 2.24989C7.61066 2.1733 7.67353 2.1097 7.74961 2.06572C7.82569 2.02174 7.91219 1.999 8.00006 1.99989Z" fill="black"/>
</g>
<defs>
<clipPath id="clip0_5_1164">
<rect width="16" height="16" fill="white"/>
</clipPath>
</defs>
</svg>
