<svg width="16" height="16" viewBox="0 0 16 16" fill="none" xmlns="http://www.w3.org/2000/svg">
<g clip-path="url(#clip0_5_424)">
<path d="M1.4999 7.99991C1.50123 6.80684 1.97576 5.66301 2.81939 4.81939C3.66301 3.97576 4.80684 3.50123 5.99991 3.49991H11.9999V2.49991C11.9998 2.40096 12.0291 2.30421 12.084 2.22191C12.139 2.13962 12.2171 2.07547 12.3085 2.03759C12.3999 1.99972 12.5005 1.98982 12.5976 2.00914C12.6946 2.02847 12.7837 2.07615 12.8537 2.14616L14.3537 3.64616C14.4001 3.69259 14.437 3.74774 14.4622 3.80844C14.4873 3.86913 14.5003 3.9342 14.5003 3.99991C14.5003 4.06561 14.4873 4.13068 14.4622 4.19138C14.437 4.25207 14.4001 4.30722 14.3537 4.35366L12.8537 5.85366C12.7837 5.92366 12.6946 5.97134 12.5976 5.99067C12.5005 6.01 12.3999 6.00009 12.3085 5.96222C12.2171 5.92434 12.139 5.86019 12.084 5.7779C12.0291 5.6956 11.9998 5.59885 11.9999 5.49991V4.49991H5.99991C5.07195 4.5009 4.18229 4.86997 3.52613 5.52613C2.86997 6.18229 2.5009 7.07195 2.4999 7.99991C2.4999 8.13251 2.44723 8.25969 2.35346 8.35346C2.25969 8.44723 2.13251 8.49991 1.9999 8.49991C1.8673 8.49991 1.74012 8.44723 1.64635 8.35346C1.55258 8.25969 1.4999 8.13251 1.4999 7.99991ZM13.9999 7.49991C13.8673 7.49991 13.7401 7.55258 13.6464 7.64635C13.5526 7.74012 13.4999 7.8673 13.4999 7.99991C13.4989 8.92786 13.1298 9.81752 12.4737 10.4737C11.8175 11.1298 10.9279 11.4989 9.9999 11.4999H3.99991V10.4999C3.99998 10.401 3.9707 10.3042 3.91577 10.2219C3.86083 10.1396 3.78271 10.0755 3.6913 10.0376C3.59989 9.99972 3.49929 9.98982 3.40225 10.0091C3.30521 10.0285 3.21608 10.0761 3.14615 10.1462L1.64615 11.6462C1.59967 11.6926 1.56279 11.7477 1.53763 11.8084C1.51246 11.8691 1.49951 11.9342 1.49951 11.9999C1.49951 12.0656 1.51246 12.1307 1.53763 12.1914C1.56279 12.2521 1.59967 12.3072 1.64615 12.3537L3.14615 13.8537C3.21608 13.9237 3.30521 13.9713 3.40225 13.9907C3.49929 14.01 3.59989 14.0001 3.6913 13.9622C3.78271 13.9243 3.86083 13.8602 3.91577 13.7779C3.9707 13.6956 3.99998 13.5989 3.99991 13.4999V12.4999H9.9999C11.193 12.4986 12.3368 12.0241 13.1804 11.1804C14.0241 10.3368 14.4986 9.19297 14.4999 7.99991C14.4999 7.8673 14.4472 7.74012 14.3535 7.64635C14.2597 7.55258 14.1325 7.49991 13.9999 7.49991ZM8.49991 9.99991C8.63251 9.99991 8.75969 9.94723 8.85346 9.85346C8.94723 9.75969 8.99991 9.63251 8.99991 9.49991V6.49991C8.99997 6.41463 8.97822 6.33076 8.93673 6.25626C8.89524 6.18177 8.83538 6.11912 8.76286 6.07427C8.69033 6.02943 8.60754 6.00388 8.52235 6.00005C8.43716 5.99622 8.35241 6.01425 8.27615 6.05241L7.27615 6.55241C7.15755 6.61175 7.06738 6.71577 7.02548 6.8416C6.98358 6.96742 6.99338 7.10474 7.05272 7.22334C7.11206 7.34194 7.21609 7.43212 7.34191 7.47402C7.46774 7.51592 7.60505 7.50612 7.72366 7.44678L7.99991 7.30866V9.49991C7.99991 9.63251 8.05258 9.75969 8.14635 9.85346C8.24012 9.94723 8.3673 9.99991 8.49991 9.99991Z" fill="black"/>
</g>
<defs>
<clipPath id="clip0_5_424">
<rect width="16" height="16" fill="white"/>
</clipPath>
</defs>
</svg>
