<svg width="16" height="16" viewBox="0 0 16 16" fill="none" xmlns="http://www.w3.org/2000/svg">
<g clip-path="url(#clip0_5_420)">
<path d="M14.5 4.48985V11.5099C14.499 11.6878 14.4504 11.8622 14.3592 12.015C14.2679 12.1677 14.1373 12.2932 13.9811 12.3784C13.8248 12.4635 13.6486 12.5052 13.4708 12.4991C13.2929 12.493 13.12 12.4393 12.97 12.3436L7.99996 9.1786V11.5099C7.99904 11.6878 7.95041 11.8622 7.85915 12.015C7.76789 12.1677 7.63733 12.2932 7.48109 12.3784C7.32484 12.4635 7.14861 12.5052 6.97077 12.4991C6.79294 12.493 6.61999 12.4393 6.46996 12.3436L0.958089 8.8336C0.81766 8.74448 0.702017 8.62132 0.621892 8.47557C0.541767 8.32981 0.499756 8.16618 0.499756 7.99985C0.499756 7.83353 0.541767 7.6699 0.621892 7.52414C0.702017 7.37839 0.81766 7.25523 0.958089 7.16611L6.46996 3.6561C6.61995 3.56021 6.79293 3.50634 6.97085 3.50012C7.14876 3.4939 7.32509 3.53555 7.48141 3.62074C7.63773 3.70592 7.76831 3.83151 7.85953 3.98439C7.95074 4.13727 7.99924 4.31183 7.99996 4.48985V6.8211L12.97 3.6561C13.12 3.56021 13.2929 3.50634 13.4708 3.50012C13.6488 3.4939 13.8251 3.53555 13.9814 3.62074C14.1377 3.70592 14.2683 3.83151 14.3595 3.98439C14.4507 4.13727 14.4992 4.31183 14.5 4.48985Z" fill="black"/>
</g>
<defs>
<clipPath id="clip0_5_420">
<rect width="16" height="16" fill="white"/>
</clipPath>
</defs>
</svg>
