<svg width="16" height="16" viewBox="0 0 16 16" fill="none" xmlns="http://www.w3.org/2000/svg">
<g clip-path="url(#clip0_5_1440)">
<path d="M14.9375 11.7551L10.855 4.50006H14.48C14.6098 4.50292 14.7358 4.45624 14.8324 4.36952C14.929 4.28279 14.9889 4.16253 15 4.03319C15.0046 3.9648 14.995 3.8962 14.9719 3.83166C14.9488 3.76712 14.9127 3.70802 14.8658 3.65802C14.8189 3.60803 14.7623 3.5682 14.6993 3.54103C14.6364 3.51386 14.5686 3.49991 14.5 3.50006H1.51689C1.38764 3.49801 1.26242 3.54505 1.1665 3.6317C1.07057 3.71834 1.01108 3.83815 1.00002 3.96694C0.995477 4.03533 1.00505 4.10393 1.02813 4.16847C1.05122 4.23301 1.08733 4.29211 1.13422 4.34211C1.18111 4.3921 1.23778 4.43193 1.3007 4.4591C1.36363 4.48627 1.43147 4.50022 1.50002 4.50006H5.14502L1.06252 11.7551C1.01011 11.8482 0.988936 11.9557 1.0021 12.0618C1.01526 12.1679 1.06206 12.2669 1.13564 12.3444C1.18434 12.3944 1.2427 12.434 1.30716 12.4608C1.37162 12.4875 1.44085 12.5009 1.51064 12.5001H7.25002C7.31632 12.5001 7.37991 12.4737 7.4268 12.4268C7.47368 12.38 7.50002 12.3164 7.50002 12.2501V11.0169C7.49828 10.8879 7.54547 10.763 7.63208 10.6673C7.7187 10.5717 7.83832 10.5124 7.96689 10.5013C8.03529 10.4968 8.10388 10.5063 8.16842 10.5294C8.23296 10.5525 8.29207 10.5886 8.34206 10.6355C8.39206 10.6824 8.43188 10.7391 8.45905 10.802C8.48622 10.8649 8.50017 10.9328 8.50002 11.0013V12.2513C8.50002 12.3176 8.52636 12.3812 8.57324 12.4281C8.62013 12.475 8.68371 12.5013 8.75002 12.5013H14.4856C14.5554 12.5021 14.6247 12.4888 14.6891 12.462C14.7536 12.4353 14.8119 12.3957 14.8606 12.3457C14.9351 12.2685 14.9828 12.1694 14.9966 12.0631C15.0105 11.9567 14.9897 11.8487 14.9375 11.7551ZM8.50002 8.75006C8.50002 8.88267 8.44734 9.00985 8.35357 9.10362C8.2598 9.19739 8.13263 9.25006 8.00002 9.25006C7.86741 9.25006 7.74023 9.19739 7.64647 9.10362C7.5527 9.00985 7.50002 8.88267 7.50002 8.75006V7.75006C7.50002 7.61746 7.5527 7.49028 7.64647 7.39651C7.74023 7.30274 7.86741 7.25006 8.00002 7.25006C8.13263 7.25006 8.2598 7.30274 8.35357 7.39651C8.44734 7.49028 8.50002 7.61746 8.50002 7.75006V8.75006ZM8.50002 5.50006C8.50002 5.63267 8.44734 5.75985 8.35357 5.85362C8.2598 5.94739 8.13263 6.00006 8.00002 6.00006C7.86741 6.00006 7.74023 5.94739 7.64647 5.85362C7.5527 5.75985 7.50002 5.63267 7.50002 5.50006V5.00006C7.50002 4.86746 7.5527 4.74028 7.64647 4.64651C7.74023 4.55274 7.86741 4.50006 8.00002 4.50006C8.13263 4.50006 8.2598 4.55274 8.35357 4.64651C8.44734 4.74028 8.50002 4.86746 8.50002 5.00006V5.50006Z" fill="black"/>
</g>
<defs>
<clipPath id="clip0_5_1440">
<rect width="16" height="16" fill="white"/>
</clipPath>
</defs>
</svg>
