<svg width="16" height="16" viewBox="0 0 16 16" fill="none" xmlns="http://www.w3.org/2000/svg">
<g clip-path="url(#clip0_5_412)">
<path d="M14.7075 5.99985L5.99999 14.7067C5.90712 14.7996 5.79687 14.8733 5.67553 14.9236C5.55419 14.9738 5.42414 14.9997 5.2928 14.9997C5.16146 14.9997 5.0314 14.9738 4.91006 14.9236C4.78872 14.8733 4.67847 14.7996 4.58561 14.7067L1.29249 11.4142C1.1996 11.3214 1.12592 11.2111 1.07565 11.0898C1.02539 10.9684 0.999512 10.8384 0.999512 10.707C0.999512 10.5757 1.02539 10.4456 1.07565 10.3243C1.12592 10.203 1.1996 10.0927 1.29249 9.99985L3.11561 8.17672C3.13883 8.15348 3.1664 8.13504 3.19675 8.12246C3.2271 8.10988 3.25963 8.1034 3.29249 8.1034C3.32534 8.1034 3.35787 8.10988 3.38822 8.12246C3.41857 8.13504 3.44614 8.15348 3.46936 8.17672L5.64624 10.3536C5.69485 10.4022 5.75295 10.4402 5.81692 10.4653C5.88089 10.4905 5.94935 10.5021 6.01803 10.4996C6.08671 10.4971 6.15413 10.4804 6.21608 10.4507C6.27804 10.4209 6.33319 10.3787 6.37811 10.3267C6.46022 10.2277 6.50197 10.1013 6.49502 9.97282C6.48807 9.84435 6.43293 9.72322 6.34061 9.6336L4.17624 7.46922C4.12948 7.42236 4.10323 7.35886 4.10323 7.29266C4.10323 7.22646 4.12948 7.16297 4.17624 7.1161L5.11374 6.1786C5.13695 6.15535 5.16453 6.13691 5.19488 6.12433C5.22523 6.11175 5.25776 6.10528 5.29061 6.10528C5.32346 6.10528 5.356 6.11175 5.38635 6.12433C5.4167 6.13691 5.44427 6.15535 5.46749 6.1786L7.64436 8.35547C7.69297 8.40405 7.75108 8.44209 7.81504 8.46721C7.87901 8.49233 7.94747 8.504 8.01615 8.50147C8.08483 8.49895 8.15225 8.4823 8.21421 8.45256C8.27616 8.42281 8.33132 8.38061 8.37624 8.3286C8.45835 8.22954 8.5001 8.10317 8.49314 7.9747C8.48619 7.84622 8.43106 7.72509 8.33874 7.63547L6.17686 5.46922C6.13011 5.42236 6.10385 5.35886 6.10385 5.29266C6.10385 5.22646 6.13011 5.16297 6.17686 5.1161L7.11436 4.1786C7.16123 4.13185 7.22472 4.10559 7.29092 4.10559C7.35712 4.10559 7.42062 4.13185 7.46749 4.1786L9.64436 6.35547C9.69298 6.40416 9.75112 6.44228 9.81515 6.46746C9.87918 6.49264 9.94772 6.50433 10.0165 6.50181C10.0852 6.49929 10.1527 6.4826 10.2147 6.4528C10.2767 6.42299 10.3319 6.38071 10.3769 6.3286C10.4589 6.22947 10.5005 6.10305 10.4935 5.97457C10.4864 5.8461 10.4311 5.72501 10.3387 5.63547L8.17686 3.46922C8.13011 3.42236 8.10385 3.35886 8.10385 3.29266C8.10385 3.22646 8.13011 3.16297 8.17686 3.1161L9.99999 1.29297C10.0928 1.20009 10.2031 1.12641 10.3244 1.07614C10.4458 1.02587 10.5758 1 10.7072 1C10.8385 1 10.9686 1.02587 11.0899 1.07614C11.2113 1.12641 11.3215 1.20009 11.4144 1.29297L14.7075 4.58547C14.8004 4.67834 14.874 4.78858 14.9243 4.90992C14.9746 5.03127 15.0005 5.16132 15.0005 5.29266C15.0005 5.424 14.9746 5.55406 14.9243 5.6754C14.874 5.79674 14.8004 5.90699 14.7075 5.99985Z" fill="black"/>
</g>
<defs>
<clipPath id="clip0_5_412">
<rect width="16" height="16" fill="white"/>
</clipPath>
</defs>
</svg>
