<svg width="16" height="16" viewBox="0 0 16 16" fill="none" xmlns="http://www.w3.org/2000/svg">
<g clip-path="url(#clip0_5_408)">
<path d="M14.7825 11.693L5.84499 5.57616C6.04194 5.07862 6.05511 4.52718 5.88216 4.02081C5.7092 3.51443 5.36144 3.08627 4.90128 2.81316C4.44112 2.54006 3.89869 2.4399 3.37135 2.53064C2.844 2.62139 2.36626 2.89711 2.02386 3.30833C1.68146 3.71954 1.49682 4.23932 1.50308 4.77438C1.50935 5.30944 1.70609 5.82476 2.05802 6.22784C2.40995 6.63093 2.89401 6.8954 3.42334 6.97378C3.95267 7.05217 4.4926 6.93933 4.94624 6.65554L6.28312 8.01116L4.94687 9.34616C4.49426 9.06353 3.95577 8.95141 3.42797 9.0299C2.90017 9.10839 2.4176 9.37236 2.06683 9.77446C1.71605 10.1766 1.52001 10.6905 1.51388 11.2241C1.50774 11.7576 1.69192 12.2759 2.03336 12.686C2.3748 13.096 2.85117 13.371 3.37702 13.4616C3.90288 13.5522 4.44381 13.4525 4.90279 13.1804C5.36177 12.9082 5.70878 12.4815 5.88156 11.9766C6.05435 11.4717 6.0416 10.9218 5.84562 10.4255L7.52749 9.27491L10.625 12.4149C11.0022 12.7895 11.5121 13 12.0437 13.0005C12.1296 13.0005 12.2155 12.9949 12.3006 12.9837H12.3181L14.585 12.6018C14.6834 12.5854 14.7747 12.5398 14.8471 12.4711C14.9194 12.4023 14.9695 12.3135 14.991 12.216C15.0124 12.1186 15.0042 12.0169 14.9674 11.9242C14.9306 11.8314 14.8668 11.7518 14.7844 11.6955L14.7825 11.693ZM4.63374 5.63054C4.42912 5.83509 4.15988 5.96233 3.87193 5.99055C3.58398 6.01878 3.29515 5.94623 3.05471 5.7853C2.81427 5.62436 2.6371 5.385 2.55342 5.10804C2.46974 4.83107 2.48473 4.53365 2.59584 4.2665C2.70694 3.99935 2.90728 3.77902 3.16269 3.64308C3.4181 3.50714 3.71275 3.46401 3.99641 3.52104C4.28006 3.57808 4.53515 3.73175 4.71816 3.95584C4.90117 4.17994 5.00078 4.46058 4.99999 4.74991C4.99976 5.08119 4.86803 5.39882 4.63374 5.63304V5.63054ZM4.63374 12.1305C4.42912 12.3351 4.15988 12.4623 3.87193 12.4906C3.58398 12.5188 3.29515 12.4462 3.05471 12.2853C2.81427 12.1244 2.6371 11.885 2.55342 11.608C2.46974 11.3311 2.48473 11.0337 2.59584 10.7665C2.70694 10.4994 2.90728 10.279 3.16269 10.1431C3.4181 10.0071 3.71275 9.96401 3.99641 10.021C4.28006 10.0781 4.53515 10.2317 4.71816 10.4558C4.90117 10.6799 5.00078 10.9606 4.99999 11.2499C5.00004 11.4142 4.96772 11.5768 4.90488 11.7285C4.84203 11.8803 4.7499 12.0182 4.63374 12.1343V12.1305ZM8.44624 5.78679L10.6212 3.58741C10.8387 3.37045 11.1029 3.20616 11.3937 3.10714C11.6845 3.00812 11.9941 2.977 12.2987 3.01616H12.3162L14.5662 3.39554C14.6471 3.40791 14.7239 3.43943 14.7901 3.48749C14.8563 3.53554 14.91 3.59873 14.9469 3.67179C14.9997 3.77968 15.0119 3.90297 14.9812 4.01911C14.9506 4.13525 14.8791 4.23649 14.78 4.30429L10.4094 7.29491C10.3678 7.32326 10.3187 7.33843 10.2684 7.33843C10.2181 7.33843 10.169 7.32326 10.1275 7.29491L8.48312 6.16991C8.45351 6.14903 8.42879 6.12196 8.41068 6.09058C8.39257 6.0592 8.3815 6.02426 8.37823 5.98817C8.37496 5.95209 8.37957 5.91572 8.39175 5.8816C8.40392 5.84747 8.42337 5.8164 8.44874 5.79054L8.44624 5.78679Z" fill="black"/>
</g>
<defs>
<clipPath id="clip0_5_408">
<rect width="16" height="16" fill="white"/>
</clipPath>
</defs>
</svg>
