<svg width="16" height="16" viewBox="0 0 16 16" fill="none" xmlns="http://www.w3.org/2000/svg">
<g clip-path="url(#clip0_5_1230)">
<path d="M8.00011 7C7.45621 7 6.92453 6.83872 6.47229 6.53654C6.02006 6.23437 5.66759 5.80488 5.45944 5.30238C5.2513 4.79988 5.19684 4.24695 5.30295 3.7135C5.40906 3.18006 5.67097 2.69005 6.05557 2.30546C6.44016 1.92086 6.93017 1.65895 7.46361 1.55284C7.99706 1.44673 8.55 1.50119 9.05249 1.70933C9.55499 1.91747 9.98448 2.26995 10.2867 2.72218C10.5888 3.17442 10.7501 3.7061 10.7501 4.25C10.7493 4.97909 10.4593 5.67809 9.94374 6.19363C9.4282 6.70918 8.7292 6.99917 8.00011 7ZM12.5001 13.5H4.82261L12.3307 6.875C12.3561 6.85255 12.3791 6.82764 12.3995 6.80063C12.468 6.70924 12.5035 6.5973 12.5001 6.48313C12.4969 6.38836 12.4669 6.29644 12.4135 6.2181C12.36 6.13977 12.2854 6.07824 12.1984 6.0407C12.1113 6.00315 12.0153 5.99114 11.9217 6.00607C11.828 6.021 11.7406 6.06225 11.6695 6.125L10.1357 7.47813C9.43472 7.14676 8.66625 6.98297 7.89104 6.9997C7.11583 7.01643 6.35514 7.21323 5.66908 7.57454C4.98302 7.93585 4.39039 8.45177 3.93802 9.08152C3.48566 9.71128 3.18596 10.4376 3.06261 11.2031C3.05901 11.2259 3.05692 11.2488 3.05636 11.2719L3.00011 13.9894C2.9987 14.0559 3.01059 14.1221 3.03508 14.184C3.05957 14.2459 3.09618 14.3023 3.14275 14.3498C3.18932 14.3974 3.24492 14.4352 3.30628 14.461C3.36765 14.4867 3.43355 14.5 3.50011 14.5H12.5001C12.6327 14.5 12.7599 14.4473 12.8537 14.3536C12.9474 14.2598 13.0001 14.1326 13.0001 14C13.0001 13.8674 12.9474 13.7402 12.8537 13.6464C12.7599 13.5527 12.6327 13.5 12.5001 13.5ZM11.7576 8.9375C11.6876 8.92904 11.6167 8.93546 11.5493 8.95636C11.482 8.97725 11.4199 9.01215 11.367 9.05875L7.46699 12.5H12.5001C12.6327 12.5 12.7599 12.4473 12.8537 12.3536C12.9474 12.2598 13.0001 12.1326 13.0001 12C13.0019 10.9807 12.6906 9.98536 12.1082 9.14875C12.068 9.0908 12.016 9.04201 11.9555 9.0056C11.8951 8.96919 11.8277 8.94598 11.7576 8.9375Z" fill="black"/>
</g>
<defs>
<clipPath id="clip0_5_1230">
<rect width="16" height="16" fill="white"/>
</clipPath>
</defs>
</svg>
