<svg width="16" height="16" viewBox="0 0 16 16" fill="none" xmlns="http://www.w3.org/2000/svg">
<g clip-path="url(#clip0_5_399)">
<path d="M15.4999 8.49985C15.3673 8.49985 15.2401 8.55253 15.1463 8.6463C15.0525 8.74006 14.9999 8.86724 14.9999 8.99985V9.99985H12.2067L11.0624 8.8536L14.2086 5.70672C14.396 5.51921 14.5013 5.26495 14.5013 4.99985C14.5013 4.73475 14.396 4.48049 14.2086 4.29297L11.8536 1.93735L10.7067 0.792974C10.6139 0.700091 10.5036 0.626411 10.3823 0.576142C10.261 0.525873 10.1309 0.5 9.99955 0.5C9.86821 0.5 9.73816 0.525873 9.61682 0.576142C9.49548 0.626411 9.38523 0.700091 9.29237 0.792974L0.182368 9.9336C0.0951636 10.0211 0.0358349 10.1324 0.0118733 10.2536C-0.0120883 10.3748 0.000391673 10.5003 0.0477374 10.6144C0.0950831 10.7285 0.175171 10.826 0.27789 10.8946C0.380608 10.9632 0.501349 10.9998 0.624868 10.9998H3.08549L5.29299 13.2067C5.48051 13.3941 5.73477 13.4994 5.99987 13.4994C6.26497 13.4994 6.51923 13.3941 6.70674 13.2067L10.3536 9.56235L11.4999 10.7067C11.5924 10.8 11.7025 10.8739 11.8239 10.9242C11.9452 10.9746 12.0754 11.0003 12.2067 10.9998H14.9999V11.9998C14.9999 12.1325 15.0525 12.2596 15.1463 12.3534C15.2401 12.4472 15.3673 12.4998 15.4999 12.4998C15.6325 12.4998 15.7597 12.4472 15.8534 12.3534C15.9472 12.2596 15.9999 12.1325 15.9999 11.9998V8.99985C15.9999 8.86724 15.9472 8.74006 15.8534 8.6463C15.7597 8.55253 15.6325 8.49985 15.4999 8.49985ZM9.99987 1.49985L10.793 2.29297L3.08549 9.99985H1.52862L9.99987 1.49985Z" fill="black"/>
</g>
<defs>
<clipPath id="clip0_5_399">
<rect width="16" height="16" fill="white"/>
</clipPath>
</defs>
</svg>
