<svg width="16" height="16" viewBox="0 0 16 16" fill="none" xmlns="http://www.w3.org/2000/svg">
<g clip-path="url(#clip0_5_392)">
<path d="M14.8537 7.35366L9.85371 12.3537C9.78378 12.4237 9.69466 12.4713 9.59762 12.4907C9.50057 12.51 9.39998 12.5001 9.30857 12.4622C9.21716 12.4243 9.13904 12.3602 9.0841 12.2779C9.02917 12.1956 8.99988 12.0989 8.99996 11.9999V9.51428C5.43121 9.71678 2.98434 12.0312 2.29746 12.7643C2.18961 12.8795 2.04817 12.9577 1.89328 12.9878C1.73838 13.018 1.57793 12.9985 1.43475 12.9322C1.29157 12.8659 1.17295 12.7561 1.09579 12.6184C1.01863 12.4808 0.986842 12.3223 1.00496 12.1655C1.23684 10.1493 2.34121 8.20991 4.11496 6.70491C5.58809 5.45491 7.37871 4.66178 8.99996 4.52303V1.99991C8.99988 1.90096 9.02917 1.80421 9.0841 1.72191C9.13904 1.63962 9.21716 1.57547 9.30857 1.53759C9.39998 1.49972 9.50057 1.48982 9.59762 1.50914C9.69466 1.52847 9.78378 1.57615 9.85371 1.64616L14.8537 6.64616C14.9002 6.69259 14.9371 6.74774 14.9622 6.80844C14.9874 6.86913 15.0004 6.9342 15.0004 6.99991C15.0004 7.06561 14.9874 7.13068 14.9622 7.19138C14.9371 7.25207 14.9002 7.30722 14.8537 7.35366Z" fill="black"/>
</g>
<defs>
<clipPath id="clip0_5_392">
<rect width="16" height="16" fill="white"/>
</clipPath>
</defs>
</svg>
