<svg width="16" height="16" viewBox="0 0 16 16" fill="none" xmlns="http://www.w3.org/2000/svg">
<g clip-path="url(#clip0_5_391)">
<path d="M14.3538 6.85366L11.3538 9.85366C11.2838 9.92366 11.1947 9.97134 11.0977 9.99067C11.0006 10.01 10.9 10.0001 10.8086 9.96222C10.7172 9.92434 10.6391 9.86019 10.5841 9.7779C10.5292 9.6956 10.4999 9.59885 10.5 9.49991V6.99991H10.3125C9.09291 6.99957 7.9078 7.4046 6.94353 8.15131C5.97926 8.89802 5.29052 9.94405 4.98562 11.1249C4.95247 11.2534 4.86965 11.3634 4.75537 11.4308C4.64109 11.4982 4.50471 11.5174 4.37625 11.4843C4.24779 11.4511 4.13775 11.3683 4.07036 11.254C4.00296 11.1397 3.98372 11.0034 4.01687 10.8749C4.37663 9.47899 5.19047 8.24237 6.33024 7.3598C7.47001 6.47722 8.87097 5.99881 10.3125 5.99991H10.5V3.49991C10.4999 3.40096 10.5292 3.30421 10.5841 3.22191C10.6391 3.13962 10.7172 3.07547 10.8086 3.03759C10.9 2.99972 11.0006 2.98982 11.0977 3.00914C11.1947 3.02847 11.2838 3.07615 11.3538 3.14616L14.3538 6.14616C14.4002 6.19259 14.4371 6.24774 14.4623 6.30844C14.4874 6.36913 14.5004 6.4342 14.5004 6.49991C14.5004 6.56561 14.4874 6.63068 14.4623 6.69138C14.4371 6.75207 14.4002 6.80722 14.3538 6.85366ZM12 12.9999H2.5V5.49991C2.5 5.3673 2.44732 5.24012 2.35355 5.14635C2.25979 5.05258 2.13261 4.99991 2 4.99991C1.86739 4.99991 1.74021 5.05258 1.64645 5.14635C1.55268 5.24012 1.5 5.3673 1.5 5.49991V13.4999C1.5 13.6325 1.55268 13.7597 1.64645 13.8535C1.74021 13.9472 1.86739 13.9999 2 13.9999H12C12.1326 13.9999 12.2598 13.9472 12.3536 13.8535C12.4473 13.7597 12.5 13.6325 12.5 13.4999C12.5 13.3673 12.4473 13.2401 12.3536 13.1464C12.2598 13.0526 12.1326 12.9999 12 12.9999Z" fill="black"/>
</g>
<defs>
<clipPath id="clip0_5_391">
<rect width="16" height="16" fill="white"/>
</clipPath>
</defs>
</svg>
