<svg width="16" height="16" viewBox="0 0 16 16" fill="none" xmlns="http://www.w3.org/2000/svg">
<g clip-path="url(#clip0_5_387)">
<path d="M14 3.49984V6.99984C14 8.57734 13.6344 9.85734 13.1062 10.8836C13.0879 10.9197 13.061 10.9508 13.0279 10.9742C12.9949 10.9976 12.9566 11.0126 12.9165 11.018C12.8763 11.0233 12.8355 11.0189 12.7974 11.0049C12.7594 10.991 12.7253 10.968 12.6981 10.938L5.4075 2.91797C5.37479 2.88197 5.35328 2.83721 5.34563 2.78918C5.33797 2.74114 5.3445 2.69192 5.3644 2.64754C5.3843 2.60316 5.41672 2.56554 5.45768 2.53931C5.49864 2.51307 5.54636 2.49936 5.595 2.49984H13C13.2652 2.49984 13.5196 2.6052 13.7071 2.79274C13.8946 2.98027 14 3.23463 14 3.49984ZM3.37 2.16359C3.29481 2.08114 3.1942 2.0262 3.08418 2.00753C2.97416 1.98887 2.86105 2.00754 2.76287 2.06058C2.6647 2.11363 2.58708 2.19799 2.54239 2.30024C2.4977 2.40249 2.4885 2.51676 2.51625 2.62484C2.35988 2.71127 2.22952 2.83802 2.13873 2.9919C2.04794 3.14578 2.00004 3.32118 2 3.49984V6.99984C2 10.2948 3.595 12.2917 4.93313 13.3867C6.37437 14.5655 7.80813 14.9661 7.87063 14.9823C7.95656 15.0057 8.04719 15.0057 8.13313 14.9823C8.19563 14.9661 9.6275 14.5655 11.0706 13.3867C11.2897 13.2062 11.4994 13.0145 11.6987 12.8123L12.63 13.8361C12.6739 13.8856 12.7272 13.9259 12.7868 13.9546C12.8464 13.9834 12.9111 14 12.9772 14.0036C13.0432 14.0071 13.1094 13.9975 13.1717 13.9753C13.234 13.9531 13.2913 13.9188 13.3403 13.8743C13.3893 13.8298 13.4289 13.776 13.4569 13.7161C13.485 13.6562 13.5008 13.5913 13.5036 13.5252C13.5064 13.459 13.496 13.393 13.473 13.331C13.4501 13.2689 13.4151 13.212 13.37 13.1636L3.37 2.16359Z" fill="black"/>
</g>
<defs>
<clipPath id="clip0_5_387">
<rect width="16" height="16" fill="white"/>
</clipPath>
</defs>
</svg>
