<svg width="16" height="16" viewBox="0 0 16 16" fill="none" xmlns="http://www.w3.org/2000/svg">
<g clip-path="url(#clip0_5_1006)">
<path d="M14.8538 11.1462C14.9002 11.1926 14.9371 11.2477 14.9623 11.3084C14.9874 11.3691 15.0004 11.4342 15.0004 11.4999C15.0004 11.5656 14.9874 11.6307 14.9623 11.6914C14.9371 11.7521 14.9002 11.8072 14.8538 11.8537L13.3538 13.3537C13.2838 13.4237 13.1947 13.4713 13.0977 13.4907C13.0006 13.51 12.9 13.5001 12.8086 13.4622C12.7172 13.4243 12.6391 13.3602 12.5841 13.2779C12.5292 13.1956 12.4999 13.0989 12.5 12.9999V11.9999C11.7939 11.99 11.0999 11.8144 10.4741 11.4872C9.84824 11.16 9.308 10.6904 8.89688 10.1162L6.28937 6.46616C5.96526 6.01307 5.53785 5.64374 5.04255 5.38876C4.54725 5.13377 3.99833 5.00047 3.44125 4.99991H2C1.86739 4.99991 1.74021 4.94723 1.64645 4.85346C1.55268 4.75969 1.5 4.63251 1.5 4.49991C1.5 4.3673 1.55268 4.24012 1.64645 4.14635C1.74021 4.05258 1.86739 3.99991 2 3.99991H3.44125C4.15743 4.0005 4.86316 4.17174 5.49997 4.49944C6.13679 4.82714 6.68635 5.30186 7.10313 5.88428L9.71062 9.53428C10.0289 9.97935 10.447 10.3437 10.9313 10.5982C11.4157 10.8527 11.9529 10.9903 12.5 10.9999V9.99991C12.4999 9.90096 12.5292 9.80421 12.5841 9.72191C12.6391 9.63962 12.7172 9.57547 12.8086 9.53759C12.9 9.49972 13.0006 9.48982 13.0977 9.50914C13.1947 9.52847 13.2838 9.57615 13.3538 9.64616L14.8538 11.1462ZM8.9375 6.68741C8.99093 6.72557 9.05136 6.75284 9.11533 6.76765C9.1793 6.78247 9.24556 6.78454 9.31033 6.77374C9.3751 6.76295 9.4371 6.7395 9.49281 6.70474C9.54852 6.66998 9.59684 6.62459 9.635 6.57116L9.71 6.46678C10.0282 6.0214 10.4463 5.65674 10.9308 5.40201C11.4153 5.14728 11.9527 5.00957 12.5 4.99991V5.99991C12.4999 6.09885 12.5292 6.1956 12.5841 6.2779C12.6391 6.36019 12.7172 6.42434 12.8086 6.46222C12.9 6.50009 13.0006 6.51 13.0977 6.49067C13.1947 6.47134 13.2838 6.42366 13.3538 6.35366L14.8538 4.85366C14.9002 4.80722 14.9371 4.75207 14.9623 4.69138C14.9874 4.63068 15.0004 4.56561 15.0004 4.49991C15.0004 4.4342 14.9874 4.36913 14.9623 4.30844C14.9371 4.24774 14.9002 4.19259 14.8538 4.14616L13.3538 2.64616C13.2838 2.57615 13.1947 2.52847 13.0977 2.50914C13.0006 2.48982 12.9 2.49972 12.8086 2.53759C12.7172 2.57547 12.6391 2.63962 12.5841 2.72191C12.5292 2.80421 12.4999 2.90096 12.5 2.99991V3.99991C11.7939 4.00982 11.0999 4.18545 10.4741 4.51265C9.84824 4.83984 9.308 5.30946 8.89688 5.88366L8.82187 5.98803C8.78338 6.04149 8.75584 6.10202 8.74081 6.16615C8.72579 6.23029 8.72359 6.29676 8.73433 6.36175C8.74508 6.42674 8.76855 6.48896 8.80342 6.54485C8.83829 6.60074 8.88385 6.64918 8.9375 6.68741ZM7.0625 9.31241C7.00907 9.27424 6.94864 9.24697 6.88467 9.23216C6.8207 9.21734 6.75444 9.21527 6.68967 9.22607C6.6249 9.23686 6.56289 9.26031 6.50719 9.29507C6.45148 9.32983 6.40316 9.37522 6.365 9.42866L6.29 9.53303C5.96589 9.98631 5.53841 10.3558 5.04299 10.6109C4.54757 10.866 3.99849 10.9994 3.44125 10.9999H2C1.86739 10.9999 1.74021 11.0526 1.64645 11.1464C1.55268 11.2401 1.5 11.3673 1.5 11.4999C1.5 11.6325 1.55268 11.7597 1.64645 11.8535C1.74021 11.9472 1.86739 11.9999 2 11.9999H3.44125C4.15743 11.9993 4.86316 11.8281 5.49997 11.5004C6.13679 11.1727 6.68635 10.6979 7.10313 10.1155L7.17812 10.0112C7.21652 9.95772 7.24399 9.89723 7.25896 9.83316C7.27393 9.76909 7.2761 9.70269 7.26536 9.63778C7.25462 9.57286 7.23117 9.51071 7.19636 9.45487C7.16155 9.39904 7.11606 9.35063 7.0625 9.31241Z" fill="black"/>
</g>
<defs>
<clipPath id="clip0_5_1006">
<rect width="16" height="16" fill="white"/>
</clipPath>
</defs>
</svg>
