<svg width="16" height="16" viewBox="0 0 16 16" fill="none" xmlns="http://www.w3.org/2000/svg">
<g clip-path="url(#clip0_5_359)">
<path d="M5.2499 8.5C5.24986 8.87683 5.12818 9.24359 4.90297 9.54572C4.67775 9.84785 4.36102 10.0692 3.9999 10.1769V13.5C3.9999 13.6326 3.94722 13.7598 3.85345 13.8536C3.75968 13.9473 3.63251 14 3.4999 14C3.36729 14 3.24011 13.9473 3.14635 13.8536C3.05258 13.7598 2.9999 13.6326 2.9999 13.5V10.1769C2.63888 10.0691 2.32229 9.8477 2.09718 9.54558C1.87208 9.24346 1.75049 8.87676 1.75049 8.5C1.75049 8.12324 1.87208 7.75654 2.09718 7.45442C2.32229 7.1523 2.63888 6.9309 2.9999 6.82312V2.5C2.9999 2.36739 3.05258 2.24021 3.14635 2.14645C3.24011 2.05268 3.36729 2 3.4999 2C3.63251 2 3.75968 2.05268 3.85345 2.14645C3.94722 2.24021 3.9999 2.36739 3.9999 2.5V6.82312C4.36102 6.93079 4.67775 7.15215 4.90297 7.45428C5.12818 7.75641 5.24986 8.12317 5.2499 8.5ZM8.4999 3.82312V2.5C8.4999 2.36739 8.44722 2.24021 8.35345 2.14645C8.25968 2.05268 8.13251 2 7.9999 2C7.86729 2 7.74011 2.05268 7.64635 2.14645C7.55258 2.24021 7.4999 2.36739 7.4999 2.5V3.82312C7.13888 3.9309 6.82229 4.1523 6.59718 4.45442C6.37208 4.75654 6.25049 5.12324 6.25049 5.5C6.25049 5.87676 6.37208 6.24346 6.59718 6.54558C6.82229 6.8477 7.13888 7.0691 7.4999 7.17688V13.5C7.4999 13.6326 7.55258 13.7598 7.64635 13.8536C7.74011 13.9473 7.86729 14 7.9999 14C8.13251 14 8.25968 13.9473 8.35345 13.8536C8.44722 13.7598 8.4999 13.6326 8.4999 13.5V7.17688C8.86091 7.0691 9.17751 6.8477 9.40261 6.54558C9.62772 6.24346 9.74931 5.87676 9.74931 5.5C9.74931 5.12324 9.62772 4.75654 9.40261 4.45442C9.17751 4.1523 8.86091 3.9309 8.4999 3.82312ZM12.9999 8.82312V2.5C12.9999 2.36739 12.9472 2.24021 12.8535 2.14645C12.7597 2.05268 12.6325 2 12.4999 2C12.3673 2 12.2401 2.05268 12.1463 2.14645C12.0526 2.24021 11.9999 2.36739 11.9999 2.5V8.82312C11.6389 8.9309 11.3223 9.1523 11.0972 9.45442C10.8721 9.75654 10.7505 10.1232 10.7505 10.5C10.7505 10.8768 10.8721 11.2435 11.0972 11.5456C11.3223 11.8477 11.6389 12.0691 11.9999 12.1769V13.5C11.9999 13.6326 12.0526 13.7598 12.1463 13.8536C12.2401 13.9473 12.3673 14 12.4999 14C12.6325 14 12.7597 13.9473 12.8535 13.8536C12.9472 13.7598 12.9999 13.6326 12.9999 13.5V12.1769C13.3609 12.0691 13.6775 11.8477 13.9026 11.5456C14.1277 11.2435 14.2493 10.8768 14.2493 10.5C14.2493 10.1232 14.1277 9.75654 13.9026 9.45442C13.6775 9.1523 13.3609 8.9309 12.9999 8.82312Z" fill="black"/>
</g>
<defs>
<clipPath id="clip0_5_359">
<rect width="16" height="16" fill="white"/>
</clipPath>
</defs>
</svg>
