<svg width="16" height="16" viewBox="0 0 16 16" fill="none" xmlns="http://www.w3.org/2000/svg">
<g clip-path="url(#clip0_5_358)">
<path d="M2 4.9999C2 4.86729 2.05268 4.74011 2.14645 4.64635C2.24021 4.55258 2.36739 4.4999 2.5 4.4999H4.82312C4.9309 4.13888 5.1523 3.82229 5.45442 3.59718C5.75654 3.37208 6.12324 3.25049 6.5 3.25049C6.87676 3.25049 7.24346 3.37208 7.54558 3.59718C7.8477 3.82229 8.0691 4.13888 8.17688 4.4999H13.5C13.6326 4.4999 13.7598 4.55258 13.8536 4.64635C13.9473 4.74011 14 4.86729 14 4.9999C14 5.13251 13.9473 5.25968 13.8536 5.35345C13.7598 5.44722 13.6326 5.4999 13.5 5.4999H8.17688C8.0691 5.86091 7.8477 6.17751 7.54558 6.40261C7.24346 6.62772 6.87676 6.74931 6.5 6.74931C6.12324 6.74931 5.75654 6.62772 5.45442 6.40261C5.1523 6.17751 4.9309 5.86091 4.82312 5.4999H2.5C2.36739 5.4999 2.24021 5.44722 2.14645 5.35345C2.05268 5.25968 2 5.13251 2 4.9999ZM13.5 10.4999H12.1769C12.0691 10.1389 11.8477 9.82229 11.5456 9.59718C11.2435 9.37208 10.8768 9.25049 10.5 9.25049C10.1232 9.25049 9.75654 9.37208 9.45442 9.59718C9.1523 9.82229 8.9309 10.1389 8.82312 10.4999H2.5C2.36739 10.4999 2.24021 10.5526 2.14645 10.6463C2.05268 10.7401 2 10.8673 2 10.9999C2 11.1325 2.05268 11.2597 2.14645 11.3535C2.24021 11.4472 2.36739 11.4999 2.5 11.4999H8.82312C8.9309 11.8609 9.1523 12.1775 9.45442 12.4026C9.75654 12.6277 10.1232 12.7493 10.5 12.7493C10.8768 12.7493 11.2435 12.6277 11.5456 12.4026C11.8477 12.1775 12.0691 11.8609 12.1769 11.4999H13.5C13.6326 11.4999 13.7598 11.4472 13.8536 11.3535C13.9473 11.2597 14 11.1325 14 10.9999C14 10.8673 13.9473 10.7401 13.8536 10.6463C13.7598 10.5526 13.6326 10.4999 13.5 10.4999Z" fill="black"/>
</g>
<defs>
<clipPath id="clip0_5_358">
<rect width="16" height="16" fill="white"/>
</clipPath>
</defs>
</svg>
