<svg width="16" height="16" viewBox="0 0 16 16" fill="none" xmlns="http://www.w3.org/2000/svg">
<g clip-path="url(#clip0_5_354)">
<path d="M14.7251 11.0001H13.7651C14.2806 10.0093 14.5321 8.90245 14.4954 7.78622C14.4586 6.67 14.1349 5.58207 13.5554 4.62734C12.9759 3.67262 12.1602 2.88331 11.187 2.33554C10.2137 1.78776 9.1157 1.5 7.99888 1.5C6.88205 1.5 5.78406 1.78776 4.81079 2.33554C3.83753 2.88331 3.02182 3.67262 2.44233 4.62734C1.86284 5.58207 1.53912 6.67 1.50239 7.78622C1.46566 8.90245 1.71716 10.0093 2.23263 11.0001H1.27513C1.07549 10.9976 0.882785 11.0732 0.738037 11.2107C0.593288 11.3482 0.507928 11.5368 0.500126 11.7363C0.498299 11.836 0.516349 11.935 0.553221 12.0275C0.590093 12.1201 0.645048 12.2044 0.714875 12.2756C0.784701 12.3467 0.867999 12.4031 0.959902 12.4417C1.0518 12.4802 1.15047 12.5001 1.25013 12.5001H5.00013C5.13273 12.5001 5.25991 12.5527 5.35368 12.6465C5.44745 12.7403 5.50013 12.8675 5.50013 13.0001C5.50013 13.1327 5.44745 13.2598 5.35368 13.3536C5.25991 13.4474 5.13273 13.5001 5.00013 13.5001H4.51013C4.39435 13.4998 4.28191 13.5388 4.19111 13.6107C4.10032 13.6825 4.03653 13.783 4.01013 13.8957C3.99455 13.9686 3.9955 14.0442 4.01291 14.1167C4.03032 14.1893 4.06374 14.257 4.11072 14.3149C4.15771 14.3729 4.21707 14.4196 4.28445 14.4516C4.35183 14.4837 4.42552 14.5002 4.50013 14.5001H12.4833C12.6122 14.5016 12.7371 14.4544 12.8327 14.3678C12.9283 14.2812 12.9877 14.1617 12.9989 14.0332C13.0034 13.9648 12.9938 13.8962 12.9708 13.8317C12.9477 13.7671 12.9116 13.708 12.8647 13.658C12.8178 13.608 12.7611 13.5682 12.6982 13.541C12.6353 13.5139 12.5674 13.4999 12.4989 13.5001H9.00013C8.86752 13.5001 8.74034 13.4474 8.64657 13.3536C8.5528 13.2598 8.50013 13.1327 8.50013 13.0001C8.50013 12.8675 8.5528 12.7403 8.64657 12.6465C8.74034 12.5527 8.86752 12.5001 9.00013 12.5001H9.487C9.61052 12.4995 9.72976 12.4548 9.82318 12.374C9.9166 12.2931 9.97803 12.1816 9.99638 12.0594C10.0048 11.9893 9.99819 11.9181 9.97709 11.8507C9.95599 11.7833 9.92083 11.7211 9.87394 11.6682C9.82705 11.6154 9.76949 11.5731 9.70506 11.5441C9.64063 11.5151 9.57078 11.5001 9.50013 11.5001H8.50013C7.567 11.5001 6.58825 11.1388 5.81263 10.5094C4.96575 9.82193 4.50013 8.93006 4.50013 8.00006C4.50002 7.81168 4.51486 7.62359 4.5445 7.43756C4.56332 7.30776 4.63113 7.19009 4.73399 7.10873C4.83686 7.02736 4.96698 6.98848 5.09763 7.00006C5.16514 7.00762 5.23042 7.02887 5.28945 7.06249C5.34849 7.09612 5.40005 7.14143 5.44099 7.19565C5.48194 7.24987 5.5114 7.31186 5.52758 7.37785C5.54377 7.44383 5.54633 7.51242 5.53513 7.57943C5.512 7.71845 5.5003 7.85913 5.50013 8.00006C5.50013 9.38506 7.14138 10.5001 8.50013 10.5001H9.46513C10.3089 10.5001 11.0189 11.1907 10.9995 12.0344C10.9982 12.0936 10.9934 12.1527 10.9851 12.2113C10.9795 12.2472 10.9818 12.284 10.9918 12.3189C11.0018 12.3539 11.0193 12.3862 11.0431 12.4137C11.0669 12.4412 11.0964 12.4632 11.1296 12.4781C11.1627 12.493 11.1988 12.5005 11.2351 12.5001H14.7501C14.8498 12.5001 14.9484 12.4802 15.0403 12.4417C15.1323 12.4031 15.2156 12.3467 15.2854 12.2756C15.3552 12.2044 15.4102 12.1201 15.447 12.0275C15.4839 11.935 15.502 11.836 15.5001 11.7363C15.4923 11.5368 15.407 11.3482 15.2622 11.2107C15.1175 11.0732 14.9248 10.9976 14.7251 11.0001ZM7.99388 5.84756C7.97565 5.98638 7.91893 6.11732 7.83014 6.22557C7.74135 6.33382 7.62403 6.41506 7.49146 6.46008C7.35889 6.50511 7.21637 6.51213 7.08002 6.48035C6.94366 6.44857 6.81893 6.37926 6.71993 6.28026C6.62093 6.18126 6.55162 6.05652 6.51983 5.92017C6.48805 5.78382 6.49508 5.64129 6.5401 5.50872C6.58513 5.37615 6.66637 5.25884 6.77462 5.17004C6.88287 5.08125 7.01381 5.02454 7.15263 5.00631C7.26664 4.99134 7.38258 5.00279 7.49146 5.03977C7.60035 5.07676 7.69927 5.13828 7.78059 5.2196C7.8619 5.30091 7.92343 5.39984 7.96041 5.50872C7.9974 5.61761 8.00885 5.73354 7.99388 5.84756ZM10.9939 8.84756C10.9756 8.98638 10.9189 9.11732 10.8301 9.22557C10.7414 9.33382 10.624 9.41506 10.4915 9.46008C10.3589 9.50511 10.2164 9.51213 10.08 9.48035C9.94366 9.44857 9.81893 9.37926 9.71993 9.28026C9.62093 9.18126 9.55161 9.05652 9.51983 8.92017C9.48805 8.78382 9.49508 8.64129 9.5401 8.50872C9.58513 8.37615 9.66637 8.25883 9.77462 8.17004C9.88287 8.08125 10.0138 8.02454 10.1526 8.00631C10.2666 7.99134 10.3826 8.00279 10.4915 8.03977C10.6003 8.07676 10.6993 8.13828 10.7806 8.2196C10.8619 8.30091 10.9234 8.39984 10.9604 8.50872C10.9974 8.61761 11.0088 8.73354 10.9939 8.84756Z" fill="black"/>
</g>
<defs>
<clipPath id="clip0_5_354">
<rect width="16" height="16" fill="white"/>
</clipPath>
</defs>
</svg>
