<svg width="16" height="16" viewBox="0 0 16 16" fill="none" xmlns="http://www.w3.org/2000/svg">
<g clip-path="url(#clip0_5_352)">
<path d="M7.99991 1.5C7.06509 1.50071 6.14141 1.70306 5.2919 2.09324C4.4424 2.48342 3.68705 3.05225 3.07738 3.76092C2.46772 4.46959 2.01809 5.30143 1.75917 6.19969C1.50025 7.09794 1.43814 8.04148 1.57705 8.96593C1.71597 9.89037 2.05266 10.774 2.56415 11.5565C3.07564 12.3389 3.7499 13.0019 4.54092 13.5001C5.33194 13.9983 6.22111 14.32 7.14777 14.4432C8.07444 14.5665 9.01679 14.4884 9.91054 14.2144C9.98856 14.1904 10.0594 14.1474 10.1168 14.0894L14.0899 10.1163C14.1479 10.0586 14.1908 9.98752 14.2149 9.90938C14.5124 8.93716 14.578 7.90875 14.4062 6.90665C14.2344 5.90454 13.8302 4.95664 13.2259 4.13899C12.6216 3.32134 11.8341 2.65671 10.9265 2.19841C10.019 1.74011 9.01663 1.50091 7.99991 1.5ZM5.74991 6C5.89825 6 6.04325 6.04399 6.16659 6.1264C6.28993 6.20881 6.38606 6.32594 6.44282 6.46299C6.49959 6.60003 6.51444 6.75083 6.4855 6.89632C6.45656 7.0418 6.38513 7.17544 6.28024 7.28033C6.17535 7.38522 6.04172 7.45665 5.89623 7.48559C5.75074 7.51453 5.59995 7.49968 5.4629 7.44291C5.32586 7.38614 5.20872 7.29001 5.12631 7.16668C5.0439 7.04334 4.99991 6.89834 4.99991 6.75C4.99991 6.55109 5.07893 6.36032 5.21958 6.21967C5.36023 6.07902 5.551 6 5.74991 6ZM10.9324 9.75C10.2893 10.8619 9.22054 11.5 7.99991 11.5C6.77929 11.5 5.71054 10.8625 5.06741 9.75C5.03124 9.69309 5.00694 9.62945 4.996 9.56291C4.98506 9.49637 4.98768 9.4283 5.00373 9.36281C5.01977 9.29731 5.0489 9.23573 5.08936 9.18178C5.12981 9.12783 5.18077 9.08262 5.23915 9.04888C5.29753 9.01513 5.36214 8.99354 5.42908 8.98541C5.49602 8.97728 5.56392 8.98277 5.62868 9.00156C5.69345 9.02035 5.75374 9.05204 5.80594 9.09474C5.85813 9.13743 5.90115 9.19025 5.93241 9.25C6.39929 10.0569 7.13304 10.5 7.99991 10.5C8.86679 10.5 9.60054 10.0562 10.0674 9.25C10.0987 9.19025 10.1417 9.13743 10.1939 9.09474C10.2461 9.05204 10.3064 9.02035 10.3711 9.00156C10.4359 8.98277 10.5038 8.97728 10.5707 8.98541C10.6377 8.99354 10.7023 9.01513 10.7607 9.04888C10.8191 9.08262 10.87 9.12783 10.9105 9.18178C10.9509 9.23573 10.9801 9.29731 10.9961 9.36281C11.0121 9.4283 11.0148 9.49637 11.0038 9.56291C10.9929 9.62945 10.9686 9.69309 10.9324 9.75ZM10.2499 7.5C10.1016 7.5 9.95657 7.45601 9.83324 7.3736C9.7099 7.29119 9.61377 7.17406 9.557 7.03701C9.50024 6.89997 9.48539 6.74917 9.51432 6.60368C9.54326 6.4582 9.61469 6.32456 9.71958 6.21967C9.82447 6.11478 9.95811 6.04335 10.1036 6.01441C10.2491 5.98547 10.3999 6.00032 10.5369 6.05709C10.674 6.11386 10.7911 6.20999 10.8735 6.33332C10.9559 6.45666 10.9999 6.60166 10.9999 6.75C10.9999 6.94891 10.9209 7.13968 10.7802 7.28033C10.6396 7.42098 10.4488 7.5 10.2499 7.5Z" fill="black"/>
</g>
<defs>
<clipPath id="clip0_5_352">
<rect width="16" height="16" fill="white"/>
</clipPath>
</defs>
</svg>
