<svg width="16" height="16" viewBox="0 0 16 16" fill="none" xmlns="http://www.w3.org/2000/svg">
<g clip-path="url(#clip0_5_337)">
<path d="M15.3538 9.14637C15.4476 9.24019 15.5003 9.36744 15.5003 9.50012C15.5003 9.6328 15.4476 9.76005 15.3538 9.85387C15.2599 9.94769 15.1327 10.0004 15 10.0004C14.8673 10.0004 14.7401 9.94769 14.6462 9.85387L13.5 8.707L12.3538 9.85387C12.2599 9.94769 12.1327 10.0004 12 10.0004C11.8673 10.0004 11.7401 9.94769 11.6462 9.85387C11.5524 9.76005 11.4997 9.6328 11.4997 9.50012C11.4997 9.36744 11.5524 9.24019 11.6462 9.14637L12.7931 8.00012L11.6462 6.85387C11.5524 6.76005 11.4997 6.6328 11.4997 6.50012C11.4997 6.36744 11.5524 6.24019 11.6462 6.14637C11.7401 6.05255 11.8673 5.99984 12 5.99984C12.1327 5.99984 12.2599 6.05255 12.3538 6.14637L13.5 7.29325L14.6462 6.14637C14.7401 6.05255 14.8673 5.99984 15 5.99984C15.1327 5.99984 15.2599 6.05255 15.3538 6.14637C15.4476 6.24019 15.5003 6.36744 15.5003 6.50012C15.5003 6.6328 15.4476 6.76005 15.3538 6.85387L14.2069 8.00012L15.3538 9.14637ZM3.75 5.00012H2C1.73478 5.00012 1.48043 5.10548 1.29289 5.29301C1.10536 5.48055 1 5.7349 1 6.00012V10.0001C1 10.2653 1.10536 10.5197 1.29289 10.7072C1.48043 10.8948 1.73478 11.0001 2 11.0001H3.75C3.8163 11.0001 3.87989 10.9738 3.92678 10.9269C3.97366 10.88 4 10.8164 4 10.7501V5.25012C4 5.18382 3.97366 5.12023 3.92678 5.07334C3.87989 5.02646 3.8163 5.00012 3.75 5.00012ZM9.82187 1.61575C9.73433 1.54331 9.62474 1.50286 9.51113 1.50104C9.39752 1.49922 9.28669 1.53615 9.19687 1.60575L5.09875 4.79325C5.06835 4.81634 5.04364 4.8461 5.02653 4.88022C5.00941 4.91435 5.00033 4.95194 5 4.99012V11.0101C5.00011 11.0481 5.0089 11.0856 5.02568 11.1198C5.04247 11.1539 5.06682 11.1837 5.09688 11.207L9.195 14.3945C9.27437 14.4562 9.3705 14.4926 9.47085 14.4988C9.57119 14.505 9.67109 14.4809 9.7575 14.4295C9.83354 14.3822 9.89602 14.316 9.93885 14.2373C9.98168 14.1587 10.0034 14.0703 10.0019 13.9807V2.01575C10.0028 1.93981 9.98699 1.86459 9.95556 1.79546C9.92412 1.72632 9.87784 1.66496 9.82 1.61575H9.82187Z" fill="black"/>
</g>
<defs>
<clipPath id="clip0_5_337">
<rect width="16" height="16" fill="white"/>
</clipPath>
</defs>
</svg>
