<svg width="16" height="16" viewBox="0 0 16 16" fill="none" xmlns="http://www.w3.org/2000/svg">
<g clip-path="url(#clip0_5_339)">
<path d="M13.87 13.1639C13.9151 13.2123 13.9501 13.2692 13.973 13.3313C13.996 13.3933 14.0064 13.4593 14.0036 13.5254C14.0008 13.5915 13.985 13.6564 13.9569 13.7164C13.9289 13.7763 13.8893 13.8301 13.8403 13.8746C13.7913 13.9191 13.734 13.9534 13.6717 13.9756C13.6094 13.9978 13.5432 14.0074 13.4772 14.0038C13.4111 14.0003 13.3464 13.9836 13.2868 13.9549C13.2272 13.9262 13.1739 13.8859 13.13 13.8364L10.5 10.9432V13.9807C10.5015 14.0703 10.4798 14.1587 10.437 14.2373C10.3941 14.316 10.3317 14.3822 10.2556 14.4295C10.1692 14.4809 10.0693 14.505 9.96897 14.4988C9.86863 14.4926 9.7725 14.4562 9.69312 14.3945L5.32812 11.0001H2.5C2.23478 11.0001 1.98043 10.8948 1.79289 10.7072C1.60536 10.5197 1.5 10.2653 1.5 10.0001V6.00012C1.5 5.7349 1.60536 5.48055 1.79289 5.29301C1.98043 5.10548 2.23478 5.00012 2.5 5.00012H5.09688L3.13 2.83637C3.04269 2.73795 2.99769 2.60908 3.00475 2.4777C3.01182 2.34632 3.07039 2.22302 3.16776 2.13453C3.26513 2.04604 3.39345 1.9995 3.5249 2.00499C3.65636 2.01049 3.78035 2.06757 3.87 2.16387L13.87 13.1639ZM12.5331 10.0001C12.6617 9.98908 12.7813 9.92976 12.8679 9.8341C12.9546 9.73844 13.0017 9.61353 13 9.4845V6.517C13.0021 6.38775 12.955 6.26253 12.8684 6.1666C12.7817 6.07067 12.6619 6.01118 12.5331 6.00012C12.4647 5.99558 12.3961 6.00515 12.3316 6.02824C12.2671 6.05132 12.208 6.08743 12.158 6.13432C12.108 6.18121 12.0681 6.23788 12.041 6.30081C12.0138 6.36373 11.9998 6.43158 12 6.50012V9.50012C11.9998 9.56866 12.0138 9.63651 12.041 9.69944C12.0681 9.76236 12.108 9.81903 12.158 9.86592C12.208 9.91281 12.2671 9.94892 12.3316 9.97201C12.3961 9.99509 12.4647 10.0047 12.5331 10.0001ZM10.0625 7.492C10.0963 7.53031 10.141 7.55735 10.1906 7.5695C10.2402 7.58164 10.2923 7.57829 10.34 7.55991C10.3876 7.54153 10.4285 7.509 10.4571 7.46669C10.4857 7.42438 10.5007 7.37432 10.5 7.32325V2.01512C10.5012 1.93942 10.4856 1.86439 10.4545 1.79537C10.4234 1.72634 10.3775 1.66502 10.32 1.61575C10.2325 1.54331 10.1229 1.50286 10.0093 1.50104C9.89565 1.49922 9.78481 1.53615 9.695 1.60575L6.98938 3.70825C6.96218 3.72941 6.93966 3.75597 6.92322 3.78626C6.90679 3.81654 6.89679 3.8499 6.89385 3.88423C6.89092 3.91856 6.89511 3.95313 6.90617 3.98577C6.91723 4.0184 6.93492 4.0484 6.95813 4.07387L10.0625 7.492ZM14.4669 5.00012C14.3381 5.01118 14.2183 5.07067 14.1316 5.1666C14.045 5.26253 13.9979 5.38775 14 5.517V10.4832C13.9983 10.6123 14.0454 10.7372 14.1321 10.8328C14.2187 10.9285 14.3383 10.9878 14.4669 10.9989C14.5353 11.0034 14.6039 10.9938 14.6684 10.9708C14.7329 10.9477 14.792 10.9116 14.842 10.8647C14.892 10.8178 14.9319 10.7611 14.959 10.6982C14.9862 10.6353 15.0002 10.5674 15 10.4989V5.50012C15.0002 5.43158 14.9862 5.36373 14.959 5.30081C14.9319 5.23788 14.892 5.18121 14.842 5.13432C14.792 5.08743 14.7329 5.05132 14.6684 5.02824C14.6039 5.00515 14.5353 4.99558 14.4669 5.00012Z" fill="black"/>
</g>
<defs>
<clipPath id="clip0_5_339">
<rect width="16" height="16" fill="white"/>
</clipPath>
</defs>
</svg>
