<svg width="16" height="16" viewBox="0 0 16 16" fill="none" xmlns="http://www.w3.org/2000/svg">
<g clip-path="url(#clip0_5_702)">
<path d="M10 2.01575V13.9807C10.0015 14.0703 9.97981 14.1587 9.93698 14.2373C9.89415 14.316 9.83167 14.3822 9.75562 14.4295C9.66922 14.4809 9.56932 14.505 9.46897 14.4988C9.36863 14.4926 9.2725 14.4562 9.19312 14.3945L5.095 11.207C5.06529 11.1835 5.0413 11.1536 5.02484 11.1195C5.00838 11.0854 4.99989 11.048 5 11.0101V4.99012C5.00011 4.9521 5.0089 4.9146 5.02568 4.88049C5.04247 4.84637 5.06682 4.81653 5.09688 4.79325L9.195 1.60575C9.28481 1.53615 9.39565 1.49922 9.50926 1.50104C9.62286 1.50286 9.73246 1.54331 9.82 1.61575C9.8775 1.66514 9.92343 1.72658 9.95454 1.79571C9.98564 1.86483 10.0012 1.93995 10 2.01575ZM3.75 5.00012H2C1.73478 5.00012 1.48043 5.10548 1.29289 5.29301C1.10536 5.48055 1 5.7349 1 6.00012V10.0001C1 10.2653 1.10536 10.5197 1.29289 10.7072C1.48043 10.8948 1.73478 11.0001 2 11.0001H3.75C3.8163 11.0001 3.87989 10.9738 3.92678 10.9269C3.97366 10.88 4 10.8164 4 10.7501V5.25012C4 5.18382 3.97366 5.12023 3.92678 5.07334C3.87989 5.02646 3.8163 5.00012 3.75 5.00012ZM12.375 6.34762C12.3319 6.29719 12.2793 6.25583 12.22 6.22595C12.1608 6.19607 12.0963 6.17827 12.0301 6.17358C11.9639 6.1689 11.8975 6.17742 11.8347 6.19866C11.7718 6.2199 11.7139 6.25343 11.6641 6.29729C11.6144 6.34115 11.5738 6.39447 11.5449 6.45415C11.516 6.51382 11.4992 6.57866 11.4955 6.64489C11.4919 6.71111 11.5015 6.7774 11.5237 6.83989C11.5459 6.90238 11.5804 6.95982 11.625 7.00887C11.8662 7.28277 11.9992 7.63519 11.9992 8.00012C11.9992 8.36506 11.8662 8.71748 11.625 8.99137C11.5804 9.04042 11.5459 9.09787 11.5237 9.16036C11.5015 9.22285 11.4919 9.28913 11.4955 9.35536C11.4992 9.42158 11.516 9.48642 11.5449 9.54609C11.5738 9.60577 11.6144 9.65909 11.6641 9.70295C11.7139 9.74682 11.7718 9.78034 11.8347 9.80158C11.8975 9.82282 11.9639 9.83134 12.0301 9.82666C12.0963 9.82197 12.1608 9.80417 12.22 9.7743C12.2793 9.74442 12.3319 9.70306 12.375 9.65262C12.7772 9.19607 12.999 8.60854 12.999 8.00012C12.999 7.3917 12.7772 6.80417 12.375 6.34762Z" fill="black"/>
</g>
<defs>
<clipPath id="clip0_5_702">
<rect width="16" height="16" fill="white"/>
</clipPath>
</defs>
</svg>
