<svg width="16" height="16" viewBox="0 0 16 16" fill="none" xmlns="http://www.w3.org/2000/svg">
<g clip-path="url(#clip0_5_752)">
<path d="M10.5 2.00011V14.0001C10.4999 14.0937 10.4736 14.1853 10.424 14.2647C10.3745 14.344 10.3036 14.4079 10.2196 14.449C10.1355 14.49 10.0416 14.5067 9.94855 14.4971C9.85548 14.4875 9.76699 14.4519 9.69312 14.3945L5.32812 11.0001H2.5C2.23478 11.0001 1.98043 10.8948 1.79289 10.7072C1.60536 10.5197 1.5 10.2653 1.5 10.0001V6.00011C1.5 5.7349 1.60536 5.48054 1.79289 5.29301C1.98043 5.10547 2.23478 5.00011 2.5 5.00011H5.32812L9.69312 1.60574C9.76699 1.54832 9.85548 1.51277 9.94855 1.50314C10.0416 1.49352 10.1355 1.51019 10.2196 1.55128C10.3036 1.59236 10.3745 1.6562 10.424 1.73555C10.4736 1.81489 10.4999 1.90655 10.5 2.00011ZM12.5 6.00011C12.3674 6.00011 12.2402 6.05279 12.1464 6.14656C12.0527 6.24033 12 6.36751 12 6.50011V9.50011C12 9.63272 12.0527 9.7599 12.1464 9.85367C12.2402 9.94744 12.3674 10.0001 12.5 10.0001C12.6326 10.0001 12.7598 9.94744 12.8536 9.85367C12.9473 9.7599 13 9.63272 13 9.50011V6.50011C13 6.36751 12.9473 6.24033 12.8536 6.14656C12.7598 6.05279 12.6326 6.00011 12.5 6.00011ZM14.5 5.00011C14.3674 5.00011 14.2402 5.05279 14.1464 5.14656C14.0527 5.24033 14 5.36751 14 5.50011V10.5001C14 10.6327 14.0527 10.7599 14.1464 10.8537C14.2402 10.9474 14.3674 11.0001 14.5 11.0001C14.6326 11.0001 14.7598 10.9474 14.8536 10.8537C14.9473 10.7599 15 10.6327 15 10.5001V5.50011C15 5.36751 14.9473 5.24033 14.8536 5.14656C14.7598 5.05279 14.6326 5.00011 14.5 5.00011Z" fill="black"/>
</g>
<defs>
<clipPath id="clip0_5_752">
<rect width="16" height="16" fill="white"/>
</clipPath>
</defs>
</svg>
