<svg width="16" height="16" viewBox="0 0 16 16" fill="none" xmlns="http://www.w3.org/2000/svg">
<g clip-path="url(#clip0_5_748)">
<path d="M10.22 1.55071C10.1358 1.50961 10.0418 1.49298 9.94868 1.5027C9.85553 1.51243 9.76698 1.54812 9.69312 1.60571L5.32812 5.00009H2.5C2.23478 5.00009 1.98043 5.10544 1.79289 5.29298C1.60536 5.48052 1.5 5.73487 1.5 6.00009V10.0001C1.5 10.2653 1.60536 10.5197 1.79289 10.7072C1.98043 10.8947 2.23478 11.0001 2.5 11.0001H5.32812L9.69312 14.3945C9.78069 14.4631 9.88876 14.5003 10 14.5001C10.1326 14.5001 10.2598 14.4474 10.3536 14.3536C10.4473 14.2599 10.5 14.1327 10.5 14.0001V2.00009C10.5001 1.90648 10.4739 1.81474 10.4244 1.73529C10.3749 1.65585 10.3041 1.5919 10.22 1.55071Z" fill="black"/>
<path d="M14.7069 8.00003L15.8538 6.85378C15.9476 6.75996 16.0003 6.63272 16.0003 6.50003C16.0003 6.36735 15.9476 6.2401 15.8538 6.14628C15.76 6.05246 15.6327 5.99976 15.5 5.99976C15.3674 5.99976 15.2401 6.05246 15.1463 6.14628L14 7.29316L12.8538 6.14628C12.76 6.05246 12.6327 5.99976 12.5 5.99976C12.3674 5.99976 12.2401 6.05246 12.1463 6.14628C12.0525 6.2401 11.9998 6.36735 11.9998 6.50003C11.9998 6.63272 12.0525 6.75996 12.1463 6.85378L13.2932 8.00003L12.1463 9.14628C12.0525 9.2401 11.9998 9.36735 11.9998 9.50003C11.9998 9.63272 12.0525 9.75996 12.1463 9.85378C12.2401 9.9476 12.3674 10.0003 12.5 10.0003C12.6327 10.0003 12.76 9.9476 12.8538 9.85378L14 8.70691L15.1463 9.85378C15.2401 9.9476 15.3674 10.0003 15.5 10.0003C15.6327 10.0003 15.76 9.9476 15.8538 9.85378C15.9476 9.75996 16.0003 9.63272 16.0003 9.50003C16.0003 9.36735 15.9476 9.2401 15.8538 9.14628L14.7069 8.00003Z" fill="black"/>
</g>
<defs>
<clipPath id="clip0_5_748">
<rect width="16" height="16" fill="white"/>
</clipPath>
</defs>
</svg>
