<svg width="16" height="16" viewBox="0 0 16 16" fill="none" xmlns="http://www.w3.org/2000/svg">
<g clip-path="url(#clip0_5_695)">
<path d="M10.22 1.55071C10.1358 1.50961 10.0418 1.49298 9.94868 1.5027C9.85553 1.51243 9.76698 1.54812 9.69312 1.60571L5.32812 5.00009H2.5C2.23478 5.00009 1.98043 5.10544 1.79289 5.29298C1.60536 5.48052 1.5 5.73487 1.5 6.00009V10.0001C1.5 10.2653 1.60536 10.5197 1.79289 10.7072C1.98043 10.8947 2.23478 11.0001 2.5 11.0001H5.32812L9.69312 14.3945C9.78069 14.4631 9.88876 14.5003 10 14.5001C10.1326 14.5001 10.2598 14.4474 10.3536 14.3536C10.4473 14.2599 10.5 14.1327 10.5 14.0001V2.00009C10.5001 1.90648 10.4739 1.81474 10.4244 1.73529C10.3749 1.65585 10.3041 1.5919 10.22 1.55071Z" fill="black"/>
</g>
<defs>
<clipPath id="clip0_5_695">
<rect width="16" height="16" fill="white"/>
</clipPath>
</defs>
</svg>
