<svg width="16" height="16" viewBox="0 0 16 16" fill="none" xmlns="http://www.w3.org/2000/svg">
<g clip-path="url(#clip0_5_338)">
<path d="M13.37 13.1639C13.4151 13.2123 13.4501 13.2692 13.473 13.3313C13.496 13.3933 13.5064 13.4593 13.5036 13.5254C13.5008 13.5915 13.485 13.6564 13.4569 13.7164C13.4289 13.7763 13.3893 13.8301 13.3403 13.8746C13.2913 13.9191 13.234 13.9534 13.1717 13.9756C13.1094 13.9978 13.0432 14.0074 12.9772 14.0038C12.9111 14.0003 12.8464 13.9836 12.7868 13.9549C12.7272 13.9262 12.6739 13.8859 12.63 13.8364L10 10.9432V13.9807C10.0015 14.0703 9.97981 14.1587 9.93698 14.2373C9.89415 14.316 9.83167 14.3822 9.75562 14.4295C9.66922 14.4809 9.56932 14.505 9.46897 14.4988C9.36863 14.4926 9.2725 14.4562 9.19312 14.3945L5.09625 11.207C5.06647 11.1838 5.04235 11.1541 5.02568 11.1202C5.00901 11.0863 5.00023 11.0491 5 11.0114V5.44325L2.63 2.83637C2.58492 2.78794 2.54989 2.73105 2.52696 2.66898C2.50403 2.60692 2.49364 2.54092 2.4964 2.47481C2.49917 2.4087 2.51502 2.3438 2.54305 2.28387C2.57108 2.22393 2.61073 2.17016 2.65969 2.12566C2.70866 2.08116 2.76597 2.04682 2.82831 2.02463C2.89064 2.00245 2.95676 1.99285 3.02283 1.99641C3.0889 1.99996 3.15361 2.01659 3.2132 2.04534C3.27279 2.07409 3.32609 2.11438 3.37 2.16387L13.37 13.1639ZM11.6694 9.69762C11.7688 9.78537 11.8989 9.83005 12.0312 9.82185C12.1636 9.81364 12.2872 9.75322 12.375 9.65387C12.7772 9.19732 12.999 8.60979 12.999 8.00137C12.999 7.39295 12.7772 6.80542 12.375 6.34887C12.3324 6.29714 12.2798 6.25451 12.2203 6.22352C12.1609 6.19253 12.0958 6.17381 12.029 6.16847C11.9621 6.16313 11.8949 6.17129 11.8313 6.19246C11.7677 6.21363 11.709 6.24737 11.6587 6.29168C11.6084 6.33599 11.5675 6.38997 11.5385 6.4504C11.5094 6.51083 11.4929 6.57649 11.4897 6.64345C11.4866 6.71042 11.4969 6.77733 11.5202 6.84022C11.5434 6.9031 11.5791 6.96067 11.625 7.0095C11.8662 7.28339 11.9992 7.63581 11.9992 8.00075C11.9992 8.36568 11.8662 8.7181 11.625 8.992C11.5373 9.09146 11.4928 9.22167 11.5011 9.354C11.5094 9.48632 11.5699 9.60993 11.6694 9.69762ZM14.2269 4.667C14.1839 4.61557 14.1309 4.57333 14.0712 4.54277C14.0116 4.51222 13.9463 4.49398 13.8795 4.48914C13.8126 4.4843 13.7454 4.49297 13.682 4.51461C13.6185 4.53626 13.5601 4.57044 13.5101 4.61514C13.4601 4.65983 13.4196 4.71412 13.3911 4.77478C13.3625 4.83543 13.3464 4.90122 13.3438 4.96821C13.3411 5.03521 13.352 5.10205 13.3757 5.16476C13.3995 5.22747 13.4356 5.28477 13.4819 5.33325C14.1379 6.06664 14.5006 7.01612 14.5006 8.00012C14.5006 8.98413 14.1379 9.93361 13.4819 10.667C13.4356 10.7155 13.3995 10.7728 13.3757 10.8355C13.352 10.8982 13.3411 10.965 13.3438 11.032C13.3464 11.099 13.3625 11.1648 13.3911 11.2255C13.4196 11.2861 13.4601 11.3404 13.5101 11.3851C13.5601 11.4298 13.6185 11.464 13.682 11.4856C13.7454 11.5073 13.8126 11.5159 13.8795 11.5111C13.9463 11.5063 14.0116 11.488 14.0712 11.4575C14.1309 11.4269 14.1839 11.3847 14.2269 11.3332C15.0467 10.4166 15.4999 9.22991 15.4999 8.00012C15.4999 6.77033 15.0467 5.58367 14.2269 4.667ZM9.5625 7.492C9.59628 7.53031 9.64098 7.55735 9.69059 7.5695C9.7402 7.58164 9.79234 7.57829 9.83999 7.55991C9.88764 7.54153 9.92852 7.509 9.95713 7.46669C9.98574 7.42438 10.0007 7.37432 10 7.32325V2.01575C10.0012 1.93995 9.98564 1.86483 9.95454 1.79571C9.92343 1.72658 9.8775 1.66514 9.82 1.61575C9.73246 1.54331 9.62286 1.50286 9.50926 1.50104C9.39565 1.49922 9.28481 1.53615 9.195 1.60575L6.48938 3.70825C6.46218 3.72941 6.43966 3.75597 6.42322 3.78626C6.40679 3.81654 6.39679 3.8499 6.39385 3.88423C6.39092 3.91856 6.39511 3.95313 6.40617 3.98577C6.41723 4.0184 6.43492 4.0484 6.45813 4.07387L9.5625 7.492ZM3.75 5.00012H2C1.73478 5.00012 1.48043 5.10548 1.29289 5.29301C1.10536 5.48055 1 5.7349 1 6.00012V10.0001C1 10.2653 1.10536 10.5197 1.29289 10.7072C1.48043 10.8948 1.73478 11.0001 2 11.0001H3.75C3.8163 11.0001 3.87989 10.9738 3.92678 10.9269C3.97366 10.88 4 10.8164 4 10.7501V5.25012C4 5.18382 3.97366 5.12023 3.92678 5.07334C3.87989 5.02646 3.8163 5.00012 3.75 5.00012Z" fill="black"/>
</g>
<defs>
<clipPath id="clip0_5_338">
<rect width="16" height="16" fill="white"/>
</clipPath>
</defs>
</svg>
