<svg width="16" height="16" viewBox="0 0 16 16" fill="none" xmlns="http://www.w3.org/2000/svg">
<g clip-path="url(#clip0_5_677)">
<path d="M10 2.01575V13.9807C10.0015 14.0703 9.97981 14.1587 9.93698 14.2373C9.89415 14.316 9.83167 14.3822 9.75562 14.4295C9.66922 14.4809 9.56932 14.505 9.46897 14.4988C9.36863 14.4926 9.2725 14.4562 9.19312 14.3945L5.095 11.207C5.06529 11.1835 5.0413 11.1536 5.02484 11.1195C5.00838 11.0854 4.99989 11.048 5 11.0101V4.99012C5.00011 4.9521 5.0089 4.9146 5.02568 4.88049C5.04247 4.84637 5.06682 4.81653 5.09688 4.79325L9.195 1.60575C9.28481 1.53615 9.39565 1.49922 9.50926 1.50104C9.62286 1.50286 9.73246 1.54331 9.82 1.61575C9.8775 1.66514 9.92343 1.72658 9.95454 1.79571C9.98564 1.86483 10.0012 1.93995 10 2.01575ZM3.75 5.00012H2C1.73478 5.00012 1.48043 5.10548 1.29289 5.29301C1.10536 5.48055 1 5.7349 1 6.00012V10.0001C1 10.2653 1.10536 10.5197 1.29289 10.7072C1.48043 10.8948 1.73478 11.0001 2 11.0001H3.75C3.8163 11.0001 3.87989 10.9738 3.92678 10.9269C3.97366 10.88 4 10.8164 4 10.7501V5.25012C4 5.18382 3.97366 5.12023 3.92678 5.07334C3.87989 5.02646 3.8163 5.00012 3.75 5.00012ZM11.6731 6.30262C11.6238 6.34601 11.5834 6.39871 11.5544 6.4577C11.5254 6.51669 11.5084 6.58082 11.5042 6.64642C11.5 6.71201 11.5088 6.77779 11.5301 6.83998C11.5513 6.90218 11.5847 6.95957 11.6281 7.00887C11.8693 7.28277 12.0023 7.63519 12.0023 8.00012C12.0023 8.36506 11.8693 8.71748 11.6281 8.99137C11.5835 9.04042 11.549 9.09787 11.5268 9.16036C11.5046 9.22285 11.495 9.28913 11.4987 9.35536C11.5023 9.42158 11.5191 9.48642 11.548 9.54609C11.577 9.60577 11.6175 9.65909 11.6672 9.70295C11.717 9.74682 11.775 9.78034 11.8378 9.80158C11.9006 9.82282 11.9671 9.83134 12.0332 9.82666C12.0994 9.82197 12.164 9.80417 12.2232 9.7743C12.2824 9.74442 12.3351 9.70306 12.3781 9.65262C12.7803 9.19607 13.0022 8.60854 13.0022 8.00012C13.0022 7.3917 12.7803 6.80417 12.3781 6.34762C12.3347 6.29815 12.282 6.25774 12.2229 6.2287C12.1639 6.19965 12.0997 6.18255 12.034 6.17837C11.9684 6.17419 11.9025 6.18301 11.8403 6.20434C11.778 6.22566 11.7206 6.25906 11.6713 6.30262H11.6731ZM14.2288 4.667C14.1857 4.61557 14.1328 4.57333 14.0731 4.54277C14.0134 4.51222 13.9482 4.49398 13.8813 4.48914C13.8145 4.4843 13.7473 4.49297 13.6839 4.51461C13.6204 4.53626 13.5619 4.57044 13.512 4.61514C13.462 4.65983 13.4215 4.71412 13.3929 4.77478C13.3644 4.83543 13.3483 4.90122 13.3457 4.96821C13.343 5.03521 13.3539 5.10205 13.3776 5.16476C13.4013 5.22747 13.4374 5.28477 13.4838 5.33325C14.1398 6.06664 14.5025 7.01612 14.5025 8.00012C14.5025 8.98413 14.1398 9.93361 13.4838 10.667C13.4374 10.7155 13.4013 10.7728 13.3776 10.8355C13.3539 10.8982 13.343 10.965 13.3457 11.032C13.3483 11.099 13.3644 11.1648 13.3929 11.2255C13.4215 11.2861 13.462 11.3404 13.512 11.3851C13.5619 11.4298 13.6204 11.464 13.6839 11.4856C13.7473 11.5073 13.8145 11.5159 13.8813 11.5111C13.9482 11.5063 14.0134 11.488 14.0731 11.4575C14.1328 11.4269 14.1857 11.3847 14.2288 11.3332C15.0486 10.4166 15.5018 9.22991 15.5018 8.00012C15.5018 6.77033 15.0486 5.58367 14.2288 4.667Z" fill="black"/>
</g>
<defs>
<clipPath id="clip0_5_677">
<rect width="16" height="16" fill="white"/>
</clipPath>
</defs>
</svg>
