<svg width="16" height="16" viewBox="0 0 16 16" fill="none" xmlns="http://www.w3.org/2000/svg">
<g clip-path="url(#clip0_5_329)">
<path d="M13.5 9.4999C13.5 9.63251 13.4473 9.75969 13.3536 9.85346C13.2598 9.94723 13.1326 9.9999 13 9.9999H8.5V11.9999H10C10.0989 11.9998 10.1957 12.0291 10.278 12.084C10.3603 12.139 10.4244 12.2171 10.4623 12.3085C10.5002 12.3999 10.5101 12.5005 10.4908 12.5976C10.4714 12.6946 10.4238 12.7837 10.3538 12.8537L8.35375 14.8537C8.30731 14.9001 8.25217 14.937 8.19147 14.9622C8.13077 14.9873 8.06571 15.0003 8 15.0003C7.93429 15.0003 7.86923 14.9873 7.80853 14.9622C7.74783 14.937 7.69269 14.9001 7.64625 14.8537L5.64625 12.8537C5.57624 12.7837 5.52856 12.6946 5.50924 12.5976C5.48991 12.5005 5.49981 12.3999 5.53769 12.3085C5.57556 12.2171 5.63971 12.139 5.72201 12.084C5.80431 12.0291 5.90105 11.9998 6 11.9999H7.5V9.9999H3C2.86739 9.9999 2.74021 9.94723 2.64645 9.85346C2.55268 9.75969 2.5 9.63251 2.5 9.4999C2.5 9.3673 2.55268 9.24012 2.64645 9.14635C2.74021 9.05258 2.86739 8.9999 3 8.9999H13C13.1326 8.9999 13.2598 9.05258 13.3536 9.14635C13.4473 9.24012 13.5 9.3673 13.5 9.4999ZM3 6.99991H13C13.1326 6.99991 13.2598 6.94723 13.3536 6.85346C13.4473 6.75969 13.5 6.63251 13.5 6.49991C13.5 6.3673 13.4473 6.24012 13.3536 6.14635C13.2598 6.05258 13.1326 5.99991 13 5.99991H8.5V3.99991H10C10.0989 3.99998 10.1957 3.9707 10.278 3.91577C10.3603 3.86083 10.4244 3.78271 10.4623 3.6913C10.5002 3.59989 10.5101 3.49929 10.4908 3.40225C10.4714 3.30521 10.4238 3.21608 10.3538 3.14616L8.35375 1.14616C8.30731 1.09967 8.25217 1.06279 8.19147 1.03763C8.13077 1.01246 8.06571 0.999512 8 0.999512C7.93429 0.999512 7.86923 1.01246 7.80853 1.03763C7.74783 1.06279 7.69269 1.09967 7.64625 1.14616L5.64625 3.14616C5.57624 3.21608 5.52856 3.30521 5.50924 3.40225C5.48991 3.49929 5.49981 3.59989 5.53769 3.6913C5.57556 3.78271 5.63971 3.86083 5.72201 3.91577C5.80431 3.9707 5.90105 3.99998 6 3.99991H7.5V5.99991H3C2.86739 5.99991 2.74021 6.05258 2.64645 6.14635C2.55268 6.24012 2.5 6.3673 2.5 6.49991C2.5 6.63251 2.55268 6.75969 2.64645 6.85346C2.74021 6.94723 2.86739 6.99991 3 6.99991Z" fill="black"/>
</g>
<defs>
<clipPath id="clip0_5_329">
<rect width="16" height="16" fill="white"/>
</clipPath>
</defs>
</svg>
