<svg width="16" height="16" viewBox="0 0 16 16" fill="none" xmlns="http://www.w3.org/2000/svg">
<g clip-path="url(#clip0_5_936)">
<path d="M13.75 10.568L7.99995 13.9211L2.24995 10.568C2.13611 10.5113 2.00494 10.5002 1.88314 10.5368C1.76135 10.5734 1.65809 10.655 1.59437 10.7651C1.53066 10.8752 1.51128 11.0054 1.54018 11.1292C1.56909 11.2531 1.6441 11.3613 1.74995 11.4318L7.74995 14.9318C7.82641 14.9763 7.91332 14.9998 8.00183 14.9998C8.09033 14.9998 8.17725 14.9763 8.2537 14.9318L14.2537 11.4318C14.3113 11.3992 14.3619 11.3554 14.4025 11.3031C14.4431 11.2508 14.4729 11.191 14.4902 11.127C14.5074 11.0631 14.5119 10.9964 14.5031 10.9308C14.4944 10.8651 14.4728 10.8019 14.4394 10.7447C14.406 10.6875 14.3617 10.6375 14.3088 10.5976C14.256 10.5577 14.1957 10.5287 14.1316 10.5122C14.0675 10.4958 14.0007 10.4923 13.9352 10.5018C13.8697 10.5114 13.8067 10.5339 13.75 10.568Z" fill="black"/>
<path d="M13.75 7.56801L7.99995 10.9211L2.24995 7.56801C2.13611 7.51133 2.00494 7.50016 1.88314 7.53677C1.76135 7.57339 1.65809 7.65504 1.59437 7.76511C1.53066 7.87517 1.51128 8.00538 1.54018 8.12923C1.56909 8.25308 1.6441 8.36127 1.74995 8.43176L7.74995 11.9318C7.82641 11.9763 7.91332 11.9998 8.00183 11.9998C8.09033 11.9998 8.17725 11.9763 8.2537 11.9318L14.2537 8.43176C14.3113 8.39916 14.3619 8.35543 14.4025 8.30312C14.4431 8.25081 14.4729 8.19096 14.4902 8.12704C14.5074 8.06312 14.5119 7.99641 14.5031 7.93077C14.4944 7.86513 14.4728 7.80188 14.4394 7.74469C14.406 7.68749 14.3617 7.63749 14.3088 7.59758C14.256 7.55768 14.1957 7.52867 14.1316 7.51223C14.0675 7.4958 14.0007 7.49226 13.9352 7.50184C13.8697 7.51141 13.8067 7.5339 13.75 7.56801Z" fill="black"/>
<path d="M1.74999 5.43183L7.74999 8.93183C7.82645 8.97641 7.91336 8.9999 8.00187 8.9999C8.09037 8.9999 8.17729 8.97641 8.25374 8.93183L14.2537 5.43183C14.3292 5.38779 14.3918 5.32474 14.4354 5.24897C14.4789 5.17319 14.5018 5.08733 14.5018 4.99995C14.5018 4.91257 14.4789 4.82671 14.4354 4.75093C14.3918 4.67516 14.3292 4.61211 14.2537 4.56808L8.25374 1.06808C8.17729 1.02349 8.09037 1 8.00187 1C7.91336 1 7.82645 1.02349 7.74999 1.06808L1.74999 4.56808C1.67451 4.61211 1.6119 4.67516 1.56837 4.75093C1.52485 4.82671 1.50195 4.91257 1.50195 4.99995C1.50195 5.08733 1.52485 5.17319 1.56837 5.24897C1.6119 5.32474 1.67451 5.38779 1.74999 5.43183Z" fill="black"/>
</g>
<defs>
<clipPath id="clip0_5_936">
<rect width="16" height="16" fill="white"/>
</clipPath>
</defs>
</svg>
