<svg width="16" height="16" viewBox="0 0 16 16" fill="none" xmlns="http://www.w3.org/2000/svg">
<g clip-path="url(#clip0_5_318)">
<path d="M0.749933 6.93759L7.74993 10.9376C7.8255 10.9808 7.91102 11.0035 7.99806 11.0035C8.08509 11.0035 8.17062 10.9808 8.24618 10.9376L15.2462 6.93759C15.3228 6.89389 15.3866 6.83069 15.4309 6.7544C15.4752 6.67811 15.4986 6.59145 15.4986 6.50321C15.4986 6.41498 15.4752 6.32832 15.4309 6.25203C15.3866 6.17574 15.3228 6.11254 15.2462 6.06884L8.24618 2.06884C8.17062 2.02565 8.08509 2.00293 7.99806 2.00293C7.91102 2.00293 7.8255 2.02565 7.74993 2.06884L0.749933 6.06884C0.673281 6.11254 0.609557 6.17574 0.565232 6.25203C0.520907 6.32832 0.497559 6.41498 0.497559 6.50321C0.497559 6.59145 0.520907 6.67811 0.565232 6.7544C0.609557 6.83069 0.673281 6.89389 0.749933 6.93759Z" fill="black"/>
<path d="M14.7501 8.56562L8.00009 12.4244L1.25009 8.56562C1.19285 8.53279 1.12969 8.51156 1.06424 8.50313C0.998783 8.49471 0.932311 8.49926 0.868616 8.51653C0.804921 8.53379 0.74525 8.56344 0.693011 8.60376C0.640772 8.64409 0.596987 8.69431 0.564156 8.75156C0.531326 8.80881 0.510093 8.87196 0.501669 8.93742C0.493246 9.00287 0.497797 9.06934 0.515063 9.13304C0.532329 9.19673 0.561971 9.2564 0.602298 9.30864C0.642624 9.36088 0.692846 9.40467 0.750094 9.4375L7.75009 13.4375C7.82566 13.4807 7.91118 13.5034 7.99822 13.5034C8.08525 13.5034 8.17078 13.4807 8.24634 13.4375L15.2463 9.4375C15.3034 9.40491 15.3535 9.36141 15.3937 9.30948C15.4339 9.25754 15.4635 9.1982 15.4808 9.13482C15.4981 9.07144 15.5028 9.00528 15.4945 8.94011C15.4862 8.87494 15.4652 8.81204 15.4326 8.755C15.4 8.69795 15.3565 8.64789 15.3046 8.60766C15.2526 8.56742 15.1933 8.53782 15.1299 8.52052C15.0665 8.50323 15.0004 8.49858 14.9352 8.50686C14.87 8.51513 14.8071 8.53616 14.7501 8.56875V8.56562Z" fill="black"/>
</g>
<defs>
<clipPath id="clip0_5_318">
<rect width="16" height="16" fill="white"/>
</clipPath>
</defs>
</svg>
