<svg width="16" height="16" viewBox="0 0 16 16" fill="none" xmlns="http://www.w3.org/2000/svg">
<g clip-path="url(#clip0_5_312)">
<path d="M12.5755 7.99993L14.4374 4.74993C14.4815 4.67359 14.5046 4.58696 14.5044 4.49881C14.5042 4.41065 14.4807 4.32412 14.4363 4.24798C14.3919 4.17183 14.3281 4.10879 14.2515 4.06523C14.1748 4.02167 14.0881 3.99914 13.9999 3.99993H10.2905L8.43741 0.749933C8.39371 0.673281 8.33051 0.609557 8.25422 0.565232C8.17793 0.520907 8.09127 0.497559 8.00303 0.497559C7.9148 0.497559 7.82814 0.520907 7.75185 0.565232C7.67556 0.609557 7.61236 0.673281 7.56866 0.749933L5.70803 3.99993H1.99991C1.91203 3.99969 1.82563 4.02262 1.74943 4.06641C1.67323 4.11019 1.60992 4.17329 1.56587 4.24934C1.52183 4.32539 1.49861 4.41171 1.49855 4.49959C1.49849 4.58748 1.52159 4.67382 1.56553 4.74993L3.42303 7.99993L1.56553 11.2499C1.52145 11.3263 1.49834 11.4129 1.49854 11.5011C1.49873 11.5892 1.52223 11.6757 1.56665 11.7519C1.61106 11.828 1.67482 11.8911 1.75146 11.9346C1.82809 11.9782 1.91489 12.0007 2.00303 11.9999H5.70803L7.56553 15.2499C7.60923 15.3266 7.67243 15.3903 7.74872 15.4346C7.82502 15.479 7.91168 15.5023 7.99991 15.5023C8.08814 15.5023 8.1748 15.479 8.25109 15.4346C8.32738 15.3903 8.39059 15.3266 8.43428 15.2499L10.2905 11.9999H13.9999C14.0881 12.0007 14.1748 11.9782 14.2515 11.9346C14.3281 11.8911 14.3919 11.828 14.4363 11.7519C14.4807 11.6757 14.5042 11.5892 14.5044 11.5011C14.5046 11.4129 14.4815 11.3263 14.4374 11.2499L12.5755 7.99993ZM11.4243 7.99993L9.71053 10.9999H6.28866L4.57491 7.99993L6.28866 4.99993H9.71053L11.4243 7.99993Z" fill="black"/>
</g>
<defs>
<clipPath id="clip0_5_312">
<rect width="16" height="16" fill="white"/>
</clipPath>
</defs>
</svg>
