<svg width="16" height="16" viewBox="0 0 16 16" fill="none" xmlns="http://www.w3.org/2000/svg">
<g clip-path="url(#clip0_5_313)">
<path d="M15.0002 8.00016C15.0017 8.20524 14.9394 8.40573 14.8218 8.57374C14.7042 8.74176 14.5371 8.86896 14.3439 8.93766L10.3789 10.3795L8.93766 14.3439C8.86662 14.5353 8.73872 14.7003 8.57113 14.8169C8.40354 14.9334 8.20429 14.9959 8.00016 14.9959C7.79602 14.9959 7.59678 14.9334 7.42919 14.8169C7.2616 14.7003 7.1337 14.5353 7.06266 14.3439L5.62141 10.3789L1.65641 8.93766C1.46503 8.86662 1.29998 8.73872 1.18342 8.57113C1.06687 8.40354 1.00439 8.20429 1.00439 8.00016C1.00439 7.79602 1.06687 7.59678 1.18342 7.42919C1.29998 7.2616 1.46503 7.1337 1.65641 7.06266L5.62141 5.62141L7.06266 1.65641C7.1337 1.46503 7.2616 1.29998 7.42919 1.18342C7.59678 1.06687 7.79602 1.00439 8.00016 1.00439C8.20429 1.00439 8.40354 1.06687 8.57113 1.18342C8.73872 1.29998 8.86662 1.46503 8.93766 1.65641L10.3795 5.62141L14.3439 7.06266C14.5371 7.13136 14.7042 7.25856 14.8218 7.42658C14.9394 7.59459 15.0017 7.79508 15.0002 8.00016Z" fill="black"/>
</g>
<defs>
<clipPath id="clip0_5_313">
<rect width="16" height="16" fill="white"/>
</clipPath>
</defs>
</svg>
