<svg width="16" height="16" viewBox="0 0 16 16" fill="none" xmlns="http://www.w3.org/2000/svg">
<g clip-path="url(#clip0_5_300)">
<path d="M3.37 2.16366C3.32496 2.11412 3.27043 2.07413 3.20965 2.04606C3.14886 2.01799 3.08306 2.00242 3.01614 2.00026C2.94923 1.9981 2.88256 2.00941 2.82009 2.0335C2.75762 2.0576 2.70063 2.09399 2.6525 2.14053C2.55971 2.23513 2.507 2.3619 2.50537 2.4944C2.50374 2.6269 2.55331 2.75493 2.64375 2.85178L2.77875 2.99991H2C1.73478 2.99991 1.48043 3.10526 1.29289 3.2928C1.10536 3.48034 1 3.73469 1 3.99991V11.9999C1 12.2651 1.10536 12.5195 1.29289 12.707C1.48043 12.8945 1.73478 12.9999 2 12.9999H11.87L12.63 13.8362C12.6743 13.8849 12.7278 13.9244 12.7874 13.9524C12.8471 13.9804 12.9116 13.9963 12.9774 13.9993C13.0432 14.0022 13.109 13.9922 13.1709 13.9696C13.2328 13.9471 13.2896 13.9126 13.3381 13.868C13.4335 13.7738 13.4888 13.6462 13.4923 13.5121C13.4958 13.378 13.4473 13.2478 13.3569 13.1487L3.37 2.16366ZM6.5 7.99991H7.32438L8.23312 8.99991H6.51687C6.38767 9.00181 6.26253 8.95472 6.16663 8.8681C6.07074 8.78149 6.0112 8.66177 6 8.53303C5.99546 8.46464 6.00503 8.39604 6.02811 8.3315C6.0512 8.26696 6.08731 8.20786 6.1342 8.15786C6.18109 8.10787 6.23776 8.06805 6.30069 8.04087C6.36361 8.0137 6.43146 7.99976 6.5 7.99991ZM3.5 7.99991H4.5C4.56854 7.99976 4.63639 8.0137 4.69931 8.04087C4.76224 8.06805 4.81891 8.10787 4.8658 8.15786C4.91269 8.20786 4.9488 8.26696 4.97189 8.3315C4.99497 8.39604 5.00454 8.46464 5 8.53303C4.9888 8.66177 4.92926 8.78149 4.83337 8.8681C4.73747 8.95472 4.61233 9.00181 4.48313 8.99991H3.51688C3.38767 9.00181 3.26253 8.95472 3.16663 8.8681C3.07074 8.78149 3.0112 8.66177 3 8.53303C2.99546 8.46464 3.00503 8.39604 3.02811 8.3315C3.0512 8.26696 3.08731 8.20786 3.1342 8.15786C3.18109 8.10787 3.23776 8.06805 3.30069 8.04087C3.36361 8.0137 3.43146 7.99976 3.5 7.99991ZM9.5 10.9999H3.51688C3.38767 11.0018 3.26253 10.9547 3.16663 10.8681C3.07074 10.7815 3.0112 10.6618 3 10.533C2.99546 10.4646 3.00503 10.396 3.02811 10.3315C3.0512 10.267 3.08731 10.2079 3.1342 10.1579C3.18109 10.1079 3.23776 10.068 3.30069 10.0409C3.36361 10.0137 3.43146 9.99976 3.5 9.99991H9.1425L9.88625 10.818C9.83928 10.875 9.78029 10.9208 9.71351 10.9523C9.64673 10.9837 9.57382 11 9.5 10.9999ZM15 3.99991V11.9999C14.9999 12.1384 14.971 12.2754 14.9151 12.4021C14.8593 12.5288 14.7777 12.6426 14.6756 12.7362C14.6514 12.7588 14.6229 12.7764 14.5917 12.788C14.5606 12.7995 14.5275 12.8047 14.4944 12.8033C14.4612 12.8019 14.4286 12.794 14.3986 12.7798C14.3686 12.7657 14.3416 12.7458 14.3194 12.7212L10.9375 8.99991H12.5C12.5685 9.00006 12.6364 8.98611 12.6993 8.95894C12.7622 8.93177 12.8189 8.89195 12.8658 8.84195C12.9127 8.79195 12.9488 8.73285 12.9719 8.66831C12.995 8.60377 13.0045 8.53517 13 8.46678C12.989 8.33821 12.9296 8.21858 12.834 8.13197C12.7383 8.04535 12.6134 7.99817 12.4844 7.99991H10.0281L5.86188 3.41803C5.82916 3.38203 5.80766 3.33728 5.8 3.28924C5.79235 3.24121 5.79887 3.19198 5.81877 3.1476C5.83868 3.10322 5.87109 3.0656 5.91205 3.03937C5.95301 3.01314 6.00074 2.99942 6.04938 2.99991H14C14.2652 2.99991 14.5196 3.10526 14.7071 3.2928C14.8946 3.48034 15 3.73469 15 3.99991Z" fill="black"/>
</g>
<defs>
<clipPath id="clip0_5_300">
<rect width="16" height="16" fill="white"/>
</clipPath>
</defs>
</svg>
