<svg width="16" height="16" viewBox="0 0 16 16" fill="none" xmlns="http://www.w3.org/2000/svg">
<g clip-path="url(#clip0_5_299)">
<path d="M10.9142 5.08423C10.7477 4.18886 10.3398 3.35598 9.73449 2.67549C9.12921 1.995 8.34957 1.49276 7.47972 1.22296C6.60988 0.953172 5.68286 0.926083 4.79874 1.14462C3.91462 1.36316 3.10698 1.81902 2.463 2.463C1.81902 3.10698 1.36316 3.91462 1.14462 4.79874C0.926083 5.68286 0.953172 6.60988 1.22296 7.47972C1.49276 8.34957 1.995 9.12921 2.67549 9.73449C3.35598 10.3398 4.18886 10.7477 5.08423 10.9142C5.25077 11.8096 5.65869 12.6425 6.26397 13.323C6.86924 14.0035 7.64889 14.5057 8.51873 14.7755C9.38858 15.0453 10.3156 15.0724 11.1997 14.8538C12.0838 14.6353 12.8915 14.1794 13.5355 13.5355C14.1794 12.8915 14.6353 12.0838 14.8538 11.1997C15.0724 10.3156 15.0453 9.38858 14.7755 8.51873C14.5057 7.64889 14.0035 6.86924 13.323 6.26397C12.6425 5.65869 11.8096 5.25077 10.9142 5.08423ZM5.99985 9.99985C5.20873 9.99985 4.43537 9.76526 3.77757 9.32573C3.11978 8.88621 2.60709 8.26149 2.30434 7.53059C2.00159 6.79968 1.92237 5.99542 2.07671 5.21949C2.23105 4.44357 2.61202 3.73084 3.17143 3.17143C3.73084 2.61202 4.44357 2.23105 5.21949 2.07671C5.99542 1.92237 6.79968 2.00159 7.53059 2.30434C8.26149 2.60709 8.88621 3.11978 9.32573 3.77757C9.76526 4.43537 9.99985 5.20873 9.99985 5.99985C9.9987 7.06036 9.5769 8.07711 8.827 8.827C8.07711 9.5769 7.06036 9.9987 5.99985 9.99985Z" fill="black"/>
</g>
<defs>
<clipPath id="clip0_5_299">
<rect width="16" height="16" fill="white"/>
</clipPath>
</defs>
</svg>
