<svg width="16" height="16" viewBox="0 0 16 16" fill="none" xmlns="http://www.w3.org/2000/svg">
<g clip-path="url(#clip0_5_295)">
<path d="M15.5 9.99983C15.5 10.1324 15.4473 10.2596 15.3536 10.3534C15.2598 10.4472 15.1326 10.4998 15 10.4998H1C0.867392 10.4998 0.740215 10.4472 0.646447 10.3534C0.552678 10.2596 0.5 10.1324 0.5 9.99983C0.5 9.86722 0.552678 9.74005 0.646447 9.64628C0.740215 9.55251 0.867392 9.49983 1 9.49983H3.52813C3.50967 9.3338 3.50028 9.16689 3.5 8.99983C3.5 7.80636 3.97411 6.66177 4.81802 5.81785C5.66193 4.97394 6.80653 4.49983 8 4.49983C9.19347 4.49983 10.3381 4.97394 11.182 5.81785C12.0259 6.66177 12.5 7.80636 12.5 8.99983C12.4997 9.16689 12.4903 9.3338 12.4719 9.49983H15C15.1326 9.49983 15.2598 9.55251 15.3536 9.64628C15.4473 9.74005 15.5 9.86722 15.5 9.99983ZM13 11.9998H3C2.86739 11.9998 2.74021 12.0525 2.64645 12.1463C2.55268 12.24 2.5 12.3672 2.5 12.4998C2.5 12.6324 2.55268 12.7596 2.64645 12.8534C2.74021 12.9472 2.86739 12.9998 3 12.9998H13C13.1326 12.9998 13.2598 12.9472 13.3536 12.8534C13.4473 12.7596 13.5 12.6324 13.5 12.4998C13.5 12.3672 13.4473 12.24 13.3536 12.1463C13.2598 12.0525 13.1326 11.9998 13 11.9998ZM5.0525 3.72358C5.08188 3.78235 5.12255 3.83475 5.17219 3.8778C5.22182 3.92085 5.27945 3.9537 5.34178 3.97448C5.40412 3.99525 5.46993 4.00355 5.53547 3.99889C5.601 3.99424 5.66498 3.97672 5.72375 3.94733C5.78252 3.91795 5.83492 3.87728 5.87797 3.82764C5.92102 3.77801 5.95387 3.72038 5.97465 3.65805C5.99542 3.59572 6.00372 3.5299 5.99906 3.46437C5.9944 3.39883 5.97688 3.33485 5.9475 3.27608L5.4475 2.27608C5.38816 2.1574 5.2841 2.06715 5.15822 2.02519C5.03233 1.98323 4.89493 1.99299 4.77625 2.05233C4.65757 2.11167 4.56732 2.21573 4.52535 2.34162C4.48339 2.4675 4.49316 2.6049 4.5525 2.72358L5.0525 3.72358ZM1.27625 6.44733L2.27625 6.94733C2.39485 7.00667 2.53217 7.01647 2.65799 6.97457C2.78382 6.93267 2.88785 6.8425 2.94719 6.72389C3.00653 6.60529 3.01633 6.46798 2.97442 6.34215C2.93252 6.21633 2.84235 6.1123 2.72375 6.05296L1.72375 5.55296C1.66502 5.52357 1.60109 5.50605 1.53559 5.50137C1.47009 5.4967 1.40431 5.50497 1.34201 5.52572C1.2797 5.54647 1.2221 5.57928 1.17248 5.6223C1.12286 5.66531 1.0822 5.71767 1.05281 5.7764C1.02343 5.83512 1.0059 5.89906 1.00123 5.96456C0.996554 6.03006 1.00483 6.09584 1.02558 6.15814C1.04632 6.22044 1.07914 6.27805 1.12215 6.32767C1.16516 6.37729 1.21752 6.41795 1.27625 6.44733ZM13.5 6.99983C13.5774 6.99985 13.6538 6.98187 13.7231 6.94733L14.7231 6.44733C14.7819 6.41795 14.8342 6.37729 14.8772 6.32767C14.9202 6.27805 14.9531 6.22044 14.9738 6.15814C14.9945 6.09584 15.0028 6.03006 14.9981 5.96456C14.9935 5.89906 14.9759 5.83512 14.9466 5.7764C14.9172 5.71767 14.8765 5.66531 14.8269 5.6223C14.7773 5.57928 14.7197 5.54647 14.6574 5.52572C14.5951 5.50497 14.5293 5.4967 14.4638 5.50137C14.3983 5.50605 14.3344 5.52357 14.2756 5.55296L13.2756 6.05296C13.175 6.10346 13.0944 6.18643 13.0468 6.28846C12.9992 6.39048 12.9874 6.50558 13.0134 6.61512C13.0393 6.72467 13.1015 6.82224 13.1898 6.89206C13.2781 6.96188 13.3874 6.99985 13.5 6.99983ZM10.2762 3.94733C10.335 3.97676 10.399 3.99431 10.4645 3.99899C10.5301 4.00367 10.5959 3.99538 10.6583 3.9746C10.7206 3.95382 10.7782 3.92096 10.8279 3.87788C10.8775 3.83481 10.9181 3.78238 10.9475 3.72358L11.4475 2.72358C11.5068 2.6049 11.5166 2.4675 11.4746 2.34162C11.4327 2.21573 11.3424 2.11167 11.2238 2.05233C11.1051 1.99299 10.9677 1.98323 10.8418 2.02519C10.7159 2.06715 10.6118 2.1574 10.5525 2.27608L10.0525 3.27608C10.0231 3.33484 10.0055 3.39882 10.0008 3.46437C9.99616 3.52992 10.0044 3.59575 10.0252 3.65809C10.046 3.72043 10.0789 3.77807 10.1219 3.8277C10.165 3.87733 10.2175 3.91798 10.2762 3.94733Z" fill="black"/>
</g>
<defs>
<clipPath id="clip0_5_295">
<rect width="16" height="16" fill="white"/>
</clipPath>
</defs>
</svg>
