<svg width="16" height="16" viewBox="0 0 16 16" fill="none" xmlns="http://www.w3.org/2000/svg">
<g clip-path="url(#clip0_5_291)">
<path d="M15.0001 9.74429C14.9976 9.63281 14.9765 9.52254 14.9376 9.41804L13.7464 6.15491C13.6546 5.90749 13.4687 5.70637 13.2293 5.59539C12.9899 5.4844 12.7163 5.47255 12.4682 5.56241L8.2301 7.09804L8.9851 2.78554C9.03187 2.52456 8.97307 2.25568 8.82165 2.03804C8.67022 1.8204 8.43856 1.6718 8.1776 1.62491L4.76073 1.01554C4.63155 0.992827 4.49916 0.995846 4.37116 1.02442C4.24316 1.05299 4.12205 1.10656 4.0148 1.18205C3.90755 1.25754 3.81626 1.35346 3.74617 1.46432C3.67607 1.57517 3.62856 1.69878 3.60635 1.82804L2.04385 10.773C1.97242 11.1674 1.98841 11.5727 2.09071 11.9602C2.19301 12.3477 2.37911 12.7081 2.63589 13.0158C2.89266 13.3235 3.21385 13.5712 3.57679 13.7412C3.93972 13.9112 4.33556 13.9996 4.73635 13.9999H14.0001C14.2653 13.9999 14.5197 13.8946 14.7072 13.707C14.8947 13.5195 15.0001 13.2651 15.0001 12.9999V9.74429ZM4.7501 12.2499C4.55232 12.2499 4.35898 12.1913 4.19453 12.0814C4.03008 11.9715 3.90191 11.8153 3.82622 11.6326C3.75053 11.4499 3.73073 11.2488 3.76932 11.0548C3.8079 10.8608 3.90314 10.6827 4.04299 10.5428C4.18285 10.403 4.36103 10.3077 4.55501 10.2691C4.74899 10.2305 4.95006 10.2503 5.13278 10.326C5.31551 10.4017 5.47169 10.5299 5.58157 10.6943C5.69145 10.8588 5.7501 11.0521 5.7501 11.2499C5.7501 11.5151 5.64474 11.7695 5.45721 11.957C5.26967 12.1446 5.01532 12.2499 4.7501 12.2499ZM7.4201 11.7262L8.03135 8.23116L12.8076 6.49991L14.0001 9.75679L7.29885 12.1874C7.35228 12.0374 7.39285 11.8831 7.4201 11.7262ZM14.0001 12.9999H7.98385L14.0001 10.8193V12.9999Z" fill="black"/>
</g>
<defs>
<clipPath id="clip0_5_291">
<rect width="16" height="16" fill="white"/>
</clipPath>
</defs>
</svg>
