<svg width="16" height="16" viewBox="0 0 16 16" fill="none" xmlns="http://www.w3.org/2000/svg">
<g clip-path="url(#clip0_5_286)">
<path d="M15.9999 10.5C15.9999 10.6326 15.9472 10.7598 15.8535 10.8536C15.7597 10.9474 15.6325 11 15.4999 11H0.499905C0.421408 11 0.344017 10.9815 0.273996 10.946C0.203976 10.9106 0.143293 10.8591 0.0968592 10.7958C0.0504256 10.7325 0.019546 10.6592 0.00671979 10.5817C-0.00610637 10.5043 -0.000518732 10.4249 0.0230305 10.35L1.41428 5.71253C1.47525 5.50553 1.60199 5.32402 1.77531 5.19546C1.94864 5.0669 2.15912 4.9983 2.37491 5.00003H7.63116C7.84641 4.99898 8.05618 5.0679 8.22888 5.1964C8.40157 5.32491 8.52783 5.50604 8.58866 5.71253L9.87491 10H10.8312L9.42428 5.32191C9.41308 5.28458 9.41075 5.24515 9.4175 5.20677C9.42424 5.16839 9.43986 5.13211 9.46312 5.10084C9.48637 5.06957 9.51662 5.04417 9.55144 5.02667C9.58626 5.00916 9.62468 5.00004 9.66366 5.00003H10.628C10.843 5.00009 11.0523 5.06943 11.2247 5.19778C11.3972 5.32612 11.5237 5.50662 11.5855 5.71253L12.8749 10H13.8312L12.4243 5.32191C12.4131 5.28458 12.4108 5.24515 12.4175 5.20677C12.4242 5.16839 12.4399 5.13211 12.4631 5.10084C12.4864 5.06957 12.5166 5.04417 12.5514 5.02667C12.5863 5.00916 12.6247 5.00004 12.6637 5.00003H13.628C13.843 5.00009 14.0523 5.06943 14.2247 5.19778C14.3972 5.32612 14.5237 5.50662 14.5855 5.71253L15.9768 10.3488C15.9921 10.3977 15.9999 10.4487 15.9999 10.5Z" fill="black"/>
</g>
<defs>
<clipPath id="clip0_5_286">
<rect width="16" height="16" fill="white"/>
</clipPath>
</defs>
</svg>
