<svg width="16" height="16" viewBox="0 0 16 16" fill="none" xmlns="http://www.w3.org/2000/svg">
<g clip-path="url(#clip0_5_285)">
<path d="M15.4161 8.2775L12.5623 12.555C12.4712 12.6916 12.3478 12.8037 12.203 12.8813C12.0582 12.9589 11.8966 12.9997 11.7323 13H1.99984C1.90929 13.0001 1.82043 12.9755 1.74274 12.929C1.66505 12.8825 1.60144 12.8158 1.55871 12.736C1.51597 12.6562 1.49572 12.5662 1.5001 12.4758C1.50448 12.3854 1.53334 12.2978 1.58359 12.2225L4.39921 8L1.58671 3.7775C1.53661 3.7024 1.50777 3.61514 1.50326 3.52497C1.49875 3.43481 1.51873 3.3451 1.56109 3.26538C1.60345 3.18566 1.66661 3.11889 1.74386 3.07217C1.8211 3.02544 1.90956 3.0005 1.99984 3H11.7323C11.8966 3.0003 12.0582 3.04106 12.203 3.11868C12.3478 3.19629 12.4712 3.30836 12.5623 3.445L15.4142 7.7225C15.4693 7.80448 15.4989 7.90094 15.4992 7.99972C15.4996 8.09849 15.4706 8.19515 15.4161 8.2775Z" fill="black"/>
</g>
<defs>
<clipPath id="clip0_5_285">
<rect width="16" height="16" fill="white"/>
</clipPath>
</defs>
</svg>
