<svg width="16" height="16" viewBox="0 0 16 16" fill="none" xmlns="http://www.w3.org/2000/svg">
<g clip-path="url(#clip0_5_283)">
<path d="M13.2 4.96197C13.1407 4.99027 13.0876 5.02998 13.0437 5.07881C12.9998 5.12765 12.9659 5.18466 12.944 5.24659C12.9221 5.30852 12.9127 5.37415 12.9162 5.43974C12.9197 5.50533 12.936 5.56959 12.9644 5.62884C13.5513 6.85327 13.665 8.25138 13.2837 9.55456C12.9024 10.8577 12.053 11.9741 10.8987 12.6891C9.74442 13.4041 8.3666 13.6673 7.03001 13.4281C5.69342 13.189 4.49233 12.4644 3.65752 11.3936C2.8227 10.3227 2.41304 8.98112 2.50725 7.62658C2.60146 6.27204 3.19289 5.00008 4.16791 4.0551C5.14292 3.11011 6.43275 2.55875 7.78958 2.50695C9.1464 2.45515 10.4745 2.90657 11.5187 3.77447L10.0956 5.19759C9.38691 4.66956 8.50468 4.42919 7.62607 4.52474C6.74747 4.62029 5.93754 5.04469 5.35891 5.71273C4.78028 6.38076 4.4758 7.24297 4.50661 8.12622C4.53742 9.00947 4.90123 9.84837 5.52499 10.4745C6.02653 10.9758 6.66853 11.313 7.36597 11.4413C8.0634 11.5697 8.78338 11.4831 9.43053 11.1932C10.0777 10.9032 10.6215 10.4235 10.9899 9.81757C11.3584 9.21165 11.5341 8.5081 11.4937 7.80009C11.49 7.73443 11.4735 7.67014 11.4449 7.61089C11.4164 7.55164 11.3764 7.4986 11.3274 7.45478C11.2784 7.41096 11.2212 7.37723 11.1591 7.35552C11.097 7.3338 11.0313 7.32452 10.9656 7.32822C10.9 7.33191 10.8357 7.3485 10.7764 7.37704C10.7172 7.40558 10.6641 7.44551 10.6203 7.49455C10.5765 7.54359 10.5428 7.60078 10.521 7.66286C10.4993 7.72494 10.49 7.79068 10.4937 7.85634C10.5205 8.31955 10.4178 8.78106 10.1972 9.18924C9.97662 9.59741 9.64677 9.93614 9.24461 10.1675C8.84244 10.3989 8.38381 10.5138 7.92006 10.4993C7.45631 10.4849 7.00573 10.3417 6.61874 10.0857L8.11562 8.58884L10.475 6.23259L14.3537 2.35759C14.4002 2.31114 14.437 2.25599 14.4622 2.19529C14.4873 2.13459 14.5003 2.06954 14.5003 2.00384C14.5003 1.93815 14.4873 1.87309 14.4622 1.8124C14.437 1.7517 14.4002 1.69655 14.3537 1.65009C14.3073 1.60364 14.2521 1.56679 14.1914 1.54165C14.1307 1.51651 14.0657 1.50357 14 1.50357C13.9343 1.50357 13.8692 1.51651 13.8085 1.54165C13.7478 1.56679 13.6927 1.60364 13.6462 1.65009L12.2294 3.06259C10.9537 1.96372 9.30147 1.4027 7.62047 1.49766C5.93948 1.59262 4.36091 2.33614 3.21714 3.57168C2.07337 4.80722 1.45365 6.43837 1.48845 8.12168C1.52326 9.805 2.20988 11.4091 3.40374 12.5963C4.48771 13.6823 5.92087 14.3497 7.44962 14.4806C8.97837 14.6115 10.5041 14.1973 11.7569 13.3115C13.0097 12.4256 13.9087 11.1251 14.2948 9.64016C14.681 8.1552 14.5294 6.58152 13.8669 5.19759C13.8386 5.13832 13.7989 5.08521 13.75 5.04129C13.7012 4.99737 13.6442 4.9635 13.5822 4.94162C13.5203 4.91974 13.4547 4.91027 13.3891 4.91376C13.3235 4.91726 13.2592 4.93364 13.2 4.96197Z" fill="black"/>
</g>
<defs>
<clipPath id="clip0_5_283">
<rect width="16" height="16" fill="white"/>
</clipPath>
</defs>
</svg>
