<svg width="16" height="16" viewBox="0 0 16 16" fill="none" xmlns="http://www.w3.org/2000/svg">
<g clip-path="url(#clip0_5_863)">
<path d="M14 7.99991C14 8.13251 13.9473 8.25969 13.8536 8.35346C13.7598 8.44723 13.6326 8.49991 13.5 8.49991H7C6.86739 8.49991 6.74021 8.44723 6.64645 8.35346C6.55268 8.25969 6.5 8.13251 6.5 7.99991C6.5 7.8673 6.55268 7.74012 6.64645 7.64635C6.74021 7.55258 6.86739 7.49991 7 7.49991H13.5C13.6326 7.49991 13.7598 7.55258 13.8536 7.64635C13.9473 7.74012 14 7.8673 14 7.99991ZM7 4.49991H13.5C13.6326 4.49991 13.7598 4.44723 13.8536 4.35346C13.9473 4.25969 14 4.13251 14 3.99991C14 3.8673 13.9473 3.74012 13.8536 3.64635C13.7598 3.55258 13.6326 3.49991 13.5 3.49991H7C6.86739 3.49991 6.74021 3.55258 6.64645 3.64635C6.55268 3.74012 6.5 3.8673 6.5 3.99991C6.5 4.13251 6.55268 4.25969 6.64645 4.35346C6.74021 4.44723 6.86739 4.49991 7 4.49991ZM13.5 11.4999H2.5C2.36739 11.4999 2.24022 11.5526 2.14645 11.6464C2.05268 11.7401 2 11.8673 2 11.9999C2 12.1325 2.05268 12.2597 2.14645 12.3535C2.24022 12.4472 2.36739 12.4999 2.5 12.4999H13.5C13.6326 12.4999 13.7598 12.4472 13.8536 12.3535C13.9473 12.2597 14 12.1325 14 11.9999C14 11.8673 13.9473 11.7401 13.8536 11.6464C13.7598 11.5526 13.6326 11.4999 13.5 11.4999ZM2.30875 8.96178C2.4001 8.99968 2.50064 9.00964 2.59765 8.99039C2.69466 8.97114 2.78379 8.92356 2.85375 8.85366L5.35375 6.35366C5.40024 6.30722 5.43712 6.25207 5.46228 6.19138C5.48744 6.13068 5.50039 6.06561 5.50039 5.99991C5.50039 5.9342 5.48744 5.86913 5.46228 5.80844C5.43712 5.74774 5.40024 5.69259 5.35375 5.64616L2.85375 3.14616C2.78382 3.07615 2.6947 3.02847 2.59765 3.00914C2.50061 2.98982 2.40002 2.99972 2.30861 3.03759C2.21719 3.07547 2.13908 3.13962 2.08414 3.22191C2.0292 3.30421 1.99992 3.40096 2 3.49991V8.49991C2.00002 8.5988 2.02936 8.69546 2.08432 8.77767C2.13928 8.85988 2.21738 8.92395 2.30875 8.96178Z" fill="black"/>
</g>
<defs>
<clipPath id="clip0_5_863">
<rect width="16" height="16" fill="white"/>
</clipPath>
</defs>
</svg>
