<svg width="16" height="16" viewBox="0 0 16 16" fill="none" xmlns="http://www.w3.org/2000/svg">
<g clip-path="url(#clip0_5_265)">
<path d="M13.9999 7.99991C13.9999 8.13251 13.9472 8.25969 13.8535 8.35346C13.7597 8.44723 13.6325 8.49991 13.4999 8.49991H6.99991C6.8673 8.49991 6.74012 8.44723 6.64635 8.35346C6.55258 8.25969 6.49991 8.13251 6.49991 7.99991C6.49991 7.8673 6.55258 7.74012 6.64635 7.64635C6.74012 7.55258 6.8673 7.49991 6.99991 7.49991H13.4999C13.6325 7.49991 13.7597 7.55258 13.8535 7.64635C13.9472 7.74012 13.9999 7.8673 13.9999 7.99991ZM6.99991 4.49991H13.4999C13.6325 4.49991 13.7597 4.44723 13.8535 4.35346C13.9472 4.25969 13.9999 4.13251 13.9999 3.99991C13.9999 3.8673 13.9472 3.74012 13.8535 3.64635C13.7597 3.55258 13.6325 3.49991 13.4999 3.49991H6.99991C6.8673 3.49991 6.74012 3.55258 6.64635 3.64635C6.55258 3.74012 6.49991 3.8673 6.49991 3.99991C6.49991 4.13251 6.55258 4.25969 6.64635 4.35346C6.74012 4.44723 6.8673 4.49991 6.99991 4.49991ZM13.4999 11.4999H2.4999C2.3673 11.4999 2.24012 11.5526 2.14635 11.6464C2.05258 11.7401 1.9999 11.8673 1.9999 11.9999C1.9999 12.1325 2.05258 12.2597 2.14635 12.3535C2.24012 12.4472 2.3673 12.4999 2.4999 12.4999H13.4999C13.6325 12.4999 13.7597 12.4472 13.8535 12.3535C13.9472 12.2597 13.9999 12.1325 13.9999 11.9999C13.9999 11.8673 13.9472 11.7401 13.8535 11.6464C13.7597 11.5526 13.6325 11.4999 13.4999 11.4999ZM4.49991 8.99991C4.63251 8.99991 4.75969 8.94723 4.85346 8.85346C4.94723 8.75969 4.99991 8.63251 4.99991 8.49991V3.49991C4.99998 3.40096 4.9707 3.30421 4.91577 3.22191C4.86083 3.13962 4.78271 3.07547 4.6913 3.03759C4.59989 2.99972 4.49929 2.98982 4.40225 3.00914C4.30521 3.02847 4.21608 3.07615 4.14615 3.14616L1.64615 5.64616C1.59967 5.69259 1.56279 5.74774 1.53763 5.80844C1.51246 5.86913 1.49951 5.9342 1.49951 5.99991C1.49951 6.06561 1.51246 6.13068 1.53763 6.19138C1.56279 6.25207 1.59967 6.30722 1.64615 6.35366L4.14615 8.85366C4.19262 8.90007 4.24778 8.93688 4.30848 8.96197C4.36918 8.98707 4.43422 8.99996 4.49991 8.99991Z" fill="black"/>
</g>
<defs>
<clipPath id="clip0_5_265">
<rect width="16" height="16" fill="white"/>
</clipPath>
</defs>
</svg>
