<svg width="16" height="16" viewBox="0 0 16 16" fill="none" xmlns="http://www.w3.org/2000/svg">
<g clip-path="url(#clip0_5_890)">
<path d="M15.8537 6.35366L13.6037 8.60366C13.5572 8.65014 13.5021 8.68702 13.4414 8.71219C13.3807 8.73735 13.3156 8.7503 13.2499 8.7503C13.1842 8.7503 13.1191 8.73735 13.0584 8.71219C12.9977 8.68702 12.9426 8.65014 12.8962 8.60366L10.6462 6.35366L10.6249 6.32991L10.6037 6.35366L8.45678 8.49991L10.6037 10.6462C10.6501 10.6926 10.687 10.7477 10.7122 10.8084C10.7373 10.8691 10.7503 10.9342 10.7503 10.9999C10.7503 11.0656 10.7373 11.1307 10.7122 11.1914C10.687 11.2521 10.6501 11.3072 10.6037 11.3537L8.35365 13.6037C8.30722 13.6501 8.25207 13.687 8.19137 13.7122C8.13068 13.7373 8.06561 13.7503 7.9999 13.7503C7.9342 13.7503 7.86913 13.7373 7.80843 13.7122C7.74774 13.687 7.69259 13.6501 7.64615 13.6037L5.39615 11.3537C5.34967 11.3072 5.31279 11.2521 5.28763 11.1914C5.26246 11.1307 5.24951 11.0656 5.24951 10.9999C5.24951 10.9342 5.26246 10.8691 5.28763 10.8084C5.31279 10.7477 5.34967 10.6926 5.39615 10.6462L7.54303 8.49991L5.39615 6.35366L5.37491 6.32991L5.35366 6.35366L3.10366 8.60366C3.05722 8.65014 3.00207 8.68702 2.94138 8.71219C2.88068 8.73735 2.81561 8.7503 2.74991 8.7503C2.6842 8.7503 2.61913 8.73735 2.55843 8.71219C2.49774 8.68702 2.44259 8.65014 2.39616 8.60366L0.146155 6.35366C0.0996668 6.30722 0.0627873 6.25207 0.0376252 6.19138C0.012463 6.13068 -0.000488281 6.06561 -0.000488281 5.99991C-0.000488281 5.9342 0.012463 5.86913 0.0376252 5.80843C0.0627873 5.74774 0.0996668 5.69259 0.146155 5.64615L2.39616 3.39616C2.44259 3.34967 2.49774 3.31279 2.55843 3.28763C2.61913 3.26246 2.6842 3.24951 2.74991 3.24951C2.81561 3.24951 2.88068 3.26246 2.94138 3.28763C3.00207 3.31279 3.05722 3.34967 3.10366 3.39616L5.35366 5.64615L5.37491 5.66991L5.39615 5.64615L7.64615 3.39616C7.69259 3.34967 7.74774 3.31279 7.80843 3.28763C7.86913 3.26246 7.9342 3.24951 7.9999 3.24951C8.06561 3.24951 8.13068 3.26246 8.19137 3.28763C8.25207 3.31279 8.30722 3.34967 8.35365 3.39616L10.6037 5.64615L10.6249 5.66991L10.6462 5.64615L12.8962 3.39616C12.9426 3.34967 12.9977 3.31279 13.0584 3.28763C13.1191 3.26246 13.1842 3.24951 13.2499 3.24951C13.3156 3.24951 13.3807 3.26246 13.4414 3.28763C13.5021 3.31279 13.5572 3.34967 13.6037 3.39616L15.8537 5.64615C15.9001 5.69259 15.937 5.74774 15.9622 5.80843C15.9873 5.86913 16.0003 5.9342 16.0003 5.99991C16.0003 6.06561 15.9873 6.13068 15.9622 6.19138C15.937 6.25207 15.9001 6.30722 15.8537 6.35366Z" fill="black"/>
</g>
<defs>
<clipPath id="clip0_5_890">
<rect width="16" height="16" fill="white"/>
</clipPath>
</defs>
</svg>
