<svg width="16" height="16" viewBox="0 0 16 16" fill="none" xmlns="http://www.w3.org/2000/svg">
<g clip-path="url(#clip0_5_251)">
<path d="M14.9213 13.2306L8.59377 3.34369L9.92127 1.26931C9.95664 1.21399 9.98077 1.15225 9.99229 1.0876C10.0038 1.02296 10.0025 0.956677 9.98836 0.892546C9.97426 0.828416 9.94766 0.767691 9.91009 0.713839C9.87252 0.659987 9.82471 0.614063 9.76939 0.578688C9.71407 0.543313 9.65233 0.519181 9.58768 0.507669C9.52304 0.496156 9.45676 0.49749 9.39262 0.511593C9.32849 0.525695 9.26777 0.552292 9.21392 0.589863C9.16007 0.627434 9.11414 0.675244 9.07877 0.730563L8.00002 2.41619L6.92127 0.728688C6.84982 0.616966 6.73693 0.5382 6.60741 0.509718C6.47789 0.481235 6.34236 0.50537 6.23064 0.576813C6.11892 0.648256 6.04015 0.761154 6.01167 0.890671C5.98319 1.02019 6.00732 1.15572 6.07877 1.26744L7.40627 3.34369L1.07877 13.2306C1.03045 13.3061 1.00334 13.3933 1.00029 13.4829C0.99724 13.5726 1.01836 13.6614 1.06143 13.7401C1.10451 13.8187 1.16795 13.8844 1.24512 13.9301C1.32228 13.9758 1.41032 13.9999 1.50002 13.9999H14.5C14.5897 13.9999 14.6778 13.9758 14.7549 13.9301C14.8321 13.8844 14.8955 13.8187 14.9386 13.7401C14.9817 13.6614 15.0028 13.5726 14.9997 13.4829C14.9967 13.3933 14.9696 13.3061 14.9213 13.2306ZM11.7963 12.9999L8.42127 7.73056C8.37605 7.65985 8.31377 7.60166 8.24015 7.56135C8.16653 7.52104 8.08395 7.49991 8.00002 7.49991C7.91609 7.49991 7.8335 7.52104 7.75989 7.56135C7.68627 7.60166 7.62398 7.65985 7.57877 7.73056L4.20627 12.9999H2.41377L8.00002 4.27119L13.5863 12.9999H11.7963Z" fill="black"/>
</g>
<defs>
<clipPath id="clip0_5_251">
<rect width="16" height="16" fill="white"/>
</clipPath>
</defs>
</svg>
