<svg width="16" height="16" viewBox="0 0 16 16" fill="none" xmlns="http://www.w3.org/2000/svg">
<g clip-path="url(#clip0_5_235)">
<path d="M14.99 3.7707C14.974 3.84957 14.9392 3.92342 14.8887 3.98599C14.8381 4.04855 14.7731 4.09798 14.6993 4.13008L11.1875 5.65945C12.3301 5.96496 13.3048 6.71149 13.8975 7.73508C14.1948 8.24248 14.3878 8.80416 14.465 9.38717C14.5423 9.97017 14.5023 10.5627 14.3475 11.1301C14.326 11.2091 14.2855 11.2817 14.2295 11.3414C14.1735 11.4012 14.1036 11.4462 14.0261 11.4727C13.9486 11.4991 13.8658 11.506 13.7849 11.4929C13.7041 11.4799 13.6277 11.4471 13.5625 11.3976L8.49995 7.54258V14.0001C8.49995 14.1327 8.44727 14.2599 8.3535 14.3536C8.25974 14.4474 8.13256 14.5001 7.99995 14.5001C7.86734 14.5001 7.74017 14.4474 7.6464 14.3536C7.55263 14.2599 7.49995 14.1327 7.49995 14.0001V7.54258L2.43745 11.3976C2.37222 11.4472 2.29577 11.4801 2.21485 11.4933C2.13392 11.5064 2.051 11.4995 1.97339 11.4731C1.89577 11.4467 1.82585 11.4016 1.76977 11.3417C1.7137 11.2819 1.67319 11.2092 1.65183 11.1301C1.49694 10.5627 1.45696 9.97017 1.53423 9.38717C1.61151 8.80416 1.80448 8.24248 2.10183 7.73508C2.69463 6.71135 3.66957 5.96481 4.81245 5.65945L1.30058 4.13008C1.22685 4.09796 1.16196 4.04854 1.1114 3.986C1.06085 3.92346 1.02612 3.84965 1.01018 3.77083C0.994227 3.69201 0.997526 3.61051 1.01979 3.53324C1.04206 3.45596 1.08263 3.3852 1.13808 3.32695C1.52904 2.90822 2.00193 2.57434 2.52737 2.34607C3.0528 2.1178 3.61957 2 4.19245 2C4.76533 2 5.3321 2.1178 5.85753 2.34607C6.38297 2.57434 6.85586 2.90822 7.24683 3.32695C7.54681 3.64305 7.79943 4.00093 7.99683 4.38945C8.19518 4.00074 8.44886 3.64285 8.74995 3.32695C9.14091 2.90822 9.6138 2.57434 10.1392 2.34607C10.6647 2.1178 11.2314 2 11.8043 2C12.3772 2 12.944 2.1178 13.4694 2.34607C13.9948 2.57434 14.4677 2.90822 14.8587 3.32695C14.9147 3.38487 14.9559 3.45547 14.9788 3.53273C15.0016 3.60999 15.0054 3.69164 14.99 3.7707Z" fill="black"/>
</g>
<defs>
<clipPath id="clip0_5_235">
<rect width="16" height="16" fill="white"/>
</clipPath>
</defs>
</svg>
