<svg width="16" height="16" viewBox="0 0 16 16" fill="none" xmlns="http://www.w3.org/2000/svg">
<g clip-path="url(#clip0_5_475)">
<path d="M14.4495 12.2194C14.4084 12.3036 14.3445 12.3745 14.265 12.4242C14.1856 12.4738 14.0938 12.5001 14.0001 12.5001H8.50011V15.0001C8.50011 15.1327 8.44744 15.2598 8.35367 15.3536C8.2599 15.4474 8.13272 15.5001 8.00011 15.5001C7.86751 15.5001 7.74033 15.4474 7.64656 15.3536C7.55279 15.2598 7.50011 15.1327 7.50011 15.0001V12.5001H2.00011C1.90655 12.5 1.81489 12.4737 1.73555 12.4241C1.6562 12.3745 1.59236 12.3037 1.55128 12.2196C1.51019 12.1356 1.49352 12.0417 1.50314 11.9486C1.51277 11.8555 1.54832 11.7671 1.60574 11.6932L4.48074 8.00006H3.00011C2.90672 8.00007 2.81519 7.97392 2.7359 7.92458C2.6566 7.87524 2.59271 7.80467 2.55147 7.72088C2.51022 7.63709 2.49327 7.54342 2.50253 7.45048C2.51179 7.35755 2.54689 7.26907 2.60386 7.19506L7.60386 0.695064C7.65057 0.634378 7.71058 0.585229 7.77928 0.551409C7.84799 0.517588 7.92354 0.5 8.00011 0.5C8.07669 0.5 8.15224 0.517588 8.22094 0.551409C8.28965 0.585229 8.34966 0.634378 8.39636 0.695064L13.3964 7.19506C13.4533 7.26907 13.4884 7.35755 13.4977 7.45048C13.507 7.54342 13.49 7.63709 13.4488 7.72088C13.4075 7.80467 13.3436 7.87524 13.2643 7.92458C13.185 7.97392 13.0935 8.00007 13.0001 8.00006H11.5226L14.3945 11.6932C14.452 11.767 14.4876 11.8554 14.4973 11.9484C14.507 12.0415 14.4905 12.1354 14.4495 12.2194Z" fill="black"/>
</g>
<defs>
<clipPath id="clip0_5_475">
<rect width="16" height="16" fill="white"/>
</clipPath>
</defs>
</svg>
