<svg width="16" height="16" viewBox="0 0 16 16" fill="none" xmlns="http://www.w3.org/2000/svg">
<g clip-path="url(#clip0_5_225)">
<path d="M14.735 8.67674C14.6415 8.77846 14.5279 8.85969 14.4014 8.91531C14.2749 8.97092 14.1382 8.99971 14 8.99987H8.50001V12.4999C8.50001 12.7651 8.60537 13.0194 8.7929 13.207C8.98044 13.3945 9.23479 13.4999 9.50001 13.4999C9.76523 13.4999 10.0196 13.3945 10.2071 13.207C10.3947 13.0194 10.5 12.7651 10.5 12.4999C10.5 12.3673 10.5527 12.2401 10.6465 12.1463C10.7402 12.0525 10.8674 11.9999 11 11.9999C11.1326 11.9999 11.2598 12.0525 11.3536 12.1463C11.4473 12.2401 11.5 12.3673 11.5 12.4999C11.5 13.0303 11.2893 13.539 10.9142 13.9141C10.5392 14.2892 10.0304 14.4999 9.50001 14.4999C8.96958 14.4999 8.46087 14.2892 8.0858 13.9141C7.71072 13.539 7.50001 13.0303 7.50001 12.4999V8.99987H2.00001C1.86116 9.00038 1.72373 8.97197 1.59646 8.91644C1.4692 8.86092 1.35489 8.7795 1.26082 8.67738C1.16675 8.57525 1.09498 8.45466 1.05007 8.32327C1.00517 8.19188 0.988121 8.05258 1.00001 7.91424C1.11461 6.60603 1.59347 5.35611 2.3823 4.30621C3.17113 3.25631 4.23835 2.44844 5.46296 1.97421C6.68756 1.49999 8.02054 1.37838 9.31074 1.62319C10.6009 1.86799 11.7967 2.46941 12.7625 3.35924C14.054 4.54261 14.8528 6.16875 15 7.91424C15.0109 8.05275 14.9929 8.192 14.9473 8.32323C14.9017 8.45446 14.8294 8.57482 14.735 8.67674Z" fill="black"/>
</g>
<defs>
<clipPath id="clip0_5_225">
<rect width="16" height="16" fill="white"/>
</clipPath>
</defs>
</svg>
