<svg width="16" height="16" viewBox="0 0 16 16" fill="none" xmlns="http://www.w3.org/2000/svg">
<g clip-path="url(#clip0_5_221)">
<path d="M4.64625 4.85366C4.59976 4.80722 4.56288 4.75207 4.53772 4.69138C4.51256 4.63068 4.49961 4.56561 4.49961 4.49991C4.49961 4.4342 4.51256 4.36913 4.53772 4.30843C4.56288 4.24774 4.59976 4.19259 4.64625 4.14615L7.64625 1.14616C7.69269 1.09967 7.74783 1.06279 7.80853 1.03763C7.86923 1.01246 7.93429 0.999512 8 0.999512C8.06571 0.999512 8.13077 1.01246 8.19147 1.03763C8.25217 1.06279 8.30731 1.09967 8.35375 1.14616L11.3538 4.14615C11.4476 4.23998 11.5003 4.36722 11.5003 4.49991C11.5003 4.63259 11.4476 4.75984 11.3538 4.85366C11.2599 4.94748 11.1327 5.00018 11 5.00018C10.8673 5.00018 10.7401 4.94748 10.6462 4.85366L8.5 2.70678V7.99991C8.5 8.13251 8.44732 8.25969 8.35355 8.35346C8.25979 8.44723 8.13261 8.49991 8 8.49991C7.86739 8.49991 7.74021 8.44723 7.64645 8.35346C7.55268 8.25969 7.5 8.13251 7.5 7.99991V2.70678L5.35375 4.85366C5.30731 4.90014 5.25217 4.93702 5.19147 4.96218C5.13077 4.98735 5.06571 5.0003 5 5.0003C4.93429 5.0003 4.86923 4.98735 4.80853 4.96218C4.74783 4.93702 4.69269 4.90014 4.64625 4.85366ZM15 8.49991V12.4999C15 12.7651 14.8946 13.0195 14.7071 13.207C14.5196 13.3945 14.2652 13.4999 14 13.4999H2C1.73478 13.4999 1.48043 13.3945 1.29289 13.207C1.10536 13.0195 1 12.7651 1 12.4999V8.49991C1 8.23469 1.10536 7.98033 1.29289 7.7928C1.48043 7.60526 1.73478 7.49991 2 7.49991H6.25C6.3163 7.49991 6.37989 7.52624 6.42678 7.57313C6.47366 7.62001 6.5 7.6836 6.5 7.74991V7.96616C6.5 8.80678 7.1875 9.51553 8.02875 9.4999C8.42157 9.49237 8.79576 9.33102 9.07087 9.05053C9.34599 8.77004 9.50007 8.3928 9.5 7.99991V7.74991C9.5 7.6836 9.52634 7.62001 9.57322 7.57313C9.62011 7.52624 9.6837 7.49991 9.75 7.49991H14C14.2652 7.49991 14.5196 7.60526 14.7071 7.7928C14.8946 7.98033 15 8.23469 15 8.49991ZM12.5 10.4999C12.5 10.3516 12.456 10.2066 12.3736 10.0832C12.2912 9.95989 12.1741 9.86376 12.037 9.807C11.9 9.75023 11.7492 9.73538 11.6037 9.76432C11.4582 9.79325 11.3246 9.86469 11.2197 9.96957C11.1148 10.0745 11.0434 10.2081 11.0144 10.3536C10.9855 10.4991 11.0003 10.6499 11.0571 10.7869C11.1139 10.924 11.21 11.0411 11.3333 11.1235C11.4567 11.2059 11.6017 11.2499 11.75 11.2499C11.9489 11.2499 12.1397 11.1709 12.2803 11.0302C12.421 10.8896 12.5 10.6988 12.5 10.4999Z" fill="black"/>
</g>
<defs>
<clipPath id="clip0_5_221">
<rect width="16" height="16" fill="white"/>
</clipPath>
</defs>
</svg>
