<svg width="16" height="16" viewBox="0 0 16 16" fill="none" xmlns="http://www.w3.org/2000/svg">
<g clip-path="url(#clip0_5_216)">
<path d="M6.01633 2.31256C5.98384 2.18453 6.00333 2.04885 6.07055 1.93514C6.13776 1.82143 6.24724 1.73895 6.37508 1.70569C7.44097 1.43079 8.55918 1.43079 9.62508 1.70569C9.74314 1.73592 9.84609 1.80822 9.9146 1.90902C9.9831 2.00981 10.0124 2.13215 9.99708 2.25305C9.98172 2.37395 9.92275 2.48508 9.83123 2.56555C9.73971 2.64603 9.62194 2.6903 9.50008 2.69006C9.4579 2.68984 9.41591 2.68438 9.37508 2.67381C8.4732 2.44095 7.52695 2.44095 6.62508 2.67381C6.56138 2.69014 6.4951 2.69374 6.43001 2.68441C6.36492 2.67509 6.30231 2.65301 6.24577 2.61946C6.18923 2.5859 6.13985 2.54152 6.10048 2.48886C6.06111 2.4362 6.03251 2.37629 6.01633 2.31256ZM2.08445 6.87506C2.14773 6.89264 2.21386 6.89758 2.27905 6.88959C2.34423 6.88161 2.40721 6.86086 2.46438 6.82853C2.52155 6.79621 2.57179 6.75293 2.61223 6.70118C2.65267 6.64943 2.68252 6.59023 2.70008 6.52694C2.9495 5.6298 3.42261 4.81066 4.07508 4.14631C4.16207 4.05065 4.20863 3.925 4.20496 3.79574C4.2013 3.66648 4.1477 3.54367 4.05542 3.45309C3.96314 3.36251 3.83935 3.3112 3.71005 3.30994C3.58075 3.30867 3.45598 3.35755 3.36195 3.44631C2.5911 4.23127 2.032 5.19895 1.73695 6.25881C1.71927 6.32209 1.71423 6.38824 1.72213 6.45347C1.73003 6.5187 1.7507 6.58173 1.78298 6.63896C1.81525 6.69619 1.85849 6.7465 1.91022 6.78702C1.96195 6.82753 2.02115 6.85745 2.08445 6.87506ZM13.2995 6.52756C13.3349 6.65536 13.4197 6.76384 13.5352 6.82913C13.6506 6.89441 13.7873 6.91116 13.9151 6.87569C14.0429 6.84022 14.1514 6.75543 14.2166 6.63998C14.2819 6.52452 14.2987 6.38787 14.2632 6.26006C13.9683 5.20015 13.4092 4.23243 12.6382 3.44756C12.5922 3.40074 12.5373 3.36344 12.4769 3.3378C12.4164 3.31216 12.3515 3.29868 12.2858 3.29813C12.2202 3.29758 12.155 3.30997 12.0942 3.33459C12.0333 3.35921 11.9778 3.39558 11.931 3.44163C11.8842 3.48767 11.8469 3.54249 11.8213 3.60295C11.7956 3.6634 11.7821 3.72832 11.7816 3.79399C11.781 3.85966 11.7934 3.92479 11.818 3.98567C11.8427 4.04655 11.879 4.10199 11.9251 4.14881C12.5771 4.81288 13.05 5.63156 13.2995 6.52819V6.52756ZM13.9163 9.12506C13.853 9.1075 13.7868 9.10259 13.7216 9.11061C13.6564 9.11863 13.5934 9.13944 13.5362 9.17183C13.479 9.20422 13.4288 9.24756 13.3884 9.29938C13.348 9.35119 13.3182 9.41047 13.3007 9.47381C13.0765 10.2807 12.6703 11.0254 12.1132 11.6507C11.7487 11.1234 11.2858 10.6714 10.7501 10.3194C10.7046 10.2892 10.6504 10.2748 10.5959 10.2783C10.5414 10.2818 10.4895 10.303 10.4482 10.3388C9.76887 10.9266 8.90059 11.2501 8.00226 11.2501C7.10394 11.2501 6.23565 10.9266 5.55633 10.3388C5.51499 10.3029 5.463 10.2816 5.40835 10.2781C5.3537 10.2746 5.29941 10.2891 5.25383 10.3194C4.71462 10.6666 4.2477 11.1148 3.87883 11.6394C3.32705 11.0159 2.92457 10.2749 2.70195 9.47256C2.66648 9.34476 2.58169 9.23629 2.46624 9.171C2.35079 9.10571 2.21413 9.08897 2.08633 9.12444C1.95853 9.15991 1.85005 9.2447 1.78476 9.36015C1.71948 9.4756 1.70273 9.61226 1.7382 9.74006C2.12036 11.1076 2.93951 12.3125 4.07062 13.1709C5.20173 14.0292 6.58265 14.4939 8.00258 14.4939C9.4225 14.4939 10.8034 14.0292 11.9345 13.1709C13.0656 12.3125 13.8848 11.1076 14.267 9.74006C14.2844 9.67666 14.2892 9.61044 14.281 9.54519C14.2728 9.47994 14.2518 9.41695 14.2192 9.35983C14.1867 9.3027 14.1431 9.25256 14.0912 9.21228C14.0392 9.17199 13.9798 9.14235 13.9163 9.12506ZM8.00008 10.2501C8.54397 10.2501 9.07566 10.0888 9.52789 9.7866C9.98013 9.48443 10.3326 9.05494 10.5407 8.55244C10.7489 8.04995 10.8033 7.49701 10.6972 6.96356C10.5911 6.43012 10.3292 5.94011 9.94462 5.55552C9.56003 5.17093 9.07002 4.90901 8.53657 4.8029C8.00313 4.69679 7.45019 4.75125 6.9477 4.95939C6.4452 5.16754 6.01571 5.52001 5.71353 5.97225C5.41136 6.42448 5.25008 6.95616 5.25008 7.50006C5.2509 8.22916 5.5409 8.92815 6.05645 9.44369C6.57199 9.95924 7.27098 10.2492 8.00008 10.2501Z" fill="black"/>
</g>
<defs>
<clipPath id="clip0_5_216">
<rect width="16" height="16" fill="white"/>
</clipPath>
</defs>
</svg>
