<svg width="16" height="16" viewBox="0 0 16 16" fill="none" xmlns="http://www.w3.org/2000/svg">
<g clip-path="url(#clip0_5_425)">
<path d="M14.3537 12.3537L12.3537 14.3537C12.2837 14.4237 12.1946 14.4713 12.0976 14.4907C12.0005 14.51 11.8999 14.5001 11.8085 14.4622C11.7171 14.4243 11.639 14.3602 11.584 14.2779C11.5291 14.1956 11.4998 14.0989 11.4999 13.9999V12.4999H4.99991C4.8673 12.4999 4.74012 12.4472 4.64635 12.3535C4.55258 12.2597 4.49991 12.1325 4.49991 11.9999V4.99991H2.99991C2.90096 4.99998 2.80421 4.9707 2.72191 4.91577C2.63962 4.86083 2.57547 4.78271 2.53759 4.6913C2.49972 4.59989 2.48982 4.49929 2.50914 4.40225C2.52847 4.30521 2.57615 4.21608 2.64616 4.14615L4.64616 2.14615C4.69259 2.09967 4.74774 2.06279 4.80844 2.03763C4.86913 2.01246 4.9342 1.99951 4.99991 1.99951C5.06561 1.99951 5.13068 2.01246 5.19138 2.03763C5.25207 2.06279 5.30722 2.09967 5.35366 2.14615L7.35366 4.14615C7.42366 4.21608 7.47134 4.30521 7.49067 4.40225C7.51 4.49929 7.50009 4.59989 7.46222 4.6913C7.42434 4.78271 7.36019 4.86083 7.2779 4.91577C7.1956 4.9707 7.09885 4.99998 6.99991 4.99991H5.49991V11.4999H11.4999V9.9999C11.4998 9.90096 11.5291 9.80421 11.584 9.72191C11.639 9.63962 11.7171 9.57547 11.8085 9.53759C11.8999 9.49972 12.0005 9.48982 12.0976 9.50914C12.1946 9.52847 12.2837 9.57615 12.3537 9.64615L14.3537 11.6462C14.4001 11.6926 14.437 11.7477 14.4622 11.8084C14.4873 11.8691 14.5003 11.9342 14.5003 11.9999C14.5003 12.0656 14.4873 12.1307 14.4622 12.1914C14.437 12.2521 14.4001 12.3072 14.3537 12.3537Z" fill="black"/>
</g>
<defs>
<clipPath id="clip0_5_425">
<rect width="16" height="16" fill="white"/>
</clipPath>
</defs>
</svg>
