<svg width="16" height="16" viewBox="0 0 16 16" fill="none" xmlns="http://www.w3.org/2000/svg">
<g clip-path="url(#clip0_5_427)">
<path d="M14.8538 8.85366L12.8538 10.8537C12.7838 10.9237 12.6947 10.9713 12.5977 10.9907C12.5006 11.01 12.4 11.0001 12.3086 10.9622C12.2172 10.9243 12.1391 10.8602 12.0841 10.7779C12.0292 10.6956 11.9999 10.5989 12 10.4999V8.9999H7.70687L5.20688 11.4999L6.35375 12.6462C6.42376 12.7161 6.47144 12.8052 6.49076 12.9023C6.51009 12.9993 6.50019 13.0999 6.46231 13.1913C6.42444 13.2827 6.36029 13.3608 6.27799 13.4158C6.19569 13.4707 6.09895 13.5 6 13.4999H3C2.86739 13.4999 2.74022 13.4472 2.64645 13.3535C2.55268 13.2597 2.5 13.1325 2.5 12.9999V9.9999C2.49992 9.90096 2.5292 9.80421 2.58414 9.72191C2.63908 9.63962 2.71719 9.57547 2.80861 9.53759C2.90002 9.49972 3.00061 9.48981 3.09765 9.50914C3.1947 9.52847 3.28382 9.57615 3.35375 9.64615L4.5 10.793L7 8.29303V3.99991H5.5C5.40105 3.99998 5.30431 3.9707 5.22201 3.91577C5.13971 3.86083 5.07557 3.78271 5.03769 3.6913C4.99981 3.59989 4.98991 3.49929 5.00924 3.40225C5.02856 3.30521 5.07624 3.21608 5.14625 3.14616L7.14625 1.14616C7.19269 1.09967 7.24783 1.06279 7.30853 1.03763C7.36923 1.01246 7.43429 0.999512 7.5 0.999512C7.56571 0.999512 7.63077 1.01246 7.69147 1.03763C7.75217 1.06279 7.80731 1.09967 7.85375 1.14616L9.85375 3.14616C9.92376 3.21608 9.97144 3.30521 9.99076 3.40225C10.0101 3.49929 10.0002 3.59989 9.96231 3.6913C9.92443 3.78271 9.86029 3.86083 9.77799 3.91577C9.69569 3.9707 9.59895 3.99998 9.5 3.99991H8V7.99991H12V6.49991C11.9999 6.40096 12.0292 6.30421 12.0841 6.22191C12.1391 6.13962 12.2172 6.07547 12.3086 6.03759C12.4 5.99972 12.5006 5.98982 12.5977 6.00914C12.6947 6.02847 12.7838 6.07615 12.8538 6.14615L14.8538 8.14615C14.9002 8.19259 14.9371 8.24774 14.9623 8.30843C14.9874 8.36913 15.0004 8.4342 15.0004 8.49991C15.0004 8.56561 14.9874 8.63068 14.9623 8.69138C14.9371 8.75207 14.9002 8.80722 14.8538 8.85366Z" fill="black"/>
</g>
<defs>
<clipPath id="clip0_5_427">
<rect width="16" height="16" fill="white"/>
</clipPath>
</defs>
</svg>
