<svg width="16" height="16" viewBox="0 0 16 16" fill="none" xmlns="http://www.w3.org/2000/svg">
<g clip-path="url(#clip0_5_1235)">
<path d="M10 6.49994C10 6.8955 9.8827 7.28218 9.66294 7.61108C9.44318 7.93998 9.13082 8.19632 8.76537 8.3477C8.39991 8.49907 7.99778 8.53868 7.60982 8.46151C7.22186 8.38434 6.86549 8.19386 6.58579 7.91415C6.30608 7.63445 6.1156 7.27808 6.03843 6.89012C5.96126 6.50216 6.00087 6.10002 6.15224 5.73457C6.30362 5.36912 6.55996 5.05676 6.88886 4.837C7.21776 4.61724 7.60444 4.49994 8 4.49994C8.53043 4.49994 9.03914 4.71065 9.41421 5.08572C9.78929 5.4608 10 5.9695 10 6.49994ZM14.5 12.9999C14.5 13.1325 14.4473 13.2597 14.3536 13.3535C14.2598 13.4473 14.1326 13.4999 14 13.4999H2C1.86739 13.4999 1.74021 13.4473 1.64645 13.3535C1.55268 13.2597 1.5 13.1325 1.5 12.9999C1.5 12.8673 1.55268 12.7402 1.64645 12.6464C1.74021 12.5526 1.86739 12.4999 2 12.4999H7.5V11.4749C6.22368 11.3467 5.04548 10.7328 4.20908 9.7602C3.37268 8.78764 2.94205 7.53083 3.00627 6.24969C3.07049 4.96855 3.62463 3.76109 4.5541 2.87705C5.48357 1.993 6.71725 1.5 8 1.5C9.28275 1.5 10.5164 1.993 11.4459 2.87705C12.3754 3.76109 12.9295 4.96855 12.9937 6.24969C13.0579 7.53083 12.6273 8.78764 11.7909 9.7602C10.9545 10.7328 9.77632 11.3467 8.5 11.4749V12.4999H14C14.1326 12.4999 14.2598 12.5526 14.3536 12.6464C14.4473 12.7402 14.5 12.8673 14.5 12.9999ZM8 9.49994C8.59334 9.49994 9.17336 9.32399 9.66671 8.99435C10.1601 8.6647 10.5446 8.19617 10.7716 7.64799C10.9987 7.09981 11.0581 6.49661 10.9424 5.91467C10.8266 5.33272 10.5409 4.79817 10.1213 4.37862C9.70176 3.95906 9.16721 3.67334 8.58527 3.55758C8.00333 3.44183 7.40013 3.50124 6.85195 3.7283C6.30377 3.95536 5.83524 4.33988 5.50559 4.83323C5.17595 5.32657 5 5.90659 5 6.49994C5.00083 7.29533 5.31716 8.05791 5.87959 8.62034C6.44202 9.18277 7.2046 9.49911 8 9.49994Z" fill="black"/>
</g>
<defs>
<clipPath id="clip0_5_1235">
<rect width="16" height="16" fill="white"/>
</clipPath>
</defs>
</svg>
