<svg width="16" height="16" viewBox="0 0 16 16" fill="none" xmlns="http://www.w3.org/2000/svg">
<g clip-path="url(#clip0_5_1225)">
<path d="M5.20887 2.6992C5.18499 2.67243 5.16715 2.64083 5.15657 2.60656C5.14598 2.57228 5.1429 2.53613 5.14752 2.50056C5.15215 2.46498 5.16437 2.43082 5.18337 2.40039C5.20237 2.36996 5.22769 2.34398 5.25762 2.3242C6.25241 1.67718 7.4449 1.40507 8.62189 1.55652C9.79888 1.70798 10.8836 2.27311 11.6822 3.1509C12.4808 4.02869 12.9411 5.16189 12.981 6.34792C13.0208 7.53395 12.6374 8.69547 11.8995 9.62482C11.877 9.65346 11.8486 9.67685 11.8162 9.69336C11.7838 9.70987 11.7481 9.7191 11.7118 9.72041C11.6754 9.72172 11.6392 9.71507 11.6056 9.70094C11.5721 9.68681 11.5421 9.66552 11.5176 9.63857L10.4907 8.50857C10.4525 8.4664 10.4298 8.41245 10.4264 8.35562C10.423 8.2988 10.4391 8.24252 10.472 8.19607C10.8533 7.63876 11.0354 6.96911 10.9888 6.29546C10.9423 5.62181 10.6698 4.98357 10.2156 4.48396C9.76129 3.98436 9.15175 3.65263 8.48555 3.54243C7.81935 3.43223 7.13546 3.55 6.5445 3.8767C6.49515 3.90487 6.43769 3.91539 6.38156 3.90653C6.32544 3.89767 6.27401 3.86995 6.23575 3.82795L5.20887 2.6992ZM7.93325 4.49983C7.75443 4.50556 7.5772 4.53541 7.40637 4.58857C7.36554 4.60088 7.32853 4.62344 7.29887 4.65409C7.26921 4.68474 7.24789 4.72246 7.23693 4.76368C7.22597 4.8049 7.22573 4.84823 7.23625 4.88957C7.24676 4.9309 7.26767 4.96886 7.297 4.99983L9.4295 7.34545C9.4579 7.37679 9.49379 7.40042 9.5338 7.41412C9.57382 7.42782 9.61666 7.43114 9.65831 7.42377C9.69996 7.4164 9.73906 7.39858 9.77195 7.37199C9.80484 7.34539 9.83045 7.31089 9.84637 7.2717C9.9485 7.02721 10.0008 6.76479 10.0001 6.49983C9.99721 6.23235 9.94127 5.96811 9.83554 5.7224C9.72981 5.47669 9.57639 5.2544 9.38416 5.06839C9.19193 4.88238 8.96471 4.73635 8.71566 4.63876C8.46661 4.54116 8.20067 4.49394 7.93325 4.49983ZM13.3364 13.8686C13.2382 13.9577 13.1087 14.0043 12.9763 13.998C12.8438 13.9916 12.7193 13.9329 12.6301 13.8348L12.3245 13.4998H2.00012C1.93158 13.5 1.86374 13.486 1.80081 13.4589C1.73788 13.4317 1.68121 13.3919 1.63432 13.3419C1.58743 13.2919 1.55132 13.2328 1.52824 13.1682C1.50515 13.1037 1.49558 13.0351 1.50012 12.9667C1.51118 12.8379 1.57068 12.7181 1.6666 12.6315C1.76253 12.5448 1.88775 12.4978 2.017 12.4998H7.50012V11.4748C6.66781 11.3918 5.86965 11.1012 5.17887 10.6295C4.48809 10.1579 3.92679 9.52031 3.54647 8.77533C3.16614 8.03036 2.97896 7.20181 3.00209 6.36569C3.02523 5.52956 3.25794 4.71263 3.67887 3.98983L2.63012 2.83607C2.58504 2.78765 2.55002 2.73075 2.52708 2.66869C2.50415 2.60662 2.49376 2.54062 2.49653 2.47452C2.49929 2.40841 2.51514 2.34351 2.54317 2.28357C2.5712 2.22364 2.61085 2.16986 2.65982 2.12536C2.70878 2.08086 2.76609 2.04652 2.82843 2.02434C2.89076 2.00215 2.95688 1.99256 3.02295 1.99611C3.08902 1.99966 3.15373 2.0163 3.21332 2.04504C3.27292 2.07379 3.32621 2.11408 3.37012 2.16357L13.3701 13.1636C13.4593 13.2617 13.5058 13.3912 13.4995 13.5237C13.4932 13.6561 13.4345 13.7806 13.3364 13.8698V13.8686ZM8.00012 9.49983C8.2102 9.49961 8.41967 9.4774 8.62512 9.43358L7.76325 8.48545C7.28483 8.42851 6.84304 8.20078 6.51912 7.84412C6.19519 7.48747 6.0109 7.02588 6.00012 6.5442L5.1395 5.5967C4.99762 6.04613 4.96362 6.52266 5.04026 6.98768C5.1169 7.4527 5.30202 7.89312 5.58062 8.27324C5.85922 8.65337 6.22346 8.96252 6.64382 9.17562C7.06418 9.38872 7.52883 9.49979 8.00012 9.49983ZM11.4151 12.4998L10.0889 11.0411C9.58721 11.2733 9.0502 11.4199 8.50012 11.4748V12.4998H11.4151Z" fill="black"/>
</g>
<defs>
<clipPath id="clip0_5_1225">
<rect width="16" height="16" fill="white"/>
</clipPath>
</defs>
</svg>
