<svg width="16" height="16" viewBox="0 0 16 16" fill="none" xmlns="http://www.w3.org/2000/svg">
<g clip-path="url(#clip0_5_1222)">
<path d="M3.1345 9.99994L5.567 5.78556L5.427 5.54307C5.21772 5.19196 5.08241 4.8018 5.02935 4.39652C4.97629 3.99124 5.0066 3.57939 5.11844 3.18625C5.23028 2.79311 5.42127 2.42696 5.6797 2.11029C5.93813 1.79362 6.25854 1.5331 6.62128 1.34471C6.98402 1.15633 7.38143 1.04405 7.78912 1.01478C8.19681 0.985512 8.60618 1.03986 8.99211 1.17449C9.37804 1.30912 9.73239 1.5212 10.0334 1.7977C10.3344 2.07421 10.5758 2.40931 10.7426 2.78244C10.795 2.89636 10.8036 3.02557 10.7668 3.14545C10.7301 3.26532 10.6505 3.36747 10.5432 3.43244C10.4823 3.46784 10.4145 3.48995 10.3444 3.49731C10.2743 3.50468 10.2034 3.49713 10.1364 3.47518C10.0695 3.45322 10.0079 3.41735 9.95573 3.36992C9.90358 3.32248 9.86205 3.26456 9.83387 3.19994C9.72352 2.95054 9.56333 2.72633 9.36314 2.54112C9.16295 2.35591 8.92699 2.21359 8.66978 2.12293C8.41256 2.03226 8.13952 1.99516 7.86744 2.01391C7.59536 2.03265 7.32998 2.10685 7.08763 2.23193C6.84528 2.35701 6.63107 2.53034 6.45817 2.74126C6.28527 2.95217 6.15734 3.19622 6.08223 3.45841C6.00713 3.72059 5.98644 3.99536 6.02144 4.26583C6.05643 4.5363 6.14638 4.79676 6.28575 5.03119C6.28777 5.03366 6.28945 5.03639 6.29075 5.03931L7.15512 6.53556C7.19901 6.61157 7.22211 6.6978 7.22211 6.78556C7.22211 6.87333 7.19901 6.95956 7.15512 7.03556L4.86637 10.9999C4.73202 11.2261 4.51395 11.3903 4.25941 11.4568C4.00488 11.5233 3.73439 11.4868 3.50656 11.3553C3.27874 11.2237 3.11193 11.0077 3.04228 10.754C2.97264 10.5003 3.00577 10.2294 3.1345 9.99994ZM11.947 7.49994H11.1757L8.86637 3.49994C8.73202 3.27375 8.51395 3.10962 8.25942 3.04311C8.00488 2.9766 7.73439 3.01307 7.50657 3.14462C7.27874 3.27617 7.11193 3.4922 7.04228 3.74589C6.97264 3.99959 7.00577 4.27051 7.1345 4.49994L9.29949 8.24994C9.34334 8.32587 9.40637 8.38894 9.48229 8.43282C9.5582 8.4767 9.64431 8.49985 9.732 8.49994H11.9589C13.077 8.49994 14.0182 9.41494 14.0001 10.5331C13.9915 11.0544 13.7796 11.5518 13.4097 11.9192C13.0397 12.2866 12.5409 12.495 12.0195 12.4999C11.8917 12.4984 11.768 12.5445 11.6723 12.6291C11.5767 12.7138 11.516 12.8311 11.502 12.9581C11.4962 13.0272 11.5048 13.0967 11.5273 13.1623C11.5498 13.2279 11.5858 13.2881 11.6328 13.339C11.6798 13.39 11.7369 13.4306 11.8005 13.4583C11.864 13.486 11.9327 13.5002 12.002 13.4999C12.4008 13.4996 12.7955 13.4198 13.1631 13.2653C13.5307 13.1108 13.8639 12.8846 14.1432 12.5999C14.4224 12.3152 14.6422 11.9778 14.7897 11.6072C14.9371 11.2367 15.0093 10.8405 15.002 10.4418C14.9682 8.79932 13.5926 7.49994 11.9495 7.49994H11.947ZM13.0001 10.4518C12.9751 9.91369 12.5114 9.49994 11.9732 9.49994H7.17575C7.08796 9.49992 7.00171 9.52301 6.92568 9.5669C6.84965 9.61078 6.78651 9.67391 6.74262 9.74994L5.73262 11.4999C5.5963 11.735 5.4135 11.9398 5.19538 12.1019C4.97726 12.264 4.7284 12.3799 4.46399 12.4426C4.19958 12.5053 3.92516 12.5135 3.65749 12.4666C3.38982 12.4198 3.13451 12.3188 2.90715 12.17C2.67978 12.0212 2.48513 11.8276 2.33507 11.601C2.18501 11.3745 2.0827 11.1197 2.03438 10.8523C1.98605 10.5849 1.99273 10.3104 2.054 10.0457C2.11527 9.78092 2.22985 9.53143 2.39075 9.31244C2.46846 9.21125 2.50563 9.08471 2.495 8.95757C2.48436 8.83042 2.42669 8.71182 2.33325 8.62494C2.28159 8.57891 2.22093 8.5441 2.15513 8.52272C2.08932 8.50133 2.01979 8.49384 1.95094 8.50072C1.88209 8.50759 1.81542 8.52868 1.75514 8.56265C1.69486 8.59662 1.64229 8.64273 1.60075 8.69806C1.21506 9.20914 1.00444 9.83094 1.00012 10.4712C0.994184 11.1337 1.20772 11.7795 1.6074 12.3079C2.00708 12.8363 2.57042 13.2175 3.20953 13.3921C3.84863 13.5666 4.52755 13.5247 5.14034 13.2729C5.75313 13.0211 6.26532 12.5735 6.597 11.9999L6.88575 11.4999H12.0001C12.1356 11.5001 12.2697 11.4727 12.3943 11.4195C12.5188 11.3663 12.6313 11.2883 12.7248 11.1902C12.8183 11.0922 12.8909 10.9762 12.9383 10.8493C12.9856 10.7224 13.0066 10.5871 13.0001 10.4518Z" fill="black"/>
</g>
<defs>
<clipPath id="clip0_5_1222">
<rect width="16" height="16" fill="white"/>
</clipPath>
</defs>
</svg>
