<svg width="16" height="16" viewBox="0 0 16 16" fill="none" xmlns="http://www.w3.org/2000/svg">
<g clip-path="url(#clip0_5_1565)">
<path d="M8.99986 3C8.99986 2.60444 9.11716 2.21776 9.33693 1.88886C9.55669 1.55996 9.86905 1.30362 10.2345 1.15224C10.5999 1.00087 11.0021 0.96126 11.39 1.03843C11.778 1.1156 12.1344 1.30608 12.4141 1.58579C12.6938 1.86549 12.8843 2.22186 12.9614 2.60982C13.0386 2.99778 12.999 3.39992 12.8476 3.76537C12.6962 4.13082 12.4399 4.44318 12.111 4.66294C11.7821 4.8827 11.3954 5 10.9999 5C10.4694 5 9.96072 4.78929 9.58565 4.41421C9.21058 4.03914 8.99986 3.53043 8.99986 3ZM9.99986 10C9.86726 10 9.74008 10.0527 9.64631 10.1464C9.55254 10.2402 9.49986 10.3674 9.49986 10.5C9.49986 11.0933 9.32392 11.6734 8.99427 12.1667C8.66463 12.6601 8.19609 13.0446 7.64791 13.2716C7.09974 13.4987 6.49654 13.5581 5.91459 13.4424C5.33265 13.3266 4.7981 13.0409 4.37854 12.6213C3.95899 12.2018 3.67326 11.6672 3.55751 11.0853C3.44175 10.5033 3.50116 9.90013 3.72823 9.35195C3.95529 8.80377 4.33981 8.33524 4.83315 8.00559C5.3265 7.67595 5.90652 7.5 6.49986 7.5C6.63247 7.5 6.75965 7.44732 6.85342 7.35355C6.94719 7.25979 6.99986 7.13261 6.99986 7C6.99986 6.86739 6.94719 6.74022 6.85342 6.64645C6.75965 6.55268 6.63247 6.5 6.49986 6.5C5.70874 6.5 4.93538 6.7346 4.27758 7.17412C3.61979 7.61365 3.1071 8.23836 2.80435 8.96927C2.5016 9.70017 2.42238 10.5044 2.57672 11.2804C2.73106 12.0563 3.11203 12.769 3.67144 13.3284C4.23085 13.8878 4.94358 14.2688 5.7195 14.4231C6.49543 14.5775 7.29969 14.4983 8.0306 14.1955C8.7615 13.8928 9.38622 13.3801 9.82574 12.7223C10.2653 12.0645 10.4999 11.2911 10.4999 10.5C10.4999 10.3674 10.4472 10.2402 10.3534 10.1464C10.2597 10.0527 10.1325 10 9.99986 10ZM12.4999 8H8.86362L9.93361 6.13875C9.99729 6.02795 10.0161 5.89698 9.98626 5.77272C9.95639 5.64847 9.88007 5.54037 9.77299 5.47063C8.70191 4.77432 7.43655 4.43805 6.1611 4.51078C4.88565 4.58351 3.66672 5.06144 2.68174 5.875C2.6284 5.91587 2.58385 5.96706 2.55075 6.02553C2.51764 6.084 2.49666 6.14855 2.48905 6.21531C2.48145 6.28207 2.48738 6.34967 2.50649 6.41409C2.5256 6.47851 2.55749 6.53841 2.60027 6.59023C2.64305 6.64204 2.69584 6.6847 2.75547 6.71566C2.81511 6.74662 2.88037 6.76524 2.94736 6.77041C3.01435 6.77558 3.0817 6.7672 3.14538 6.74576C3.20906 6.72432 3.26777 6.69026 3.31799 6.64563C4.07708 6.02038 5.00352 5.63258 5.98167 5.53065C6.95981 5.42873 7.9463 5.61719 8.81799 6.0725L7.56611 8.25C7.5222 8.32606 7.49909 8.41235 7.49913 8.50019C7.49916 8.58802 7.52233 8.67429 7.5663 8.75032C7.61027 8.82635 7.67349 8.88946 7.74961 8.93329C7.82572 8.97712 7.91203 9.00013 7.99986 9H11.8899L11.0099 13.4019C10.9839 13.5318 11.0106 13.6668 11.0841 13.777C11.1576 13.8873 11.2718 13.9639 11.4017 13.99C11.434 13.9967 11.4669 14 11.4999 14C11.6153 13.9998 11.7271 13.9597 11.8163 13.8864C11.9055 13.8132 11.9666 13.7113 11.9892 13.5981L12.9892 8.59813C13.0037 8.52566 13.002 8.45087 12.9841 8.37916C12.9663 8.30745 12.9327 8.24058 12.8859 8.18338C12.8391 8.12618 12.7802 8.08007 12.7135 8.04836C12.6467 8.01665 12.5738 8.00013 12.4999 8Z" fill="black"/>
</g>
<defs>
<clipPath id="clip0_5_1565">
<rect width="16" height="16" fill="white"/>
</clipPath>
</defs>
</svg>
