<svg width="16" height="16" viewBox="0 0 16 16" fill="none" xmlns="http://www.w3.org/2000/svg">
<g clip-path="url(#clip0_5_1112)">
<path d="M13.3699 13.1638C13.415 13.2123 13.4501 13.2692 13.473 13.3312C13.4959 13.3933 13.5063 13.4593 13.5035 13.5254C13.5008 13.5915 13.4849 13.6564 13.4569 13.7163C13.4289 13.7763 13.3892 13.8301 13.3403 13.8746C13.2913 13.9191 13.234 13.9534 13.1716 13.9756C13.1093 13.9978 13.0432 14.0074 12.9771 14.0038C12.911 14.0002 12.8463 13.9836 12.7867 13.9549C12.7272 13.9261 12.6739 13.8858 12.6299 13.8363L10.5256 11.5238L8.76932 13.6413C8.67545 13.7541 8.55779 13.8448 8.42479 13.9068C8.29178 13.9688 8.1467 14.0007 7.99995 14.0001C7.85304 14.0005 7.70787 13.9683 7.57486 13.906C7.44184 13.8436 7.32427 13.7526 7.23057 13.6395L0.728071 5.80009C0.642489 5.69784 0.578715 5.57918 0.540667 5.45139C0.50262 5.32359 0.491102 5.18937 0.506821 5.05696C0.52246 4.92423 0.564664 4.79601 0.630916 4.67993C0.697168 4.56386 0.786112 4.46231 0.892446 4.38134C1.52257 3.90302 2.19933 3.48947 2.91245 3.14696L2.64432 2.85196C2.55365 2.75526 2.50388 2.62726 2.50539 2.49471C2.5069 2.36216 2.55959 2.23532 2.65245 2.14071C2.70058 2.09418 2.75757 2.05778 2.82004 2.03369C2.8825 2.00959 2.94917 1.99829 3.01609 2.00044C3.08301 2.0026 3.14881 2.01817 3.20959 2.04624C3.27038 2.07431 3.32491 2.1143 3.36995 2.16384L13.3699 13.1638ZM15.4949 5.05696C15.4793 4.92423 15.4371 4.79601 15.3709 4.67993C15.3046 4.56386 15.2157 4.46231 15.1093 4.38134C13.0661 2.82701 10.5672 1.99002 7.99995 2.00009C7.10642 1.99935 6.21563 2.09893 5.34432 2.29696C5.30211 2.30726 5.26331 2.32838 5.23174 2.35824C5.20018 2.3881 5.17695 2.42567 5.16433 2.46724C5.15171 2.50882 5.15014 2.55297 5.15979 2.59533C5.16943 2.6377 5.18995 2.67682 5.21932 2.70884L11.6249 9.75447C11.649 9.78053 11.6784 9.80117 11.711 9.81501C11.7437 9.82886 11.779 9.83559 11.8144 9.83477C11.8499 9.83394 11.8848 9.82557 11.9168 9.81021C11.9488 9.79486 11.9771 9.77287 11.9999 9.74571L15.2718 5.80009C15.3574 5.69784 15.4212 5.57918 15.4592 5.45139C15.4973 5.32359 15.5088 5.18937 15.4931 5.05696H15.4949Z" fill="black"/>
</g>
<defs>
<clipPath id="clip0_5_1112">
<rect width="16" height="16" fill="white"/>
</clipPath>
</defs>
</svg>
