<svg width="16" height="16" viewBox="0 0 16 16" fill="none" xmlns="http://www.w3.org/2000/svg">
<g clip-path="url(#clip0_5_1110)">
<path d="M14.3537 6.14633C14.4002 6.19279 14.437 6.24794 14.4621 6.30863C14.4873 6.36933 14.5002 6.43438 14.5002 6.50008C14.5002 6.56578 14.4873 6.63083 14.4621 6.69153C14.437 6.75223 14.4002 6.80738 14.3537 6.85383C14.3072 6.90029 14.2521 6.93714 14.1914 6.96228C14.1307 6.98742 14.0656 7.00036 13.9999 7.00036C13.9342 7.00036 13.8692 6.98742 13.8085 6.96228C13.7478 6.93714 13.6927 6.90029 13.6462 6.85383L12.4999 5.70696L11.3537 6.85383C11.2599 6.94765 11.1326 7.00036 10.9999 7.00036C10.8673 7.00036 10.74 6.94765 10.6462 6.85383C10.5524 6.76001 10.4997 6.63276 10.4997 6.50008C10.4997 6.3674 10.5524 6.24015 10.6462 6.14633L11.7931 5.00008L10.6462 3.85383C10.5997 3.80738 10.5629 3.75223 10.5378 3.69153C10.5126 3.63083 10.4997 3.56578 10.4997 3.50008C10.4997 3.43439 10.5126 3.36933 10.5378 3.30863C10.5629 3.24794 10.5997 3.19279 10.6462 3.14633C10.74 3.05251 10.8673 2.9998 10.9999 2.9998C11.0656 2.9998 11.1307 3.01274 11.1914 3.03789C11.2521 3.06303 11.3072 3.09988 11.3537 3.14633L12.4999 4.29321L13.6462 3.14633C13.6927 3.09988 13.7478 3.06303 13.8085 3.03789C13.8692 3.01274 13.9342 2.9998 13.9999 2.9998C14.0656 2.9998 14.1307 3.01274 14.1914 3.03789C14.2521 3.06303 14.3072 3.09988 14.3537 3.14633C14.4002 3.19279 14.437 3.24794 14.4621 3.30863C14.4873 3.36933 14.5002 3.43439 14.5002 3.50008C14.5002 3.56578 14.4873 3.63083 14.4621 3.69153C14.437 3.75223 14.4002 3.80738 14.3537 3.85383L13.2068 5.00008L14.3537 6.14633ZM12.9281 8.18758C12.8365 8.12915 12.7498 8.06353 12.6687 7.99133C12.6227 7.9497 12.5629 7.92664 12.5009 7.92664C12.4389 7.92664 12.379 7.9497 12.3331 7.99133C11.9519 8.33098 11.4553 8.51201 10.945 8.49733C10.4347 8.48266 9.94928 8.27338 9.58828 7.91238C9.22728 7.55138 9.018 7.06599 9.00332 6.55567C8.98864 6.04535 9.16967 5.54874 9.50932 5.16758C9.55043 5.12172 9.57317 5.0623 9.57317 5.00071C9.57317 4.93912 9.55043 4.87969 9.50932 4.83383C9.21984 4.50932 9.04402 4.09929 9.0085 3.66588C8.97297 3.23246 9.07968 2.79928 9.31245 2.43196C9.33485 2.39542 9.34749 2.35374 9.34915 2.31092C9.3508 2.26809 9.34142 2.22556 9.32191 2.18741C9.30239 2.14925 9.27339 2.11675 9.2377 2.09303C9.202 2.06931 9.16081 2.05517 9.11807 2.05196C8.74765 2.01737 8.37495 2.00008 7.99995 2.00008C5.43335 1.99043 2.93519 2.82739 0.892446 4.38133C0.786112 4.4623 0.697168 4.56385 0.630916 4.67992C0.564664 4.796 0.52246 4.92422 0.506821 5.05696C0.491102 5.18936 0.50262 5.32359 0.540667 5.45138C0.578715 5.57917 0.642489 5.69784 0.728071 5.80008L7.22807 13.6395C7.32203 13.7529 7.44001 13.8441 7.57349 13.9065C7.70697 13.9689 7.85262 14.0008 7.99995 14.0001C8.14685 14.0005 8.29202 13.9683 8.42504 13.906C8.55805 13.8436 8.67563 13.7526 8.76932 13.6395L12.9849 8.55758C13.0076 8.53037 13.0242 8.49867 13.0336 8.46457C13.0431 8.43047 13.0452 8.39475 13.0398 8.35978C13.0344 8.3248 13.0217 8.29137 13.0024 8.26168C12.9832 8.232 12.9578 8.20674 12.9281 8.18758Z" fill="black"/>
</g>
<defs>
<clipPath id="clip0_5_1110">
<rect width="16" height="16" fill="white"/>
</clipPath>
</defs>
</svg>
